<?xml version="1.0" encoding="UTF-8" standalone="no"?>
<!DOCTYPE svg PUBLIC "-//W3C//DTD SVG 1.1//EN"
 "http://www.w3.org/Graphics/SVG/1.1/DTD/svg11.dtd">
<!-- Generated by graphviz version 2.30.1 (20150306.0020)
 -->
<!-- Title: allocator.h Pages: 1 -->
<svg width="165pt" height="196pt"
 viewBox="0.00 0.00 165.00 196.00" xmlns="http://www.w3.org/2000/svg" xmlns:xlink="http://www.w3.org/1999/xlink">
<g id="graph0" class="graph" transform="scale(1 1) rotate(0) translate(4 192)">
<title>allocator.h</title>
<!-- Node1 -->
<g id="node1" class="node"><title>Node1</title>
<polygon fill="#bfbfbf" stroke="black" points="51,-168.5 51,-187.5 113,-187.5 113,-168.5 51,-168.5"/>
<text text-anchor="middle" x="82" y="-175.5" font-family="Helvetica,sans-Serif" font-size="10.00">allocator.h</text>
</g>
<!-- Node2 -->
<g id="node2" class="node"><title>Node2</title>
<polygon fill="none" stroke="#bfbfbf" points="0,-56.5 0,-75.5 54,-75.5 54,-56.5 0,-56.5"/>
<text text-anchor="middle" x="27" y="-63.5" font-family="Helvetica,sans-Serif" font-size="10.00">iostream</text>
</g>
<!-- Node1&#45;&gt;Node2 -->
<g id="edge1" class="edge"><title>Node1&#45;&gt;Node2</title>
<path fill="none" stroke="midnightblue" d="M74.2995,-168.236C66.9776,-159.539 56.0625,-145.581 49,-132 41.2702,-117.136 35.3942,-98.9887 31.6677,-85.6501"/>
<polygon fill="midnightblue" stroke="midnightblue" points="34.991,-84.5265 29.0496,-75.7544 28.2238,-86.317 34.991,-84.5265"/>
</g>
<!-- Node3 -->
<g id="node3" class="node"><title>Node3</title>
<g id="a_node3"><a xlink:href="letter_8h.html" target="_top" xlink:title="letter.html">
<polygon fill="none" stroke="black" points="110.5,-56.5 110.5,-75.5 157.5,-75.5 157.5,-56.5 110.5,-56.5"/>
<text text-anchor="middle" x="134" y="-63.5" font-family="Helvetica,sans-Serif" font-size="10.00">letter.h</text>
</a>
</g>
</g>
<!-- Node1&#45;&gt;Node3 -->
<g id="edge2" class="edge"><title>Node1&#45;&gt;Node3</title>
<path fill="none" stroke="midnightblue" d="M89.5318,-168.237C96.6797,-159.541 107.299,-145.583 114,-132 121.346,-117.11 126.656,-98.9651 129.951,-85.6342"/>
<polygon fill="midnightblue" stroke="midnightblue" points="133.395,-86.2778 132.245,-75.7456 126.576,-84.6961 133.395,-86.2778"/>
</g>
<!-- Node5 -->
<g id="node5" class="node"><title>Node5</title>
<g id="a_node5"><a xlink:href="room_8h.html" target="_top" xlink:title="room.html">
<polygon fill="none" stroke="black" points="58.5,-112.5 58.5,-131.5 105.5,-131.5 105.5,-112.5 58.5,-112.5"/>
<text text-anchor="middle" x="82" y="-119.5" font-family="Helvetica,sans-Serif" font-size="10.00">room.h</text>
</a>
</g>
</g>
<!-- Node1&#45;&gt;Node5 -->
<g id="edge4" class="edge"><title>Node1&#45;&gt;Node5</title>
<path fill="none" stroke="midnightblue" d="M82,-168.083C82,-161.006 82,-150.861 82,-141.986"/>
<polygon fill="midnightblue" stroke="midnightblue" points="85.5001,-141.751 82,-131.751 78.5001,-141.751 85.5001,-141.751"/>
</g>
<!-- Node4 -->
<g id="node4" class="node"><title>Node4</title>
<polygon fill="none" stroke="#bfbfbf" points="87.5,-0.5 87.5,-19.5 128.5,-19.5 128.5,-0.5 87.5,-0.5"/>
<text text-anchor="middle" x="108" y="-7.5" font-family="Helvetica,sans-Serif" font-size="10.00">string</text>
</g>
<!-- Node3&#45;&gt;Node4 -->
<g id="edge3" class="edge"><title>Node3&#45;&gt;Node4</title>
<path fill="none" stroke="midnightblue" d="M129.707,-56.083C126.148,-48.6913 120.978,-37.9533 116.576,-28.8111"/>
<polygon fill="midnightblue" stroke="midnightblue" points="119.705,-27.2427 112.213,-19.7511 113.398,-30.2795 119.705,-27.2427"/>
</g>
<!-- Node5&#45;&gt;Node4 -->
<g id="edge5" class="edge"><title>Node5&#45;&gt;Node4</title>
<path fill="none" stroke="midnightblue" d="M84.0402,-112.368C88.236,-94.617 97.9152,-53.6664 103.604,-29.5974"/>
<polygon fill="midnightblue" stroke="midnightblue" points="107.075,-30.1284 105.969,-19.5914 100.263,-28.5182 107.075,-30.1284"/>
</g>
<!-- Node5&#45;&gt;Node2 -->
<g id="edge6" class="edge"><title>Node5&#45;&gt;Node2</title>
<path fill="none" stroke="midnightblue" d="M72.9179,-112.083C64.8287,-104.141 52.8046,-92.3354 43.0898,-82.7973"/>
<polygon fill="midnightblue" stroke="midnightblue" points="45.5009,-80.2595 35.9131,-75.7511 40.5967,-85.2545 45.5009,-80.2595"/>
</g>
<!-- Node5&#45;&gt;Node3 -->
<g id="edge7" class="edge"><title>Node5&#45;&gt;Node3</title>
<path fill="none" stroke="midnightblue" d="M90.5867,-112.083C98.159,-104.22 109.378,-92.5688 118.514,-83.0813"/>
<polygon fill="midnightblue" stroke="midnightblue" points="121.158,-85.3821 125.573,-75.7511 116.115,-80.5266 121.158,-85.3821"/>
</g>
</g>
</svg>
