<?xml version="1.0" encoding="UTF-8" standalone="no"?>
<!DOCTYPE svg PUBLIC "-//W3C//DTD SVG 1.1//EN"
 "http://www.w3.org/Graphics/SVG/1.1/DTD/svg11.dtd">
<!-- Generated by graphviz version 2.30.1 (20150306.0020)
 -->
<!-- Title: allocator.cpp Pages: 1 -->
<!--zoomable 252 -->
<svg id="main" version="1.1" xmlns="http://www.w3.org/2000/svg" xmlns:xlink="http://www.w3.org/1999/xlink" xml:space="preserve" onload="init(evt)">
<style type="text/css"><![CDATA[
.edge:hover path { stroke: red; }
.edge:hover polygon { stroke: red; fill: red; }
]]></style>
<script type="text/javascript"><![CDATA[
var edges = document.getElementsByTagName('g');
if (edges && edges.length) {
  for (var i=0;i<edges.length;i++) {
    if (edges[i].id.substr(0,4)=='edge') {
      edges[i].setAttribute('class','edge');
    }
  }
}
]]></script>
        <defs>
                <circle id="rim" cx="0" cy="0" r="7"/>
                <circle id="rim2" cx="0" cy="0" r="3.5"/>
                <g id="zoomPlus">
                        <use xlink:href="#rim" fill="#404040">
                                <set attributeName="fill" to="#808080" begin="zoomplus.mouseover" end="zoomplus.mouseout"/>
                        </use>
                        <path d="M-4,0h8M0,-4v8" fill="none" stroke="white" stroke-width="1.5" pointer-events="none"/>
                </g>
                <g id="zoomMin">
                        <use xlink:href="#rim" fill="#404040">
                                <set attributeName="fill" to="#808080" begin="zoomminus.mouseover" end="zoomminus.mouseout"/>
                        </use>
                        <path d="M-4,0h8" fill="none" stroke="white" stroke-width="1.5" pointer-events="none"/>
                </g>
                <g id="dirArrow">
                        <path fill="none" stroke="white" stroke-width="1.5" d="M0,-3.0v7 M-2.5,-0.5L0,-3.0L2.5,-0.5"/>
                </g>
               <g id="resetDef">
                       <use xlink:href="#rim2" fill="#404040">
                               <set attributeName="fill" to="#808080" begin="reset.mouseover" end="reset.mouseout"/>
                       </use>
               </g>
        </defs>

<script type="text/javascript">
var viewWidth = 563;
var viewHeight = 252;
var sectionId = 'dynsection-0';
</script>
<script xlink:href="svgpan.js"/>
<svg id="graph" class="graph">
<g id="viewport">
<title>allocator.cpp</title>
<!-- Node1 -->
<g id="node1" class="node"><title>Node1</title>
<polygon fill="#bfbfbf" stroke="black" points="103.101,-224.5 103.101,-243.5 175.101,-243.5 175.101,-224.5 103.101,-224.5"/>
<text text-anchor="middle" x="139.101" y="-231.5" font-family="Helvetica,sans-Serif" font-size="10.00">allocator.cpp</text>
</g>
<!-- Node2 -->
<g id="node2" class="node"><title>Node2</title>
<polygon fill="none" stroke="#bfbfbf" points="19.1009,-112.5 19.1009,-131.5 75.1009,-131.5 75.1009,-112.5 19.1009,-112.5"/>
<text text-anchor="middle" x="47.1009" y="-119.5" font-family="Helvetica,sans-Serif" font-size="10.00">algorithm</text>
</g>
<!-- Node1&#45;&gt;Node2 -->
<g id="edge1" class="edge"><title>Node1&#45;&gt;Node2</title>
<path fill="none" stroke="midnightblue" d="M131.882,-224.368C116.565,-206.055 80.5964,-163.049 60.7858,-139.362"/>
<polygon fill="midnightblue" stroke="midnightblue" points="63.3868,-137.017 54.2864,-131.591 58.0173,-141.508 63.3868,-137.017"/>
</g>
<!-- Node3 -->
<g id="node3" class="node"><title>Node3</title>
<polygon fill="none" stroke="#bfbfbf" points="93.1009,-112.5 93.1009,-131.5 137.101,-131.5 137.101,-112.5 93.1009,-112.5"/>
<text text-anchor="middle" x="115.101" y="-119.5" font-family="Helvetica,sans-Serif" font-size="10.00">vector</text>
</g>
<!-- Node1&#45;&gt;Node3 -->
<g id="edge2" class="edge"><title>Node1&#45;&gt;Node3</title>
<path fill="none" stroke="midnightblue" d="M137.218,-224.368C133.345,-206.617 124.41,-165.666 119.159,-141.597"/>
<polygon fill="midnightblue" stroke="midnightblue" points="122.527,-140.615 116.975,-131.591 115.688,-142.108 122.527,-140.615"/>
</g>
<!-- Node4 -->
<g id="node4" class="node"><title>Node4</title>
<polygon fill="none" stroke="#bfbfbf" points="389.101,-56.5 389.101,-75.5 443.101,-75.5 443.101,-56.5 389.101,-56.5"/>
<text text-anchor="middle" x="416.101" y="-63.5" font-family="Helvetica,sans-Serif" font-size="10.00">iostream</text>
</g>
<!-- Node1&#45;&gt;Node4 -->
<g id="edge3" class="edge"><title>Node1&#45;&gt;Node4</title>
<path fill="none" stroke="midnightblue" d="M116.701,-224.446C69.9006,-205.389 -30.6576,-157.526 10.1009,-112 34.4939,-84.7539 283.156,-72.1997 378.849,-68.3502"/>
<polygon fill="midnightblue" stroke="midnightblue" points="379.091,-71.8435 388.946,-67.9537 378.816,-64.8489 379.091,-71.8435"/>
</g>
<!-- Node5 -->
<g id="node5" class="node"><title>Node5</title>
<polygon fill="none" stroke="#bfbfbf" points="143.101,-168.5 143.101,-187.5 183.101,-187.5 183.101,-168.5 143.101,-168.5"/>
<text text-anchor="middle" x="163.101" y="-175.5" font-family="Helvetica,sans-Serif" font-size="10.00">utility</text>
</g>
<!-- Node1&#45;&gt;Node5 -->
<g id="edge4" class="edge"><title>Node1&#45;&gt;Node5</title>
<path fill="none" stroke="midnightblue" d="M143.064,-224.083C146.314,-216.77 151.02,-206.181 155.055,-197.103"/>
<polygon fill="midnightblue" stroke="midnightblue" points="158.348,-198.311 159.212,-187.751 151.952,-195.468 158.348,-198.311"/>
</g>
<!-- Node6 -->
<g id="node6" class="node"><title>Node6</title>
<g id="a_node6"><a xlink:href="allocator_8h.html" target="_top" xlink:title="allocator.html">
<polygon fill="none" stroke="black" points="428.101,-168.5 428.101,-187.5 490.101,-187.5 490.101,-168.5 428.101,-168.5"/>
<text text-anchor="middle" x="459.101" y="-175.5" font-family="Helvetica,sans-Serif" font-size="10.00">allocator.h</text>
</a>
</g>
</g>
<!-- Node1&#45;&gt;Node6 -->
<g id="edge5" class="edge"><title>Node1&#45;&gt;Node6</title>
<path fill="none" stroke="midnightblue" d="M175.187,-226.91C235.108,-216.799 354.772,-196.606 417.908,-185.951"/>
<polygon fill="midnightblue" stroke="midnightblue" points="418.629,-189.379 427.907,-184.264 417.464,-182.477 418.629,-189.379"/>
</g>
<!-- Node10 -->
<g id="node10" class="node"><title>Node10</title>
<g id="a_node10"><a xlink:href="fileio_8h.html" target="_top" xlink:title="fileio.html">
<polygon fill="none" stroke="black" points="218.601,-168.5 218.601,-187.5 263.601,-187.5 263.601,-168.5 218.601,-168.5"/>
<text text-anchor="middle" x="241.101" y="-175.5" font-family="Helvetica,sans-Serif" font-size="10.00">fileio.h</text>
</a>
</g>
</g>
<!-- Node1&#45;&gt;Node10 -->
<g id="edge13" class="edge"><title>Node1&#45;&gt;Node10</title>
<path fill="none" stroke="midnightblue" d="M155.489,-224.324C171.772,-215.703 196.968,-202.364 215.817,-192.386"/>
<polygon fill="midnightblue" stroke="midnightblue" points="217.553,-195.427 224.753,-187.655 214.278,-189.24 217.553,-195.427"/>
</g>
<!-- Node6&#45;&gt;Node4 -->
<g id="edge6" class="edge"><title>Node6&#45;&gt;Node4</title>
<path fill="none" stroke="midnightblue" d="M455.727,-168.368C448.725,-150.456 432.489,-108.923 423.117,-84.9482"/>
<polygon fill="midnightblue" stroke="midnightblue" points="426.36,-83.6308 419.459,-75.5914 419.84,-86.1794 426.36,-83.6308"/>
</g>
<!-- Node7 -->
<g id="node7" class="node"><title>Node7</title>
<g id="a_node7"><a xlink:href="letter_8h.html" target="_top" xlink:title="letter.html">
<polygon fill="none" stroke="black" points="508.601,-56.5 508.601,-75.5 555.601,-75.5 555.601,-56.5 508.601,-56.5"/>
<text text-anchor="middle" x="532.101" y="-63.5" font-family="Helvetica,sans-Serif" font-size="10.00">letter.h</text>
</a>
</g>
</g>
<!-- Node6&#45;&gt;Node7 -->
<g id="edge7" class="edge"><title>Node6&#45;&gt;Node7</title>
<path fill="none" stroke="midnightblue" d="M475.667,-168.372C488.902,-160.618 506.871,-147.999 517.101,-132 525.971,-118.126 529.616,-99.6121 531.103,-85.8922"/>
<polygon fill="midnightblue" stroke="midnightblue" points="534.609,-85.9479 531.912,-75.7022 527.631,-85.3938 534.609,-85.9479"/>
</g>
<!-- Node9 -->
<g id="node9" class="node"><title>Node9</title>
<g id="a_node9"><a xlink:href="room_8h.html" target="_top" xlink:title="room.html">
<polygon fill="none" stroke="black" points="461.601,-112.5 461.601,-131.5 508.601,-131.5 508.601,-112.5 461.601,-112.5"/>
<text text-anchor="middle" x="485.101" y="-119.5" font-family="Helvetica,sans-Serif" font-size="10.00">room.h</text>
</a>
</g>
</g>
<!-- Node6&#45;&gt;Node9 -->
<g id="edge9" class="edge"><title>Node6&#45;&gt;Node9</title>
<path fill="none" stroke="midnightblue" d="M463.394,-168.083C466.953,-160.691 472.123,-149.953 476.525,-140.811"/>
<polygon fill="midnightblue" stroke="midnightblue" points="479.703,-142.279 480.887,-131.751 473.396,-139.243 479.703,-142.279"/>
</g>
<!-- Node8 -->
<g id="node8" class="node"><title>Node8</title>
<polygon fill="none" stroke="#bfbfbf" points="459.601,-0.5 459.601,-19.5 500.601,-19.5 500.601,-0.5 459.601,-0.5"/>
<text text-anchor="middle" x="480.101" y="-7.5" font-family="Helvetica,sans-Serif" font-size="10.00">string</text>
</g>
<!-- Node7&#45;&gt;Node8 -->
<g id="edge8" class="edge"><title>Node7&#45;&gt;Node8</title>
<path fill="none" stroke="midnightblue" d="M523.514,-56.083C515.942,-48.2195 504.723,-36.5688 495.587,-27.0813"/>
<polygon fill="midnightblue" stroke="midnightblue" points="497.985,-24.5266 488.528,-19.7511 492.943,-29.3821 497.985,-24.5266"/>
</g>
<!-- Node9&#45;&gt;Node8 -->
<g id="edge10" class="edge"><title>Node9&#45;&gt;Node8</title>
<path fill="none" stroke="midnightblue" d="M484.709,-112.368C483.902,-94.617 482.04,-53.6664 480.946,-29.5974"/>
<polygon fill="midnightblue" stroke="midnightblue" points="484.442,-29.4221 480.491,-19.5914 477.449,-29.7401 484.442,-29.4221"/>
</g>
<!-- Node9&#45;&gt;Node4 -->
<g id="edge11" class="edge"><title>Node9&#45;&gt;Node4</title>
<path fill="none" stroke="midnightblue" d="M474.015,-112.324C463.615,-104.185 447.84,-91.8395 435.379,-82.0874"/>
<polygon fill="midnightblue" stroke="midnightblue" points="437.421,-79.2407 427.389,-75.8339 433.107,-84.7533 437.421,-79.2407"/>
</g>
<!-- Node9&#45;&gt;Node7 -->
<g id="edge12" class="edge"><title>Node9&#45;&gt;Node7</title>
<path fill="none" stroke="midnightblue" d="M492.862,-112.083C499.638,-104.298 509.644,-92.8015 517.856,-83.3665"/>
<polygon fill="midnightblue" stroke="midnightblue" points="520.559,-85.592 524.484,-75.7511 515.279,-80.9963 520.559,-85.592"/>
</g>
<!-- Node10&#45;&gt;Node2 -->
<g id="edge14" class="edge"><title>Node10&#45;&gt;Node2</title>
<path fill="none" stroke="midnightblue" d="M218.467,-170.7C185.734,-161.589 124.764,-144.618 85.0718,-133.569"/>
<polygon fill="midnightblue" stroke="midnightblue" points="85.795,-130.138 75.2227,-130.828 83.9179,-136.881 85.795,-130.138"/>
</g>
<!-- Node10&#45;&gt;Node4 -->
<g id="edge15" class="edge"><title>Node10&#45;&gt;Node4</title>
<path fill="none" stroke="midnightblue" d="M263.82,-173.578C291.495,-168.475 338.57,-156.692 371.101,-132 387.445,-119.594 400.047,-99.5107 407.703,-84.9475"/>
<polygon fill="midnightblue" stroke="midnightblue" points="410.878,-86.4217 412.198,-75.9094 404.611,-83.3042 410.878,-86.4217"/>
</g>
<!-- Node11 -->
<g id="node11" class="node"><title>Node11</title>
<polygon fill="none" stroke="#bfbfbf" points="155.101,-112.5 155.101,-131.5 205.101,-131.5 205.101,-112.5 155.101,-112.5"/>
<text text-anchor="middle" x="180.101" y="-119.5" font-family="Helvetica,sans-Serif" font-size="10.00">fstream</text>
</g>
<!-- Node10&#45;&gt;Node11 -->
<g id="edge16" class="edge"><title>Node10&#45;&gt;Node11</title>
<path fill="none" stroke="midnightblue" d="M231.3,-168.324C222.283,-160.341 208.695,-148.313 197.783,-138.653"/>
<polygon fill="midnightblue" stroke="midnightblue" points="199.888,-135.842 190.08,-131.834 195.248,-141.083 199.888,-135.842"/>
</g>
<!-- Node12 -->
<g id="node12" class="node"><title>Node12</title>
<polygon fill="none" stroke="#bfbfbf" points="223.601,-112.5 223.601,-131.5 258.601,-131.5 258.601,-112.5 223.601,-112.5"/>
<text text-anchor="middle" x="241.101" y="-119.5" font-family="Helvetica,sans-Serif" font-size="10.00">map</text>
</g>
<!-- Node10&#45;&gt;Node12 -->
<g id="edge17" class="edge"><title>Node10&#45;&gt;Node12</title>
<path fill="none" stroke="midnightblue" d="M241.101,-168.083C241.101,-161.006 241.101,-150.861 241.101,-141.986"/>
<polygon fill="midnightblue" stroke="midnightblue" points="244.601,-141.751 241.101,-131.751 237.601,-141.751 244.601,-141.751"/>
</g>
<!-- Node13 -->
<g id="node13" class="node"><title>Node13</title>
<polygon fill="none" stroke="#bfbfbf" points="277.101,-112.5 277.101,-131.5 329.101,-131.5 329.101,-112.5 277.101,-112.5"/>
<text text-anchor="middle" x="303.101" y="-119.5" font-family="Helvetica,sans-Serif" font-size="10.00">sstream</text>
</g>
<!-- Node10&#45;&gt;Node13 -->
<g id="edge18" class="edge"><title>Node10&#45;&gt;Node13</title>
<path fill="none" stroke="midnightblue" d="M251.062,-168.324C260.227,-160.341 274.038,-148.313 285.129,-138.653"/>
<polygon fill="midnightblue" stroke="midnightblue" points="287.716,-141.041 292.958,-131.834 283.119,-135.762 287.716,-141.041"/>
</g>
<!-- Node10&#45;&gt;Node8 -->
<g id="edge19" class="edge"><title>Node10&#45;&gt;Node8</title>
<path fill="none" stroke="midnightblue" d="M263.834,-170.93C285.126,-164.293 316.778,-151.87 338.101,-132 366.335,-105.69 351.716,-82.1475 380.101,-56 399.925,-37.7382 428.408,-25.9121 449.908,-18.9886"/>
<polygon fill="midnightblue" stroke="midnightblue" points="450.986,-22.3191 459.536,-16.062 448.95,-15.6217 450.986,-22.3191"/>
</g>
<!-- Node10&#45;&gt;Node3 -->
<g id="edge20" class="edge"><title>Node10&#45;&gt;Node3</title>
<path fill="none" stroke="midnightblue" d="M221.136,-168.444C200.492,-159.596 168.038,-145.687 144.469,-135.586"/>
<polygon fill="midnightblue" stroke="midnightblue" points="145.543,-132.239 134.973,-131.516 142.785,-138.673 145.543,-132.239"/>
</g>
<!-- Node10&#45;&gt;Node9 -->
<g id="edge21" class="edge"><title>Node10&#45;&gt;Node9</title>
<path fill="none" stroke="midnightblue" d="M263.618,-172.017C306.774,-162.466 401.318,-141.542 451.793,-130.371"/>
<polygon fill="midnightblue" stroke="midnightblue" points="452.559,-133.787 461.567,-128.208 451.047,-126.952 452.559,-133.787"/>
</g>
</g>
</svg>
        <g id="navigator" transform="translate(0 0)" fill="#404254">
                <rect fill="#f2f5e9" fill-opacity="0.5" stroke="#606060" stroke-width=".5" x="0" y="0" width="60" height="60"/>
                <use id="zoomplus" xlink:href="#zoomPlus" x="17" y="9" onmousedown="handleZoom(evt,'in')"/>
                <use id="zoomminus" xlink:href="#zoomMin" x="42" y="9" onmousedown="handleZoom(evt,'out')"/>
                <use id="reset" xlink:href="#resetDef" x="30" y="36" onmousedown="handleReset()"/>
                <g id="arrowUp" xlink:href="#dirArrow" transform="translate(30 24)" onmousedown="handlePan(0,-1)">
                  <use xlink:href="#rim" fill="#404040">
                        <set attributeName="fill" to="#808080" begin="arrowUp.mouseover" end="arrowUp.mouseout"/>
                  </use>
                  <path fill="none" stroke="white" stroke-width="1.5" d="M0,-3.0v7 M-2.5,-0.5L0,-3.0L2.5,-0.5"/>
                </g>
                <g id="arrowRight" xlink:href="#dirArrow" transform="rotate(90) translate(36 -43)" onmousedown="handlePan(1,0)">
                  <use xlink:href="#rim" fill="#404040">
                        <set attributeName="fill" to="#808080" begin="arrowRight.mouseover" end="arrowRight.mouseout"/>
                  </use>
                  <path fill="none" stroke="white" stroke-width="1.5" d="M0,-3.0v7 M-2.5,-0.5L0,-3.0L2.5,-0.5"/>
                </g>
                <g id="arrowDown" xlink:href="#dirArrow" transform="rotate(180) translate(-30 -48)" onmousedown="handlePan(0,1)">
                  <use xlink:href="#rim" fill="#404040">
                        <set attributeName="fill" to="#808080" begin="arrowDown.mouseover" end="arrowDown.mouseout"/>
                  </use>
                  <path fill="none" stroke="white" stroke-width="1.5" d="M0,-3.0v7 M-2.5,-0.5L0,-3.0L2.5,-0.5"/>
                </g>
                <g id="arrowLeft" xlink:href="#dirArrow" transform="rotate(270) translate(-36 17)" onmousedown="handlePan(-1,0)">
                  <use xlink:href="#rim" fill="#404040">
                        <set attributeName="fill" to="#808080" begin="arrowLeft.mouseover" end="arrowLeft.mouseout"/>
                  </use>
                  <path fill="none" stroke="white" stroke-width="1.5" d="M0,-3.0v7 M-2.5,-0.5L0,-3.0L2.5,-0.5"/>
                </g>
        </g>
        <svg viewBox="0 0 15 15" width="100%" height="30px" preserveAspectRatio="xMaxYMin meet">
         <g id="arrow_out" transform="scale(0.3 0.3)">
          <a xlink:href="allocator_8cpp__incl_org.svg" target="_base">
           <rect id="button" ry="5" rx="5" y="6" x="6" height="38" width="38"
                fill="#f2f5e9" fill-opacity="0.5" stroke="#606060" stroke-width="1.0"/>
           <path id="arrow"
             d="M 11.500037,31.436501 C 11.940474,20.09759 22.043105,11.32322 32.158766,21.979434 L 37.068811,17.246167 C 37.068811,17.246167 37.088388,32 37.088388,32 L 22.160133,31.978069 C 22.160133,31.978069 26.997745,27.140456 26.997745,27.140456 C 18.528582,18.264221 13.291696,25.230495 11.500037,31.436501 z"
             style="fill:#404040;"/>
          </a>
         </g>
        </svg>
</svg>
