<?xml version="1.0" encoding="UTF-8" standalone="no"?>
<!DOCTYPE svg PUBLIC "-//W3C//DTD SVG 1.1//EN"
 "http://www.w3.org/Graphics/SVG/1.1/DTD/svg11.dtd">
<!-- Generated by graphviz version 2.30.1 (20150306.0020)
 -->
<!-- Title: Allocator Pages: 1 -->
<svg width="153pt" height="234pt"
 viewBox="0.00 0.00 153.00 234.00" xmlns="http://www.w3.org/2000/svg" xmlns:xlink="http://www.w3.org/1999/xlink">
<g id="graph0" class="graph" transform="scale(1 1) rotate(0) translate(4 230)">
<title>Allocator</title>
<!-- Node1 -->
<g id="node1" class="node"><title>Node1</title>
<polygon fill="#bfbfbf" stroke="black" points="8.5,-0.5 8.5,-19.5 63.5,-19.5 63.5,-0.5 8.5,-0.5"/>
<text text-anchor="middle" x="36" y="-7.5" font-family="Helvetica,sans-Serif" font-size="10.00">Allocator</text>
</g>
<!-- Node2 -->
<g id="node2" class="node"><title>Node2</title>
<g id="a_node2"><a xlink:href="classLetter.html" target="_top" xlink:title="Represents a group of students with the same first letter of their last name. ">
<polygon fill="none" stroke="black" points="-0.5,-136.5 -0.5,-155.5 40.5,-155.5 40.5,-136.5 -0.5,-136.5"/>
<text text-anchor="middle" x="20" y="-143.5" font-family="Helvetica,sans-Serif" font-size="10.00">Letter</text>
</a>
</g>
</g>
<!-- Node2&#45;&gt;Node1 -->
<g id="edge1" class="edge"><title>Node2&#45;&gt;Node1</title>
<path fill="none" stroke="#9a32cd" stroke-dasharray="5,2" d="M18.5628,-125.984C17.7242,-110.34 17.2973,-87.6288 20,-68 22.4114,-50.4865 28.8052,-30.7761 32.7414,-19.7267"/>
<polygon fill="#9a32cd" stroke="#9a32cd" points="15.0985,-126.65 19.2392,-136.402 22.0838,-126.196 15.0985,-126.65"/>
<text text-anchor="middle" x="33.5" y="-75.5" font-family="Helvetica,sans-Serif" font-size="10.00"> alpha</text>
</g>
<!-- Node3 -->
<g id="node3" class="node"><title>Node3</title>
<g id="a_node3"><a xlink:href="classRoom.html" target="_top" xlink:title="Represents a testing room, which has a group of letters allocated to it (where letters are first lett...">
<polygon fill="none" stroke="black" points="56.5,-68.5 56.5,-87.5 99.5,-87.5 99.5,-68.5 56.5,-68.5"/>
<text text-anchor="middle" x="78" y="-75.5" font-family="Helvetica,sans-Serif" font-size="10.00">Room</text>
</a>
</g>
</g>
<!-- Node2&#45;&gt;Node3 -->
<g id="edge3" class="edge"><title>Node2&#45;&gt;Node3</title>
<path fill="none" stroke="#9a32cd" stroke-dasharray="5,2" d="M33.1544,-128.379C38.8283,-121.366 45.6163,-113.179 52,-106 57.5351,-99.7754 64.0351,-93.0254 69.1513,-87.8315"/>
<polygon fill="#9a32cd" stroke="#9a32cd" points="30.1944,-126.476 26.6777,-136.47 35.6593,-130.85 30.1944,-126.476"/>
<text text-anchor="middle" x="67.5" y="-109.5" font-family="Helvetica,sans-Serif" font-size="10.00"> letters</text>
</g>
<!-- Node3&#45;&gt;Node1 -->
<g id="edge2" class="edge"><title>Node3&#45;&gt;Node1</title>
<path fill="none" stroke="#9a32cd" stroke-dasharray="5,2" d="M66.9037,-59.563C58.77,-46.7815 48.0654,-29.9599 41.6262,-19.8411"/>
<polygon fill="#9a32cd" stroke="#9a32cd" points="64.1876,-61.8141 72.5092,-68.3717 70.0933,-58.0559 64.1876,-61.8141"/>
<text text-anchor="middle" x="76.5" y="-41.5" font-family="Helvetica,sans-Serif" font-size="10.00"> rooms</text>
</g>
<!-- Node4 -->
<g id="node4" class="node"><title>Node4</title>
<g id="a_node4"><a doxygen="/home/parisfe2/Documents/CS225-sp18assignments/doxygen/cppreference-doxygen-web.tag.xml:http://en.cppreference.com/w//" xlink:href="http://en.cppreference.com/w/cpp/string/basic_string.html" target="_top" xlink:title="STL class. ">
<polygon fill="none" stroke="black" points="68,-136.5 68,-155.5 128,-155.5 128,-136.5 68,-136.5"/>
<text text-anchor="middle" x="98" y="-143.5" font-family="Helvetica,sans-Serif" font-size="10.00">std::string</text>
</a>
</g>
</g>
<!-- Node4&#45;&gt;Node3 -->
<g id="edge4" class="edge"><title>Node4&#45;&gt;Node3</title>
<path fill="none" stroke="#9a32cd" stroke-dasharray="5,2" d="M92.3712,-126.425C88.5448,-113.798 83.6552,-97.6623 80.6791,-87.8411"/>
<polygon fill="#9a32cd" stroke="#9a32cd" points="89.1356,-127.816 95.3853,-136.372 95.8348,-125.786 89.1356,-127.816"/>
<text text-anchor="middle" x="104" y="-109.5" font-family="Helvetica,sans-Serif" font-size="10.00"> name</text>
</g>
<!-- Node5 -->
<g id="node5" class="node"><title>Node5</title>
<g id="a_node5"><a doxygen="/home/parisfe2/Documents/CS225-sp18assignments/doxygen/cppreference-doxygen-web.tag.xml:http://en.cppreference.com/w//" xlink:href="http://en.cppreference.com/w/cpp/string/basic_string.html" target="_top" xlink:title="std::basic_string\&lt;\l char \&gt;">
<polygon fill="none" stroke="black" points="50.5,-195 50.5,-225 145.5,-225 145.5,-195 50.5,-195"/>
<text text-anchor="start" x="58.5" y="-213" font-family="Helvetica,sans-Serif" font-size="10.00">std::basic_string&lt;</text>
<text text-anchor="middle" x="98" y="-202" font-family="Helvetica,sans-Serif" font-size="10.00"> char &gt;</text>
</a>
</g>
</g>
<!-- Node5&#45;&gt;Node4 -->
<g id="edge5" class="edge"><title>Node5&#45;&gt;Node4</title>
<path fill="none" stroke="midnightblue" d="M98,-184.871C98,-174.663 98,-163.408 98,-155.842"/>
<polygon fill="midnightblue" stroke="midnightblue" points="94.5001,-184.931 98,-194.931 101.5,-184.931 94.5001,-184.931"/>
</g>
</g>
</svg>
