<?xml version="1.0" encoding="UTF-8" standalone="no"?>
<!DOCTYPE svg PUBLIC "-//W3C//DTD SVG 1.1//EN"
 "http://www.w3.org/Graphics/SVG/1.1/DTD/svg11.dtd">
<!-- Generated by graphviz version 2.30.1 (20150306.0020)
 -->
<!-- Title: Room Pages: 1 -->
<svg width="144pt" height="166pt"
 viewBox="0.00 0.00 144.00 166.00" xmlns="http://www.w3.org/2000/svg" xmlns:xlink="http://www.w3.org/1999/xlink">
<g id="graph0" class="graph" transform="scale(1 1) rotate(0) translate(4 162)">
<title>Room</title>
<!-- Node1 -->
<g id="node1" class="node"><title>Node1</title>
<polygon fill="#bfbfbf" stroke="black" points="28.5,-0.5 28.5,-19.5 71.5,-19.5 71.5,-0.5 28.5,-0.5"/>
<text text-anchor="middle" x="50" y="-7.5" font-family="Helvetica,sans-Serif" font-size="10.00">Room</text>
</g>
<!-- Node2 -->
<g id="node2" class="node"><title>Node2</title>
<g id="a_node2"><a xlink:href="classLetter.html" target="_top" xlink:title="Represents a group of students with the same first letter of their last name. ">
<polygon fill="none" stroke="black" points="-0.5,-68.5 -0.5,-87.5 40.5,-87.5 40.5,-68.5 -0.5,-68.5"/>
<text text-anchor="middle" x="20" y="-75.5" font-family="Helvetica,sans-Serif" font-size="10.00">Letter</text>
</a>
</g>
</g>
<!-- Node2&#45;&gt;Node1 -->
<g id="edge1" class="edge"><title>Node2&#45;&gt;Node1</title>
<path fill="none" stroke="#9a32cd" stroke-dasharray="5,2" d="M21.9931,-58.1478C23.1706,-51.5524 25.039,-44.2407 28,-38 31.214,-31.2261 36.4761,-24.6797 41.0481,-19.7297"/>
<polygon fill="#9a32cd" stroke="#9a32cd" points="18.4982,-57.8699 20.5926,-68.2557 25.432,-58.8307 18.4982,-57.8699"/>
<text text-anchor="middle" x="43.5" y="-41.5" font-family="Helvetica,sans-Serif" font-size="10.00"> letters</text>
</g>
<!-- Node3 -->
<g id="node3" class="node"><title>Node3</title>
<g id="a_node3"><a doxygen="/home/parisfe2/Documents/CS225-sp18assignments/doxygen/cppreference-doxygen-web.tag.xml:http://en.cppreference.com/w//" xlink:href="http://en.cppreference.com/w/cpp/string/basic_string.html" target="_top" xlink:title="STL class. ">
<polygon fill="none" stroke="black" points="59,-68.5 59,-87.5 119,-87.5 119,-68.5 59,-68.5"/>
<text text-anchor="middle" x="89" y="-75.5" font-family="Helvetica,sans-Serif" font-size="10.00">std::string</text>
</a>
</g>
</g>
<!-- Node3&#45;&gt;Node1 -->
<g id="edge2" class="edge"><title>Node3&#45;&gt;Node1</title>
<path fill="none" stroke="#9a32cd" stroke-dasharray="5,2" d="M78.6963,-59.563C71.1436,-46.7815 61.2036,-29.9599 55.2243,-19.8411"/>
<polygon fill="#9a32cd" stroke="#9a32cd" points="75.8008,-61.5429 83.9014,-68.3717 81.8273,-57.9818 75.8008,-61.5429"/>
<text text-anchor="middle" x="87" y="-41.5" font-family="Helvetica,sans-Serif" font-size="10.00"> name</text>
</g>
<!-- Node4 -->
<g id="node4" class="node"><title>Node4</title>
<g id="a_node4"><a doxygen="/home/parisfe2/Documents/CS225-sp18assignments/doxygen/cppreference-doxygen-web.tag.xml:http://en.cppreference.com/w//" xlink:href="http://en.cppreference.com/w/cpp/string/basic_string.html" target="_top" xlink:title="std::basic_string\&lt;\l char \&gt;">
<polygon fill="none" stroke="black" points="41.5,-127 41.5,-157 136.5,-157 136.5,-127 41.5,-127"/>
<text text-anchor="start" x="49.5" y="-145" font-family="Helvetica,sans-Serif" font-size="10.00">std::basic_string&lt;</text>
<text text-anchor="middle" x="89" y="-134" font-family="Helvetica,sans-Serif" font-size="10.00"> char &gt;</text>
</a>
</g>
</g>
<!-- Node4&#45;&gt;Node3 -->
<g id="edge3" class="edge"><title>Node4&#45;&gt;Node3</title>
<path fill="none" stroke="midnightblue" d="M89,-116.871C89,-106.663 89,-95.4077 89,-87.8419"/>
<polygon fill="midnightblue" stroke="midnightblue" points="85.5001,-116.931 89,-126.931 92.5001,-116.931 85.5001,-116.931"/>
</g>
</g>
</svg>
