<?xml version="1.0" encoding="UTF-8" standalone="no"?>
<!DOCTYPE svg PUBLIC "-//W3C//DTD SVG 1.1//EN"
 "http://www.w3.org/Graphics/SVG/1.1/DTD/svg11.dtd">
<!-- Generated by graphviz version 2.30.1 (20150306.0020)
 -->
<!-- Title: fileio.cpp Pages: 1 -->
<svg width="440pt" height="252pt"
 viewBox="0.00 0.00 440.30 252.00" xmlns="http://www.w3.org/2000/svg" xmlns:xlink="http://www.w3.org/1999/xlink">
<g id="graph0" class="graph" transform="scale(1 1) rotate(0) translate(4 248)">
<title>fileio.cpp</title>
<!-- Node1 -->
<g id="node1" class="node"><title>Node1</title>
<polygon fill="#bfbfbf" stroke="black" points="201,-224.5 201,-243.5 257,-243.5 257,-224.5 201,-224.5"/>
<text text-anchor="middle" x="229" y="-231.5" font-family="Helvetica,sans-Serif" font-size="10.00">fileio.cpp</text>
</g>
<!-- Node2 -->
<g id="node2" class="node"><title>Node2</title>
<g id="a_node2"><a xlink:href="fileio_8h.html" target="_top" xlink:title="fileio.html">
<polygon fill="none" stroke="black" points="206.5,-168.5 206.5,-187.5 251.5,-187.5 251.5,-168.5 206.5,-168.5"/>
<text text-anchor="middle" x="229" y="-175.5" font-family="Helvetica,sans-Serif" font-size="10.00">fileio.h</text>
</a>
</g>
</g>
<!-- Node1&#45;&gt;Node2 -->
<g id="edge1" class="edge"><title>Node1&#45;&gt;Node2</title>
<path fill="none" stroke="midnightblue" d="M229,-224.083C229,-217.006 229,-206.861 229,-197.986"/>
<polygon fill="midnightblue" stroke="midnightblue" points="232.5,-197.751 229,-187.751 225.5,-197.751 232.5,-197.751"/>
</g>
<!-- Node3 -->
<g id="node3" class="node"><title>Node3</title>
<polygon fill="none" stroke="#bfbfbf" points="0,-112.5 0,-131.5 56,-131.5 56,-112.5 0,-112.5"/>
<text text-anchor="middle" x="28" y="-119.5" font-family="Helvetica,sans-Serif" font-size="10.00">algorithm</text>
</g>
<!-- Node2&#45;&gt;Node3 -->
<g id="edge2" class="edge"><title>Node2&#45;&gt;Node3</title>
<path fill="none" stroke="midnightblue" d="M206.333,-170.91C172.188,-161.737 107.157,-144.266 65.7714,-133.148"/>
<polygon fill="midnightblue" stroke="midnightblue" points="66.613,-129.75 56.0473,-130.535 64.7967,-136.51 66.613,-129.75"/>
</g>
<!-- Node4 -->
<g id="node4" class="node"><title>Node4</title>
<polygon fill="none" stroke="#bfbfbf" points="151,-56.5 151,-75.5 205,-75.5 205,-56.5 151,-56.5"/>
<text text-anchor="middle" x="178" y="-63.5" font-family="Helvetica,sans-Serif" font-size="10.00">iostream</text>
</g>
<!-- Node2&#45;&gt;Node4 -->
<g id="edge3" class="edge"><title>Node2&#45;&gt;Node4</title>
<path fill="none" stroke="midnightblue" d="M206.425,-176.334C176.985,-174.106 126.483,-165.322 103,-132 87.7953,-110.424 117.642,-91.3955 144.069,-79.5911"/>
<polygon fill="midnightblue" stroke="midnightblue" points="145.713,-82.6959 153.56,-75.5776 142.987,-76.2486 145.713,-82.6959"/>
</g>
<!-- Node5 -->
<g id="node5" class="node"><title>Node5</title>
<polygon fill="none" stroke="#bfbfbf" points="112,-112.5 112,-131.5 162,-131.5 162,-112.5 112,-112.5"/>
<text text-anchor="middle" x="137" y="-119.5" font-family="Helvetica,sans-Serif" font-size="10.00">fstream</text>
</g>
<!-- Node2&#45;&gt;Node5 -->
<g id="edge4" class="edge"><title>Node2&#45;&gt;Node5</title>
<path fill="none" stroke="midnightblue" d="M214.219,-168.324C199.733,-159.822 177.427,-146.729 160.507,-136.797"/>
<polygon fill="midnightblue" stroke="midnightblue" points="162.141,-133.698 151.745,-131.655 158.597,-139.735 162.141,-133.698"/>
</g>
<!-- Node6 -->
<g id="node6" class="node"><title>Node6</title>
<polygon fill="none" stroke="#bfbfbf" points="180.5,-112.5 180.5,-131.5 215.5,-131.5 215.5,-112.5 180.5,-112.5"/>
<text text-anchor="middle" x="198" y="-119.5" font-family="Helvetica,sans-Serif" font-size="10.00">map</text>
</g>
<!-- Node2&#45;&gt;Node6 -->
<g id="edge5" class="edge"><title>Node2&#45;&gt;Node6</title>
<path fill="none" stroke="midnightblue" d="M223.881,-168.083C219.592,-160.613 213.342,-149.724 208.058,-140.52"/>
<polygon fill="midnightblue" stroke="midnightblue" points="211.038,-138.681 203.024,-131.751 204.967,-142.166 211.038,-138.681"/>
</g>
<!-- Node7 -->
<g id="node7" class="node"><title>Node7</title>
<polygon fill="none" stroke="#bfbfbf" points="234,-112.5 234,-131.5 286,-131.5 286,-112.5 234,-112.5"/>
<text text-anchor="middle" x="260" y="-119.5" font-family="Helvetica,sans-Serif" font-size="10.00">sstream</text>
</g>
<!-- Node2&#45;&gt;Node7 -->
<g id="edge6" class="edge"><title>Node2&#45;&gt;Node7</title>
<path fill="none" stroke="midnightblue" d="M234.119,-168.083C238.408,-160.613 244.658,-149.724 249.942,-140.52"/>
<polygon fill="midnightblue" stroke="midnightblue" points="253.033,-142.166 254.976,-131.751 246.962,-138.681 253.033,-142.166"/>
</g>
<!-- Node8 -->
<g id="node8" class="node"><title>Node8</title>
<polygon fill="none" stroke="#bfbfbf" points="359.5,-0.5 359.5,-19.5 400.5,-19.5 400.5,-0.5 359.5,-0.5"/>
<text text-anchor="middle" x="380" y="-7.5" font-family="Helvetica,sans-Serif" font-size="10.00">string</text>
</g>
<!-- Node2&#45;&gt;Node8 -->
<g id="edge7" class="edge"><title>Node2&#45;&gt;Node8</title>
<path fill="none" stroke="midnightblue" d="M251.788,-175.18C298.352,-170.938 401.813,-158.664 423,-132 448.309,-100.148 415.687,-52.2229 394.863,-27.3242"/>
<polygon fill="midnightblue" stroke="midnightblue" points="397.304,-24.7966 388.104,-19.5417 392.019,-29.3867 397.304,-24.7966"/>
</g>
<!-- Node9 -->
<g id="node9" class="node"><title>Node9</title>
<polygon fill="none" stroke="#bfbfbf" points="370,-112.5 370,-131.5 414,-131.5 414,-112.5 370,-112.5"/>
<text text-anchor="middle" x="392" y="-119.5" font-family="Helvetica,sans-Serif" font-size="10.00">vector</text>
</g>
<!-- Node2&#45;&gt;Node9 -->
<g id="edge8" class="edge"><title>Node2&#45;&gt;Node9</title>
<path fill="none" stroke="midnightblue" d="M251.664,-169.492C279.844,-160.156 328.117,-144.164 360.044,-133.587"/>
<polygon fill="midnightblue" stroke="midnightblue" points="361.397,-136.826 369.789,-130.358 359.196,-130.181 361.397,-136.826"/>
</g>
<!-- Node10 -->
<g id="node10" class="node"><title>Node10</title>
<g id="a_node10"><a xlink:href="room_8h.html" target="_top" xlink:title="room.html">
<polygon fill="none" stroke="black" points="304.5,-112.5 304.5,-131.5 351.5,-131.5 351.5,-112.5 304.5,-112.5"/>
<text text-anchor="middle" x="328" y="-119.5" font-family="Helvetica,sans-Serif" font-size="10.00">room.h</text>
</a>
</g>
</g>
<!-- Node2&#45;&gt;Node10 -->
<g id="edge9" class="edge"><title>Node2&#45;&gt;Node10</title>
<path fill="none" stroke="midnightblue" d="M244.906,-168.324C260.638,-159.743 284.942,-146.486 303.209,-136.522"/>
<polygon fill="midnightblue" stroke="midnightblue" points="305.03,-139.516 312.133,-131.655 301.678,-133.37 305.03,-139.516"/>
</g>
<!-- Node10&#45;&gt;Node8 -->
<g id="edge10" class="edge"><title>Node10&#45;&gt;Node8</title>
<path fill="none" stroke="midnightblue" d="M329.755,-112.254C332.529,-99.4513 338.597,-75.059 348,-56 352.921,-46.0247 359.955,-35.8475 366.176,-27.7006"/>
<polygon fill="midnightblue" stroke="midnightblue" points="368.999,-29.7737 372.468,-19.7629 363.513,-25.4253 368.999,-29.7737"/>
</g>
<!-- Node10&#45;&gt;Node4 -->
<g id="edge11" class="edge"><title>Node10&#45;&gt;Node4</title>
<path fill="none" stroke="midnightblue" d="M304.232,-112.444C279.107,-103.399 239.289,-89.064 211.1,-78.9158"/>
<polygon fill="midnightblue" stroke="midnightblue" points="212.251,-75.6106 201.657,-75.5164 209.88,-82.1968 212.251,-75.6106"/>
</g>
<!-- Node11 -->
<g id="node11" class="node"><title>Node11</title>
<g id="a_node11"><a xlink:href="letter_8h.html" target="_top" xlink:title="letter.html">
<polygon fill="none" stroke="black" points="356.5,-56.5 356.5,-75.5 403.5,-75.5 403.5,-56.5 356.5,-56.5"/>
<text text-anchor="middle" x="380" y="-63.5" font-family="Helvetica,sans-Serif" font-size="10.00">letter.h</text>
</a>
</g>
</g>
<!-- Node10&#45;&gt;Node11 -->
<g id="edge12" class="edge"><title>Node10&#45;&gt;Node11</title>
<path fill="none" stroke="midnightblue" d="M336.587,-112.083C344.159,-104.22 355.378,-92.5688 364.514,-83.0813"/>
<polygon fill="midnightblue" stroke="midnightblue" points="367.158,-85.3821 371.573,-75.7511 362.115,-80.5266 367.158,-85.3821"/>
</g>
<!-- Node11&#45;&gt;Node8 -->
<g id="edge13" class="edge"><title>Node11&#45;&gt;Node8</title>
<path fill="none" stroke="midnightblue" d="M380,-56.083C380,-49.0059 380,-38.8611 380,-29.9865"/>
<polygon fill="midnightblue" stroke="midnightblue" points="383.5,-29.751 380,-19.7511 376.5,-29.7511 383.5,-29.751"/>
</g>
</g>
</svg>
