<?xml version="1.0" encoding="UTF-8" standalone="no"?>
<!DOCTYPE svg PUBLIC "-//W3C//DTD SVG 1.1//EN"
 "http://www.w3.org/Graphics/SVG/1.1/DTD/svg11.dtd">
<!-- Generated by graphviz version 2.30.1 (20150306.0020)
 -->
<!-- Title: letter.h Pages: 1 -->
<svg width="213pt" height="196pt"
 viewBox="0.00 0.00 213.00 196.00" xmlns="http://www.w3.org/2000/svg" xmlns:xlink="http://www.w3.org/1999/xlink">
<g id="graph0" class="graph" transform="scale(1 1) rotate(0) translate(4 192)">
<title>letter.h</title>
<!-- Node1 -->
<g id="node1" class="node"><title>Node1</title>
<polygon fill="#bfbfbf" stroke="black" points="79.5,-168.5 79.5,-187.5 126.5,-187.5 126.5,-168.5 79.5,-168.5"/>
<text text-anchor="middle" x="103" y="-175.5" font-family="Helvetica,sans-Serif" font-size="10.00">letter.h</text>
</g>
<!-- Node2 -->
<g id="node2" class="node"><title>Node2</title>
<g id="a_node2"><a xlink:href="allocator_8h.html" target="_top" xlink:title="allocator.html">
<polygon fill="none" stroke="black" points="5,-56.5 5,-75.5 67,-75.5 67,-56.5 5,-56.5"/>
<text text-anchor="middle" x="36" y="-63.5" font-family="Helvetica,sans-Serif" font-size="10.00">allocator.h</text>
</a>
</g>
</g>
<!-- Node1&#45;&gt;Node2 -->
<g id="edge1" class="edge"><title>Node1&#45;&gt;Node2</title>
<path fill="none" stroke="midnightblue" d="M89.7614,-160.221C83.467,-151.933 76.0211,-141.661 70,-132 57.875,-112.546 45.9917,-88.314 40.0046,-75.641"/>
<polygon fill="midnightblue" stroke="midnightblue" points="87.1316,-162.542 96.0175,-168.312 92.6693,-158.26 87.1316,-162.542"/>
</g>
<!-- Node4 -->
<g id="node4" class="node"><title>Node4</title>
<g id="a_node4"><a xlink:href="room_8h.html" target="_top" xlink:title="room.html">
<polygon fill="none" stroke="black" points="79.5,-112.5 79.5,-131.5 126.5,-131.5 126.5,-112.5 79.5,-112.5"/>
<text text-anchor="middle" x="103" y="-119.5" font-family="Helvetica,sans-Serif" font-size="10.00">room.h</text>
</a>
</g>
</g>
<!-- Node1&#45;&gt;Node4 -->
<g id="edge3" class="edge"><title>Node1&#45;&gt;Node4</title>
<path fill="none" stroke="midnightblue" d="M103,-157.805C103,-148.91 103,-138.78 103,-131.751"/>
<polygon fill="midnightblue" stroke="midnightblue" points="99.5001,-158.083 103,-168.083 106.5,-158.083 99.5001,-158.083"/>
</g>
<!-- Node8 -->
<g id="node8" class="node"><title>Node8</title>
<g id="a_node8"><a xlink:href="letter_8cpp.html" target="_top" xlink:title="letter.cpp">
<polygon fill="none" stroke="black" points="144.5,-112.5 144.5,-131.5 201.5,-131.5 201.5,-112.5 144.5,-112.5"/>
<text text-anchor="middle" x="173" y="-119.5" font-family="Helvetica,sans-Serif" font-size="10.00">letter.cpp</text>
</a>
</g>
</g>
<!-- Node1&#45;&gt;Node8 -->
<g id="edge9" class="edge"><title>Node1&#45;&gt;Node8</title>
<path fill="none" stroke="midnightblue" d="M122.314,-162.101C134.912,-152.382 150.928,-140.027 161.549,-131.834"/>
<polygon fill="midnightblue" stroke="midnightblue" points="120.027,-159.445 114.247,-168.324 124.302,-164.987 120.027,-159.445"/>
</g>
<!-- Node3 -->
<g id="node3" class="node"><title>Node3</title>
<g id="a_node3"><a xlink:href="allocator_8cpp.html" target="_top" xlink:title="allocator.cpp">
<polygon fill="none" stroke="black" points="0,-0.5 0,-19.5 72,-19.5 72,-0.5 0,-0.5"/>
<text text-anchor="middle" x="36" y="-7.5" font-family="Helvetica,sans-Serif" font-size="10.00">allocator.cpp</text>
</a>
</g>
</g>
<!-- Node2&#45;&gt;Node3 -->
<g id="edge2" class="edge"><title>Node2&#45;&gt;Node3</title>
<path fill="none" stroke="midnightblue" d="M36,-45.8045C36,-36.9102 36,-26.7798 36,-19.7511"/>
<polygon fill="midnightblue" stroke="midnightblue" points="32.5001,-46.083 36,-56.083 39.5001,-46.083 32.5001,-46.083"/>
</g>
<!-- Node4&#45;&gt;Node2 -->
<g id="edge4" class="edge"><title>Node4&#45;&gt;Node2</title>
<path fill="none" stroke="midnightblue" d="M84.1652,-105.82C72.1616,-96.1452 57.0283,-83.9481 46.9606,-75.8339"/>
<polygon fill="midnightblue" stroke="midnightblue" points="82.253,-108.774 92.2353,-112.324 86.6457,-103.324 82.253,-108.774"/>
</g>
<!-- Node5 -->
<g id="node5" class="node"><title>Node5</title>
<g id="a_node5"><a xlink:href="fileio_8h.html" target="_top" xlink:title="fileio.html">
<polygon fill="none" stroke="black" points="85.5,-56.5 85.5,-75.5 130.5,-75.5 130.5,-56.5 85.5,-56.5"/>
<text text-anchor="middle" x="108" y="-63.5" font-family="Helvetica,sans-Serif" font-size="10.00">fileio.h</text>
</a>
</g>
</g>
<!-- Node4&#45;&gt;Node5 -->
<g id="edge5" class="edge"><title>Node4&#45;&gt;Node5</title>
<path fill="none" stroke="midnightblue" d="M104.75,-102.101C105.58,-93.1357 106.532,-82.8579 107.19,-75.7511"/>
<polygon fill="midnightblue" stroke="midnightblue" points="101.263,-101.803 103.826,-112.083 108.233,-102.448 101.263,-101.803"/>
</g>
<!-- Node7 -->
<g id="node7" class="node"><title>Node7</title>
<g id="a_node7"><a xlink:href="room_8cpp.html" target="_top" xlink:title="room.cpp">
<polygon fill="none" stroke="black" points="148.5,-56.5 148.5,-75.5 205.5,-75.5 205.5,-56.5 148.5,-56.5"/>
<text text-anchor="middle" x="177" y="-63.5" font-family="Helvetica,sans-Serif" font-size="10.00">room.cpp</text>
</a>
</g>
</g>
<!-- Node4&#45;&gt;Node7 -->
<g id="edge8" class="edge"><title>Node4&#45;&gt;Node7</title>
<path fill="none" stroke="midnightblue" d="M123.034,-106.38C136.409,-96.6204 153.559,-84.1057 164.894,-75.8339"/>
<polygon fill="midnightblue" stroke="midnightblue" points="120.904,-103.602 114.889,-112.324 125.03,-109.257 120.904,-103.602"/>
</g>
<!-- Node5&#45;&gt;Node3 -->
<g id="edge6" class="edge"><title>Node5&#45;&gt;Node3</title>
<path fill="none" stroke="midnightblue" d="M88.1343,-50.1008C75.1765,-40.3824 58.7026,-28.0269 47.7785,-19.8339"/>
<polygon fill="midnightblue" stroke="midnightblue" points="86.3319,-53.1239 96.432,-56.324 90.5319,-47.5239 86.3319,-53.1239"/>
</g>
<!-- Node6 -->
<g id="node6" class="node"><title>Node6</title>
<g id="a_node6"><a xlink:href="fileio_8cpp.html" target="_top" xlink:title="fileio.cpp">
<polygon fill="none" stroke="black" points="90,-0.5 90,-19.5 146,-19.5 146,-0.5 90,-0.5"/>
<text text-anchor="middle" x="118" y="-7.5" font-family="Helvetica,sans-Serif" font-size="10.00">fileio.cpp</text>
</a>
</g>
</g>
<!-- Node5&#45;&gt;Node6 -->
<g id="edge7" class="edge"><title>Node5&#45;&gt;Node6</title>
<path fill="none" stroke="midnightblue" d="M111.5,-46.1005C113.16,-37.1357 115.063,-26.8579 116.379,-19.7511"/>
<polygon fill="midnightblue" stroke="midnightblue" points="108.031,-45.6128 109.651,-56.083 114.914,-46.8875 108.031,-45.6128"/>
</g>
</g>
</svg>
