<?xml version="1.0" encoding="UTF-8" standalone="no"?>
<!DOCTYPE svg PUBLIC "-//W3C//DTD SVG 1.1//EN"
 "http://www.w3.org/Graphics/SVG/1.1/DTD/svg11.dtd">
<!-- Generated by graphviz version 2.30.1 (20150306.0020)
 -->
<!-- Title: letter.cpp Pages: 1 -->
<svg width="64pt" height="140pt"
 viewBox="0.00 0.00 64.00 140.00" xmlns="http://www.w3.org/2000/svg" xmlns:xlink="http://www.w3.org/1999/xlink">
<g id="graph0" class="graph" transform="scale(1 1) rotate(0) translate(4 136)">
<title>letter.cpp</title>
<!-- Node1 -->
<g id="node1" class="node"><title>Node1</title>
<polygon fill="#bfbfbf" stroke="black" points="-0.5,-112.5 -0.5,-131.5 56.5,-131.5 56.5,-112.5 -0.5,-112.5"/>
<text text-anchor="middle" x="28" y="-119.5" font-family="Helvetica,sans-Serif" font-size="10.00">letter.cpp</text>
</g>
<!-- Node2 -->
<g id="node2" class="node"><title>Node2</title>
<g id="a_node2"><a xlink:href="letter_8h.html" target="_top" xlink:title="letter.html">
<polygon fill="none" stroke="black" points="4.5,-56.5 4.5,-75.5 51.5,-75.5 51.5,-56.5 4.5,-56.5"/>
<text text-anchor="middle" x="28" y="-63.5" font-family="Helvetica,sans-Serif" font-size="10.00">letter.h</text>
</a>
</g>
</g>
<!-- Node1&#45;&gt;Node2 -->
<g id="edge1" class="edge"><title>Node1&#45;&gt;Node2</title>
<path fill="none" stroke="midnightblue" d="M28,-112.083C28,-105.006 28,-94.8611 28,-85.9865"/>
<polygon fill="midnightblue" stroke="midnightblue" points="31.5001,-85.751 28,-75.7511 24.5001,-85.7511 31.5001,-85.751"/>
</g>
<!-- Node3 -->
<g id="node3" class="node"><title>Node3</title>
<polygon fill="none" stroke="#bfbfbf" points="7.5,-0.5 7.5,-19.5 48.5,-19.5 48.5,-0.5 7.5,-0.5"/>
<text text-anchor="middle" x="28" y="-7.5" font-family="Helvetica,sans-Serif" font-size="10.00">string</text>
</g>
<!-- Node2&#45;&gt;Node3 -->
<g id="edge2" class="edge"><title>Node2&#45;&gt;Node3</title>
<path fill="none" stroke="midnightblue" d="M28,-56.083C28,-49.0059 28,-38.8611 28,-29.9865"/>
<polygon fill="midnightblue" stroke="midnightblue" points="31.5001,-29.751 28,-19.7511 24.5001,-29.7511 31.5001,-29.751"/>
</g>
</g>
</svg>
