<?xml version="1.0" encoding="UTF-8" standalone="no"?>
<!DOCTYPE svg PUBLIC "-//W3C//DTD SVG 1.1//EN"
 "http://www.w3.org/Graphics/SVG/1.1/DTD/svg11.dtd">
<!-- Generated by graphviz version 2.30.1 (20150306.0020)
 -->
<!-- Title: room.h Pages: 1 -->
<svg width="138pt" height="140pt"
 viewBox="0.00 0.00 138.44 140.00" xmlns="http://www.w3.org/2000/svg" xmlns:xlink="http://www.w3.org/1999/xlink">
<g id="graph0" class="graph" transform="scale(1 1) rotate(0) translate(4 136)">
<title>room.h</title>
<!-- Node1 -->
<g id="node1" class="node"><title>Node1</title>
<polygon fill="#bfbfbf" stroke="black" points="14.9351,-112.5 14.9351,-131.5 61.9351,-131.5 61.9351,-112.5 14.9351,-112.5"/>
<text text-anchor="middle" x="38.4351" y="-119.5" font-family="Helvetica,sans-Serif" font-size="10.00">room.h</text>
</g>
<!-- Node2 -->
<g id="node2" class="node"><title>Node2</title>
<polygon fill="none" stroke="#bfbfbf" points="24.9351,-0.5 24.9351,-19.5 65.9351,-19.5 65.9351,-0.5 24.9351,-0.5"/>
<text text-anchor="middle" x="45.4351" y="-7.5" font-family="Helvetica,sans-Serif" font-size="10.00">string</text>
</g>
<!-- Node1&#45;&gt;Node2 -->
<g id="edge1" class="edge"><title>Node1&#45;&gt;Node2</title>
<path fill="none" stroke="midnightblue" d="M27.6101,-112.098C14.1698,-99.8933 -6.01436,-77.073 2.43515,-56 7.11518,-44.328 16.4263,-33.9687 25.1908,-26.1405"/>
<polygon fill="midnightblue" stroke="midnightblue" points="27.4869,-28.7832 32.9377,-19.698 23.011,-23.4011 27.4869,-28.7832"/>
</g>
<!-- Node3 -->
<g id="node3" class="node"><title>Node3</title>
<polygon fill="none" stroke="#bfbfbf" points="11.4351,-56.5 11.4351,-75.5 65.4351,-75.5 65.4351,-56.5 11.4351,-56.5"/>
<text text-anchor="middle" x="38.4351" y="-63.5" font-family="Helvetica,sans-Serif" font-size="10.00">iostream</text>
</g>
<!-- Node1&#45;&gt;Node3 -->
<g id="edge2" class="edge"><title>Node1&#45;&gt;Node3</title>
<path fill="none" stroke="midnightblue" d="M38.4351,-112.083C38.4351,-105.006 38.4351,-94.8611 38.4351,-85.9865"/>
<polygon fill="midnightblue" stroke="midnightblue" points="41.9352,-85.751 38.4351,-75.7511 34.9352,-85.7511 41.9352,-85.751"/>
</g>
<!-- Node4 -->
<g id="node4" class="node"><title>Node4</title>
<g id="a_node4"><a xlink:href="letter_8h.html" target="_top" xlink:title="letter.html">
<polygon fill="none" stroke="black" points="83.9351,-56.5 83.9351,-75.5 130.935,-75.5 130.935,-56.5 83.9351,-56.5"/>
<text text-anchor="middle" x="107.435" y="-63.5" font-family="Helvetica,sans-Serif" font-size="10.00">letter.h</text>
</a>
</g>
</g>
<!-- Node1&#45;&gt;Node4 -->
<g id="edge3" class="edge"><title>Node1&#45;&gt;Node4</title>
<path fill="none" stroke="midnightblue" d="M49.5212,-112.324C59.9212,-104.185 75.6958,-91.8395 88.1568,-82.0874"/>
<polygon fill="midnightblue" stroke="midnightblue" points="90.4294,-84.7533 96.1474,-75.8339 86.1152,-79.2407 90.4294,-84.7533"/>
</g>
<!-- Node4&#45;&gt;Node2 -->
<g id="edge4" class="edge"><title>Node4&#45;&gt;Node2</title>
<path fill="none" stroke="midnightblue" d="M97.4738,-56.324C88.3086,-48.3414 74.4979,-36.3128 63.407,-26.6529"/>
<polygon fill="midnightblue" stroke="midnightblue" points="65.4174,-23.7624 55.5778,-19.8339 60.8199,-29.041 65.4174,-23.7624"/>
</g>
</g>
</svg>
