<?xml version="1.0" encoding="UTF-8" standalone="no"?>
<!DOCTYPE svg PUBLIC "-//W3C//DTD SVG 1.1//EN"
 "http://www.w3.org/Graphics/SVG/1.1/DTD/svg11.dtd">
<!-- Generated by graphviz version 2.30.1 (20150306.0020)
 -->
<!-- Title: room.cpp Pages: 1 -->
<svg width="165pt" height="196pt"
 viewBox="0.00 0.00 165.00 196.00" xmlns="http://www.w3.org/2000/svg" xmlns:xlink="http://www.w3.org/1999/xlink">
<g id="graph0" class="graph" transform="scale(1 1) rotate(0) translate(4 192)">
<title>room.cpp</title>
<!-- Node1 -->
<g id="node1" class="node"><title>Node1</title>
<polygon fill="#bfbfbf" stroke="black" points="25.5,-168.5 25.5,-187.5 82.5,-187.5 82.5,-168.5 25.5,-168.5"/>
<text text-anchor="middle" x="54" y="-175.5" font-family="Helvetica,sans-Serif" font-size="10.00">room.cpp</text>
</g>
<!-- Node2 -->
<g id="node2" class="node"><title>Node2</title>
<polygon fill="none" stroke="#bfbfbf" points="0,-56.5 0,-75.5 54,-75.5 54,-56.5 0,-56.5"/>
<text text-anchor="middle" x="27" y="-63.5" font-family="Helvetica,sans-Serif" font-size="10.00">iostream</text>
</g>
<!-- Node1&#45;&gt;Node2 -->
<g id="edge1" class="edge"><title>Node1&#45;&gt;Node2</title>
<path fill="none" stroke="midnightblue" d="M51.8814,-168.368C47.5242,-150.617 37.4727,-109.666 31.5648,-85.5974"/>
<polygon fill="midnightblue" stroke="midnightblue" points="34.8918,-84.4688 29.1088,-75.5914 28.0936,-86.1375 34.8918,-84.4688"/>
</g>
<!-- Node3 -->
<g id="node3" class="node"><title>Node3</title>
<g id="a_node3"><a xlink:href="room_8h.html" target="_top" xlink:title="room.html">
<polygon fill="none" stroke="black" points="57.5,-112.5 57.5,-131.5 104.5,-131.5 104.5,-112.5 57.5,-112.5"/>
<text text-anchor="middle" x="81" y="-119.5" font-family="Helvetica,sans-Serif" font-size="10.00">room.h</text>
</a>
</g>
</g>
<!-- Node1&#45;&gt;Node3 -->
<g id="edge2" class="edge"><title>Node1&#45;&gt;Node3</title>
<path fill="none" stroke="midnightblue" d="M58.4585,-168.083C62.1543,-160.691 67.5234,-149.953 72.0945,-140.811"/>
<polygon fill="midnightblue" stroke="midnightblue" points="75.2828,-142.261 76.6245,-131.751 69.0218,-139.13 75.2828,-142.261"/>
</g>
<!-- Node4 -->
<g id="node4" class="node"><title>Node4</title>
<polygon fill="none" stroke="#bfbfbf" points="87.5,-0.5 87.5,-19.5 128.5,-19.5 128.5,-0.5 87.5,-0.5"/>
<text text-anchor="middle" x="108" y="-7.5" font-family="Helvetica,sans-Serif" font-size="10.00">string</text>
</g>
<!-- Node3&#45;&gt;Node4 -->
<g id="edge3" class="edge"><title>Node3&#45;&gt;Node4</title>
<path fill="none" stroke="midnightblue" d="M83.1186,-112.368C87.4758,-94.617 97.5273,-53.6664 103.435,-29.5974"/>
<polygon fill="midnightblue" stroke="midnightblue" points="106.906,-30.1375 105.891,-19.5914 100.108,-28.4688 106.906,-30.1375"/>
</g>
<!-- Node3&#45;&gt;Node2 -->
<g id="edge4" class="edge"><title>Node3&#45;&gt;Node2</title>
<path fill="none" stroke="midnightblue" d="M72.083,-112.083C64.2195,-104.22 52.5688,-92.5688 43.0813,-83.0813"/>
<polygon fill="midnightblue" stroke="midnightblue" points="45.2971,-80.3473 35.7511,-75.7511 40.3473,-85.2971 45.2971,-80.3473"/>
</g>
<!-- Node5 -->
<g id="node5" class="node"><title>Node5</title>
<g id="a_node5"><a xlink:href="letter_8h.html" target="_top" xlink:title="letter.html">
<polygon fill="none" stroke="black" points="110.5,-56.5 110.5,-75.5 157.5,-75.5 157.5,-56.5 110.5,-56.5"/>
<text text-anchor="middle" x="134" y="-63.5" font-family="Helvetica,sans-Serif" font-size="10.00">letter.h</text>
</a>
</g>
</g>
<!-- Node3&#45;&gt;Node5 -->
<g id="edge5" class="edge"><title>Node3&#45;&gt;Node5</title>
<path fill="none" stroke="midnightblue" d="M89.7519,-112.083C97.4697,-104.22 108.905,-92.5688 118.217,-83.0813"/>
<polygon fill="midnightblue" stroke="midnightblue" points="120.904,-85.3396 125.411,-75.7511 115.908,-80.4363 120.904,-85.3396"/>
</g>
<!-- Node5&#45;&gt;Node4 -->
<g id="edge6" class="edge"><title>Node5&#45;&gt;Node4</title>
<path fill="none" stroke="midnightblue" d="M129.707,-56.083C126.148,-48.6913 120.978,-37.9533 116.576,-28.8111"/>
<polygon fill="midnightblue" stroke="midnightblue" points="119.705,-27.2427 112.213,-19.7511 113.398,-30.2795 119.705,-27.2427"/>
</g>
</g>
</svg>
