<?xml version="1.0" encoding="UTF-8" standalone="no"?>
<!DOCTYPE svg PUBLIC "-//W3C//DTD SVG 1.1//EN"
 "http://www.w3.org/Graphics/SVG/1.1/DTD/svg11.dtd">
<!-- Generated by graphviz version 2.40.1 (0)
 -->
<!-- Title: BTree&lt; K, V &gt; Pages: 1 -->
<svg width="292pt" height="251pt"
 viewBox="0.00 0.00 292.00 251.00" xmlns="http://www.w3.org/2000/svg" xmlns:xlink="http://www.w3.org/1999/xlink">
<g id="graph0" class="graph" transform="scale(1 1) rotate(0) translate(4 247)">
<title>BTree&lt; K, V &gt;</title>
<!-- Node1 -->
<g id="node1" class="node">
<title>Node1</title>
<g id="a_node1"><a xlink:title="BTree class.">
<polygon fill="#bfbfbf" stroke="#000000" points="0,-6 0,-25 114,-25 114,-6 0,-6"/>
<text text-anchor="middle" x="57" y="-13" font-family="Helvetica,sans-Serif" font-size="10.00" fill="#000000">BTree&lt; K, V &gt;</text>
</a>
</g>
</g>
<!-- Node2 -->
<g id="node2" class="node">
<title>Node2</title>
<g id="a_node2"><a xlink:href="structBTree_1_1BTreeNode.html" target="_top" xlink:title="A class for the basic node structure of the BTree.">
<polygon fill="none" stroke="#000000" points="19.5,-78.5 19.5,-97.5 216.5,-97.5 216.5,-78.5 19.5,-78.5"/>
<text text-anchor="middle" x="118" y="-85.5" font-family="Helvetica,sans-Serif" font-size="10.00" fill="#000000">BTree&lt; K, V &gt;::BTreeNode</text>
</a>
</g>
</g>
<!-- Node2&#45;&gt;Node1 -->
<g id="edge1" class="edge">
<title>Node2&#45;&gt;Node1</title>
<path fill="none" stroke="#9a32cd" stroke-dasharray="5,2" d="M72.119,-73.5101C66.5591,-69.9328 61.5874,-65.4957 58,-60 51.2415,-49.6464 52.5405,-34.852 54.4652,-25.2122"/>
<polygon fill="#9a32cd" stroke="#9a32cd" points="70.7674,-76.7587 81.226,-78.4524 74.1063,-70.6063 70.7674,-76.7587"/>
<text text-anchor="middle" x="77" y="-52" font-family="Helvetica,sans-Serif" font-size="10.00" fill="#000000"> root</text>
</g>
<!-- Node5 -->
<g id="node5" class="node">
<title>Node5</title>
<g id="a_node5"><a doxygen="/data/doxygen/cppreference-doxygen-web.tag.xml:http://en.cppreference.com/w/" xlink:href="http://en.cppreference.com/w/cpp/container/vector.html" xlink:title=" ">
<polygon fill="none" stroke="#000000" points="132,-.5 132,-30.5 284,-30.5 284,-.5 132,-.5"/>
<text text-anchor="start" x="140" y="-18.5" font-family="Helvetica,sans-Serif" font-size="10.00" fill="#000000">std::vector&lt; BTree</text>
<text text-anchor="middle" x="208" y="-7.5" font-family="Helvetica,sans-Serif" font-size="10.00" fill="#000000">::BTreeNode * &gt;</text>
</a>
</g>
</g>
<!-- Node2&#45;&gt;Node5 -->
<g id="edge5" class="edge">
<title>Node2&#45;&gt;Node5</title>
<path fill="none" stroke="#9a32cd" stroke-dasharray="5,2" d="M111.6975,-68.6058C110.6914,-61.8751 111.0542,-54.6153 115,-49 119.736,-42.2601 133.9981,-35.8642 149.9758,-30.5021"/>
<polygon fill="#9a32cd" stroke="#9a32cd" points="108.3238,-69.5448 114.0872,-78.4349 115.1256,-67.891 108.3238,-69.5448"/>
<text text-anchor="middle" x="149" y="-52" font-family="Helvetica,sans-Serif" font-size="10.00" fill="#000000"> elements</text>
</g>
<!-- Node3 -->
<g id="node3" class="node">
<title>Node3</title>
<g id="a_node3"><a doxygen="/data/doxygen/cppreference-doxygen-web.tag.xml:http://en.cppreference.com/w/" xlink:href="http://en.cppreference.com/w/cpp/container/vector.html" xlink:title=" ">
<polygon fill="none" stroke="#000000" points="42,-145.5 42,-175.5 194,-175.5 194,-145.5 42,-145.5"/>
<text text-anchor="start" x="50" y="-163.5" font-family="Helvetica,sans-Serif" font-size="10.00" fill="#000000">std::vector&lt; BTree</text>
<text text-anchor="middle" x="118" y="-152.5" font-family="Helvetica,sans-Serif" font-size="10.00" fill="#000000">::DataPair &gt;</text>
</a>
</g>
</g>
<!-- Node3&#45;&gt;Node2 -->
<g id="edge2" class="edge">
<title>Node3&#45;&gt;Node2</title>
<path fill="none" stroke="#9a32cd" stroke-dasharray="5,2" d="M118,-135.305C118,-122.424 118,-107.4836 118,-97.8957"/>
<polygon fill="#9a32cd" stroke="#9a32cd" points="114.5001,-135.4779 118,-145.478 121.5001,-135.478 114.5001,-135.4779"/>
<text text-anchor="middle" x="152" y="-119" font-family="Helvetica,sans-Serif" font-size="10.00" fill="#000000"> elements</text>
</g>
<!-- Node4 -->
<g id="node4" class="node">
<title>Node4</title>
<g id="a_node4"><a xlink:href="structBTree_1_1DataPair.html" target="_top" xlink:title="A fancy key&#45;value pair which acts as elements in the BTree.">
<polygon fill="none" stroke="#000000" points="23.5,-223.5 23.5,-242.5 212.5,-242.5 212.5,-223.5 23.5,-223.5"/>
<text text-anchor="middle" x="118" y="-230.5" font-family="Helvetica,sans-Serif" font-size="10.00" fill="#000000">BTree&lt; K, V &gt;::DataPair</text>
</a>
</g>
</g>
<!-- Node4&#45;&gt;Node3 -->
<g id="edge3" class="edge">
<title>Node4&#45;&gt;Node3</title>
<path fill="none" stroke="#9a32cd" stroke-dasharray="5,2" d="M118,-213.0177C118,-201.2164 118,-186.513 118,-175.668"/>
<polygon fill="#9a32cd" stroke="#9a32cd" points="114.5001,-213.2223 118,-223.2223 121.5001,-213.2224 114.5001,-213.2223"/>
<text text-anchor="middle" x="152" y="-197" font-family="Helvetica,sans-Serif" font-size="10.00" fill="#000000"> elements</text>
</g>
<!-- Node5&#45;&gt;Node2 -->
<g id="edge4" class="edge">
<title>Node5&#45;&gt;Node2</title>
<path fill="none" stroke="#9a32cd" stroke-dasharray="5,2" d="M200.2293,-40.2103C197.0389,-47.3127 192.717,-54.5914 187,-60 178.2662,-68.2627 166.7718,-74.2172 155.6753,-78.4502"/>
<polygon fill="#9a32cd" stroke="#9a32cd" points="203.5166,-41.4144 203.9035,-30.8266 196.9984,-38.8622 203.5166,-41.4144"/>
<text text-anchor="middle" x="229" y="-52" font-family="Helvetica,sans-Serif" font-size="10.00" fill="#000000"> children</text>
</g>
</g>
</svg>
