<?xml version="1.0" encoding="UTF-8" standalone="no"?>
<!DOCTYPE svg PUBLIC "-//W3C//DTD SVG 1.1//EN"
 "http://www.w3.org/Graphics/SVG/1.1/DTD/svg11.dtd">
<!-- Generated by graphviz version 2.40.1 (0)
 -->
<!-- Title: Benchmark Pages: 1 -->
<svg width="390pt" height="184pt"
 viewBox="0.00 0.00 390.00 184.00" xmlns="http://www.w3.org/2000/svg" xmlns:xlink="http://www.w3.org/1999/xlink">
<g id="graph0" class="graph" transform="scale(1 1) rotate(0) translate(4 180)">
<title>Benchmark</title>
<!-- Node1 -->
<g id="node1" class="node">
<title>Node1</title>
<g id="a_node1"><a xlink:title="Class which contains a collection of benchmark results.">
<polygon fill="#bfbfbf" stroke="#000000" points="154,-.5 154,-19.5 238,-19.5 238,-.5 154,-.5"/>
<text text-anchor="middle" x="196" y="-7.5" font-family="Helvetica,sans-Serif" font-size="10.00" fill="#000000">Benchmark</text>
</a>
</g>
</g>
<!-- Node2 -->
<g id="node2" class="node">
<title>Node2</title>
<g id="a_node2"><a doxygen="/data/doxygen/cppreference-doxygen-web.tag.xml:http://en.cppreference.com/w/" xlink:href="http://en.cppreference.com/w/cpp/container/vector.html" xlink:title=" ">
<polygon fill="none" stroke="#000000" points="26,-67.5 26,-97.5 208,-97.5 208,-67.5 26,-67.5"/>
<text text-anchor="start" x="34" y="-85.5" font-family="Helvetica,sans-Serif" font-size="10.00" fill="#000000">std::vector&lt; Benchmark</text>
<text text-anchor="middle" x="117" y="-74.5" font-family="Helvetica,sans-Serif" font-size="10.00" fill="#000000">::BenchmarkResult &gt;</text>
</a>
</g>
</g>
<!-- Node2&#45;&gt;Node1 -->
<g id="edge1" class="edge">
<title>Node2&#45;&gt;Node1</title>
<path fill="none" stroke="#9a32cd" stroke-dasharray="5,2" d="M141.1325,-60.3531C155.8476,-46.8487 173.9337,-30.2507 185.2171,-19.8957"/>
<polygon fill="#9a32cd" stroke="#9a32cd" points="138.37,-58.1378 133.3689,-67.478 143.1031,-63.2951 138.37,-58.1378"/>
<text text-anchor="middle" x="194.5" y="-41" font-family="Helvetica,sans-Serif" font-size="10.00" fill="#000000"> results</text>
</g>
<!-- Node3 -->
<g id="node3" class="node">
<title>Node3</title>
<g id="a_node3"><a xlink:href="structBenchmark_1_1BenchmarkResult.html" target="_top" xlink:title="Contains the actual results / benchmark parameter, uses std::chrono.">
<polygon fill="none" stroke="#000000" points="0,-151 0,-170 212,-170 212,-151 0,-151"/>
<text text-anchor="middle" x="106" y="-158" font-family="Helvetica,sans-Serif" font-size="10.00" fill="#000000">Benchmark::BenchmarkResult</text>
</a>
</g>
</g>
<!-- Node3&#45;&gt;Node2 -->
<g id="edge2" class="edge">
<title>Node3&#45;&gt;Node2</title>
<path fill="none" stroke="#9a32cd" stroke-dasharray="5,2" d="M108.7676,-140.8751C110.6508,-127.5215 113.107,-110.1052 114.8448,-97.7824"/>
<polygon fill="#9a32cd" stroke="#9a32cd" points="105.2796,-140.5449 107.3488,-150.9357 112.211,-141.5224 105.2796,-140.5449"/>
<text text-anchor="middle" x="147" y="-119" font-family="Helvetica,sans-Serif" font-size="10.00" fill="#000000"> elements</text>
</g>
<!-- Node4 -->
<g id="node4" class="node">
<title>Node4</title>
<g id="a_node4"><a doxygen="/data/doxygen/cppreference-doxygen-web.tag.xml:http://en.cppreference.com/w/" xlink:href="http://en.cppreference.com/w/cpp/string/basic_string.html" xlink:title="STL class.">
<polygon fill="none" stroke="#000000" points="246.5,-73 246.5,-92 345.5,-92 345.5,-73 246.5,-73"/>
<text text-anchor="middle" x="296" y="-80" font-family="Helvetica,sans-Serif" font-size="10.00" fill="#000000">std::string</text>
</a>
</g>
</g>
<!-- Node4&#45;&gt;Node1 -->
<g id="edge3" class="edge">
<title>Node4&#45;&gt;Node1</title>
<path fill="none" stroke="#9a32cd" stroke-dasharray="5,2" d="M274.3727,-66.8202C254.5687,-52.4623 225.8883,-31.669 209.2728,-19.6228"/>
<polygon fill="#9a32cd" stroke="#9a32cd" points="272.363,-69.6863 282.5136,-72.7223 276.4718,-64.019 272.363,-69.6863"/>
<text text-anchor="middle" x="268" y="-41" font-family="Helvetica,sans-Serif" font-size="10.00" fill="#000000"> name</text>
</g>
<!-- Node5 -->
<g id="node5" class="node">
<title>Node5</title>
<g id="a_node5"><a doxygen="/data/doxygen/cppreference-doxygen-web.tag.xml:http://en.cppreference.com/w/" xlink:href="http://en.cppreference.com/w/cpp/string/basic_string.html" xlink:title=" ">
<polygon fill="none" stroke="#000000" points="230,-145.5 230,-175.5 382,-175.5 382,-145.5 230,-145.5"/>
<text text-anchor="start" x="238" y="-163.5" font-family="Helvetica,sans-Serif" font-size="10.00" fill="#000000">std::basic_string&lt;</text>
<text text-anchor="middle" x="306" y="-152.5" font-family="Helvetica,sans-Serif" font-size="10.00" fill="#000000"> char &gt;</text>
</a>
</g>
</g>
<!-- Node5&#45;&gt;Node4 -->
<g id="edge4" class="edge">
<title>Node5&#45;&gt;Node4</title>
<path fill="none" stroke="#191970" d="M302.7816,-135.3962C300.8889,-120.6331 298.6043,-102.8138 297.2287,-92.0839"/>
<polygon fill="#191970" stroke="#191970" points="299.3286,-135.9871 304.0719,-145.4608 306.2718,-135.0969 299.3286,-135.9871"/>
</g>
</g>
</svg>
