<?xml version="1.0" encoding="UTF-8" standalone="no"?>
<!DOCTYPE svg PUBLIC "-//W3C//DTD SVG 1.1//EN"
 "http://www.w3.org/Graphics/SVG/1.1/DTD/svg11.dtd">
<!-- Generated by graphviz version 2.40.1 (0)
 -->
<!-- Title: BTree&lt; K, V &gt;::BTreeNode Pages: 1 -->
<svg width="205pt" height="251pt"
 viewBox="0.00 0.00 205.00 251.00" xmlns="http://www.w3.org/2000/svg" xmlns:xlink="http://www.w3.org/1999/xlink">
<g id="graph0" class="graph" transform="scale(1 1) rotate(0) translate(4 247)">
<title>BTree&lt; K, V &gt;::BTreeNode</title>
<!-- Node1 -->
<g id="node1" class="node">
<title>Node1</title>
<g id="a_node1"><a xlink:title="A class for the basic node structure of the BTree.">
<polygon fill="#bfbfbf" stroke="#000000" points="0,-78.5 0,-97.5 197,-97.5 197,-78.5 0,-78.5"/>
<text text-anchor="middle" x="98.5" y="-85.5" font-family="Helvetica,sans-Serif" font-size="10.00" fill="#000000">BTree&lt; K, V &gt;::BTreeNode</text>
</a>
</g>
</g>
<!-- Node4 -->
<g id="node4" class="node">
<title>Node4</title>
<g id="a_node4"><a doxygen="/data/doxygen/cppreference-doxygen-web.tag.xml:http://en.cppreference.com/w/" xlink:href="http://en.cppreference.com/w/cpp/container/vector.html" xlink:title=" ">
<polygon fill="none" stroke="#000000" points="22.5,-.5 22.5,-30.5 174.5,-30.5 174.5,-.5 22.5,-.5"/>
<text text-anchor="start" x="30.5" y="-18.5" font-family="Helvetica,sans-Serif" font-size="10.00" fill="#000000">std::vector&lt; BTree</text>
<text text-anchor="middle" x="98.5" y="-7.5" font-family="Helvetica,sans-Serif" font-size="10.00" fill="#000000">::BTreeNode * &gt;</text>
</a>
</g>
</g>
<!-- Node1&#45;&gt;Node4 -->
<g id="edge4" class="edge">
<title>Node1&#45;&gt;Node4</title>
<path fill="none" stroke="#9a32cd" stroke-dasharray="5,2" d="M62.7484,-73.0917C57.8504,-69.5231 53.4859,-65.1985 50.5,-60 43.9347,-48.5696 53.1747,-38.3611 65.2444,-30.6142"/>
<polygon fill="#9a32cd" stroke="#9a32cd" points="60.9989,-76.125 71.3457,-78.4045 64.6788,-70.1702 60.9989,-76.125"/>
<text text-anchor="middle" x="84.5" y="-52" font-family="Helvetica,sans-Serif" font-size="10.00" fill="#000000"> elements</text>
</g>
<!-- Node2 -->
<g id="node2" class="node">
<title>Node2</title>
<g id="a_node2"><a doxygen="/data/doxygen/cppreference-doxygen-web.tag.xml:http://en.cppreference.com/w/" xlink:href="http://en.cppreference.com/w/cpp/container/vector.html" xlink:title=" ">
<polygon fill="none" stroke="#000000" points="22.5,-145.5 22.5,-175.5 174.5,-175.5 174.5,-145.5 22.5,-145.5"/>
<text text-anchor="start" x="30.5" y="-163.5" font-family="Helvetica,sans-Serif" font-size="10.00" fill="#000000">std::vector&lt; BTree</text>
<text text-anchor="middle" x="98.5" y="-152.5" font-family="Helvetica,sans-Serif" font-size="10.00" fill="#000000">::DataPair &gt;</text>
</a>
</g>
</g>
<!-- Node2&#45;&gt;Node1 -->
<g id="edge1" class="edge">
<title>Node2&#45;&gt;Node1</title>
<path fill="none" stroke="#9a32cd" stroke-dasharray="5,2" d="M98.5,-135.305C98.5,-122.424 98.5,-107.4836 98.5,-97.8957"/>
<polygon fill="#9a32cd" stroke="#9a32cd" points="95.0001,-135.4779 98.5,-145.478 102.0001,-135.478 95.0001,-135.4779"/>
<text text-anchor="middle" x="132.5" y="-119" font-family="Helvetica,sans-Serif" font-size="10.00" fill="#000000"> elements</text>
</g>
<!-- Node3 -->
<g id="node3" class="node">
<title>Node3</title>
<g id="a_node3"><a xlink:href="structBTree_1_1DataPair.html" target="_top" xlink:title="A fancy key&#45;value pair which acts as elements in the BTree.">
<polygon fill="none" stroke="#000000" points="4,-223.5 4,-242.5 193,-242.5 193,-223.5 4,-223.5"/>
<text text-anchor="middle" x="98.5" y="-230.5" font-family="Helvetica,sans-Serif" font-size="10.00" fill="#000000">BTree&lt; K, V &gt;::DataPair</text>
</a>
</g>
</g>
<!-- Node3&#45;&gt;Node2 -->
<g id="edge2" class="edge">
<title>Node3&#45;&gt;Node2</title>
<path fill="none" stroke="#9a32cd" stroke-dasharray="5,2" d="M98.5,-213.0177C98.5,-201.2164 98.5,-186.513 98.5,-175.668"/>
<polygon fill="#9a32cd" stroke="#9a32cd" points="95.0001,-213.2223 98.5,-223.2223 102.0001,-213.2224 95.0001,-213.2223"/>
<text text-anchor="middle" x="132.5" y="-197" font-family="Helvetica,sans-Serif" font-size="10.00" fill="#000000"> elements</text>
</g>
<!-- Node4&#45;&gt;Node1 -->
<g id="edge3" class="edge">
<title>Node4&#45;&gt;Node1</title>
<path fill="none" stroke="#9a32cd" stroke-dasharray="5,2" d="M118.0408,-39.1452C119.8553,-42.3079 121.4168,-45.6282 122.5,-49 126.0014,-59.8997 117.97,-70.877 110.2723,-78.396"/>
<polygon fill="#9a32cd" stroke="#9a32cd" points="120.899,-37.1226 112.4445,-30.7373 115.0718,-41.0012 120.899,-37.1226"/>
<text text-anchor="middle" x="156.5" y="-52" font-family="Helvetica,sans-Serif" font-size="10.00" fill="#000000"> children</text>
</g>
</g>
</svg>
