<?xml version="1.0" encoding="UTF-8" standalone="no"?>
<!DOCTYPE svg PUBLIC "-//W3C//DTD SVG 1.1//EN"
 "http://www.w3.org/Graphics/SVG/1.1/DTD/svg11.dtd">
<!-- Generated by graphviz version 2.30.1 (20180420.1509)
 -->
<!-- Title: HashTable&lt; K, V &gt; Pages: 1 -->
<svg width="390pt" height="84pt"
 viewBox="0.00 0.00 390.00 84.00" xmlns="http://www.w3.org/2000/svg" xmlns:xlink="http://www.w3.org/1999/xlink">
<g id="graph0" class="graph" transform="scale(1 1) rotate(0) translate(4 80)">
<title>HashTable&lt; K, V &gt;</title>
<!-- Node1 -->
<g id="node1" class="node"><title>Node1</title>
<polygon fill="#bfbfbf" stroke="black" points="140.5,-56.5 140.5,-75.5 241.5,-75.5 241.5,-56.5 140.5,-56.5"/>
<text text-anchor="middle" x="191" y="-63.5" font-family="Helvetica,sans-Serif" font-size="10.00">HashTable&lt; K, V &gt;</text>
</g>
<!-- Node2 -->
<g id="node2" class="node"><title>Node2</title>
<g id="a_node2"><a xlink:href="classDHHashTable.html" target="_top" xlink:title="DHHashTable: a HashTable implementation that uses double hashing as a collision resolution strategy...">
<polygon fill="none" stroke="black" points="0,-0.5 0,-19.5 116,-19.5 116,-0.5 0,-0.5"/>
<text text-anchor="middle" x="58" y="-7.5" font-family="Helvetica,sans-Serif" font-size="10.00">DHHashTable&lt; K, V &gt;</text>
</a>
</g>
</g>
<!-- Node1&#45;&gt;Node2 -->
<g id="edge1" class="edge"><title>Node1&#45;&gt;Node2</title>
<path fill="none" stroke="midnightblue" d="M160.552,-52.6377C135.593,-42.504 100.923,-28.4274 78.9756,-19.5164"/>
<polygon fill="midnightblue" stroke="midnightblue" points="159.344,-55.9245 169.926,-56.4435 161.977,-49.4387 159.344,-55.9245"/>
</g>
<!-- Node3 -->
<g id="node3" class="node"><title>Node3</title>
<g id="a_node3"><a xlink:href="classLPHashTable.html" target="_top" xlink:title="LPHashTable: a HashTable implementation that uses linear probing as a collision resolution strategy...">
<polygon fill="none" stroke="black" points="134.5,-0.5 134.5,-19.5 247.5,-19.5 247.5,-0.5 134.5,-0.5"/>
<text text-anchor="middle" x="191" y="-7.5" font-family="Helvetica,sans-Serif" font-size="10.00">LPHashTable&lt; K, V &gt;</text>
</a>
</g>
</g>
<!-- Node1&#45;&gt;Node3 -->
<g id="edge2" class="edge"><title>Node1&#45;&gt;Node3</title>
<path fill="none" stroke="midnightblue" d="M191,-45.8045C191,-36.9102 191,-26.7798 191,-19.7511"/>
<polygon fill="midnightblue" stroke="midnightblue" points="187.5,-46.083 191,-56.083 194.5,-46.083 187.5,-46.083"/>
</g>
<!-- Node4 -->
<g id="node4" class="node"><title>Node4</title>
<g id="a_node4"><a xlink:href="classSCHashTable.html" target="_top" xlink:title="SCHashTable: A HashTable implementation that uses a separate chaining collision resolution strategy...">
<polygon fill="none" stroke="black" points="266,-0.5 266,-19.5 382,-19.5 382,-0.5 266,-0.5"/>
<text text-anchor="middle" x="324" y="-7.5" font-family="Helvetica,sans-Serif" font-size="10.00">SCHashTable&lt; K, V &gt;</text>
</a>
</g>
</g>
<!-- Node1&#45;&gt;Node4 -->
<g id="edge3" class="edge"><title>Node1&#45;&gt;Node4</title>
<path fill="none" stroke="midnightblue" d="M221.448,-52.6377C246.407,-42.504 281.077,-28.4274 303.024,-19.5164"/>
<polygon fill="midnightblue" stroke="midnightblue" points="220.023,-49.4387 212.074,-56.4435 222.656,-55.9245 220.023,-49.4387"/>
</g>
</g>
</svg>
