<?xml version="1.0" encoding="UTF-8" standalone="no"?>
<!DOCTYPE svg PUBLIC "-//W3C//DTD SVG 1.1//EN"
 "http://www.w3.org/Graphics/SVG/1.1/DTD/svg11.dtd">
<!-- Generated by graphviz version 2.30.1 (20180420.1509)
 -->
<!-- Title: TextFile Pages: 1 -->
<svg width="122pt" height="352pt"
 viewBox="0.00 0.00 122.00 352.00" xmlns="http://www.w3.org/2000/svg" xmlns:xlink="http://www.w3.org/1999/xlink">
<g id="graph0" class="graph" transform="scale(1 1) rotate(0) translate(4 348)">
<title>TextFile</title>
<!-- Node1 -->
<g id="node1" class="node"><title>Node1</title>
<polygon fill="#bfbfbf" stroke="black" points="31,-0.5 31,-19.5 83,-19.5 83,-0.5 31,-0.5"/>
<text text-anchor="middle" x="57" y="-7.5" font-family="Helvetica,sans-Serif" font-size="10.00">TextFile</text>
</g>
<!-- Node2 -->
<g id="node2" class="node"><title>Node2</title>
<g id="a_node2"><a doxygen="/home/parisfe2/Documents/CS225-sp18assignments/doxygen/cppreference-doxygen-web.tag.xml:http://en.cppreference.com/w//" xlink:href="http://en.cppreference.com/w/cpp/io/basic_ifstream.html" target="_top" xlink:title="STL class. ">
<polygon fill="none" stroke="black" points="21.5,-68.5 21.5,-87.5 92.5,-87.5 92.5,-68.5 21.5,-68.5"/>
<text text-anchor="middle" x="57" y="-75.5" font-family="Helvetica,sans-Serif" font-size="10.00">std::ifstream</text>
</a>
</g>
</g>
<!-- Node2&#45;&gt;Node1 -->
<g id="edge1" class="edge"><title>Node2&#45;&gt;Node1</title>
<path fill="none" stroke="#9a32cd" stroke-dasharray="5,2" d="M57,-58.0413C57,-45.4724 57,-29.5631 57,-19.8411"/>
<polygon fill="#9a32cd" stroke="#9a32cd" points="53.5001,-58.3716 57,-68.3717 60.5001,-58.3717 53.5001,-58.3716"/>
<text text-anchor="middle" x="69" y="-41.5" font-family="Helvetica,sans-Serif" font-size="10.00"> infile</text>
</g>
<!-- Node3 -->
<g id="node3" class="node"><title>Node3</title>
<g id="a_node3"><a doxygen="/home/parisfe2/Documents/CS225-sp18assignments/doxygen/cppreference-doxygen-web.tag.xml:http://en.cppreference.com/w//" xlink:href="http://en.cppreference.com/w/cpp/io/basic_ifstream.html" target="_top" xlink:title="std::basic_ifstream\l\&lt; char \&gt;">
<polygon fill="none" stroke="black" points="7,-127 7,-157 107,-157 107,-127 7,-127"/>
<text text-anchor="start" x="15" y="-145" font-family="Helvetica,sans-Serif" font-size="10.00">std::basic_ifstream</text>
<text text-anchor="middle" x="57" y="-134" font-family="Helvetica,sans-Serif" font-size="10.00">&lt; char &gt;</text>
</a>
</g>
</g>
<!-- Node3&#45;&gt;Node2 -->
<g id="edge2" class="edge"><title>Node3&#45;&gt;Node2</title>
<path fill="none" stroke="midnightblue" d="M57,-116.871C57,-106.663 57,-95.4077 57,-87.8419"/>
<polygon fill="midnightblue" stroke="midnightblue" points="53.5001,-116.931 57,-126.931 60.5001,-116.931 53.5001,-116.931"/>
</g>
<!-- Node4 -->
<g id="node4" class="node"><title>Node4</title>
<g id="a_node4"><a doxygen="/home/parisfe2/Documents/CS225-sp18assignments/doxygen/cppreference-doxygen-web.tag.xml:http://en.cppreference.com/w//" xlink:href="http://en.cppreference.com/w/cpp/io/basic_istream.html" target="_top" xlink:title="std::basic_istream\l\&lt; char \&gt;">
<polygon fill="none" stroke="black" points="8.5,-197 8.5,-227 105.5,-227 105.5,-197 8.5,-197"/>
<text text-anchor="start" x="16.5" y="-215" font-family="Helvetica,sans-Serif" font-size="10.00">std::basic_istream</text>
<text text-anchor="middle" x="57" y="-204" font-family="Helvetica,sans-Serif" font-size="10.00">&lt; char &gt;</text>
</a>
</g>
</g>
<!-- Node4&#45;&gt;Node3 -->
<g id="edge3" class="edge"><title>Node4&#45;&gt;Node3</title>
<path fill="none" stroke="midnightblue" d="M57,-186.769C57,-176.814 57,-165.638 57,-157.072"/>
<polygon fill="midnightblue" stroke="midnightblue" points="53.5001,-186.91 57,-196.91 60.5001,-186.91 53.5001,-186.91"/>
</g>
<!-- Node5 -->
<g id="node5" class="node"><title>Node5</title>
<g id="a_node5"><a doxygen="/home/parisfe2/Documents/CS225-sp18assignments/doxygen/cppreference-doxygen-web.tag.xml:http://en.cppreference.com/w//" xlink:href="http://en.cppreference.com/w/cpp/io/basic_ios.html" target="_top" xlink:title="std::basic_ios\&lt; char \&gt;">
<polygon fill="none" stroke="black" points="0,-266.5 0,-285.5 114,-285.5 114,-266.5 0,-266.5"/>
<text text-anchor="middle" x="57" y="-273.5" font-family="Helvetica,sans-Serif" font-size="10.00">std::basic_ios&lt; char &gt;</text>
</a>
</g>
</g>
<!-- Node5&#45;&gt;Node4 -->
<g id="edge4" class="edge"><title>Node5&#45;&gt;Node4</title>
<path fill="none" stroke="midnightblue" d="M57,-256.183C57,-246.886 57,-235.851 57,-227.263"/>
<polygon fill="midnightblue" stroke="midnightblue" points="53.5001,-256.379 57,-266.379 60.5001,-256.379 53.5001,-256.379"/>
</g>
<!-- Node6 -->
<g id="node6" class="node"><title>Node6</title>
<g id="a_node6"><a doxygen="/home/parisfe2/Documents/CS225-sp18assignments/doxygen/cppreference-doxygen-web.tag.xml:http://en.cppreference.com/w//" xlink:href="http://en.cppreference.com/w/cpp/io/ios_base.html" target="_top" xlink:title="STL class. ">
<polygon fill="none" stroke="black" points="19.5,-324.5 19.5,-343.5 94.5,-343.5 94.5,-324.5 19.5,-324.5"/>
<text text-anchor="middle" x="57" y="-331.5" font-family="Helvetica,sans-Serif" font-size="10.00">std::ios_base</text>
</a>
</g>
</g>
<!-- Node6&#45;&gt;Node5 -->
<g id="edge5" class="edge"><title>Node6&#45;&gt;Node5</title>
<path fill="none" stroke="midnightblue" d="M57,-313.953C57,-304.287 57,-293.031 57,-285.505"/>
<polygon fill="midnightblue" stroke="midnightblue" points="53.5001,-314.25 57,-324.25 60.5001,-314.25 53.5001,-314.25"/>
</g>
</g>
</svg>
