<?xml version="1.0" encoding="UTF-8" standalone="no"?>
<!DOCTYPE svg PUBLIC "-//W3C//DTD SVG 1.1//EN"
 "http://www.w3.org/Graphics/SVG/1.1/DTD/svg11.dtd">
<!-- Generated by graphviz version 2.30.1 (20180420.1509)
 -->
<!-- Title: DHHashTable&lt; K, V &gt; Pages: 1 -->
<svg width="215pt" height="96pt"
 viewBox="0.00 0.00 215.00 96.00" xmlns="http://www.w3.org/2000/svg" xmlns:xlink="http://www.w3.org/1999/xlink">
<g id="graph0" class="graph" transform="scale(1 1) rotate(0) translate(4 92)">
<title>DHHashTable&lt; K, V &gt;</title>
<!-- Node1 -->
<g id="node1" class="node"><title>Node1</title>
<polygon fill="#bfbfbf" stroke="black" points="48,-0.5 48,-19.5 164,-19.5 164,-0.5 48,-0.5"/>
<text text-anchor="middle" x="106" y="-7.5" font-family="Helvetica,sans-Serif" font-size="10.00">DHHashTable&lt; K, V &gt;</text>
</g>
<!-- Node2 -->
<g id="node2" class="node"><title>Node2</title>
<g id="a_node2"><a xlink:href="classHashTable.html" target="_top" xlink:title="HashTable: a templated class that implements the Dictionary ADT by using a hash table. ">
<polygon fill="none" stroke="black" points="-0.5,-68.5 -0.5,-87.5 100.5,-87.5 100.5,-68.5 -0.5,-68.5"/>
<text text-anchor="middle" x="50" y="-75.5" font-family="Helvetica,sans-Serif" font-size="10.00">HashTable&lt; K, V &gt;</text>
</a>
</g>
</g>
<!-- Node2&#45;&gt;Node1 -->
<g id="edge1" class="edge"><title>Node2&#45;&gt;Node1</title>
<path fill="none" stroke="midnightblue" d="M63.8473,-60.68C74.7955,-47.7768 89.6603,-30.2575 98.4984,-19.8411"/>
<polygon fill="midnightblue" stroke="midnightblue" points="61.122,-58.4821 57.321,-68.3717 66.4596,-63.011 61.122,-58.4821"/>
</g>
<!-- Node3 -->
<g id="node3" class="node"><title>Node3</title>
<g id="a_node3"><a doxygen="/home/parisfe2/Documents/CS225-sp18assignments/doxygen/cppreference-doxygen-web.tag.xml:http://en.cppreference.com/w//" xlink:href="http://en.cppreference.com/w/cpp/utility/pair.html" target="_top" xlink:title="std::pair\&lt; K, V \&gt;">
<polygon fill="none" stroke="black" points="118.5,-68.5 118.5,-87.5 207.5,-87.5 207.5,-68.5 118.5,-68.5"/>
<text text-anchor="middle" x="163" y="-75.5" font-family="Helvetica,sans-Serif" font-size="10.00">std::pair&lt; K, V &gt;</text>
</a>
</g>
</g>
<!-- Node3&#45;&gt;Node1 -->
<g id="edge2" class="edge"><title>Node3&#45;&gt;Node1</title>
<path fill="none" stroke="#9a32cd" stroke-dasharray="5,2" d="M148.905,-60.68C137.762,-47.7768 122.632,-30.2575 113.636,-19.8411"/>
<polygon fill="#9a32cd" stroke="#9a32cd" points="146.363,-63.0911 155.548,-68.3717 151.661,-58.5157 146.363,-63.0911"/>
<text text-anchor="middle" x="151.5" y="-41.5" font-family="Helvetica,sans-Serif" font-size="10.00"> table</text>
</g>
</g>
</svg>
