<?xml version="1.0" encoding="UTF-8" standalone="no"?>
<!DOCTYPE svg PUBLIC "-//W3C//DTD SVG 1.1//EN"
 "http://www.w3.org/Graphics/SVG/1.1/DTD/svg11.dtd">
<!-- Generated by graphviz version 2.30.1 (20180420.1509)
 -->
<!-- Title: SCHashTable&lt; K, V &gt; Pages: 1 -->
<svg width="219pt" height="176pt"
 viewBox="0.00 0.00 219.00 176.00" xmlns="http://www.w3.org/2000/svg" xmlns:xlink="http://www.w3.org/1999/xlink">
<g id="graph0" class="graph" transform="scale(1 1) rotate(0) translate(4 172)">
<title>SCHashTable&lt; K, V &gt;</title>
<!-- Node1 -->
<g id="node1" class="node"><title>Node1</title>
<polygon fill="#bfbfbf" stroke="black" points="29,-0.5 29,-19.5 145,-19.5 145,-0.5 29,-0.5"/>
<text text-anchor="middle" x="87" y="-7.5" font-family="Helvetica,sans-Serif" font-size="10.00">SCHashTable&lt; K, V &gt;</text>
</g>
<!-- Node2 -->
<g id="node2" class="node"><title>Node2</title>
<g id="a_node2"><a xlink:href="classHashTable.html" target="_top" xlink:title="HashTable: a templated class that implements the Dictionary ADT by using a hash table. ">
<polygon fill="none" stroke="black" points="-0.5,-74.5 -0.5,-93.5 100.5,-93.5 100.5,-74.5 -0.5,-74.5"/>
<text text-anchor="middle" x="50" y="-81.5" font-family="Helvetica,sans-Serif" font-size="10.00">HashTable&lt; K, V &gt;</text>
</a>
</g>
</g>
<!-- Node2&#45;&gt;Node1 -->
<g id="edge1" class="edge"><title>Node2&#45;&gt;Node1</title>
<path fill="none" stroke="midnightblue" d="M59.0289,-65.4302C66.5146,-50.8634 76.8332,-30.784 82.616,-19.531"/>
<polygon fill="midnightblue" stroke="midnightblue" points="55.8474,-63.9638 54.3897,-74.4579 62.0734,-67.1634 55.8474,-63.9638"/>
</g>
<!-- Node3 -->
<g id="node3" class="node"><title>Node3</title>
<g id="a_node3"><a doxygen="/home/parisfe2/Documents/CS225-sp18assignments/doxygen/cppreference-doxygen-web.tag.xml:http://en.cppreference.com/w//" xlink:href="http://en.cppreference.com/w/cpp/container/list.html" target="_top" xlink:title="std::list\&lt; std::pair\l\&lt; K, V \&gt; \&gt;">
<polygon fill="none" stroke="black" points="118.5,-69 118.5,-99 211.5,-99 211.5,-69 118.5,-69"/>
<text text-anchor="start" x="126.5" y="-87" font-family="Helvetica,sans-Serif" font-size="10.00">std::list&lt; std::pair</text>
<text text-anchor="middle" x="165" y="-76" font-family="Helvetica,sans-Serif" font-size="10.00">&lt; K, V &gt; &gt;</text>
</a>
</g>
</g>
<!-- Node3&#45;&gt;Node1 -->
<g id="edge2" class="edge"><title>Node3&#45;&gt;Node1</title>
<path fill="none" stroke="#9a32cd" stroke-dasharray="5,2" d="M142.067,-61.8307C126.873,-47.8062 107.738,-30.1426 96.4888,-19.7589"/>
<polygon fill="#9a32cd" stroke="#9a32cd" points="139.868,-64.5641 149.59,-68.7751 144.616,-59.4205 139.868,-64.5641"/>
<text text-anchor="middle" x="140.5" y="-41.5" font-family="Helvetica,sans-Serif" font-size="10.00"> table</text>
</g>
<!-- Node4 -->
<g id="node4" class="node"><title>Node4</title>
<g id="a_node4"><a doxygen="/home/parisfe2/Documents/CS225-sp18assignments/doxygen/cppreference-doxygen-web.tag.xml:http://en.cppreference.com/w//" xlink:href="http://en.cppreference.com/w/cpp/utility/pair.html" target="_top" xlink:title="std::pair\&lt; K, V \&gt;">
<polygon fill="none" stroke="black" points="120.5,-148.5 120.5,-167.5 209.5,-167.5 209.5,-148.5 120.5,-148.5"/>
<text text-anchor="middle" x="165" y="-155.5" font-family="Helvetica,sans-Serif" font-size="10.00">std::pair&lt; K, V &gt;</text>
</a>
</g>
</g>
<!-- Node4&#45;&gt;Node3 -->
<g id="edge3" class="edge"><title>Node4&#45;&gt;Node3</title>
<path fill="none" stroke="#9a32cd" stroke-dasharray="5,2" d="M165,-138.085C165,-125.915 165,-110.354 165,-99.2316"/>
<polygon fill="#9a32cd" stroke="#9a32cd" points="161.5,-138.458 165,-148.458 168.5,-138.458 161.5,-138.458"/>
<text text-anchor="middle" x="186.5" y="-121.5" font-family="Helvetica,sans-Serif" font-size="10.00"> elements</text>
</g>
</g>
</svg>
