<?xml version="1.0" encoding="UTF-8" standalone="no"?>
<!DOCTYPE svg PUBLIC "-//W3C//DTD SVG 1.1//EN"
 "http://www.w3.org/Graphics/SVG/1.1/DTD/svg11.dtd">
<!-- Generated by graphviz version 2.30.1 (20180420.1509)
 -->
<!-- Title: Graphical Class Hierarchy Pages: 1 -->
<svg width="262pt" height="104pt"
 viewBox="0.00 0.00 262.00 104.00" xmlns="http://www.w3.org/2000/svg" xmlns:xlink="http://www.w3.org/1999/xlink">
<g id="graph0" class="graph" transform="scale(1 1) rotate(0) translate(4 100)">
<title>Graphical Class Hierarchy</title>
<!-- Node1 -->
<g id="node1" class="node"><title>Node1</title>
<g id="a_node1"><a xlink:href="classHashTable.html" target="_top" xlink:title="HashTable: a templated class that implements the Dictionary ADT by using a hash table. ">
<polygon fill="none" stroke="black" points="0.5,-38.5 0.5,-57.5 101.5,-57.5 101.5,-38.5 0.5,-38.5"/>
<text text-anchor="middle" x="51" y="-45.5" font-family="Helvetica,sans-Serif" font-size="10.00">HashTable&lt; K, V &gt;</text>
</a>
</g>
</g>
<!-- Node2 -->
<g id="node2" class="node"><title>Node2</title>
<g id="a_node2"><a xlink:href="classDHHashTable.html" target="_top" xlink:title="DHHashTable: a HashTable implementation that uses double hashing as a collision resolution strategy...">
<polygon fill="none" stroke="black" points="138,-76.5 138,-95.5 254,-95.5 254,-76.5 138,-76.5"/>
<text text-anchor="middle" x="196" y="-83.5" font-family="Helvetica,sans-Serif" font-size="10.00">DHHashTable&lt; K, V &gt;</text>
</a>
</g>
</g>
<!-- Node1&#45;&gt;Node2 -->
<g id="edge1" class="edge"><title>Node1&#45;&gt;Node2</title>
<path fill="none" stroke="midnightblue" d="M97.8133,-60.1742C117.587,-65.4287 140.384,-71.4866 158.927,-76.4141"/>
<polygon fill="midnightblue" stroke="midnightblue" points="98.6484,-56.7747 88.0849,-57.589 96.8506,-63.5399 98.6484,-56.7747"/>
</g>
<!-- Node3 -->
<g id="node3" class="node"><title>Node3</title>
<g id="a_node3"><a xlink:href="classLPHashTable.html" target="_top" xlink:title="LPHashTable: a HashTable implementation that uses linear probing as a collision resolution strategy...">
<polygon fill="none" stroke="black" points="139.5,-38.5 139.5,-57.5 252.5,-57.5 252.5,-38.5 139.5,-38.5"/>
<text text-anchor="middle" x="196" y="-45.5" font-family="Helvetica,sans-Serif" font-size="10.00">LPHashTable&lt; K, V &gt;</text>
</a>
</g>
</g>
<!-- Node1&#45;&gt;Node3 -->
<g id="edge2" class="edge"><title>Node1&#45;&gt;Node3</title>
<path fill="none" stroke="midnightblue" d="M111.714,-48C120.788,-48 130.121,-48 139.109,-48"/>
<polygon fill="midnightblue" stroke="midnightblue" points="111.613,-44.5001 101.613,-48 111.613,-51.5001 111.613,-44.5001"/>
</g>
<!-- Node4 -->
<g id="node4" class="node"><title>Node4</title>
<g id="a_node4"><a xlink:href="classSCHashTable.html" target="_top" xlink:title="SCHashTable: A HashTable implementation that uses a separate chaining collision resolution strategy...">
<polygon fill="none" stroke="black" points="138,-0.5 138,-19.5 254,-19.5 254,-0.5 138,-0.5"/>
<text text-anchor="middle" x="196" y="-7.5" font-family="Helvetica,sans-Serif" font-size="10.00">SCHashTable&lt; K, V &gt;</text>
</a>
</g>
</g>
<!-- Node1&#45;&gt;Node4 -->
<g id="edge3" class="edge"><title>Node1&#45;&gt;Node4</title>
<path fill="none" stroke="midnightblue" d="M97.8133,-35.8258C117.587,-30.5713 140.384,-24.5134 158.927,-19.5859"/>
<polygon fill="midnightblue" stroke="midnightblue" points="96.8506,-32.4601 88.0849,-38.411 98.6484,-39.2253 96.8506,-32.4601"/>
</g>
</g>
</svg>
