<?xml version="1.0" encoding="UTF-8" standalone="no"?>
<!DOCTYPE svg PUBLIC "-//W3C//DTD SVG 1.1//EN"
 "http://www.w3.org/Graphics/SVG/1.1/DTD/svg11.dtd">
<!-- Generated by graphviz version 2.40.1 (20161225.0304)
 -->
<!-- Title: circle.h Pages: 1 -->
<svg width="416pt" height="140pt"
 viewBox="0.00 0.00 415.50 140.00" xmlns="http://www.w3.org/2000/svg" xmlns:xlink="http://www.w3.org/1999/xlink">
<g id="graph0" class="graph" transform="scale(1 1) rotate(0) translate(4 136)">
<title>circle.h</title>
<!-- Node9 -->
<g id="node1" class="node">
<title>Node9</title>
<g id="a_node1"><a xlink:title="Declaration of the Circle class.">
<polygon fill="#bfbfbf" stroke="#000000" points="142.5,-112.5 142.5,-131.5 194.5,-131.5 194.5,-112.5 142.5,-112.5"/>
<text text-anchor="middle" x="168.5" y="-119.5" font-family="Helvetica,sans-Serif" font-size="10.00" fill="#000000">circle.h</text>
</a>
</g>
</g>
<!-- Node10 -->
<g id="node2" class="node">
<title>Node10</title>
<g id="a_node2"><a xlink:href="circle_8cpp.html" target="_top" xlink:title="Implementation of the Circle class.">
<polygon fill="none" stroke="#000000" points="0,-56.5 0,-75.5 63,-75.5 63,-56.5 0,-56.5"/>
<text text-anchor="middle" x="31.5" y="-63.5" font-family="Helvetica,sans-Serif" font-size="10.00" fill="#000000">circle.cpp</text>
</a>
</g>
</g>
<!-- Node9&#45;&gt;Node10 -->
<g id="edge1" class="edge">
<title>Node9&#45;&gt;Node10</title>
<path fill="none" stroke="#191970" d="M135.5194,-108.5189C110.5689,-98.3201 76.9266,-84.5685 54.7438,-75.5011"/>
<polygon fill="#191970" stroke="#191970" points="134.368,-111.8293 144.9489,-112.3733 137.0166,-105.3497 134.368,-111.8293"/>
</g>
<!-- Node11 -->
<g id="node3" class="node">
<title>Node11</title>
<g id="a_node3"><a xlink:href="flower_8cpp.html" target="_top" xlink:title="Implementation of the Flower class.">
<polygon fill="none" stroke="#000000" points="81.5,-56.5 81.5,-75.5 147.5,-75.5 147.5,-56.5 81.5,-56.5"/>
<text text-anchor="middle" x="114.5" y="-63.5" font-family="Helvetica,sans-Serif" font-size="10.00" fill="#000000">flower.cpp</text>
</a>
</g>
</g>
<!-- Node9&#45;&gt;Node11 -->
<g id="edge2" class="edge">
<title>Node9&#45;&gt;Node11</title>
<path fill="none" stroke="#191970" d="M151.9031,-104.7884C142.6653,-95.2085 131.5096,-83.6396 123.7983,-75.6427"/>
<polygon fill="#191970" stroke="#191970" points="149.6331,-107.4766 159.0939,-112.2455 154.672,-102.6176 149.6331,-107.4766"/>
</g>
<!-- Node12 -->
<g id="node4" class="node">
<title>Node12</title>
<g id="a_node4"><a xlink:href="test__constructor_8cpp.html" target="_top" xlink:title="A simple application that demonstrates a problem with the Circle constructor.">
<polygon fill="none" stroke="#000000" points="165.5,-56.5 165.5,-75.5 279.5,-75.5 279.5,-56.5 165.5,-56.5"/>
<text text-anchor="middle" x="222.5" y="-63.5" font-family="Helvetica,sans-Serif" font-size="10.00" fill="#000000">test_constructor.cpp</text>
</a>
</g>
</g>
<!-- Node9&#45;&gt;Node12 -->
<g id="edge3" class="edge">
<title>Node9&#45;&gt;Node12</title>
<path fill="none" stroke="#191970" d="M185.0969,-104.7884C194.3347,-95.2085 205.4904,-83.6396 213.2017,-75.6427"/>
<polygon fill="#191970" stroke="#191970" points="182.328,-102.6176 177.9061,-112.2455 187.3669,-107.4766 182.328,-102.6176"/>
</g>
<!-- Node13 -->
<g id="node5" class="node">
<title>Node13</title>
<g id="a_node5"><a xlink:href="truck_8h.html" target="_top" xlink:title="Declaration of the Truck class.">
<polygon fill="none" stroke="#000000" points="297.5,-56.5 297.5,-75.5 347.5,-75.5 347.5,-56.5 297.5,-56.5"/>
<text text-anchor="middle" x="322.5" y="-63.5" font-family="Helvetica,sans-Serif" font-size="10.00" fill="#000000">truck.h</text>
</a>
</g>
</g>
<!-- Node9&#45;&gt;Node13 -->
<g id="edge4" class="edge">
<title>Node9&#45;&gt;Node13</title>
<path fill="none" stroke="#191970" d="M204.2205,-109.0107C232.7293,-98.6439 271.9558,-84.3797 297.2721,-75.1738"/>
<polygon fill="#191970" stroke="#191970" points="202.8258,-105.7936 194.624,-112.5004 205.2181,-112.3721 202.8258,-105.7936"/>
</g>
<!-- Node14 -->
<g id="node6" class="node">
<title>Node14</title>
<g id="a_node6"><a xlink:href="test__pure__virtual_8cpp.html" target="_top" xlink:title="A simple application that demonstrates a problem with Truck pure virtual methods.">
<polygon fill="none" stroke="#000000" points="208,-.5 208,-19.5 327,-19.5 327,-.5 208,-.5"/>
<text text-anchor="middle" x="267.5" y="-7.5" font-family="Helvetica,sans-Serif" font-size="10.00" fill="#000000">test_pure_virtual.cpp</text>
</a>
</g>
</g>
<!-- Node13&#45;&gt;Node14 -->
<g id="edge5" class="edge">
<title>Node13&#45;&gt;Node14</title>
<path fill="none" stroke="#191970" d="M305.8774,-49.0751C296.4145,-39.4402 284.9031,-27.7196 276.9705,-19.6427"/>
<polygon fill="#191970" stroke="#191970" points="303.4155,-51.5635 312.9197,-56.2455 308.4097,-46.6585 303.4155,-51.5635"/>
</g>
<!-- Node15 -->
<g id="node7" class="node">
<title>Node15</title>
<g id="a_node7"><a xlink:href="truck_8cpp.html" target="_top" xlink:title="Implementation of the Truck class.">
<polygon fill="none" stroke="#000000" points="345.5,-.5 345.5,-19.5 407.5,-19.5 407.5,-.5 345.5,-.5"/>
<text text-anchor="middle" x="376.5" y="-7.5" font-family="Helvetica,sans-Serif" font-size="10.00" fill="#000000">truck.cpp</text>
</a>
</g>
</g>
<!-- Node13&#45;&gt;Node15 -->
<g id="edge6" class="edge">
<title>Node13&#45;&gt;Node15</title>
<path fill="none" stroke="#191970" d="M339.0969,-48.7884C348.3347,-39.2085 359.4904,-27.6396 367.2017,-19.6427"/>
<polygon fill="#191970" stroke="#191970" points="336.328,-46.6176 331.9061,-56.2455 341.3669,-51.4766 336.328,-46.6176"/>
</g>
</g>
</svg>
