<?xml version="1.0" encoding="UTF-8" standalone="no"?>
<!DOCTYPE svg PUBLIC "-//W3C//DTD SVG 1.1//EN"
 "http://www.w3.org/Graphics/SVG/1.1/DTD/svg11.dtd">
<!-- Generated by graphviz version 2.40.1 (20161225.0304)
 -->
<!-- Title: Drawable Pages: 1 -->
<svg width="259pt" height="140pt"
 viewBox="0.00 0.00 259.00 140.00" xmlns="http://www.w3.org/2000/svg" xmlns:xlink="http://www.w3.org/1999/xlink">
<g id="graph0" class="graph" transform="scale(1 1) rotate(0) translate(4 136)">
<title>Drawable</title>
<!-- Node0 -->
<g id="node1" class="node">
<title>Node0</title>
<g id="a_node1"><a xlink:title="A pure virtual interface class that can draw itself to a canvas.">
<polygon fill="#bfbfbf" stroke="#000000" points="84,-112.5 84,-131.5 147,-131.5 147,-112.5 84,-112.5"/>
<text text-anchor="middle" x="115.5" y="-119.5" font-family="Helvetica,sans-Serif" font-size="10.00" fill="#000000">Drawable</text>
</a>
</g>
</g>
<!-- Node1 -->
<g id="node2" class="node">
<title>Node1</title>
<g id="a_node2"><a xlink:href="classFlower.html" target="_top" xlink:title="A subclass of Drawable that can draw a flower.">
<polygon fill="none" stroke="#000000" points="0,-56.5 0,-75.5 49,-75.5 49,-56.5 0,-56.5"/>
<text text-anchor="middle" x="24.5" y="-63.5" font-family="Helvetica,sans-Serif" font-size="10.00" fill="#000000">Flower</text>
</a>
</g>
</g>
<!-- Node0&#45;&gt;Node1 -->
<g id="edge1" class="edge">
<title>Node0&#45;&gt;Node1</title>
<path fill="none" stroke="#191970" d="M90.7496,-106.769C74.6242,-96.8456 54.074,-84.1994 40.1693,-75.6427"/>
<polygon fill="#191970" stroke="#191970" points="89.2981,-109.9853 99.649,-112.2455 92.9668,-104.0237 89.2981,-109.9853"/>
</g>
<!-- Node2 -->
<g id="node3" class="node">
<title>Node2</title>
<g id="a_node3"><a xlink:href="classLine.html" target="_top" xlink:title="A subclass of Drawable that represents a line in 2D space.">
<polygon fill="none" stroke="#000000" points="67,-56.5 67,-75.5 104,-75.5 104,-56.5 67,-56.5"/>
<text text-anchor="middle" x="85.5" y="-63.5" font-family="Helvetica,sans-Serif" font-size="10.00" fill="#000000">Line</text>
</a>
</g>
</g>
<!-- Node0&#45;&gt;Node2 -->
<g id="edge2" class="edge">
<title>Node0&#45;&gt;Node2</title>
<path fill="none" stroke="#191970" d="M105.502,-103.3372C100.5324,-94.0605 94.7356,-83.2398 90.6657,-75.6427"/>
<polygon fill="#191970" stroke="#191970" points="102.4669,-105.0835 110.2744,-112.2455 108.6373,-101.7779 102.4669,-105.0835"/>
</g>
<!-- Node3 -->
<g id="node4" class="node">
<title>Node3</title>
<g id="a_node4"><a xlink:href="classShape.html" target="_top" xlink:title="An abstract base class that represents a Shape which has an area, perimeter, color,...">
<polygon fill="none" stroke="#000000" points="122,-56.5 122,-75.5 169,-75.5 169,-56.5 122,-56.5"/>
<text text-anchor="middle" x="145.5" y="-63.5" font-family="Helvetica,sans-Serif" font-size="10.00" fill="#000000">Shape</text>
</a>
</g>
</g>
<!-- Node0&#45;&gt;Node3 -->
<g id="edge3" class="edge">
<title>Node0&#45;&gt;Node3</title>
<path fill="none" stroke="#191970" d="M125.498,-103.3372C130.4676,-94.0605 136.2644,-83.2398 140.3343,-75.6427"/>
<polygon fill="#191970" stroke="#191970" points="122.3627,-101.7779 120.7256,-112.2455 128.5331,-105.0835 122.3627,-101.7779"/>
</g>
<!-- Node7 -->
<g id="node8" class="node">
<title>Node7</title>
<g id="a_node8"><a xlink:href="classTruck.html" target="_top" xlink:title="A subclass of Drawable that can draw a truck.">
<polygon fill="none" stroke="#000000" points="187.5,-56.5 187.5,-75.5 229.5,-75.5 229.5,-56.5 187.5,-56.5"/>
<text text-anchor="middle" x="208.5" y="-63.5" font-family="Helvetica,sans-Serif" font-size="10.00" fill="#000000">Truck</text>
</a>
</g>
</g>
<!-- Node0&#45;&gt;Node7 -->
<g id="edge7" class="edge">
<title>Node0&#45;&gt;Node7</title>
<path fill="none" stroke="#191970" d="M140.3335,-107.0465C156.8811,-97.0824 178.1432,-84.2794 192.4863,-75.6427"/>
<polygon fill="#191970" stroke="#191970" points="138.4607,-104.0886 131.6994,-112.2455 142.0717,-110.0854 138.4607,-104.0886"/>
</g>
<!-- Node4 -->
<g id="node5" class="node">
<title>Node4</title>
<g id="a_node5"><a xlink:href="classCircle.html" target="_top" xlink:title="A subclass of Shape that represents a Circle in 2D space.">
<polygon fill="none" stroke="#000000" points="50.5,-.5 50.5,-19.5 94.5,-19.5 94.5,-.5 50.5,-.5"/>
<text text-anchor="middle" x="72.5" y="-7.5" font-family="Helvetica,sans-Serif" font-size="10.00" fill="#000000">Circle</text>
</a>
</g>
</g>
<!-- Node3&#45;&gt;Node4 -->
<g id="edge4" class="edge">
<title>Node3&#45;&gt;Node4</title>
<path fill="none" stroke="#191970" d="M124.549,-49.928C111.7893,-40.1397 95.9115,-27.9595 85.0699,-19.6427"/>
<polygon fill="#191970" stroke="#191970" points="122.7197,-52.9359 132.7844,-56.2455 126.9804,-47.3819 122.7197,-52.9359"/>
</g>
<!-- Node5 -->
<g id="node6" class="node">
<title>Node5</title>
<g id="a_node6"><a xlink:href="classRectangle.html" target="_top" xlink:title="A subclass of Shape that represents a rectangle in 2D space.">
<polygon fill="none" stroke="#000000" points="113,-.5 113,-19.5 178,-19.5 178,-.5 113,-.5"/>
<text text-anchor="middle" x="145.5" y="-7.5" font-family="Helvetica,sans-Serif" font-size="10.00" fill="#000000">Rectangle</text>
</a>
</g>
</g>
<!-- Node3&#45;&gt;Node5 -->
<g id="edge5" class="edge">
<title>Node3&#45;&gt;Node5</title>
<path fill="none" stroke="#191970" d="M145.5,-46.1575C145.5,-37.155 145.5,-26.9199 145.5,-19.6427"/>
<polygon fill="#191970" stroke="#191970" points="142.0001,-46.2455 145.5,-56.2455 149.0001,-46.2456 142.0001,-46.2455"/>
</g>
<!-- Node6 -->
<g id="node7" class="node">
<title>Node6</title>
<g id="a_node7"><a xlink:href="classTriangle.html" target="_top" xlink:title="A subclass of a Shape that represents a triangle in 2D space.">
<polygon fill="none" stroke="#000000" points="196,-.5 196,-19.5 251,-19.5 251,-.5 196,-.5"/>
<text text-anchor="middle" x="223.5" y="-7.5" font-family="Helvetica,sans-Serif" font-size="10.00" fill="#000000">Triangle</text>
</a>
</g>
</g>
<!-- Node3&#45;&gt;Node6 -->
<g id="edge6" class="edge">
<title>Node3&#45;&gt;Node6</title>
<path fill="none" stroke="#191970" d="M167.4936,-50.2097C181.1929,-40.3743 198.3736,-28.0394 210.0691,-19.6427"/>
<polygon fill="#191970" stroke="#191970" points="165.1686,-47.5703 159.0866,-56.2455 169.2511,-53.2566 165.1686,-47.5703"/>
</g>
</g>
</svg>
