<?xml version="1.0" encoding="UTF-8" standalone="no"?>
<!DOCTYPE svg PUBLIC "-//W3C//DTD SVG 1.1//EN"
 "http://www.w3.org/Graphics/SVG/1.1/DTD/svg11.dtd">
<!-- Generated by graphviz version 2.40.1 (20161225.0304)
 -->
<!-- Title: Circle Pages: 1 -->
<svg width="71pt" height="140pt"
 viewBox="0.00 0.00 71.00 140.00" xmlns="http://www.w3.org/2000/svg" xmlns:xlink="http://www.w3.org/1999/xlink">
<g id="graph0" class="graph" transform="scale(1 1) rotate(0) translate(4 136)">
<title>Circle</title>
<!-- Node0 -->
<g id="node1" class="node">
<title>Node0</title>
<g id="a_node1"><a xlink:title="A subclass of Shape that represents a Circle in 2D space.">
<polygon fill="#bfbfbf" stroke="#000000" points="9.5,-.5 9.5,-19.5 53.5,-19.5 53.5,-.5 9.5,-.5"/>
<text text-anchor="middle" x="31.5" y="-7.5" font-family="Helvetica,sans-Serif" font-size="10.00" fill="#000000">Circle</text>
</a>
</g>
</g>
<!-- Node1 -->
<g id="node2" class="node">
<title>Node1</title>
<g id="a_node2"><a xlink:href="classShape.html" target="_top" xlink:title="An abstract base class that represents a Shape which has an area, perimeter, color,...">
<polygon fill="none" stroke="#000000" points="8,-56.5 8,-75.5 55,-75.5 55,-56.5 8,-56.5"/>
<text text-anchor="middle" x="31.5" y="-63.5" font-family="Helvetica,sans-Serif" font-size="10.00" fill="#000000">Shape</text>
</a>
</g>
</g>
<!-- Node1&#45;&gt;Node0 -->
<g id="edge1" class="edge">
<title>Node1&#45;&gt;Node0</title>
<path fill="none" stroke="#191970" d="M31.5,-46.1575C31.5,-37.155 31.5,-26.9199 31.5,-19.6427"/>
<polygon fill="#191970" stroke="#191970" points="28.0001,-46.2455 31.5,-56.2455 35.0001,-46.2456 28.0001,-46.2455"/>
</g>
<!-- Node2 -->
<g id="node3" class="node">
<title>Node2</title>
<g id="a_node3"><a xlink:href="classDrawable.html" target="_top" xlink:title="A pure virtual interface class that can draw itself to a canvas.">
<polygon fill="none" stroke="#000000" points="0,-112.5 0,-131.5 63,-131.5 63,-112.5 0,-112.5"/>
<text text-anchor="middle" x="31.5" y="-119.5" font-family="Helvetica,sans-Serif" font-size="10.00" fill="#000000">Drawable</text>
</a>
</g>
</g>
<!-- Node2&#45;&gt;Node1 -->
<g id="edge2" class="edge">
<title>Node2&#45;&gt;Node1</title>
<path fill="none" stroke="#191970" d="M31.5,-102.1575C31.5,-93.155 31.5,-82.9199 31.5,-75.6427"/>
<polygon fill="#191970" stroke="#191970" points="28.0001,-102.2455 31.5,-112.2455 35.0001,-102.2456 28.0001,-102.2455"/>
</g>
</g>
</svg>
