<?xml version="1.0" encoding="UTF-8" standalone="no"?>
<!DOCTYPE svg PUBLIC "-//W3C//DTD SVG 1.1//EN"
 "http://www.w3.org/Graphics/SVG/1.1/DTD/svg11.dtd">
<!-- Generated by graphviz version 2.40.1 (20161225.0304)
 -->
<!-- Title: Triangle Pages: 1 -->
<svg width="281pt" height="152pt"
 viewBox="0.00 0.00 280.50 152.00" xmlns="http://www.w3.org/2000/svg" xmlns:xlink="http://www.w3.org/1999/xlink">
<g id="graph0" class="graph" transform="scale(1 1) rotate(0) translate(4 148)">
<title>Triangle</title>
<!-- Node3 -->
<g id="node1" class="node">
<title>Node3</title>
<g id="a_node1"><a xlink:title="A subclass of a Shape that represents a triangle in 2D space.">
<polygon fill="#bfbfbf" stroke="#000000" points="185,-.5 185,-19.5 240,-19.5 240,-.5 185,-.5"/>
<text text-anchor="middle" x="212.5" y="-7.5" font-family="Helvetica,sans-Serif" font-size="10.00" fill="#000000">Triangle</text>
</a>
</g>
</g>
<!-- Node4 -->
<g id="node2" class="node">
<title>Node4</title>
<g id="a_node2"><a xlink:href="classShape.html" target="_top" xlink:title="An abstract base class that represents a Shape which has an area, perimeter, color,...">
<polygon fill="none" stroke="#000000" points="134,-57.5 134,-76.5 181,-76.5 181,-57.5 134,-57.5"/>
<text text-anchor="middle" x="157.5" y="-64.5" font-family="Helvetica,sans-Serif" font-size="10.00" fill="#000000">Shape</text>
</a>
</g>
</g>
<!-- Node4&#45;&gt;Node3 -->
<g id="edge1" class="edge">
<title>Node4&#45;&gt;Node3</title>
<path fill="none" stroke="#191970" d="M173.9575,-49.944C183.5623,-39.99 195.3221,-27.8026 203.3078,-19.5265"/>
<polygon fill="#191970" stroke="#191970" points="171.255,-47.7042 166.83,-57.3307 176.2924,-52.5648 171.255,-47.7042"/>
</g>
<!-- Node5 -->
<g id="node3" class="node">
<title>Node5</title>
<g id="a_node3"><a xlink:href="classDrawable.html" target="_top" xlink:title="A pure virtual interface class that can draw itself to a canvas.">
<polygon fill="none" stroke="#000000" points="0,-124.5 0,-143.5 63,-143.5 63,-124.5 0,-124.5"/>
<text text-anchor="middle" x="31.5" y="-131.5" font-family="Helvetica,sans-Serif" font-size="10.00" fill="#000000">Drawable</text>
</a>
</g>
</g>
<!-- Node5&#45;&gt;Node4 -->
<g id="edge2" class="edge">
<title>Node5&#45;&gt;Node4</title>
<path fill="none" stroke="#191970" d="M58.6605,-119.5575C83.1098,-106.5567 118.35,-87.8179 139.4808,-76.5817"/>
<polygon fill="#191970" stroke="#191970" points="56.7388,-116.6152 49.5527,-124.4005 60.0253,-122.7958 56.7388,-116.6152"/>
</g>
<!-- Node6 -->
<g id="node4" class="node">
<title>Node6</title>
<g id="a_node4"><a xlink:href="classVector2.html" target="_top" xlink:title="Represents a 2 dimensional vector.">
<polygon fill="none" stroke="#000000" points="208,-124.5 208,-143.5 261,-143.5 261,-124.5 208,-124.5"/>
<text text-anchor="middle" x="234.5" y="-131.5" font-family="Helvetica,sans-Serif" font-size="10.00" fill="#000000">Vector2</text>
</a>
</g>
</g>
<!-- Node6&#45;&gt;Node3 -->
<g id="edge5" class="edge">
<title>Node6&#45;&gt;Node3</title>
<path fill="none" stroke="#9a32cd" stroke-dasharray="5,2" d="M231.5909,-114.239C230.6476,-108.0701 229.568,-101.2461 228.5,-95 223.8432,-67.7656 217.6149,-35.7695 214.4799,-19.926"/>
<polygon fill="#9a32cd" stroke="#9a32cd" points="228.1656,-114.9987 233.1098,-124.3691 235.0882,-113.9606 228.1656,-114.9987"/>
<text text-anchor="middle" x="248.5" y="-64.5" font-family="Helvetica,sans-Serif" font-size="10.00" fill="#000000"> vertices_</text>
</g>
<!-- Node6&#45;&gt;Node4 -->
<g id="edge3" class="edge">
<title>Node6&#45;&gt;Node4</title>
<path fill="none" stroke="#9a32cd" stroke-dasharray="5,2" d="M206.6246,-119.2026C200.3642,-115.3018 193.9637,-110.821 188.5,-106 178.6421,-97.3017 169.5617,-85.1836 163.8109,-76.7732"/>
<polygon fill="#9a32cd" stroke="#9a32cd" points="205.179,-122.4132 215.5713,-124.475 208.733,-116.3825 205.179,-122.4132"/>
<text text-anchor="middle" x="208.5" y="-98" font-family="Helvetica,sans-Serif" font-size="10.00" fill="#000000"> center_</text>
</g>
<!-- Node7 -->
<g id="node5" class="node">
<title>Node7</title>
<g id="a_node5"><a xlink:href="classcs225_1_1HSLAPixel.html" target="_top" xlink:title=" ">
<polygon fill="none" stroke="#000000" points="81,-124.5 81,-143.5 182,-143.5 182,-124.5 81,-124.5"/>
<text text-anchor="middle" x="131.5" y="-131.5" font-family="Helvetica,sans-Serif" font-size="10.00" fill="#000000">cs225::HSLAPixel</text>
</a>
</g>
</g>
<!-- Node7&#45;&gt;Node4 -->
<g id="edge4" class="edge">
<title>Node7&#45;&gt;Node4</title>
<path fill="none" stroke="#9a32cd" stroke-dasharray="5,2" d="M129.3773,-113.9739C129.401,-107.7131 130.161,-100.9032 132.5,-95 135.2846,-87.9721 140.6787,-81.5642 145.7457,-76.6574"/>
<polygon fill="#9a32cd" stroke="#9a32cd" points="125.9032,-114.5434 129.9475,-124.3359 132.8926,-114.1587 125.9032,-114.5434"/>
<text text-anchor="middle" x="149" y="-98" font-family="Helvetica,sans-Serif" font-size="10.00" fill="#000000"> color_</text>
</g>
</g>
</svg>
