<?xml version="1.0" encoding="UTF-8" standalone="no"?>
<!DOCTYPE svg PUBLIC "-//W3C//DTD SVG 1.1//EN"
 "http://www.w3.org/Graphics/SVG/1.1/DTD/svg11.dtd">
<!-- Generated by graphviz version 2.40.1 (20161225.0304)
 -->
<!-- Title: Line Pages: 1 -->
<svg width="261pt" height="106pt"
 viewBox="0.00 0.00 261.00 106.00" xmlns="http://www.w3.org/2000/svg" xmlns:xlink="http://www.w3.org/1999/xlink">
<g id="graph0" class="graph" transform="scale(1 1) rotate(0) translate(4 102)">
<title>Line</title>
<!-- Node2 -->
<g id="node1" class="node">
<title>Node2</title>
<g id="a_node1"><a xlink:title="A subclass of Drawable that represents a line in 2D space.">
<polygon fill="#bfbfbf" stroke="#000000" points="89,-.5 89,-19.5 126,-19.5 126,-.5 89,-.5"/>
<text text-anchor="middle" x="107.5" y="-7.5" font-family="Helvetica,sans-Serif" font-size="10.00" fill="#000000">Line</text>
</a>
</g>
</g>
<!-- Node3 -->
<g id="node2" class="node">
<title>Node3</title>
<g id="a_node2"><a xlink:href="classDrawable.html" target="_top" xlink:title="A pure virtual interface class that can draw itself to a canvas.">
<polygon fill="none" stroke="#000000" points="0,-78.5 0,-97.5 63,-97.5 63,-78.5 0,-78.5"/>
<text text-anchor="middle" x="31.5" y="-85.5" font-family="Helvetica,sans-Serif" font-size="10.00" fill="#000000">Drawable</text>
</a>
</g>
</g>
<!-- Node3&#45;&gt;Node2 -->
<g id="edge1" class="edge">
<title>Node3&#45;&gt;Node2</title>
<path fill="none" stroke="#191970" d="M48.1176,-70.9451C63.4416,-55.2178 85.6436,-32.4316 98.1047,-19.6426"/>
<polygon fill="#191970" stroke="#191970" points="45.291,-68.8308 40.8191,-78.4357 50.3046,-73.7159 45.291,-68.8308"/>
</g>
<!-- Node4 -->
<g id="node3" class="node">
<title>Node4</title>
<g id="a_node3"><a xlink:href="classVector2.html" target="_top" xlink:title="Represents a 2 dimensional vector.">
<polygon fill="none" stroke="#000000" points="81,-78.5 81,-97.5 134,-97.5 134,-78.5 81,-78.5"/>
<text text-anchor="middle" x="107.5" y="-85.5" font-family="Helvetica,sans-Serif" font-size="10.00" fill="#000000">Vector2</text>
</a>
</g>
</g>
<!-- Node4&#45;&gt;Node2 -->
<g id="edge2" class="edge">
<title>Node4&#45;&gt;Node2</title>
<path fill="none" stroke="#9a32cd" stroke-dasharray="5,2" d="M107.5,-68.2866C107.5,-52.7395 107.5,-31.7276 107.5,-19.6426"/>
<polygon fill="#9a32cd" stroke="#9a32cd" points="104.0001,-68.4356 107.5,-78.4357 111.0001,-68.4357 104.0001,-68.4356"/>
<text text-anchor="middle" x="115" y="-52" font-family="Helvetica,sans-Serif" font-size="10.00" fill="#000000"> b_</text>
<text text-anchor="middle" x="115" y="-41" font-family="Helvetica,sans-Serif" font-size="10.00" fill="#000000">a_</text>
</g>
<!-- Node5 -->
<g id="node4" class="node">
<title>Node5</title>
<g id="a_node4"><a xlink:href="classcs225_1_1HSLAPixel.html" target="_top" xlink:title=" ">
<polygon fill="none" stroke="#000000" points="152,-78.5 152,-97.5 253,-97.5 253,-78.5 152,-78.5"/>
<text text-anchor="middle" x="202.5" y="-85.5" font-family="Helvetica,sans-Serif" font-size="10.00" fill="#000000">cs225::HSLAPixel</text>
</a>
</g>
</g>
<!-- Node5&#45;&gt;Node2 -->
<g id="edge3" class="edge">
<title>Node5&#45;&gt;Node2</title>
<path fill="none" stroke="#9a32cd" stroke-dasharray="5,2" d="M183.0322,-72.0159C163.8524,-56.2683 135.1778,-32.7249 119.2441,-19.6426"/>
<polygon fill="#9a32cd" stroke="#9a32cd" points="180.9014,-74.795 190.8511,-78.4357 185.3434,-69.3849 180.9014,-74.795"/>
<text text-anchor="middle" x="182" y="-46.5" font-family="Helvetica,sans-Serif" font-size="10.00" fill="#000000"> color_</text>
</g>
</g>
</svg>
