<?xml version="1.0" encoding="UTF-8" standalone="no"?>
<!DOCTYPE svg PUBLIC "-//W3C//DTD SVG 1.1//EN"
 "http://www.w3.org/Graphics/SVG/1.1/DTD/svg11.dtd">
<!-- Generated by graphviz version 2.40.1 (20161225.0304)
 -->
<!-- Title: Shape Pages: 1 -->
<svg width="261pt" height="95pt"
 viewBox="0.00 0.00 261.00 95.00" xmlns="http://www.w3.org/2000/svg" xmlns:xlink="http://www.w3.org/1999/xlink">
<g id="graph0" class="graph" transform="scale(1 1) rotate(0) translate(4 91)">
<title>Shape</title>
<!-- Node5 -->
<g id="node1" class="node">
<title>Node5</title>
<g id="a_node1"><a xlink:title="An abstract base class that represents a Shape which has an area, perimeter, color,...">
<polygon fill="#bfbfbf" stroke="#000000" points="84,-.5 84,-19.5 131,-19.5 131,-.5 84,-.5"/>
<text text-anchor="middle" x="107.5" y="-7.5" font-family="Helvetica,sans-Serif" font-size="10.00" fill="#000000">Shape</text>
</a>
</g>
</g>
<!-- Node6 -->
<g id="node2" class="node">
<title>Node6</title>
<g id="a_node2"><a xlink:href="classDrawable.html" target="_top" xlink:title="A pure virtual interface class that can draw itself to a canvas.">
<polygon fill="none" stroke="#000000" points="0,-67.5 0,-86.5 63,-86.5 63,-67.5 0,-67.5"/>
<text text-anchor="middle" x="31.5" y="-74.5" font-family="Helvetica,sans-Serif" font-size="10.00" fill="#000000">Drawable</text>
</a>
</g>
</g>
<!-- Node6&#45;&gt;Node5 -->
<g id="edge1" class="edge">
<title>Node6&#45;&gt;Node5</title>
<path fill="none" stroke="#191970" d="M50.2844,-60.44C64.863,-47.5879 84.5625,-30.2212 96.6313,-19.5817"/>
<polygon fill="#191970" stroke="#191970" points="47.5757,-58.1621 42.3889,-67.4005 52.2048,-63.413 47.5757,-58.1621"/>
</g>
<!-- Node7 -->
<g id="node3" class="node">
<title>Node7</title>
<g id="a_node3"><a xlink:href="classVector2.html" target="_top" xlink:title="Represents a 2 dimensional vector.">
<polygon fill="none" stroke="#000000" points="81,-67.5 81,-86.5 134,-86.5 134,-67.5 81,-67.5"/>
<text text-anchor="middle" x="107.5" y="-74.5" font-family="Helvetica,sans-Serif" font-size="10.00" fill="#000000">Vector2</text>
</a>
</g>
</g>
<!-- Node7&#45;&gt;Node5 -->
<g id="edge2" class="edge">
<title>Node7&#45;&gt;Node5</title>
<path fill="none" stroke="#9a32cd" stroke-dasharray="5,2" d="M107.5,-57.1079C107.5,-44.714 107.5,-29.3263 107.5,-19.5817"/>
<polygon fill="#9a32cd" stroke="#9a32cd" points="104.0001,-57.4005 107.5,-67.4005 111.0001,-57.4006 104.0001,-57.4005"/>
<text text-anchor="middle" x="127.5" y="-41" font-family="Helvetica,sans-Serif" font-size="10.00" fill="#000000"> center_</text>
</g>
<!-- Node8 -->
<g id="node4" class="node">
<title>Node8</title>
<g id="a_node4"><a xlink:href="classcs225_1_1HSLAPixel.html" target="_top" xlink:title=" ">
<polygon fill="none" stroke="#000000" points="152,-67.5 152,-86.5 253,-86.5 253,-67.5 152,-67.5"/>
<text text-anchor="middle" x="202.5" y="-74.5" font-family="Helvetica,sans-Serif" font-size="10.00" fill="#000000">cs225::HSLAPixel</text>
</a>
</g>
</g>
<!-- Node8&#45;&gt;Node5 -->
<g id="edge3" class="edge">
<title>Node8&#45;&gt;Node5</title>
<path fill="none" stroke="#9a32cd" stroke-dasharray="5,2" d="M182.6537,-61.1907C173.3361,-53.9332 161.9937,-45.331 151.5,-38 142.296,-31.5701 131.6852,-24.7998 123.1898,-19.5275"/>
<polygon fill="#9a32cd" stroke="#9a32cd" points="180.5337,-63.9761 190.5591,-67.4027 184.8587,-58.4721 180.5337,-63.9761"/>
<text text-anchor="middle" x="182" y="-41" font-family="Helvetica,sans-Serif" font-size="10.00" fill="#000000"> color_</text>
</g>
</g>
</svg>
