<?xml version="1.0" encoding="UTF-8" standalone="no"?>
<!DOCTYPE svg PUBLIC "-//W3C//DTD SVG 1.1//EN"
 "http://www.w3.org/Graphics/SVG/1.1/DTD/svg11.dtd">
<!-- Generated by graphviz version 2.40.1 (20161225.0304)
 -->
<!-- Title: Flower Pages: 1 -->
<svg width="261pt" height="184pt"
 viewBox="0.00 0.00 261.00 184.00" xmlns="http://www.w3.org/2000/svg" xmlns:xlink="http://www.w3.org/1999/xlink">
<g id="graph0" class="graph" transform="scale(1 1) rotate(0) translate(4 180)">
<title>Flower</title>
<!-- Node2 -->
<g id="node1" class="node">
<title>Node2</title>
<g id="a_node1"><a xlink:title="A subclass of Drawable that can draw a flower.">
<polygon fill="#bfbfbf" stroke="#000000" points="28,-.5 28,-19.5 77,-19.5 77,-.5 28,-.5"/>
<text text-anchor="middle" x="52.5" y="-7.5" font-family="Helvetica,sans-Serif" font-size="10.00" fill="#000000">Flower</text>
</a>
</g>
</g>
<!-- Node3 -->
<g id="node2" class="node">
<title>Node3</title>
<g id="a_node2"><a xlink:href="classDrawable.html" target="_top" xlink:title="A pure virtual interface class that can draw itself to a canvas.">
<polygon fill="none" stroke="#000000" points="0,-156.5 0,-175.5 63,-175.5 63,-156.5 0,-156.5"/>
<text text-anchor="middle" x="31.5" y="-163.5" font-family="Helvetica,sans-Serif" font-size="10.00" fill="#000000">Drawable</text>
</a>
</g>
</g>
<!-- Node3&#45;&gt;Node2 -->
<g id="edge1" class="edge">
<title>Node3&#45;&gt;Node2</title>
<path fill="none" stroke="#191970" d="M34.1664,-146.1925C38.7122,-112.4235 47.7991,-44.9208 51.1869,-19.7548"/>
<polygon fill="#191970" stroke="#191970" points="30.6791,-145.8639 32.8136,-156.2415 37.6166,-146.7979 30.6791,-145.8639"/>
</g>
<!-- Node4 -->
<g id="node3" class="node">
<title>Node4</title>
<g id="a_node3"><a xlink:href="classShape.html" target="_top" xlink:title="An abstract base class that represents a Shape which has an area, perimeter, color,...">
<polygon fill="none" stroke="#000000" points="74,-89.5 74,-108.5 121,-108.5 121,-89.5 74,-89.5"/>
<text text-anchor="middle" x="97.5" y="-96.5" font-family="Helvetica,sans-Serif" font-size="10.00" fill="#000000">Shape</text>
</a>
</g>
</g>
<!-- Node3&#45;&gt;Node4 -->
<g id="edge3" class="edge">
<title>Node3&#45;&gt;Node4</title>
<path fill="none" stroke="#191970" d="M48.1689,-149.0785C60.7923,-136.2639 77.6785,-119.1218 88.0614,-108.5817"/>
<polygon fill="#191970" stroke="#191970" points="45.4805,-146.8203 40.9562,-156.4005 50.4673,-151.7327 45.4805,-146.8203"/>
</g>
<!-- Node4&#45;&gt;Node2 -->
<g id="edge2" class="edge">
<title>Node4&#45;&gt;Node2</title>
<path fill="none" stroke="#9a32cd" stroke-dasharray="5,2" d="M88.1616,-80.5307C78.8108,-62.0369 64.7828,-34.2926 57.4176,-19.7259"/>
<polygon fill="#9a32cd" stroke="#9a32cd" points="85.0485,-82.1306 92.6842,-89.4754 91.2954,-78.972 85.0485,-82.1306"/>
<text text-anchor="middle" x="97.5" y="-63" font-family="Helvetica,sans-Serif" font-size="10.00" fill="#000000"> stem</text>
<text text-anchor="middle" x="97.5" y="-52" font-family="Helvetica,sans-Serif" font-size="10.00" fill="#000000">pistil</text>
<text text-anchor="middle" x="97.5" y="-41" font-family="Helvetica,sans-Serif" font-size="10.00" fill="#000000">leaf</text>
</g>
<!-- Node5 -->
<g id="node4" class="node">
<title>Node5</title>
<g id="a_node4"><a xlink:href="classVector2.html" target="_top" xlink:title="Represents a 2 dimensional vector.">
<polygon fill="none" stroke="#000000" points="81,-156.5 81,-175.5 134,-175.5 134,-156.5 81,-156.5"/>
<text text-anchor="middle" x="107.5" y="-163.5" font-family="Helvetica,sans-Serif" font-size="10.00" fill="#000000">Vector2</text>
</a>
</g>
</g>
<!-- Node5&#45;&gt;Node4 -->
<g id="edge4" class="edge">
<title>Node5&#45;&gt;Node4</title>
<path fill="none" stroke="#9a32cd" stroke-dasharray="5,2" d="M104.5875,-146.4863C102.7282,-134.0286 100.3994,-118.4258 98.9301,-108.5817"/>
<polygon fill="#9a32cd" stroke="#9a32cd" points="101.1293,-147.0268 106.0672,-156.4005 108.0526,-145.9934 101.1293,-147.0268"/>
<text text-anchor="middle" x="123.5" y="-130" font-family="Helvetica,sans-Serif" font-size="10.00" fill="#000000"> center_</text>
</g>
<!-- Node6 -->
<g id="node5" class="node">
<title>Node6</title>
<g id="a_node5"><a xlink:href="classcs225_1_1HSLAPixel.html" target="_top" xlink:title=" ">
<polygon fill="none" stroke="#000000" points="152,-156.5 152,-175.5 253,-175.5 253,-156.5 152,-156.5"/>
<text text-anchor="middle" x="202.5" y="-163.5" font-family="Helvetica,sans-Serif" font-size="10.00" fill="#000000">cs225::HSLAPixel</text>
</a>
</g>
</g>
<!-- Node6&#45;&gt;Node4 -->
<g id="edge5" class="edge">
<title>Node6&#45;&gt;Node4</title>
<path fill="none" stroke="#9a32cd" stroke-dasharray="5,2" d="M181.4465,-150.2777C171.3502,-142.9446 158.9796,-134.2555 147.5,-127 137.2398,-120.5151 125.4032,-113.852 115.823,-108.6534"/>
<polygon fill="#9a32cd" stroke="#9a32cd" points="179.5217,-153.2066 189.6541,-156.3028 183.6641,-147.5638 179.5217,-153.2066"/>
<text text-anchor="middle" x="179" y="-130" font-family="Helvetica,sans-Serif" font-size="10.00" fill="#000000"> color_</text>
</g>
</g>
</svg>
