<?xml version="1.0" encoding="UTF-8" standalone="no"?>
<!DOCTYPE svg PUBLIC "-//W3C//DTD SVG 1.1//EN"
 "http://www.w3.org/Graphics/SVG/1.1/DTD/svg11.dtd">
<!-- Generated by graphviz version 2.40.1 (20161225.0304)
 -->
<!-- Title: Circle Pages: 1 -->
<svg width="261pt" height="152pt"
 viewBox="0.00 0.00 261.00 152.00" xmlns="http://www.w3.org/2000/svg" xmlns:xlink="http://www.w3.org/1999/xlink">
<g id="graph0" class="graph" transform="scale(1 1) rotate(0) translate(4 148)">
<title>Circle</title>
<!-- Node3 -->
<g id="node1" class="node">
<title>Node3</title>
<g id="a_node1"><a xlink:title="A subclass of Shape that represents a Circle in 2D space.">
<polygon fill="#bfbfbf" stroke="#000000" points="85.5,-.5 85.5,-19.5 129.5,-19.5 129.5,-.5 85.5,-.5"/>
<text text-anchor="middle" x="107.5" y="-7.5" font-family="Helvetica,sans-Serif" font-size="10.00" fill="#000000">Circle</text>
</a>
</g>
</g>
<!-- Node4 -->
<g id="node2" class="node">
<title>Node4</title>
<g id="a_node2"><a xlink:href="classShape.html" target="_top" xlink:title="An abstract base class that represents a Shape which has an area, perimeter, color,...">
<polygon fill="none" stroke="#000000" points="84,-57.5 84,-76.5 131,-76.5 131,-57.5 84,-57.5"/>
<text text-anchor="middle" x="107.5" y="-64.5" font-family="Helvetica,sans-Serif" font-size="10.00" fill="#000000">Shape</text>
</a>
</g>
</g>
<!-- Node4&#45;&gt;Node3 -->
<g id="edge1" class="edge">
<title>Node4&#45;&gt;Node3</title>
<path fill="none" stroke="#191970" d="M107.5,-47.2342C107.5,-37.8491 107.5,-27.0651 107.5,-19.5265"/>
<polygon fill="#191970" stroke="#191970" points="104.0001,-47.3307 107.5,-57.3307 111.0001,-47.3308 104.0001,-47.3307"/>
</g>
<!-- Node5 -->
<g id="node3" class="node">
<title>Node5</title>
<g id="a_node3"><a xlink:href="classDrawable.html" target="_top" xlink:title="A pure virtual interface class that can draw itself to a canvas.">
<polygon fill="none" stroke="#000000" points="0,-124.5 0,-143.5 63,-143.5 63,-124.5 0,-124.5"/>
<text text-anchor="middle" x="31.5" y="-131.5" font-family="Helvetica,sans-Serif" font-size="10.00" fill="#000000">Drawable</text>
</a>
</g>
</g>
<!-- Node5&#45;&gt;Node4 -->
<g id="edge2" class="edge">
<title>Node5&#45;&gt;Node4</title>
<path fill="none" stroke="#191970" d="M50.2844,-117.44C64.863,-104.5879 84.5625,-87.2212 96.6313,-76.5817"/>
<polygon fill="#191970" stroke="#191970" points="47.5757,-115.1621 42.3889,-124.4005 52.2048,-120.413 47.5757,-115.1621"/>
</g>
<!-- Node6 -->
<g id="node4" class="node">
<title>Node6</title>
<g id="a_node4"><a xlink:href="classVector2.html" target="_top" xlink:title="Represents a 2 dimensional vector.">
<polygon fill="none" stroke="#000000" points="81,-124.5 81,-143.5 134,-143.5 134,-124.5 81,-124.5"/>
<text text-anchor="middle" x="107.5" y="-131.5" font-family="Helvetica,sans-Serif" font-size="10.00" fill="#000000">Vector2</text>
</a>
</g>
</g>
<!-- Node6&#45;&gt;Node4 -->
<g id="edge3" class="edge">
<title>Node6&#45;&gt;Node4</title>
<path fill="none" stroke="#9a32cd" stroke-dasharray="5,2" d="M107.5,-114.1079C107.5,-101.714 107.5,-86.3263 107.5,-76.5817"/>
<polygon fill="#9a32cd" stroke="#9a32cd" points="104.0001,-114.4005 107.5,-124.4005 111.0001,-114.4006 104.0001,-114.4005"/>
<text text-anchor="middle" x="127.5" y="-98" font-family="Helvetica,sans-Serif" font-size="10.00" fill="#000000"> center_</text>
</g>
<!-- Node7 -->
<g id="node5" class="node">
<title>Node7</title>
<g id="a_node5"><a xlink:href="classcs225_1_1HSLAPixel.html" target="_top" xlink:title=" ">
<polygon fill="none" stroke="#000000" points="152,-124.5 152,-143.5 253,-143.5 253,-124.5 152,-124.5"/>
<text text-anchor="middle" x="202.5" y="-131.5" font-family="Helvetica,sans-Serif" font-size="10.00" fill="#000000">cs225::HSLAPixel</text>
</a>
</g>
</g>
<!-- Node7&#45;&gt;Node4 -->
<g id="edge4" class="edge">
<title>Node7&#45;&gt;Node4</title>
<path fill="none" stroke="#9a32cd" stroke-dasharray="5,2" d="M182.6537,-118.1907C173.3361,-110.9332 161.9937,-102.331 151.5,-95 142.296,-88.5701 131.6852,-81.7998 123.1898,-76.5275"/>
<polygon fill="#9a32cd" stroke="#9a32cd" points="180.5337,-120.9761 190.5591,-124.4027 184.8587,-115.4721 180.5337,-120.9761"/>
<text text-anchor="middle" x="182" y="-98" font-family="Helvetica,sans-Serif" font-size="10.00" fill="#000000"> color_</text>
</g>
</g>
</svg>
