<?xml version="1.0" encoding="UTF-8" standalone="no"?>
<!DOCTYPE svg PUBLIC "-//W3C//DTD SVG 1.1//EN"
 "http://www.w3.org/Graphics/SVG/1.1/DTD/svg11.dtd">
<!-- Generated by graphviz version 2.40.1 (20161225.0304)
 -->
<!-- Title: Truck Pages: 1 -->
<svg width="295pt" height="262pt"
 viewBox="0.00 0.00 294.50 262.00" xmlns="http://www.w3.org/2000/svg" xmlns:xlink="http://www.w3.org/1999/xlink">
<g id="graph0" class="graph" transform="scale(1 1) rotate(0) translate(4 258)">
<title>Truck</title>
<!-- Node2 -->
<g id="node1" class="node">
<title>Node2</title>
<g id="a_node1"><a xlink:title="A subclass of Drawable that can draw a truck.">
<polygon fill="#bfbfbf" stroke="#000000" points="129.5,-.5 129.5,-19.5 171.5,-19.5 171.5,-.5 129.5,-.5"/>
<text text-anchor="middle" x="150.5" y="-7.5" font-family="Helvetica,sans-Serif" font-size="10.00" fill="#000000">Truck</text>
</a>
</g>
</g>
<!-- Node3 -->
<g id="node2" class="node">
<title>Node3</title>
<g id="a_node2"><a xlink:href="classDrawable.html" target="_top" xlink:title="A pure virtual interface class that can draw itself to a canvas.">
<polygon fill="none" stroke="#000000" points="0,-234.5 0,-253.5 63,-253.5 63,-234.5 0,-234.5"/>
<text text-anchor="middle" x="31.5" y="-241.5" font-family="Helvetica,sans-Serif" font-size="10.00" fill="#000000">Drawable</text>
</a>
</g>
</g>
<!-- Node3&#45;&gt;Node2 -->
<g id="edge1" class="edge">
<title>Node3&#45;&gt;Node2</title>
<path fill="none" stroke="#191970" d="M33.7516,-224.406C39.3208,-184.4107 57.2211,-92.5575 108.5,-38 115.3421,-30.7204 124.4192,-24.3717 132.384,-19.5684"/>
<polygon fill="#191970" stroke="#191970" points="30.2649,-224.0799 32.4664,-234.4435 37.2082,-224.9691 30.2649,-224.0799"/>
</g>
<!-- Node6 -->
<g id="node5" class="node">
<title>Node6</title>
<g id="a_node5"><a xlink:href="classShape.html" target="_top" xlink:title="An abstract base class that represents a Shape which has an area, perimeter, color,...">
<polygon fill="none" stroke="#000000" points="104,-167.5 104,-186.5 151,-186.5 151,-167.5 104,-167.5"/>
<text text-anchor="middle" x="127.5" y="-174.5" font-family="Helvetica,sans-Serif" font-size="10.00" fill="#000000">Shape</text>
</a>
</g>
</g>
<!-- Node3&#45;&gt;Node6 -->
<g id="edge5" class="edge">
<title>Node3&#45;&gt;Node6</title>
<path fill="none" stroke="#191970" d="M53.6944,-228.5102C72.2398,-215.567 98.0989,-197.5195 113.7711,-186.5817"/>
<polygon fill="#191970" stroke="#191970" points="51.4517,-225.8072 45.2545,-234.4005 55.4579,-231.5475 51.4517,-225.8072"/>
</g>
<!-- Node4 -->
<g id="node3" class="node">
<title>Node4</title>
<g id="a_node3"><a xlink:href="classVector2.html" target="_top" xlink:title="Represents a 2 dimensional vector.">
<polygon fill="none" stroke="#000000" points="208,-234.5 208,-253.5 261,-253.5 261,-234.5 208,-234.5"/>
<text text-anchor="middle" x="234.5" y="-241.5" font-family="Helvetica,sans-Serif" font-size="10.00" fill="#000000">Vector2</text>
</a>
</g>
</g>
<!-- Node4&#45;&gt;Node2 -->
<g id="edge2" class="edge">
<title>Node4&#45;&gt;Node2</title>
<path fill="none" stroke="#9a32cd" stroke-dasharray="5,2" d="M239.192,-224.2373C247.3678,-184.6594 259.6859,-94.624 218.5,-38 207.6107,-23.0289 187.2414,-16.0344 171.6247,-12.7835"/>
<polygon fill="#9a32cd" stroke="#9a32cd" points="235.7311,-223.6788 236.9955,-234.1979 242.5669,-225.1863 235.7311,-223.6788"/>
<text text-anchor="middle" x="266.5" y="-141" font-family="Helvetica,sans-Serif" font-size="10.00" fill="#000000"> center_</text>
</g>
<!-- Node4&#45;&gt;Node6 -->
<g id="edge6" class="edge">
<title>Node4&#45;&gt;Node6</title>
<path fill="none" stroke="#9a32cd" stroke-dasharray="5,2" d="M207.1986,-229.292C199.7582,-225.1269 191.7522,-220.4991 184.5,-216 169.2165,-206.5184 152.2739,-194.7585 140.8637,-186.6454"/>
<polygon fill="#9a32cd" stroke="#9a32cd" points="205.7756,-232.5044 216.2213,-234.2758 209.1602,-226.377 205.7756,-232.5044"/>
<text text-anchor="middle" x="204.5" y="-208" font-family="Helvetica,sans-Serif" font-size="10.00" fill="#000000"> center_</text>
</g>
<!-- Node5 -->
<g id="node4" class="node">
<title>Node5</title>
<g id="a_node4"><a xlink:href="classRectangle.html" target="_top" xlink:title="A subclass of Shape that represents a rectangle in 2D space.">
<polygon fill="none" stroke="#000000" points="82,-100.5 82,-119.5 147,-119.5 147,-100.5 82,-100.5"/>
<text text-anchor="middle" x="114.5" y="-107.5" font-family="Helvetica,sans-Serif" font-size="10.00" fill="#000000">Rectangle</text>
</a>
</g>
</g>
<!-- Node5&#45;&gt;Node2 -->
<g id="edge3" class="edge">
<title>Node5&#45;&gt;Node2</title>
<path fill="none" stroke="#9a32cd" stroke-dasharray="5,2" d="M111.9898,-89.855C111.0162,-74.8163 111.6377,-54.1619 119.5,-38 123.0533,-30.6959 129.431,-24.4235 135.4817,-19.6781"/>
<polygon fill="#9a32cd" stroke="#9a32cd" points="108.5315,-90.4645 112.9516,-100.0932 115.5008,-89.8096 108.5315,-90.4645"/>
<text text-anchor="middle" x="140" y="-74" font-family="Helvetica,sans-Serif" font-size="10.00" fill="#000000"> window</text>
<text text-anchor="middle" x="140" y="-63" font-family="Helvetica,sans-Serif" font-size="10.00" fill="#000000">engine</text>
<text text-anchor="middle" x="140" y="-52" font-family="Helvetica,sans-Serif" font-size="10.00" fill="#000000">cabin</text>
<text text-anchor="middle" x="140" y="-41" font-family="Helvetica,sans-Serif" font-size="10.00" fill="#000000">trailer</text>
</g>
<!-- Node6&#45;&gt;Node5 -->
<g id="edge4" class="edge">
<title>Node6&#45;&gt;Node5</title>
<path fill="none" stroke="#191970" d="M123.7138,-157.4863C121.2966,-145.0286 118.2692,-129.4258 116.3591,-119.5817"/>
<polygon fill="#191970" stroke="#191970" points="120.2966,-158.2503 125.6374,-167.4005 127.1685,-156.9169 120.2966,-158.2503"/>
</g>
<!-- Node8 -->
<g id="node7" class="node">
<title>Node8</title>
<g id="a_node7"><a xlink:href="classCircle.html" target="_top" xlink:title="A subclass of Shape that represents a Circle in 2D space.">
<polygon fill="none" stroke="#000000" points="165.5,-100.5 165.5,-119.5 209.5,-119.5 209.5,-100.5 165.5,-100.5"/>
<text text-anchor="middle" x="187.5" y="-107.5" font-family="Helvetica,sans-Serif" font-size="10.00" fill="#000000">Circle</text>
</a>
</g>
</g>
<!-- Node6&#45;&gt;Node8 -->
<g id="edge9" class="edge">
<title>Node6&#45;&gt;Node8</title>
<path fill="none" stroke="#191970" d="M142.9794,-159.7147C154.4185,-146.941 169.5695,-130.0224 178.9194,-119.5817"/>
<polygon fill="#191970" stroke="#191970" points="140.1604,-157.6161 136.0965,-167.4005 145.3751,-162.2859 140.1604,-157.6161"/>
</g>
<!-- Node7 -->
<g id="node6" class="node">
<title>Node7</title>
<g id="a_node6"><a xlink:href="classcs225_1_1HSLAPixel.html" target="_top" xlink:title=" ">
<polygon fill="none" stroke="#000000" points="81,-234.5 81,-253.5 182,-253.5 182,-234.5 81,-234.5"/>
<text text-anchor="middle" x="131.5" y="-241.5" font-family="Helvetica,sans-Serif" font-size="10.00" fill="#000000">cs225::HSLAPixel</text>
</a>
</g>
</g>
<!-- Node7&#45;&gt;Node6 -->
<g id="edge7" class="edge">
<title>Node7&#45;&gt;Node6</title>
<path fill="none" stroke="#9a32cd" stroke-dasharray="5,2" d="M129.1866,-224.3029C128.9188,-221.5184 128.6782,-218.6891 128.5,-216 127.837,-205.9978 127.6064,-194.5257 127.5298,-186.6264"/>
<polygon fill="#9a32cd" stroke="#9a32cd" points="125.7264,-224.8607 130.28,-234.427 132.686,-224.109 125.7264,-224.8607"/>
<text text-anchor="middle" x="145" y="-208" font-family="Helvetica,sans-Serif" font-size="10.00" fill="#000000"> color_</text>
</g>
<!-- Node8&#45;&gt;Node2 -->
<g id="edge8" class="edge">
<title>Node8&#45;&gt;Node2</title>
<path fill="none" stroke="#9a32cd" stroke-dasharray="5,2" d="M180.403,-90.8188C172.5351,-69.5544 160.1563,-36.0982 154.0913,-19.7063"/>
<polygon fill="#9a32cd" stroke="#9a32cd" points="177.1996,-92.2475 183.9523,-100.4116 183.7647,-89.8184 177.1996,-92.2475"/>
<text text-anchor="middle" x="195.5" y="-57.5" font-family="Helvetica,sans-Serif" font-size="10.00" fill="#000000"> wheels</text>
</g>
</g>
</svg>
