<?xml version="1.0" encoding="UTF-8" standalone="no"?>
<!DOCTYPE svg PUBLIC "-//W3C//DTD SVG 1.1//EN"
 "http://www.w3.org/Graphics/SVG/1.1/DTD/svg11.dtd">
<!-- Generated by graphviz version 2.40.1 (20161225.0304)
 -->
<!-- Title: Shape Pages: 1 -->
<svg width="209pt" height="140pt"
 viewBox="0.00 0.00 208.50 140.00" xmlns="http://www.w3.org/2000/svg" xmlns:xlink="http://www.w3.org/1999/xlink">
<g id="graph0" class="graph" transform="scale(1 1) rotate(0) translate(4 136)">
<title>Shape</title>
<!-- Node0 -->
<g id="node1" class="node">
<title>Node0</title>
<g id="a_node1"><a xlink:title="An abstract base class that represents a Shape which has an area, perimeter, color,...">
<polygon fill="#bfbfbf" stroke="#000000" points="71.5,-56.5 71.5,-75.5 118.5,-75.5 118.5,-56.5 71.5,-56.5"/>
<text text-anchor="middle" x="95" y="-63.5" font-family="Helvetica,sans-Serif" font-size="10.00" fill="#000000">Shape</text>
</a>
</g>
</g>
<!-- Node2 -->
<g id="node3" class="node">
<title>Node2</title>
<g id="a_node3"><a xlink:href="classCircle.html" target="_top" xlink:title="A subclass of Shape that represents a Circle in 2D space.">
<polygon fill="none" stroke="#000000" points="0,-.5 0,-19.5 44,-19.5 44,-.5 0,-.5"/>
<text text-anchor="middle" x="22" y="-7.5" font-family="Helvetica,sans-Serif" font-size="10.00" fill="#000000">Circle</text>
</a>
</g>
</g>
<!-- Node0&#45;&gt;Node2 -->
<g id="edge2" class="edge">
<title>Node0&#45;&gt;Node2</title>
<path fill="none" stroke="#191970" d="M74.049,-49.928C61.2893,-40.1397 45.4115,-27.9595 34.5699,-19.6427"/>
<polygon fill="#191970" stroke="#191970" points="72.2197,-52.9359 82.2844,-56.2455 76.4804,-47.3819 72.2197,-52.9359"/>
</g>
<!-- Node3 -->
<g id="node4" class="node">
<title>Node3</title>
<g id="a_node4"><a xlink:href="classRectangle.html" target="_top" xlink:title="A subclass of Shape that represents a rectangle in 2D space.">
<polygon fill="none" stroke="#000000" points="62.5,-.5 62.5,-19.5 127.5,-19.5 127.5,-.5 62.5,-.5"/>
<text text-anchor="middle" x="95" y="-7.5" font-family="Helvetica,sans-Serif" font-size="10.00" fill="#000000">Rectangle</text>
</a>
</g>
</g>
<!-- Node0&#45;&gt;Node3 -->
<g id="edge3" class="edge">
<title>Node0&#45;&gt;Node3</title>
<path fill="none" stroke="#191970" d="M95,-46.1575C95,-37.155 95,-26.9199 95,-19.6427"/>
<polygon fill="#191970" stroke="#191970" points="91.5001,-46.2455 95,-56.2455 98.5001,-46.2456 91.5001,-46.2455"/>
</g>
<!-- Node4 -->
<g id="node5" class="node">
<title>Node4</title>
<g id="a_node5"><a xlink:href="classTriangle.html" target="_top" xlink:title="A subclass of a Shape that represents a triangle in 2D space.">
<polygon fill="none" stroke="#000000" points="145.5,-.5 145.5,-19.5 200.5,-19.5 200.5,-.5 145.5,-.5"/>
<text text-anchor="middle" x="173" y="-7.5" font-family="Helvetica,sans-Serif" font-size="10.00" fill="#000000">Triangle</text>
</a>
</g>
</g>
<!-- Node0&#45;&gt;Node4 -->
<g id="edge4" class="edge">
<title>Node0&#45;&gt;Node4</title>
<path fill="none" stroke="#191970" d="M116.9936,-50.2097C130.6929,-40.3743 147.8736,-28.0394 159.5691,-19.6427"/>
<polygon fill="#191970" stroke="#191970" points="114.6686,-47.5703 108.5866,-56.2455 118.7511,-53.2566 114.6686,-47.5703"/>
</g>
<!-- Node1 -->
<g id="node2" class="node">
<title>Node1</title>
<g id="a_node2"><a xlink:href="classDrawable.html" target="_top" xlink:title="A pure virtual interface class that can draw itself to a canvas.">
<polygon fill="none" stroke="#000000" points="63.5,-112.5 63.5,-131.5 126.5,-131.5 126.5,-112.5 63.5,-112.5"/>
<text text-anchor="middle" x="95" y="-119.5" font-family="Helvetica,sans-Serif" font-size="10.00" fill="#000000">Drawable</text>
</a>
</g>
</g>
<!-- Node1&#45;&gt;Node0 -->
<g id="edge1" class="edge">
<title>Node1&#45;&gt;Node0</title>
<path fill="none" stroke="#191970" d="M95,-102.1575C95,-93.155 95,-82.9199 95,-75.6427"/>
<polygon fill="#191970" stroke="#191970" points="91.5001,-102.2455 95,-112.2455 98.5001,-102.2456 91.5001,-102.2455"/>
</g>
</g>
</svg>
