<?xml version="1.0" encoding="UTF-8" standalone="no"?>
<!DOCTYPE svg PUBLIC "-//W3C//DTD SVG 1.1//EN"
 "http://www.w3.org/Graphics/SVG/1.1/DTD/svg11.dtd">
<!-- Generated by graphviz version 2.40.1 (20161225.0304)
 -->
<!-- Title: color.h Pages: 1 -->
<svg width="174pt" height="196pt"
 viewBox="0.00 0.00 174.00 196.00" xmlns="http://www.w3.org/2000/svg" xmlns:xlink="http://www.w3.org/1999/xlink">
<g id="graph0" class="graph" transform="scale(1 1) rotate(0) translate(4 192)">
<title>color.h</title>
<!-- Node0 -->
<g id="node1" class="node">
<title>Node0</title>
<g id="a_node1"><a xlink:title="Provides a variety of colors for convenience.">
<polygon fill="#bfbfbf" stroke="#000000" points="37,-168.5 37,-187.5 85,-187.5 85,-168.5 37,-168.5"/>
<text text-anchor="middle" x="61" y="-175.5" font-family="Helvetica,sans-Serif" font-size="10.00" fill="#000000">color.h</text>
</a>
</g>
</g>
<!-- Node1 -->
<g id="node2" class="node">
<title>Node1</title>
<g id="a_node2"><a xlink:href="PNG_8h.html" target="_top" xlink:title=" ">
<polygon fill="none" stroke="#000000" points="22,-112.5 22,-131.5 100,-131.5 100,-112.5 22,-112.5"/>
<text text-anchor="middle" x="61" y="-119.5" font-family="Helvetica,sans-Serif" font-size="10.00" fill="#000000">cs225/PNG.h</text>
</a>
</g>
</g>
<!-- Node0&#45;&gt;Node1 -->
<g id="edge1" class="edge">
<title>Node0&#45;&gt;Node1</title>
<path fill="none" stroke="#191970" d="M61,-168.2455C61,-160.9382 61,-150.6944 61,-141.7046"/>
<polygon fill="#191970" stroke="#191970" points="64.5001,-141.6426 61,-131.6427 57.5001,-141.6427 64.5001,-141.6426"/>
</g>
<!-- Node2 -->
<g id="node3" class="node">
<title>Node2</title>
<g id="a_node3"><a xlink:title=" ">
<polygon fill="none" stroke="#bfbfbf" points="0,-56.5 0,-75.5 44,-75.5 44,-56.5 0,-56.5"/>
<text text-anchor="middle" x="22" y="-63.5" font-family="Helvetica,sans-Serif" font-size="10.00" fill="#000000">string</text>
</a>
</g>
</g>
<!-- Node1&#45;&gt;Node2 -->
<g id="edge2" class="edge">
<title>Node1&#45;&gt;Node2</title>
<path fill="none" stroke="#191970" d="M54.2067,-112.2455C48.7822,-104.4564 41.0339,-93.3308 34.4967,-83.9439"/>
<polygon fill="#191970" stroke="#191970" points="37.3025,-81.8485 28.7154,-75.6427 31.5583,-85.849 37.3025,-81.8485"/>
</g>
<!-- Node3 -->
<g id="node4" class="node">
<title>Node3</title>
<g id="a_node4"><a xlink:href="HSLAPixel_8h.html" target="_top" xlink:title=" ">
<polygon fill="none" stroke="#000000" points="62.5,-56.5 62.5,-75.5 137.5,-75.5 137.5,-56.5 62.5,-56.5"/>
<text text-anchor="middle" x="100" y="-63.5" font-family="Helvetica,sans-Serif" font-size="10.00" fill="#000000">HSLAPixel.h</text>
</a>
</g>
</g>
<!-- Node1&#45;&gt;Node3 -->
<g id="edge3" class="edge">
<title>Node1&#45;&gt;Node3</title>
<path fill="none" stroke="#191970" d="M67.7933,-112.2455C73.2178,-104.4564 80.9661,-93.3308 87.5033,-83.9439"/>
<polygon fill="#191970" stroke="#191970" points="90.4417,-85.849 93.2846,-75.6427 84.6975,-81.8485 90.4417,-85.849"/>
</g>
<!-- Node4 -->
<g id="node5" class="node">
<title>Node4</title>
<g id="a_node5"><a xlink:title=" ">
<polygon fill="none" stroke="#bfbfbf" points="32,-.5 32,-19.5 92,-19.5 92,-.5 32,-.5"/>
<text text-anchor="middle" x="62" y="-7.5" font-family="Helvetica,sans-Serif" font-size="10.00" fill="#000000">iostream</text>
</a>
</g>
</g>
<!-- Node3&#45;&gt;Node4 -->
<g id="edge4" class="edge">
<title>Node3&#45;&gt;Node4</title>
<path fill="none" stroke="#191970" d="M93.3809,-56.2455C88.0954,-48.4564 80.5459,-37.3308 74.1762,-27.9439"/>
<polygon fill="#191970" stroke="#191970" points="77.0545,-25.9522 68.5432,-19.6427 71.2621,-29.8827 77.0545,-25.9522"/>
</g>
<!-- Node5 -->
<g id="node6" class="node">
<title>Node5</title>
<g id="a_node6"><a xlink:title=" ">
<polygon fill="none" stroke="#bfbfbf" points="110,-.5 110,-19.5 166,-19.5 166,-.5 110,-.5"/>
<text text-anchor="middle" x="138" y="-7.5" font-family="Helvetica,sans-Serif" font-size="10.00" fill="#000000">sstream</text>
</a>
</g>
</g>
<!-- Node3&#45;&gt;Node5 -->
<g id="edge5" class="edge">
<title>Node3&#45;&gt;Node5</title>
<path fill="none" stroke="#191970" d="M106.6191,-56.2455C111.9046,-48.4564 119.4541,-37.3308 125.8238,-27.9439"/>
<polygon fill="#191970" stroke="#191970" points="128.7379,-29.8827 131.4568,-19.6427 122.9455,-25.9522 128.7379,-29.8827"/>
</g>
</g>
</svg>
