<?xml version="1.0" encoding="UTF-8" standalone="no"?>
<!DOCTYPE svg PUBLIC "-//W3C//DTD SVG 1.1//EN"
 "http://www.w3.org/Graphics/SVG/1.1/DTD/svg11.dtd">
<!-- Generated by graphviz version 2.40.1 (20161225.0304)
 -->
<!-- Title: drawable.h Pages: 1 -->
<!--zoomable 252 -->
<svg id="main" version="1.1" xmlns="http://www.w3.org/2000/svg" xmlns:xlink="http://www.w3.org/1999/xlink" xml:space="preserve" onload="init(evt)">
<style type="text/css"><![CDATA[
.edge:hover path { stroke: red; }
.edge:hover polygon { stroke: red; fill: red; }
]]></style>
<script type="text/javascript"><![CDATA[
var edges = document.getElementsByTagName('g');
if (edges && edges.length) {
  for (var i=0;i<edges.length;i++) {
    if (edges[i].id.substr(0,4)=='edge') {
      edges[i].setAttribute('class','edge');
    }
  }
}
]]></script>
        <defs>
                <circle id="rim" cx="0" cy="0" r="7"/>
                <circle id="rim2" cx="0" cy="0" r="3.5"/>
                <g id="zoomPlus">
                        <use xlink:href="#rim" fill="#404040">
                                <set attributeName="fill" to="#808080" begin="zoomplus.mouseover" end="zoomplus.mouseout"/>
                        </use>
                        <path d="M-4,0h8M0,-4v8" fill="none" stroke="white" stroke-width="1.5" pointer-events="none"/>
                </g>
                <g id="zoomMin">
                        <use xlink:href="#rim" fill="#404040">
                                <set attributeName="fill" to="#808080" begin="zoomminus.mouseover" end="zoomminus.mouseout"/>
                        </use>
                        <path d="M-4,0h8" fill="none" stroke="white" stroke-width="1.5" pointer-events="none"/>
                </g>
                <g id="dirArrow">
                        <path fill="none" stroke="white" stroke-width="1.5" d="M0,-3.0v7 M-2.5,-0.5L0,-3.0L2.5,-0.5"/>
                </g>
               <g id="resetDef">
                       <use xlink:href="#rim2" fill="#404040">
                               <set attributeName="fill" to="#808080" begin="reset.mouseover" end="reset.mouseout"/>
                       </use>
               </g>
        </defs>

<script type="text/javascript">
var viewWidth = 978;
var viewHeight = 252;
var sectionId = 'dynsection-1';
</script>
<script xlink:href="svgpan.js"/>
<svg id="graph" class="graph">
<g id="viewport">
<title>drawable.h</title>
<!-- Node6 -->
<g id="node1" class="node">
<title>Node6</title>
<g id="a_node1"><a xlink:title="Declaration of the Drawable class.">
<polygon fill="#bfbfbf" stroke="#000000" points="518.5,-224.5 518.5,-243.5 589.5,-243.5 589.5,-224.5 518.5,-224.5"/>
<text text-anchor="middle" x="554" y="-231.5" font-family="Helvetica,sans-Serif" font-size="10.00" fill="#000000">drawable.h</text>
</a>
</g>
</g>
<!-- Node7 -->
<g id="node2" class="node">
<title>Node7</title>
<g id="a_node2"><a xlink:href="shape_8h.html" target="_top" xlink:title="Declaration of the Shape class.">
<polygon fill="none" stroke="#000000" points="526.5,-168.5 526.5,-187.5 581.5,-187.5 581.5,-168.5 526.5,-168.5"/>
<text text-anchor="middle" x="554" y="-175.5" font-family="Helvetica,sans-Serif" font-size="10.00" fill="#000000">shape.h</text>
</a>
</g>
</g>
<!-- Node6&#45;&gt;Node7 -->
<g id="edge1" class="edge">
<title>Node6&#45;&gt;Node7</title>
<path fill="none" stroke="#191970" d="M554,-214.1575C554,-205.155 554,-194.9199 554,-187.6427"/>
<polygon fill="#191970" stroke="#191970" points="550.5001,-214.2455 554,-224.2455 557.5001,-214.2456 550.5001,-214.2455"/>
</g>
<!-- Node12 -->
<g id="node7" class="node">
<title>Node12</title>
<g id="a_node7"><a xlink:href="truck_8h.html" target="_top" xlink:title="Declaration of the Truck class.">
<polygon fill="none" stroke="#000000" points="214,-56.5 214,-75.5 264,-75.5 264,-56.5 214,-56.5"/>
<text text-anchor="middle" x="239" y="-63.5" font-family="Helvetica,sans-Serif" font-size="10.00" fill="#000000">truck.h</text>
</a>
</g>
</g>
<!-- Node6&#45;&gt;Node12 -->
<g id="edge30" class="edge">
<title>Node6&#45;&gt;Node12</title>
<path fill="none" stroke="#191970" d="M507.9933,-231.0185C443.0658,-224.3155 325.014,-202.5609 258,-132 243.2198,-116.4375 239.831,-90.1304 239.1215,-75.8821"/>
<polygon fill="#191970" stroke="#191970" points="508.0378,-234.5385 518.325,-232.0038 508.7025,-227.5702 508.0378,-234.5385"/>
</g>
<!-- Node25 -->
<g id="node20" class="node">
<title>Node25</title>
<g id="a_node20"><a xlink:href="line_8h.html" target="_top" xlink:title="Declaration of the Line class.">
<polygon fill="none" stroke="#000000" points="784,-168.5 784,-187.5 828,-187.5 828,-168.5 784,-168.5"/>
<text text-anchor="middle" x="806" y="-175.5" font-family="Helvetica,sans-Serif" font-size="10.00" fill="#000000">line.h</text>
</a>
</g>
</g>
<!-- Node6&#45;&gt;Node25 -->
<g id="edge26" class="edge">
<title>Node6&#45;&gt;Node25</title>
<path fill="none" stroke="#191970" d="M599.6274,-223.8606C653.9587,-211.787 742.513,-192.1082 783.6669,-182.9629"/>
<polygon fill="#191970" stroke="#191970" points="598.5736,-220.5093 589.571,-226.0953 600.0921,-227.3426 598.5736,-220.5093"/>
</g>
<!-- Node8 -->
<g id="node3" class="node">
<title>Node8</title>
<g id="a_node3"><a xlink:href="circle_8h.html" target="_top" xlink:title="Declaration of the Circle class.">
<polygon fill="none" stroke="#000000" points="267,-112.5 267,-131.5 319,-131.5 319,-112.5 267,-112.5"/>
<text text-anchor="middle" x="293" y="-119.5" font-family="Helvetica,sans-Serif" font-size="10.00" fill="#000000">circle.h</text>
</a>
</g>
</g>
<!-- Node7&#45;&gt;Node8 -->
<g id="edge2" class="edge">
<title>Node7&#45;&gt;Node8</title>
<path fill="none" stroke="#191970" d="M516.2581,-169.9021C462.5973,-158.3887 365.6209,-137.5815 319.1755,-127.6162"/>
<polygon fill="#191970" stroke="#191970" points="515.5567,-173.3312 526.0684,-172.007 517.0252,-166.487 515.5567,-173.3312"/>
</g>
<!-- Node11 -->
<g id="node6" class="node">
<title>Node11</title>
<g id="a_node6"><a xlink:href="test__constructor_8cpp.html" target="_top" xlink:title="A simple application that demonstrates a problem with the Circle constructor.">
<polygon fill="none" stroke="#000000" points="0,-56.5 0,-75.5 114,-75.5 114,-56.5 0,-56.5"/>
<text text-anchor="middle" x="57" y="-63.5" font-family="Helvetica,sans-Serif" font-size="10.00" fill="#000000">test_constructor.cpp</text>
</a>
</g>
</g>
<!-- Node7&#45;&gt;Node11 -->
<g id="edge24" class="edge">
<title>Node7&#45;&gt;Node11</title>
<path fill="none" stroke="#191970" d="M516.0903,-174.1132C459.4089,-167.8522 349.4488,-153.9646 258,-132 193.1805,-116.4314 119.2386,-89.7631 81.6917,-75.5598"/>
<polygon fill="#191970" stroke="#191970" points="516.047,-177.629 526.3664,-175.2289 516.8026,-170.6699 516.047,-177.629"/>
</g>
<!-- Node15 -->
<g id="node10" class="node">
<title>Node15</title>
<g id="a_node10"><a xlink:href="flower_8h.html" target="_top" xlink:title="Declaration of the Flower class.">
<polygon fill="none" stroke="#000000" points="397.5,-112.5 397.5,-131.5 452.5,-131.5 452.5,-112.5 397.5,-112.5"/>
<text text-anchor="middle" x="425" y="-119.5" font-family="Helvetica,sans-Serif" font-size="10.00" fill="#000000">flower.h</text>
</a>
</g>
</g>
<!-- Node7&#45;&gt;Node15 -->
<g id="edge9" class="edge">
<title>Node7&#45;&gt;Node15</title>
<path fill="none" stroke="#191970" d="M522.6329,-164.3833C499.1716,-154.1985 467.6815,-140.5284 446.8865,-131.5011"/>
<polygon fill="#191970" stroke="#191970" points="521.2574,-167.6017 531.8241,-168.3733 524.0449,-161.1806 521.2574,-167.6017"/>
</g>
<!-- Node17 -->
<g id="node12" class="node">
<title>Node17</title>
<g id="a_node12"><a xlink:href="rectangle_8h.html" target="_top" xlink:title="Declaration of the Rectangle class.">
<polygon fill="none" stroke="#000000" points="486.5,-112.5 486.5,-131.5 557.5,-131.5 557.5,-112.5 486.5,-112.5"/>
<text text-anchor="middle" x="522" y="-119.5" font-family="Helvetica,sans-Serif" font-size="10.00" fill="#000000">rectangle.h</text>
</a>
</g>
</g>
<!-- Node7&#45;&gt;Node17 -->
<g id="edge12" class="edge">
<title>Node7&#45;&gt;Node17</title>
<path fill="none" stroke="#191970" d="M543.3355,-159.3372C538.0346,-150.0605 531.8513,-139.2398 527.5101,-131.6427"/>
<polygon fill="#191970" stroke="#191970" points="540.4257,-161.2996 548.426,-168.2455 546.5034,-157.8266 540.4257,-161.2996"/>
</g>
<!-- Node18 -->
<g id="node13" class="node">
<title>Node18</title>
<g id="a_node13"><a xlink:href="main_8cpp.html" target="_top" xlink:title="Provides a simple application that draws some stuff.">
<polygon fill="none" stroke="#000000" points="688,-56.5 688,-75.5 750,-75.5 750,-56.5 688,-56.5"/>
<text text-anchor="middle" x="719" y="-63.5" font-family="Helvetica,sans-Serif" font-size="10.00" fill="#000000">main.cpp</text>
</a>
</g>
</g>
<!-- Node7&#45;&gt;Node18 -->
<g id="edge22" class="edge">
<title>Node7&#45;&gt;Node18</title>
<path fill="none" stroke="#191970" d="M565.99,-159.5973C576.2305,-145.071 592.1138,-125.1307 610,-112 633.6767,-94.6184 664.913,-82.3021 687.8757,-74.8157"/>
<polygon fill="#191970" stroke="#191970" points="562.8441,-157.9991 560.1111,-168.2354 568.631,-161.9376 562.8441,-157.9991"/>
</g>
<!-- Node21 -->
<g id="node16" class="node">
<title>Node21</title>
<g id="a_node16"><a xlink:href="triangle_8h.html" target="_top" xlink:title="Declaration of the Triangle class.">
<polygon fill="none" stroke="#000000" points="652.5,-112.5 652.5,-131.5 715.5,-131.5 715.5,-112.5 652.5,-112.5"/>
<text text-anchor="middle" x="684" y="-119.5" font-family="Helvetica,sans-Serif" font-size="10.00" fill="#000000">triangle.h</text>
</a>
</g>
</g>
<!-- Node7&#45;&gt;Node21 -->
<g id="edge18" class="edge">
<title>Node7&#45;&gt;Node21</title>
<path fill="none" stroke="#191970" d="M585.6102,-164.3833C609.2535,-154.1985 640.9876,-140.5284 661.9438,-131.5011"/>
<polygon fill="#191970" stroke="#191970" points="584.1472,-161.2025 576.3478,-168.3733 586.9166,-167.6314 584.1472,-161.2025"/>
</g>
<!-- Node22 -->
<g id="node17" class="node">
<title>Node22</title>
<g id="a_node17"><a xlink:href="test__destructor_8cpp.html" target="_top" xlink:title="A simple application that demonstrates a problem with the Triangle destructor.">
<polygon fill="none" stroke="#000000" points="768.5,-56.5 768.5,-75.5 877.5,-75.5 877.5,-56.5 768.5,-56.5"/>
<text text-anchor="middle" x="823" y="-63.5" font-family="Helvetica,sans-Serif" font-size="10.00" fill="#000000">test_destructor.cpp</text>
</a>
</g>
</g>
<!-- Node7&#45;&gt;Node22 -->
<g id="edge25" class="edge">
<title>Node7&#45;&gt;Node22</title>
<path fill="none" stroke="#191970" d="M573.8258,-162.0795C595.5927,-144.8537 629.3898,-118.9165 644,-112 683.5858,-93.2599 731.8478,-81.4263 768.2791,-74.462"/>
<polygon fill="#191970" stroke="#191970" points="571.5115,-159.4482 565.8665,-168.4139 575.8705,-164.9253 571.5115,-159.4482"/>
</g>
<!-- Node24 -->
<g id="node19" class="node">
<title>Node24</title>
<g id="a_node19"><a xlink:href="shape_8cpp.html" target="_top" xlink:title="Implementation of the Shape class.">
<polygon fill="none" stroke="#000000" points="734,-112.5 734,-131.5 800,-131.5 800,-112.5 734,-112.5"/>
<text text-anchor="middle" x="767" y="-119.5" font-family="Helvetica,sans-Serif" font-size="10.00" fill="#000000">shape.cpp</text>
</a>
</g>
</g>
<!-- Node7&#45;&gt;Node24 -->
<g id="edge23" class="edge">
<title>Node7&#45;&gt;Node24</title>
<path fill="none" stroke="#191970" d="M591.5739,-168.1214C631.9117,-157.5162 695.3766,-140.8306 733.8977,-130.7029"/>
<polygon fill="#191970" stroke="#191970" points="590.6274,-164.7512 581.846,-170.679 592.4073,-171.5212 590.6274,-164.7512"/>
</g>
<!-- Node9 -->
<g id="node4" class="node">
<title>Node9</title>
<g id="a_node4"><a xlink:href="circle_8cpp.html" target="_top" xlink:title="Implementation of the Circle class.">
<polygon fill="none" stroke="#000000" points="132.5,-56.5 132.5,-75.5 195.5,-75.5 195.5,-56.5 132.5,-56.5"/>
<text text-anchor="middle" x="164" y="-63.5" font-family="Helvetica,sans-Serif" font-size="10.00" fill="#000000">circle.cpp</text>
</a>
</g>
</g>
<!-- Node8&#45;&gt;Node9 -->
<g id="edge3" class="edge">
<title>Node8&#45;&gt;Node9</title>
<path fill="none" stroke="#191970" d="M261.6329,-108.3833C238.1716,-98.1985 206.6815,-84.5284 185.8865,-75.5011"/>
<polygon fill="#191970" stroke="#191970" points="260.2574,-111.6017 270.8241,-112.3733 263.0449,-105.1806 260.2574,-111.6017"/>
</g>
<!-- Node10 -->
<g id="node5" class="node">
<title>Node10</title>
<g id="a_node5"><a xlink:href="flower_8cpp.html" target="_top" xlink:title="Implementation of the Flower class.">
<polygon fill="none" stroke="#000000" points="392,-56.5 392,-75.5 458,-75.5 458,-56.5 392,-56.5"/>
<text text-anchor="middle" x="425" y="-63.5" font-family="Helvetica,sans-Serif" font-size="10.00" fill="#000000">flower.cpp</text>
</a>
</g>
</g>
<!-- Node8&#45;&gt;Node10 -->
<g id="edge4" class="edge">
<title>Node8&#45;&gt;Node10</title>
<path fill="none" stroke="#191970" d="M325.0965,-108.3833C349.1035,-98.1985 381.3259,-84.5284 402.6045,-75.5011"/>
<polygon fill="#191970" stroke="#191970" points="323.5305,-105.2457 315.6916,-112.3733 326.2644,-111.6897 323.5305,-105.2457"/>
</g>
<!-- Node8&#45;&gt;Node11 -->
<g id="edge5" class="edge">
<title>Node8&#45;&gt;Node11</title>
<path fill="none" stroke="#191970" d="M257.0609,-113.4721C213.9505,-103.2425 141.8955,-86.1447 97.0404,-75.5011"/>
<polygon fill="#191970" stroke="#191970" points="256.3042,-116.8896 266.8422,-115.7931 257.9204,-110.0788 256.3042,-116.8896"/>
</g>
<!-- Node8&#45;&gt;Node12 -->
<g id="edge6" class="edge">
<title>Node8&#45;&gt;Node12</title>
<path fill="none" stroke="#191970" d="M276.4031,-104.7884C267.1653,-95.2085 256.0096,-83.6396 248.2983,-75.6427"/>
<polygon fill="#191970" stroke="#191970" points="274.1331,-107.4766 283.5939,-112.2455 279.172,-102.6176 274.1331,-107.4766"/>
</g>
<!-- Node13 -->
<g id="node8" class="node">
<title>Node13</title>
<g id="a_node8"><a xlink:href="test__pure__virtual_8cpp.html" target="_top" xlink:title="A simple application that demonstrates a problem with Truck pure virtual methods.">
<polygon fill="none" stroke="#000000" points="124.5,-.5 124.5,-19.5 243.5,-19.5 243.5,-.5 124.5,-.5"/>
<text text-anchor="middle" x="184" y="-7.5" font-family="Helvetica,sans-Serif" font-size="10.00" fill="#000000">test_pure_virtual.cpp</text>
</a>
</g>
</g>
<!-- Node12&#45;&gt;Node13 -->
<g id="edge7" class="edge">
<title>Node12&#45;&gt;Node13</title>
<path fill="none" stroke="#191970" d="M222.3774,-49.0751C212.9145,-39.4402 201.4031,-27.7196 193.4705,-19.6427"/>
<polygon fill="#191970" stroke="#191970" points="219.9155,-51.5635 229.4197,-56.2455 224.9097,-46.6585 219.9155,-51.5635"/>
</g>
<!-- Node14 -->
<g id="node9" class="node">
<title>Node14</title>
<g id="a_node9"><a xlink:href="truck_8cpp.html" target="_top" xlink:title="Implementation of the Truck class.">
<polygon fill="none" stroke="#000000" points="262,-.5 262,-19.5 324,-19.5 324,-.5 262,-.5"/>
<text text-anchor="middle" x="293" y="-7.5" font-family="Helvetica,sans-Serif" font-size="10.00" fill="#000000">truck.cpp</text>
</a>
</g>
</g>
<!-- Node12&#45;&gt;Node14 -->
<g id="edge8" class="edge">
<title>Node12&#45;&gt;Node14</title>
<path fill="none" stroke="#191970" d="M255.5969,-48.7884C264.8347,-39.2085 275.9904,-27.6396 283.7017,-19.6427"/>
<polygon fill="#191970" stroke="#191970" points="252.828,-46.6176 248.4061,-56.2455 257.8669,-51.4766 252.828,-46.6176"/>
</g>
<!-- Node15&#45;&gt;Node10 -->
<g id="edge10" class="edge">
<title>Node15&#45;&gt;Node10</title>
<path fill="none" stroke="#191970" d="M425,-102.1575C425,-93.155 425,-82.9199 425,-75.6427"/>
<polygon fill="#191970" stroke="#191970" points="421.5001,-102.2455 425,-112.2455 428.5001,-102.2456 421.5001,-102.2455"/>
</g>
<!-- Node16 -->
<g id="node11" class="node">
<title>Node16</title>
<g id="a_node11"><a xlink:href="test__slicing_8cpp.html" target="_top" xlink:title="A simple application that demonstrates slicing in the Flower class.">
<polygon fill="none" stroke="#000000" points="282,-56.5 282,-75.5 374,-75.5 374,-56.5 282,-56.5"/>
<text text-anchor="middle" x="328" y="-63.5" font-family="Helvetica,sans-Serif" font-size="10.00" fill="#000000">test_slicing.cpp</text>
</a>
</g>
</g>
<!-- Node15&#45;&gt;Node16 -->
<g id="edge11" class="edge">
<title>Node15&#45;&gt;Node16</title>
<path fill="none" stroke="#191970" d="M399.0984,-107.0465C381.8391,-97.0824 359.6624,-84.2794 344.7025,-75.6427"/>
<polygon fill="#191970" stroke="#191970" points="397.6936,-110.2768 408.1039,-112.2455 401.1935,-104.2146 397.6936,-110.2768"/>
</g>
<!-- Node17&#45;&gt;Node10 -->
<g id="edge13" class="edge">
<title>Node17&#45;&gt;Node10</title>
<path fill="none" stroke="#191970" d="M496.0984,-107.0465C478.8391,-97.0824 456.6624,-84.2794 441.7025,-75.6427"/>
<polygon fill="#191970" stroke="#191970" points="494.6936,-110.2768 505.1039,-112.2455 498.1935,-104.2146 494.6936,-110.2768"/>
</g>
<!-- Node17&#45;&gt;Node12 -->
<g id="edge16" class="edge">
<title>Node17&#45;&gt;Node12</title>
<path fill="none" stroke="#191970" d="M476.0749,-114.1024C415.1204,-103.5187 310.7931,-85.0232 273,-76 270.1274,-75.3142 267.1367,-74.5339 264.1732,-73.7189"/>
<polygon fill="#191970" stroke="#191970" points="475.7462,-117.5975 486.197,-115.8564 476.9415,-110.7003 475.7462,-117.5975"/>
</g>
<!-- Node17&#45;&gt;Node18 -->
<g id="edge14" class="edge">
<title>Node17&#45;&gt;Node18</title>
<path fill="none" stroke="#191970" d="M565.8796,-109.5266C602.9003,-99.003 654.9742,-84.2002 687.8468,-74.8557"/>
<polygon fill="#191970" stroke="#191970" points="564.5274,-106.2723 555.8655,-112.3733 566.4415,-113.0055 564.5274,-106.2723"/>
</g>
<!-- Node19 -->
<g id="node14" class="node">
<title>Node19</title>
<g id="a_node14"><a xlink:href="rectangle_8cpp.html" target="_top" xlink:title="Implementation of the Rectangle class.">
<polygon fill="none" stroke="#000000" points="586.5,-56.5 586.5,-75.5 669.5,-75.5 669.5,-56.5 586.5,-56.5"/>
<text text-anchor="middle" x="628" y="-63.5" font-family="Helvetica,sans-Serif" font-size="10.00" fill="#000000">rectangle.cpp</text>
</a>
</g>
</g>
<!-- Node17&#45;&gt;Node19 -->
<g id="edge15" class="edge">
<title>Node17&#45;&gt;Node19</title>
<path fill="none" stroke="#191970" d="M549.5222,-107.46C568.4908,-97.4388 593.1727,-84.3993 609.7478,-75.6427"/>
<polygon fill="#191970" stroke="#191970" points="547.6708,-104.4796 540.4638,-112.2455 550.9407,-110.669 547.6708,-104.4796"/>
</g>
<!-- Node20 -->
<g id="node15" class="node">
<title>Node20</title>
<g id="a_node15"><a xlink:href="test__virtual_8cpp.html" target="_top" xlink:title="A simple application that demonstrates a problem with Shape virtual methods.">
<polygon fill="none" stroke="#000000" points="476,-56.5 476,-75.5 568,-75.5 568,-56.5 476,-56.5"/>
<text text-anchor="middle" x="522" y="-63.5" font-family="Helvetica,sans-Serif" font-size="10.00" fill="#000000">test_virtual.cpp</text>
</a>
</g>
</g>
<!-- Node17&#45;&gt;Node20 -->
<g id="edge17" class="edge">
<title>Node17&#45;&gt;Node20</title>
<path fill="none" stroke="#191970" d="M522,-102.1575C522,-93.155 522,-82.9199 522,-75.6427"/>
<polygon fill="#191970" stroke="#191970" points="518.5001,-102.2455 522,-112.2455 525.5001,-102.2456 518.5001,-102.2455"/>
</g>
<!-- Node21&#45;&gt;Node10 -->
<g id="edge19" class="edge">
<title>Node21&#45;&gt;Node10</title>
<path fill="none" stroke="#191970" d="M642.3422,-113.4898C598.6065,-104.4801 527.8702,-89.6959 467,-76 464.2212,-75.3748 461.3419,-74.7148 458.4532,-74.0442"/>
<polygon fill="#191970" stroke="#191970" points="641.8213,-116.9558 652.3213,-115.5418 643.2312,-110.0993 641.8213,-116.9558"/>
</g>
<!-- Node21&#45;&gt;Node22 -->
<g id="edge20" class="edge">
<title>Node21&#45;&gt;Node22</title>
<path fill="none" stroke="#191970" d="M717.4621,-108.5189C742.7769,-98.3201 776.9103,-84.5685 799.4169,-75.5011"/>
<polygon fill="#191970" stroke="#191970" points="715.8626,-105.3899 707.895,-112.3733 718.4784,-111.8827 715.8626,-105.3899"/>
</g>
<!-- Node23 -->
<g id="node18" class="node">
<title>Node23</title>
<g id="a_node18"><a xlink:href="triangle_8cpp.html" target="_top" xlink:title="Implementation of the Triangle class.">
<polygon fill="none" stroke="#000000" points="896,-56.5 896,-75.5 970,-75.5 970,-56.5 896,-56.5"/>
<text text-anchor="middle" x="933" y="-63.5" font-family="Helvetica,sans-Serif" font-size="10.00" fill="#000000">triangle.cpp</text>
</a>
</g>
</g>
<!-- Node21&#45;&gt;Node23 -->
<g id="edge21" class="edge">
<title>Node21&#45;&gt;Node23</title>
<path fill="none" stroke="#191970" d="M725.7,-111.8821C769.9223,-101.7225 848.857,-84.3958 895.767,-74.1329"/>
<polygon fill="#191970" stroke="#191970" points="724.7216,-108.516 715.768,-114.1801 726.2996,-115.3358 724.7216,-108.516"/>
</g>
<!-- Node25&#45;&gt;Node23 -->
<g id="edge29" class="edge">
<title>Node25&#45;&gt;Node23</title>
<path fill="none" stroke="#191970" d="M835.6728,-163.7502C850.7777,-155.6691 868.8804,-144.6482 883,-132 902.0591,-114.927 918.7871,-89.6878 927.2114,-75.8927"/>
<polygon fill="#191970" stroke="#191970" points="833.9864,-160.682 826.7177,-168.3902 837.2068,-166.8972 833.9864,-160.682"/>
</g>
<!-- Node25&#45;&gt;Node24 -->
<g id="edge28" class="edge">
<title>Node25&#45;&gt;Node24</title>
<path fill="none" stroke="#191970" d="M793.4092,-159.9209C786.8605,-150.5176 779.1176,-139.3997 773.7154,-131.6427"/>
<polygon fill="#191970" stroke="#191970" points="790.6196,-162.0397 799.2067,-168.2455 796.3639,-158.0392 790.6196,-162.0397"/>
</g>
<!-- Node26 -->
<g id="node21" class="node">
<title>Node26</title>
<g id="a_node21"><a xlink:href="line_8cpp.html" target="_top" xlink:title="Implementation of the Line class.">
<polygon fill="none" stroke="#000000" points="818.5,-112.5 818.5,-131.5 873.5,-131.5 873.5,-112.5 818.5,-112.5"/>
<text text-anchor="middle" x="846" y="-119.5" font-family="Helvetica,sans-Serif" font-size="10.00" fill="#000000">line.cpp</text>
</a>
</g>
</g>
<!-- Node25&#45;&gt;Node26 -->
<g id="edge27" class="edge">
<title>Node25&#45;&gt;Node26</title>
<path fill="none" stroke="#191970" d="M818.9136,-159.9209C825.6303,-150.5176 833.5717,-139.3997 839.1124,-131.6427"/>
<polygon fill="#191970" stroke="#191970" points="815.9318,-158.0738 812.9675,-168.2455 821.628,-162.1425 815.9318,-158.0738"/>
</g>
</g>
</svg>
        <g id="navigator" transform="translate(0 0)" fill="#404254">
                <rect fill="#f2f5e9" fill-opacity="0.5" stroke="#606060" stroke-width=".5" x="0" y="0" width="60" height="60"/>
                <use id="zoomplus" xlink:href="#zoomPlus" x="17" y="9" onmousedown="handleZoom(evt,'in')"/>
                <use id="zoomminus" xlink:href="#zoomMin" x="42" y="9" onmousedown="handleZoom(evt,'out')"/>
                <use id="reset" xlink:href="#resetDef" x="30" y="36" onmousedown="handleReset()"/>
                <g id="arrowUp" xlink:href="#dirArrow" transform="translate(30 24)" onmousedown="handlePan(0,-1)">
                  <use xlink:href="#rim" fill="#404040">
                        <set attributeName="fill" to="#808080" begin="arrowUp.mouseover" end="arrowUp.mouseout"/>
                  </use>
                  <path fill="none" stroke="white" stroke-width="1.5" d="M0,-3.0v7 M-2.5,-0.5L0,-3.0L2.5,-0.5"/>
                </g>
                <g id="arrowRight" xlink:href="#dirArrow" transform="rotate(90) translate(36 -43)" onmousedown="handlePan(1,0)">
                  <use xlink:href="#rim" fill="#404040">
                        <set attributeName="fill" to="#808080" begin="arrowRight.mouseover" end="arrowRight.mouseout"/>
                  </use>
                  <path fill="none" stroke="white" stroke-width="1.5" d="M0,-3.0v7 M-2.5,-0.5L0,-3.0L2.5,-0.5"/>
                </g>
                <g id="arrowDown" xlink:href="#dirArrow" transform="rotate(180) translate(-30 -48)" onmousedown="handlePan(0,1)">
                  <use xlink:href="#rim" fill="#404040">
                        <set attributeName="fill" to="#808080" begin="arrowDown.mouseover" end="arrowDown.mouseout"/>
                  </use>
                  <path fill="none" stroke="white" stroke-width="1.5" d="M0,-3.0v7 M-2.5,-0.5L0,-3.0L2.5,-0.5"/>
                </g>
                <g id="arrowLeft" xlink:href="#dirArrow" transform="rotate(270) translate(-36 17)" onmousedown="handlePan(-1,0)">
                  <use xlink:href="#rim" fill="#404040">
                        <set attributeName="fill" to="#808080" begin="arrowLeft.mouseover" end="arrowLeft.mouseout"/>
                  </use>
                  <path fill="none" stroke="white" stroke-width="1.5" d="M0,-3.0v7 M-2.5,-0.5L0,-3.0L2.5,-0.5"/>
                </g>
        </g>
        <svg viewBox="0 0 15 15" width="100%" height="30px" preserveAspectRatio="xMaxYMin meet">
         <g id="arrow_out" transform="scale(0.3 0.3)">
          <a xlink:href="drawable_8h__dep__incl_org.svg" target="_base">
           <rect id="button" ry="5" rx="5" y="6" x="6" height="38" width="38"
                fill="#f2f5e9" fill-opacity="0.5" stroke="#606060" stroke-width="1.0"/>
           <path id="arrow"
             d="M 11.500037,31.436501 C 11.940474,20.09759 22.043105,11.32322 32.158766,21.979434 L 37.068811,17.246167 C 37.068811,17.246167 37.088388,32 37.088388,32 L 22.160133,31.978069 C 22.160133,31.978069 26.997745,27.140456 26.997745,27.140456 C 18.528582,18.264221 13.291696,25.230495 11.500037,31.436501 z"
             style="fill:#404040;"/>
          </a>
         </g>
        </svg>
</svg>
