<?xml version="1.0" encoding="UTF-8" standalone="no"?>
<!DOCTYPE svg PUBLIC "-//W3C//DTD SVG 1.1//EN"
 "http://www.w3.org/Graphics/SVG/1.1/DTD/svg11.dtd">
<!-- Generated by graphviz version 2.40.1 (20161225.0304)
 -->
<!-- Title: flower.cpp Pages: 1 -->
<svg width="494pt" height="364pt"
 viewBox="0.00 0.00 493.50 364.00" xmlns="http://www.w3.org/2000/svg" xmlns:xlink="http://www.w3.org/1999/xlink">
<g id="graph0" class="graph" transform="scale(1 1) rotate(0) translate(4 360)">
<title>flower.cpp</title>
<!-- Node0 -->
<g id="node1" class="node">
<title>Node0</title>
<g id="a_node1"><a xlink:title="Implementation of the Flower class.">
<polygon fill="#bfbfbf" stroke="#000000" points="195.5,-336.5 195.5,-355.5 261.5,-355.5 261.5,-336.5 195.5,-336.5"/>
<text text-anchor="middle" x="228.5" y="-343.5" font-family="Helvetica,sans-Serif" font-size="10.00" fill="#000000">flower.cpp</text>
</a>
</g>
</g>
<!-- Node1 -->
<g id="node2" class="node">
<title>Node1</title>
<g id="a_node2"><a xlink:href="flower_8h.html" target="_top" xlink:title="Declaration of the Flower class.">
<polygon fill="none" stroke="#000000" points="0,-280.5 0,-299.5 55,-299.5 55,-280.5 0,-280.5"/>
<text text-anchor="middle" x="27.5" y="-287.5" font-family="Helvetica,sans-Serif" font-size="10.00" fill="#000000">flower.h</text>
</a>
</g>
</g>
<!-- Node0&#45;&gt;Node1 -->
<g id="edge1" class="edge">
<title>Node0&#45;&gt;Node1</title>
<path fill="none" stroke="#191970" d="M195.3089,-336.7527C159.5347,-326.7858 102.7018,-310.9517 65.2497,-300.5173"/>
<polygon fill="#191970" stroke="#191970" points="65.8064,-297.0392 55.2339,-297.7268 63.9276,-303.7824 65.8064,-297.0392"/>
</g>
<!-- Node10 -->
<g id="node11" class="node">
<title>Node10</title>
<g id="a_node11"><a xlink:title=" ">
<polygon fill="none" stroke="#bfbfbf" points="73,-280.5 73,-299.5 120,-299.5 120,-280.5 73,-280.5"/>
<text text-anchor="middle" x="96.5" y="-287.5" font-family="Helvetica,sans-Serif" font-size="10.00" fill="#000000">cmath</text>
</a>
</g>
</g>
<!-- Node0&#45;&gt;Node10 -->
<g id="edge10" class="edge">
<title>Node0&#45;&gt;Node10</title>
<path fill="none" stroke="#191970" d="M205.8084,-336.3733C184.4289,-327.3032 152.1943,-313.6279 128.2638,-303.4755"/>
<polygon fill="#191970" stroke="#191970" points="129.4683,-300.1846 118.8955,-299.5011 126.7344,-306.6287 129.4683,-300.1846"/>
</g>
<!-- Node11 -->
<g id="node12" class="node">
<title>Node11</title>
<g id="a_node12"><a xlink:title=" ">
<polygon fill="none" stroke="#bfbfbf" points="138.5,-280.5 138.5,-299.5 184.5,-299.5 184.5,-280.5 138.5,-280.5"/>
<text text-anchor="middle" x="161.5" y="-287.5" font-family="Helvetica,sans-Serif" font-size="10.00" fill="#000000">cstdio</text>
</a>
</g>
</g>
<!-- Node0&#45;&gt;Node11 -->
<g id="edge11" class="edge">
<title>Node0&#45;&gt;Node11</title>
<path fill="none" stroke="#191970" d="M216.8295,-336.2455C206.9339,-327.9746 192.5373,-315.9416 180.9099,-306.2232"/>
<polygon fill="#191970" stroke="#191970" points="182.9542,-303.3703 173.0368,-299.6427 178.465,-308.7413 182.9542,-303.3703"/>
</g>
<!-- Node12 -->
<g id="node13" class="node">
<title>Node12</title>
<g id="a_node13"><a xlink:href="circle_8h.html" target="_top" xlink:title="Declaration of the Circle class.">
<polygon fill="none" stroke="#000000" points="202.5,-280.5 202.5,-299.5 254.5,-299.5 254.5,-280.5 202.5,-280.5"/>
<text text-anchor="middle" x="228.5" y="-287.5" font-family="Helvetica,sans-Serif" font-size="10.00" fill="#000000">circle.h</text>
</a>
</g>
</g>
<!-- Node0&#45;&gt;Node12 -->
<g id="edge12" class="edge">
<title>Node0&#45;&gt;Node12</title>
<path fill="none" stroke="#191970" d="M228.5,-336.2455C228.5,-328.9382 228.5,-318.6944 228.5,-309.7046"/>
<polygon fill="#191970" stroke="#191970" points="232.0001,-309.6426 228.5,-299.6427 225.0001,-309.6427 232.0001,-309.6426"/>
</g>
<!-- Node13 -->
<g id="node14" class="node">
<title>Node13</title>
<g id="a_node14"><a xlink:href="color_8h.html" target="_top" xlink:title="Provides a variety of colors for convenience.">
<polygon fill="none" stroke="#000000" points="428.5,-224.5 428.5,-243.5 476.5,-243.5 476.5,-224.5 428.5,-224.5"/>
<text text-anchor="middle" x="452.5" y="-231.5" font-family="Helvetica,sans-Serif" font-size="10.00" fill="#000000">color.h</text>
</a>
</g>
</g>
<!-- Node0&#45;&gt;Node13 -->
<g id="edge14" class="edge">
<title>Node0&#45;&gt;Node13</title>
<path fill="none" stroke="#191970" d="M261.5889,-342.7484C313.3194,-337.0046 409.9803,-323.404 434.5,-300 446.9602,-288.1068 451.0795,-268.5063 452.3094,-253.7485"/>
<polygon fill="#191970" stroke="#191970" points="455.8122,-253.7656 452.777,-243.6149 448.8197,-253.4429 455.8122,-253.7656"/>
</g>
<!-- Node14 -->
<g id="node15" class="node">
<title>Node14</title>
<g id="a_node15"><a xlink:href="rectangle_8h.html" target="_top" xlink:title="Declaration of the Rectangle class.">
<polygon fill="none" stroke="#000000" points="273,-280.5 273,-299.5 344,-299.5 344,-280.5 273,-280.5"/>
<text text-anchor="middle" x="308.5" y="-287.5" font-family="Helvetica,sans-Serif" font-size="10.00" fill="#000000">rectangle.h</text>
</a>
</g>
</g>
<!-- Node0&#45;&gt;Node14 -->
<g id="edge16" class="edge">
<title>Node0&#45;&gt;Node14</title>
<path fill="none" stroke="#191970" d="M242.4349,-336.2455C254.5947,-327.7337 272.4464,-315.2375 286.5285,-305.3801"/>
<polygon fill="#191970" stroke="#191970" points="288.5395,-308.2447 294.7248,-299.6427 284.5253,-302.51 288.5395,-308.2447"/>
</g>
<!-- Node15 -->
<g id="node16" class="node">
<title>Node15</title>
<g id="a_node16"><a xlink:href="triangle_8h.html" target="_top" xlink:title="Declaration of the Triangle class.">
<polygon fill="none" stroke="#000000" points="362,-280.5 362,-299.5 425,-299.5 425,-280.5 362,-280.5"/>
<text text-anchor="middle" x="393.5" y="-287.5" font-family="Helvetica,sans-Serif" font-size="10.00" fill="#000000">triangle.h</text>
</a>
</g>
</g>
<!-- Node0&#45;&gt;Node15 -->
<g id="edge18" class="edge">
<title>Node0&#45;&gt;Node15</title>
<path fill="none" stroke="#191970" d="M256.8645,-336.3733C284.1827,-327.1016 325.6796,-313.0178 355.7738,-302.804"/>
<polygon fill="#191970" stroke="#191970" points="357.161,-306.0294 365.5056,-299.5011 354.9113,-299.4008 357.161,-306.0294"/>
</g>
<!-- Node2 -->
<g id="node3" class="node">
<title>Node2</title>
<g id="a_node3"><a xlink:href="shape_8h.html" target="_top" xlink:title="Declaration of the Shape class.">
<polygon fill="none" stroke="#000000" points="281,-224.5 281,-243.5 336,-243.5 336,-224.5 281,-224.5"/>
<text text-anchor="middle" x="308.5" y="-231.5" font-family="Helvetica,sans-Serif" font-size="10.00" fill="#000000">shape.h</text>
</a>
</g>
</g>
<!-- Node1&#45;&gt;Node2 -->
<g id="edge2" class="edge">
<title>Node1&#45;&gt;Node2</title>
<path fill="none" stroke="#191970" d="M55.3478,-282.0116C58.0943,-281.2999 60.8463,-280.6165 63.5,-280 136.3525,-263.0749 222.4962,-248.0378 270.7852,-240.0528"/>
<polygon fill="#191970" stroke="#191970" points="271.4825,-243.4853 280.7832,-238.4111 270.3482,-236.5778 271.4825,-243.4853"/>
</g>
<!-- Node3 -->
<g id="node4" class="node">
<title>Node3</title>
<g id="a_node4"><a xlink:href="drawable_8h.html" target="_top" xlink:title="Declaration of the Drawable class.">
<polygon fill="none" stroke="#000000" points="273,-168.5 273,-187.5 344,-187.5 344,-168.5 273,-168.5"/>
<text text-anchor="middle" x="308.5" y="-175.5" font-family="Helvetica,sans-Serif" font-size="10.00" fill="#000000">drawable.h</text>
</a>
</g>
</g>
<!-- Node2&#45;&gt;Node3 -->
<g id="edge3" class="edge">
<title>Node2&#45;&gt;Node3</title>
<path fill="none" stroke="#191970" d="M308.5,-224.2455C308.5,-216.9382 308.5,-206.6944 308.5,-197.7046"/>
<polygon fill="#191970" stroke="#191970" points="312.0001,-197.6426 308.5,-187.6427 305.0001,-197.6427 312.0001,-197.6426"/>
</g>
<!-- Node9 -->
<g id="node10" class="node">
<title>Node9</title>
<g id="a_node10"><a xlink:href="vector2_8h.html" target="_top" xlink:title="Declaration of the Vector2 class.">
<polygon fill="none" stroke="#000000" points="362.5,-168.5 362.5,-187.5 424.5,-187.5 424.5,-168.5 362.5,-168.5"/>
<text text-anchor="middle" x="393.5" y="-175.5" font-family="Helvetica,sans-Serif" font-size="10.00" fill="#000000">vector2.h</text>
</a>
</g>
</g>
<!-- Node2&#45;&gt;Node9 -->
<g id="edge9" class="edge">
<title>Node2&#45;&gt;Node9</title>
<path fill="none" stroke="#191970" d="M323.3059,-224.2455C336.2256,-215.7337 355.1931,-203.2375 370.1552,-193.3801"/>
<polygon fill="#191970" stroke="#191970" points="372.4387,-196.067 378.8638,-187.6427 368.5876,-190.2216 372.4387,-196.067"/>
</g>
<!-- Node4 -->
<g id="node5" class="node">
<title>Node4</title>
<g id="a_node5"><a xlink:href="PNG_8h.html" target="_top" xlink:title=" ">
<polygon fill="none" stroke="#000000" points="341.5,-112.5 341.5,-131.5 419.5,-131.5 419.5,-112.5 341.5,-112.5"/>
<text text-anchor="middle" x="380.5" y="-119.5" font-family="Helvetica,sans-Serif" font-size="10.00" fill="#000000">cs225/PNG.h</text>
</a>
</g>
</g>
<!-- Node3&#45;&gt;Node4 -->
<g id="edge4" class="edge">
<title>Node3&#45;&gt;Node4</title>
<path fill="none" stroke="#191970" d="M321.0414,-168.2455C331.7787,-159.8943 347.4473,-147.7076 360.0047,-137.9408"/>
<polygon fill="#191970" stroke="#191970" points="362.3575,-140.5449 368.1023,-131.6427 358.0599,-135.0194 362.3575,-140.5449"/>
</g>
<!-- Node5 -->
<g id="node6" class="node">
<title>Node5</title>
<g id="a_node6"><a xlink:title=" ">
<polygon fill="none" stroke="#bfbfbf" points="319.5,-56.5 319.5,-75.5 363.5,-75.5 363.5,-56.5 319.5,-56.5"/>
<text text-anchor="middle" x="341.5" y="-63.5" font-family="Helvetica,sans-Serif" font-size="10.00" fill="#000000">string</text>
</a>
</g>
</g>
<!-- Node4&#45;&gt;Node5 -->
<g id="edge5" class="edge">
<title>Node4&#45;&gt;Node5</title>
<path fill="none" stroke="#191970" d="M373.7067,-112.2455C368.2822,-104.4564 360.5339,-93.3308 353.9967,-83.9439"/>
<polygon fill="#191970" stroke="#191970" points="356.8025,-81.8485 348.2154,-75.6427 351.0583,-85.849 356.8025,-81.8485"/>
</g>
<!-- Node6 -->
<g id="node7" class="node">
<title>Node6</title>
<g id="a_node7"><a xlink:href="HSLAPixel_8h.html" target="_top" xlink:title=" ">
<polygon fill="none" stroke="#000000" points="382,-56.5 382,-75.5 457,-75.5 457,-56.5 382,-56.5"/>
<text text-anchor="middle" x="419.5" y="-63.5" font-family="Helvetica,sans-Serif" font-size="10.00" fill="#000000">HSLAPixel.h</text>
</a>
</g>
</g>
<!-- Node4&#45;&gt;Node6 -->
<g id="edge6" class="edge">
<title>Node4&#45;&gt;Node6</title>
<path fill="none" stroke="#191970" d="M387.2933,-112.2455C392.7178,-104.4564 400.4661,-93.3308 407.0033,-83.9439"/>
<polygon fill="#191970" stroke="#191970" points="409.9417,-85.849 412.7846,-75.6427 404.1975,-81.8485 409.9417,-85.849"/>
</g>
<!-- Node7 -->
<g id="node8" class="node">
<title>Node7</title>
<g id="a_node8"><a xlink:title=" ">
<polygon fill="none" stroke="#bfbfbf" points="351.5,-.5 351.5,-19.5 411.5,-19.5 411.5,-.5 351.5,-.5"/>
<text text-anchor="middle" x="381.5" y="-7.5" font-family="Helvetica,sans-Serif" font-size="10.00" fill="#000000">iostream</text>
</a>
</g>
</g>
<!-- Node6&#45;&gt;Node7 -->
<g id="edge7" class="edge">
<title>Node6&#45;&gt;Node7</title>
<path fill="none" stroke="#191970" d="M412.8809,-56.2455C407.5954,-48.4564 400.0459,-37.3308 393.6762,-27.9439"/>
<polygon fill="#191970" stroke="#191970" points="396.5545,-25.9522 388.0432,-19.6427 390.7621,-29.8827 396.5545,-25.9522"/>
</g>
<!-- Node8 -->
<g id="node9" class="node">
<title>Node8</title>
<g id="a_node9"><a xlink:title=" ">
<polygon fill="none" stroke="#bfbfbf" points="429.5,-.5 429.5,-19.5 485.5,-19.5 485.5,-.5 429.5,-.5"/>
<text text-anchor="middle" x="457.5" y="-7.5" font-family="Helvetica,sans-Serif" font-size="10.00" fill="#000000">sstream</text>
</a>
</g>
</g>
<!-- Node6&#45;&gt;Node8 -->
<g id="edge8" class="edge">
<title>Node6&#45;&gt;Node8</title>
<path fill="none" stroke="#191970" d="M426.1191,-56.2455C431.4046,-48.4564 438.9541,-37.3308 445.3238,-27.9439"/>
<polygon fill="#191970" stroke="#191970" points="448.2379,-29.8827 450.9568,-19.6427 442.4455,-25.9522 448.2379,-29.8827"/>
</g>
<!-- Node12&#45;&gt;Node2 -->
<g id="edge13" class="edge">
<title>Node12&#45;&gt;Node2</title>
<path fill="none" stroke="#191970" d="M242.4349,-280.2455C254.5947,-271.7337 272.4464,-259.2375 286.5285,-249.3801"/>
<polygon fill="#191970" stroke="#191970" points="288.5395,-252.2447 294.7248,-243.6427 284.5253,-246.51 288.5395,-252.2447"/>
</g>
<!-- Node13&#45;&gt;Node4 -->
<g id="edge15" class="edge">
<title>Node13&#45;&gt;Node4</title>
<path fill="none" stroke="#191970" d="M451.4638,-224.3349C449.6448,-210.81 444.92,-185.8899 433.5,-168 425.92,-156.1257 414.3753,-145.5938 403.9936,-137.6141"/>
<polygon fill="#191970" stroke="#191970" points="405.8016,-134.6008 395.6591,-131.5379 401.6779,-140.2572 405.8016,-134.6008"/>
</g>
<!-- Node14&#45;&gt;Node2 -->
<g id="edge17" class="edge">
<title>Node14&#45;&gt;Node2</title>
<path fill="none" stroke="#191970" d="M308.5,-280.2455C308.5,-272.9382 308.5,-262.6944 308.5,-253.7046"/>
<polygon fill="#191970" stroke="#191970" points="312.0001,-253.6426 308.5,-243.6427 305.0001,-253.6427 312.0001,-253.6426"/>
</g>
<!-- Node15&#45;&gt;Node2 -->
<g id="edge19" class="edge">
<title>Node15&#45;&gt;Node2</title>
<path fill="none" stroke="#191970" d="M378.6941,-280.2455C365.7744,-271.7337 346.8069,-259.2375 331.8448,-249.3801"/>
<polygon fill="#191970" stroke="#191970" points="333.4124,-246.2216 323.1362,-243.6427 329.5613,-252.067 333.4124,-246.2216"/>
</g>
</g>
</svg>
