<?xml version="1.0" encoding="UTF-8" standalone="no"?>
<!DOCTYPE svg PUBLIC "-//W3C//DTD SVG 1.1//EN"
 "http://www.w3.org/Graphics/SVG/1.1/DTD/svg11.dtd">
<!-- Generated by graphviz version 2.40.1 (20161225.0304)
 -->
<!-- Title: flower.h Pages: 1 -->
<svg width="184pt" height="84pt"
 viewBox="0.00 0.00 184.00 84.00" xmlns="http://www.w3.org/2000/svg" xmlns:xlink="http://www.w3.org/1999/xlink">
<g id="graph0" class="graph" transform="scale(1 1) rotate(0) translate(4 80)">
<title>flower.h</title>
<!-- Node9 -->
<g id="node1" class="node">
<title>Node9</title>
<g id="a_node1"><a xlink:title="Declaration of the Flower class.">
<polygon fill="#bfbfbf" stroke="#000000" points="53.5,-56.5 53.5,-75.5 108.5,-75.5 108.5,-56.5 53.5,-56.5"/>
<text text-anchor="middle" x="81" y="-63.5" font-family="Helvetica,sans-Serif" font-size="10.00" fill="#000000">flower.h</text>
</a>
</g>
</g>
<!-- Node10 -->
<g id="node2" class="node">
<title>Node10</title>
<g id="a_node2"><a xlink:href="flower_8cpp.html" target="_top" xlink:title="Implementation of the Flower class.">
<polygon fill="none" stroke="#000000" points="0,-.5 0,-19.5 66,-19.5 66,-.5 0,-.5"/>
<text text-anchor="middle" x="33" y="-7.5" font-family="Helvetica,sans-Serif" font-size="10.00" fill="#000000">flower.cpp</text>
</a>
</g>
</g>
<!-- Node9&#45;&gt;Node10 -->
<g id="edge1" class="edge">
<title>Node9&#45;&gt;Node10</title>
<path fill="none" stroke="#191970" d="M66.0003,-48.5004C57.8378,-38.9775 48.0511,-27.5596 41.2651,-19.6427"/>
<polygon fill="#191970" stroke="#191970" points="63.4737,-50.9307 72.639,-56.2455 68.7885,-46.3752 63.4737,-50.9307"/>
</g>
<!-- Node11 -->
<g id="node3" class="node">
<title>Node11</title>
<g id="a_node3"><a xlink:href="test__slicing_8cpp.html" target="_top" xlink:title="A simple application that demonstrates slicing in the Flower class.">
<polygon fill="none" stroke="#000000" points="84,-.5 84,-19.5 176,-19.5 176,-.5 84,-.5"/>
<text text-anchor="middle" x="130" y="-7.5" font-family="Helvetica,sans-Serif" font-size="10.00" fill="#000000">test_slicing.cpp</text>
</a>
</g>
</g>
<!-- Node9&#45;&gt;Node11 -->
<g id="edge2" class="edge">
<title>Node9&#45;&gt;Node11</title>
<path fill="none" stroke="#191970" d="M96.3122,-48.5004C104.6447,-38.9775 114.6353,-27.5596 121.5627,-19.6427"/>
<polygon fill="#191970" stroke="#191970" points="93.4862,-46.415 89.5351,-56.2455 98.7543,-51.0245 93.4862,-46.415"/>
</g>
</g>
</svg>
