<?xml version="1.0" encoding="UTF-8" standalone="no"?>
<!DOCTYPE svg PUBLIC "-//W3C//DTD SVG 1.1//EN"
 "http://www.w3.org/Graphics/SVG/1.1/DTD/svg11.dtd">
<!-- Generated by graphviz version 2.40.1 (20161225.0304)
 -->
<!-- Title: cs225/HSLAPixel.cpp Pages: 1 -->
<svg width="207pt" height="140pt"
 viewBox="0.00 0.00 206.50 140.00" xmlns="http://www.w3.org/2000/svg" xmlns:xlink="http://www.w3.org/1999/xlink">
<g id="graph0" class="graph" transform="scale(1 1) rotate(0) translate(4 136)">
<title>cs225/HSLAPixel.cpp</title>
<!-- Node0 -->
<g id="node1" class="node">
<title>Node0</title>
<g id="a_node1"><a xlink:title="Implementation of the HSLAPixel class for use in with the PNG library.">
<polygon fill="#bfbfbf" stroke="#000000" points="37,-112.5 37,-131.5 155,-131.5 155,-112.5 37,-112.5"/>
<text text-anchor="middle" x="96" y="-119.5" font-family="Helvetica,sans-Serif" font-size="10.00" fill="#000000">cs225/HSLAPixel.cpp</text>
</a>
</g>
</g>
<!-- Node1 -->
<g id="node2" class="node">
<title>Node1</title>
<g id="a_node2"><a xlink:href="HSLAPixel_8h.html" target="_top" xlink:title=" ">
<polygon fill="none" stroke="#000000" points="58.5,-56.5 58.5,-75.5 133.5,-75.5 133.5,-56.5 58.5,-56.5"/>
<text text-anchor="middle" x="96" y="-63.5" font-family="Helvetica,sans-Serif" font-size="10.00" fill="#000000">HSLAPixel.h</text>
</a>
</g>
</g>
<!-- Node0&#45;&gt;Node1 -->
<g id="edge1" class="edge">
<title>Node0&#45;&gt;Node1</title>
<path fill="none" stroke="#191970" d="M96,-112.2455C96,-104.9382 96,-94.6944 96,-85.7046"/>
<polygon fill="#191970" stroke="#191970" points="99.5001,-85.6426 96,-75.6427 92.5001,-85.6427 99.5001,-85.6426"/>
</g>
<!-- Node2 -->
<g id="node3" class="node">
<title>Node2</title>
<g id="a_node3"><a xlink:title=" ">
<polygon fill="none" stroke="#bfbfbf" points="0,-.5 0,-19.5 60,-19.5 60,-.5 0,-.5"/>
<text text-anchor="middle" x="30" y="-7.5" font-family="Helvetica,sans-Serif" font-size="10.00" fill="#000000">iostream</text>
</a>
</g>
</g>
<!-- Node0&#45;&gt;Node2 -->
<g id="edge5" class="edge">
<title>Node0&#45;&gt;Node2</title>
<path fill="none" stroke="#191970" d="M83.3499,-112.3458C73.0036,-103.8273 58.7074,-90.5321 50,-76 41.3568,-61.5749 36.1775,-43.1116 33.2628,-29.3833"/>
<polygon fill="#191970" stroke="#191970" points="36.7001,-28.723 31.388,-19.5561 29.8241,-30.0349 36.7001,-28.723"/>
</g>
<!-- Node4 -->
<g id="node5" class="node">
<title>Node4</title>
<g id="a_node5"><a xlink:title=" ">
<polygon fill="none" stroke="#bfbfbf" points="151.5,-56.5 151.5,-75.5 198.5,-75.5 198.5,-56.5 151.5,-56.5"/>
<text text-anchor="middle" x="175" y="-63.5" font-family="Helvetica,sans-Serif" font-size="10.00" fill="#000000">cmath</text>
</a>
</g>
</g>
<!-- Node0&#45;&gt;Node4 -->
<g id="edge4" class="edge">
<title>Node0&#45;&gt;Node4</title>
<path fill="none" stroke="#191970" d="M109.7607,-112.2455C121.6552,-103.814 139.065,-91.4729 152.9085,-81.6598"/>
<polygon fill="#191970" stroke="#191970" points="155.2628,-84.2811 161.3969,-75.6427 151.2146,-78.5704 155.2628,-84.2811"/>
</g>
<!-- Node1&#45;&gt;Node2 -->
<g id="edge2" class="edge">
<title>Node1&#45;&gt;Node2</title>
<path fill="none" stroke="#191970" d="M84.5037,-56.2455C74.7558,-47.9746 60.5741,-35.9416 49.1202,-26.2232"/>
<polygon fill="#191970" stroke="#191970" points="51.2541,-23.4437 41.3646,-19.6427 46.7253,-28.7813 51.2541,-23.4437"/>
</g>
<!-- Node3 -->
<g id="node4" class="node">
<title>Node3</title>
<g id="a_node4"><a xlink:title=" ">
<polygon fill="none" stroke="#bfbfbf" points="78,-.5 78,-19.5 134,-19.5 134,-.5 78,-.5"/>
<text text-anchor="middle" x="106" y="-7.5" font-family="Helvetica,sans-Serif" font-size="10.00" fill="#000000">sstream</text>
</a>
</g>
</g>
<!-- Node1&#45;&gt;Node3 -->
<g id="edge3" class="edge">
<title>Node1&#45;&gt;Node3</title>
<path fill="none" stroke="#191970" d="M97.7419,-56.2455C99.0467,-48.9382 100.876,-38.6944 102.4813,-29.7046"/>
<polygon fill="#191970" stroke="#191970" points="105.9656,-30.1022 104.2781,-19.6427 99.0746,-28.8717 105.9656,-30.1022"/>
</g>
</g>
</svg>
