<?xml version="1.0" encoding="UTF-8" standalone="no"?>
<!DOCTYPE svg PUBLIC "-//W3C//DTD SVG 1.1//EN"
 "http://www.w3.org/Graphics/SVG/1.1/DTD/svg11.dtd">
<!-- Generated by graphviz version 2.40.1 (20161225.0304)
 -->
<!-- Title: cs225/HSLAPixel.h Pages: 1 -->
<!--zoomable 364 -->
<svg id="main" version="1.1" xmlns="http://www.w3.org/2000/svg" xmlns:xlink="http://www.w3.org/1999/xlink" xml:space="preserve" onload="init(evt)">
<style type="text/css"><![CDATA[
.edge:hover path { stroke: red; }
.edge:hover polygon { stroke: red; fill: red; }
]]></style>
<script type="text/javascript"><![CDATA[
var edges = document.getElementsByTagName('g');
if (edges && edges.length) {
  for (var i=0;i<edges.length;i++) {
    if (edges[i].id.substr(0,4)=='edge') {
      edges[i].setAttribute('class','edge');
    }
  }
}
]]></script>
        <defs>
                <circle id="rim" cx="0" cy="0" r="7"/>
                <circle id="rim2" cx="0" cy="0" r="3.5"/>
                <g id="zoomPlus">
                        <use xlink:href="#rim" fill="#404040">
                                <set attributeName="fill" to="#808080" begin="zoomplus.mouseover" end="zoomplus.mouseout"/>
                        </use>
                        <path d="M-4,0h8M0,-4v8" fill="none" stroke="white" stroke-width="1.5" pointer-events="none"/>
                </g>
                <g id="zoomMin">
                        <use xlink:href="#rim" fill="#404040">
                                <set attributeName="fill" to="#808080" begin="zoomminus.mouseover" end="zoomminus.mouseout"/>
                        </use>
                        <path d="M-4,0h8" fill="none" stroke="white" stroke-width="1.5" pointer-events="none"/>
                </g>
                <g id="dirArrow">
                        <path fill="none" stroke="white" stroke-width="1.5" d="M0,-3.0v7 M-2.5,-0.5L0,-3.0L2.5,-0.5"/>
                </g>
               <g id="resetDef">
                       <use xlink:href="#rim2" fill="#404040">
                               <set attributeName="fill" to="#808080" begin="reset.mouseover" end="reset.mouseout"/>
                       </use>
               </g>
        </defs>

<script type="text/javascript">
var viewWidth = 1174;
var viewHeight = 364;
var sectionId = 'dynsection-1';
</script>
<script xlink:href="svgpan.js"/>
<svg id="graph" class="graph">
<g id="viewport">
<title>cs225/HSLAPixel.h</title>
<!-- Node3 -->
<g id="node1" class="node">
<title>Node3</title>
<g id="a_node1"><a xlink:title=" ">
<polygon fill="#bfbfbf" stroke="#000000" points="932,-336.5 932,-355.5 1039,-355.5 1039,-336.5 932,-336.5"/>
<text text-anchor="middle" x="985.5" y="-343.5" font-family="Helvetica,sans-Serif" font-size="10.00" fill="#000000">cs225/HSLAPixel.h</text>
</a>
</g>
</g>
<!-- Node4 -->
<g id="node2" class="node">
<title>Node4</title>
<g id="a_node2"><a xlink:href="PNG_8h.html" target="_top" xlink:title=" ">
<polygon fill="none" stroke="#000000" points="888.5,-280.5 888.5,-299.5 966.5,-299.5 966.5,-280.5 888.5,-280.5"/>
<text text-anchor="middle" x="927.5" y="-287.5" font-family="Helvetica,sans-Serif" font-size="10.00" fill="#000000">cs225/PNG.h</text>
</a>
</g>
</g>
<!-- Node3&#45;&gt;Node4 -->
<g id="edge1" class="edge">
<title>Node3&#45;&gt;Node4</title>
<path fill="none" stroke="#191970" d="M967.9707,-329.0751C957.9917,-319.4402 945.8524,-307.7196 937.4871,-299.6427"/>
<polygon fill="#191970" stroke="#191970" points="965.772,-331.8175 975.3972,-336.2455 970.6342,-326.7817 965.772,-331.8175"/>
</g>
<!-- Node28 -->
<g id="node26" class="node">
<title>Node28</title>
<g id="a_node26"><a xlink:href="HSLAPixel_8cpp.html" target="_top" xlink:title="Implementation of the HSLAPixel class for use in with the PNG library.">
<polygon fill="none" stroke="#000000" points="984.5,-280.5 984.5,-299.5 1102.5,-299.5 1102.5,-280.5 984.5,-280.5"/>
<text text-anchor="middle" x="1043.5" y="-287.5" font-family="Helvetica,sans-Serif" font-size="10.00" fill="#000000">cs225/HSLAPixel.cpp</text>
</a>
</g>
</g>
<!-- Node3&#45;&gt;Node28 -->
<g id="edge46" class="edge">
<title>Node3&#45;&gt;Node28</title>
<path fill="none" stroke="#191970" d="M1003.0293,-329.0751C1013.0083,-319.4402 1025.1476,-307.7196 1033.5129,-299.6427"/>
<polygon fill="#191970" stroke="#191970" points="1000.3658,-326.7817 995.6028,-336.2455 1005.228,-331.8175 1000.3658,-326.7817"/>
</g>
<!-- Node5 -->
<g id="node3" class="node">
<title>Node5</title>
<g id="a_node3"><a xlink:href="drawable_8h.html" target="_top" xlink:title="Declaration of the Drawable class.">
<polygon fill="none" stroke="#000000" points="327,-224.5 327,-243.5 398,-243.5 398,-224.5 327,-224.5"/>
<text text-anchor="middle" x="362.5" y="-231.5" font-family="Helvetica,sans-Serif" font-size="10.00" fill="#000000">drawable.h</text>
</a>
</g>
</g>
<!-- Node4&#45;&gt;Node5 -->
<g id="edge2" class="edge">
<title>Node4&#45;&gt;Node5</title>
<path fill="none" stroke="#191970" d="M878.3968,-286.9818C787.4136,-281.0744 586.5824,-266.5593 418.5,-244 411.9419,-243.1198 404.9807,-242.0154 398.2767,-240.8643"/>
<polygon fill="#191970" stroke="#191970" points="878.2145,-290.4772 888.4185,-287.6264 878.6639,-283.4916 878.2145,-290.4772"/>
</g>
<!-- Node10 -->
<g id="node8" class="node">
<title>Node10</title>
<g id="a_node8"><a xlink:href="test__constructor_8cpp.html" target="_top" xlink:title="A simple application that demonstrates a problem with the Circle constructor.">
<polygon fill="none" stroke="#000000" points="399.5,-56.5 399.5,-75.5 513.5,-75.5 513.5,-56.5 399.5,-56.5"/>
<text text-anchor="middle" x="456.5" y="-63.5" font-family="Helvetica,sans-Serif" font-size="10.00" fill="#000000">test_constructor.cpp</text>
</a>
</g>
</g>
<!-- Node4&#45;&gt;Node10 -->
<g id="edge43" class="edge">
<title>Node4&#45;&gt;Node10</title>
<path fill="none" stroke="#191970" d="M878.3588,-279.2655C807.6916,-263.1432 673.8415,-230.0345 564.5,-188 512.1817,-167.8871 481.0523,-179.6276 451.5,-132 440.7157,-114.6196 447.3456,-89.5005 452.3869,-75.8071"/>
<polygon fill="#191970" stroke="#191970" points="877.7902,-282.7253 888.3163,-281.52 879.336,-275.8981 877.7902,-282.7253"/>
</g>
<!-- Node15 -->
<g id="node13" class="node">
<title>Node15</title>
<g id="a_node13"><a xlink:href="test__slicing_8cpp.html" target="_top" xlink:title="A simple application that demonstrates slicing in the Flower class.">
<polygon fill="none" stroke="#000000" points="1073.5,-56.5 1073.5,-75.5 1165.5,-75.5 1165.5,-56.5 1073.5,-56.5"/>
<text text-anchor="middle" x="1119.5" y="-63.5" font-family="Helvetica,sans-Serif" font-size="10.00" fill="#000000">test_slicing.cpp</text>
</a>
</g>
</g>
<!-- Node4&#45;&gt;Node15 -->
<g id="edge45" class="edge">
<title>Node4&#45;&gt;Node15</title>
<path fill="none" stroke="#191970" d="M942.3289,-272.6996C980.5936,-228.0575 1081.7279,-110.0674 1111.2807,-75.5891"/>
<polygon fill="#191970" stroke="#191970" points="939.6005,-270.5046 935.75,-280.375 944.9154,-275.0602 939.6005,-270.5046"/>
</g>
<!-- Node17 -->
<g id="node15" class="node">
<title>Node17</title>
<g id="a_node15"><a xlink:href="main_8cpp.html" target="_top" xlink:title="Provides a simple application that draws some stuff.">
<polygon fill="none" stroke="#000000" points="993.5,-56.5 993.5,-75.5 1055.5,-75.5 1055.5,-56.5 993.5,-56.5"/>
<text text-anchor="middle" x="1024.5" y="-63.5" font-family="Helvetica,sans-Serif" font-size="10.00" fill="#000000">main.cpp</text>
</a>
</g>
</g>
<!-- Node4&#45;&gt;Node17 -->
<g id="edge42" class="edge">
<title>Node4&#45;&gt;Node17</title>
<path fill="none" stroke="#191970" d="M935.7298,-270.995C955.5924,-225.1268 1005.6035,-109.6374 1020.3476,-75.5891"/>
<polygon fill="#191970" stroke="#191970" points="932.43,-269.8076 931.668,-280.375 938.8536,-272.5893 932.43,-269.8076"/>
</g>
<!-- Node21 -->
<g id="node19" class="node">
<title>Node21</title>
<g id="a_node19"><a xlink:href="test__destructor_8cpp.html" target="_top" xlink:title="A simple application that demonstrates a problem with the Triangle destructor.">
<polygon fill="none" stroke="#000000" points="866,-56.5 866,-75.5 975,-75.5 975,-56.5 866,-56.5"/>
<text text-anchor="middle" x="920.5" y="-63.5" font-family="Helvetica,sans-Serif" font-size="10.00" fill="#000000">test_destructor.cpp</text>
</a>
</g>
</g>
<!-- Node4&#45;&gt;Node21 -->
<g id="edge44" class="edge">
<title>Node4&#45;&gt;Node21</title>
<path fill="none" stroke="#191970" d="M926.8787,-270.1177C925.4272,-223.6713 921.8569,-109.4223 920.7997,-75.5891"/>
<polygon fill="#191970" stroke="#191970" points="923.3885,-270.4892 927.1992,-280.375 930.3851,-270.2705 923.3885,-270.4892"/>
</g>
<!-- Node26 -->
<g id="node24" class="node">
<title>Node26</title>
<g id="a_node24"><a xlink:href="color_8h.html" target="_top" xlink:title="Provides a variety of colors for convenience.">
<polygon fill="none" stroke="#000000" points="739.5,-112.5 739.5,-131.5 787.5,-131.5 787.5,-112.5 739.5,-112.5"/>
<text text-anchor="middle" x="763.5" y="-119.5" font-family="Helvetica,sans-Serif" font-size="10.00" fill="#000000">color.h</text>
</a>
</g>
</g>
<!-- Node4&#45;&gt;Node26 -->
<g id="edge33" class="edge">
<title>Node4&#45;&gt;Node26</title>
<path fill="none" stroke="#191970" d="M910.8965,-272.9915C876.8519,-238.1166 800.0732,-159.4652 773.0939,-131.8279"/>
<polygon fill="#191970" stroke="#191970" points="908.7228,-275.7754 918.2128,-280.4862 913.7319,-270.8856 908.7228,-275.7754"/>
</g>
<!-- Node27 -->
<g id="node25" class="node">
<title>Node27</title>
<g id="a_node25"><a xlink:href="PNG_8cpp.html" target="_top" xlink:title="Implementation of a simple PNG class using HSLAPixels and the lodepng PNG library.">
<polygon fill="none" stroke="#000000" points="1070,-224.5 1070,-243.5 1159,-243.5 1159,-224.5 1070,-224.5"/>
<text text-anchor="middle" x="1114.5" y="-231.5" font-family="Helvetica,sans-Serif" font-size="10.00" fill="#000000">cs225/PNG.cpp</text>
</a>
</g>
</g>
<!-- Node4&#45;&gt;Node27 -->
<g id="edge41" class="edge">
<title>Node4&#45;&gt;Node27</title>
<path fill="none" stroke="#191970" d="M969.3877,-277.4561C1003.7143,-267.1765 1051.5565,-252.8494 1082.773,-243.5011"/>
<polygon fill="#191970" stroke="#191970" points="968.222,-274.1515 959.6464,-280.3733 970.2302,-280.8573 968.222,-274.1515"/>
</g>
<!-- Node6 -->
<g id="node4" class="node">
<title>Node6</title>
<g id="a_node4"><a xlink:href="shape_8h.html" target="_top" xlink:title="Declaration of the Shape class.">
<polygon fill="none" stroke="#000000" points="573,-168.5 573,-187.5 628,-187.5 628,-168.5 573,-168.5"/>
<text text-anchor="middle" x="600.5" y="-175.5" font-family="Helvetica,sans-Serif" font-size="10.00" fill="#000000">shape.h</text>
</a>
</g>
</g>
<!-- Node5&#45;&gt;Node6 -->
<g id="edge3" class="edge">
<title>Node5&#45;&gt;Node6</title>
<path fill="none" stroke="#191970" d="M408.0911,-223.2727C456.7856,-211.8152 532.3926,-194.0253 572.8056,-184.5163"/>
<polygon fill="#191970" stroke="#191970" points="407.0635,-219.9188 398.131,-225.6162 408.6668,-226.7327 407.0635,-219.9188"/>
</g>
<!-- Node11 -->
<g id="node9" class="node">
<title>Node11</title>
<g id="a_node9"><a xlink:href="truck_8h.html" target="_top" xlink:title="Declaration of the Truck class.">
<polygon fill="none" stroke="#000000" points="331.5,-56.5 331.5,-75.5 381.5,-75.5 381.5,-56.5 331.5,-56.5"/>
<text text-anchor="middle" x="356.5" y="-63.5" font-family="Helvetica,sans-Serif" font-size="10.00" fill="#000000">truck.h</text>
</a>
</g>
</g>
<!-- Node5&#45;&gt;Node11 -->
<g id="edge32" class="edge">
<title>Node5&#45;&gt;Node11</title>
<path fill="none" stroke="#191970" d="M361.795,-214.2601C360.506,-178.1669 357.8131,-102.7656 356.851,-75.8279"/>
<polygon fill="#191970" stroke="#191970" points="358.3054,-214.6176 362.1602,-224.4862 365.301,-214.3677 358.3054,-214.6176"/>
</g>
<!-- Node24 -->
<g id="node22" class="node">
<title>Node24</title>
<g id="a_node22"><a xlink:href="line_8h.html" target="_top" xlink:title="Declaration of the Line class.">
<polygon fill="none" stroke="#000000" points="132.5,-112.5 132.5,-131.5 176.5,-131.5 176.5,-112.5 132.5,-112.5"/>
<text text-anchor="middle" x="154.5" y="-119.5" font-family="Helvetica,sans-Serif" font-size="10.00" fill="#000000">line.h</text>
</a>
</g>
</g>
<!-- Node5&#45;&gt;Node24 -->
<g id="edge28" class="edge">
<title>Node5&#45;&gt;Node24</title>
<path fill="none" stroke="#191970" d="M335.7032,-219.5709C292.5176,-196.3171 208.6843,-151.1761 172.1891,-131.5249"/>
<polygon fill="#191970" stroke="#191970" points="334.3019,-222.7915 344.766,-224.4509 337.6207,-216.6282 334.3019,-222.7915"/>
</g>
<!-- Node7 -->
<g id="node5" class="node">
<title>Node7</title>
<g id="a_node5"><a xlink:href="circle_8h.html" target="_top" xlink:title="Declaration of the Circle class.">
<polygon fill="none" stroke="#000000" points="460.5,-112.5 460.5,-131.5 512.5,-131.5 512.5,-112.5 460.5,-112.5"/>
<text text-anchor="middle" x="486.5" y="-119.5" font-family="Helvetica,sans-Serif" font-size="10.00" fill="#000000">circle.h</text>
</a>
</g>
</g>
<!-- Node6&#45;&gt;Node7 -->
<g id="edge4" class="edge">
<title>Node6&#45;&gt;Node7</title>
<path fill="none" stroke="#191970" d="M571.6679,-163.8368C551.0605,-153.7139 523.8918,-140.3679 505.8416,-131.5011"/>
<polygon fill="#191970" stroke="#191970" points="570.384,-167.1056 580.9027,-168.3733 573.4703,-160.8227 570.384,-167.1056"/>
</g>
<!-- Node6&#45;&gt;Node10 -->
<g id="edge26" class="edge">
<title>Node6&#45;&gt;Node10</title>
<path fill="none" stroke="#191970" d="M581.5342,-161.4226C565.7466,-147.8024 542.5322,-128.1864 521.5,-112 504.4089,-98.8467 484.0106,-84.6424 470.6823,-75.5524"/>
<polygon fill="#191970" stroke="#191970" points="579.632,-164.4057 589.4801,-168.3126 584.2179,-159.117 579.632,-164.4057"/>
</g>
<!-- Node14 -->
<g id="node12" class="node">
<title>Node14</title>
<g id="a_node12"><a xlink:href="flower_8h.html" target="_top" xlink:title="Declaration of the Flower class.">
<polygon fill="none" stroke="#000000" points="844,-112.5 844,-131.5 899,-131.5 899,-112.5 844,-112.5"/>
<text text-anchor="middle" x="871.5" y="-119.5" font-family="Helvetica,sans-Serif" font-size="10.00" fill="#000000">flower.h</text>
</a>
</g>
</g>
<!-- Node6&#45;&gt;Node14 -->
<g id="edge11" class="edge">
<title>Node6&#45;&gt;Node14</title>
<path fill="none" stroke="#191970" d="M638.0501,-170.8815C683.4835,-162.1706 762.2538,-146.7546 829.5,-132 834.1857,-130.9719 839.1535,-129.8329 843.9695,-128.7026"/>
<polygon fill="#191970" stroke="#191970" points="637.2257,-167.4756 628.061,-172.7915 638.5405,-174.351 637.2257,-167.4756"/>
</g>
<!-- Node16 -->
<g id="node14" class="node">
<title>Node16</title>
<g id="a_node14"><a xlink:href="rectangle_8h.html" target="_top" xlink:title="Declaration of the Rectangle class.">
<polygon fill="none" stroke="#000000" points="650,-112.5 650,-131.5 721,-131.5 721,-112.5 650,-112.5"/>
<text text-anchor="middle" x="685.5" y="-119.5" font-family="Helvetica,sans-Serif" font-size="10.00" fill="#000000">rectangle.h</text>
</a>
</g>
</g>
<!-- Node6&#45;&gt;Node16 -->
<g id="edge14" class="edge">
<title>Node6&#45;&gt;Node16</title>
<path fill="none" stroke="#191970" d="M624.0419,-162.49C639.039,-152.6096 657.9973,-140.1194 670.8638,-131.6427"/>
<polygon fill="#191970" stroke="#191970" points="621.7309,-159.8212 615.3059,-168.2455 625.5821,-165.6666 621.7309,-159.8212"/>
</g>
<!-- Node6&#45;&gt;Node17 -->
<g id="edge24" class="edge">
<title>Node6&#45;&gt;Node17</title>
<path fill="none" stroke="#191970" d="M638.0712,-176.8186C697.1612,-173.9892 814.7412,-164.4053 908.5,-132 948.5757,-118.1489 990.6319,-90.3744 1011.3583,-75.6606"/>
<polygon fill="#191970" stroke="#191970" points="637.9143,-173.322 628.078,-177.2586 638.2223,-180.3152 637.9143,-173.322"/>
</g>
<!-- Node20 -->
<g id="node18" class="node">
<title>Node20</title>
<g id="a_node18"><a xlink:href="triangle_8h.html" target="_top" xlink:title="Declaration of the Triangle class.">
<polygon fill="none" stroke="#000000" points="569,-112.5 569,-131.5 632,-131.5 632,-112.5 569,-112.5"/>
<text text-anchor="middle" x="600.5" y="-119.5" font-family="Helvetica,sans-Serif" font-size="10.00" fill="#000000">triangle.h</text>
</a>
</g>
</g>
<!-- Node6&#45;&gt;Node20 -->
<g id="edge20" class="edge">
<title>Node6&#45;&gt;Node20</title>
<path fill="none" stroke="#191970" d="M600.5,-158.1575C600.5,-149.155 600.5,-138.9199 600.5,-131.6427"/>
<polygon fill="#191970" stroke="#191970" points="597.0001,-158.2455 600.5,-168.2455 604.0001,-158.2456 597.0001,-158.2455"/>
</g>
<!-- Node6&#45;&gt;Node21 -->
<g id="edge27" class="edge">
<title>Node6&#45;&gt;Node21</title>
<path fill="none" stroke="#191970" d="M637.9835,-172.1771C678.0686,-165.2702 743.0826,-152.0956 796.5,-132 802.0209,-129.923 870.0399,-93.2785 902.9232,-75.5095"/>
<polygon fill="#191970" stroke="#191970" points="637.387,-168.7282 628.1063,-173.8388 638.5484,-175.6312 637.387,-168.7282"/>
</g>
<!-- Node23 -->
<g id="node21" class="node">
<title>Node23</title>
<g id="a_node21"><a xlink:href="shape_8cpp.html" target="_top" xlink:title="Implementation of the Shape class.">
<polygon fill="none" stroke="#000000" points="165.5,-56.5 165.5,-75.5 231.5,-75.5 231.5,-56.5 165.5,-56.5"/>
<text text-anchor="middle" x="198.5" y="-63.5" font-family="Helvetica,sans-Serif" font-size="10.00" fill="#000000">shape.cpp</text>
</a>
</g>
</g>
<!-- Node6&#45;&gt;Node23 -->
<g id="edge25" class="edge">
<title>Node6&#45;&gt;Node23</title>
<path fill="none" stroke="#191970" d="M562.9717,-167.5444C484.8228,-145.7715 305.7419,-95.8783 231.5909,-75.2193"/>
<polygon fill="#191970" stroke="#191970" points="562.2964,-170.9895 572.8689,-170.3018 564.1752,-164.2463 562.2964,-170.9895"/>
</g>
<!-- Node8 -->
<g id="node6" class="node">
<title>Node8</title>
<g id="a_node6"><a xlink:href="circle_8cpp.html" target="_top" xlink:title="Implementation of the Circle class.">
<polygon fill="none" stroke="#000000" points="250,-56.5 250,-75.5 313,-75.5 313,-56.5 250,-56.5"/>
<text text-anchor="middle" x="281.5" y="-63.5" font-family="Helvetica,sans-Serif" font-size="10.00" fill="#000000">circle.cpp</text>
</a>
</g>
</g>
<!-- Node7&#45;&gt;Node8 -->
<g id="edge5" class="edge">
<title>Node7&#45;&gt;Node8</title>
<path fill="none" stroke="#191970" d="M450.2584,-112.0999C411.3607,-101.4741 350.1845,-84.7626 313.1555,-74.6474"/>
<polygon fill="#191970" stroke="#191970" points="449.5506,-115.5347 460.1195,-114.7936 451.3953,-108.7821 449.5506,-115.5347"/>
</g>
<!-- Node9 -->
<g id="node7" class="node">
<title>Node9</title>
<g id="a_node7"><a xlink:href="flower_8cpp.html" target="_top" xlink:title="Implementation of the Flower class.">
<polygon fill="none" stroke="#000000" points="633.5,-56.5 633.5,-75.5 699.5,-75.5 699.5,-56.5 633.5,-56.5"/>
<text text-anchor="middle" x="666.5" y="-63.5" font-family="Helvetica,sans-Serif" font-size="10.00" fill="#000000">flower.cpp</text>
</a>
</g>
</g>
<!-- Node7&#45;&gt;Node9 -->
<g id="edge6" class="edge">
<title>Node7&#45;&gt;Node9</title>
<path fill="none" stroke="#191970" d="M522.4332,-110.8208C555.6097,-100.4992 604.3608,-85.3322 635.7702,-75.5604"/>
<polygon fill="#191970" stroke="#191970" points="521.1824,-107.5444 512.6735,-113.8571 523.2619,-114.2284 521.1824,-107.5444"/>
</g>
<!-- Node7&#45;&gt;Node10 -->
<g id="edge7" class="edge">
<title>Node7&#45;&gt;Node10</title>
<path fill="none" stroke="#191970" d="M476.502,-103.3372C471.5324,-94.0605 465.7356,-83.2398 461.6657,-75.6427"/>
<polygon fill="#191970" stroke="#191970" points="473.4669,-105.0835 481.2744,-112.2455 479.6373,-101.7779 473.4669,-105.0835"/>
</g>
<!-- Node7&#45;&gt;Node11 -->
<g id="edge8" class="edge">
<title>Node7&#45;&gt;Node11</title>
<path fill="none" stroke="#191970" d="M454.8898,-108.3833C431.2465,-98.1985 399.5124,-84.5284 378.5562,-75.5011"/>
<polygon fill="#191970" stroke="#191970" points="453.5834,-111.6314 464.1522,-112.3733 456.3528,-105.2025 453.5834,-111.6314"/>
</g>
<!-- Node12 -->
<g id="node10" class="node">
<title>Node12</title>
<g id="a_node10"><a xlink:href="test__pure__virtual_8cpp.html" target="_top" xlink:title="A simple application that demonstrates a problem with Truck pure virtual methods.">
<polygon fill="none" stroke="#000000" points="297,-.5 297,-19.5 416,-19.5 416,-.5 297,-.5"/>
<text text-anchor="middle" x="356.5" y="-7.5" font-family="Helvetica,sans-Serif" font-size="10.00" fill="#000000">test_pure_virtual.cpp</text>
</a>
</g>
</g>
<!-- Node11&#45;&gt;Node12 -->
<g id="edge9" class="edge">
<title>Node11&#45;&gt;Node12</title>
<path fill="none" stroke="#191970" d="M356.5,-46.1575C356.5,-37.155 356.5,-26.9199 356.5,-19.6427"/>
<polygon fill="#191970" stroke="#191970" points="353.0001,-46.2455 356.5,-56.2455 360.0001,-46.2456 353.0001,-46.2455"/>
</g>
<!-- Node13 -->
<g id="node11" class="node">
<title>Node13</title>
<g id="a_node11"><a xlink:href="truck_8cpp.html" target="_top" xlink:title="Implementation of the Truck class.">
<polygon fill="none" stroke="#000000" points="620.5,-.5 620.5,-19.5 682.5,-19.5 682.5,-.5 620.5,-.5"/>
<text text-anchor="middle" x="651.5" y="-7.5" font-family="Helvetica,sans-Serif" font-size="10.00" fill="#000000">truck.cpp</text>
</a>
</g>
</g>
<!-- Node11&#45;&gt;Node13 -->
<g id="edge10" class="edge">
<title>Node11&#45;&gt;Node13</title>
<path fill="none" stroke="#191970" d="M391.562,-55.9488C479.7526,-35.6376 572.9376,-21.1944 620.3357,-14.3421"/>
<polygon fill="#191970" stroke="#191970" points="390.6106,-52.5767 381.6677,-58.2577 392.2014,-59.3936 390.6106,-52.5767"/>
</g>
<!-- Node14&#45;&gt;Node9 -->
<g id="edge12" class="edge">
<title>Node14&#45;&gt;Node9</title>
<path fill="none" stroke="#191970" d="M834.0958,-111.7823C795.7315,-101.3023 736.6119,-85.1525 699.8109,-75.0996"/>
<polygon fill="#191970" stroke="#191970" points="833.2839,-115.1887 843.8528,-114.4476 835.1286,-108.4361 833.2839,-115.1887"/>
</g>
<!-- Node14&#45;&gt;Node15 -->
<g id="edge13" class="edge">
<title>Node14&#45;&gt;Node15</title>
<path fill="none" stroke="#191970" d="M909.4628,-113.4278C954.7042,-103.212 1030.0788,-86.1919 1077.1645,-75.5596"/>
<polygon fill="#191970" stroke="#191970" points="908.4501,-110.0682 899.4667,-115.6849 909.992,-116.8963 908.4501,-110.0682"/>
</g>
<!-- Node16&#45;&gt;Node9 -->
<g id="edge15" class="edge">
<title>Node16&#45;&gt;Node9</title>
<path fill="none" stroke="#191970" d="M678.9685,-102.7493C675.8664,-93.6064 672.2949,-83.0798 669.7716,-75.6427"/>
<polygon fill="#191970" stroke="#191970" points="675.663,-103.9003 682.1905,-112.2455 682.2918,-101.6512 675.663,-103.9003"/>
</g>
<!-- Node16&#45;&gt;Node11 -->
<g id="edge18" class="edge">
<title>Node16&#45;&gt;Node11</title>
<path fill="none" stroke="#191970" d="M639.6432,-111.7717C528.9169,-91.9487 497.5017,-99.2828 390.5,-76 387.6142,-75.3721 384.6152,-74.628 381.647,-73.8335"/>
<polygon fill="#191970" stroke="#191970" points="639.065,-115.2239 649.5308,-113.5756 640.3214,-108.3376 639.065,-115.2239"/>
</g>
<!-- Node16&#45;&gt;Node17 -->
<g id="edge16" class="edge">
<title>Node16&#45;&gt;Node17</title>
<path fill="none" stroke="#191970" d="M731.406,-111.9626C844.4408,-91.9485 875.7665,-97.2373 984.5,-76 987.3102,-75.4511 990.2187,-74.8296 993.1263,-74.1716"/>
<polygon fill="#191970" stroke="#191970" points="730.5329,-108.5634 721.3104,-113.7783 731.7721,-115.4528 730.5329,-108.5634"/>
</g>
<!-- Node18 -->
<g id="node16" class="node">
<title>Node18</title>
<g id="a_node16"><a xlink:href="rectangle_8cpp.html" target="_top" xlink:title="Implementation of the Rectangle class.">
<polygon fill="none" stroke="#000000" points="532,-56.5 532,-75.5 615,-75.5 615,-56.5 532,-56.5"/>
<text text-anchor="middle" x="573.5" y="-63.5" font-family="Helvetica,sans-Serif" font-size="10.00" fill="#000000">rectangle.cpp</text>
</a>
</g>
</g>
<!-- Node16&#45;&gt;Node18 -->
<g id="edge17" class="edge">
<title>Node16&#45;&gt;Node18</title>
<path fill="none" stroke="#191970" d="M657.1737,-107.8368C636.9279,-97.7139 610.2358,-84.3679 592.5022,-75.5011"/>
<polygon fill="#191970" stroke="#191970" points="655.737,-111.0316 666.2465,-112.3733 658.8675,-104.7706 655.737,-111.0316"/>
</g>
<!-- Node19 -->
<g id="node17" class="node">
<title>Node19</title>
<g id="a_node17"><a xlink:href="test__virtual_8cpp.html" target="_top" xlink:title="A simple application that demonstrates a problem with Shape virtual methods.">
<polygon fill="none" stroke="#000000" points="717.5,-56.5 717.5,-75.5 809.5,-75.5 809.5,-56.5 717.5,-56.5"/>
<text text-anchor="middle" x="763.5" y="-63.5" font-family="Helvetica,sans-Serif" font-size="10.00" fill="#000000">test_virtual.cpp</text>
</a>
</g>
</g>
<!-- Node16&#45;&gt;Node19 -->
<g id="edge19" class="edge">
<title>Node16&#45;&gt;Node19</title>
<path fill="none" stroke="#191970" d="M707.4936,-106.2097C721.1929,-96.3743 738.3736,-84.0394 750.0691,-75.6427"/>
<polygon fill="#191970" stroke="#191970" points="705.1686,-103.5703 699.0866,-112.2455 709.2511,-109.2566 705.1686,-103.5703"/>
</g>
<!-- Node20&#45;&gt;Node9 -->
<g id="edge21" class="edge">
<title>Node20&#45;&gt;Node9</title>
<path fill="none" stroke="#191970" d="M619.7755,-105.645C631.2538,-95.9058 645.4277,-83.8795 655.1354,-75.6427"/>
<polygon fill="#191970" stroke="#191970" points="617.357,-103.1069 611.9963,-112.2455 621.8859,-108.4445 617.357,-103.1069"/>
</g>
<!-- Node20&#45;&gt;Node21 -->
<g id="edge22" class="edge">
<title>Node20&#45;&gt;Node21</title>
<path fill="none" stroke="#191970" d="M642.1519,-111.99C725.7765,-95.1286 811.4754,-81.7599 865.7453,-73.7733"/>
<polygon fill="#191970" stroke="#191970" points="641.3318,-108.5851 632.2307,-114.0091 642.7278,-115.4445 641.3318,-108.5851"/>
</g>
<!-- Node22 -->
<g id="node20" class="node">
<title>Node22</title>
<g id="a_node20"><a xlink:href="triangle_8cpp.html" target="_top" xlink:title="Implementation of the Triangle class.">
<polygon fill="none" stroke="#000000" points="73.5,-56.5 73.5,-75.5 147.5,-75.5 147.5,-56.5 73.5,-56.5"/>
<text text-anchor="middle" x="110.5" y="-63.5" font-family="Helvetica,sans-Serif" font-size="10.00" fill="#000000">triangle.cpp</text>
</a>
</g>
</g>
<!-- Node20&#45;&gt;Node22 -->
<g id="edge23" class="edge">
<title>Node20&#45;&gt;Node22</title>
<path fill="none" stroke="#191970" d="M558.4601,-116.4598C546.523,-114.9461 533.5067,-113.3518 521.5,-112 359.514,-93.7629 317.5252,-101.3565 156.5,-76 153.5937,-75.5423 150.5951,-75.0156 147.5876,-74.4484"/>
<polygon fill="#191970" stroke="#191970" points="558.2563,-119.9622 568.62,-117.7611 559.1458,-113.0189 558.2563,-119.9622"/>
</g>
<!-- Node24&#45;&gt;Node22 -->
<g id="edge31" class="edge">
<title>Node24&#45;&gt;Node22</title>
<path fill="none" stroke="#191970" d="M140.5231,-104.2112C133.0871,-94.7472 124.234,-83.4797 118.0764,-75.6427"/>
<polygon fill="#191970" stroke="#191970" points="137.9054,-106.5447 146.8358,-112.2455 143.4097,-102.22 137.9054,-106.5447"/>
</g>
<!-- Node24&#45;&gt;Node23 -->
<g id="edge30" class="edge">
<title>Node24&#45;&gt;Node23</title>
<path fill="none" stroke="#191970" d="M168.4769,-104.2112C175.9129,-94.7472 184.766,-83.4797 190.9236,-75.6427"/>
<polygon fill="#191970" stroke="#191970" points="165.5903,-102.22 162.1642,-112.2455 171.0946,-106.5447 165.5903,-102.22"/>
</g>
<!-- Node25 -->
<g id="node23" class="node">
<title>Node25</title>
<g id="a_node23"><a xlink:href="line_8cpp.html" target="_top" xlink:title="Implementation of the Line class.">
<polygon fill="none" stroke="#000000" points="0,-56.5 0,-75.5 55,-75.5 55,-56.5 0,-56.5"/>
<text text-anchor="middle" x="27.5" y="-63.5" font-family="Helvetica,sans-Serif" font-size="10.00" fill="#000000">line.cpp</text>
</a>
</g>
</g>
<!-- Node24&#45;&gt;Node25 -->
<g id="edge29" class="edge">
<title>Node24&#45;&gt;Node25</title>
<path fill="none" stroke="#191970" d="M123.3108,-108.2473C100.2463,-98.0771 69.4288,-84.4883 49.0472,-75.5011"/>
<polygon fill="#191970" stroke="#191970" points="122.1058,-111.5411 132.6679,-112.3733 124.9301,-105.1361 122.1058,-111.5411"/>
</g>
<!-- Node26&#45;&gt;Node9 -->
<g id="edge34" class="edge">
<title>Node26&#45;&gt;Node9</title>
<path fill="none" stroke="#191970" d="M737.5984,-107.0465C720.3391,-97.0824 698.1624,-84.2794 683.2025,-75.6427"/>
<polygon fill="#191970" stroke="#191970" points="736.1936,-110.2768 746.6039,-112.2455 739.6935,-104.2146 736.1936,-110.2768"/>
</g>
<!-- Node26&#45;&gt;Node10 -->
<g id="edge37" class="edge">
<title>Node26&#45;&gt;Node10</title>
<path fill="none" stroke="#191970" d="M729.5653,-112.0592C676.912,-100.4432 577.3449,-84.5688 513.782,-74.7328"/>
<polygon fill="#191970" stroke="#191970" points="728.9168,-115.5012 739.4458,-114.3226 730.4799,-108.678 728.9168,-115.5012"/>
</g>
<!-- Node26&#45;&gt;Node13 -->
<g id="edge40" class="edge">
<title>Node26&#45;&gt;Node13</title>
<path fill="none" stroke="#191970" d="M790.3291,-106.9897C810.3969,-93.8082 832.1998,-73.9836 818.5,-56 810.1854,-45.0855 728.854,-26.3549 682.8374,-16.4991"/>
<polygon fill="#191970" stroke="#191970" points="788.3027,-104.1281 781.6548,-112.3777 791.9962,-110.0744 788.3027,-104.1281"/>
</g>
<!-- Node26&#45;&gt;Node17 -->
<g id="edge35" class="edge">
<title>Node26&#45;&gt;Node17</title>
<path fill="none" stroke="#191970" d="M797.8213,-115.296C841.3531,-106.692 918.6808,-91.0711 984.5,-76 987.291,-75.3609 990.1864,-74.6774 993.0854,-73.979"/>
<polygon fill="#191970" stroke="#191970" points="796.9028,-111.9096 787.7681,-117.2769 798.2561,-118.7775 796.9028,-111.9096"/>
</g>
<!-- Node26&#45;&gt;Node19 -->
<g id="edge39" class="edge">
<title>Node26&#45;&gt;Node19</title>
<path fill="none" stroke="#191970" d="M763.5,-102.1575C763.5,-93.155 763.5,-82.9199 763.5,-75.6427"/>
<polygon fill="#191970" stroke="#191970" points="760.0001,-102.2455 763.5,-112.2455 767.0001,-102.2456 760.0001,-102.2455"/>
</g>
<!-- Node26&#45;&gt;Node21 -->
<g id="edge38" class="edge">
<title>Node26&#45;&gt;Node21</title>
<path fill="none" stroke="#191970" d="M797.3384,-109.9303C826.1655,-99.648 867.0343,-85.0706 893.6536,-75.5758"/>
<polygon fill="#191970" stroke="#191970" points="795.9301,-106.7165 787.6872,-113.3727 798.2818,-113.3097 795.9301,-106.7165"/>
</g>
<!-- Node26&#45;&gt;Node23 -->
<g id="edge36" class="edge">
<title>Node26&#45;&gt;Node23</title>
<path fill="none" stroke="#191970" d="M729.1106,-112.1155C513.9752,-73.2062 453.0294,-108.8907 240.5,-76 237.6852,-75.5644 234.7807,-75.0378 231.875,-74.4567"/>
<polygon fill="#191970" stroke="#191970" points="728.6718,-115.5935 739.1404,-113.9629 729.9399,-108.7093 728.6718,-115.5935"/>
</g>
</g>
</svg>
        <g id="navigator" transform="translate(0 0)" fill="#404254">
                <rect fill="#f2f5e9" fill-opacity="0.5" stroke="#606060" stroke-width=".5" x="0" y="0" width="60" height="60"/>
                <use id="zoomplus" xlink:href="#zoomPlus" x="17" y="9" onmousedown="handleZoom(evt,'in')"/>
                <use id="zoomminus" xlink:href="#zoomMin" x="42" y="9" onmousedown="handleZoom(evt,'out')"/>
                <use id="reset" xlink:href="#resetDef" x="30" y="36" onmousedown="handleReset()"/>
                <g id="arrowUp" xlink:href="#dirArrow" transform="translate(30 24)" onmousedown="handlePan(0,-1)">
                  <use xlink:href="#rim" fill="#404040">
                        <set attributeName="fill" to="#808080" begin="arrowUp.mouseover" end="arrowUp.mouseout"/>
                  </use>
                  <path fill="none" stroke="white" stroke-width="1.5" d="M0,-3.0v7 M-2.5,-0.5L0,-3.0L2.5,-0.5"/>
                </g>
                <g id="arrowRight" xlink:href="#dirArrow" transform="rotate(90) translate(36 -43)" onmousedown="handlePan(1,0)">
                  <use xlink:href="#rim" fill="#404040">
                        <set attributeName="fill" to="#808080" begin="arrowRight.mouseover" end="arrowRight.mouseout"/>
                  </use>
                  <path fill="none" stroke="white" stroke-width="1.5" d="M0,-3.0v7 M-2.5,-0.5L0,-3.0L2.5,-0.5"/>
                </g>
                <g id="arrowDown" xlink:href="#dirArrow" transform="rotate(180) translate(-30 -48)" onmousedown="handlePan(0,1)">
                  <use xlink:href="#rim" fill="#404040">
                        <set attributeName="fill" to="#808080" begin="arrowDown.mouseover" end="arrowDown.mouseout"/>
                  </use>
                  <path fill="none" stroke="white" stroke-width="1.5" d="M0,-3.0v7 M-2.5,-0.5L0,-3.0L2.5,-0.5"/>
                </g>
                <g id="arrowLeft" xlink:href="#dirArrow" transform="rotate(270) translate(-36 17)" onmousedown="handlePan(-1,0)">
                  <use xlink:href="#rim" fill="#404040">
                        <set attributeName="fill" to="#808080" begin="arrowLeft.mouseover" end="arrowLeft.mouseout"/>
                  </use>
                  <path fill="none" stroke="white" stroke-width="1.5" d="M0,-3.0v7 M-2.5,-0.5L0,-3.0L2.5,-0.5"/>
                </g>
        </g>
        <svg viewBox="0 0 15 15" width="100%" height="30px" preserveAspectRatio="xMaxYMin meet">
         <g id="arrow_out" transform="scale(0.3 0.3)">
          <a xlink:href="HSLAPixel_8h__dep__incl_org.svg" target="_base">
           <rect id="button" ry="5" rx="5" y="6" x="6" height="38" width="38"
                fill="#f2f5e9" fill-opacity="0.5" stroke="#606060" stroke-width="1.0"/>
           <path id="arrow"
             d="M 11.500037,31.436501 C 11.940474,20.09759 22.043105,11.32322 32.158766,21.979434 L 37.068811,17.246167 C 37.068811,17.246167 37.088388,32 37.088388,32 L 22.160133,31.978069 C 22.160133,31.978069 26.997745,27.140456 26.997745,27.140456 C 18.528582,18.264221 13.291696,25.230495 11.500037,31.436501 z"
             style="fill:#404040;"/>
          </a>
         </g>
        </svg>
</svg>
