<?xml version="1.0" encoding="UTF-8" standalone="no"?>
<!DOCTYPE svg PUBLIC "-//W3C//DTD SVG 1.1//EN"
 "http://www.w3.org/Graphics/SVG/1.1/DTD/svg11.dtd">
<!-- Generated by graphviz version 2.40.1 (20161225.0304)
 -->
<!-- Title: Graphical Class Hierarchy Pages: 1 -->
<svg width="257pt" height="142pt"
 viewBox="0.00 0.00 257.00 142.00" xmlns="http://www.w3.org/2000/svg" xmlns:xlink="http://www.w3.org/1999/xlink">
<g id="graph0" class="graph" transform="scale(1 1) rotate(0) translate(4 138)">
<title>Graphical Class Hierarchy</title>
<!-- Node0 -->
<g id="node1" class="node">
<title>Node0</title>
<g id="a_node1"><a xlink:href="classDrawable.html" target="_top" xlink:title="A pure virtual interface class that can draw itself to a canvas.">
<polygon fill="none" stroke="#000000" points="0,-57.5 0,-76.5 63,-76.5 63,-57.5 0,-57.5"/>
<text text-anchor="middle" x="31.5" y="-64.5" font-family="Helvetica,sans-Serif" font-size="10.00" fill="#000000">Drawable</text>
</a>
</g>
</g>
<!-- Node1 -->
<g id="node2" class="node">
<title>Node1</title>
<g id="a_node2"><a xlink:href="classFlower.html" target="_top" xlink:title="A subclass of Drawable that can draw a flower.">
<polygon fill="none" stroke="#000000" points="99,-114.5 99,-133.5 148,-133.5 148,-114.5 99,-114.5"/>
<text text-anchor="middle" x="123.5" y="-121.5" font-family="Helvetica,sans-Serif" font-size="10.00" fill="#000000">Flower</text>
</a>
</g>
</g>
<!-- Node0&#45;&gt;Node1 -->
<g id="edge1" class="edge">
<title>Node0&#45;&gt;Node1</title>
<path fill="none" stroke="#191970" d="M55.7437,-82.0206C72.3381,-92.3018 93.8402,-105.6238 108.1239,-114.4735"/>
<polygon fill="#191970" stroke="#191970" points="57.4506,-78.9608 47.1065,-76.6693 53.7639,-84.9113 57.4506,-78.9608"/>
</g>
<!-- Node2 -->
<g id="node3" class="node">
<title>Node2</title>
<g id="a_node3"><a xlink:href="classLine.html" target="_top" xlink:title="A subclass of Drawable that represents a line in 2D space.">
<polygon fill="none" stroke="#000000" points="105,-76.5 105,-95.5 142,-95.5 142,-76.5 105,-76.5"/>
<text text-anchor="middle" x="123.5" y="-83.5" font-family="Helvetica,sans-Serif" font-size="10.00" fill="#000000">Line</text>
</a>
</g>
</g>
<!-- Node0&#45;&gt;Node2 -->
<g id="edge2" class="edge">
<title>Node0&#45;&gt;Node2</title>
<path fill="none" stroke="#191970" d="M73.2014,-75.6123C84.3197,-77.9084 95.7759,-80.2744 104.9412,-82.1672"/>
<polygon fill="#191970" stroke="#191970" points="73.6624,-72.1337 63.1612,-73.5387 72.2466,-78.989 73.6624,-72.1337"/>
</g>
<!-- Node3 -->
<g id="node4" class="node">
<title>Node3</title>
<g id="a_node4"><a xlink:href="classShape.html" target="_top" xlink:title="An abstract base class that represents a Shape which has an area, perimeter, color,...">
<polygon fill="none" stroke="#000000" points="100,-38.5 100,-57.5 147,-57.5 147,-38.5 100,-38.5"/>
<text text-anchor="middle" x="123.5" y="-45.5" font-family="Helvetica,sans-Serif" font-size="10.00" fill="#000000">Shape</text>
</a>
</g>
</g>
<!-- Node0&#45;&gt;Node3 -->
<g id="edge3" class="edge">
<title>Node0&#45;&gt;Node3</title>
<path fill="none" stroke="#191970" d="M73.0084,-58.4276C82.237,-56.5217 91.7091,-54.5655 99.9197,-52.8698"/>
<polygon fill="#191970" stroke="#191970" points="72.2466,-55.011 63.1612,-60.4613 73.6624,-61.8663 72.2466,-55.011"/>
</g>
<!-- Node7 -->
<g id="node8" class="node">
<title>Node7</title>
<g id="a_node8"><a xlink:href="classTruck.html" target="_top" xlink:title="A subclass of Drawable that can draw a truck.">
<polygon fill="none" stroke="#000000" points="102.5,-.5 102.5,-19.5 144.5,-19.5 144.5,-.5 102.5,-.5"/>
<text text-anchor="middle" x="123.5" y="-7.5" font-family="Helvetica,sans-Serif" font-size="10.00" fill="#000000">Truck</text>
</a>
</g>
</g>
<!-- Node0&#45;&gt;Node7 -->
<g id="edge7" class="edge">
<title>Node0&#45;&gt;Node7</title>
<path fill="none" stroke="#191970" d="M55.7437,-51.9794C72.3381,-41.6982 93.8402,-28.3762 108.1239,-19.5265"/>
<polygon fill="#191970" stroke="#191970" points="53.7639,-49.0887 47.1065,-57.3307 57.4506,-55.0392 53.7639,-49.0887"/>
</g>
<!-- Node4 -->
<g id="node5" class="node">
<title>Node4</title>
<g id="a_node5"><a xlink:href="classCircle.html" target="_top" xlink:title="A subclass of Shape that represents a Circle in 2D space.">
<polygon fill="none" stroke="#000000" points="194.5,-76.5 194.5,-95.5 238.5,-95.5 238.5,-76.5 194.5,-76.5"/>
<text text-anchor="middle" x="216.5" y="-83.5" font-family="Helvetica,sans-Serif" font-size="10.00" fill="#000000">Circle</text>
</a>
</g>
</g>
<!-- Node3&#45;&gt;Node4 -->
<g id="edge4" class="edge">
<title>Node3&#45;&gt;Node4</title>
<path fill="none" stroke="#191970" d="M156.2486,-61.3811C168.8532,-66.5314 182.9392,-72.287 194.3202,-76.9373"/>
<polygon fill="#191970" stroke="#191970" points="157.5488,-58.1315 146.9678,-57.589 154.901,-64.6115 157.5488,-58.1315"/>
</g>
<!-- Node5 -->
<g id="node6" class="node">
<title>Node5</title>
<g id="a_node6"><a xlink:href="classRectangle.html" target="_top" xlink:title="A subclass of Shape that represents a rectangle in 2D space.">
<polygon fill="none" stroke="#000000" points="184,-38.5 184,-57.5 249,-57.5 249,-38.5 184,-38.5"/>
<text text-anchor="middle" x="216.5" y="-45.5" font-family="Helvetica,sans-Serif" font-size="10.00" fill="#000000">Rectangle</text>
</a>
</g>
</g>
<!-- Node3&#45;&gt;Node5 -->
<g id="edge5" class="edge">
<title>Node3&#45;&gt;Node5</title>
<path fill="none" stroke="#191970" d="M157.5425,-48C166.1374,-48 175.3454,-48 183.869,-48"/>
<polygon fill="#191970" stroke="#191970" points="157.4498,-44.5001 147.4498,-48 157.4498,-51.5001 157.4498,-44.5001"/>
</g>
<!-- Node6 -->
<g id="node7" class="node">
<title>Node6</title>
<g id="a_node7"><a xlink:href="classTriangle.html" target="_top" xlink:title="A subclass of a Shape that represents a triangle in 2D space.">
<polygon fill="none" stroke="#000000" points="189,-.5 189,-19.5 244,-19.5 244,-.5 189,-.5"/>
<text text-anchor="middle" x="216.5" y="-7.5" font-family="Helvetica,sans-Serif" font-size="10.00" fill="#000000">Triangle</text>
</a>
</g>
</g>
<!-- Node3&#45;&gt;Node6 -->
<g id="edge6" class="edge">
<title>Node3&#45;&gt;Node6</title>
<path fill="none" stroke="#191970" d="M156.3228,-34.5886C168.4396,-29.6376 181.9165,-24.1309 193.0397,-19.5859"/>
<polygon fill="#191970" stroke="#191970" points="154.901,-31.3885 146.9678,-38.411 157.5488,-37.8685 154.901,-31.3885"/>
</g>
</g>
</svg>
