<?xml version="1.0" encoding="UTF-8" standalone="no"?>
<!DOCTYPE svg PUBLIC "-//W3C//DTD SVG 1.1//EN"
 "http://www.w3.org/Graphics/SVG/1.1/DTD/svg11.dtd">
<!-- Generated by graphviz version 2.40.1 (20161225.0304)
 -->
<!-- Title: line.cpp Pages: 1 -->
<svg width="320pt" height="308pt"
 viewBox="0.00 0.00 320.00 308.00" xmlns="http://www.w3.org/2000/svg" xmlns:xlink="http://www.w3.org/1999/xlink">
<g id="graph0" class="graph" transform="scale(1 1) rotate(0) translate(4 304)">
<title>line.cpp</title>
<!-- Node0 -->
<g id="node1" class="node">
<title>Node0</title>
<g id="a_node1"><a xlink:title="Implementation of the Line class.">
<polygon fill="#bfbfbf" stroke="#000000" points="129,-280.5 129,-299.5 184,-299.5 184,-280.5 129,-280.5"/>
<text text-anchor="middle" x="156.5" y="-287.5" font-family="Helvetica,sans-Serif" font-size="10.00" fill="#000000">line.cpp</text>
</a>
</g>
</g>
<!-- Node1 -->
<g id="node2" class="node">
<title>Node1</title>
<g id="a_node2"><a xlink:href="line_8h.html" target="_top" xlink:title="Declaration of the Line class.">
<polygon fill="none" stroke="#000000" points="71.5,-224.5 71.5,-243.5 115.5,-243.5 115.5,-224.5 71.5,-224.5"/>
<text text-anchor="middle" x="93.5" y="-231.5" font-family="Helvetica,sans-Serif" font-size="10.00" fill="#000000">line.h</text>
</a>
</g>
</g>
<!-- Node0&#45;&gt;Node1 -->
<g id="edge1" class="edge">
<title>Node0&#45;&gt;Node1</title>
<path fill="none" stroke="#191970" d="M145.5262,-280.2455C136.3118,-272.0549 122.9468,-260.1749 112.0703,-250.5069"/>
<polygon fill="#191970" stroke="#191970" points="114.1474,-247.6704 104.348,-243.6427 109.4968,-252.9023 114.1474,-247.6704"/>
</g>
<!-- Node2 -->
<g id="node3" class="node">
<title>Node2</title>
<g id="a_node3"><a xlink:title=" ">
<polygon fill="none" stroke="#bfbfbf" points="0,-168.5 0,-187.5 47,-187.5 47,-168.5 0,-168.5"/>
<text text-anchor="middle" x="23.5" y="-175.5" font-family="Helvetica,sans-Serif" font-size="10.00" fill="#000000">vector</text>
</a>
</g>
</g>
<!-- Node0&#45;&gt;Node2 -->
<g id="edge13" class="edge">
<title>Node0&#45;&gt;Node2</title>
<path fill="none" stroke="#191970" d="M128.8761,-281.3327C108.6739,-273.922 81.5792,-261.6355 62.5,-244 48.3435,-230.9148 37.7215,-211.5084 31.1663,-197.1228"/>
<polygon fill="#191970" stroke="#191970" points="34.2808,-195.5053 27.1194,-187.6974 27.8486,-198.2671 34.2808,-195.5053"/>
</g>
<!-- Node10 -->
<g id="node11" class="node">
<title>Node10</title>
<g id="a_node11"><a xlink:title=" ">
<polygon fill="none" stroke="#bfbfbf" points="133.5,-224.5 133.5,-243.5 179.5,-243.5 179.5,-224.5 133.5,-224.5"/>
<text text-anchor="middle" x="156.5" y="-231.5" font-family="Helvetica,sans-Serif" font-size="10.00" fill="#000000">cstdio</text>
</a>
</g>
</g>
<!-- Node0&#45;&gt;Node10 -->
<g id="edge10" class="edge">
<title>Node0&#45;&gt;Node10</title>
<path fill="none" stroke="#191970" d="M156.5,-280.2455C156.5,-272.9382 156.5,-262.6944 156.5,-253.7046"/>
<polygon fill="#191970" stroke="#191970" points="160.0001,-253.6426 156.5,-243.6427 153.0001,-253.6427 160.0001,-253.6426"/>
</g>
<!-- Node11 -->
<g id="node12" class="node">
<title>Node11</title>
<g id="a_node12"><a xlink:title=" ">
<polygon fill="none" stroke="#bfbfbf" points="198,-224.5 198,-243.5 247,-243.5 247,-224.5 198,-224.5"/>
<text text-anchor="middle" x="222.5" y="-231.5" font-family="Helvetica,sans-Serif" font-size="10.00" fill="#000000">cstdlib</text>
</a>
</g>
</g>
<!-- Node0&#45;&gt;Node11 -->
<g id="edge11" class="edge">
<title>Node0&#45;&gt;Node11</title>
<path fill="none" stroke="#191970" d="M167.9963,-280.2455C177.7442,-271.9746 191.9259,-259.9416 203.3798,-250.2232"/>
<polygon fill="#191970" stroke="#191970" points="205.7747,-252.7813 211.1354,-243.6427 201.2459,-247.4437 205.7747,-252.7813"/>
</g>
<!-- Node12 -->
<g id="node13" class="node">
<title>Node12</title>
<g id="a_node13"><a xlink:title=" ">
<polygon fill="none" stroke="#bfbfbf" points="265,-224.5 265,-243.5 312,-243.5 312,-224.5 265,-224.5"/>
<text text-anchor="middle" x="288.5" y="-231.5" font-family="Helvetica,sans-Serif" font-size="10.00" fill="#000000">cmath</text>
</a>
</g>
</g>
<!-- Node0&#45;&gt;Node12 -->
<g id="edge12" class="edge">
<title>Node0&#45;&gt;Node12</title>
<path fill="none" stroke="#191970" d="M179.1916,-280.3733C200.5711,-271.3032 232.8057,-257.6279 256.7362,-247.4755"/>
<polygon fill="#191970" stroke="#191970" points="258.2656,-250.6287 266.1045,-243.5011 255.5317,-244.1846 258.2656,-250.6287"/>
</g>
<!-- Node1&#45;&gt;Node2 -->
<g id="edge2" class="edge">
<title>Node1&#45;&gt;Node2</title>
<path fill="none" stroke="#191970" d="M81.3069,-224.2455C70.8679,-215.8943 55.6345,-203.7076 43.426,-193.9408"/>
<polygon fill="#191970" stroke="#191970" points="45.5485,-191.1566 35.5533,-187.6427 41.1756,-196.6227 45.5485,-191.1566"/>
</g>
<!-- Node3 -->
<g id="node4" class="node">
<title>Node3</title>
<g id="a_node4"><a xlink:href="drawable_8h.html" target="_top" xlink:title="Declaration of the Drawable class.">
<polygon fill="none" stroke="#000000" points="65,-168.5 65,-187.5 136,-187.5 136,-168.5 65,-168.5"/>
<text text-anchor="middle" x="100.5" y="-175.5" font-family="Helvetica,sans-Serif" font-size="10.00" fill="#000000">drawable.h</text>
</a>
</g>
</g>
<!-- Node1&#45;&gt;Node3 -->
<g id="edge3" class="edge">
<title>Node1&#45;&gt;Node3</title>
<path fill="none" stroke="#191970" d="M94.7193,-224.2455C95.6327,-216.9382 96.9132,-206.6944 98.0369,-197.7046"/>
<polygon fill="#191970" stroke="#191970" points="101.5272,-197.9996 99.2947,-187.6427 94.5813,-197.1313 101.5272,-197.9996"/>
</g>
<!-- Node9 -->
<g id="node10" class="node">
<title>Node9</title>
<g id="a_node10"><a xlink:href="vector2_8h.html" target="_top" xlink:title="Declaration of the Vector2 class.">
<polygon fill="none" stroke="#000000" points="154.5,-168.5 154.5,-187.5 216.5,-187.5 216.5,-168.5 154.5,-168.5"/>
<text text-anchor="middle" x="185.5" y="-175.5" font-family="Helvetica,sans-Serif" font-size="10.00" fill="#000000">vector2.h</text>
</a>
</g>
</g>
<!-- Node1&#45;&gt;Node9 -->
<g id="edge9" class="edge">
<title>Node1&#45;&gt;Node9</title>
<path fill="none" stroke="#191970" d="M109.5252,-224.2455C123.6408,-215.6534 144.4263,-203.0014 160.6899,-193.1018"/>
<polygon fill="#191970" stroke="#191970" points="162.9363,-195.8319 169.6585,-187.6427 159.2966,-189.8525 162.9363,-195.8319"/>
</g>
<!-- Node4 -->
<g id="node5" class="node">
<title>Node4</title>
<g id="a_node5"><a xlink:href="PNG_8h.html" target="_top" xlink:title=" ">
<polygon fill="none" stroke="#000000" points="61.5,-112.5 61.5,-131.5 139.5,-131.5 139.5,-112.5 61.5,-112.5"/>
<text text-anchor="middle" x="100.5" y="-119.5" font-family="Helvetica,sans-Serif" font-size="10.00" fill="#000000">cs225/PNG.h</text>
</a>
</g>
</g>
<!-- Node3&#45;&gt;Node4 -->
<g id="edge4" class="edge">
<title>Node3&#45;&gt;Node4</title>
<path fill="none" stroke="#191970" d="M100.5,-168.2455C100.5,-160.9382 100.5,-150.6944 100.5,-141.7046"/>
<polygon fill="#191970" stroke="#191970" points="104.0001,-141.6426 100.5,-131.6427 97.0001,-141.6427 104.0001,-141.6426"/>
</g>
<!-- Node5 -->
<g id="node6" class="node">
<title>Node5</title>
<g id="a_node6"><a xlink:title=" ">
<polygon fill="none" stroke="#bfbfbf" points="39.5,-56.5 39.5,-75.5 83.5,-75.5 83.5,-56.5 39.5,-56.5"/>
<text text-anchor="middle" x="61.5" y="-63.5" font-family="Helvetica,sans-Serif" font-size="10.00" fill="#000000">string</text>
</a>
</g>
</g>
<!-- Node4&#45;&gt;Node5 -->
<g id="edge5" class="edge">
<title>Node4&#45;&gt;Node5</title>
<path fill="none" stroke="#191970" d="M93.7067,-112.2455C88.2822,-104.4564 80.5339,-93.3308 73.9967,-83.9439"/>
<polygon fill="#191970" stroke="#191970" points="76.8025,-81.8485 68.2154,-75.6427 71.0583,-85.849 76.8025,-81.8485"/>
</g>
<!-- Node6 -->
<g id="node7" class="node">
<title>Node6</title>
<g id="a_node7"><a xlink:href="HSLAPixel_8h.html" target="_top" xlink:title=" ">
<polygon fill="none" stroke="#000000" points="102,-56.5 102,-75.5 177,-75.5 177,-56.5 102,-56.5"/>
<text text-anchor="middle" x="139.5" y="-63.5" font-family="Helvetica,sans-Serif" font-size="10.00" fill="#000000">HSLAPixel.h</text>
</a>
</g>
</g>
<!-- Node4&#45;&gt;Node6 -->
<g id="edge6" class="edge">
<title>Node4&#45;&gt;Node6</title>
<path fill="none" stroke="#191970" d="M107.2933,-112.2455C112.7178,-104.4564 120.4661,-93.3308 127.0033,-83.9439"/>
<polygon fill="#191970" stroke="#191970" points="129.9417,-85.849 132.7846,-75.6427 124.1975,-81.8485 129.9417,-85.849"/>
</g>
<!-- Node7 -->
<g id="node8" class="node">
<title>Node7</title>
<g id="a_node8"><a xlink:title=" ">
<polygon fill="none" stroke="#bfbfbf" points="71.5,-.5 71.5,-19.5 131.5,-19.5 131.5,-.5 71.5,-.5"/>
<text text-anchor="middle" x="101.5" y="-7.5" font-family="Helvetica,sans-Serif" font-size="10.00" fill="#000000">iostream</text>
</a>
</g>
</g>
<!-- Node6&#45;&gt;Node7 -->
<g id="edge7" class="edge">
<title>Node6&#45;&gt;Node7</title>
<path fill="none" stroke="#191970" d="M132.8809,-56.2455C127.5954,-48.4564 120.0459,-37.3308 113.6762,-27.9439"/>
<polygon fill="#191970" stroke="#191970" points="116.5545,-25.9522 108.0432,-19.6427 110.7621,-29.8827 116.5545,-25.9522"/>
</g>
<!-- Node8 -->
<g id="node9" class="node">
<title>Node8</title>
<g id="a_node9"><a xlink:title=" ">
<polygon fill="none" stroke="#bfbfbf" points="149.5,-.5 149.5,-19.5 205.5,-19.5 205.5,-.5 149.5,-.5"/>
<text text-anchor="middle" x="177.5" y="-7.5" font-family="Helvetica,sans-Serif" font-size="10.00" fill="#000000">sstream</text>
</a>
</g>
</g>
<!-- Node6&#45;&gt;Node8 -->
<g id="edge8" class="edge">
<title>Node6&#45;&gt;Node8</title>
<path fill="none" stroke="#191970" d="M146.1191,-56.2455C151.4046,-48.4564 158.9541,-37.3308 165.3238,-27.9439"/>
<polygon fill="#191970" stroke="#191970" points="168.2379,-29.8827 170.9568,-19.6427 162.4455,-25.9522 168.2379,-29.8827"/>
</g>
</g>
</svg>
