<?xml version="1.0" encoding="UTF-8" standalone="no"?>
<!DOCTYPE svg PUBLIC "-//W3C//DTD SVG 1.1//EN"
 "http://www.w3.org/Graphics/SVG/1.1/DTD/svg11.dtd">
<!-- Generated by graphviz version 2.40.1 (20161225.0304)
 -->
<!-- Title: line.h Pages: 1 -->
<svg width="225pt" height="252pt"
 viewBox="0.00 0.00 224.50 252.00" xmlns="http://www.w3.org/2000/svg" xmlns:xlink="http://www.w3.org/1999/xlink">
<g id="graph0" class="graph" transform="scale(1 1) rotate(0) translate(4 248)">
<title>line.h</title>
<!-- Node0 -->
<g id="node1" class="node">
<title>Node0</title>
<g id="a_node1"><a xlink:title="Declaration of the Line class.">
<polygon fill="#bfbfbf" stroke="#000000" points="78.5,-224.5 78.5,-243.5 122.5,-243.5 122.5,-224.5 78.5,-224.5"/>
<text text-anchor="middle" x="100.5" y="-231.5" font-family="Helvetica,sans-Serif" font-size="10.00" fill="#000000">line.h</text>
</a>
</g>
</g>
<!-- Node1 -->
<g id="node2" class="node">
<title>Node1</title>
<g id="a_node2"><a xlink:title=" ">
<polygon fill="none" stroke="#bfbfbf" points="0,-168.5 0,-187.5 47,-187.5 47,-168.5 0,-168.5"/>
<text text-anchor="middle" x="23.5" y="-175.5" font-family="Helvetica,sans-Serif" font-size="10.00" fill="#000000">vector</text>
</a>
</g>
</g>
<!-- Node0&#45;&gt;Node1 -->
<g id="edge1" class="edge">
<title>Node0&#45;&gt;Node1</title>
<path fill="none" stroke="#191970" d="M87.0876,-224.2455C75.4943,-215.814 58.5252,-203.4729 45.0322,-193.6598"/>
<polygon fill="#191970" stroke="#191970" points="46.9047,-190.6938 36.7587,-187.6427 42.7874,-196.355 46.9047,-190.6938"/>
</g>
<!-- Node2 -->
<g id="node3" class="node">
<title>Node2</title>
<g id="a_node3"><a xlink:href="drawable_8h.html" target="_top" xlink:title="Declaration of the Drawable class.">
<polygon fill="none" stroke="#000000" points="65,-168.5 65,-187.5 136,-187.5 136,-168.5 65,-168.5"/>
<text text-anchor="middle" x="100.5" y="-175.5" font-family="Helvetica,sans-Serif" font-size="10.00" fill="#000000">drawable.h</text>
</a>
</g>
</g>
<!-- Node0&#45;&gt;Node2 -->
<g id="edge2" class="edge">
<title>Node0&#45;&gt;Node2</title>
<path fill="none" stroke="#191970" d="M100.5,-224.2455C100.5,-216.9382 100.5,-206.6944 100.5,-197.7046"/>
<polygon fill="#191970" stroke="#191970" points="104.0001,-197.6426 100.5,-187.6427 97.0001,-197.6427 104.0001,-197.6426"/>
</g>
<!-- Node8 -->
<g id="node9" class="node">
<title>Node8</title>
<g id="a_node9"><a xlink:href="vector2_8h.html" target="_top" xlink:title="Declaration of the Vector2 class.">
<polygon fill="none" stroke="#000000" points="154.5,-168.5 154.5,-187.5 216.5,-187.5 216.5,-168.5 154.5,-168.5"/>
<text text-anchor="middle" x="185.5" y="-175.5" font-family="Helvetica,sans-Serif" font-size="10.00" fill="#000000">vector2.h</text>
</a>
</g>
</g>
<!-- Node0&#45;&gt;Node8 -->
<g id="edge8" class="edge">
<title>Node0&#45;&gt;Node8</title>
<path fill="none" stroke="#191970" d="M115.3059,-224.2455C128.2256,-215.7337 147.1931,-203.2375 162.1552,-193.3801"/>
<polygon fill="#191970" stroke="#191970" points="164.4387,-196.067 170.8638,-187.6427 160.5876,-190.2216 164.4387,-196.067"/>
</g>
<!-- Node3 -->
<g id="node4" class="node">
<title>Node3</title>
<g id="a_node4"><a xlink:href="PNG_8h.html" target="_top" xlink:title=" ">
<polygon fill="none" stroke="#000000" points="61.5,-112.5 61.5,-131.5 139.5,-131.5 139.5,-112.5 61.5,-112.5"/>
<text text-anchor="middle" x="100.5" y="-119.5" font-family="Helvetica,sans-Serif" font-size="10.00" fill="#000000">cs225/PNG.h</text>
</a>
</g>
</g>
<!-- Node2&#45;&gt;Node3 -->
<g id="edge3" class="edge">
<title>Node2&#45;&gt;Node3</title>
<path fill="none" stroke="#191970" d="M100.5,-168.2455C100.5,-160.9382 100.5,-150.6944 100.5,-141.7046"/>
<polygon fill="#191970" stroke="#191970" points="104.0001,-141.6426 100.5,-131.6427 97.0001,-141.6427 104.0001,-141.6426"/>
</g>
<!-- Node4 -->
<g id="node5" class="node">
<title>Node4</title>
<g id="a_node5"><a xlink:title=" ">
<polygon fill="none" stroke="#bfbfbf" points="39.5,-56.5 39.5,-75.5 83.5,-75.5 83.5,-56.5 39.5,-56.5"/>
<text text-anchor="middle" x="61.5" y="-63.5" font-family="Helvetica,sans-Serif" font-size="10.00" fill="#000000">string</text>
</a>
</g>
</g>
<!-- Node3&#45;&gt;Node4 -->
<g id="edge4" class="edge">
<title>Node3&#45;&gt;Node4</title>
<path fill="none" stroke="#191970" d="M93.7067,-112.2455C88.2822,-104.4564 80.5339,-93.3308 73.9967,-83.9439"/>
<polygon fill="#191970" stroke="#191970" points="76.8025,-81.8485 68.2154,-75.6427 71.0583,-85.849 76.8025,-81.8485"/>
</g>
<!-- Node5 -->
<g id="node6" class="node">
<title>Node5</title>
<g id="a_node6"><a xlink:href="HSLAPixel_8h.html" target="_top" xlink:title=" ">
<polygon fill="none" stroke="#000000" points="102,-56.5 102,-75.5 177,-75.5 177,-56.5 102,-56.5"/>
<text text-anchor="middle" x="139.5" y="-63.5" font-family="Helvetica,sans-Serif" font-size="10.00" fill="#000000">HSLAPixel.h</text>
</a>
</g>
</g>
<!-- Node3&#45;&gt;Node5 -->
<g id="edge5" class="edge">
<title>Node3&#45;&gt;Node5</title>
<path fill="none" stroke="#191970" d="M107.2933,-112.2455C112.7178,-104.4564 120.4661,-93.3308 127.0033,-83.9439"/>
<polygon fill="#191970" stroke="#191970" points="129.9417,-85.849 132.7846,-75.6427 124.1975,-81.8485 129.9417,-85.849"/>
</g>
<!-- Node6 -->
<g id="node7" class="node">
<title>Node6</title>
<g id="a_node7"><a xlink:title=" ">
<polygon fill="none" stroke="#bfbfbf" points="71.5,-.5 71.5,-19.5 131.5,-19.5 131.5,-.5 71.5,-.5"/>
<text text-anchor="middle" x="101.5" y="-7.5" font-family="Helvetica,sans-Serif" font-size="10.00" fill="#000000">iostream</text>
</a>
</g>
</g>
<!-- Node5&#45;&gt;Node6 -->
<g id="edge6" class="edge">
<title>Node5&#45;&gt;Node6</title>
<path fill="none" stroke="#191970" d="M132.8809,-56.2455C127.5954,-48.4564 120.0459,-37.3308 113.6762,-27.9439"/>
<polygon fill="#191970" stroke="#191970" points="116.5545,-25.9522 108.0432,-19.6427 110.7621,-29.8827 116.5545,-25.9522"/>
</g>
<!-- Node7 -->
<g id="node8" class="node">
<title>Node7</title>
<g id="a_node8"><a xlink:title=" ">
<polygon fill="none" stroke="#bfbfbf" points="149.5,-.5 149.5,-19.5 205.5,-19.5 205.5,-.5 149.5,-.5"/>
<text text-anchor="middle" x="177.5" y="-7.5" font-family="Helvetica,sans-Serif" font-size="10.00" fill="#000000">sstream</text>
</a>
</g>
</g>
<!-- Node5&#45;&gt;Node7 -->
<g id="edge7" class="edge">
<title>Node5&#45;&gt;Node7</title>
<path fill="none" stroke="#191970" d="M146.1191,-56.2455C151.4046,-48.4564 158.9541,-37.3308 165.3238,-27.9439"/>
<polygon fill="#191970" stroke="#191970" points="168.2379,-29.8827 170.9568,-19.6427 162.4455,-25.9522 168.2379,-29.8827"/>
</g>
</g>
</svg>
