<?xml version="1.0" encoding="UTF-8" standalone="no"?>
<!DOCTYPE svg PUBLIC "-//W3C//DTD SVG 1.1//EN"
 "http://www.w3.org/Graphics/SVG/1.1/DTD/svg11.dtd">
<!-- Generated by graphviz version 2.40.1 (20161225.0304)
 -->
<!-- Title: line.h Pages: 1 -->
<svg width="240pt" height="84pt"
 viewBox="0.00 0.00 239.50 84.00" xmlns="http://www.w3.org/2000/svg" xmlns:xlink="http://www.w3.org/1999/xlink">
<g id="graph0" class="graph" transform="scale(1 1) rotate(0) translate(4 80)">
<title>line.h</title>
<!-- Node9 -->
<g id="node1" class="node">
<title>Node9</title>
<g id="a_node1"><a xlink:title="Declaration of the Line class.">
<polygon fill="#bfbfbf" stroke="#000000" points="84.5,-56.5 84.5,-75.5 128.5,-75.5 128.5,-56.5 84.5,-56.5"/>
<text text-anchor="middle" x="106.5" y="-63.5" font-family="Helvetica,sans-Serif" font-size="10.00" fill="#000000">line.h</text>
</a>
</g>
</g>
<!-- Node10 -->
<g id="node2" class="node">
<title>Node10</title>
<g id="a_node2"><a xlink:href="line_8cpp.html" target="_top" xlink:title="Implementation of the Line class.">
<polygon fill="none" stroke="#000000" points="0,-.5 0,-19.5 55,-19.5 55,-.5 0,-.5"/>
<text text-anchor="middle" x="27.5" y="-7.5" font-family="Helvetica,sans-Serif" font-size="10.00" fill="#000000">line.cpp</text>
</a>
</g>
</g>
<!-- Node9&#45;&gt;Node10 -->
<g id="edge1" class="edge">
<title>Node9&#45;&gt;Node10</title>
<path fill="none" stroke="#191970" d="M84.2244,-50.2097C70.3495,-40.3743 52.9485,-28.0394 41.1031,-19.6427"/>
<polygon fill="#191970" stroke="#191970" points="82.5569,-53.3178 92.7393,-56.2455 86.6051,-47.6071 82.5569,-53.3178"/>
</g>
<!-- Node11 -->
<g id="node3" class="node">
<title>Node11</title>
<g id="a_node3"><a xlink:href="shape_8cpp.html" target="_top" xlink:title="Implementation of the Shape class.">
<polygon fill="none" stroke="#000000" points="73.5,-.5 73.5,-19.5 139.5,-19.5 139.5,-.5 73.5,-.5"/>
<text text-anchor="middle" x="106.5" y="-7.5" font-family="Helvetica,sans-Serif" font-size="10.00" fill="#000000">shape.cpp</text>
</a>
</g>
</g>
<!-- Node9&#45;&gt;Node11 -->
<g id="edge2" class="edge">
<title>Node9&#45;&gt;Node11</title>
<path fill="none" stroke="#191970" d="M106.5,-46.1575C106.5,-37.155 106.5,-26.9199 106.5,-19.6427"/>
<polygon fill="#191970" stroke="#191970" points="103.0001,-46.2455 106.5,-56.2455 110.0001,-46.2456 103.0001,-46.2455"/>
</g>
<!-- Node12 -->
<g id="node4" class="node">
<title>Node12</title>
<g id="a_node4"><a xlink:href="triangle_8cpp.html" target="_top" xlink:title="Implementation of the Triangle class.">
<polygon fill="none" stroke="#000000" points="157.5,-.5 157.5,-19.5 231.5,-19.5 231.5,-.5 157.5,-.5"/>
<text text-anchor="middle" x="194.5" y="-7.5" font-family="Helvetica,sans-Serif" font-size="10.00" fill="#000000">triangle.cpp</text>
</a>
</g>
</g>
<!-- Node9&#45;&gt;Node12 -->
<g id="edge3" class="edge">
<title>Node9&#45;&gt;Node12</title>
<path fill="none" stroke="#191970" d="M130.4345,-50.769C146.0283,-40.8456 165.901,-28.1994 179.3472,-19.6427"/>
<polygon fill="#191970" stroke="#191970" points="128.386,-47.9239 121.8284,-56.2455 132.1441,-53.8296 128.386,-47.9239"/>
</g>
</g>
</svg>
