<?xml version="1.0" encoding="UTF-8" standalone="no"?>
<!DOCTYPE svg PUBLIC "-//W3C//DTD SVG 1.1//EN"
 "http://www.w3.org/Graphics/SVG/1.1/DTD/svg11.dtd">
<!-- Generated by graphviz version 2.40.1 (20161225.0304)
 -->
<!-- Title: main.cpp Pages: 1 -->
<svg width="251pt" height="364pt"
 viewBox="0.00 0.00 251.00 364.00" xmlns="http://www.w3.org/2000/svg" xmlns:xlink="http://www.w3.org/1999/xlink">
<g id="graph0" class="graph" transform="scale(1 1) rotate(0) translate(4 360)">
<title>main.cpp</title>
<!-- Node0 -->
<g id="node1" class="node">
<title>Node0</title>
<g id="a_node1"><a xlink:title="Provides a simple application that draws some stuff.">
<polygon fill="#bfbfbf" stroke="#000000" points="80,-336.5 80,-355.5 142,-355.5 142,-336.5 80,-336.5"/>
<text text-anchor="middle" x="111" y="-343.5" font-family="Helvetica,sans-Serif" font-size="10.00" fill="#000000">main.cpp</text>
</a>
</g>
</g>
<!-- Node1 -->
<g id="node2" class="node">
<title>Node1</title>
<g id="a_node2"><a xlink:href="PNG_8h.html" target="_top" xlink:title=" ">
<polygon fill="none" stroke="#000000" points="22,-112.5 22,-131.5 100,-131.5 100,-112.5 22,-112.5"/>
<text text-anchor="middle" x="61" y="-119.5" font-family="Helvetica,sans-Serif" font-size="10.00" fill="#000000">cs225/PNG.h</text>
</a>
</g>
</g>
<!-- Node0&#45;&gt;Node1 -->
<g id="edge1" class="edge">
<title>Node0&#45;&gt;Node1</title>
<path fill="none" stroke="#191970" d="M96.8041,-336.3097C85.0576,-327.7692 68.4937,-314.462 57,-300 39.5613,-278.0575 34.6328,-271.2321 28,-244 19.0494,-207.2523 37.1142,-164.6788 49.8713,-140.7859"/>
<polygon fill="#191970" stroke="#191970" points="53.0921,-142.1974 54.9195,-131.7613 46.983,-138.78 53.0921,-142.1974"/>
</g>
<!-- Node6 -->
<g id="node7" class="node">
<title>Node6</title>
<g id="a_node7"><a xlink:href="color_8h.html" target="_top" xlink:title="Provides a variety of colors for convenience.">
<polygon fill="none" stroke="#000000" points="37,-224.5 37,-243.5 85,-243.5 85,-224.5 37,-224.5"/>
<text text-anchor="middle" x="61" y="-231.5" font-family="Helvetica,sans-Serif" font-size="10.00" fill="#000000">color.h</text>
</a>
</g>
</g>
<!-- Node0&#45;&gt;Node6 -->
<g id="edge6" class="edge">
<title>Node0&#45;&gt;Node6</title>
<path fill="none" stroke="#191970" d="M97.3707,-336.3897C86.7927,-328.0844 72.8177,-315.0635 66,-300 59.485,-285.6053 58.5261,-267.6336 59.0343,-254.08"/>
<polygon fill="#191970" stroke="#191970" points="62.5393,-254.1215 59.7166,-243.9096 55.555,-253.6529 62.5393,-254.1215"/>
</g>
<!-- Node7 -->
<g id="node8" class="node">
<title>Node7</title>
<g id="a_node8"><a xlink:href="rectangle_8h.html" target="_top" xlink:title="Declaration of the Rectangle class.">
<polygon fill="none" stroke="#000000" points="75.5,-280.5 75.5,-299.5 146.5,-299.5 146.5,-280.5 75.5,-280.5"/>
<text text-anchor="middle" x="111" y="-287.5" font-family="Helvetica,sans-Serif" font-size="10.00" fill="#000000">rectangle.h</text>
</a>
</g>
</g>
<!-- Node0&#45;&gt;Node7 -->
<g id="edge8" class="edge">
<title>Node0&#45;&gt;Node7</title>
<path fill="none" stroke="#191970" d="M111,-336.2455C111,-328.9382 111,-318.6944 111,-309.7046"/>
<polygon fill="#191970" stroke="#191970" points="114.5001,-309.6426 111,-299.6427 107.5001,-309.6427 114.5001,-309.6426"/>
</g>
<!-- Node8 -->
<g id="node9" class="node">
<title>Node8</title>
<g id="a_node9"><a xlink:href="shape_8h.html" target="_top" xlink:title="Declaration of the Shape class.">
<polygon fill="none" stroke="#000000" points="116.5,-224.5 116.5,-243.5 171.5,-243.5 171.5,-224.5 116.5,-224.5"/>
<text text-anchor="middle" x="144" y="-231.5" font-family="Helvetica,sans-Serif" font-size="10.00" fill="#000000">shape.h</text>
</a>
</g>
</g>
<!-- Node0&#45;&gt;Node8 -->
<g id="edge13" class="edge">
<title>Node0&#45;&gt;Node8</title>
<path fill="none" stroke="#191970" d="M125.3737,-336.1853C136.0705,-327.9414 149.8409,-315.1035 156,-300 162.1677,-284.8754 157.9757,-266.5136 152.924,-253.001"/>
<polygon fill="#191970" stroke="#191970" points="156.1404,-251.6203 149.0507,-243.7471 149.6832,-254.3231 156.1404,-251.6203"/>
</g>
<!-- Node10 -->
<g id="node11" class="node">
<title>Node10</title>
<g id="a_node11"><a xlink:href="vector2_8h.html" target="_top" xlink:title="Declaration of the Vector2 class.">
<polygon fill="none" stroke="#000000" points="181,-168.5 181,-187.5 243,-187.5 243,-168.5 181,-168.5"/>
<text text-anchor="middle" x="212" y="-175.5" font-family="Helvetica,sans-Serif" font-size="10.00" fill="#000000">vector2.h</text>
</a>
</g>
</g>
<!-- Node0&#45;&gt;Node10 -->
<g id="edge14" class="edge">
<title>Node0&#45;&gt;Node10</title>
<path fill="none" stroke="#191970" d="M128.5422,-336.4557C141.9096,-328.3609 159.8581,-315.5917 171,-300 193.6334,-268.3273 204.4495,-223.2611 209.0502,-197.6998"/>
<polygon fill="#191970" stroke="#191970" points="212.5187,-198.178 210.7025,-187.74 205.613,-197.0323 212.5187,-198.178"/>
</g>
<!-- Node2 -->
<g id="node3" class="node">
<title>Node2</title>
<g id="a_node3"><a xlink:title=" ">
<polygon fill="none" stroke="#bfbfbf" points="0,-56.5 0,-75.5 44,-75.5 44,-56.5 0,-56.5"/>
<text text-anchor="middle" x="22" y="-63.5" font-family="Helvetica,sans-Serif" font-size="10.00" fill="#000000">string</text>
</a>
</g>
</g>
<!-- Node1&#45;&gt;Node2 -->
<g id="edge2" class="edge">
<title>Node1&#45;&gt;Node2</title>
<path fill="none" stroke="#191970" d="M54.2067,-112.2455C48.7822,-104.4564 41.0339,-93.3308 34.4967,-83.9439"/>
<polygon fill="#191970" stroke="#191970" points="37.3025,-81.8485 28.7154,-75.6427 31.5583,-85.849 37.3025,-81.8485"/>
</g>
<!-- Node3 -->
<g id="node4" class="node">
<title>Node3</title>
<g id="a_node4"><a xlink:href="HSLAPixel_8h.html" target="_top" xlink:title=" ">
<polygon fill="none" stroke="#000000" points="62.5,-56.5 62.5,-75.5 137.5,-75.5 137.5,-56.5 62.5,-56.5"/>
<text text-anchor="middle" x="100" y="-63.5" font-family="Helvetica,sans-Serif" font-size="10.00" fill="#000000">HSLAPixel.h</text>
</a>
</g>
</g>
<!-- Node1&#45;&gt;Node3 -->
<g id="edge3" class="edge">
<title>Node1&#45;&gt;Node3</title>
<path fill="none" stroke="#191970" d="M67.7933,-112.2455C73.2178,-104.4564 80.9661,-93.3308 87.5033,-83.9439"/>
<polygon fill="#191970" stroke="#191970" points="90.4417,-85.849 93.2846,-75.6427 84.6975,-81.8485 90.4417,-85.849"/>
</g>
<!-- Node4 -->
<g id="node5" class="node">
<title>Node4</title>
<g id="a_node5"><a xlink:title=" ">
<polygon fill="none" stroke="#bfbfbf" points="32,-.5 32,-19.5 92,-19.5 92,-.5 32,-.5"/>
<text text-anchor="middle" x="62" y="-7.5" font-family="Helvetica,sans-Serif" font-size="10.00" fill="#000000">iostream</text>
</a>
</g>
</g>
<!-- Node3&#45;&gt;Node4 -->
<g id="edge4" class="edge">
<title>Node3&#45;&gt;Node4</title>
<path fill="none" stroke="#191970" d="M93.3809,-56.2455C88.0954,-48.4564 80.5459,-37.3308 74.1762,-27.9439"/>
<polygon fill="#191970" stroke="#191970" points="77.0545,-25.9522 68.5432,-19.6427 71.2621,-29.8827 77.0545,-25.9522"/>
</g>
<!-- Node5 -->
<g id="node6" class="node">
<title>Node5</title>
<g id="a_node6"><a xlink:title=" ">
<polygon fill="none" stroke="#bfbfbf" points="110,-.5 110,-19.5 166,-19.5 166,-.5 110,-.5"/>
<text text-anchor="middle" x="138" y="-7.5" font-family="Helvetica,sans-Serif" font-size="10.00" fill="#000000">sstream</text>
</a>
</g>
</g>
<!-- Node3&#45;&gt;Node5 -->
<g id="edge5" class="edge">
<title>Node3&#45;&gt;Node5</title>
<path fill="none" stroke="#191970" d="M106.6191,-56.2455C111.9046,-48.4564 119.4541,-37.3308 125.8238,-27.9439"/>
<polygon fill="#191970" stroke="#191970" points="128.7379,-29.8827 131.4568,-19.6427 122.9455,-25.9522 128.7379,-29.8827"/>
</g>
<!-- Node6&#45;&gt;Node1 -->
<g id="edge7" class="edge">
<title>Node6&#45;&gt;Node1</title>
<path fill="none" stroke="#191970" d="M61,-224.4509C61,-206.184 61,-165.9553 61,-141.6976"/>
<polygon fill="#191970" stroke="#191970" points="64.5001,-141.5249 61,-131.5249 57.5001,-141.5249 64.5001,-141.5249"/>
</g>
<!-- Node7&#45;&gt;Node8 -->
<g id="edge9" class="edge">
<title>Node7&#45;&gt;Node8</title>
<path fill="none" stroke="#191970" d="M116.7482,-280.2455C121.2435,-272.617 127.6248,-261.7881 133.0825,-252.5267"/>
<polygon fill="#191970" stroke="#191970" points="136.2561,-254.035 138.3177,-243.6427 130.2253,-250.4811 136.2561,-254.035"/>
</g>
<!-- Node9 -->
<g id="node10" class="node">
<title>Node9</title>
<g id="a_node10"><a xlink:href="drawable_8h.html" target="_top" xlink:title="Declaration of the Drawable class.">
<polygon fill="none" stroke="#000000" points="90.5,-168.5 90.5,-187.5 161.5,-187.5 161.5,-168.5 90.5,-168.5"/>
<text text-anchor="middle" x="126" y="-175.5" font-family="Helvetica,sans-Serif" font-size="10.00" fill="#000000">drawable.h</text>
</a>
</g>
</g>
<!-- Node8&#45;&gt;Node9 -->
<g id="edge10" class="edge">
<title>Node8&#45;&gt;Node9</title>
<path fill="none" stroke="#191970" d="M140.8646,-224.2455C138.49,-216.8579 135.1507,-206.4689 132.2385,-197.4087"/>
<polygon fill="#191970" stroke="#191970" points="135.4917,-196.0919 129.0994,-187.6427 128.8275,-198.234 135.4917,-196.0919"/>
</g>
<!-- Node8&#45;&gt;Node10 -->
<g id="edge12" class="edge">
<title>Node8&#45;&gt;Node10</title>
<path fill="none" stroke="#191970" d="M155.8447,-224.2455C165.888,-215.9746 180.4995,-203.9416 192.3004,-194.2232"/>
<polygon fill="#191970" stroke="#191970" points="194.7967,-196.7015 200.291,-187.6427 190.3467,-191.298 194.7967,-196.7015"/>
</g>
<!-- Node9&#45;&gt;Node1 -->
<g id="edge11" class="edge">
<title>Node9&#45;&gt;Node1</title>
<path fill="none" stroke="#191970" d="M114.6779,-168.2455C105.0777,-159.9746 91.1108,-147.9416 79.8305,-138.2232"/>
<polygon fill="#191970" stroke="#191970" points="82.053,-135.5182 72.1924,-131.6427 77.484,-140.8214 82.053,-135.5182"/>
</g>
</g>
</svg>
