<?xml version="1.0" encoding="UTF-8" standalone="no"?>
<!DOCTYPE svg PUBLIC "-//W3C//DTD SVG 1.1//EN"
 "http://www.w3.org/Graphics/SVG/1.1/DTD/svg11.dtd">
<!-- Generated by graphviz version 2.40.1 (20161225.0304)
 -->
<!-- Title: cs225/PNG.cpp Pages: 1 -->
<!--zoomable 196 -->
<svg id="main" version="1.1" xmlns="http://www.w3.org/2000/svg" xmlns:xlink="http://www.w3.org/1999/xlink" xml:space="preserve" onload="init(evt)">
<style type="text/css"><![CDATA[
.edge:hover path { stroke: red; }
.edge:hover polygon { stroke: red; fill: red; }
]]></style>
<script type="text/javascript"><![CDATA[
var edges = document.getElementsByTagName('g');
if (edges && edges.length) {
  for (var i=0;i<edges.length;i++) {
    if (edges[i].id.substr(0,4)=='edge') {
      edges[i].setAttribute('class','edge');
    }
  }
}
]]></script>
        <defs>
                <circle id="rim" cx="0" cy="0" r="7"/>
                <circle id="rim2" cx="0" cy="0" r="3.5"/>
                <g id="zoomPlus">
                        <use xlink:href="#rim" fill="#404040">
                                <set attributeName="fill" to="#808080" begin="zoomplus.mouseover" end="zoomplus.mouseout"/>
                        </use>
                        <path d="M-4,0h8M0,-4v8" fill="none" stroke="white" stroke-width="1.5" pointer-events="none"/>
                </g>
                <g id="zoomMin">
                        <use xlink:href="#rim" fill="#404040">
                                <set attributeName="fill" to="#808080" begin="zoomminus.mouseover" end="zoomminus.mouseout"/>
                        </use>
                        <path d="M-4,0h8" fill="none" stroke="white" stroke-width="1.5" pointer-events="none"/>
                </g>
                <g id="dirArrow">
                        <path fill="none" stroke="white" stroke-width="1.5" d="M0,-3.0v7 M-2.5,-0.5L0,-3.0L2.5,-0.5"/>
                </g>
               <g id="resetDef">
                       <use xlink:href="#rim2" fill="#404040">
                               <set attributeName="fill" to="#808080" begin="reset.mouseover" end="reset.mouseout"/>
                       </use>
               </g>
        </defs>

<script type="text/javascript">
var viewWidth = 596;
var viewHeight = 196;
var sectionId = 'dynsection-0';
</script>
<script xlink:href="svgpan.js"/>
<svg id="graph" class="graph">
<g id="viewport">
<title>cs225/PNG.cpp</title>
<!-- Node0 -->
<g id="node1" class="node">
<title>Node0</title>
<g id="a_node1"><a xlink:title="Implementation of a simple PNG class using HSLAPixels and the lodepng PNG library.">
<polygon fill="#bfbfbf" stroke="#000000" points="149.2857,-168.5 149.2857,-187.5 238.2857,-187.5 238.2857,-168.5 149.2857,-168.5"/>
<text text-anchor="middle" x="193.7857" y="-175.5" font-family="Helvetica,sans-Serif" font-size="10.00" fill="#000000">cs225/PNG.cpp</text>
</a>
</g>
</g>
<!-- Node1 -->
<g id="node2" class="node">
<title>Node1</title>
<g id="a_node2"><a xlink:title=" ">
<polygon fill="none" stroke="#bfbfbf" points="100.7857,-.5 100.7857,-19.5 160.7857,-19.5 160.7857,-.5 100.7857,-.5"/>
<text text-anchor="middle" x="130.7857" y="-7.5" font-family="Helvetica,sans-Serif" font-size="10.00" fill="#000000">iostream</text>
</a>
</g>
</g>
<!-- Node0&#45;&gt;Node1 -->
<g id="edge1" class="edge">
<title>Node0&#45;&gt;Node1</title>
<path fill="none" stroke="#191970" d="M148.8647,-173.1376C99.7886,-166.7907 25.8576,-153.8366 8.7857,-132 -24.871,-88.9497 51.397,-45.3012 98.0118,-23.7694"/>
<polygon fill="#191970" stroke="#191970" points="99.4973,-26.939 107.1783,-19.6415 96.623,-20.5563 99.4973,-26.939"/>
</g>
<!-- Node2 -->
<g id="node3" class="node">
<title>Node2</title>
<g id="a_node3"><a xlink:title=" ">
<polygon fill="none" stroke="#bfbfbf" points="84.7857,-56.5 84.7857,-75.5 128.7857,-75.5 128.7857,-56.5 84.7857,-56.5"/>
<text text-anchor="middle" x="106.7857" y="-63.5" font-family="Helvetica,sans-Serif" font-size="10.00" fill="#000000">string</text>
</a>
</g>
</g>
<!-- Node0&#45;&gt;Node2 -->
<g id="edge2" class="edge">
<title>Node0&#45;&gt;Node2</title>
<path fill="none" stroke="#191970" d="M149.0905,-172.6104C102.1252,-165.9199 32.8582,-152.7834 16.7857,-132 -3.0333,-106.3719 41.4297,-86.0663 74.6593,-75.0632"/>
<polygon fill="#191970" stroke="#191970" points="76.0432,-78.2968 84.5277,-71.9515 73.938,-71.6208 76.0432,-78.2968"/>
</g>
<!-- Node3 -->
<g id="node4" class="node">
<title>Node3</title>
<g id="a_node4"><a xlink:title=" ">
<polygon fill="none" stroke="#bfbfbf" points="26.2857,-112.5 26.2857,-131.5 73.2857,-131.5 73.2857,-112.5 26.2857,-112.5"/>
<text text-anchor="middle" x="49.7857" y="-119.5" font-family="Helvetica,sans-Serif" font-size="10.00" fill="#000000">vector</text>
</a>
</g>
</g>
<!-- Node0&#45;&gt;Node3 -->
<g id="edge3" class="edge">
<title>Node0&#45;&gt;Node3</title>
<path fill="none" stroke="#191970" d="M169.0312,-168.3733C145.3583,-159.1671 109.4853,-145.2165 83.2683,-135.021"/>
<polygon fill="#191970" stroke="#191970" points="84.3273,-131.6775 73.7387,-131.315 81.7902,-138.2016 84.3273,-131.6775"/>
</g>
<!-- Node4 -->
<g id="node5" class="node">
<title>Node4</title>
<g id="a_node5"><a xlink:title=" ">
<polygon fill="none" stroke="#bfbfbf" points="91.7857,-112.5 91.7857,-131.5 143.7857,-131.5 143.7857,-112.5 91.7857,-112.5"/>
<text text-anchor="middle" x="117.7857" y="-119.5" font-family="Helvetica,sans-Serif" font-size="10.00" fill="#000000">cassert</text>
</a>
</g>
</g>
<!-- Node0&#45;&gt;Node4 -->
<g id="edge4" class="edge">
<title>Node0&#45;&gt;Node4</title>
<path fill="none" stroke="#191970" d="M180.5475,-168.2455C169.1048,-159.814 152.3561,-147.4729 139.0383,-137.6598"/>
<polygon fill="#191970" stroke="#191970" points="140.999,-134.757 130.8722,-131.6427 136.8466,-140.3924 140.999,-134.757"/>
</g>
<!-- Node5 -->
<g id="node6" class="node">
<title>Node5</title>
<g id="a_node6"><a xlink:title=" ">
<polygon fill="none" stroke="#bfbfbf" points="161.7857,-112.5 161.7857,-131.5 225.7857,-131.5 225.7857,-112.5 161.7857,-112.5"/>
<text text-anchor="middle" x="193.7857" y="-119.5" font-family="Helvetica,sans-Serif" font-size="10.00" fill="#000000">algorithm</text>
</a>
</g>
</g>
<!-- Node0&#45;&gt;Node5 -->
<g id="edge5" class="edge">
<title>Node0&#45;&gt;Node5</title>
<path fill="none" stroke="#191970" d="M193.7857,-168.2455C193.7857,-160.9382 193.7857,-150.6944 193.7857,-141.7046"/>
<polygon fill="#191970" stroke="#191970" points="197.2858,-141.6426 193.7857,-131.6427 190.2858,-141.6427 197.2858,-141.6426"/>
</g>
<!-- Node6 -->
<g id="node7" class="node">
<title>Node6</title>
<g id="a_node7"><a xlink:title=" ">
<polygon fill="none" stroke="#bfbfbf" points="244.2857,-112.5 244.2857,-131.5 309.2857,-131.5 309.2857,-112.5 244.2857,-112.5"/>
<text text-anchor="middle" x="276.7857" y="-119.5" font-family="Helvetica,sans-Serif" font-size="10.00" fill="#000000">functional</text>
</a>
</g>
</g>
<!-- Node0&#45;&gt;Node6 -->
<g id="edge6" class="edge">
<title>Node0&#45;&gt;Node6</title>
<path fill="none" stroke="#191970" d="M208.2432,-168.2455C220.859,-159.7337 239.3802,-147.2375 253.9903,-137.3801"/>
<polygon fill="#191970" stroke="#191970" points="256.1618,-140.1371 262.4939,-131.6427 252.2467,-134.3343 256.1618,-140.1371"/>
</g>
<!-- Node7 -->
<g id="node8" class="node">
<title>Node7</title>
<g id="a_node8"><a xlink:title=" ">
<polygon fill="none" stroke="#bfbfbf" points="327.2857,-112.5 327.2857,-131.5 434.2857,-131.5 434.2857,-112.5 327.2857,-112.5"/>
<text text-anchor="middle" x="380.7857" y="-119.5" font-family="Helvetica,sans-Serif" font-size="10.00" fill="#000000">lodepng/lodepng.h</text>
</a>
</g>
</g>
<!-- Node0&#45;&gt;Node7 -->
<g id="edge7" class="edge">
<title>Node0&#45;&gt;Node7</title>
<path fill="none" stroke="#191970" d="M225.9322,-168.3733C257.2967,-158.9807 305.1522,-144.6496 339.3574,-134.4064"/>
<polygon fill="#191970" stroke="#191970" points="340.4832,-137.7229 349.0588,-131.5011 338.475,-131.0171 340.4832,-137.7229"/>
</g>
<!-- Node8 -->
<g id="node9" class="node">
<title>Node8</title>
<g id="a_node9"><a xlink:href="PNG_8h.html" target="_top" xlink:title=" ">
<polygon fill="none" stroke="#000000" points="452.2857,-112.5 452.2857,-131.5 499.2857,-131.5 499.2857,-112.5 452.2857,-112.5"/>
<text text-anchor="middle" x="475.7857" y="-119.5" font-family="Helvetica,sans-Serif" font-size="10.00" fill="#000000">PNG.h</text>
</a>
</g>
</g>
<!-- Node0&#45;&gt;Node8 -->
<g id="edge8" class="edge">
<title>Node0&#45;&gt;Node8</title>
<path fill="none" stroke="#191970" d="M238.6337,-171.2612C286.6789,-163.6991 365.3077,-150.3384 442.2228,-131.92"/>
<polygon fill="#191970" stroke="#191970" points="443.1866,-135.2878 452.0798,-129.5291 441.5365,-128.4851 443.1866,-135.2878"/>
</g>
<!-- Node11 -->
<g id="node12" class="node">
<title>Node11</title>
<g id="a_node12"><a xlink:href="RGB__HSL_8h.html" target="_top" xlink:title=" ">
<polygon fill="none" stroke="#000000" points="517.2857,-112.5 517.2857,-131.5 588.2857,-131.5 588.2857,-112.5 517.2857,-112.5"/>
<text text-anchor="middle" x="552.7857" y="-119.5" font-family="Helvetica,sans-Serif" font-size="10.00" fill="#000000">RGB_HSL.h</text>
</a>
</g>
</g>
<!-- Node0&#45;&gt;Node11 -->
<g id="edge13" class="edge">
<title>Node0&#45;&gt;Node11</title>
<path fill="none" stroke="#191970" d="M238.3086,-172.617C297.5196,-165.2119 405.6348,-150.8359 506.7402,-132.284"/>
<polygon fill="#191970" stroke="#191970" points="507.6203,-135.6805 516.8151,-130.4168 506.3447,-128.7977 507.6203,-135.6805"/>
</g>
<!-- Node8&#45;&gt;Node2 -->
<g id="edge9" class="edge">
<title>Node8&#45;&gt;Node2</title>
<path fill="none" stroke="#191970" d="M452.1108,-114.3362C448.9942,-113.4718 445.8269,-112.6646 442.7857,-112 332.6337,-87.9286 199.2604,-74.1297 139.0468,-68.7045"/>
<polygon fill="#191970" stroke="#191970" points="139.2824,-65.2118 129.013,-67.8175 138.6659,-72.1846 139.2824,-65.2118"/>
</g>
<!-- Node9 -->
<g id="node10" class="node">
<title>Node9</title>
<g id="a_node10"><a xlink:href="HSLAPixel_8h.html" target="_top" xlink:title=" ">
<polygon fill="none" stroke="#000000" points="340.2857,-56.5 340.2857,-75.5 415.2857,-75.5 415.2857,-56.5 340.2857,-56.5"/>
<text text-anchor="middle" x="377.7857" y="-63.5" font-family="Helvetica,sans-Serif" font-size="10.00" fill="#000000">HSLAPixel.h</text>
</a>
</g>
</g>
<!-- Node8&#45;&gt;Node9 -->
<g id="edge10" class="edge">
<title>Node8&#45;&gt;Node9</title>
<path fill="none" stroke="#191970" d="M458.7154,-112.2455C443.5387,-103.5731 421.1236,-90.7645 403.7294,-80.825"/>
<polygon fill="#191970" stroke="#191970" points="405.0794,-77.5653 394.6604,-75.6427 401.6064,-83.643 405.0794,-77.5653"/>
</g>
<!-- Node9&#45;&gt;Node1 -->
<g id="edge11" class="edge">
<title>Node9&#45;&gt;Node1</title>
<path fill="none" stroke="#191970" d="M340.2717,-57.4948C294.5058,-47.1187 217.4651,-29.652 170.6557,-19.0394"/>
<polygon fill="#191970" stroke="#191970" points="171.3908,-15.6172 160.8644,-16.8194 169.843,-22.444 171.3908,-15.6172"/>
</g>
<!-- Node10 -->
<g id="node11" class="node">
<title>Node10</title>
<g id="a_node11"><a xlink:title=" ">
<polygon fill="none" stroke="#bfbfbf" points="349.7857,-.5 349.7857,-19.5 405.7857,-19.5 405.7857,-.5 349.7857,-.5"/>
<text text-anchor="middle" x="377.7857" y="-7.5" font-family="Helvetica,sans-Serif" font-size="10.00" fill="#000000">sstream</text>
</a>
</g>
</g>
<!-- Node9&#45;&gt;Node10 -->
<g id="edge12" class="edge">
<title>Node9&#45;&gt;Node10</title>
<path fill="none" stroke="#191970" d="M377.7857,-56.2455C377.7857,-48.9382 377.7857,-38.6944 377.7857,-29.7046"/>
<polygon fill="#191970" stroke="#191970" points="381.2858,-29.6426 377.7857,-19.6427 374.2858,-29.6427 381.2858,-29.6426"/>
</g>
<!-- Node12 -->
<g id="node13" class="node">
<title>Node12</title>
<g id="a_node13"><a xlink:title=" ">
<polygon fill="none" stroke="#bfbfbf" points="529.2857,-56.5 529.2857,-75.5 576.2857,-75.5 576.2857,-56.5 529.2857,-56.5"/>
<text text-anchor="middle" x="552.7857" y="-63.5" font-family="Helvetica,sans-Serif" font-size="10.00" fill="#000000">cmath</text>
</a>
</g>
</g>
<!-- Node11&#45;&gt;Node12 -->
<g id="edge14" class="edge">
<title>Node11&#45;&gt;Node12</title>
<path fill="none" stroke="#191970" d="M552.7857,-112.2455C552.7857,-104.9382 552.7857,-94.6944 552.7857,-85.7046"/>
<polygon fill="#191970" stroke="#191970" points="556.2858,-85.6426 552.7857,-75.6427 549.2858,-85.6427 556.2858,-85.6426"/>
</g>
</g>
</svg>
        <g id="navigator" transform="translate(0 0)" fill="#404254">
                <rect fill="#f2f5e9" fill-opacity="0.5" stroke="#606060" stroke-width=".5" x="0" y="0" width="60" height="60"/>
                <use id="zoomplus" xlink:href="#zoomPlus" x="17" y="9" onmousedown="handleZoom(evt,'in')"/>
                <use id="zoomminus" xlink:href="#zoomMin" x="42" y="9" onmousedown="handleZoom(evt,'out')"/>
                <use id="reset" xlink:href="#resetDef" x="30" y="36" onmousedown="handleReset()"/>
                <g id="arrowUp" xlink:href="#dirArrow" transform="translate(30 24)" onmousedown="handlePan(0,-1)">
                  <use xlink:href="#rim" fill="#404040">
                        <set attributeName="fill" to="#808080" begin="arrowUp.mouseover" end="arrowUp.mouseout"/>
                  </use>
                  <path fill="none" stroke="white" stroke-width="1.5" d="M0,-3.0v7 M-2.5,-0.5L0,-3.0L2.5,-0.5"/>
                </g>
                <g id="arrowRight" xlink:href="#dirArrow" transform="rotate(90) translate(36 -43)" onmousedown="handlePan(1,0)">
                  <use xlink:href="#rim" fill="#404040">
                        <set attributeName="fill" to="#808080" begin="arrowRight.mouseover" end="arrowRight.mouseout"/>
                  </use>
                  <path fill="none" stroke="white" stroke-width="1.5" d="M0,-3.0v7 M-2.5,-0.5L0,-3.0L2.5,-0.5"/>
                </g>
                <g id="arrowDown" xlink:href="#dirArrow" transform="rotate(180) translate(-30 -48)" onmousedown="handlePan(0,1)">
                  <use xlink:href="#rim" fill="#404040">
                        <set attributeName="fill" to="#808080" begin="arrowDown.mouseover" end="arrowDown.mouseout"/>
                  </use>
                  <path fill="none" stroke="white" stroke-width="1.5" d="M0,-3.0v7 M-2.5,-0.5L0,-3.0L2.5,-0.5"/>
                </g>
                <g id="arrowLeft" xlink:href="#dirArrow" transform="rotate(270) translate(-36 17)" onmousedown="handlePan(-1,0)">
                  <use xlink:href="#rim" fill="#404040">
                        <set attributeName="fill" to="#808080" begin="arrowLeft.mouseover" end="arrowLeft.mouseout"/>
                  </use>
                  <path fill="none" stroke="white" stroke-width="1.5" d="M0,-3.0v7 M-2.5,-0.5L0,-3.0L2.5,-0.5"/>
                </g>
        </g>
        <svg viewBox="0 0 15 15" width="100%" height="30px" preserveAspectRatio="xMaxYMin meet">
         <g id="arrow_out" transform="scale(0.3 0.3)">
          <a xlink:href="PNG_8cpp__incl_org.svg" target="_base">
           <rect id="button" ry="5" rx="5" y="6" x="6" height="38" width="38"
                fill="#f2f5e9" fill-opacity="0.5" stroke="#606060" stroke-width="1.0"/>
           <path id="arrow"
             d="M 11.500037,31.436501 C 11.940474,20.09759 22.043105,11.32322 32.158766,21.979434 L 37.068811,17.246167 C 37.068811,17.246167 37.088388,32 37.088388,32 L 22.160133,31.978069 C 22.160133,31.978069 26.997745,27.140456 26.997745,27.140456 C 18.528582,18.264221 13.291696,25.230495 11.500037,31.436501 z"
             style="fill:#404040;"/>
          </a>
         </g>
        </svg>
</svg>
