<?xml version="1.0" encoding="UTF-8" standalone="no"?>
<!DOCTYPE svg PUBLIC "-//W3C//DTD SVG 1.1//EN"
 "http://www.w3.org/Graphics/SVG/1.1/DTD/svg11.dtd">
<!-- Generated by graphviz version 2.40.1 (20161225.0304)
 -->
<!-- Title: rectangle.cpp Pages: 1 -->
<svg width="211pt" height="364pt"
 viewBox="0.00 0.00 211.00 364.00" xmlns="http://www.w3.org/2000/svg" xmlns:xlink="http://www.w3.org/1999/xlink">
<g id="graph0" class="graph" transform="scale(1 1) rotate(0) translate(4 360)">
<title>rectangle.cpp</title>
<!-- Node0 -->
<g id="node1" class="node">
<title>Node0</title>
<g id="a_node1"><a xlink:title="Implementation of the Rectangle class.">
<polygon fill="#bfbfbf" stroke="#000000" points="99.5,-336.5 99.5,-355.5 182.5,-355.5 182.5,-336.5 99.5,-336.5"/>
<text text-anchor="middle" x="141" y="-343.5" font-family="Helvetica,sans-Serif" font-size="10.00" fill="#000000">rectangle.cpp</text>
</a>
</g>
</g>
<!-- Node1 -->
<g id="node2" class="node">
<title>Node1</title>
<g id="a_node2"><a xlink:href="rectangle_8h.html" target="_top" xlink:title="Declaration of the Rectangle class.">
<polygon fill="none" stroke="#000000" points="67.5,-280.5 67.5,-299.5 138.5,-299.5 138.5,-280.5 67.5,-280.5"/>
<text text-anchor="middle" x="103" y="-287.5" font-family="Helvetica,sans-Serif" font-size="10.00" fill="#000000">rectangle.h</text>
</a>
</g>
</g>
<!-- Node0&#45;&gt;Node1 -->
<g id="edge1" class="edge">
<title>Node0&#45;&gt;Node1</title>
<path fill="none" stroke="#191970" d="M134.3809,-336.2455C129.0954,-328.4564 121.5459,-317.3308 115.1762,-307.9439"/>
<polygon fill="#191970" stroke="#191970" points="118.0545,-305.9522 109.5432,-299.6427 112.2621,-309.8827 118.0545,-305.9522"/>
</g>
<!-- Node10 -->
<g id="node11" class="node">
<title>Node10</title>
<g id="a_node11"><a xlink:title=" ">
<polygon fill="none" stroke="#bfbfbf" points="157,-280.5 157,-299.5 203,-299.5 203,-280.5 157,-280.5"/>
<text text-anchor="middle" x="180" y="-287.5" font-family="Helvetica,sans-Serif" font-size="10.00" fill="#000000">cstdio</text>
</a>
</g>
</g>
<!-- Node0&#45;&gt;Node10 -->
<g id="edge10" class="edge">
<title>Node0&#45;&gt;Node10</title>
<path fill="none" stroke="#191970" d="M147.7933,-336.2455C153.2178,-328.4564 160.9661,-317.3308 167.5033,-307.9439"/>
<polygon fill="#191970" stroke="#191970" points="170.4417,-309.849 173.2846,-299.6427 164.6975,-305.8485 170.4417,-309.849"/>
</g>
<!-- Node2 -->
<g id="node3" class="node">
<title>Node2</title>
<g id="a_node3"><a xlink:href="shape_8h.html" target="_top" xlink:title="Declaration of the Shape class.">
<polygon fill="none" stroke="#000000" points="75.5,-224.5 75.5,-243.5 130.5,-243.5 130.5,-224.5 75.5,-224.5"/>
<text text-anchor="middle" x="103" y="-231.5" font-family="Helvetica,sans-Serif" font-size="10.00" fill="#000000">shape.h</text>
</a>
</g>
</g>
<!-- Node1&#45;&gt;Node2 -->
<g id="edge2" class="edge">
<title>Node1&#45;&gt;Node2</title>
<path fill="none" stroke="#191970" d="M103,-280.2455C103,-272.9382 103,-262.6944 103,-253.7046"/>
<polygon fill="#191970" stroke="#191970" points="106.5001,-253.6426 103,-243.6427 99.5001,-253.6427 106.5001,-253.6426"/>
</g>
<!-- Node3 -->
<g id="node4" class="node">
<title>Node3</title>
<g id="a_node4"><a xlink:href="drawable_8h.html" target="_top" xlink:title="Declaration of the Drawable class.">
<polygon fill="none" stroke="#000000" points="25.5,-168.5 25.5,-187.5 96.5,-187.5 96.5,-168.5 25.5,-168.5"/>
<text text-anchor="middle" x="61" y="-175.5" font-family="Helvetica,sans-Serif" font-size="10.00" fill="#000000">drawable.h</text>
</a>
</g>
</g>
<!-- Node2&#45;&gt;Node3 -->
<g id="edge3" class="edge">
<title>Node2&#45;&gt;Node3</title>
<path fill="none" stroke="#191970" d="M95.6842,-224.2455C89.7821,-216.3761 81.3258,-205.101 74.2406,-195.6542"/>
<polygon fill="#191970" stroke="#191970" points="77.0321,-193.5427 68.232,-187.6427 71.432,-197.7427 77.0321,-193.5427"/>
</g>
<!-- Node9 -->
<g id="node10" class="node">
<title>Node9</title>
<g id="a_node10"><a xlink:href="vector2_8h.html" target="_top" xlink:title="Declaration of the Vector2 class.">
<polygon fill="none" stroke="#000000" points="115,-168.5 115,-187.5 177,-187.5 177,-168.5 115,-168.5"/>
<text text-anchor="middle" x="146" y="-175.5" font-family="Helvetica,sans-Serif" font-size="10.00" fill="#000000">vector2.h</text>
</a>
</g>
</g>
<!-- Node2&#45;&gt;Node9 -->
<g id="edge9" class="edge">
<title>Node2&#45;&gt;Node9</title>
<path fill="none" stroke="#191970" d="M110.49,-224.2455C116.5326,-216.3761 125.1903,-205.101 132.4441,-195.6542"/>
<polygon fill="#191970" stroke="#191970" points="135.2815,-197.7058 138.5958,-187.6427 129.7295,-193.4426 135.2815,-197.7058"/>
</g>
<!-- Node4 -->
<g id="node5" class="node">
<title>Node4</title>
<g id="a_node5"><a xlink:href="PNG_8h.html" target="_top" xlink:title=" ">
<polygon fill="none" stroke="#000000" points="22,-112.5 22,-131.5 100,-131.5 100,-112.5 22,-112.5"/>
<text text-anchor="middle" x="61" y="-119.5" font-family="Helvetica,sans-Serif" font-size="10.00" fill="#000000">cs225/PNG.h</text>
</a>
</g>
</g>
<!-- Node3&#45;&gt;Node4 -->
<g id="edge4" class="edge">
<title>Node3&#45;&gt;Node4</title>
<path fill="none" stroke="#191970" d="M61,-168.2455C61,-160.9382 61,-150.6944 61,-141.7046"/>
<polygon fill="#191970" stroke="#191970" points="64.5001,-141.6426 61,-131.6427 57.5001,-141.6427 64.5001,-141.6426"/>
</g>
<!-- Node5 -->
<g id="node6" class="node">
<title>Node5</title>
<g id="a_node6"><a xlink:title=" ">
<polygon fill="none" stroke="#bfbfbf" points="0,-56.5 0,-75.5 44,-75.5 44,-56.5 0,-56.5"/>
<text text-anchor="middle" x="22" y="-63.5" font-family="Helvetica,sans-Serif" font-size="10.00" fill="#000000">string</text>
</a>
</g>
</g>
<!-- Node4&#45;&gt;Node5 -->
<g id="edge5" class="edge">
<title>Node4&#45;&gt;Node5</title>
<path fill="none" stroke="#191970" d="M54.2067,-112.2455C48.7822,-104.4564 41.0339,-93.3308 34.4967,-83.9439"/>
<polygon fill="#191970" stroke="#191970" points="37.3025,-81.8485 28.7154,-75.6427 31.5583,-85.849 37.3025,-81.8485"/>
</g>
<!-- Node6 -->
<g id="node7" class="node">
<title>Node6</title>
<g id="a_node7"><a xlink:href="HSLAPixel_8h.html" target="_top" xlink:title=" ">
<polygon fill="none" stroke="#000000" points="62.5,-56.5 62.5,-75.5 137.5,-75.5 137.5,-56.5 62.5,-56.5"/>
<text text-anchor="middle" x="100" y="-63.5" font-family="Helvetica,sans-Serif" font-size="10.00" fill="#000000">HSLAPixel.h</text>
</a>
</g>
</g>
<!-- Node4&#45;&gt;Node6 -->
<g id="edge6" class="edge">
<title>Node4&#45;&gt;Node6</title>
<path fill="none" stroke="#191970" d="M67.7933,-112.2455C73.2178,-104.4564 80.9661,-93.3308 87.5033,-83.9439"/>
<polygon fill="#191970" stroke="#191970" points="90.4417,-85.849 93.2846,-75.6427 84.6975,-81.8485 90.4417,-85.849"/>
</g>
<!-- Node7 -->
<g id="node8" class="node">
<title>Node7</title>
<g id="a_node8"><a xlink:title=" ">
<polygon fill="none" stroke="#bfbfbf" points="32,-.5 32,-19.5 92,-19.5 92,-.5 32,-.5"/>
<text text-anchor="middle" x="62" y="-7.5" font-family="Helvetica,sans-Serif" font-size="10.00" fill="#000000">iostream</text>
</a>
</g>
</g>
<!-- Node6&#45;&gt;Node7 -->
<g id="edge7" class="edge">
<title>Node6&#45;&gt;Node7</title>
<path fill="none" stroke="#191970" d="M93.3809,-56.2455C88.0954,-48.4564 80.5459,-37.3308 74.1762,-27.9439"/>
<polygon fill="#191970" stroke="#191970" points="77.0545,-25.9522 68.5432,-19.6427 71.2621,-29.8827 77.0545,-25.9522"/>
</g>
<!-- Node8 -->
<g id="node9" class="node">
<title>Node8</title>
<g id="a_node9"><a xlink:title=" ">
<polygon fill="none" stroke="#bfbfbf" points="110,-.5 110,-19.5 166,-19.5 166,-.5 110,-.5"/>
<text text-anchor="middle" x="138" y="-7.5" font-family="Helvetica,sans-Serif" font-size="10.00" fill="#000000">sstream</text>
</a>
</g>
</g>
<!-- Node6&#45;&gt;Node8 -->
<g id="edge8" class="edge">
<title>Node6&#45;&gt;Node8</title>
<path fill="none" stroke="#191970" d="M106.6191,-56.2455C111.9046,-48.4564 119.4541,-37.3308 125.8238,-27.9439"/>
<polygon fill="#191970" stroke="#191970" points="128.7379,-29.8827 131.4568,-19.6427 122.9455,-25.9522 128.7379,-29.8827"/>
</g>
</g>
</svg>
