<?xml version="1.0" encoding="UTF-8" standalone="no"?>
<!DOCTYPE svg PUBLIC "-//W3C//DTD SVG 1.1//EN"
 "http://www.w3.org/Graphics/SVG/1.1/DTD/svg11.dtd">
<!-- Generated by graphviz version 2.40.1 (20161225.0304)
 -->
<!-- Title: rectangle.h Pages: 1 -->
<svg width="434pt" height="140pt"
 viewBox="0.00 0.00 434.00 140.00" xmlns="http://www.w3.org/2000/svg" xmlns:xlink="http://www.w3.org/1999/xlink">
<g id="graph0" class="graph" transform="scale(1 1) rotate(0) translate(4 136)">
<title>rectangle.h</title>
<!-- Node9 -->
<g id="node1" class="node">
<title>Node9</title>
<g id="a_node1"><a xlink:title="Declaration of the Rectangle class.">
<polygon fill="#bfbfbf" stroke="#000000" points="170.5,-112.5 170.5,-131.5 241.5,-131.5 241.5,-112.5 170.5,-112.5"/>
<text text-anchor="middle" x="206" y="-119.5" font-family="Helvetica,sans-Serif" font-size="10.00" fill="#000000">rectangle.h</text>
</a>
</g>
</g>
<!-- Node10 -->
<g id="node2" class="node">
<title>Node10</title>
<g id="a_node2"><a xlink:href="flower_8cpp.html" target="_top" xlink:title="Implementation of the Flower class.">
<polygon fill="none" stroke="#000000" points="0,-56.5 0,-75.5 66,-75.5 66,-56.5 0,-56.5"/>
<text text-anchor="middle" x="33" y="-63.5" font-family="Helvetica,sans-Serif" font-size="10.00" fill="#000000">flower.cpp</text>
</a>
</g>
</g>
<!-- Node9&#45;&gt;Node10 -->
<g id="edge1" class="edge">
<title>Node9&#45;&gt;Node10</title>
<path fill="none" stroke="#191970" d="M166.4277,-109.1905C134.7329,-98.9309 90.9832,-84.7691 62.3517,-75.5011"/>
<polygon fill="#191970" stroke="#191970" points="165.6684,-112.6234 176.2602,-112.3733 167.8242,-105.9636 165.6684,-112.6234"/>
</g>
<!-- Node11 -->
<g id="node3" class="node">
<title>Node11</title>
<g id="a_node3"><a xlink:href="main_8cpp.html" target="_top" xlink:title="Provides a simple application that draws some stuff.">
<polygon fill="none" stroke="#000000" points="84,-56.5 84,-75.5 146,-75.5 146,-56.5 84,-56.5"/>
<text text-anchor="middle" x="115" y="-63.5" font-family="Helvetica,sans-Serif" font-size="10.00" fill="#000000">main.cpp</text>
</a>
</g>
</g>
<!-- Node9&#45;&gt;Node11 -->
<g id="edge2" class="edge">
<title>Node9&#45;&gt;Node11</title>
<path fill="none" stroke="#191970" d="M181.2496,-106.769C165.1242,-96.8456 144.574,-84.1994 130.6693,-75.6427"/>
<polygon fill="#191970" stroke="#191970" points="179.7981,-109.9853 190.149,-112.2455 183.4668,-104.0237 179.7981,-109.9853"/>
</g>
<!-- Node12 -->
<g id="node4" class="node">
<title>Node12</title>
<g id="a_node4"><a xlink:href="rectangle_8cpp.html" target="_top" xlink:title="Implementation of the Rectangle class.">
<polygon fill="none" stroke="#000000" points="164.5,-56.5 164.5,-75.5 247.5,-75.5 247.5,-56.5 164.5,-56.5"/>
<text text-anchor="middle" x="206" y="-63.5" font-family="Helvetica,sans-Serif" font-size="10.00" fill="#000000">rectangle.cpp</text>
</a>
</g>
</g>
<!-- Node9&#45;&gt;Node12 -->
<g id="edge3" class="edge">
<title>Node9&#45;&gt;Node12</title>
<path fill="none" stroke="#191970" d="M206,-102.1575C206,-93.155 206,-82.9199 206,-75.6427"/>
<polygon fill="#191970" stroke="#191970" points="202.5001,-102.2455 206,-112.2455 209.5001,-102.2456 202.5001,-102.2455"/>
</g>
<!-- Node13 -->
<g id="node5" class="node">
<title>Node13</title>
<g id="a_node5"><a xlink:href="truck_8h.html" target="_top" xlink:title="Declaration of the Truck class.">
<polygon fill="none" stroke="#000000" points="266,-56.5 266,-75.5 316,-75.5 316,-56.5 266,-56.5"/>
<text text-anchor="middle" x="291" y="-63.5" font-family="Helvetica,sans-Serif" font-size="10.00" fill="#000000">truck.h</text>
</a>
</g>
</g>
<!-- Node9&#45;&gt;Node13 -->
<g id="edge4" class="edge">
<title>Node9&#45;&gt;Node13</title>
<path fill="none" stroke="#191970" d="M229.5419,-106.49C244.539,-96.6096 263.4973,-84.1194 276.3638,-75.6427"/>
<polygon fill="#191970" stroke="#191970" points="227.2309,-103.8212 220.8059,-112.2455 231.0821,-109.6666 227.2309,-103.8212"/>
</g>
<!-- Node16 -->
<g id="node8" class="node">
<title>Node16</title>
<g id="a_node8"><a xlink:href="test__virtual_8cpp.html" target="_top" xlink:title="A simple application that demonstrates a problem with Shape virtual methods.">
<polygon fill="none" stroke="#000000" points="334,-56.5 334,-75.5 426,-75.5 426,-56.5 334,-56.5"/>
<text text-anchor="middle" x="380" y="-63.5" font-family="Helvetica,sans-Serif" font-size="10.00" fill="#000000">test_virtual.cpp</text>
</a>
</g>
</g>
<!-- Node9&#45;&gt;Node16 -->
<g id="edge7" class="edge">
<title>Node9&#45;&gt;Node16</title>
<path fill="none" stroke="#191970" d="M245.801,-109.1905C277.679,-98.9309 321.6816,-84.7691 350.4787,-75.5011"/>
<polygon fill="#191970" stroke="#191970" points="244.3585,-105.9779 235.9117,-112.3733 246.5031,-112.6413 244.3585,-105.9779"/>
</g>
<!-- Node14 -->
<g id="node6" class="node">
<title>Node14</title>
<g id="a_node6"><a xlink:href="test__pure__virtual_8cpp.html" target="_top" xlink:title="A simple application that demonstrates a problem with Truck pure virtual methods.">
<polygon fill="none" stroke="#000000" points="176.5,-.5 176.5,-19.5 295.5,-19.5 295.5,-.5 176.5,-.5"/>
<text text-anchor="middle" x="236" y="-7.5" font-family="Helvetica,sans-Serif" font-size="10.00" fill="#000000">test_pure_virtual.cpp</text>
</a>
</g>
</g>
<!-- Node13&#45;&gt;Node14 -->
<g id="edge5" class="edge">
<title>Node13&#45;&gt;Node14</title>
<path fill="none" stroke="#191970" d="M274.3774,-49.0751C264.9145,-39.4402 253.4031,-27.7196 245.4705,-19.6427"/>
<polygon fill="#191970" stroke="#191970" points="271.9155,-51.5635 281.4197,-56.2455 276.9097,-46.6585 271.9155,-51.5635"/>
</g>
<!-- Node15 -->
<g id="node7" class="node">
<title>Node15</title>
<g id="a_node7"><a xlink:href="truck_8cpp.html" target="_top" xlink:title="Implementation of the Truck class.">
<polygon fill="none" stroke="#000000" points="314,-.5 314,-19.5 376,-19.5 376,-.5 314,-.5"/>
<text text-anchor="middle" x="345" y="-7.5" font-family="Helvetica,sans-Serif" font-size="10.00" fill="#000000">truck.cpp</text>
</a>
</g>
</g>
<!-- Node13&#45;&gt;Node15 -->
<g id="edge6" class="edge">
<title>Node13&#45;&gt;Node15</title>
<path fill="none" stroke="#191970" d="M307.5969,-48.7884C316.8347,-39.2085 327.9904,-27.6396 335.7017,-19.6427"/>
<polygon fill="#191970" stroke="#191970" points="304.828,-46.6176 300.4061,-56.2455 309.8669,-51.4766 304.828,-46.6176"/>
</g>
</g>
</svg>
