<?xml version="1.0" encoding="UTF-8" standalone="no"?>
<!DOCTYPE svg PUBLIC "-//W3C//DTD SVG 1.1//EN"
 "http://www.w3.org/Graphics/SVG/1.1/DTD/svg11.dtd">
<!-- Generated by graphviz version 2.40.1 (20161225.0304)
 -->
<!-- Title: shape.h Pages: 1 -->
<!--zoomable 196 -->
<svg id="main" version="1.1" xmlns="http://www.w3.org/2000/svg" xmlns:xlink="http://www.w3.org/1999/xlink" xml:space="preserve" onload="init(evt)">
<style type="text/css"><![CDATA[
.edge:hover path { stroke: red; }
.edge:hover polygon { stroke: red; fill: red; }
]]></style>
<script type="text/javascript"><![CDATA[
var edges = document.getElementsByTagName('g');
if (edges && edges.length) {
  for (var i=0;i<edges.length;i++) {
    if (edges[i].id.substr(0,4)=='edge') {
      edges[i].setAttribute('class','edge');
    }
  }
}
]]></script>
        <defs>
                <circle id="rim" cx="0" cy="0" r="7"/>
                <circle id="rim2" cx="0" cy="0" r="3.5"/>
                <g id="zoomPlus">
                        <use xlink:href="#rim" fill="#404040">
                                <set attributeName="fill" to="#808080" begin="zoomplus.mouseover" end="zoomplus.mouseout"/>
                        </use>
                        <path d="M-4,0h8M0,-4v8" fill="none" stroke="white" stroke-width="1.5" pointer-events="none"/>
                </g>
                <g id="zoomMin">
                        <use xlink:href="#rim" fill="#404040">
                                <set attributeName="fill" to="#808080" begin="zoomminus.mouseover" end="zoomminus.mouseout"/>
                        </use>
                        <path d="M-4,0h8" fill="none" stroke="white" stroke-width="1.5" pointer-events="none"/>
                </g>
                <g id="dirArrow">
                        <path fill="none" stroke="white" stroke-width="1.5" d="M0,-3.0v7 M-2.5,-0.5L0,-3.0L2.5,-0.5"/>
                </g>
               <g id="resetDef">
                       <use xlink:href="#rim2" fill="#404040">
                               <set attributeName="fill" to="#808080" begin="reset.mouseover" end="reset.mouseout"/>
                       </use>
               </g>
        </defs>

<script type="text/javascript">
var viewWidth = 978;
var viewHeight = 196;
var sectionId = 'dynsection-1';
</script>
<script xlink:href="svgpan.js"/>
<svg id="graph" class="graph">
<g id="viewport">
<title>shape.h</title>
<!-- Node8 -->
<g id="node1" class="node">
<title>Node8</title>
<g id="a_node1"><a xlink:title="Declaration of the Shape class.">
<polygon fill="#bfbfbf" stroke="#000000" points="522.5,-168.5 522.5,-187.5 577.5,-187.5 577.5,-168.5 522.5,-168.5"/>
<text text-anchor="middle" x="550" y="-175.5" font-family="Helvetica,sans-Serif" font-size="10.00" fill="#000000">shape.h</text>
</a>
</g>
</g>
<!-- Node9 -->
<g id="node2" class="node">
<title>Node9</title>
<g id="a_node2"><a xlink:href="circle_8h.html" target="_top" xlink:title="Declaration of the Circle class.">
<polygon fill="none" stroke="#000000" points="213,-112.5 213,-131.5 265,-131.5 265,-112.5 213,-112.5"/>
<text text-anchor="middle" x="239" y="-119.5" font-family="Helvetica,sans-Serif" font-size="10.00" fill="#000000">circle.h</text>
</a>
</g>
</g>
<!-- Node8&#45;&gt;Node9 -->
<g id="edge1" class="edge">
<title>Node8&#45;&gt;Node9</title>
<path fill="none" stroke="#191970" d="M512.3492,-171.2204C448.4478,-159.7141 320.3424,-136.6469 265.2142,-126.7202"/>
<polygon fill="#191970" stroke="#191970" points="511.9388,-174.7028 522.4008,-173.0304 513.1794,-167.8135 511.9388,-174.7028"/>
</g>
<!-- Node12 -->
<g id="node5" class="node">
<title>Node12</title>
<g id="a_node5"><a xlink:href="test__constructor_8cpp.html" target="_top" xlink:title="A simple application that demonstrates a problem with the Circle constructor.">
<polygon fill="none" stroke="#000000" points="0,-56.5 0,-75.5 114,-75.5 114,-56.5 0,-56.5"/>
<text text-anchor="middle" x="57" y="-63.5" font-family="Helvetica,sans-Serif" font-size="10.00" fill="#000000">test_constructor.cpp</text>
</a>
</g>
</g>
<!-- Node8&#45;&gt;Node12 -->
<g id="edge23" class="edge">
<title>Node8&#45;&gt;Node12</title>
<path fill="none" stroke="#191970" d="M511.9847,-176.5365C447.4979,-173.2646 313.0453,-163.0131 204,-132 154.7583,-117.9954 100.7996,-90.2869 74.0303,-75.6232"/>
<polygon fill="#191970" stroke="#191970" points="511.9317,-180.0379 522.0877,-177.0205 512.2667,-173.0459 511.9317,-180.0379"/>
</g>
<!-- Node16 -->
<g id="node9" class="node">
<title>Node16</title>
<g id="a_node9"><a xlink:href="flower_8h.html" target="_top" xlink:title="Declaration of the Flower class.">
<polygon fill="none" stroke="#000000" points="397.5,-112.5 397.5,-131.5 452.5,-131.5 452.5,-112.5 397.5,-112.5"/>
<text text-anchor="middle" x="425" y="-119.5" font-family="Helvetica,sans-Serif" font-size="10.00" fill="#000000">flower.h</text>
</a>
</g>
</g>
<!-- Node8&#45;&gt;Node16 -->
<g id="edge8" class="edge">
<title>Node8&#45;&gt;Node16</title>
<path fill="none" stroke="#191970" d="M519.302,-164.2473C496.6007,-154.0771 466.2685,-140.4883 446.2079,-131.5011"/>
<polygon fill="#191970" stroke="#191970" points="517.9547,-167.4789 528.5117,-168.3733 520.8167,-161.0906 517.9547,-167.4789"/>
</g>
<!-- Node18 -->
<g id="node11" class="node">
<title>Node18</title>
<g id="a_node11"><a xlink:href="rectangle_8h.html" target="_top" xlink:title="Declaration of the Rectangle class.">
<polygon fill="none" stroke="#000000" points="482.5,-112.5 482.5,-131.5 553.5,-131.5 553.5,-112.5 482.5,-112.5"/>
<text text-anchor="middle" x="518" y="-119.5" font-family="Helvetica,sans-Serif" font-size="10.00" fill="#000000">rectangle.h</text>
</a>
</g>
</g>
<!-- Node8&#45;&gt;Node18 -->
<g id="edge11" class="edge">
<title>Node8&#45;&gt;Node18</title>
<path fill="none" stroke="#191970" d="M539.3355,-159.3372C534.0346,-150.0605 527.8513,-139.2398 523.5101,-131.6427"/>
<polygon fill="#191970" stroke="#191970" points="536.4257,-161.2996 544.426,-168.2455 542.5034,-157.8266 536.4257,-161.2996"/>
</g>
<!-- Node19 -->
<g id="node12" class="node">
<title>Node19</title>
<g id="a_node12"><a xlink:href="main_8cpp.html" target="_top" xlink:title="Provides a simple application that draws some stuff.">
<polygon fill="none" stroke="#000000" points="688,-56.5 688,-75.5 750,-75.5 750,-56.5 688,-56.5"/>
<text text-anchor="middle" x="719" y="-63.5" font-family="Helvetica,sans-Serif" font-size="10.00" fill="#000000">main.cpp</text>
</a>
</g>
</g>
<!-- Node8&#45;&gt;Node19 -->
<g id="edge21" class="edge">
<title>Node8&#45;&gt;Node19</title>
<path fill="none" stroke="#191970" d="M560.7681,-159.4447C570.0668,-144.8306 584.7111,-124.8467 602,-112 616.3218,-101.3581 660.0742,-85.5461 689.8224,-75.5088"/>
<polygon fill="#191970" stroke="#191970" points="557.6804,-157.7853 555.4553,-168.1438 563.6544,-161.4338 557.6804,-157.7853"/>
</g>
<!-- Node22 -->
<g id="node15" class="node">
<title>Node22</title>
<g id="a_node15"><a xlink:href="triangle_8h.html" target="_top" xlink:title="Declaration of the Triangle class.">
<polygon fill="none" stroke="#000000" points="610.5,-112.5 610.5,-131.5 673.5,-131.5 673.5,-112.5 610.5,-112.5"/>
<text text-anchor="middle" x="642" y="-119.5" font-family="Helvetica,sans-Serif" font-size="10.00" fill="#000000">triangle.h</text>
</a>
</g>
</g>
<!-- Node8&#45;&gt;Node22 -->
<g id="edge17" class="edge">
<title>Node8&#45;&gt;Node22</title>
<path fill="none" stroke="#191970" d="M575.0224,-162.769C591.325,-152.8456 612.101,-140.1994 626.1585,-131.6427"/>
<polygon fill="#191970" stroke="#191970" points="572.7473,-160.0563 566.0252,-168.2455 576.387,-166.0357 572.7473,-160.0563"/>
</g>
<!-- Node23 -->
<g id="node16" class="node">
<title>Node23</title>
<g id="a_node16"><a xlink:href="test__destructor_8cpp.html" target="_top" xlink:title="A simple application that demonstrates a problem with the Triangle destructor.">
<polygon fill="none" stroke="#000000" points="860.5,-56.5 860.5,-75.5 969.5,-75.5 969.5,-56.5 860.5,-56.5"/>
<text text-anchor="middle" x="915" y="-63.5" font-family="Helvetica,sans-Serif" font-size="10.00" fill="#000000">test_destructor.cpp</text>
</a>
</g>
</g>
<!-- Node8&#45;&gt;Node23 -->
<g id="edge24" class="edge">
<title>Node8&#45;&gt;Node23</title>
<path fill="none" stroke="#191970" d="M587.528,-166.6981C614.4915,-158.1747 651.4902,-145.6477 683,-132 700.5131,-124.4146 703.1291,-118.699 721,-112 766.7009,-94.8687 820.9113,-82.654 860.3935,-75.137"/>
<polygon fill="#191970" stroke="#191970" points="586.2192,-163.4401 577.7177,-169.7628 588.3065,-170.1217 586.2192,-163.4401"/>
</g>
<!-- Node25 -->
<g id="node18" class="node">
<title>Node25</title>
<g id="a_node18"><a xlink:href="shape_8cpp.html" target="_top" xlink:title="Implementation of the Shape class.">
<polygon fill="none" stroke="#000000" points="730,-112.5 730,-131.5 796,-131.5 796,-112.5 730,-112.5"/>
<text text-anchor="middle" x="763" y="-119.5" font-family="Helvetica,sans-Serif" font-size="10.00" fill="#000000">shape.cpp</text>
</a>
</g>
</g>
<!-- Node8&#45;&gt;Node25 -->
<g id="edge22" class="edge">
<title>Node8&#45;&gt;Node25</title>
<path fill="none" stroke="#191970" d="M587.5739,-168.1214C627.9117,-157.5162 691.3766,-140.8306 729.8977,-130.7029"/>
<polygon fill="#191970" stroke="#191970" points="586.6274,-164.7512 577.846,-170.679 588.4073,-171.5212 586.6274,-164.7512"/>
</g>
<!-- Node10 -->
<g id="node3" class="node">
<title>Node10</title>
<g id="a_node3"><a xlink:href="circle_8cpp.html" target="_top" xlink:title="Implementation of the Circle class.">
<polygon fill="none" stroke="#000000" points="132.5,-56.5 132.5,-75.5 195.5,-75.5 195.5,-56.5 132.5,-56.5"/>
<text text-anchor="middle" x="164" y="-63.5" font-family="Helvetica,sans-Serif" font-size="10.00" fill="#000000">circle.cpp</text>
</a>
</g>
</g>
<!-- Node9&#45;&gt;Node10 -->
<g id="edge2" class="edge">
<title>Node9&#45;&gt;Node10</title>
<path fill="none" stroke="#191970" d="M217.8523,-106.2097C204.6799,-96.3743 188.16,-84.0394 176.9143,-75.6427"/>
<polygon fill="#191970" stroke="#191970" points="215.8291,-109.0671 225.936,-112.2455 220.0172,-103.4581 215.8291,-109.0671"/>
</g>
<!-- Node11 -->
<g id="node4" class="node">
<title>Node11</title>
<g id="a_node4"><a xlink:href="flower_8cpp.html" target="_top" xlink:title="Implementation of the Flower class.">
<polygon fill="none" stroke="#000000" points="392,-56.5 392,-75.5 458,-75.5 458,-56.5 392,-56.5"/>
<text text-anchor="middle" x="425" y="-63.5" font-family="Helvetica,sans-Serif" font-size="10.00" fill="#000000">flower.cpp</text>
</a>
</g>
</g>
<!-- Node9&#45;&gt;Node11 -->
<g id="edge3" class="edge">
<title>Node9&#45;&gt;Node11</title>
<path fill="none" stroke="#191970" d="M274.8862,-111.1956C309.1948,-100.8661 360.4261,-85.4416 393.2764,-75.5512"/>
<polygon fill="#191970" stroke="#191970" points="273.8211,-107.8609 265.2548,-114.0953 275.8392,-114.5637 273.8211,-107.8609"/>
</g>
<!-- Node9&#45;&gt;Node12 -->
<g id="edge4" class="edge">
<title>Node9&#45;&gt;Node12</title>
<path fill="none" stroke="#191970" d="M203.0452,-110.937C169.433,-100.5948 119.771,-85.3141 87.8996,-75.5076"/>
<polygon fill="#191970" stroke="#191970" points="202.3367,-114.3809 212.9238,-113.9766 204.3954,-107.6904 202.3367,-114.3809"/>
</g>
<!-- Node13 -->
<g id="node6" class="node">
<title>Node13</title>
<g id="a_node6"><a xlink:href="truck_8h.html" target="_top" xlink:title="Declaration of the Truck class.">
<polygon fill="none" stroke="#000000" points="214,-56.5 214,-75.5 264,-75.5 264,-56.5 214,-56.5"/>
<text text-anchor="middle" x="239" y="-63.5" font-family="Helvetica,sans-Serif" font-size="10.00" fill="#000000">truck.h</text>
</a>
</g>
</g>
<!-- Node9&#45;&gt;Node13 -->
<g id="edge5" class="edge">
<title>Node9&#45;&gt;Node13</title>
<path fill="none" stroke="#191970" d="M239,-102.1575C239,-93.155 239,-82.9199 239,-75.6427"/>
<polygon fill="#191970" stroke="#191970" points="235.5001,-102.2455 239,-112.2455 242.5001,-102.2456 235.5001,-102.2455"/>
</g>
<!-- Node14 -->
<g id="node7" class="node">
<title>Node14</title>
<g id="a_node7"><a xlink:href="test__pure__virtual_8cpp.html" target="_top" xlink:title="A simple application that demonstrates a problem with Truck pure virtual methods.">
<polygon fill="none" stroke="#000000" points="125.5,-.5 125.5,-19.5 244.5,-19.5 244.5,-.5 125.5,-.5"/>
<text text-anchor="middle" x="185" y="-7.5" font-family="Helvetica,sans-Serif" font-size="10.00" fill="#000000">test_pure_virtual.cpp</text>
</a>
</g>
</g>
<!-- Node13&#45;&gt;Node14 -->
<g id="edge6" class="edge">
<title>Node13&#45;&gt;Node14</title>
<path fill="none" stroke="#191970" d="M222.4031,-48.7884C213.1653,-39.2085 202.0096,-27.6396 194.2983,-19.6427"/>
<polygon fill="#191970" stroke="#191970" points="220.1331,-51.4766 229.5939,-56.2455 225.172,-46.6176 220.1331,-51.4766"/>
</g>
<!-- Node15 -->
<g id="node8" class="node">
<title>Node15</title>
<g id="a_node8"><a xlink:href="truck_8cpp.html" target="_top" xlink:title="Implementation of the Truck class.">
<polygon fill="none" stroke="#000000" points="263,-.5 263,-19.5 325,-19.5 325,-.5 263,-.5"/>
<text text-anchor="middle" x="294" y="-7.5" font-family="Helvetica,sans-Serif" font-size="10.00" fill="#000000">truck.cpp</text>
</a>
</g>
</g>
<!-- Node13&#45;&gt;Node15 -->
<g id="edge7" class="edge">
<title>Node13&#45;&gt;Node15</title>
<path fill="none" stroke="#191970" d="M255.6226,-49.0751C265.0855,-39.4402 276.5969,-27.7196 284.5295,-19.6427"/>
<polygon fill="#191970" stroke="#191970" points="253.0903,-46.6585 248.5803,-56.2455 258.0845,-51.5635 253.0903,-46.6585"/>
</g>
<!-- Node16&#45;&gt;Node11 -->
<g id="edge9" class="edge">
<title>Node16&#45;&gt;Node11</title>
<path fill="none" stroke="#191970" d="M425,-102.1575C425,-93.155 425,-82.9199 425,-75.6427"/>
<polygon fill="#191970" stroke="#191970" points="421.5001,-102.2455 425,-112.2455 428.5001,-102.2456 421.5001,-102.2455"/>
</g>
<!-- Node17 -->
<g id="node10" class="node">
<title>Node17</title>
<g id="a_node10"><a xlink:href="test__slicing_8cpp.html" target="_top" xlink:title="A simple application that demonstrates slicing in the Flower class.">
<polygon fill="none" stroke="#000000" points="282,-56.5 282,-75.5 374,-75.5 374,-56.5 282,-56.5"/>
<text text-anchor="middle" x="328" y="-63.5" font-family="Helvetica,sans-Serif" font-size="10.00" fill="#000000">test_slicing.cpp</text>
</a>
</g>
</g>
<!-- Node16&#45;&gt;Node17 -->
<g id="edge10" class="edge">
<title>Node16&#45;&gt;Node17</title>
<path fill="none" stroke="#191970" d="M399.0984,-107.0465C381.8391,-97.0824 359.6624,-84.2794 344.7025,-75.6427"/>
<polygon fill="#191970" stroke="#191970" points="397.6936,-110.2768 408.1039,-112.2455 401.1935,-104.2146 397.6936,-110.2768"/>
</g>
<!-- Node18&#45;&gt;Node11 -->
<g id="edge12" class="edge">
<title>Node18&#45;&gt;Node11</title>
<path fill="none" stroke="#191970" d="M493.1665,-107.0465C476.6189,-97.0824 455.3568,-84.2794 441.0137,-75.6427"/>
<polygon fill="#191970" stroke="#191970" points="491.4283,-110.0854 501.8006,-112.2455 495.0393,-104.0886 491.4283,-110.0854"/>
</g>
<!-- Node18&#45;&gt;Node13 -->
<g id="edge15" class="edge">
<title>Node18&#45;&gt;Node13</title>
<path fill="none" stroke="#191970" d="M471.9499,-113.6124C406.4108,-101.6355 292.023,-80.5711 273,-76 270.1284,-75.31 267.1383,-74.5271 264.1752,-73.7106"/>
<polygon fill="#191970" stroke="#191970" points="471.561,-117.0992 482.0271,-115.4527 472.8186,-110.2131 471.561,-117.0992"/>
</g>
<!-- Node18&#45;&gt;Node19 -->
<g id="edge13" class="edge">
<title>Node18&#45;&gt;Node19</title>
<path fill="none" stroke="#191970" d="M562.3473,-109.6445C600.3897,-99.0457 654.2403,-84.0425 687.865,-74.6744"/>
<polygon fill="#191970" stroke="#191970" points="561.2469,-106.3177 552.5531,-112.3733 563.1256,-113.0609 561.2469,-106.3177"/>
</g>
<!-- Node20 -->
<g id="node13" class="node">
<title>Node20</title>
<g id="a_node13"><a xlink:href="rectangle_8cpp.html" target="_top" xlink:title="Implementation of the Rectangle class.">
<polygon fill="none" stroke="#000000" points="476.5,-56.5 476.5,-75.5 559.5,-75.5 559.5,-56.5 476.5,-56.5"/>
<text text-anchor="middle" x="518" y="-63.5" font-family="Helvetica,sans-Serif" font-size="10.00" fill="#000000">rectangle.cpp</text>
</a>
</g>
</g>
<!-- Node18&#45;&gt;Node20 -->
<g id="edge14" class="edge">
<title>Node18&#45;&gt;Node20</title>
<path fill="none" stroke="#191970" d="M518,-102.1575C518,-93.155 518,-82.9199 518,-75.6427"/>
<polygon fill="#191970" stroke="#191970" points="514.5001,-102.2455 518,-112.2455 521.5001,-102.2456 514.5001,-102.2455"/>
</g>
<!-- Node21 -->
<g id="node14" class="node">
<title>Node21</title>
<g id="a_node14"><a xlink:href="test__virtual_8cpp.html" target="_top" xlink:title="A simple application that demonstrates a problem with Shape virtual methods.">
<polygon fill="none" stroke="#000000" points="578,-56.5 578,-75.5 670,-75.5 670,-56.5 578,-56.5"/>
<text text-anchor="middle" x="624" y="-63.5" font-family="Helvetica,sans-Serif" font-size="10.00" fill="#000000">test_virtual.cpp</text>
</a>
</g>
</g>
<!-- Node18&#45;&gt;Node21 -->
<g id="edge16" class="edge">
<title>Node18&#45;&gt;Node21</title>
<path fill="none" stroke="#191970" d="M545.5222,-107.46C564.4908,-97.4388 589.1727,-84.3993 605.7478,-75.6427"/>
<polygon fill="#191970" stroke="#191970" points="543.6708,-104.4796 536.4638,-112.2455 546.9407,-110.669 543.6708,-104.4796"/>
</g>
<!-- Node22&#45;&gt;Node11 -->
<g id="edge18" class="edge">
<title>Node22&#45;&gt;Node11</title>
<path fill="none" stroke="#191970" d="M600.6609,-111.3318C559.2196,-100.6373 496.2326,-84.3826 458.0148,-74.5199"/>
<polygon fill="#191970" stroke="#191970" points="599.889,-114.7472 610.4463,-113.8571 601.6382,-107.9693 599.889,-114.7472"/>
</g>
<!-- Node22&#45;&gt;Node23 -->
<g id="edge19" class="edge">
<title>Node22&#45;&gt;Node23</title>
<path fill="none" stroke="#191970" d="M683.5859,-112.9319C685.0754,-112.6159 686.5503,-112.3044 688,-112 749.5864,-99.0665 820.7087,-84.755 866.6916,-75.5839"/>
<polygon fill="#191970" stroke="#191970" points="682.7074,-109.5405 673.6612,-115.0557 684.1722,-116.3856 682.7074,-109.5405"/>
</g>
<!-- Node24 -->
<g id="node17" class="node">
<title>Node24</title>
<g id="a_node17"><a xlink:href="triangle_8cpp.html" target="_top" xlink:title="Implementation of the Triangle class.">
<polygon fill="none" stroke="#000000" points="768,-56.5 768,-75.5 842,-75.5 842,-56.5 768,-56.5"/>
<text text-anchor="middle" x="805" y="-63.5" font-family="Helvetica,sans-Serif" font-size="10.00" fill="#000000">triangle.cpp</text>
</a>
</g>
</g>
<!-- Node22&#45;&gt;Node24 -->
<g id="edge20" class="edge">
<title>Node22&#45;&gt;Node24</title>
<path fill="none" stroke="#191970" d="M679.6733,-109.057C709.5042,-98.8084 750.4852,-84.729 777.3449,-75.5011"/>
<polygon fill="#191970" stroke="#191970" points="678.3409,-105.8139 670.0207,-112.3733 680.6154,-112.4341 678.3409,-105.8139"/>
</g>
</g>
</svg>
        <g id="navigator" transform="translate(0 0)" fill="#404254">
                <rect fill="#f2f5e9" fill-opacity="0.5" stroke="#606060" stroke-width=".5" x="0" y="0" width="60" height="60"/>
                <use id="zoomplus" xlink:href="#zoomPlus" x="17" y="9" onmousedown="handleZoom(evt,'in')"/>
                <use id="zoomminus" xlink:href="#zoomMin" x="42" y="9" onmousedown="handleZoom(evt,'out')"/>
                <use id="reset" xlink:href="#resetDef" x="30" y="36" onmousedown="handleReset()"/>
                <g id="arrowUp" xlink:href="#dirArrow" transform="translate(30 24)" onmousedown="handlePan(0,-1)">
                  <use xlink:href="#rim" fill="#404040">
                        <set attributeName="fill" to="#808080" begin="arrowUp.mouseover" end="arrowUp.mouseout"/>
                  </use>
                  <path fill="none" stroke="white" stroke-width="1.5" d="M0,-3.0v7 M-2.5,-0.5L0,-3.0L2.5,-0.5"/>
                </g>
                <g id="arrowRight" xlink:href="#dirArrow" transform="rotate(90) translate(36 -43)" onmousedown="handlePan(1,0)">
                  <use xlink:href="#rim" fill="#404040">
                        <set attributeName="fill" to="#808080" begin="arrowRight.mouseover" end="arrowRight.mouseout"/>
                  </use>
                  <path fill="none" stroke="white" stroke-width="1.5" d="M0,-3.0v7 M-2.5,-0.5L0,-3.0L2.5,-0.5"/>
                </g>
                <g id="arrowDown" xlink:href="#dirArrow" transform="rotate(180) translate(-30 -48)" onmousedown="handlePan(0,1)">
                  <use xlink:href="#rim" fill="#404040">
                        <set attributeName="fill" to="#808080" begin="arrowDown.mouseover" end="arrowDown.mouseout"/>
                  </use>
                  <path fill="none" stroke="white" stroke-width="1.5" d="M0,-3.0v7 M-2.5,-0.5L0,-3.0L2.5,-0.5"/>
                </g>
                <g id="arrowLeft" xlink:href="#dirArrow" transform="rotate(270) translate(-36 17)" onmousedown="handlePan(-1,0)">
                  <use xlink:href="#rim" fill="#404040">
                        <set attributeName="fill" to="#808080" begin="arrowLeft.mouseover" end="arrowLeft.mouseout"/>
                  </use>
                  <path fill="none" stroke="white" stroke-width="1.5" d="M0,-3.0v7 M-2.5,-0.5L0,-3.0L2.5,-0.5"/>
                </g>
        </g>
        <svg viewBox="0 0 15 15" width="100%" height="30px" preserveAspectRatio="xMaxYMin meet">
         <g id="arrow_out" transform="scale(0.3 0.3)">
          <a xlink:href="shape_8h__dep__incl_org.svg" target="_base">
           <rect id="button" ry="5" rx="5" y="6" x="6" height="38" width="38"
                fill="#f2f5e9" fill-opacity="0.5" stroke="#606060" stroke-width="1.0"/>
           <path id="arrow"
             d="M 11.500037,31.436501 C 11.940474,20.09759 22.043105,11.32322 32.158766,21.979434 L 37.068811,17.246167 C 37.068811,17.246167 37.088388,32 37.088388,32 L 22.160133,31.978069 C 22.160133,31.978069 26.997745,27.140456 26.997745,27.140456 C 18.528582,18.264221 13.291696,25.230495 11.500037,31.436501 z"
             style="fill:#404040;"/>
          </a>
         </g>
        </svg>
</svg>
