<?xml version="1.0" encoding="UTF-8" standalone="no"?>
<!DOCTYPE svg PUBLIC "-//W3C//DTD SVG 1.1//EN"
 "http://www.w3.org/Graphics/SVG/1.1/DTD/svg11.dtd">
<!-- Generated by graphviz version 2.40.1 (20161225.0304)
 -->
<!-- Title: shape.cpp Pages: 1 -->
<svg width="274pt" height="308pt"
 viewBox="0.00 0.00 273.50 308.00" xmlns="http://www.w3.org/2000/svg" xmlns:xlink="http://www.w3.org/1999/xlink">
<g id="graph0" class="graph" transform="scale(1 1) rotate(0) translate(4 304)">
<title>shape.cpp</title>
<!-- Node0 -->
<g id="node1" class="node">
<title>Node0</title>
<g id="a_node1"><a xlink:title="Implementation of the Shape class.">
<polygon fill="#bfbfbf" stroke="#000000" points="62,-280.5 62,-299.5 128,-299.5 128,-280.5 62,-280.5"/>
<text text-anchor="middle" x="95" y="-287.5" font-family="Helvetica,sans-Serif" font-size="10.00" fill="#000000">shape.cpp</text>
</a>
</g>
</g>
<!-- Node1 -->
<g id="node2" class="node">
<title>Node1</title>
<g id="a_node2"><a xlink:href="shape_8h.html" target="_top" xlink:title="Declaration of the Shape class.">
<polygon fill="none" stroke="#000000" points="67.5,-224.5 67.5,-243.5 122.5,-243.5 122.5,-224.5 67.5,-224.5"/>
<text text-anchor="middle" x="95" y="-231.5" font-family="Helvetica,sans-Serif" font-size="10.00" fill="#000000">shape.h</text>
</a>
</g>
</g>
<!-- Node0&#45;&gt;Node1 -->
<g id="edge1" class="edge">
<title>Node0&#45;&gt;Node1</title>
<path fill="none" stroke="#191970" d="M95,-280.2455C95,-272.9382 95,-262.6944 95,-253.7046"/>
<polygon fill="#191970" stroke="#191970" points="98.5001,-253.6426 95,-243.6427 91.5001,-253.6427 98.5001,-253.6426"/>
</g>
<!-- Node9 -->
<g id="node10" class="node">
<title>Node9</title>
<g id="a_node10"><a xlink:href="color_8h.html" target="_top" xlink:title="Provides a variety of colors for convenience.">
<polygon fill="none" stroke="#000000" points="0,-224.5 0,-243.5 48,-243.5 48,-224.5 0,-224.5"/>
<text text-anchor="middle" x="24" y="-231.5" font-family="Helvetica,sans-Serif" font-size="10.00" fill="#000000">color.h</text>
</a>
</g>
</g>
<!-- Node0&#45;&gt;Node9 -->
<g id="edge9" class="edge">
<title>Node0&#45;&gt;Node9</title>
<path fill="none" stroke="#191970" d="M82.6327,-280.2455C72.0446,-271.8943 56.5936,-259.7076 44.2107,-249.9408"/>
<polygon fill="#191970" stroke="#191970" points="46.2447,-247.0875 36.2255,-243.6427 41.9097,-252.5837 46.2447,-247.0875"/>
</g>
<!-- Node10 -->
<g id="node11" class="node">
<title>Node10</title>
<g id="a_node11"><a xlink:href="line_8h.html" target="_top" xlink:title="Declaration of the Line class.">
<polygon fill="none" stroke="#000000" points="142,-224.5 142,-243.5 186,-243.5 186,-224.5 142,-224.5"/>
<text text-anchor="middle" x="164" y="-231.5" font-family="Helvetica,sans-Serif" font-size="10.00" fill="#000000">line.h</text>
</a>
</g>
</g>
<!-- Node0&#45;&gt;Node10 -->
<g id="edge11" class="edge">
<title>Node0&#45;&gt;Node10</title>
<path fill="none" stroke="#191970" d="M107.0189,-280.2455C117.2098,-271.9746 132.0362,-259.9416 144.0107,-250.2232"/>
<polygon fill="#191970" stroke="#191970" points="146.5598,-252.662 152.1188,-243.6427 142.1486,-247.2268 146.5598,-252.662"/>
</g>
<!-- Node2 -->
<g id="node3" class="node">
<title>Node2</title>
<g id="a_node3"><a xlink:href="drawable_8h.html" target="_top" xlink:title="Declaration of the Drawable class.">
<polygon fill="none" stroke="#000000" points="129.5,-168.5 129.5,-187.5 200.5,-187.5 200.5,-168.5 129.5,-168.5"/>
<text text-anchor="middle" x="165" y="-175.5" font-family="Helvetica,sans-Serif" font-size="10.00" fill="#000000">drawable.h</text>
</a>
</g>
</g>
<!-- Node1&#45;&gt;Node2 -->
<g id="edge2" class="edge">
<title>Node1&#45;&gt;Node2</title>
<path fill="none" stroke="#191970" d="M107.1931,-224.2455C117.6321,-215.8943 132.8655,-203.7076 145.074,-193.9408"/>
<polygon fill="#191970" stroke="#191970" points="147.3244,-196.6227 152.9467,-187.6427 142.9515,-191.1566 147.3244,-196.6227"/>
</g>
<!-- Node8 -->
<g id="node9" class="node">
<title>Node8</title>
<g id="a_node9"><a xlink:href="vector2_8h.html" target="_top" xlink:title="Declaration of the Vector2 class.">
<polygon fill="none" stroke="#000000" points="49,-168.5 49,-187.5 111,-187.5 111,-168.5 49,-168.5"/>
<text text-anchor="middle" x="80" y="-175.5" font-family="Helvetica,sans-Serif" font-size="10.00" fill="#000000">vector2.h</text>
</a>
</g>
</g>
<!-- Node1&#45;&gt;Node8 -->
<g id="edge8" class="edge">
<title>Node1&#45;&gt;Node8</title>
<path fill="none" stroke="#191970" d="M92.3872,-224.2455C90.4084,-216.8579 87.6256,-206.4689 85.1988,-197.4087"/>
<polygon fill="#191970" stroke="#191970" points="88.5511,-196.3966 82.5829,-187.6427 81.7895,-198.2078 88.5511,-196.3966"/>
</g>
<!-- Node3 -->
<g id="node4" class="node">
<title>Node3</title>
<g id="a_node4"><a xlink:href="PNG_8h.html" target="_top" xlink:title=" ">
<polygon fill="none" stroke="#000000" points="54,-112.5 54,-131.5 132,-131.5 132,-112.5 54,-112.5"/>
<text text-anchor="middle" x="93" y="-119.5" font-family="Helvetica,sans-Serif" font-size="10.00" fill="#000000">cs225/PNG.h</text>
</a>
</g>
</g>
<!-- Node2&#45;&gt;Node3 -->
<g id="edge3" class="edge">
<title>Node2&#45;&gt;Node3</title>
<path fill="none" stroke="#191970" d="M152.4586,-168.2455C141.7213,-159.8943 126.0527,-147.7076 113.4953,-137.9408"/>
<polygon fill="#191970" stroke="#191970" points="115.4401,-135.0194 105.3977,-131.6427 111.1425,-140.5449 115.4401,-135.0194"/>
</g>
<!-- Node4 -->
<g id="node5" class="node">
<title>Node4</title>
<g id="a_node5"><a xlink:title=" ">
<polygon fill="none" stroke="#bfbfbf" points="32,-56.5 32,-75.5 76,-75.5 76,-56.5 32,-56.5"/>
<text text-anchor="middle" x="54" y="-63.5" font-family="Helvetica,sans-Serif" font-size="10.00" fill="#000000">string</text>
</a>
</g>
</g>
<!-- Node3&#45;&gt;Node4 -->
<g id="edge4" class="edge">
<title>Node3&#45;&gt;Node4</title>
<path fill="none" stroke="#191970" d="M86.2067,-112.2455C80.7822,-104.4564 73.0339,-93.3308 66.4967,-83.9439"/>
<polygon fill="#191970" stroke="#191970" points="69.3025,-81.8485 60.7154,-75.6427 63.5583,-85.849 69.3025,-81.8485"/>
</g>
<!-- Node5 -->
<g id="node6" class="node">
<title>Node5</title>
<g id="a_node6"><a xlink:href="HSLAPixel_8h.html" target="_top" xlink:title=" ">
<polygon fill="none" stroke="#000000" points="94.5,-56.5 94.5,-75.5 169.5,-75.5 169.5,-56.5 94.5,-56.5"/>
<text text-anchor="middle" x="132" y="-63.5" font-family="Helvetica,sans-Serif" font-size="10.00" fill="#000000">HSLAPixel.h</text>
</a>
</g>
</g>
<!-- Node3&#45;&gt;Node5 -->
<g id="edge5" class="edge">
<title>Node3&#45;&gt;Node5</title>
<path fill="none" stroke="#191970" d="M99.7933,-112.2455C105.2178,-104.4564 112.9661,-93.3308 119.5033,-83.9439"/>
<polygon fill="#191970" stroke="#191970" points="122.4417,-85.849 125.2846,-75.6427 116.6975,-81.8485 122.4417,-85.849"/>
</g>
<!-- Node6 -->
<g id="node7" class="node">
<title>Node6</title>
<g id="a_node7"><a xlink:title=" ">
<polygon fill="none" stroke="#bfbfbf" points="64,-.5 64,-19.5 124,-19.5 124,-.5 64,-.5"/>
<text text-anchor="middle" x="94" y="-7.5" font-family="Helvetica,sans-Serif" font-size="10.00" fill="#000000">iostream</text>
</a>
</g>
</g>
<!-- Node5&#45;&gt;Node6 -->
<g id="edge6" class="edge">
<title>Node5&#45;&gt;Node6</title>
<path fill="none" stroke="#191970" d="M125.3809,-56.2455C120.0954,-48.4564 112.5459,-37.3308 106.1762,-27.9439"/>
<polygon fill="#191970" stroke="#191970" points="109.0545,-25.9522 100.5432,-19.6427 103.2621,-29.8827 109.0545,-25.9522"/>
</g>
<!-- Node7 -->
<g id="node8" class="node">
<title>Node7</title>
<g id="a_node8"><a xlink:title=" ">
<polygon fill="none" stroke="#bfbfbf" points="142,-.5 142,-19.5 198,-19.5 198,-.5 142,-.5"/>
<text text-anchor="middle" x="170" y="-7.5" font-family="Helvetica,sans-Serif" font-size="10.00" fill="#000000">sstream</text>
</a>
</g>
</g>
<!-- Node5&#45;&gt;Node7 -->
<g id="edge7" class="edge">
<title>Node5&#45;&gt;Node7</title>
<path fill="none" stroke="#191970" d="M138.6191,-56.2455C143.9046,-48.4564 151.4541,-37.3308 157.8238,-27.9439"/>
<polygon fill="#191970" stroke="#191970" points="160.7379,-29.8827 163.4568,-19.6427 154.9455,-25.9522 160.7379,-29.8827"/>
</g>
<!-- Node9&#45;&gt;Node3 -->
<g id="edge10" class="edge">
<title>Node9&#45;&gt;Node3</title>
<path fill="none" stroke="#191970" d="M24.5113,-224.3447C25.6139,-210.8316 29.0859,-185.9254 40,-168 47.2272,-156.13 58.5357,-145.7056 68.8539,-137.795"/>
<polygon fill="#191970" stroke="#191970" points="71.1325,-140.4662 77.177,-131.7648 67.0255,-134.7977 71.1325,-140.4662"/>
</g>
<!-- Node10&#45;&gt;Node2 -->
<g id="edge13" class="edge">
<title>Node10&#45;&gt;Node2</title>
<path fill="none" stroke="#191970" d="M164.1742,-224.2455C164.3047,-216.9382 164.4876,-206.6944 164.6481,-197.7046"/>
<polygon fill="#191970" stroke="#191970" points="168.1486,-197.7036 164.8278,-187.6427 161.1497,-197.5786 168.1486,-197.7036"/>
</g>
<!-- Node10&#45;&gt;Node8 -->
<g id="edge14" class="edge">
<title>Node10&#45;&gt;Node8</title>
<path fill="none" stroke="#191970" d="M149.3683,-224.2455C136.6006,-215.7337 117.8562,-203.2375 103.0701,-193.3801"/>
<polygon fill="#191970" stroke="#191970" points="104.726,-190.2775 94.464,-187.6427 100.8431,-196.1019 104.726,-190.2775"/>
</g>
<!-- Node11 -->
<g id="node12" class="node">
<title>Node11</title>
<g id="a_node12"><a xlink:title=" ">
<polygon fill="none" stroke="#bfbfbf" points="218.5,-168.5 218.5,-187.5 265.5,-187.5 265.5,-168.5 218.5,-168.5"/>
<text text-anchor="middle" x="242" y="-175.5" font-family="Helvetica,sans-Serif" font-size="10.00" fill="#000000">vector</text>
</a>
</g>
</g>
<!-- Node10&#45;&gt;Node11 -->
<g id="edge12" class="edge">
<title>Node10&#45;&gt;Node11</title>
<path fill="none" stroke="#191970" d="M177.5866,-224.2455C189.3305,-215.814 206.5199,-203.4729 220.1882,-193.6598"/>
<polygon fill="#191970" stroke="#191970" points="222.4871,-196.3179 228.5691,-187.6427 218.4046,-190.6316 222.4871,-196.3179"/>
</g>
</g>
</svg>
