<?xml version="1.0" encoding="UTF-8" standalone="no"?>
<!DOCTYPE svg PUBLIC "-//W3C//DTD SVG 1.1//EN"
 "http://www.w3.org/Graphics/SVG/1.1/DTD/svg11.dtd">
<!-- Generated by graphviz version 2.40.1 (20161225.0304)
 -->
<!-- Title: triangle.cpp Pages: 1 -->
<svg width="322pt" height="364pt"
 viewBox="0.00 0.00 321.50 364.00" xmlns="http://www.w3.org/2000/svg" xmlns:xlink="http://www.w3.org/1999/xlink">
<g id="graph0" class="graph" transform="scale(1 1) rotate(0) translate(4 360)">
<title>triangle.cpp</title>
<!-- Node0 -->
<g id="node1" class="node">
<title>Node0</title>
<g id="a_node1"><a xlink:title="Implementation of the Triangle class.">
<polygon fill="#bfbfbf" stroke="#000000" points="110.5,-336.5 110.5,-355.5 184.5,-355.5 184.5,-336.5 110.5,-336.5"/>
<text text-anchor="middle" x="147.5" y="-343.5" font-family="Helvetica,sans-Serif" font-size="10.00" fill="#000000">triangle.cpp</text>
</a>
</g>
</g>
<!-- Node1 -->
<g id="node2" class="node">
<title>Node1</title>
<g id="a_node2"><a xlink:href="line_8h.html" target="_top" xlink:title="Declaration of the Line class.">
<polygon fill="none" stroke="#000000" points="53.5,-280.5 53.5,-299.5 97.5,-299.5 97.5,-280.5 53.5,-280.5"/>
<text text-anchor="middle" x="75.5" y="-287.5" font-family="Helvetica,sans-Serif" font-size="10.00" fill="#000000">line.h</text>
</a>
</g>
</g>
<!-- Node0&#45;&gt;Node1 -->
<g id="edge1" class="edge">
<title>Node0&#45;&gt;Node1</title>
<path fill="none" stroke="#191970" d="M134.9586,-336.2455C124.2213,-327.8943 108.5527,-315.7076 95.9953,-305.9408"/>
<polygon fill="#191970" stroke="#191970" points="97.9401,-303.0194 87.8977,-299.6427 93.6425,-308.5449 97.9401,-303.0194"/>
</g>
<!-- Node2 -->
<g id="node3" class="node">
<title>Node2</title>
<g id="a_node3"><a xlink:title=" ">
<polygon fill="none" stroke="#bfbfbf" points="0,-224.5 0,-243.5 47,-243.5 47,-224.5 0,-224.5"/>
<text text-anchor="middle" x="23.5" y="-231.5" font-family="Helvetica,sans-Serif" font-size="10.00" fill="#000000">vector</text>
</a>
</g>
</g>
<!-- Node0&#45;&gt;Node2 -->
<g id="edge16" class="edge">
<title>Node0&#45;&gt;Node2</title>
<path fill="none" stroke="#191970" d="M110.2895,-337.5669C88.3709,-330.8132 61.6628,-319.2008 44.5,-300 33.1184,-287.2669 27.902,-268.347 25.5131,-254.0247"/>
<polygon fill="#191970" stroke="#191970" points="28.9315,-253.1796 24.1398,-243.7302 21.9929,-254.1053 28.9315,-253.1796"/>
</g>
<!-- Node10 -->
<g id="node11" class="node">
<title>Node10</title>
<g id="a_node11"><a xlink:href="triangle_8h.html" target="_top" xlink:title="Declaration of the Triangle class.">
<polygon fill="none" stroke="#000000" points="116,-280.5 116,-299.5 179,-299.5 179,-280.5 116,-280.5"/>
<text text-anchor="middle" x="147.5" y="-287.5" font-family="Helvetica,sans-Serif" font-size="10.00" fill="#000000">triangle.h</text>
</a>
</g>
</g>
<!-- Node0&#45;&gt;Node10 -->
<g id="edge10" class="edge">
<title>Node0&#45;&gt;Node10</title>
<path fill="none" stroke="#191970" d="M147.5,-336.2455C147.5,-328.9382 147.5,-318.6944 147.5,-309.7046"/>
<polygon fill="#191970" stroke="#191970" points="151.0001,-309.6426 147.5,-299.6427 144.0001,-309.6427 151.0001,-309.6426"/>
</g>
<!-- Node12 -->
<g id="node13" class="node">
<title>Node12</title>
<g id="a_node13"><a xlink:title=" ">
<polygon fill="none" stroke="#bfbfbf" points="197.5,-280.5 197.5,-299.5 243.5,-299.5 243.5,-280.5 197.5,-280.5"/>
<text text-anchor="middle" x="220.5" y="-287.5" font-family="Helvetica,sans-Serif" font-size="10.00" fill="#000000">cstdio</text>
</a>
</g>
</g>
<!-- Node0&#45;&gt;Node12 -->
<g id="edge14" class="edge">
<title>Node0&#45;&gt;Node12</title>
<path fill="none" stroke="#191970" d="M160.2156,-336.2455C171.102,-327.8943 186.9883,-315.7076 199.72,-305.9408"/>
<polygon fill="#191970" stroke="#191970" points="202.1261,-308.5063 207.9301,-299.6427 197.8654,-302.9523 202.1261,-308.5063"/>
</g>
<!-- Node13 -->
<g id="node14" class="node">
<title>Node13</title>
<g id="a_node14"><a xlink:title=" ">
<polygon fill="none" stroke="#bfbfbf" points="261.5,-280.5 261.5,-299.5 313.5,-299.5 313.5,-280.5 261.5,-280.5"/>
<text text-anchor="middle" x="287.5" y="-287.5" font-family="Helvetica,sans-Serif" font-size="10.00" fill="#000000">cassert</text>
</a>
</g>
</g>
<!-- Node0&#45;&gt;Node13 -->
<g id="edge15" class="edge">
<title>Node0&#45;&gt;Node13</title>
<path fill="none" stroke="#191970" d="M171.5669,-336.3733C194.3428,-327.2629 228.7344,-313.5062 254.149,-303.3404"/>
<polygon fill="#191970" stroke="#191970" points="255.7623,-306.4648 263.7472,-299.5011 253.1625,-299.9654 255.7623,-306.4648"/>
</g>
<!-- Node1&#45;&gt;Node2 -->
<g id="edge2" class="edge">
<title>Node1&#45;&gt;Node2</title>
<path fill="none" stroke="#191970" d="M66.4423,-280.2455C58.9858,-272.2155 48.2366,-260.6394 39.3583,-251.0781"/>
<polygon fill="#191970" stroke="#191970" points="41.8232,-248.589 32.4539,-243.6427 36.6937,-253.3522 41.8232,-248.589"/>
</g>
<!-- Node3 -->
<g id="node4" class="node">
<title>Node3</title>
<g id="a_node4"><a xlink:href="drawable_8h.html" target="_top" xlink:title="Declaration of the Drawable class.">
<polygon fill="none" stroke="#000000" points="131,-168.5 131,-187.5 202,-187.5 202,-168.5 131,-168.5"/>
<text text-anchor="middle" x="166.5" y="-175.5" font-family="Helvetica,sans-Serif" font-size="10.00" fill="#000000">drawable.h</text>
</a>
</g>
</g>
<!-- Node1&#45;&gt;Node3 -->
<g id="edge3" class="edge">
<title>Node1&#45;&gt;Node3</title>
<path fill="none" stroke="#191970" d="M83.2586,-280.4509C98.5706,-261.6054 132.8748,-219.3849 152.3285,-195.4419"/>
<polygon fill="#191970" stroke="#191970" points="155.1715,-197.4931 158.761,-187.5249 149.7387,-193.079 155.1715,-197.4931"/>
</g>
<!-- Node9 -->
<g id="node10" class="node">
<title>Node9</title>
<g id="a_node10"><a xlink:href="vector2_8h.html" target="_top" xlink:title="Declaration of the Vector2 class.">
<polygon fill="none" stroke="#000000" points="48.5,-168.5 48.5,-187.5 110.5,-187.5 110.5,-168.5 48.5,-168.5"/>
<text text-anchor="middle" x="79.5" y="-175.5" font-family="Helvetica,sans-Serif" font-size="10.00" fill="#000000">vector2.h</text>
</a>
</g>
</g>
<!-- Node1&#45;&gt;Node9 -->
<g id="edge9" class="edge">
<title>Node1&#45;&gt;Node9</title>
<path fill="none" stroke="#191970" d="M75.841,-280.4509C76.4934,-262.184 77.9302,-221.9553 78.7965,-197.6976"/>
<polygon fill="#191970" stroke="#191970" points="82.3006,-197.6435 79.1598,-187.5249 75.305,-197.3936 82.3006,-197.6435"/>
</g>
<!-- Node4 -->
<g id="node5" class="node">
<title>Node4</title>
<g id="a_node5"><a xlink:href="PNG_8h.html" target="_top" xlink:title=" ">
<polygon fill="none" stroke="#000000" points="127.5,-112.5 127.5,-131.5 205.5,-131.5 205.5,-112.5 127.5,-112.5"/>
<text text-anchor="middle" x="166.5" y="-119.5" font-family="Helvetica,sans-Serif" font-size="10.00" fill="#000000">cs225/PNG.h</text>
</a>
</g>
</g>
<!-- Node3&#45;&gt;Node4 -->
<g id="edge4" class="edge">
<title>Node3&#45;&gt;Node4</title>
<path fill="none" stroke="#191970" d="M166.5,-168.2455C166.5,-160.9382 166.5,-150.6944 166.5,-141.7046"/>
<polygon fill="#191970" stroke="#191970" points="170.0001,-141.6426 166.5,-131.6427 163.0001,-141.6427 170.0001,-141.6426"/>
</g>
<!-- Node5 -->
<g id="node6" class="node">
<title>Node5</title>
<g id="a_node6"><a xlink:title=" ">
<polygon fill="none" stroke="#bfbfbf" points="105.5,-56.5 105.5,-75.5 149.5,-75.5 149.5,-56.5 105.5,-56.5"/>
<text text-anchor="middle" x="127.5" y="-63.5" font-family="Helvetica,sans-Serif" font-size="10.00" fill="#000000">string</text>
</a>
</g>
</g>
<!-- Node4&#45;&gt;Node5 -->
<g id="edge5" class="edge">
<title>Node4&#45;&gt;Node5</title>
<path fill="none" stroke="#191970" d="M159.7067,-112.2455C154.2822,-104.4564 146.5339,-93.3308 139.9967,-83.9439"/>
<polygon fill="#191970" stroke="#191970" points="142.8025,-81.8485 134.2154,-75.6427 137.0583,-85.849 142.8025,-81.8485"/>
</g>
<!-- Node6 -->
<g id="node7" class="node">
<title>Node6</title>
<g id="a_node7"><a xlink:href="HSLAPixel_8h.html" target="_top" xlink:title=" ">
<polygon fill="none" stroke="#000000" points="168,-56.5 168,-75.5 243,-75.5 243,-56.5 168,-56.5"/>
<text text-anchor="middle" x="205.5" y="-63.5" font-family="Helvetica,sans-Serif" font-size="10.00" fill="#000000">HSLAPixel.h</text>
</a>
</g>
</g>
<!-- Node4&#45;&gt;Node6 -->
<g id="edge6" class="edge">
<title>Node4&#45;&gt;Node6</title>
<path fill="none" stroke="#191970" d="M173.2933,-112.2455C178.7178,-104.4564 186.4661,-93.3308 193.0033,-83.9439"/>
<polygon fill="#191970" stroke="#191970" points="195.9417,-85.849 198.7846,-75.6427 190.1975,-81.8485 195.9417,-85.849"/>
</g>
<!-- Node7 -->
<g id="node8" class="node">
<title>Node7</title>
<g id="a_node8"><a xlink:title=" ">
<polygon fill="none" stroke="#bfbfbf" points="137.5,-.5 137.5,-19.5 197.5,-19.5 197.5,-.5 137.5,-.5"/>
<text text-anchor="middle" x="167.5" y="-7.5" font-family="Helvetica,sans-Serif" font-size="10.00" fill="#000000">iostream</text>
</a>
</g>
</g>
<!-- Node6&#45;&gt;Node7 -->
<g id="edge7" class="edge">
<title>Node6&#45;&gt;Node7</title>
<path fill="none" stroke="#191970" d="M198.8809,-56.2455C193.5954,-48.4564 186.0459,-37.3308 179.6762,-27.9439"/>
<polygon fill="#191970" stroke="#191970" points="182.5545,-25.9522 174.0432,-19.6427 176.7621,-29.8827 182.5545,-25.9522"/>
</g>
<!-- Node8 -->
<g id="node9" class="node">
<title>Node8</title>
<g id="a_node9"><a xlink:title=" ">
<polygon fill="none" stroke="#bfbfbf" points="215.5,-.5 215.5,-19.5 271.5,-19.5 271.5,-.5 215.5,-.5"/>
<text text-anchor="middle" x="243.5" y="-7.5" font-family="Helvetica,sans-Serif" font-size="10.00" fill="#000000">sstream</text>
</a>
</g>
</g>
<!-- Node6&#45;&gt;Node8 -->
<g id="edge8" class="edge">
<title>Node6&#45;&gt;Node8</title>
<path fill="none" stroke="#191970" d="M212.1191,-56.2455C217.4046,-48.4564 224.9541,-37.3308 231.3238,-27.9439"/>
<polygon fill="#191970" stroke="#191970" points="234.2379,-29.8827 236.9568,-19.6427 228.4455,-25.9522 234.2379,-29.8827"/>
</g>
<!-- Node11 -->
<g id="node12" class="node">
<title>Node11</title>
<g id="a_node12"><a xlink:href="shape_8h.html" target="_top" xlink:title="Declaration of the Shape class.">
<polygon fill="none" stroke="#000000" points="142,-224.5 142,-243.5 197,-243.5 197,-224.5 142,-224.5"/>
<text text-anchor="middle" x="169.5" y="-231.5" font-family="Helvetica,sans-Serif" font-size="10.00" fill="#000000">shape.h</text>
</a>
</g>
</g>
<!-- Node10&#45;&gt;Node11 -->
<g id="edge11" class="edge">
<title>Node10&#45;&gt;Node11</title>
<path fill="none" stroke="#191970" d="M151.3321,-280.2455C154.2659,-272.7776 158.4047,-262.2427 161.991,-253.1137"/>
<polygon fill="#191970" stroke="#191970" points="165.3129,-254.23 165.7118,-243.6427 158.7976,-251.6704 165.3129,-254.23"/>
</g>
<!-- Node11&#45;&gt;Node3 -->
<g id="edge12" class="edge">
<title>Node11&#45;&gt;Node3</title>
<path fill="none" stroke="#191970" d="M168.9774,-224.2455C168.586,-216.9382 168.0372,-206.6944 167.5556,-197.7046"/>
<polygon fill="#191970" stroke="#191970" points="171.0466,-197.4411 167.0166,-187.6427 164.0566,-197.8156 171.0466,-197.4411"/>
</g>
<!-- Node11&#45;&gt;Node9 -->
<g id="edge13" class="edge">
<title>Node11&#45;&gt;Node9</title>
<path fill="none" stroke="#191970" d="M153.8232,-224.2455C140.0144,-215.6534 119.6807,-203.0014 103.7708,-193.1018"/>
<polygon fill="#191970" stroke="#191970" points="105.3368,-189.954 94.9972,-187.6427 101.6387,-195.8974 105.3368,-189.954"/>
</g>
</g>
</svg>
