<?xml version="1.0" encoding="UTF-8" standalone="no"?>
<!DOCTYPE svg PUBLIC "-//W3C//DTD SVG 1.1//EN"
 "http://www.w3.org/Graphics/SVG/1.1/DTD/svg11.dtd">
<!-- Generated by graphviz version 2.40.1 (20161225.0304)
 -->
<!-- Title: truck.cpp Pages: 1 -->
<svg width="279pt" height="420pt"
 viewBox="0.00 0.00 279.28 420.00" xmlns="http://www.w3.org/2000/svg" xmlns:xlink="http://www.w3.org/1999/xlink">
<g id="graph0" class="graph" transform="scale(1 1) rotate(0) translate(4 416)">
<title>truck.cpp</title>
<!-- Node0 -->
<g id="node1" class="node">
<title>Node0</title>
<g id="a_node1"><a xlink:title="Implementation of the Truck class.">
<polygon fill="#bfbfbf" stroke="#000000" points="149.2783,-392.5 149.2783,-411.5 211.2783,-411.5 211.2783,-392.5 149.2783,-392.5"/>
<text text-anchor="middle" x="180.2783" y="-399.5" font-family="Helvetica,sans-Serif" font-size="10.00" fill="#000000">truck.cpp</text>
</a>
</g>
</g>
<!-- Node1 -->
<g id="node2" class="node">
<title>Node1</title>
<g id="a_node2"><a xlink:href="truck_8h.html" target="_top" xlink:title="Declaration of the Truck class.">
<polygon fill="none" stroke="#000000" points="97.2783,-336.5 97.2783,-355.5 147.2783,-355.5 147.2783,-336.5 97.2783,-336.5"/>
<text text-anchor="middle" x="122.2783" y="-343.5" font-family="Helvetica,sans-Serif" font-size="10.00" fill="#000000">truck.h</text>
</a>
</g>
</g>
<!-- Node0&#45;&gt;Node1 -->
<g id="edge1" class="edge">
<title>Node0&#45;&gt;Node1</title>
<path fill="none" stroke="#191970" d="M170.1754,-392.2455C161.7755,-384.1352 149.6289,-372.4075 139.6699,-362.7919"/>
<polygon fill="#191970" stroke="#191970" points="141.8905,-360.0707 132.2653,-355.6427 137.0283,-365.1066 141.8905,-360.0707"/>
</g>
<!-- Node12 -->
<g id="node13" class="node">
<title>Node12</title>
<g id="a_node13"><a xlink:href="color_8h.html" target="_top" xlink:title="Provides a variety of colors for convenience.">
<polygon fill="none" stroke="#000000" points="214.2783,-224.5 214.2783,-243.5 262.2783,-243.5 262.2783,-224.5 214.2783,-224.5"/>
<text text-anchor="middle" x="238.2783" y="-231.5" font-family="Helvetica,sans-Serif" font-size="10.00" fill="#000000">color.h</text>
</a>
</g>
</g>
<!-- Node0&#45;&gt;Node12 -->
<g id="edge15" class="edge">
<title>Node0&#45;&gt;Node12</title>
<path fill="none" stroke="#191970" d="M183.5628,-392.4862C192.7709,-365.8144 218.9754,-289.9117 231.4788,-253.695"/>
<polygon fill="#191970" stroke="#191970" points="234.9303,-254.4226 234.8853,-243.8279 228.3135,-252.1382 234.9303,-254.4226"/>
</g>
<!-- Node2 -->
<g id="node3" class="node">
<title>Node2</title>
<g id="a_node3"><a xlink:href="circle_8h.html" target="_top" xlink:title="Declaration of the Circle class.">
<polygon fill="none" stroke="#000000" points="16.2783,-280.5 16.2783,-299.5 68.2783,-299.5 68.2783,-280.5 16.2783,-280.5"/>
<text text-anchor="middle" x="42.2783" y="-287.5" font-family="Helvetica,sans-Serif" font-size="10.00" fill="#000000">circle.h</text>
</a>
</g>
</g>
<!-- Node1&#45;&gt;Node2 -->
<g id="edge2" class="edge">
<title>Node1&#45;&gt;Node2</title>
<path fill="none" stroke="#191970" d="M108.3433,-336.2455C96.1836,-327.7337 78.3318,-315.2375 64.2498,-305.3801"/>
<polygon fill="#191970" stroke="#191970" points="66.253,-302.51 56.0535,-299.6427 62.2387,-308.2447 66.253,-302.51"/>
</g>
<!-- Node4 -->
<g id="node5" class="node">
<title>Node4</title>
<g id="a_node5"><a xlink:href="drawable_8h.html" target="_top" xlink:title="Declaration of the Drawable class.">
<polygon fill="none" stroke="#000000" points="58.7783,-168.5 58.7783,-187.5 129.7783,-187.5 129.7783,-168.5 58.7783,-168.5"/>
<text text-anchor="middle" x="94.2783" y="-175.5" font-family="Helvetica,sans-Serif" font-size="10.00" fill="#000000">drawable.h</text>
</a>
</g>
</g>
<!-- Node1&#45;&gt;Node4 -->
<g id="edge11" class="edge">
<title>Node1&#45;&gt;Node4</title>
<path fill="none" stroke="#191970" d="M97.0517,-343.9011C69.7033,-340.1248 27.2901,-329.5582 7.2783,-300 -19.0962,-261.044 35.2052,-216.2464 69.3639,-193.2996"/>
<polygon fill="#191970" stroke="#191970" points="71.5011,-196.0844 77.9668,-187.6912 67.6783,-190.2205 71.5011,-196.0844"/>
</g>
<!-- Node10 -->
<g id="node11" class="node">
<title>Node10</title>
<g id="a_node11"><a xlink:href="vector2_8h.html" target="_top" xlink:title="Declaration of the Vector2 class.">
<polygon fill="none" stroke="#000000" points="148.2783,-168.5 148.2783,-187.5 210.2783,-187.5 210.2783,-168.5 148.2783,-168.5"/>
<text text-anchor="middle" x="179.2783" y="-175.5" font-family="Helvetica,sans-Serif" font-size="10.00" fill="#000000">vector2.h</text>
</a>
</g>
</g>
<!-- Node1&#45;&gt;Node10 -->
<g id="edge14" class="edge">
<title>Node1&#45;&gt;Node10</title>
<path fill="none" stroke="#191970" d="M135.8175,-336.3484C146.3434,-328.019 160.292,-314.9861 167.2783,-300 182.7966,-266.7117 182.846,-222.8643 181.23,-197.8203"/>
<polygon fill="#191970" stroke="#191970" points="184.71,-197.4297 180.4199,-187.7423 177.7325,-197.9906 184.71,-197.4297"/>
</g>
<!-- Node11 -->
<g id="node12" class="node">
<title>Node11</title>
<g id="a_node12"><a xlink:href="rectangle_8h.html" target="_top" xlink:title="Declaration of the Rectangle class.">
<polygon fill="none" stroke="#000000" points="86.7783,-280.5 86.7783,-299.5 157.7783,-299.5 157.7783,-280.5 86.7783,-280.5"/>
<text text-anchor="middle" x="122.2783" y="-287.5" font-family="Helvetica,sans-Serif" font-size="10.00" fill="#000000">rectangle.h</text>
</a>
</g>
</g>
<!-- Node1&#45;&gt;Node11 -->
<g id="edge12" class="edge">
<title>Node1&#45;&gt;Node11</title>
<path fill="none" stroke="#191970" d="M122.2783,-336.2455C122.2783,-328.9382 122.2783,-318.6944 122.2783,-309.7046"/>
<polygon fill="#191970" stroke="#191970" points="125.7784,-309.6426 122.2783,-299.6427 118.7784,-309.6427 125.7784,-309.6426"/>
</g>
<!-- Node3 -->
<g id="node4" class="node">
<title>Node3</title>
<g id="a_node4"><a xlink:href="shape_8h.html" target="_top" xlink:title="Declaration of the Shape class.">
<polygon fill="none" stroke="#000000" points="80.7783,-224.5 80.7783,-243.5 135.7783,-243.5 135.7783,-224.5 80.7783,-224.5"/>
<text text-anchor="middle" x="108.2783" y="-231.5" font-family="Helvetica,sans-Serif" font-size="10.00" fill="#000000">shape.h</text>
</a>
</g>
</g>
<!-- Node2&#45;&gt;Node3 -->
<g id="edge3" class="edge">
<title>Node2&#45;&gt;Node3</title>
<path fill="none" stroke="#191970" d="M53.7746,-280.2455C63.5225,-271.9746 77.7042,-259.9416 89.158,-250.2232"/>
<polygon fill="#191970" stroke="#191970" points="91.553,-252.7813 96.9137,-243.6427 87.0241,-247.4437 91.553,-252.7813"/>
</g>
<!-- Node3&#45;&gt;Node4 -->
<g id="edge4" class="edge">
<title>Node3&#45;&gt;Node4</title>
<path fill="none" stroke="#191970" d="M105.8396,-224.2455C103.9927,-216.8579 101.3955,-206.4689 99.1304,-197.4087"/>
<polygon fill="#191970" stroke="#191970" points="102.5099,-196.4952 96.6889,-187.6427 95.7189,-198.193 102.5099,-196.4952"/>
</g>
<!-- Node3&#45;&gt;Node10 -->
<g id="edge10" class="edge">
<title>Node3&#45;&gt;Node10</title>
<path fill="none" stroke="#191970" d="M120.6455,-224.2455C131.2337,-215.8943 146.6847,-203.7076 159.0676,-193.9408"/>
<polygon fill="#191970" stroke="#191970" points="161.3686,-196.5837 167.0527,-187.6427 157.0335,-191.0875 161.3686,-196.5837"/>
</g>
<!-- Node5 -->
<g id="node6" class="node">
<title>Node5</title>
<g id="a_node6"><a xlink:href="PNG_8h.html" target="_top" xlink:title=" ">
<polygon fill="none" stroke="#000000" points="127.2783,-112.5 127.2783,-131.5 205.2783,-131.5 205.2783,-112.5 127.2783,-112.5"/>
<text text-anchor="middle" x="166.2783" y="-119.5" font-family="Helvetica,sans-Serif" font-size="10.00" fill="#000000">cs225/PNG.h</text>
</a>
</g>
</g>
<!-- Node4&#45;&gt;Node5 -->
<g id="edge5" class="edge">
<title>Node4&#45;&gt;Node5</title>
<path fill="none" stroke="#191970" d="M106.8197,-168.2455C117.557,-159.8943 133.2256,-147.7076 145.7829,-137.9408"/>
<polygon fill="#191970" stroke="#191970" points="148.1358,-140.5449 153.8805,-131.6427 143.8382,-135.0194 148.1358,-140.5449"/>
</g>
<!-- Node6 -->
<g id="node7" class="node">
<title>Node6</title>
<g id="a_node7"><a xlink:title=" ">
<polygon fill="none" stroke="#bfbfbf" points="105.2783,-56.5 105.2783,-75.5 149.2783,-75.5 149.2783,-56.5 105.2783,-56.5"/>
<text text-anchor="middle" x="127.2783" y="-63.5" font-family="Helvetica,sans-Serif" font-size="10.00" fill="#000000">string</text>
</a>
</g>
</g>
<!-- Node5&#45;&gt;Node6 -->
<g id="edge6" class="edge">
<title>Node5&#45;&gt;Node6</title>
<path fill="none" stroke="#191970" d="M159.485,-112.2455C154.0604,-104.4564 146.3122,-93.3308 139.7749,-83.9439"/>
<polygon fill="#191970" stroke="#191970" points="142.5808,-81.8485 133.9937,-75.6427 136.8365,-85.849 142.5808,-81.8485"/>
</g>
<!-- Node7 -->
<g id="node8" class="node">
<title>Node7</title>
<g id="a_node8"><a xlink:href="HSLAPixel_8h.html" target="_top" xlink:title=" ">
<polygon fill="none" stroke="#000000" points="167.7783,-56.5 167.7783,-75.5 242.7783,-75.5 242.7783,-56.5 167.7783,-56.5"/>
<text text-anchor="middle" x="205.2783" y="-63.5" font-family="Helvetica,sans-Serif" font-size="10.00" fill="#000000">HSLAPixel.h</text>
</a>
</g>
</g>
<!-- Node5&#45;&gt;Node7 -->
<g id="edge7" class="edge">
<title>Node5&#45;&gt;Node7</title>
<path fill="none" stroke="#191970" d="M173.0715,-112.2455C178.4961,-104.4564 186.2443,-93.3308 192.7816,-83.9439"/>
<polygon fill="#191970" stroke="#191970" points="195.72,-85.849 198.5628,-75.6427 189.9757,-81.8485 195.72,-85.849"/>
</g>
<!-- Node8 -->
<g id="node9" class="node">
<title>Node8</title>
<g id="a_node9"><a xlink:title=" ">
<polygon fill="none" stroke="#bfbfbf" points="137.2783,-.5 137.2783,-19.5 197.2783,-19.5 197.2783,-.5 137.2783,-.5"/>
<text text-anchor="middle" x="167.2783" y="-7.5" font-family="Helvetica,sans-Serif" font-size="10.00" fill="#000000">iostream</text>
</a>
</g>
</g>
<!-- Node7&#45;&gt;Node8 -->
<g id="edge8" class="edge">
<title>Node7&#45;&gt;Node8</title>
<path fill="none" stroke="#191970" d="M198.6592,-56.2455C193.3737,-48.4564 185.8241,-37.3308 179.4545,-27.9439"/>
<polygon fill="#191970" stroke="#191970" points="182.3327,-25.9522 173.8215,-19.6427 176.5404,-29.8827 182.3327,-25.9522"/>
</g>
<!-- Node9 -->
<g id="node10" class="node">
<title>Node9</title>
<g id="a_node10"><a xlink:title=" ">
<polygon fill="none" stroke="#bfbfbf" points="215.2783,-.5 215.2783,-19.5 271.2783,-19.5 271.2783,-.5 215.2783,-.5"/>
<text text-anchor="middle" x="243.2783" y="-7.5" font-family="Helvetica,sans-Serif" font-size="10.00" fill="#000000">sstream</text>
</a>
</g>
</g>
<!-- Node7&#45;&gt;Node9 -->
<g id="edge9" class="edge">
<title>Node7&#45;&gt;Node9</title>
<path fill="none" stroke="#191970" d="M211.8974,-56.2455C217.1828,-48.4564 224.7324,-37.3308 231.102,-27.9439"/>
<polygon fill="#191970" stroke="#191970" points="234.0161,-29.8827 236.735,-19.6427 228.2238,-25.9522 234.0161,-29.8827"/>
</g>
<!-- Node11&#45;&gt;Node3 -->
<g id="edge13" class="edge">
<title>Node11&#45;&gt;Node3</title>
<path fill="none" stroke="#191970" d="M119.8396,-280.2455C117.9927,-272.8579 115.3955,-262.4689 113.1304,-253.4087"/>
<polygon fill="#191970" stroke="#191970" points="116.5099,-252.4952 110.6889,-243.6427 109.7189,-254.193 116.5099,-252.4952"/>
</g>
<!-- Node12&#45;&gt;Node5 -->
<g id="edge16" class="edge">
<title>Node12&#45;&gt;Node5</title>
<path fill="none" stroke="#191970" d="M237.2421,-224.3349C235.4231,-210.81 230.6983,-185.8899 219.2783,-168 211.6983,-156.1257 200.1536,-145.5938 189.7719,-137.6141"/>
<polygon fill="#191970" stroke="#191970" points="191.5799,-134.6008 181.4374,-131.5379 187.4561,-140.2572 191.5799,-134.6008"/>
</g>
</g>
</svg>
