<?xml version="1.0" encoding="UTF-8" standalone="no"?>
<!DOCTYPE svg PUBLIC "-//W3C//DTD SVG 1.1//EN"
 "http://www.w3.org/Graphics/SVG/1.1/DTD/svg11.dtd">
<!-- Generated by graphviz version 2.40.1 (20161225.0304)
 -->
<!-- Title: truck.h Pages: 1 -->
<svg width="200pt" height="364pt"
 viewBox="0.00 0.00 199.79 364.00" xmlns="http://www.w3.org/2000/svg" xmlns:xlink="http://www.w3.org/1999/xlink">
<g id="graph0" class="graph" transform="scale(1 1) rotate(0) translate(4 360)">
<title>truck.h</title>
<!-- Node0 -->
<g id="node1" class="node">
<title>Node0</title>
<g id="a_node1"><a xlink:title="Declaration of the Truck class.">
<polygon fill="#bfbfbf" stroke="#000000" points="73,-336.5 73,-355.5 123,-355.5 123,-336.5 73,-336.5"/>
<text text-anchor="middle" x="98" y="-343.5" font-family="Helvetica,sans-Serif" font-size="10.00" fill="#000000">truck.h</text>
</a>
</g>
</g>
<!-- Node1 -->
<g id="node2" class="node">
<title>Node1</title>
<g id="a_node2"><a xlink:href="circle_8h.html" target="_top" xlink:title="Declaration of the Circle class.">
<polygon fill="none" stroke="#000000" points="32,-280.5 32,-299.5 84,-299.5 84,-280.5 32,-280.5"/>
<text text-anchor="middle" x="58" y="-287.5" font-family="Helvetica,sans-Serif" font-size="10.00" fill="#000000">circle.h</text>
</a>
</g>
</g>
<!-- Node0&#45;&gt;Node1 -->
<g id="edge1" class="edge">
<title>Node0&#45;&gt;Node1</title>
<path fill="none" stroke="#191970" d="M91.0325,-336.2455C85.4689,-328.4564 77.522,-317.3308 70.8171,-307.9439"/>
<polygon fill="#191970" stroke="#191970" points="73.5481,-305.7457 64.8876,-299.6427 67.852,-309.8144 73.5481,-305.7457"/>
</g>
<!-- Node3 -->
<g id="node4" class="node">
<title>Node3</title>
<g id="a_node4"><a xlink:href="drawable_8h.html" target="_top" xlink:title="Declaration of the Drawable class.">
<polygon fill="none" stroke="#000000" points="25.5,-168.5 25.5,-187.5 96.5,-187.5 96.5,-168.5 25.5,-168.5"/>
<text text-anchor="middle" x="61" y="-175.5" font-family="Helvetica,sans-Serif" font-size="10.00" fill="#000000">drawable.h</text>
</a>
</g>
</g>
<!-- Node0&#45;&gt;Node3 -->
<g id="edge10" class="edge">
<title>Node0&#45;&gt;Node3</title>
<path fill="none" stroke="#191970" d="M72.9307,-338.0181C55.5117,-331.0098 33.5947,-318.9267 23,-300 3.795,-265.6914 29.3958,-220.4123 46.9675,-195.7973"/>
<polygon fill="#191970" stroke="#191970" points="49.8153,-197.8332 52.9802,-187.7221 44.2007,-193.6527 49.8153,-197.8332"/>
</g>
<!-- Node9 -->
<g id="node10" class="node">
<title>Node9</title>
<g id="a_node10"><a xlink:href="vector2_8h.html" target="_top" xlink:title="Declaration of the Vector2 class.">
<polygon fill="none" stroke="#000000" points="127,-168.5 127,-187.5 189,-187.5 189,-168.5 127,-168.5"/>
<text text-anchor="middle" x="158" y="-175.5" font-family="Helvetica,sans-Serif" font-size="10.00" fill="#000000">vector2.h</text>
</a>
</g>
</g>
<!-- Node0&#45;&gt;Node9 -->
<g id="edge13" class="edge">
<title>Node0&#45;&gt;Node9</title>
<path fill="none" stroke="#191970" d="M123.0243,-339.9922C143.1483,-333.6982 170.1164,-321.6215 183,-300 202.5407,-267.2064 183.235,-221.6149 169.3722,-196.4781"/>
<polygon fill="#191970" stroke="#191970" points="172.2853,-194.5243 164.243,-187.627 166.2287,-198.0341 172.2853,-194.5243"/>
</g>
<!-- Node10 -->
<g id="node11" class="node">
<title>Node10</title>
<g id="a_node11"><a xlink:href="rectangle_8h.html" target="_top" xlink:title="Declaration of the Rectangle class.">
<polygon fill="none" stroke="#000000" points="102.5,-280.5 102.5,-299.5 173.5,-299.5 173.5,-280.5 102.5,-280.5"/>
<text text-anchor="middle" x="138" y="-287.5" font-family="Helvetica,sans-Serif" font-size="10.00" fill="#000000">rectangle.h</text>
</a>
</g>
</g>
<!-- Node0&#45;&gt;Node10 -->
<g id="edge11" class="edge">
<title>Node0&#45;&gt;Node10</title>
<path fill="none" stroke="#191970" d="M104.9675,-336.2455C110.5311,-328.4564 118.478,-317.3308 125.1829,-307.9439"/>
<polygon fill="#191970" stroke="#191970" points="128.148,-309.8144 131.1124,-299.6427 122.4519,-305.7457 128.148,-309.8144"/>
</g>
<!-- Node2 -->
<g id="node3" class="node">
<title>Node2</title>
<g id="a_node3"><a xlink:href="shape_8h.html" target="_top" xlink:title="Declaration of the Shape class.">
<polygon fill="none" stroke="#000000" points="86.5,-224.5 86.5,-243.5 141.5,-243.5 141.5,-224.5 86.5,-224.5"/>
<text text-anchor="middle" x="114" y="-231.5" font-family="Helvetica,sans-Serif" font-size="10.00" fill="#000000">shape.h</text>
</a>
</g>
</g>
<!-- Node1&#45;&gt;Node2 -->
<g id="edge2" class="edge">
<title>Node1&#45;&gt;Node2</title>
<path fill="none" stroke="#191970" d="M67.7545,-280.2455C75.8648,-272.1352 87.5925,-260.4075 97.2081,-250.7919"/>
<polygon fill="#191970" stroke="#191970" points="99.7611,-253.1887 104.3573,-243.6427 94.8113,-248.2389 99.7611,-253.1887"/>
</g>
<!-- Node2&#45;&gt;Node3 -->
<g id="edge3" class="edge">
<title>Node2&#45;&gt;Node3</title>
<path fill="none" stroke="#191970" d="M104.7681,-224.2455C97.1683,-216.2155 86.2123,-204.6394 77.1632,-195.0781"/>
<polygon fill="#191970" stroke="#191970" points="79.542,-192.4998 70.1261,-187.6427 74.4579,-197.3115 79.542,-192.4998"/>
</g>
<!-- Node2&#45;&gt;Node9 -->
<g id="edge9" class="edge">
<title>Node2&#45;&gt;Node9</title>
<path fill="none" stroke="#191970" d="M121.6642,-224.2455C127.8473,-216.3761 136.7063,-205.101 144.1289,-195.6542"/>
<polygon fill="#191970" stroke="#191970" points="146.9975,-197.6683 150.4236,-187.6427 141.4932,-193.3435 146.9975,-197.6683"/>
</g>
<!-- Node4 -->
<g id="node5" class="node">
<title>Node4</title>
<g id="a_node5"><a xlink:href="PNG_8h.html" target="_top" xlink:title=" ">
<polygon fill="none" stroke="#000000" points="22,-112.5 22,-131.5 100,-131.5 100,-112.5 22,-112.5"/>
<text text-anchor="middle" x="61" y="-119.5" font-family="Helvetica,sans-Serif" font-size="10.00" fill="#000000">cs225/PNG.h</text>
</a>
</g>
</g>
<!-- Node3&#45;&gt;Node4 -->
<g id="edge4" class="edge">
<title>Node3&#45;&gt;Node4</title>
<path fill="none" stroke="#191970" d="M61,-168.2455C61,-160.9382 61,-150.6944 61,-141.7046"/>
<polygon fill="#191970" stroke="#191970" points="64.5001,-141.6426 61,-131.6427 57.5001,-141.6427 64.5001,-141.6426"/>
</g>
<!-- Node5 -->
<g id="node6" class="node">
<title>Node5</title>
<g id="a_node6"><a xlink:title=" ">
<polygon fill="none" stroke="#bfbfbf" points="0,-56.5 0,-75.5 44,-75.5 44,-56.5 0,-56.5"/>
<text text-anchor="middle" x="22" y="-63.5" font-family="Helvetica,sans-Serif" font-size="10.00" fill="#000000">string</text>
</a>
</g>
</g>
<!-- Node4&#45;&gt;Node5 -->
<g id="edge5" class="edge">
<title>Node4&#45;&gt;Node5</title>
<path fill="none" stroke="#191970" d="M54.2067,-112.2455C48.7822,-104.4564 41.0339,-93.3308 34.4967,-83.9439"/>
<polygon fill="#191970" stroke="#191970" points="37.3025,-81.8485 28.7154,-75.6427 31.5583,-85.849 37.3025,-81.8485"/>
</g>
<!-- Node6 -->
<g id="node7" class="node">
<title>Node6</title>
<g id="a_node7"><a xlink:href="HSLAPixel_8h.html" target="_top" xlink:title=" ">
<polygon fill="none" stroke="#000000" points="62.5,-56.5 62.5,-75.5 137.5,-75.5 137.5,-56.5 62.5,-56.5"/>
<text text-anchor="middle" x="100" y="-63.5" font-family="Helvetica,sans-Serif" font-size="10.00" fill="#000000">HSLAPixel.h</text>
</a>
</g>
</g>
<!-- Node4&#45;&gt;Node6 -->
<g id="edge6" class="edge">
<title>Node4&#45;&gt;Node6</title>
<path fill="none" stroke="#191970" d="M67.7933,-112.2455C73.2178,-104.4564 80.9661,-93.3308 87.5033,-83.9439"/>
<polygon fill="#191970" stroke="#191970" points="90.4417,-85.849 93.2846,-75.6427 84.6975,-81.8485 90.4417,-85.849"/>
</g>
<!-- Node7 -->
<g id="node8" class="node">
<title>Node7</title>
<g id="a_node8"><a xlink:title=" ">
<polygon fill="none" stroke="#bfbfbf" points="32,-.5 32,-19.5 92,-19.5 92,-.5 32,-.5"/>
<text text-anchor="middle" x="62" y="-7.5" font-family="Helvetica,sans-Serif" font-size="10.00" fill="#000000">iostream</text>
</a>
</g>
</g>
<!-- Node6&#45;&gt;Node7 -->
<g id="edge7" class="edge">
<title>Node6&#45;&gt;Node7</title>
<path fill="none" stroke="#191970" d="M93.3809,-56.2455C88.0954,-48.4564 80.5459,-37.3308 74.1762,-27.9439"/>
<polygon fill="#191970" stroke="#191970" points="77.0545,-25.9522 68.5432,-19.6427 71.2621,-29.8827 77.0545,-25.9522"/>
</g>
<!-- Node8 -->
<g id="node9" class="node">
<title>Node8</title>
<g id="a_node9"><a xlink:title=" ">
<polygon fill="none" stroke="#bfbfbf" points="110,-.5 110,-19.5 166,-19.5 166,-.5 110,-.5"/>
<text text-anchor="middle" x="138" y="-7.5" font-family="Helvetica,sans-Serif" font-size="10.00" fill="#000000">sstream</text>
</a>
</g>
</g>
<!-- Node6&#45;&gt;Node8 -->
<g id="edge8" class="edge">
<title>Node6&#45;&gt;Node8</title>
<path fill="none" stroke="#191970" d="M106.6191,-56.2455C111.9046,-48.4564 119.4541,-37.3308 125.8238,-27.9439"/>
<polygon fill="#191970" stroke="#191970" points="128.7379,-29.8827 131.4568,-19.6427 122.9455,-25.9522 128.7379,-29.8827"/>
</g>
<!-- Node10&#45;&gt;Node2 -->
<g id="edge12" class="edge">
<title>Node10&#45;&gt;Node2</title>
<path fill="none" stroke="#191970" d="M133.8195,-280.2455C130.619,-272.7776 126.104,-262.2427 122.1916,-253.1137"/>
<polygon fill="#191970" stroke="#191970" points="125.2888,-251.4554 118.1326,-243.6427 118.8548,-254.2129 125.2888,-251.4554"/>
</g>
</g>
</svg>
