<?xml version="1.0" encoding="UTF-8" standalone="no"?>
<!DOCTYPE svg PUBLIC "-//W3C//DTD SVG 1.1//EN"
 "http://www.w3.org/Graphics/SVG/1.1/DTD/svg11.dtd">
<!-- Generated by graphviz version 2.40.1 (20161225.0304)
 -->
<!-- Title: vector2.h Pages: 1 -->
<!--zoomable 252 -->
<svg id="main" version="1.1" xmlns="http://www.w3.org/2000/svg" xmlns:xlink="http://www.w3.org/1999/xlink" xml:space="preserve" onload="init(evt)">
<style type="text/css"><![CDATA[
.edge:hover path { stroke: red; }
.edge:hover polygon { stroke: red; fill: red; }
]]></style>
<script type="text/javascript"><![CDATA[
var edges = document.getElementsByTagName('g');
if (edges && edges.length) {
  for (var i=0;i<edges.length;i++) {
    if (edges[i].id.substr(0,4)=='edge') {
      edges[i].setAttribute('class','edge');
    }
  }
}
]]></script>
        <defs>
                <circle id="rim" cx="0" cy="0" r="7"/>
                <circle id="rim2" cx="0" cy="0" r="3.5"/>
                <g id="zoomPlus">
                        <use xlink:href="#rim" fill="#404040">
                                <set attributeName="fill" to="#808080" begin="zoomplus.mouseover" end="zoomplus.mouseout"/>
                        </use>
                        <path d="M-4,0h8M0,-4v8" fill="none" stroke="white" stroke-width="1.5" pointer-events="none"/>
                </g>
                <g id="zoomMin">
                        <use xlink:href="#rim" fill="#404040">
                                <set attributeName="fill" to="#808080" begin="zoomminus.mouseover" end="zoomminus.mouseout"/>
                        </use>
                        <path d="M-4,0h8" fill="none" stroke="white" stroke-width="1.5" pointer-events="none"/>
                </g>
                <g id="dirArrow">
                        <path fill="none" stroke="white" stroke-width="1.5" d="M0,-3.0v7 M-2.5,-0.5L0,-3.0L2.5,-0.5"/>
                </g>
               <g id="resetDef">
                       <use xlink:href="#rim2" fill="#404040">
                               <set attributeName="fill" to="#808080" begin="reset.mouseover" end="reset.mouseout"/>
                       </use>
               </g>
        </defs>

<script type="text/javascript">
var viewWidth = 996;
var viewHeight = 252;
var sectionId = 'dynsection-0';
</script>
<script xlink:href="svgpan.js"/>
<svg id="graph" class="graph">
<g id="viewport">
<title>vector2.h</title>
<!-- Node1 -->
<g id="node1" class="node">
<title>Node1</title>
<g id="a_node1"><a xlink:title="Declaration of the Vector2 class.">
<polygon fill="#bfbfbf" stroke="#000000" points="592,-224.5 592,-243.5 654,-243.5 654,-224.5 592,-224.5"/>
<text text-anchor="middle" x="623" y="-231.5" font-family="Helvetica,sans-Serif" font-size="10.00" fill="#000000">vector2.h</text>
</a>
</g>
</g>
<!-- Node2 -->
<g id="node2" class="node">
<title>Node2</title>
<g id="a_node2"><a xlink:href="shape_8h.html" target="_top" xlink:title="Declaration of the Shape class.">
<polygon fill="none" stroke="#000000" points="460.5,-168.5 460.5,-187.5 515.5,-187.5 515.5,-168.5 460.5,-168.5"/>
<text text-anchor="middle" x="488" y="-175.5" font-family="Helvetica,sans-Serif" font-size="10.00" fill="#000000">shape.h</text>
</a>
</g>
</g>
<!-- Node1&#45;&gt;Node2 -->
<g id="edge1" class="edge">
<title>Node1&#45;&gt;Node2</title>
<path fill="none" stroke="#191970" d="M590.5009,-220.5189C565.9146,-210.3201 532.7634,-196.5685 510.9045,-187.5011"/>
<polygon fill="#191970" stroke="#191970" points="589.2148,-223.7745 599.7927,-224.3733 591.8969,-217.3087 589.2148,-223.7745"/>
</g>
<!-- Node6 -->
<g id="node6" class="node">
<title>Node6</title>
<g id="a_node6"><a xlink:href="test__constructor_8cpp.html" target="_top" xlink:title="A simple application that demonstrates a problem with the Circle constructor.">
<polygon fill="none" stroke="#000000" points="0,-56.5 0,-75.5 114,-75.5 114,-56.5 0,-56.5"/>
<text text-anchor="middle" x="57" y="-63.5" font-family="Helvetica,sans-Serif" font-size="10.00" fill="#000000">test_constructor.cpp</text>
</a>
</g>
</g>
<!-- Node1&#45;&gt;Node6 -->
<g id="edge31" class="edge">
<title>Node1&#45;&gt;Node6</title>
<path fill="none" stroke="#191970" d="M581.7334,-231.7189C516.9623,-227.4085 387.8921,-215.8633 282,-188 217.1907,-170.9468 200.145,-165.32 142,-132 112.8216,-115.2794 82.6526,-89.4427 67.3114,-75.5759"/>
<polygon fill="#191970" stroke="#191970" points="581.7345,-235.226 591.938,-232.3731 582.1824,-228.2404 581.7345,-235.226"/>
</g>
<!-- Node7 -->
<g id="node7" class="node">
<title>Node7</title>
<g id="a_node7"><a xlink:href="truck_8h.html" target="_top" xlink:title="Declaration of the Truck class.">
<polygon fill="none" stroke="#000000" points="132,-56.5 132,-75.5 182,-75.5 182,-56.5 132,-56.5"/>
<text text-anchor="middle" x="157" y="-63.5" font-family="Helvetica,sans-Serif" font-size="10.00" fill="#000000">truck.h</text>
</a>
</g>
</g>
<!-- Node1&#45;&gt;Node7 -->
<g id="edge33" class="edge">
<title>Node1&#45;&gt;Node7</title>
<path fill="none" stroke="#191970" d="M581.9792,-228.28C487.7048,-214.4953 258.9472,-177.2114 197,-132 177.3029,-117.6243 165.3953,-90.3305 160.1571,-75.7525"/>
<polygon fill="#191970" stroke="#191970" points="581.6004,-231.7616 591.9987,-229.7304 582.6033,-224.8338 581.6004,-231.7616"/>
</g>
<!-- Node13 -->
<g id="node13" class="node">
<title>Node13</title>
<g id="a_node13"><a xlink:href="main_8cpp.html" target="_top" xlink:title="Provides a simple application that draws some stuff.">
<polygon fill="none" stroke="#000000" points="578,-56.5 578,-75.5 640,-75.5 640,-56.5 578,-56.5"/>
<text text-anchor="middle" x="609" y="-63.5" font-family="Helvetica,sans-Serif" font-size="10.00" fill="#000000">main.cpp</text>
</a>
</g>
</g>
<!-- Node1&#45;&gt;Node13 -->
<g id="edge30" class="edge">
<title>Node1&#45;&gt;Node13</title>
<path fill="none" stroke="#191970" d="M616.6545,-214.6333C609.509,-190.6891 599.2303,-148.6115 602,-112 602.9506,-99.4342 605.342,-85.1014 607.0653,-75.8213"/>
<polygon fill="#191970" stroke="#191970" points="613.3421,-215.7682 619.6589,-224.274 620.025,-213.6855 613.3421,-215.7682"/>
</g>
<!-- Node15 -->
<g id="node15" class="node">
<title>Node15</title>
<g id="a_node15"><a xlink:href="test__virtual_8cpp.html" target="_top" xlink:title="A simple application that demonstrates a problem with Shape virtual methods.">
<polygon fill="none" stroke="#000000" points="658,-56.5 658,-75.5 750,-75.5 750,-56.5 658,-56.5"/>
<text text-anchor="middle" x="704" y="-63.5" font-family="Helvetica,sans-Serif" font-size="10.00" fill="#000000">test_virtual.cpp</text>
</a>
</g>
</g>
<!-- Node1&#45;&gt;Node15 -->
<g id="edge34" class="edge">
<title>Node1&#45;&gt;Node15</title>
<path fill="none" stroke="#191970" d="M635.35,-215.8775C648.4977,-195.984 669.2626,-162.7712 683,-132 691.6272,-112.6754 698.3178,-88.7268 701.6569,-75.6461"/>
<polygon fill="#191970" stroke="#191970" points="632.3899,-214.0076 629.7347,-224.2643 638.2066,-217.9021 632.3899,-214.0076"/>
</g>
<!-- Node17 -->
<g id="node17" class="node">
<title>Node17</title>
<g id="a_node17"><a xlink:href="test__destructor_8cpp.html" target="_top" xlink:title="A simple application that demonstrates a problem with the Triangle destructor.">
<polygon fill="none" stroke="#000000" points="768.5,-56.5 768.5,-75.5 877.5,-75.5 877.5,-56.5 768.5,-56.5"/>
<text text-anchor="middle" x="823" y="-63.5" font-family="Helvetica,sans-Serif" font-size="10.00" fill="#000000">test_destructor.cpp</text>
</a>
</g>
</g>
<!-- Node1&#45;&gt;Node17 -->
<g id="edge32" class="edge">
<title>Node1&#45;&gt;Node17</title>
<path fill="none" stroke="#191970" d="M663.6197,-221.676C705.2206,-206.9731 768.7735,-178.3786 805,-132 818.1599,-115.1522 821.7126,-89.3672 822.6622,-75.5423"/>
<polygon fill="#191970" stroke="#191970" points="662.3912,-218.3971 654.0631,-224.9463 664.6577,-225.02 662.3912,-218.3971"/>
</g>
<!-- Node20 -->
<g id="node20" class="node">
<title>Node20</title>
<g id="a_node20"><a xlink:href="line_8h.html" target="_top" xlink:title="Declaration of the Line class.">
<polygon fill="none" stroke="#000000" points="852,-168.5 852,-187.5 896,-187.5 896,-168.5 852,-168.5"/>
<text text-anchor="middle" x="874" y="-175.5" font-family="Helvetica,sans-Serif" font-size="10.00" fill="#000000">line.h</text>
</a>
</g>
</g>
<!-- Node1&#45;&gt;Node20 -->
<g id="edge26" class="edge">
<title>Node1&#45;&gt;Node20</title>
<path fill="none" stroke="#191970" d="M664.0045,-225.9908C707.391,-217.3382 777.7719,-202.7938 838,-188 842.5356,-186.8859 847.3675,-185.6075 851.9704,-184.3453"/>
<polygon fill="#191970" stroke="#191970" points="663.2364,-222.5749 654.1094,-227.9553 664.5996,-229.4409 663.2364,-222.5749"/>
</g>
<!-- Node22 -->
<g id="node22" class="node">
<title>Node22</title>
<g id="a_node22"><a xlink:href="vector2_8cpp.html" target="_top" xlink:title="Implementation of the Vector2 class.">
<polygon fill="none" stroke="#000000" points="914,-168.5 914,-187.5 988,-187.5 988,-168.5 914,-168.5"/>
<text text-anchor="middle" x="951" y="-175.5" font-family="Helvetica,sans-Serif" font-size="10.00" fill="#000000">vector2.cpp</text>
</a>
</g>
</g>
<!-- Node1&#45;&gt;Node22 -->
<g id="edge35" class="edge">
<title>Node1&#45;&gt;Node22</title>
<path fill="none" stroke="#191970" d="M664.4639,-227.9314C719.5543,-219.7097 819.8457,-204.1896 905,-188 907.8904,-187.4505 910.8775,-186.8578 913.877,-186.2449"/>
<polygon fill="#191970" stroke="#191970" points="663.7685,-224.4962 654.3917,-229.4283 664.7976,-231.4202 663.7685,-224.4962"/>
</g>
<!-- Node3 -->
<g id="node3" class="node">
<title>Node3</title>
<g id="a_node3"><a xlink:href="circle_8h.html" target="_top" xlink:title="Declaration of the Circle class.">
<polygon fill="none" stroke="#000000" points="206,-112.5 206,-131.5 258,-131.5 258,-112.5 206,-112.5"/>
<text text-anchor="middle" x="232" y="-119.5" font-family="Helvetica,sans-Serif" font-size="10.00" fill="#000000">circle.h</text>
</a>
</g>
</g>
<!-- Node2&#45;&gt;Node3 -->
<g id="edge2" class="edge">
<title>Node2&#45;&gt;Node3</title>
<path fill="none" stroke="#191970" d="M450.1833,-169.7276C397.6389,-158.2335 303.8818,-137.7241 258.3127,-127.7559"/>
<polygon fill="#191970" stroke="#191970" points="449.5992,-173.1825 460.1162,-171.9004 451.0951,-166.3442 449.5992,-173.1825"/>
</g>
<!-- Node2&#45;&gt;Node6 -->
<g id="edge24" class="edge">
<title>Node2&#45;&gt;Node6</title>
<path fill="none" stroke="#191970" d="M449.9037,-175.4356C393.5613,-170.8747 285.1745,-159.1456 197,-132 150.0027,-117.5313 98.6567,-90.0222 73.1949,-75.51"/>
<polygon fill="#191970" stroke="#191970" points="449.8883,-178.9449 460.1295,-176.2303 450.4308,-171.9659 449.8883,-178.9449"/>
</g>
<!-- Node10 -->
<g id="node10" class="node">
<title>Node10</title>
<g id="a_node10"><a xlink:href="flower_8h.html" target="_top" xlink:title="Declaration of the Flower class.">
<polygon fill="none" stroke="#000000" points="333.5,-112.5 333.5,-131.5 388.5,-131.5 388.5,-112.5 333.5,-112.5"/>
<text text-anchor="middle" x="361" y="-119.5" font-family="Helvetica,sans-Serif" font-size="10.00" fill="#000000">flower.h</text>
</a>
</g>
</g>
<!-- Node2&#45;&gt;Node10 -->
<g id="edge9" class="edge">
<title>Node2&#45;&gt;Node10</title>
<path fill="none" stroke="#191970" d="M456.8108,-164.2473C433.7463,-154.0771 402.9288,-140.4883 382.5472,-131.5011"/>
<polygon fill="#191970" stroke="#191970" points="455.6058,-167.5411 466.1679,-168.3733 458.4301,-161.1361 455.6058,-167.5411"/>
</g>
<!-- Node12 -->
<g id="node12" class="node">
<title>Node12</title>
<g id="a_node12"><a xlink:href="rectangle_8h.html" target="_top" xlink:title="Declaration of the Rectangle class.">
<polygon fill="none" stroke="#000000" points="406.5,-112.5 406.5,-131.5 477.5,-131.5 477.5,-112.5 406.5,-112.5"/>
<text text-anchor="middle" x="442" y="-119.5" font-family="Helvetica,sans-Serif" font-size="10.00" fill="#000000">rectangle.h</text>
</a>
</g>
</g>
<!-- Node2&#45;&gt;Node12 -->
<g id="edge12" class="edge">
<title>Node2&#45;&gt;Node12</title>
<path fill="none" stroke="#191970" d="M473.6253,-160.5004C465.8029,-150.9775 456.424,-139.5596 449.9208,-131.6427"/>
<polygon fill="#191970" stroke="#191970" points="470.9354,-162.7399 479.9874,-168.2455 476.3445,-158.2967 470.9354,-162.7399"/>
</g>
<!-- Node2&#45;&gt;Node13 -->
<g id="edge22" class="edge">
<title>Node2&#45;&gt;Node13</title>
<path fill="none" stroke="#191970" d="M496.8575,-159.1872C504.239,-144.9675 515.818,-125.6333 530,-112 546.4759,-96.1615 569.4125,-83.5866 586.3284,-75.6152"/>
<polygon fill="#191970" stroke="#191970" points="493.5549,-157.9689 492.2472,-168.4827 499.826,-161.0792 493.5549,-157.9689"/>
</g>
<!-- Node16 -->
<g id="node16" class="node">
<title>Node16</title>
<g id="a_node16"><a xlink:href="triangle_8h.html" target="_top" xlink:title="Declaration of the Triangle class.">
<polygon fill="none" stroke="#000000" points="610.5,-112.5 610.5,-131.5 673.5,-131.5 673.5,-112.5 610.5,-112.5"/>
<text text-anchor="middle" x="642" y="-119.5" font-family="Helvetica,sans-Serif" font-size="10.00" fill="#000000">triangle.h</text>
</a>
</g>
</g>
<!-- Node2&#45;&gt;Node16 -->
<g id="edge18" class="edge">
<title>Node2&#45;&gt;Node16</title>
<path fill="none" stroke="#191970" d="M523.9614,-164.9231C552.1134,-154.686 590.6055,-140.6889 615.8719,-131.5011"/>
<polygon fill="#191970" stroke="#191970" points="522.6754,-161.6665 514.4735,-168.3733 525.0676,-168.245 522.6754,-161.6665"/>
</g>
<!-- Node2&#45;&gt;Node17 -->
<g id="edge25" class="edge">
<title>Node2&#45;&gt;Node17</title>
<path fill="none" stroke="#191970" d="M509.6667,-162.6164C531.8511,-147.5662 567.828,-125.0581 602,-112 631.7902,-100.6163 713.0238,-85.1151 768.2511,-75.3326"/>
<polygon fill="#191970" stroke="#191970" points="507.5701,-159.8107 501.3235,-168.3682 511.5432,-165.5739 507.5701,-159.8107"/>
</g>
<!-- Node19 -->
<g id="node19" class="node">
<title>Node19</title>
<g id="a_node19"><a xlink:href="shape_8cpp.html" target="_top" xlink:title="Implementation of the Shape class.">
<polygon fill="none" stroke="#000000" points="730,-112.5 730,-131.5 796,-131.5 796,-112.5 730,-112.5"/>
<text text-anchor="middle" x="763" y="-119.5" font-family="Helvetica,sans-Serif" font-size="10.00" fill="#000000">shape.cpp</text>
</a>
</g>
</g>
<!-- Node2&#45;&gt;Node19 -->
<g id="edge23" class="edge">
<title>Node2&#45;&gt;Node19</title>
<path fill="none" stroke="#191970" d="M525.4884,-170.366C579.5108,-159.3651 678.3991,-139.2278 729.8767,-128.7451"/>
<polygon fill="#191970" stroke="#191970" points="524.7276,-166.949 515.6272,-172.3741 526.1245,-173.8082 524.7276,-166.949"/>
</g>
<!-- Node4 -->
<g id="node4" class="node">
<title>Node4</title>
<g id="a_node4"><a xlink:href="circle_8cpp.html" target="_top" xlink:title="Implementation of the Circle class.">
<polygon fill="none" stroke="#000000" points="200.5,-56.5 200.5,-75.5 263.5,-75.5 263.5,-56.5 200.5,-56.5"/>
<text text-anchor="middle" x="232" y="-63.5" font-family="Helvetica,sans-Serif" font-size="10.00" fill="#000000">circle.cpp</text>
</a>
</g>
</g>
<!-- Node3&#45;&gt;Node4 -->
<g id="edge3" class="edge">
<title>Node3&#45;&gt;Node4</title>
<path fill="none" stroke="#191970" d="M232,-102.1575C232,-93.155 232,-82.9199 232,-75.6427"/>
<polygon fill="#191970" stroke="#191970" points="228.5001,-102.2455 232,-112.2455 235.5001,-102.2456 228.5001,-102.2455"/>
</g>
<!-- Node5 -->
<g id="node5" class="node">
<title>Node5</title>
<g id="a_node5"><a xlink:href="flower_8cpp.html" target="_top" xlink:title="Implementation of the Flower class.">
<polygon fill="none" stroke="#000000" points="392,-56.5 392,-75.5 458,-75.5 458,-56.5 392,-56.5"/>
<text text-anchor="middle" x="425" y="-63.5" font-family="Helvetica,sans-Serif" font-size="10.00" fill="#000000">flower.cpp</text>
</a>
</g>
</g>
<!-- Node3&#45;&gt;Node5 -->
<g id="edge4" class="edge">
<title>Node3&#45;&gt;Node5</title>
<path fill="none" stroke="#191970" d="M267.9847,-111.5588C303.5407,-101.2421 357.4743,-85.593 391.9678,-75.5845"/>
<polygon fill="#191970" stroke="#191970" points="266.6574,-108.2995 258.0288,-114.4476 268.6081,-115.0223 266.6574,-108.2995"/>
</g>
<!-- Node3&#45;&gt;Node6 -->
<g id="edge5" class="edge">
<title>Node3&#45;&gt;Node6</title>
<path fill="none" stroke="#191970" d="M195.8868,-110.4438C163.6739,-100.1356 117.0698,-85.2223 86.9018,-75.5686"/>
<polygon fill="#191970" stroke="#191970" points="195.2097,-113.9019 205.8007,-113.6162 197.3432,-107.2349 195.2097,-113.9019"/>
</g>
<!-- Node3&#45;&gt;Node7 -->
<g id="edge6" class="edge">
<title>Node3&#45;&gt;Node7</title>
<path fill="none" stroke="#191970" d="M210.8523,-106.2097C197.6799,-96.3743 181.16,-84.0394 169.9143,-75.6427"/>
<polygon fill="#191970" stroke="#191970" points="208.8291,-109.0671 218.936,-112.2455 213.0172,-103.4581 208.8291,-109.0671"/>
</g>
<!-- Node8 -->
<g id="node8" class="node">
<title>Node8</title>
<g id="a_node8"><a xlink:href="test__pure__virtual_8cpp.html" target="_top" xlink:title="A simple application that demonstrates a problem with Truck pure virtual methods.">
<polygon fill="none" stroke="#000000" points="43.5,-.5 43.5,-19.5 162.5,-19.5 162.5,-.5 43.5,-.5"/>
<text text-anchor="middle" x="103" y="-7.5" font-family="Helvetica,sans-Serif" font-size="10.00" fill="#000000">test_pure_virtual.cpp</text>
</a>
</g>
</g>
<!-- Node7&#45;&gt;Node8 -->
<g id="edge7" class="edge">
<title>Node7&#45;&gt;Node8</title>
<path fill="none" stroke="#191970" d="M140.4031,-48.7884C131.1653,-39.2085 120.0096,-27.6396 112.2983,-19.6427"/>
<polygon fill="#191970" stroke="#191970" points="138.1331,-51.4766 147.5939,-56.2455 143.172,-46.6176 138.1331,-51.4766"/>
</g>
<!-- Node9 -->
<g id="node9" class="node">
<title>Node9</title>
<g id="a_node9"><a xlink:href="truck_8cpp.html" target="_top" xlink:title="Implementation of the Truck class.">
<polygon fill="none" stroke="#000000" points="181,-.5 181,-19.5 243,-19.5 243,-.5 181,-.5"/>
<text text-anchor="middle" x="212" y="-7.5" font-family="Helvetica,sans-Serif" font-size="10.00" fill="#000000">truck.cpp</text>
</a>
</g>
</g>
<!-- Node7&#45;&gt;Node9 -->
<g id="edge8" class="edge">
<title>Node7&#45;&gt;Node9</title>
<path fill="none" stroke="#191970" d="M173.6226,-49.0751C183.0855,-39.4402 194.5969,-27.7196 202.5295,-19.6427"/>
<polygon fill="#191970" stroke="#191970" points="171.0903,-46.6585 166.5803,-56.2455 176.0845,-51.5635 171.0903,-46.6585"/>
</g>
<!-- Node10&#45;&gt;Node5 -->
<g id="edge10" class="edge">
<title>Node10&#45;&gt;Node5</title>
<path fill="none" stroke="#191970" d="M379.6914,-105.645C390.8219,-95.9058 404.5663,-83.8795 413.9798,-75.6427"/>
<polygon fill="#191970" stroke="#191970" points="377.369,-103.0264 372.1479,-112.2455 381.9785,-108.2945 377.369,-103.0264"/>
</g>
<!-- Node11 -->
<g id="node11" class="node">
<title>Node11</title>
<g id="a_node11"><a xlink:href="test__slicing_8cpp.html" target="_top" xlink:title="A simple application that demonstrates slicing in the Flower class.">
<polygon fill="none" stroke="#000000" points="282,-56.5 282,-75.5 374,-75.5 374,-56.5 282,-56.5"/>
<text text-anchor="middle" x="328" y="-63.5" font-family="Helvetica,sans-Serif" font-size="10.00" fill="#000000">test_slicing.cpp</text>
</a>
</g>
</g>
<!-- Node10&#45;&gt;Node11 -->
<g id="edge11" class="edge">
<title>Node10&#45;&gt;Node11</title>
<path fill="none" stroke="#191970" d="M350.1746,-103.6296C344.6701,-94.2887 338.2063,-83.3197 333.6823,-75.6427"/>
<polygon fill="#191970" stroke="#191970" points="347.1595,-105.4071 355.2518,-112.2455 353.1903,-101.8532 347.1595,-105.4071"/>
</g>
<!-- Node12&#45;&gt;Node5 -->
<g id="edge13" class="edge">
<title>Node12&#45;&gt;Node5</title>
<path fill="none" stroke="#191970" d="M436.0663,-102.4538C433.3119,-93.3803 430.1607,-82.9998 427.9272,-75.6427"/>
<polygon fill="#191970" stroke="#191970" points="432.7849,-103.6934 439.0388,-112.2455 439.483,-101.66 432.7849,-103.6934"/>
</g>
<!-- Node12&#45;&gt;Node7 -->
<g id="edge16" class="edge">
<title>Node12&#45;&gt;Node7</title>
<path fill="none" stroke="#191970" d="M396.4919,-111.7837C304.6881,-93.861 278.8322,-96.4839 191,-76 188.1238,-75.3292 185.1309,-74.5584 182.1662,-73.7487"/>
<polygon fill="#191970" stroke="#191970" points="396.0023,-115.2547 406.492,-113.7657 397.3632,-108.3883 396.0023,-115.2547"/>
</g>
<!-- Node12&#45;&gt;Node13 -->
<g id="edge14" class="edge">
<title>Node12&#45;&gt;Node13</title>
<path fill="none" stroke="#191970" d="M480.1998,-109.1905C510.7954,-98.9309 553.0278,-84.7691 580.6663,-75.5011"/>
<polygon fill="#191970" stroke="#191970" points="479.0767,-105.8755 470.7083,-112.3733 481.3022,-112.5123 479.0767,-105.8755"/>
</g>
<!-- Node14 -->
<g id="node14" class="node">
<title>Node14</title>
<g id="a_node14"><a xlink:href="rectangle_8cpp.html" target="_top" xlink:title="Implementation of the Rectangle class.">
<polygon fill="none" stroke="#000000" points="476.5,-56.5 476.5,-75.5 559.5,-75.5 559.5,-56.5 476.5,-56.5"/>
<text text-anchor="middle" x="518" y="-63.5" font-family="Helvetica,sans-Serif" font-size="10.00" fill="#000000">rectangle.cpp</text>
</a>
</g>
</g>
<!-- Node12&#45;&gt;Node14 -->
<g id="edge15" class="edge">
<title>Node12&#45;&gt;Node14</title>
<path fill="none" stroke="#191970" d="M463.4297,-106.2097C476.7777,-96.3743 493.5179,-84.0394 504.9135,-75.6427"/>
<polygon fill="#191970" stroke="#191970" points="461.2126,-103.4958 455.2382,-112.2455 465.365,-109.1312 461.2126,-103.4958"/>
</g>
<!-- Node12&#45;&gt;Node15 -->
<g id="edge17" class="edge">
<title>Node12&#45;&gt;Node15</title>
<path fill="none" stroke="#191970" d="M487.457,-112.284C535.6625,-101.9805 611.329,-85.8076 659.26,-75.5627"/>
<polygon fill="#191970" stroke="#191970" points="486.6547,-108.8763 477.6072,-114.3893 488.1179,-115.7217 486.6547,-108.8763"/>
</g>
<!-- Node16&#45;&gt;Node5 -->
<g id="edge19" class="edge">
<title>Node16&#45;&gt;Node5</title>
<path fill="none" stroke="#191970" d="M600.6609,-111.3318C559.2196,-100.6373 496.2326,-84.3826 458.0148,-74.5199"/>
<polygon fill="#191970" stroke="#191970" points="599.889,-114.7472 610.4463,-113.8571 601.6382,-107.9693 599.889,-114.7472"/>
</g>
<!-- Node16&#45;&gt;Node17 -->
<g id="edge20" class="edge">
<title>Node16&#45;&gt;Node17</title>
<path fill="none" stroke="#191970" d="M682.9722,-109.3235C716.1661,-99.0536 762.2058,-84.8093 792.291,-75.5011"/>
<polygon fill="#191970" stroke="#191970" points="681.6337,-106.0739 673.115,-112.3733 683.7027,-112.7611 681.6337,-106.0739"/>
</g>
<!-- Node18 -->
<g id="node18" class="node">
<title>Node18</title>
<g id="a_node18"><a xlink:href="triangle_8cpp.html" target="_top" xlink:title="Implementation of the Triangle class.">
<polygon fill="none" stroke="#000000" points="898,-56.5 898,-75.5 972,-75.5 972,-56.5 898,-56.5"/>
<text text-anchor="middle" x="935" y="-63.5" font-family="Helvetica,sans-Serif" font-size="10.00" fill="#000000">triangle.cpp</text>
</a>
</g>
</g>
<!-- Node16&#45;&gt;Node18 -->
<g id="edge21" class="edge">
<title>Node16&#45;&gt;Node18</title>
<path fill="none" stroke="#191970" d="M683.6234,-114.4444C732.407,-105.529 815.6581,-90.1274 887,-76 890.507,-75.3055 894.1553,-74.5698 897.8041,-73.8249"/>
<polygon fill="#191970" stroke="#191970" points="682.9625,-111.0071 673.7534,-116.2456 684.2193,-117.8934 682.9625,-111.0071"/>
</g>
<!-- Node20&#45;&gt;Node18 -->
<g id="edge29" class="edge">
<title>Node20&#45;&gt;Node18</title>
<path fill="none" stroke="#191970" d="M893.4798,-161.2169C901.7889,-153.1356 910.9447,-142.8514 917,-132 927.3016,-113.539 931.9798,-88.842 933.8742,-75.5061"/>
<polygon fill="#191970" stroke="#191970" points="890.8596,-158.8731 885.9018,-168.2364 895.6165,-164.0085 890.8596,-158.8731"/>
</g>
<!-- Node20&#45;&gt;Node19 -->
<g id="edge28" class="edge">
<title>Node20&#45;&gt;Node19</title>
<path fill="none" stroke="#191970" d="M845.9266,-163.8368C825.8615,-153.7139 799.4078,-140.3679 781.8326,-131.5011"/>
<polygon fill="#191970" stroke="#191970" points="844.4138,-166.9938 854.9184,-168.3733 847.5668,-160.7441 844.4138,-166.9938"/>
</g>
<!-- Node21 -->
<g id="node21" class="node">
<title>Node21</title>
<g id="a_node21"><a xlink:href="line_8cpp.html" target="_top" xlink:title="Implementation of the Line class.">
<polygon fill="none" stroke="#000000" points="852.5,-112.5 852.5,-131.5 907.5,-131.5 907.5,-112.5 852.5,-112.5"/>
<text text-anchor="middle" x="880" y="-119.5" font-family="Helvetica,sans-Serif" font-size="10.00" fill="#000000">line.cpp</text>
</a>
</g>
</g>
<!-- Node20&#45;&gt;Node21 -->
<g id="edge27" class="edge">
<title>Node20&#45;&gt;Node21</title>
<path fill="none" stroke="#191970" d="M876.126,-158.1575C877.0905,-149.155 878.1872,-138.9199 878.9669,-131.6427"/>
<polygon fill="#191970" stroke="#191970" points="872.6305,-157.9296 875.0451,-168.2455 879.5906,-158.6753 872.6305,-157.9296"/>
</g>
</g>
</svg>
        <g id="navigator" transform="translate(0 0)" fill="#404254">
                <rect fill="#f2f5e9" fill-opacity="0.5" stroke="#606060" stroke-width=".5" x="0" y="0" width="60" height="60"/>
                <use id="zoomplus" xlink:href="#zoomPlus" x="17" y="9" onmousedown="handleZoom(evt,'in')"/>
                <use id="zoomminus" xlink:href="#zoomMin" x="42" y="9" onmousedown="handleZoom(evt,'out')"/>
                <use id="reset" xlink:href="#resetDef" x="30" y="36" onmousedown="handleReset()"/>
                <g id="arrowUp" xlink:href="#dirArrow" transform="translate(30 24)" onmousedown="handlePan(0,-1)">
                  <use xlink:href="#rim" fill="#404040">
                        <set attributeName="fill" to="#808080" begin="arrowUp.mouseover" end="arrowUp.mouseout"/>
                  </use>
                  <path fill="none" stroke="white" stroke-width="1.5" d="M0,-3.0v7 M-2.5,-0.5L0,-3.0L2.5,-0.5"/>
                </g>
                <g id="arrowRight" xlink:href="#dirArrow" transform="rotate(90) translate(36 -43)" onmousedown="handlePan(1,0)">
                  <use xlink:href="#rim" fill="#404040">
                        <set attributeName="fill" to="#808080" begin="arrowRight.mouseover" end="arrowRight.mouseout"/>
                  </use>
                  <path fill="none" stroke="white" stroke-width="1.5" d="M0,-3.0v7 M-2.5,-0.5L0,-3.0L2.5,-0.5"/>
                </g>
                <g id="arrowDown" xlink:href="#dirArrow" transform="rotate(180) translate(-30 -48)" onmousedown="handlePan(0,1)">
                  <use xlink:href="#rim" fill="#404040">
                        <set attributeName="fill" to="#808080" begin="arrowDown.mouseover" end="arrowDown.mouseout"/>
                  </use>
                  <path fill="none" stroke="white" stroke-width="1.5" d="M0,-3.0v7 M-2.5,-0.5L0,-3.0L2.5,-0.5"/>
                </g>
                <g id="arrowLeft" xlink:href="#dirArrow" transform="rotate(270) translate(-36 17)" onmousedown="handlePan(-1,0)">
                  <use xlink:href="#rim" fill="#404040">
                        <set attributeName="fill" to="#808080" begin="arrowLeft.mouseover" end="arrowLeft.mouseout"/>
                  </use>
                  <path fill="none" stroke="white" stroke-width="1.5" d="M0,-3.0v7 M-2.5,-0.5L0,-3.0L2.5,-0.5"/>
                </g>
        </g>
        <svg viewBox="0 0 15 15" width="100%" height="30px" preserveAspectRatio="xMaxYMin meet">
         <g id="arrow_out" transform="scale(0.3 0.3)">
          <a xlink:href="vector2_8h__dep__incl_org.svg" target="_base">
           <rect id="button" ry="5" rx="5" y="6" x="6" height="38" width="38"
                fill="#f2f5e9" fill-opacity="0.5" stroke="#606060" stroke-width="1.0"/>
           <path id="arrow"
             d="M 11.500037,31.436501 C 11.940474,20.09759 22.043105,11.32322 32.158766,21.979434 L 37.068811,17.246167 C 37.068811,17.246167 37.088388,32 37.088388,32 L 22.160133,31.978069 C 22.160133,31.978069 26.997745,27.140456 26.997745,27.140456 C 18.528582,18.264221 13.291696,25.230495 11.500037,31.436501 z"
             style="fill:#404040;"/>
          </a>
         </g>
        </svg>
</svg>
