<?xml version="1.0" encoding="UTF-8" standalone="no"?>
<!DOCTYPE svg PUBLIC "-//W3C//DTD SVG 1.1//EN"
 "http://www.w3.org/Graphics/SVG/1.1/DTD/svg11.dtd">
<!-- Generated by graphviz version 2.40.1 (0)
 -->
<!-- Title: BinaryFileWriter Pages: 1 -->
<svg width="190pt" height="345pt"
 viewBox="0.00 0.00 190.00 345.00" xmlns="http://www.w3.org/2000/svg" xmlns:xlink="http://www.w3.org/1999/xlink">
<g id="graph0" class="graph" transform="scale(1 1) rotate(0) translate(4 341)">
<title>BinaryFileWriter</title>
<!-- Node1 -->
<g id="node1" class="node">
<title>Node1</title>
<g id="a_node1"><a xlink:title="BinaryFileWriter: interface for writing to binary files, bit by bit or byte by byte.">
<polygon fill="#bfbfbf" stroke="#000000" points="22.5,-.5 22.5,-19.5 159.5,-19.5 159.5,-.5 22.5,-.5"/>
<text text-anchor="middle" x="91" y="-7.5" font-family="Helvetica,sans-Serif" font-size="10.00" fill="#000000">BinaryFileWriter</text>
</a>
</g>
</g>
<!-- Node2 -->
<g id="node2" class="node">
<title>Node2</title>
<g id="a_node2"><a doxygen="/data/doxygen/cppreference-doxygen-web.tag.xml:http://en.cppreference.com/w/" xlink:href="http://en.cppreference.com/w/cpp/io/basic_ofstream.html" xlink:title="STL class.">
<polygon fill="none" stroke="#000000" points="34,-67.5 34,-86.5 148,-86.5 148,-67.5 34,-67.5"/>
<text text-anchor="middle" x="91" y="-74.5" font-family="Helvetica,sans-Serif" font-size="10.00" fill="#000000">std::ofstream</text>
</a>
</g>
</g>
<!-- Node2&#45;&gt;Node1 -->
<g id="edge1" class="edge">
<title>Node2&#45;&gt;Node1</title>
<path fill="none" stroke="#9a32cd" stroke-dasharray="5,2" d="M91,-57.1079C91,-44.714 91,-29.3263 91,-19.5817"/>
<polygon fill="#9a32cd" stroke="#9a32cd" points="87.5001,-57.4005 91,-67.4005 94.5001,-57.4006 87.5001,-57.4005"/>
<text text-anchor="middle" x="114" y="-41" font-family="Helvetica,sans-Serif" font-size="10.00" fill="#000000"> file_</text>
</g>
<!-- Node3 -->
<g id="node3" class="node">
<title>Node3</title>
<g id="a_node3"><a doxygen="/data/doxygen/cppreference-doxygen-web.tag.xml:http://en.cppreference.com/w/" xlink:href="http://en.cppreference.com/w/cpp/io/basic_ofstream.html" xlink:title=" ">
<polygon fill="none" stroke="#000000" points="11.5,-124.5 11.5,-154.5 170.5,-154.5 170.5,-124.5 11.5,-124.5"/>
<text text-anchor="start" x="19.5" y="-142.5" font-family="Helvetica,sans-Serif" font-size="10.00" fill="#000000">std::basic_ofstream</text>
<text text-anchor="middle" x="91" y="-131.5" font-family="Helvetica,sans-Serif" font-size="10.00" fill="#000000">&lt; char &gt;</text>
</a>
</g>
</g>
<!-- Node3&#45;&gt;Node2 -->
<g id="edge2" class="edge">
<title>Node3&#45;&gt;Node2</title>
<path fill="none" stroke="#191970" d="M91,-114.3498C91,-104.6481 91,-94.1303 91,-86.7356"/>
<polygon fill="#191970" stroke="#191970" points="87.5001,-114.3705 91,-124.3705 94.5001,-114.3705 87.5001,-114.3705"/>
</g>
<!-- Node4 -->
<g id="node4" class="node">
<title>Node4</title>
<g id="a_node4"><a doxygen="/data/doxygen/cppreference-doxygen-web.tag.xml:http://en.cppreference.com/w/" xlink:href="http://en.cppreference.com/w/cpp/io/basic_ostream.html" xlink:title=" ">
<polygon fill="none" stroke="#000000" points="15,-192.5 15,-222.5 167,-222.5 167,-192.5 15,-192.5"/>
<text text-anchor="start" x="23" y="-210.5" font-family="Helvetica,sans-Serif" font-size="10.00" fill="#000000">std::basic_ostream</text>
<text text-anchor="middle" x="91" y="-199.5" font-family="Helvetica,sans-Serif" font-size="10.00" fill="#000000">&lt; char &gt;</text>
</a>
</g>
</g>
<!-- Node4&#45;&gt;Node3 -->
<g id="edge3" class="edge">
<title>Node4&#45;&gt;Node3</title>
<path fill="none" stroke="#191970" d="M91,-182.1174C91,-172.8378 91,-162.6413 91,-154.5492"/>
<polygon fill="#191970" stroke="#191970" points="87.5001,-182.4086 91,-192.4086 94.5001,-182.4086 87.5001,-182.4086"/>
</g>
<!-- Node5 -->
<g id="node5" class="node">
<title>Node5</title>
<g id="a_node5"><a doxygen="/data/doxygen/cppreference-doxygen-web.tag.xml:http://en.cppreference.com/w/" xlink:href="http://en.cppreference.com/w/cpp/io/basic_ios.html" xlink:title=" ">
<polygon fill="none" stroke="#000000" points="0,-260.5 0,-279.5 182,-279.5 182,-260.5 0,-260.5"/>
<text text-anchor="middle" x="91" y="-267.5" font-family="Helvetica,sans-Serif" font-size="10.00" fill="#000000">std::basic_ios&lt; char &gt;</text>
</a>
</g>
</g>
<!-- Node5&#45;&gt;Node4 -->
<g id="edge4" class="edge">
<title>Node5&#45;&gt;Node4</title>
<path fill="none" stroke="#191970" d="M91,-250.0501C91,-241.2205 91,-231.0001 91,-222.7892"/>
<polygon fill="#191970" stroke="#191970" points="87.5001,-250.2343 91,-260.2344 94.5001,-250.2344 87.5001,-250.2343"/>
</g>
<!-- Node6 -->
<g id="node6" class="node">
<title>Node6</title>
<g id="a_node6"><a doxygen="/data/doxygen/cppreference-doxygen-web.tag.xml:http://en.cppreference.com/w/" xlink:href="http://en.cppreference.com/w/cpp/io/ios_base.html" xlink:title="STL class.">
<polygon fill="none" stroke="#000000" points="34,-317.5 34,-336.5 148,-336.5 148,-317.5 34,-317.5"/>
<text text-anchor="middle" x="91" y="-324.5" font-family="Helvetica,sans-Serif" font-size="10.00" fill="#000000">std::ios_base</text>
</a>
</g>
</g>
<!-- Node6&#45;&gt;Node5 -->
<g id="edge5" class="edge">
<title>Node6&#45;&gt;Node5</title>
<path fill="none" stroke="#191970" d="M91,-307.2342C91,-297.8491 91,-287.0651 91,-279.5265"/>
<polygon fill="#191970" stroke="#191970" points="87.5001,-307.3307 91,-317.3307 94.5001,-307.3308 87.5001,-307.3307"/>
</g>
</g>
</svg>
