<?xml version="1.0" encoding="UTF-8" standalone="no"?>
<!DOCTYPE svg PUBLIC "-//W3C//DTD SVG 1.1//EN"
 "http://www.w3.org/Graphics/SVG/1.1/DTD/svg11.dtd">
<!-- Generated by graphviz version 2.40.1 (0)
 -->
<!-- Title: HuffmanTree::TreeNode Pages: 1 -->
<svg width="246pt" height="97pt"
 viewBox="0.00 0.00 246.00 97.00" xmlns="http://www.w3.org/2000/svg" xmlns:xlink="http://www.w3.org/1999/xlink">
<g id="graph0" class="graph" transform="scale(1 1) rotate(0) translate(4 93)">
<title>HuffmanTree::TreeNode</title>
<!-- Node1 -->
<g id="node1" class="node">
<title>Node1</title>
<g id="a_node1"><a xlink:title="TreeNode class: internal representation of the Huffman tree.">
<polygon fill="#bfbfbf" stroke="#000000" points="0,-1.5 0,-20.5 174,-20.5 174,-1.5 0,-1.5"/>
<text text-anchor="middle" x="87" y="-8.5" font-family="Helvetica,sans-Serif" font-size="10.00" fill="#000000">HuffmanTree::TreeNode</text>
</a>
</g>
</g>
<!-- Node1&#45;&gt;Node1 -->
<g id="edge1" class="edge">
<title>Node1&#45;&gt;Node1</title>
<path fill="none" stroke="#9a32cd" stroke-dasharray="5,2" d="M184.2463,-15.1211C189.124,-14.0966 192,-12.7229 192,-11 192,-8.3105 184.9921,-6.4721 174.3023,-5.4845"/>
<polygon fill="#9a32cd" stroke="#9a32cd" points="183.7194,-11.6606 174.3023,-16.5155 184.6915,-18.5928 183.7194,-11.6606"/>
<text text-anchor="middle" x="215" y="-14" font-family="Helvetica,sans-Serif" font-size="10.00" fill="#000000"> right</text>
<text text-anchor="middle" x="215" y="-3" font-family="Helvetica,sans-Serif" font-size="10.00" fill="#000000">left</text>
</g>
<!-- Node2 -->
<g id="node2" class="node">
<title>Node2</title>
<g id="a_node2"><a xlink:href="classFrequency.html" target="_top" xlink:title="Frequency: a plain&#45;old&#45;data type representing a character and its frequency.">
<polygon fill="none" stroke="#000000" points="45,-69.5 45,-88.5 129,-88.5 129,-69.5 45,-69.5"/>
<text text-anchor="middle" x="87" y="-76.5" font-family="Helvetica,sans-Serif" font-size="10.00" fill="#000000">Frequency</text>
</a>
</g>
</g>
<!-- Node2&#45;&gt;Node1 -->
<g id="edge2" class="edge">
<title>Node2&#45;&gt;Node1</title>
<path fill="none" stroke="#9a32cd" stroke-dasharray="5,2" d="M87,-59.1951C87,-46.5514 87,-30.7157 87,-20.7247"/>
<polygon fill="#9a32cd" stroke="#9a32cd" points="83.5001,-59.2572 87,-69.2573 90.5001,-59.2573 83.5001,-59.2572"/>
<text text-anchor="middle" x="106" y="-43" font-family="Helvetica,sans-Serif" font-size="10.00" fill="#000000"> freq</text>
</g>
</g>
</svg>
