<?xml version="1.0" encoding="UTF-8" standalone="no"?>
<!DOCTYPE svg PUBLIC "-//W3C//DTD SVG 1.1//EN"
 "http://www.w3.org/Graphics/SVG/1.1/DTD/svg11.dtd">
<!-- Generated by graphviz version 2.40.1 (0)
 -->
<!-- Title: HuffmanTree Pages: 1 -->
<svg width="424pt" height="173pt"
 viewBox="0.00 0.00 423.50 173.00" xmlns="http://www.w3.org/2000/svg" xmlns:xlink="http://www.w3.org/1999/xlink">
<g id="graph0" class="graph" transform="scale(1 1) rotate(0) translate(4 169)">
<title>HuffmanTree</title>
<!-- Node1 -->
<g id="node1" class="node">
<title>Node1</title>
<g id="a_node1"><a xlink:title="HuffmanTree: class that represents a Huffman tree for encoding and decoding files with Huffman coding...">
<polygon fill="#bfbfbf" stroke="#000000" points="122,-.5 122,-19.5 221,-19.5 221,-.5 122,-.5"/>
<text text-anchor="middle" x="171.5" y="-7.5" font-family="Helvetica,sans-Serif" font-size="10.00" fill="#000000">HuffmanTree</text>
</a>
</g>
</g>
<!-- Node2 -->
<g id="node2" class="node">
<title>Node2</title>
<g id="a_node2"><a doxygen="/data/doxygen/cppreference-doxygen-web.tag.xml:http://en.cppreference.com/w/" xlink:href="http://en.cppreference.com/w/cpp/container/map.html" xlink:title=" ">
<polygon fill="none" stroke="#000000" points="0,-67.5 0,-97.5 159,-97.5 159,-67.5 0,-67.5"/>
<text text-anchor="start" x="8" y="-85.5" font-family="Helvetica,sans-Serif" font-size="10.00" fill="#000000">std::map&lt; char, std</text>
<text text-anchor="middle" x="79.5" y="-74.5" font-family="Helvetica,sans-Serif" font-size="10.00" fill="#000000">::vector&lt; bool &gt; &gt;</text>
</a>
</g>
</g>
<!-- Node2&#45;&gt;Node1 -->
<g id="edge1" class="edge">
<title>Node2&#45;&gt;Node1</title>
<path fill="none" stroke="#9a32cd" stroke-dasharray="5,2" d="M106.7051,-61.0612C124.1157,-47.3409 145.8643,-30.202 159.2132,-19.6825"/>
<polygon fill="#9a32cd" stroke="#9a32cd" points="104.2504,-58.5394 98.5625,-67.478 108.5831,-64.0374 104.2504,-58.5394"/>
<text text-anchor="middle" x="168.5" y="-41" font-family="Helvetica,sans-Serif" font-size="10.00" fill="#000000"> bitsMap_</text>
</g>
<!-- Node3 -->
<g id="node3" class="node">
<title>Node3</title>
<g id="a_node3"><a doxygen="/data/doxygen/cppreference-doxygen-web.tag.xml:http://en.cppreference.com/w/" xlink:href="http://en.cppreference.com/w/cpp/container/vector.html" xlink:title=" ">
<polygon fill="none" stroke="#000000" points="0,-145.5 0,-164.5 159,-164.5 159,-145.5 0,-145.5"/>
<text text-anchor="middle" x="79.5" y="-152.5" font-family="Helvetica,sans-Serif" font-size="10.00" fill="#000000">std::vector&lt; bool &gt;</text>
</a>
</g>
</g>
<!-- Node3&#45;&gt;Node2 -->
<g id="edge2" class="edge">
<title>Node3&#45;&gt;Node2</title>
<path fill="none" stroke="#9a32cd" stroke-dasharray="5,2" d="M79.5,-135.0177C79.5,-123.2164 79.5,-108.513 79.5,-97.668"/>
<polygon fill="#9a32cd" stroke="#9a32cd" points="76.0001,-135.2223 79.5,-145.2223 83.0001,-135.2224 76.0001,-135.2223"/>
<text text-anchor="middle" x="113.5" y="-119" font-family="Helvetica,sans-Serif" font-size="10.00" fill="#000000"> elements</text>
</g>
<!-- Node4 -->
<g id="node4" class="node">
<title>Node4</title>
<g id="a_node4"><a xlink:href="classHuffmanTree_1_1TreeNode.html" target="_top" xlink:title="TreeNode class: internal representation of the Huffman tree.">
<polygon fill="none" stroke="#000000" points="177.5,-73 177.5,-92 351.5,-92 351.5,-73 177.5,-73"/>
<text text-anchor="middle" x="264.5" y="-80" font-family="Helvetica,sans-Serif" font-size="10.00" fill="#000000">HuffmanTree::TreeNode</text>
</a>
</g>
</g>
<!-- Node4&#45;&gt;Node1 -->
<g id="edge3" class="edge">
<title>Node4&#45;&gt;Node1</title>
<path fill="none" stroke="#9a32cd" stroke-dasharray="5,2" d="M243.6388,-66.2373C225.2533,-51.9044 199.0883,-31.507 183.8437,-19.6228"/>
<polygon fill="#9a32cd" stroke="#9a32cd" points="241.919,-69.3344 251.9576,-72.7223 246.2228,-63.8137 241.919,-69.3344"/>
<text text-anchor="middle" x="244.5" y="-41" font-family="Helvetica,sans-Serif" font-size="10.00" fill="#000000"> root_</text>
</g>
<!-- Node4&#45;&gt;Node4 -->
<g id="edge4" class="edge">
<title>Node4&#45;&gt;Node4</title>
<path fill="none" stroke="#9a32cd" stroke-dasharray="5,2" d="M361.7463,-87.1059C366.624,-85.9609 369.5,-84.4256 369.5,-82.5 369.5,-79.4941 362.4921,-77.4394 351.8023,-76.3356"/>
<polygon fill="#9a32cd" stroke="#9a32cd" points="361.1398,-83.6582 351.8023,-88.6644 362.2237,-90.5738 361.1398,-83.6582"/>
<text text-anchor="middle" x="392.5" y="-85.5" font-family="Helvetica,sans-Serif" font-size="10.00" fill="#000000"> right</text>
<text text-anchor="middle" x="392.5" y="-74.5" font-family="Helvetica,sans-Serif" font-size="10.00" fill="#000000">left</text>
</g>
<!-- Node5 -->
<g id="node5" class="node">
<title>Node5</title>
<g id="a_node5"><a xlink:href="classFrequency.html" target="_top" xlink:title="Frequency: a plain&#45;old&#45;data type representing a character and its frequency.">
<polygon fill="none" stroke="#000000" points="222.5,-145.5 222.5,-164.5 306.5,-164.5 306.5,-145.5 222.5,-145.5"/>
<text text-anchor="middle" x="264.5" y="-152.5" font-family="Helvetica,sans-Serif" font-size="10.00" fill="#000000">Frequency</text>
</a>
</g>
</g>
<!-- Node5&#45;&gt;Node4 -->
<g id="edge5" class="edge">
<title>Node5&#45;&gt;Node4</title>
<path fill="none" stroke="#9a32cd" stroke-dasharray="5,2" d="M264.5,-135.1054C264.5,-121.1237 264.5,-103.0346 264.5,-92.1228"/>
<polygon fill="#9a32cd" stroke="#9a32cd" points="261.0001,-135.2223 264.5,-145.2223 268.0001,-135.2224 261.0001,-135.2223"/>
<text text-anchor="middle" x="283.5" y="-119" font-family="Helvetica,sans-Serif" font-size="10.00" fill="#000000"> freq</text>
</g>
</g>
</svg>
