<?xml version="1.0" encoding="UTF-8" standalone="no"?>
<!DOCTYPE svg PUBLIC "-//W3C//DTD SVG 1.1//EN"
 "http://www.w3.org/Graphics/SVG/1.1/DTD/svg11.dtd">
<!-- Generated by graphviz version 2.30.1 (20180420.1509)
 -->
<!-- Title: AnagramDict Pages: 1 -->
<svg width="210pt" height="314pt"
 viewBox="0.00 0.00 210.00 314.00" xmlns="http://www.w3.org/2000/svg" xmlns:xlink="http://www.w3.org/1999/xlink">
<g id="graph0" class="graph" transform="scale(1 1) rotate(0) translate(4 310)">
<title>AnagramDict</title>
<!-- Node1 -->
<g id="node1" class="node"><title>Node1</title>
<polygon fill="#bfbfbf" stroke="black" points="31,-0.5 31,-19.5 105,-19.5 105,-0.5 31,-0.5"/>
<text text-anchor="middle" x="68" y="-7.5" font-family="Helvetica,sans-Serif" font-size="10.00">AnagramDict</text>
</g>
<!-- Node2 -->
<g id="node2" class="node"><title>Node2</title>
<g id="a_node2"><a doxygen="/home/pacole2/TA/cs225assignments/doxygen/cppreference-doxygen-web.tag.xml:http://en.cppreference.com/w//" xlink:href="http://en.cppreference.com/w/cpp/container/map.html" target="_top" xlink:title="std::map\&lt; std::string,\l std::vector\&lt; std::string \&gt; \&gt;">
<polygon fill="none" stroke="black" points="-0.5,-69 -0.5,-99 136.5,-99 136.5,-69 -0.5,-69"/>
<text text-anchor="start" x="7.5" y="-87" font-family="Helvetica,sans-Serif" font-size="10.00">std::map&lt; std::string,</text>
<text text-anchor="middle" x="68" y="-76" font-family="Helvetica,sans-Serif" font-size="10.00"> std::vector&lt; std::string &gt; &gt;</text>
</a>
</g>
</g>
<!-- Node2&#45;&gt;Node1 -->
<g id="edge1" class="edge"><title>Node2&#45;&gt;Node1</title>
<path fill="none" stroke="#9a32cd" stroke-dasharray="5,2" d="M68,-58.6883C68,-45.2526 68,-29.3805 68,-19.7589"/>
<polygon fill="#9a32cd" stroke="#9a32cd" points="64.5001,-58.7751 68,-68.7751 71.5001,-58.7752 64.5001,-58.7751"/>
<text text-anchor="middle" x="77.5" y="-41.5" font-family="Helvetica,sans-Serif" font-size="10.00"> dict</text>
</g>
<!-- Node3 -->
<g id="node3" class="node"><title>Node3</title>
<g id="a_node3"><a doxygen="/home/pacole2/TA/cs225assignments/doxygen/cppreference-doxygen-web.tag.xml:http://en.cppreference.com/w//" xlink:href="http://en.cppreference.com/w/cpp/string/basic_string.html" target="_top" xlink:title="STL class. ">
<polygon fill="none" stroke="black" points="20,-216.5 20,-235.5 80,-235.5 80,-216.5 20,-216.5"/>
<text text-anchor="middle" x="50" y="-223.5" font-family="Helvetica,sans-Serif" font-size="10.00">std::string</text>
</a>
</g>
</g>
<!-- Node3&#45;&gt;Node2 -->
<g id="edge2" class="edge"><title>Node3&#45;&gt;Node2</title>
<path fill="none" stroke="#9a32cd" stroke-dasharray="5,2" d="M45.4281,-206.397C42.2592,-190.713 39.2277,-167.733 43,-148 46.3583,-130.432 54.5421,-111.516 60.6372,-99.0462"/>
<polygon fill="#9a32cd" stroke="#9a32cd" points="42.0626,-207.385 47.6646,-216.378 48.8932,-205.854 42.0626,-207.385"/>
<text text-anchor="middle" x="55.5" y="-155.5" font-family="Helvetica,sans-Serif" font-size="10.00"> keys</text>
</g>
<!-- Node5 -->
<g id="node5" class="node"><title>Node5</title>
<g id="a_node5"><a doxygen="/home/pacole2/TA/cs225assignments/doxygen/cppreference-doxygen-web.tag.xml:http://en.cppreference.com/w//" xlink:href="http://en.cppreference.com/w/cpp/container/vector.html" target="_top" xlink:title="std::vector\&lt; std::string \&gt;">
<polygon fill="none" stroke="black" points="77.5,-148.5 77.5,-167.5 202.5,-167.5 202.5,-148.5 77.5,-148.5"/>
<text text-anchor="middle" x="140" y="-155.5" font-family="Helvetica,sans-Serif" font-size="10.00">std::vector&lt; std::string &gt;</text>
</a>
</g>
</g>
<!-- Node3&#45;&gt;Node5 -->
<g id="edge5" class="edge"><title>Node3&#45;&gt;Node5</title>
<path fill="none" stroke="#9a32cd" stroke-dasharray="5,2" d="M69.8339,-210.455C87.714,-197.343 113.407,-178.502 128.231,-167.63"/>
<polygon fill="#9a32cd" stroke="#9a32cd" points="67.7602,-207.636 61.7659,-216.372 71.8998,-213.28 67.7602,-207.636"/>
<text text-anchor="middle" x="124.5" y="-189.5" font-family="Helvetica,sans-Serif" font-size="10.00"> elements</text>
</g>
<!-- Node4 -->
<g id="node4" class="node"><title>Node4</title>
<g id="a_node4"><a doxygen="/home/pacole2/TA/cs225assignments/doxygen/cppreference-doxygen-web.tag.xml:http://en.cppreference.com/w//" xlink:href="http://en.cppreference.com/w/cpp/string/basic_string.html" target="_top" xlink:title="std::basic_string\&lt;\l char \&gt;">
<polygon fill="none" stroke="black" points="2.5,-275 2.5,-305 97.5,-305 97.5,-275 2.5,-275"/>
<text text-anchor="start" x="10.5" y="-293" font-family="Helvetica,sans-Serif" font-size="10.00">std::basic_string&lt;</text>
<text text-anchor="middle" x="50" y="-282" font-family="Helvetica,sans-Serif" font-size="10.00"> char &gt;</text>
</a>
</g>
</g>
<!-- Node4&#45;&gt;Node3 -->
<g id="edge3" class="edge"><title>Node4&#45;&gt;Node3</title>
<path fill="none" stroke="midnightblue" d="M50,-264.871C50,-254.663 50,-243.408 50,-235.842"/>
<polygon fill="midnightblue" stroke="midnightblue" points="46.5001,-264.931 50,-274.931 53.5001,-264.931 46.5001,-264.931"/>
</g>
<!-- Node5&#45;&gt;Node2 -->
<g id="edge4" class="edge"><title>Node5&#45;&gt;Node2</title>
<path fill="none" stroke="#9a32cd" stroke-dasharray="5,2" d="M124.378,-141.378C111.841,-128.841 94.3858,-111.386 82.2316,-99.2316"/>
<polygon fill="#9a32cd" stroke="#9a32cd" points="121.912,-143.862 131.458,-148.458 126.862,-138.912 121.912,-143.862"/>
<text text-anchor="middle" x="133.5" y="-121.5" font-family="Helvetica,sans-Serif" font-size="10.00"> elements</text>
</g>
</g>
</svg>
