<?xml version="1.0" encoding="UTF-8" standalone="no"?>
<!DOCTYPE svg PUBLIC "-//W3C//DTD SVG 1.1//EN"
 "http://www.w3.org/Graphics/SVG/1.1/DTD/svg11.dtd">
<!-- Generated by graphviz version 2.30.1 (20180420.1509)
 -->
<!-- Title: CommonWords Pages: 1 -->
<svg width="247pt" height="346pt"
 viewBox="0.00 0.00 247.00 346.00" xmlns="http://www.w3.org/2000/svg" xmlns:xlink="http://www.w3.org/1999/xlink">
<g id="graph0" class="graph" transform="scale(1 1) rotate(0) translate(4 342)">
<title>CommonWords</title>
<!-- Node1 -->
<g id="node1" class="node"><title>Node1</title>
<polygon fill="#bfbfbf" stroke="black" points="49.5,-0.5 49.5,-19.5 134.5,-19.5 134.5,-0.5 49.5,-0.5"/>
<text text-anchor="middle" x="92" y="-7.5" font-family="Helvetica,sans-Serif" font-size="10.00">CommonWords</text>
</g>
<!-- Node2 -->
<g id="node2" class="node"><title>Node2</title>
<g id="a_node2"><a doxygen="/home/pacole2/TA/cs225assignments/doxygen/cppreference-doxygen-web.tag.xml:http://en.cppreference.com/w//" xlink:href="http://en.cppreference.com/w/cpp/container/map.html" target="_top" xlink:title="std::map\&lt; std::string,\l unsigned int \&gt;">
<polygon fill="none" stroke="black" points="0,-119 0,-149 110,-149 110,-119 0,-119"/>
<text text-anchor="start" x="8" y="-137" font-family="Helvetica,sans-Serif" font-size="10.00">std::map&lt; std::string,</text>
<text text-anchor="middle" x="55" y="-126" font-family="Helvetica,sans-Serif" font-size="10.00"> unsigned int &gt;</text>
</a>
</g>
</g>
<!-- Node2&#45;&gt;Node1 -->
<g id="edge1" class="edge"><title>Node2&#45;&gt;Node1</title>
<path fill="none" stroke="#9a32cd" stroke-dasharray="5,2" d="M55.4526,-108.69C56.2229,-96.2898 58.007,-81.0994 62,-68 67.5431,-49.8154 78.9537,-30.6464 85.9946,-19.8195"/>
<polygon fill="#9a32cd" stroke="#9a32cd" points="51.9532,-108.602 55.0066,-118.747 58.9463,-108.912 51.9532,-108.602"/>
<text text-anchor="middle" x="82.5" y="-81.5" font-family="Helvetica,sans-Serif" font-size="10.00"> common</text>
</g>
<!-- Node3 -->
<g id="node3" class="node"><title>Node3</title>
<g id="a_node3"><a doxygen="/home/pacole2/TA/cs225assignments/doxygen/cppreference-doxygen-web.tag.xml:http://en.cppreference.com/w//" xlink:href="http://en.cppreference.com/w/cpp/string/basic_string.html" target="_top" xlink:title="STL class. ">
<polygon fill="none" stroke="black" points="56,-248.5 56,-267.5 116,-267.5 116,-248.5 56,-248.5"/>
<text text-anchor="middle" x="86" y="-255.5" font-family="Helvetica,sans-Serif" font-size="10.00">std::string</text>
</a>
</g>
</g>
<!-- Node3&#45;&gt;Node2 -->
<g id="edge2" class="edge"><title>Node3&#45;&gt;Node2</title>
<path fill="none" stroke="#9a32cd" stroke-dasharray="5,2" d="M81.2641,-238.362C75.029,-213.824 64.2035,-171.22 58.5968,-149.155"/>
<polygon fill="#9a32cd" stroke="#9a32cd" points="77.9156,-239.396 83.7706,-248.226 84.7,-237.672 77.9156,-239.396"/>
<text text-anchor="middle" x="91.5" y="-221.5" font-family="Helvetica,sans-Serif" font-size="10.00"> keys</text>
</g>
<!-- Node6 -->
<g id="node6" class="node"><title>Node6</title>
<g id="a_node6"><a doxygen="/home/pacole2/TA/cs225assignments/doxygen/cppreference-doxygen-web.tag.xml:http://en.cppreference.com/w//" xlink:href="http://en.cppreference.com/w/cpp/container/map.html" target="_top" xlink:title="std::map\&lt; string, unsigned\l int \&gt;">
<polygon fill="none" stroke="black" points="104.5,-169 104.5,-199 237.5,-199 237.5,-169 104.5,-169"/>
<text text-anchor="start" x="112.5" y="-187" font-family="Helvetica,sans-Serif" font-size="10.00">std::map&lt; string, unsigned</text>
<text text-anchor="middle" x="171" y="-176" font-family="Helvetica,sans-Serif" font-size="10.00"> int &gt;</text>
</a>
</g>
</g>
<!-- Node3&#45;&gt;Node6 -->
<g id="edge6" class="edge"><title>Node3&#45;&gt;Node6</title>
<path fill="none" stroke="#9a32cd" stroke-dasharray="5,2" d="M104.025,-241.732C118.854,-229.17 139.715,-211.5 154.199,-199.232"/>
<polygon fill="#9a32cd" stroke="#9a32cd" points="101.453,-239.324 96.0844,-248.458 105.977,-244.665 101.453,-239.324"/>
<text text-anchor="middle" x="144.5" y="-221.5" font-family="Helvetica,sans-Serif" font-size="10.00"> keys</text>
</g>
<!-- Node4 -->
<g id="node4" class="node"><title>Node4</title>
<g id="a_node4"><a doxygen="/home/pacole2/TA/cs225assignments/doxygen/cppreference-doxygen-web.tag.xml:http://en.cppreference.com/w//" xlink:href="http://en.cppreference.com/w/cpp/string/basic_string.html" target="_top" xlink:title="std::basic_string\&lt;\l char \&gt;">
<polygon fill="none" stroke="black" points="38.5,-307 38.5,-337 133.5,-337 133.5,-307 38.5,-307"/>
<text text-anchor="start" x="46.5" y="-325" font-family="Helvetica,sans-Serif" font-size="10.00">std::basic_string&lt;</text>
<text text-anchor="middle" x="86" y="-314" font-family="Helvetica,sans-Serif" font-size="10.00"> char &gt;</text>
</a>
</g>
</g>
<!-- Node4&#45;&gt;Node3 -->
<g id="edge3" class="edge"><title>Node4&#45;&gt;Node3</title>
<path fill="none" stroke="midnightblue" d="M86,-296.871C86,-286.663 86,-275.408 86,-267.842"/>
<polygon fill="midnightblue" stroke="midnightblue" points="82.5001,-296.931 86,-306.931 89.5001,-296.931 82.5001,-296.931"/>
</g>
<!-- Node5 -->
<g id="node5" class="node"><title>Node5</title>
<g id="a_node5"><a doxygen="/home/pacole2/TA/cs225assignments/doxygen/cppreference-doxygen-web.tag.xml:http://en.cppreference.com/w//" xlink:href="http://en.cppreference.com/w/cpp/container/vector.html" target="_top" xlink:title="std::vector\&lt; map\&lt; string,\l unsigned int \&gt; \&gt;">
<polygon fill="none" stroke="black" points="112.5,-69 112.5,-99 239.5,-99 239.5,-69 112.5,-69"/>
<text text-anchor="start" x="120.5" y="-87" font-family="Helvetica,sans-Serif" font-size="10.00">std::vector&lt; map&lt; string,</text>
<text text-anchor="middle" x="176" y="-76" font-family="Helvetica,sans-Serif" font-size="10.00"> unsigned int &gt; &gt;</text>
</a>
</g>
</g>
<!-- Node5&#45;&gt;Node1 -->
<g id="edge4" class="edge"><title>Node5&#45;&gt;Node1</title>
<path fill="none" stroke="#9a32cd" stroke-dasharray="5,2" d="M151.752,-62.2158C135.319,-48.1309 114.444,-30.2378 102.219,-19.7589"/>
<polygon fill="#9a32cd" stroke="#9a32cd" points="149.534,-64.9246 159.404,-68.7751 154.089,-59.6098 149.534,-64.9246"/>
<text text-anchor="middle" x="173" y="-41.5" font-family="Helvetica,sans-Serif" font-size="10.00"> file_word_maps</text>
</g>
<!-- Node6&#45;&gt;Node5 -->
<g id="edge5" class="edge"><title>Node6&#45;&gt;Node5</title>
<path fill="none" stroke="#9a32cd" stroke-dasharray="5,2" d="M172.236,-158.778C173.195,-139.979 174.491,-114.577 175.285,-99.015"/>
<polygon fill="#9a32cd" stroke="#9a32cd" points="168.731,-158.794 171.716,-168.959 175.721,-159.15 168.731,-158.794"/>
<text text-anchor="middle" x="195.5" y="-131.5" font-family="Helvetica,sans-Serif" font-size="10.00"> elements</text>
</g>
</g>
</svg>
