<?xml version="1.0" encoding="UTF-8" standalone="no"?>
<!DOCTYPE svg PUBLIC "-//W3C//DTD SVG 1.1//EN"
 "http://www.w3.org/Graphics/SVG/1.1/DTD/svg11.dtd">
<!-- Generated by graphviz version 2.40.1 (20161225.0304)
 -->
<!-- Title: avltree.h Pages: 1 -->
<svg width="389pt" height="84pt"
 viewBox="0.00 0.00 388.50 84.00" xmlns="http://www.w3.org/2000/svg" xmlns:xlink="http://www.w3.org/1999/xlink">
<g id="graph0" class="graph" transform="scale(1 1) rotate(0) translate(4 80)">
<title>avltree.h</title>
<!-- Node0 -->
<g id="node1" class="node">
<title>Node0</title>
<polygon fill="#bfbfbf" stroke="#000000" points="133,-56.5 133,-75.5 187,-75.5 187,-56.5 133,-56.5"/>
<text text-anchor="middle" x="160" y="-63.5" font-family="Helvetica,sans-Serif" font-size="10.00" fill="#000000">avltree.h</text>
</g>
<!-- Node1 -->
<g id="node2" class="node">
<title>Node1</title>
<polygon fill="none" stroke="#bfbfbf" points="0,-.5 0,-19.5 54,-19.5 54,-.5 0,-.5"/>
<text text-anchor="middle" x="27" y="-7.5" font-family="Helvetica,sans-Serif" font-size="10.00" fill="#000000">iostream</text>
</g>
<!-- Node0&#45;&gt;Node1 -->
<g id="edge1" class="edge">
<title>Node0&#45;&gt;Node1</title>
<path fill="none" stroke="#191970" d="M137.1365,-56.3733C115.595,-47.3032 83.1162,-33.6279 59.0044,-23.4755"/>
<polygon fill="#191970" stroke="#191970" points="60.1397,-20.156 49.5652,-19.5011 57.4233,-26.6075 60.1397,-20.156"/>
</g>
<!-- Node2 -->
<g id="node3" class="node">
<title>Node2</title>
<polygon fill="none" stroke="#bfbfbf" points="72,-.5 72,-19.5 116,-19.5 116,-.5 72,-.5"/>
<text text-anchor="middle" x="94" y="-7.5" font-family="Helvetica,sans-Serif" font-size="10.00" fill="#000000">vector</text>
</g>
<!-- Node0&#45;&gt;Node2 -->
<g id="edge2" class="edge">
<title>Node0&#45;&gt;Node2</title>
<path fill="none" stroke="#191970" d="M148.5037,-56.2455C138.7558,-47.9746 124.5741,-35.9416 113.1202,-26.2232"/>
<polygon fill="#191970" stroke="#191970" points="115.2541,-23.4437 105.3646,-19.6427 110.7253,-28.7813 115.2541,-23.4437"/>
</g>
<!-- Node3 -->
<g id="node4" class="node">
<title>Node3</title>
<polygon fill="none" stroke="#bfbfbf" points="134,-.5 134,-19.5 186,-19.5 186,-.5 134,-.5"/>
<text text-anchor="middle" x="160" y="-7.5" font-family="Helvetica,sans-Serif" font-size="10.00" fill="#000000">sstream</text>
</g>
<!-- Node0&#45;&gt;Node3 -->
<g id="edge3" class="edge">
<title>Node0&#45;&gt;Node3</title>
<path fill="none" stroke="#191970" d="M160,-56.2455C160,-48.9382 160,-38.6944 160,-29.7046"/>
<polygon fill="#191970" stroke="#191970" points="163.5001,-29.6426 160,-19.6427 156.5001,-29.6427 163.5001,-29.6426"/>
</g>
<!-- Node4 -->
<g id="node5" class="node">
<title>Node4</title>
<g id="a_node5"><a xlink:href="avltree__given_8cpp.html" target="_top" xlink:title="Definitions of some standard binary tree functions. ">
<polygon fill="none" stroke="#000000" points="204.5,-.5 204.5,-19.5 297.5,-19.5 297.5,-.5 204.5,-.5"/>
<text text-anchor="middle" x="251" y="-7.5" font-family="Helvetica,sans-Serif" font-size="10.00" fill="#000000">avltree_given.cpp</text>
</a>
</g>
</g>
<!-- Node0&#45;&gt;Node4 -->
<g id="edge4" class="edge">
<title>Node0&#45;&gt;Node4</title>
<path fill="none" stroke="#191970" d="M175.851,-56.2455C189.8132,-47.6534 210.3728,-35.0014 226.4596,-25.1018"/>
<polygon fill="#191970" stroke="#191970" points="228.6484,-27.8645 235.3307,-19.6427 224.9797,-21.9029 228.6484,-27.8645"/>
</g>
<!-- Node5 -->
<g id="node6" class="node">
<title>Node5</title>
<g id="a_node6"><a xlink:href="avltree_8cpp.html" target="_top" xlink:title="Definitions of the binary tree functions you&#39;ll be writing for this lab. ">
<polygon fill="none" stroke="#000000" points="315.5,-.5 315.5,-19.5 380.5,-19.5 380.5,-.5 315.5,-.5"/>
<text text-anchor="middle" x="348" y="-7.5" font-family="Helvetica,sans-Serif" font-size="10.00" fill="#000000">avltree.cpp</text>
</a>
</g>
</g>
<!-- Node0&#45;&gt;Node5 -->
<g id="edge5" class="edge">
<title>Node0&#45;&gt;Node5</title>
<path fill="none" stroke="#191970" d="M187.3368,-57.8571C218.5209,-48.5682 269.8715,-33.2723 306.1126,-22.4771"/>
<polygon fill="#191970" stroke="#191970" points="307.3198,-25.7696 315.9044,-19.5604 305.3214,-19.0609 307.3198,-25.7696"/>
</g>
</g>
</svg>
