<?xml version="1.0" encoding="UTF-8" standalone="no"?>
<!DOCTYPE svg PUBLIC "-//W3C//DTD SVG 1.1//EN"
 "http://www.w3.org/Graphics/SVG/1.1/DTD/svg11.dtd">
<!-- Generated by graphviz version 2.40.1 (20161225.0304)
 -->
<!-- Title: AVLTree&lt; K, V &gt; Pages: 1 -->
<svg width="278pt" height="279pt"
 viewBox="0.00 0.00 277.50 279.00" xmlns="http://www.w3.org/2000/svg" xmlns:xlink="http://www.w3.org/1999/xlink">
<g id="graph0" class="graph" transform="scale(1 1) rotate(0) translate(4 275)">
<title>AVLTree&lt; K, V &gt;</title>
<!-- Node1 -->
<g id="node1" class="node">
<title>Node1</title>
<polygon fill="#bfbfbf" stroke="#000000" points="90,-.5 90,-19.5 181,-19.5 181,-.5 90,-.5"/>
<text text-anchor="middle" x="135.5" y="-7.5" font-family="Helvetica,sans-Serif" font-size="10.00" fill="#000000">AVLTree&lt; K, V &gt;</text>
</g>
<!-- Node2 -->
<g id="node2" class="node">
<title>Node2</title>
<g id="a_node2"><a xlink:href="structAVLTree_1_1Node.html" target="_top" xlink:title="Node represents a tree node; that is, an element in a AVLTree. ">
<polygon fill="none" stroke="#000000" points="0,-68.5 0,-87.5 119,-87.5 119,-68.5 0,-68.5"/>
<text text-anchor="middle" x="59.5" y="-75.5" font-family="Helvetica,sans-Serif" font-size="10.00" fill="#000000">AVLTree&lt; K, V &gt;::Node</text>
</a>
</g>
</g>
<!-- Node2&#45;&gt;Node1 -->
<g id="edge1" class="edge">
<title>Node2&#45;&gt;Node1</title>
<path fill="none" stroke="#9a32cd" stroke-dasharray="5,2" d="M77.877,-61.5574C92.4941,-48.479 112.4497,-30.624 124.6313,-19.7247"/>
<polygon fill="#9a32cd" stroke="#9a32cd" points="75.5076,-58.9809 70.3889,-68.2573 80.1752,-64.1976 75.5076,-58.9809"/>
<text text-anchor="middle" x="111.5" y="-41" font-family="Helvetica,sans-Serif" font-size="10.00" fill="#000000"> root</text>
</g>
<!-- Node2&#45;&gt;Node2 -->
<g id="edge2" class="edge">
<title>Node2&#45;&gt;Node2</title>
<path fill="none" stroke="#9a32cd" stroke-dasharray="5,2" d="M129.4834,-81.7683C134.1619,-80.8967 137,-79.6406 137,-78 137,-75.375 129.7344,-73.7344 119.29,-73.0781"/>
<polygon fill="#9a32cd" stroke="#9a32cd" points="128.833,-78.3195 119.29,-82.9219 129.6202,-85.2751 128.833,-78.3195"/>
<text text-anchor="middle" x="148" y="-81" font-family="Helvetica,sans-Serif" font-size="10.00" fill="#000000"> right</text>
<text text-anchor="middle" x="148" y="-70" font-family="Helvetica,sans-Serif" font-size="10.00" fill="#000000">left</text>
</g>
<!-- Node3 -->
<g id="node3" class="node">
<title>Node3</title>
<g id="a_node3"><a doxygen="/home/jeffrey/class/cs225/staff/_current/doxygen/cppreference-doxygen-web.tag.xml:http://en.cppreference.com/w/" xlink:href="http://en.cppreference.com/w/cpp/io/basic_ostream.html" target="_top" xlink:title="STL class. ">
<polygon fill="none" stroke="#000000" points="177,-68.5 177,-87.5 248,-87.5 248,-68.5 177,-68.5"/>
<text text-anchor="middle" x="212.5" y="-75.5" font-family="Helvetica,sans-Serif" font-size="10.00" fill="#000000">std::ostream</text>
</a>
</g>
</g>
<!-- Node3&#45;&gt;Node1 -->
<g id="edge3" class="edge">
<title>Node3&#45;&gt;Node1</title>
<path fill="none" stroke="#9a32cd" stroke-dasharray="5,2" d="M193.8812,-61.5574C179.0718,-48.479 158.8536,-30.624 146.5118,-19.7247"/>
<polygon fill="#9a32cd" stroke="#9a32cd" points="191.6554,-64.2612 201.4678,-68.2573 196.289,-59.0143 191.6554,-64.2612"/>
<text text-anchor="middle" x="189.5" y="-41" font-family="Helvetica,sans-Serif" font-size="10.00" fill="#000000"> _out</text>
</g>
<!-- Node4 -->
<g id="node4" class="node">
<title>Node4</title>
<g id="a_node4"><a doxygen="/home/jeffrey/class/cs225/staff/_current/doxygen/cppreference-doxygen-web.tag.xml:http://en.cppreference.com/w/" xlink:href="http://en.cppreference.com/w/cpp/io/basic_ostream.html" target="_top" xlink:title="std::basic_ostream\l\&lt; char \&gt;">
<polygon fill="none" stroke="#000000" points="162.5,-126.5 162.5,-156.5 262.5,-156.5 262.5,-126.5 162.5,-126.5"/>
<text text-anchor="start" x="170.5" y="-144.5" font-family="Helvetica,sans-Serif" font-size="10.00" fill="#000000">std::basic_ostream</text>
<text text-anchor="middle" x="212.5" y="-133.5" font-family="Helvetica,sans-Serif" font-size="10.00" fill="#000000">&lt; char &gt;</text>
</a>
</g>
</g>
<!-- Node4&#45;&gt;Node3 -->
<g id="edge4" class="edge">
<title>Node4&#45;&gt;Node3</title>
<path fill="none" stroke="#191970" d="M212.5,-116.4384C212.5,-106.3252 212.5,-95.2635 212.5,-87.6141"/>
<polygon fill="#191970" stroke="#191970" points="209.0001,-116.4514 212.5,-126.4514 216.0001,-116.4514 209.0001,-116.4514"/>
</g>
<!-- Node5 -->
<g id="node5" class="node">
<title>Node5</title>
<g id="a_node5"><a doxygen="/home/jeffrey/class/cs225/staff/_current/doxygen/cppreference-doxygen-web.tag.xml:http://en.cppreference.com/w/" xlink:href="http://en.cppreference.com/w/cpp/io/basic_ios.html" target="_top" xlink:title="std::basic_ios\&lt; char \&gt;">
<polygon fill="none" stroke="#000000" points="155.5,-194.5 155.5,-213.5 269.5,-213.5 269.5,-194.5 155.5,-194.5"/>
<text text-anchor="middle" x="212.5" y="-201.5" font-family="Helvetica,sans-Serif" font-size="10.00" fill="#000000">std::basic_ios&lt; char &gt;</text>
</a>
</g>
</g>
<!-- Node5&#45;&gt;Node4 -->
<g id="edge5" class="edge">
<title>Node5&#45;&gt;Node4</title>
<path fill="none" stroke="#191970" d="M212.5,-184.0501C212.5,-175.2205 212.5,-165.0001 212.5,-156.7892"/>
<polygon fill="#191970" stroke="#191970" points="209.0001,-184.2343 212.5,-194.2344 216.0001,-184.2344 209.0001,-184.2343"/>
</g>
<!-- Node6 -->
<g id="node6" class="node">
<title>Node6</title>
<g id="a_node6"><a doxygen="/home/jeffrey/class/cs225/staff/_current/doxygen/cppreference-doxygen-web.tag.xml:http://en.cppreference.com/w/" xlink:href="http://en.cppreference.com/w/cpp/io/ios_base.html" target="_top" xlink:title="STL class. ">
<polygon fill="none" stroke="#000000" points="175,-251.5 175,-270.5 250,-270.5 250,-251.5 175,-251.5"/>
<text text-anchor="middle" x="212.5" y="-258.5" font-family="Helvetica,sans-Serif" font-size="10.00" fill="#000000">std::ios_base</text>
</a>
</g>
</g>
<!-- Node6&#45;&gt;Node5 -->
<g id="edge6" class="edge">
<title>Node6&#45;&gt;Node5</title>
<path fill="none" stroke="#191970" d="M212.5,-241.2342C212.5,-231.8491 212.5,-221.0651 212.5,-213.5265"/>
<polygon fill="#191970" stroke="#191970" points="209.0001,-241.3307 212.5,-251.3307 216.0001,-241.3308 209.0001,-241.3307"/>
</g>
</g>
</svg>
