<?xml version="1.0" encoding="UTF-8" standalone="no"?>
<!DOCTYPE svg PUBLIC "-//W3C//DTD SVG 1.1//EN"
 "http://www.w3.org/Graphics/SVG/1.1/DTD/svg11.dtd">
<!-- Generated by graphviz version 2.40.1 (20161225.0304)
 -->
<!-- Title: main.cpp Pages: 1 -->
<svg width="389pt" height="140pt"
 viewBox="0.00 0.00 388.50 140.00" xmlns="http://www.w3.org/2000/svg" xmlns:xlink="http://www.w3.org/1999/xlink">
<g id="graph0" class="graph" transform="scale(1 1) rotate(0) translate(4 136)">
<title>main.cpp</title>
<!-- Node0 -->
<g id="node1" class="node">
<title>Node0</title>
<polygon fill="#bfbfbf" stroke="#000000" points="97,-112.5 97,-131.5 153,-131.5 153,-112.5 97,-112.5"/>
<text text-anchor="middle" x="125" y="-119.5" font-family="Helvetica,sans-Serif" font-size="10.00" fill="#000000">main.cpp</text>
</g>
<!-- Node1 -->
<g id="node2" class="node">
<title>Node1</title>
<polygon fill="none" stroke="#bfbfbf" points="0,-.5 0,-19.5 54,-19.5 54,-.5 0,-.5"/>
<text text-anchor="middle" x="27" y="-7.5" font-family="Helvetica,sans-Serif" font-size="10.00" fill="#000000">iostream</text>
</g>
<!-- Node0&#45;&gt;Node1 -->
<g id="edge1" class="edge">
<title>Node0&#45;&gt;Node1</title>
<path fill="none" stroke="#191970" d="M116.6446,-112.4509C100.0824,-93.5227 62.8873,-51.014 41.9869,-27.1279"/>
<polygon fill="#191970" stroke="#191970" points="44.5534,-24.7459 35.3343,-19.5249 39.2853,-29.3555 44.5534,-24.7459"/>
</g>
<!-- Node2 -->
<g id="node3" class="node">
<title>Node2</title>
<polygon fill="none" stroke="#bfbfbf" points="72,-.5 72,-19.5 124,-19.5 124,-.5 72,-.5"/>
<text text-anchor="middle" x="98" y="-7.5" font-family="Helvetica,sans-Serif" font-size="10.00" fill="#000000">sstream</text>
</g>
<!-- Node0&#45;&gt;Node2 -->
<g id="edge2" class="edge">
<title>Node0&#45;&gt;Node2</title>
<path fill="none" stroke="#191970" d="M122.698,-112.4509C118.2744,-94.1013 108.5085,-53.5908 102.6694,-29.3693"/>
<polygon fill="#191970" stroke="#191970" points="106.0424,-28.4261 100.2962,-19.5249 99.2373,-30.0667 106.0424,-28.4261"/>
</g>
<!-- Node3 -->
<g id="node4" class="node">
<title>Node3</title>
<polygon fill="none" stroke="#bfbfbf" points="198.5,-56.5 198.5,-75.5 239.5,-75.5 239.5,-56.5 198.5,-56.5"/>
<text text-anchor="middle" x="219" y="-63.5" font-family="Helvetica,sans-Serif" font-size="10.00" fill="#000000">string</text>
</g>
<!-- Node0&#45;&gt;Node3 -->
<g id="edge3" class="edge">
<title>Node0&#45;&gt;Node3</title>
<path fill="none" stroke="#191970" d="M141.3736,-112.2455C155.9308,-103.5731 177.431,-90.7645 194.1152,-80.825"/>
<polygon fill="#191970" stroke="#191970" points="196.0144,-83.7676 202.8141,-75.6427 192.4317,-77.7539 196.0144,-83.7676"/>
</g>
<!-- Node4 -->
<g id="node5" class="node">
<title>Node4</title>
<g id="a_node5"><a xlink:href="avltree_8h.html" target="_top" xlink:title="Declaraction of the AVLTree class. ">
<polygon fill="none" stroke="#000000" points="126,-56.5 126,-75.5 180,-75.5 180,-56.5 126,-56.5"/>
<text text-anchor="middle" x="153" y="-63.5" font-family="Helvetica,sans-Serif" font-size="10.00" fill="#000000">avltree.h</text>
</a>
</g>
</g>
<!-- Node0&#45;&gt;Node4 -->
<g id="edge4" class="edge">
<title>Node0&#45;&gt;Node4</title>
<path fill="none" stroke="#191970" d="M129.8772,-112.2455C133.6513,-104.6973 138.9921,-94.0158 143.5901,-84.8197"/>
<polygon fill="#191970" stroke="#191970" points="146.837,-86.1522 148.1787,-75.6427 140.576,-83.0217 146.837,-86.1522"/>
</g>
<!-- Node4&#45;&gt;Node1 -->
<g id="edge5" class="edge">
<title>Node4&#45;&gt;Node1</title>
<path fill="none" stroke="#191970" d="M131.3398,-56.3733C111.0228,-47.3435 80.436,-33.7494 57.625,-23.6111"/>
<polygon fill="#191970" stroke="#191970" points="58.9372,-20.3642 48.3775,-19.5011 56.0941,-26.7609 58.9372,-20.3642"/>
</g>
<!-- Node4&#45;&gt;Node2 -->
<g id="edge7" class="edge">
<title>Node4&#45;&gt;Node2</title>
<path fill="none" stroke="#191970" d="M143.4197,-56.2455C135.4542,-48.1352 123.9359,-36.4075 114.4921,-26.7919"/>
<polygon fill="#191970" stroke="#191970" points="116.9747,-24.3247 107.4705,-19.6427 111.9805,-29.2297 116.9747,-24.3247"/>
</g>
<!-- Node5 -->
<g id="node6" class="node">
<title>Node5</title>
<polygon fill="none" stroke="#bfbfbf" points="142,-.5 142,-19.5 186,-19.5 186,-.5 142,-.5"/>
<text text-anchor="middle" x="164" y="-7.5" font-family="Helvetica,sans-Serif" font-size="10.00" fill="#000000">vector</text>
</g>
<!-- Node4&#45;&gt;Node5 -->
<g id="edge6" class="edge">
<title>Node4&#45;&gt;Node5</title>
<path fill="none" stroke="#191970" d="M154.9161,-56.2455C156.3514,-48.9382 158.3636,-38.6944 160.1295,-29.7046"/>
<polygon fill="#191970" stroke="#191970" points="163.6127,-30.1298 162.1059,-19.6427 156.744,-28.7805 163.6127,-30.1298"/>
</g>
<!-- Node6 -->
<g id="node7" class="node">
<title>Node6</title>
<g id="a_node7"><a xlink:href="avltree__given_8cpp.html" target="_top" xlink:title="Definitions of some standard binary tree functions. ">
<polygon fill="none" stroke="#000000" points="204.5,-.5 204.5,-19.5 297.5,-19.5 297.5,-.5 204.5,-.5"/>
<text text-anchor="middle" x="251" y="-7.5" font-family="Helvetica,sans-Serif" font-size="10.00" fill="#000000">avltree_given.cpp</text>
</a>
</g>
</g>
<!-- Node4&#45;&gt;Node6 -->
<g id="edge8" class="edge">
<title>Node4&#45;&gt;Node6</title>
<path fill="none" stroke="#191970" d="M170.0703,-56.2455C185.247,-47.5731 207.6621,-34.7645 225.0563,-24.825"/>
<polygon fill="#191970" stroke="#191970" points="227.1794,-27.643 234.1253,-19.6427 223.7064,-21.5653 227.1794,-27.643"/>
</g>
<!-- Node7 -->
<g id="node8" class="node">
<title>Node7</title>
<g id="a_node8"><a xlink:href="avltree_8cpp.html" target="_top" xlink:title="Definitions of the binary tree functions you&#39;ll be writing for this lab. ">
<polygon fill="none" stroke="#000000" points="315.5,-.5 315.5,-19.5 380.5,-19.5 380.5,-.5 315.5,-.5"/>
<text text-anchor="middle" x="348" y="-7.5" font-family="Helvetica,sans-Serif" font-size="10.00" fill="#000000">avltree.cpp</text>
</a>
</g>
</g>
<!-- Node4&#45;&gt;Node7 -->
<g id="edge9" class="edge">
<title>Node4&#45;&gt;Node7</title>
<path fill="none" stroke="#191970" d="M180.1139,-58.2134C212.5839,-48.8887 267.3545,-33.1597 305.4729,-22.2129"/>
<polygon fill="#191970" stroke="#191970" points="306.6198,-25.5251 315.2652,-19.4008 304.6876,-18.797 306.6198,-25.5251"/>
</g>
</g>
</svg>
