<?xml version="1.0" encoding="UTF-8" standalone="no"?>
<!DOCTYPE svg PUBLIC "-//W3C//DTD SVG 1.1//EN"
 "http://www.w3.org/Graphics/SVG/1.1/DTD/svg11.dtd">
<!-- Generated by graphviz version 2.30.1 (20180420.1509)
 -->
<!-- Title: NetworkFlow Pages: 1 -->
<!--zoomable 195 -->
<svg id="main" version="1.1" xmlns="http://www.w3.org/2000/svg" xmlns:xlink="http://www.w3.org/1999/xlink" xml:space="preserve" onload="init(evt)">
<style type="text/css"><![CDATA[
.edge:hover path { stroke: red; }
.edge:hover polygon { stroke: red; fill: red; }
]]></style>
<script type="text/javascript"><![CDATA[
var edges = document.getElementsByTagName('g');
if (edges && edges.length) {
  for (var i=0;i<edges.length;i++) {
    if (edges[i].id.substr(0,4)=='edge') {
      edges[i].setAttribute('class','edge');
    }
  }
}
]]></script>
        <defs>
                <circle id="rim" cx="0" cy="0" r="7"/>
                <circle id="rim2" cx="0" cy="0" r="3.5"/>
                <g id="zoomPlus">
                        <use xlink:href="#rim" fill="#404040">
                                <set attributeName="fill" to="#808080" begin="zoomplus.mouseover" end="zoomplus.mouseout"/>
                        </use>
                        <path d="M-4,0h8M0,-4v8" fill="none" stroke="white" stroke-width="1.5" pointer-events="none"/>
                </g>
                <g id="zoomMin">
                        <use xlink:href="#rim" fill="#404040">
                                <set attributeName="fill" to="#808080" begin="zoomminus.mouseover" end="zoomminus.mouseout"/>
                        </use>
                        <path d="M-4,0h8" fill="none" stroke="white" stroke-width="1.5" pointer-events="none"/>
                </g>
                <g id="dirArrow">
                        <path fill="none" stroke="white" stroke-width="1.5" d="M0,-3.0v7 M-2.5,-0.5L0,-3.0L2.5,-0.5"/>
                </g>
               <g id="resetDef">
                       <use xlink:href="#rim2" fill="#404040">
                               <set attributeName="fill" to="#808080" begin="reset.mouseover" end="reset.mouseout"/>
                       </use>
               </g>
        </defs>

<script type="text/javascript">
var viewWidth = 704;
var viewHeight = 195;
var sectionId = 'dynsection-0';
</script>
<script xlink:href="svgpan.js"/>
<svg id="graph" class="graph">
<g id="viewport">
<title>NetworkFlow</title>
<!-- Node1 -->
<g id="node1" class="node"><title>Node1</title>
<g id="a_node1"><a xlink:title="Represents a algorithm to determine the maximum network flow of a graph.">
<polygon fill="#bfbfbf" stroke="black" points="622,-85.5 622,-104.5 696,-104.5 696,-85.5 622,-85.5"/>
<text text-anchor="middle" x="659" y="-92.5" font-family="Helvetica,sans-Serif" font-size="10.00">NetworkFlow</text>
</a>
</g>
</g>
<!-- Node2 -->
<g id="node2" class="node"><title>Node2</title>
<g id="a_node2"><a xlink:href="classGraph.html" target="_top" xlink:title="Represents a graph; used by the GraphTools class.">
<polygon fill="none" stroke="black" points="502.5,-85.5 502.5,-104.5 545.5,-104.5 545.5,-85.5 502.5,-85.5"/>
<text text-anchor="middle" x="524" y="-92.5" font-family="Helvetica,sans-Serif" font-size="10.00">Graph</text>
</a>
</g>
</g>
<!-- Node2&#45;&gt;Node1 -->
<g id="edge1" class="edge"><title>Node2&#45;&gt;Node1</title>
<path fill="none" stroke="#9a32cd" stroke-dasharray="5,2" d="M556.041,-95C575.716,-95 601.243,-95 621.833,-95"/>
<polygon fill="#9a32cd" stroke="#9a32cd" points="555.781,-91.5001 545.781,-95 555.781,-98.5001 555.781,-91.5001"/>
<text text-anchor="middle" x="584" y="-120" font-family="Helvetica,sans-Serif" font-size="10.00"> g_</text>
<text text-anchor="middle" x="584" y="-109" font-family="Helvetica,sans-Serif" font-size="10.00">residual_</text>
<text text-anchor="middle" x="584" y="-98" font-family="Helvetica,sans-Serif" font-size="10.00">flow_</text>
</g>
<!-- Node3 -->
<g id="node3" class="node"><title>Node3</title>
<g id="a_node3"><a xlink:href="classRandom.html" target="_top" xlink:title="Provides random functionality per a given seed.">
<polygon fill="none" stroke="black" points="303.5,-167.5 303.5,-186.5 356.5,-186.5 356.5,-167.5 303.5,-167.5"/>
<text text-anchor="middle" x="330" y="-174.5" font-family="Helvetica,sans-Serif" font-size="10.00">Random</text>
</a>
</g>
</g>
<!-- Node3&#45;&gt;Node2 -->
<g id="edge2" class="edge"><title>Node3&#45;&gt;Node2</title>
<path fill="none" stroke="#9a32cd" stroke-dasharray="5,2" d="M366.584,-170.635C398.764,-163.845 446.679,-151.108 484,-130 495.878,-123.282 507.226,-112.42 514.587,-104.577"/>
<polygon fill="#9a32cd" stroke="#9a32cd" points="365.828,-167.216 356.722,-172.633 367.218,-174.077 365.828,-167.216"/>
<text text-anchor="middle" x="451" y="-159" font-family="Helvetica,sans-Serif" font-size="10.00"> random</text>
</g>
<!-- Node4 -->
<g id="node4" class="node"><title>Node4</title>
<g id="a_node4"><a doxygen="/home/pacole2/TA/cs225/assignments/doxygen/cppreference-doxygen-web.tag.xml:http://en.cppreference.com/w/" xlink:href="http://en.cppreference.com/w/cpp/string/basic_string.html" xlink:title="STL class.">
<polygon fill="none" stroke="black" points="134,-56.5 134,-75.5 194,-75.5 194,-56.5 134,-56.5"/>
<text text-anchor="middle" x="164" y="-63.5" font-family="Helvetica,sans-Serif" font-size="10.00">std::string</text>
</a>
</g>
</g>
<!-- Node4&#45;&gt;Node2 -->
<g id="edge3" class="edge"><title>Node4&#45;&gt;Node2</title>
<path fill="none" stroke="#9a32cd" stroke-dasharray="5,2" d="M204.362,-77.2837C221.337,-81.6917 241.502,-86.3226 260,-89 358.695,-103.285 384.67,-110.844 484,-102 490.03,-101.463 496.522,-100.468 502.447,-99.3936"/>
<polygon fill="#9a32cd" stroke="#9a32cd" points="204.813,-73.7818 194.249,-74.5874 203.01,-80.5455 204.813,-73.7818"/>
<text text-anchor="middle" x="330" y="-130" font-family="Helvetica,sans-Serif" font-size="10.00"> InvalidLabel</text>
<text text-anchor="middle" x="330" y="-119" font-family="Helvetica,sans-Serif" font-size="10.00">picName</text>
<text text-anchor="middle" x="330" y="-108" font-family="Helvetica,sans-Serif" font-size="10.00">InvalidVertex</text>
</g>
<!-- Node6 -->
<g id="node6" class="node"><title>Node6</title>
<g id="a_node6"><a doxygen="/home/pacole2/TA/cs225/assignments/doxygen/cppreference-doxygen-web.tag.xml:http://en.cppreference.com/w/" xlink:href="http://en.cppreference.com/w/cpp/container/unordered_map.html" xlink:title=" ">
<polygon fill="none" stroke="black" points="260,-38.5 260,-79.5 400,-79.5 400,-38.5 260,-38.5"/>
<text text-anchor="start" x="268" y="-67.5" font-family="Helvetica,sans-Serif" font-size="10.00">std::unordered_map</text>
<text text-anchor="start" x="268" y="-56.5" font-family="Helvetica,sans-Serif" font-size="10.00">&lt; std::string, unordered</text>
<text text-anchor="middle" x="330" y="-45.5" font-family="Helvetica,sans-Serif" font-size="10.00">_map&lt; std::string, Edge &gt; &gt;</text>
</a>
</g>
</g>
<!-- Node4&#45;&gt;Node6 -->
<g id="edge6" class="edge"><title>Node4&#45;&gt;Node6</title>
<path fill="none" stroke="#9a32cd" stroke-dasharray="5,2" d="M204.695,-64.3057C221.242,-63.5994 240.954,-62.7581 259.75,-61.9558"/>
<polygon fill="#9a32cd" stroke="#9a32cd" points="204.162,-60.8252 194.32,-64.7485 204.46,-67.8188 204.162,-60.8252"/>
<text text-anchor="middle" x="227" y="-67" font-family="Helvetica,sans-Serif" font-size="10.00"> keys</text>
</g>
<!-- Node7 -->
<g id="node7" class="node"><title>Node7</title>
<g id="a_node7"><a xlink:href="classEdge.html" target="_top" xlink:title="Represents an edge in a graph; used by the Graph class.">
<polygon fill="none" stroke="black" points="310.5,-0.5 310.5,-19.5 349.5,-19.5 349.5,-0.5 310.5,-0.5"/>
<text text-anchor="middle" x="330" y="-7.5" font-family="Helvetica,sans-Serif" font-size="10.00">Edge</text>
</a>
</g>
</g>
<!-- Node4&#45;&gt;Node7 -->
<g id="edge8" class="edge"><title>Node4&#45;&gt;Node7</title>
<path fill="none" stroke="#9a32cd" stroke-dasharray="5,2" d="M180.238,-49.0832C188.741,-40.7475 200.018,-31.3582 212,-26 244.378,-11.5212 286.427,-9.30449 310.289,-9.38911"/>
<polygon fill="#9a32cd" stroke="#9a32cd" points="177.7,-46.6728 173.269,-56.2962 182.734,-51.5368 177.7,-46.6728"/>
<text text-anchor="middle" x="227" y="-51" font-family="Helvetica,sans-Serif" font-size="10.00"> dest</text>
<text text-anchor="middle" x="227" y="-40" font-family="Helvetica,sans-Serif" font-size="10.00">source</text>
<text text-anchor="middle" x="227" y="-29" font-family="Helvetica,sans-Serif" font-size="10.00">label</text>
</g>
<!-- Node5 -->
<g id="node5" class="node"><title>Node5</title>
<g id="a_node5"><a doxygen="/home/pacole2/TA/cs225/assignments/doxygen/cppreference-doxygen-web.tag.xml:http://en.cppreference.com/w/" xlink:href="http://en.cppreference.com/w/cpp/string/basic_string.html" xlink:title=" ">
<polygon fill="none" stroke="black" points="0.5,-51 0.5,-81 95.5,-81 95.5,-51 0.5,-51"/>
<text text-anchor="start" x="8.5" y="-69" font-family="Helvetica,sans-Serif" font-size="10.00">std::basic_string&lt;</text>
<text text-anchor="middle" x="48" y="-58" font-family="Helvetica,sans-Serif" font-size="10.00"> char &gt;</text>
</a>
</g>
</g>
<!-- Node5&#45;&gt;Node4 -->
<g id="edge4" class="edge"><title>Node5&#45;&gt;Node4</title>
<path fill="none" stroke="midnightblue" d="M105.782,-66C115.509,-66 125.243,-66 133.854,-66"/>
<polygon fill="midnightblue" stroke="midnightblue" points="105.697,-62.5001 95.6971,-66 105.697,-69.5001 105.697,-62.5001"/>
</g>
<!-- Node6&#45;&gt;Node2 -->
<g id="edge5" class="edge"><title>Node6&#45;&gt;Node2</title>
<path fill="none" stroke="#9a32cd" stroke-dasharray="5,2" d="M409.899,-73.7936C443.515,-80.0966 480.022,-86.9416 502.207,-91.1014"/>
<polygon fill="#9a32cd" stroke="#9a32cd" points="410.519,-70.3489 400.045,-71.946 409.229,-77.229 410.519,-70.3489"/>
<text text-anchor="middle" x="451" y="-90" font-family="Helvetica,sans-Serif" font-size="10.00"> adjacency_list</text>
</g>
<!-- Node7&#45;&gt;Node2 -->
<g id="edge7" class="edge"><title>Node7&#45;&gt;Node2</title>
<path fill="none" stroke="#9a32cd" stroke-dasharray="5,2" d="M359.581,-15.2886C391.6,-22.1025 444.221,-36.0214 484,-60 495.531,-66.9511 506.765,-77.563 514.19,-85.2796"/>
<polygon fill="#9a32cd" stroke="#9a32cd" points="360.059,-11.8139 349.561,-13.2458 358.66,-18.6729 360.059,-11.8139"/>
<text text-anchor="middle" x="451" y="-63" font-family="Helvetica,sans-Serif" font-size="10.00"> InvalidEdge</text>
</g>
</g>
</svg>
        <g id="navigator" transform="translate(0 0)" fill="#404254">
                <rect fill="#f2f5e9" fill-opacity="0.5" stroke="#606060" stroke-width=".5" x="0" y="0" width="60" height="60"/>
                <use id="zoomplus" xlink:href="#zoomPlus" x="17" y="9" onmousedown="handleZoom(evt,'in')"/>
                <use id="zoomminus" xlink:href="#zoomMin" x="42" y="9" onmousedown="handleZoom(evt,'out')"/>
                <use id="reset" xlink:href="#resetDef" x="30" y="36" onmousedown="handleReset()"/>
                <g id="arrowUp" xlink:href="#dirArrow" transform="translate(30 24)" onmousedown="handlePan(0,-1)">
                  <use xlink:href="#rim" fill="#404040">
                        <set attributeName="fill" to="#808080" begin="arrowUp.mouseover" end="arrowUp.mouseout"/>
                  </use>
                  <path fill="none" stroke="white" stroke-width="1.5" d="M0,-3.0v7 M-2.5,-0.5L0,-3.0L2.5,-0.5"/>
                </g>
                <g id="arrowRight" xlink:href="#dirArrow" transform="rotate(90) translate(36 -43)" onmousedown="handlePan(1,0)">
                  <use xlink:href="#rim" fill="#404040">
                        <set attributeName="fill" to="#808080" begin="arrowRight.mouseover" end="arrowRight.mouseout"/>
                  </use>
                  <path fill="none" stroke="white" stroke-width="1.5" d="M0,-3.0v7 M-2.5,-0.5L0,-3.0L2.5,-0.5"/>
                </g>
                <g id="arrowDown" xlink:href="#dirArrow" transform="rotate(180) translate(-30 -48)" onmousedown="handlePan(0,1)">
                  <use xlink:href="#rim" fill="#404040">
                        <set attributeName="fill" to="#808080" begin="arrowDown.mouseover" end="arrowDown.mouseout"/>
                  </use>
                  <path fill="none" stroke="white" stroke-width="1.5" d="M0,-3.0v7 M-2.5,-0.5L0,-3.0L2.5,-0.5"/>
                </g>
                <g id="arrowLeft" xlink:href="#dirArrow" transform="rotate(270) translate(-36 17)" onmousedown="handlePan(-1,0)">
                  <use xlink:href="#rim" fill="#404040">
                        <set attributeName="fill" to="#808080" begin="arrowLeft.mouseover" end="arrowLeft.mouseout"/>
                  </use>
                  <path fill="none" stroke="white" stroke-width="1.5" d="M0,-3.0v7 M-2.5,-0.5L0,-3.0L2.5,-0.5"/>
                </g>
        </g>
        <svg viewBox="0 0 15 15" width="100%" height="30px" preserveAspectRatio="xMaxYMin meet">
         <g id="arrow_out" transform="scale(0.3 0.3)">
          <a xlink:href="classNetworkFlow__coll__graph_org.svg" target="_base">
           <rect id="button" ry="5" rx="5" y="6" x="6" height="38" width="38"
                fill="#f2f5e9" fill-opacity="0.5" stroke="#606060" stroke-width="1.0"/>
           <path id="arrow"
             d="M 11.500037,31.436501 C 11.940474,20.09759 22.043105,11.32322 32.158766,21.979434 L 37.068811,17.246167 C 37.068811,17.246167 37.088388,32 37.088388,32 L 22.160133,31.978069 C 22.160133,31.978069 26.997745,27.140456 26.997745,27.140456 C 18.528582,18.264221 13.291696,25.230495 11.500037,31.436501 z"
             style="fill:#404040;"/>
          </a>
         </g>
        </svg>
</svg>
