<?xml version="1.0" encoding="UTF-8" standalone="no"?>
<!DOCTYPE svg PUBLIC "-//W3C//DTD SVG 1.1//EN"
 "http://www.w3.org/Graphics/SVG/1.1/DTD/svg11.dtd">
<!-- Generated by graphviz version 2.30.1 (20180420.1509)
 -->
<!-- Title: Edge Pages: 1 -->
<svg width="102pt" height="188pt"
 viewBox="0.00 0.00 102.00 188.00" xmlns="http://www.w3.org/2000/svg" xmlns:xlink="http://www.w3.org/1999/xlink">
<g id="graph0" class="graph" transform="scale(1 1) rotate(0) translate(4 184)">
<title>Edge</title>
<!-- Node1 -->
<g id="node1" class="node"><title>Node1</title>
<g id="a_node1"><a xlink:title="Represents an edge in a graph; used by the Graph class.">
<polygon fill="#bfbfbf" stroke="black" points="27.5,-0.5 27.5,-19.5 66.5,-19.5 66.5,-0.5 27.5,-0.5"/>
<text text-anchor="middle" x="47" y="-7.5" font-family="Helvetica,sans-Serif" font-size="10.00">Edge</text>
</a>
</g>
</g>
<!-- Node2 -->
<g id="node2" class="node"><title>Node2</title>
<g id="a_node2"><a doxygen="/home/pacole2/TA/cs225/assignments/doxygen/cppreference-doxygen-web.tag.xml:http://en.cppreference.com/w/" xlink:href="http://en.cppreference.com/w/cpp/string/basic_string.html" xlink:title="STL class.">
<polygon fill="none" stroke="black" points="17,-90.5 17,-109.5 77,-109.5 77,-90.5 17,-90.5"/>
<text text-anchor="middle" x="47" y="-97.5" font-family="Helvetica,sans-Serif" font-size="10.00">std::string</text>
</a>
</g>
</g>
<!-- Node2&#45;&gt;Node1 -->
<g id="edge1" class="edge"><title>Node2&#45;&gt;Node1</title>
<path fill="none" stroke="#9a32cd" stroke-dasharray="5,2" d="M47,-79.9784C47,-61.3096 47,-33.6696 47,-19.7241"/>
<polygon fill="#9a32cd" stroke="#9a32cd" points="43.5001,-80.2405 47,-90.2405 50.5001,-80.2405 43.5001,-80.2405"/>
<text text-anchor="middle" x="62" y="-63.5" font-family="Helvetica,sans-Serif" font-size="10.00"> dest</text>
<text text-anchor="middle" x="62" y="-52.5" font-family="Helvetica,sans-Serif" font-size="10.00">source</text>
<text text-anchor="middle" x="62" y="-41.5" font-family="Helvetica,sans-Serif" font-size="10.00">label</text>
</g>
<!-- Node3 -->
<g id="node3" class="node"><title>Node3</title>
<g id="a_node3"><a doxygen="/home/pacole2/TA/cs225/assignments/doxygen/cppreference-doxygen-web.tag.xml:http://en.cppreference.com/w/" xlink:href="http://en.cppreference.com/w/cpp/string/basic_string.html" xlink:title=" ">
<polygon fill="none" stroke="black" points="-0.5,-149 -0.5,-179 94.5,-179 94.5,-149 -0.5,-149"/>
<text text-anchor="start" x="7.5" y="-167" font-family="Helvetica,sans-Serif" font-size="10.00">std::basic_string&lt;</text>
<text text-anchor="middle" x="47" y="-156" font-family="Helvetica,sans-Serif" font-size="10.00"> char &gt;</text>
</a>
</g>
</g>
<!-- Node3&#45;&gt;Node2 -->
<g id="edge2" class="edge"><title>Node3&#45;&gt;Node2</title>
<path fill="none" stroke="midnightblue" d="M47,-138.871C47,-128.663 47,-117.408 47,-109.842"/>
<polygon fill="midnightblue" stroke="midnightblue" points="43.5001,-138.931 47,-148.931 50.5001,-138.931 43.5001,-138.931"/>
</g>
</g>
</svg>
