<?xml version="1.0" encoding="UTF-8" standalone="no"?>
<!DOCTYPE svg PUBLIC "-//W3C//DTD SVG 1.1//EN"
 "http://www.w3.org/Graphics/SVG/1.1/DTD/svg11.dtd">
<!-- Generated by graphviz version 2.40.1 (0)
 -->
<!-- Title: binarytree.h Pages: 1 -->
<!--zoomable 140 -->
<svg id="main" version="1.1" xmlns="http://www.w3.org/2000/svg" xmlns:xlink="http://www.w3.org/1999/xlink" xml:space="preserve" onload="init(evt)">
<style type="text/css"><![CDATA[
.edge:hover path { stroke: red; }
.edge:hover polygon { stroke: red; fill: red; }
]]></style>
<script type="text/javascript"><![CDATA[
var edges = document.getElementsByTagName('g');
if (edges && edges.length) {
  for (var i=0;i<edges.length;i++) {
    if (edges[i].id.substr(0,4)=='edge') {
      edges[i].setAttribute('class','edge');
    }
  }
}
]]></script>
        <defs>
                <circle id="rim" cx="0" cy="0" r="7"/>
                <circle id="rim2" cx="0" cy="0" r="3.5"/>
                <g id="zoomPlus">
                        <use xlink:href="#rim" fill="#404040">
                                <set attributeName="fill" to="#808080" begin="zoomplus.mouseover" end="zoomplus.mouseout"/>
                        </use>
                        <path d="M-4,0h8M0,-4v8" fill="none" stroke="white" stroke-width="1.5" pointer-events="none"/>
                </g>
                <g id="zoomMin">
                        <use xlink:href="#rim" fill="#404040">
                                <set attributeName="fill" to="#808080" begin="zoomminus.mouseover" end="zoomminus.mouseout"/>
                        </use>
                        <path d="M-4,0h8" fill="none" stroke="white" stroke-width="1.5" pointer-events="none"/>
                </g>
                <g id="dirArrow">
                        <path fill="none" stroke="white" stroke-width="1.5" d="M0,-3.0v7 M-2.5,-0.5L0,-3.0L2.5,-0.5"/>
                </g>
               <g id="resetDef">
                       <use xlink:href="#rim2" fill="#404040">
                               <set attributeName="fill" to="#808080" begin="reset.mouseover" end="reset.mouseout"/>
                       </use>
               </g>
        </defs>

<script type="text/javascript">
var viewWidth = 657;
var viewHeight = 140;
var sectionId = 'dynsection-0';
</script>
<script xlink:href="svgpan.js"/>
<svg id="graph" class="graph">
<g id="viewport">
<title>binarytree.h</title>
<!-- Node0 -->
<g id="node1" class="node">
<title>Node0</title>
<g id="a_node1"><a xlink:title="Declaraction of the BinaryTree class.">
<polygon fill="#bfbfbf" stroke="#000000" points="154.7664,-112.5 154.7664,-131.5 261.7664,-131.5 261.7664,-112.5 154.7664,-112.5"/>
<text text-anchor="middle" x="208.2664" y="-119.5" font-family="Helvetica,sans-Serif" font-size="10.00" fill="#000000">binarytree.h</text>
</a>
</g>
</g>
<!-- Node1 -->
<g id="node2" class="node">
<title>Node1</title>
<g id="a_node2"><a xlink:title=" ">
<polygon fill="none" stroke="#bfbfbf" points="247.7664,-.5 247.7664,-19.5 324.7664,-19.5 324.7664,-.5 247.7664,-.5"/>
<text text-anchor="middle" x="286.2664" y="-7.5" font-family="Helvetica,sans-Serif" font-size="10.00" fill="#000000">iostream</text>
</a>
</g>
</g>
<!-- Node0&#45;&gt;Node1 -->
<g id="edge1" class="edge">
<title>Node0&#45;&gt;Node1</title>
<path fill="none" stroke="#191970" d="M154.3759,-117.3481C100.3963,-111.4395 22.7453,-99.1097 4.2664,-76 -1.2848,-69.0576 -1.4908,-62.7725 4.2664,-56 19.1682,-38.4705 160.576,-22.1894 237.305,-14.5537"/>
<polygon fill="#191970" stroke="#191970" points="238.0727,-17.9952 247.6826,-13.5344 237.3884,-11.0288 238.0727,-17.9952"/>
</g>
<!-- Node2 -->
<g id="node3" class="node">
<title>Node2</title>
<g id="a_node3"><a xlink:title=" ">
<polygon fill="none" stroke="#bfbfbf" points="13.2664,-56.5 13.2664,-75.5 75.2664,-75.5 75.2664,-56.5 13.2664,-56.5"/>
<text text-anchor="middle" x="44.2664" y="-63.5" font-family="Helvetica,sans-Serif" font-size="10.00" fill="#000000">string</text>
</a>
</g>
</g>
<!-- Node0&#45;&gt;Node2 -->
<g id="edge2" class="edge">
<title>Node0&#45;&gt;Node2</title>
<path fill="none" stroke="#191970" d="M180.0738,-112.3733C152.9212,-103.1016 111.6758,-89.0178 81.7639,-78.804"/>
<polygon fill="#191970" stroke="#191970" points="82.6857,-75.4204 72.0911,-75.5011 80.4236,-82.0449 82.6857,-75.4204"/>
</g>
<!-- Node3 -->
<g id="node4" class="node">
<title>Node3</title>
<g id="a_node4"><a xlink:title=" ">
<polygon fill="none" stroke="#bfbfbf" points="93.2664,-56.5 93.2664,-75.5 155.2664,-75.5 155.2664,-56.5 93.2664,-56.5"/>
<text text-anchor="middle" x="124.2664" y="-63.5" font-family="Helvetica,sans-Serif" font-size="10.00" fill="#000000">vector</text>
</a>
</g>
</g>
<!-- Node0&#45;&gt;Node3 -->
<g id="edge3" class="edge">
<title>Node0&#45;&gt;Node3</title>
<path fill="none" stroke="#191970" d="M193.6347,-112.2455C180.867,-103.7337 162.1227,-91.2375 147.3366,-81.3801"/>
<polygon fill="#191970" stroke="#191970" points="148.9924,-78.2775 138.7304,-75.6427 145.1095,-84.1019 148.9924,-78.2775"/>
</g>
<!-- Node4 -->
<g id="node5" class="node">
<title>Node4</title>
<g id="a_node5"><a xlink:title=" ">
<polygon fill="none" stroke="#bfbfbf" points="173.7664,-56.5 173.7664,-75.5 242.7664,-75.5 242.7664,-56.5 173.7664,-56.5"/>
<text text-anchor="middle" x="208.2664" y="-63.5" font-family="Helvetica,sans-Serif" font-size="10.00" fill="#000000">sstream</text>
</a>
</g>
</g>
<!-- Node0&#45;&gt;Node4 -->
<g id="edge4" class="edge">
<title>Node0&#45;&gt;Node4</title>
<path fill="none" stroke="#191970" d="M208.2664,-112.2455C208.2664,-104.9382 208.2664,-94.6944 208.2664,-85.7046"/>
<polygon fill="#191970" stroke="#191970" points="211.7665,-85.6426 208.2664,-75.6427 204.7665,-85.6427 211.7665,-85.6426"/>
</g>
<!-- Node5 -->
<g id="node6" class="node">
<title>Node5</title>
<g id="a_node6"><a xlink:title=" ">
<polygon fill="none" stroke="#bfbfbf" points="261.2664,-56.5 261.2664,-75.5 323.2664,-75.5 323.2664,-56.5 261.2664,-56.5"/>
<text text-anchor="middle" x="292.2664" y="-63.5" font-family="Helvetica,sans-Serif" font-size="10.00" fill="#000000">random</text>
</a>
</g>
</g>
<!-- Node0&#45;&gt;Node5 -->
<g id="edge5" class="edge">
<title>Node0&#45;&gt;Node5</title>
<path fill="none" stroke="#191970" d="M222.8981,-112.2455C235.6658,-103.7337 254.4102,-91.2375 269.1963,-81.3801"/>
<polygon fill="#191970" stroke="#191970" points="271.4234,-84.1019 277.8024,-75.6427 267.5404,-78.2775 271.4234,-84.1019"/>
</g>
<!-- Node6 -->
<g id="node7" class="node">
<title>Node6</title>
<g id="a_node7"><a xlink:href="binarytree__given_8cpp.html" target="_top" xlink:title="Definitions of some standard binary tree functions.">
<polygon fill="none" stroke="#000000" points="341.7664,-56.5 341.7664,-75.5 508.7664,-75.5 508.7664,-56.5 341.7664,-56.5"/>
<text text-anchor="middle" x="425.2664" y="-63.5" font-family="Helvetica,sans-Serif" font-size="10.00" fill="#000000">binarytree_given.cpp</text>
</a>
</g>
</g>
<!-- Node0&#45;&gt;Node6 -->
<g id="edge6" class="edge">
<title>Node0&#45;&gt;Node6</title>
<path fill="none" stroke="#191970" d="M245.5701,-112.3733C282.4349,-102.8598 338.9324,-88.2797 378.7171,-78.0127"/>
<polygon fill="#191970" stroke="#191970" points="379.6414,-81.3889 388.4496,-75.5011 377.8922,-74.611 379.6414,-81.3889"/>
</g>
<!-- Node7 -->
<g id="node8" class="node">
<title>Node7</title>
<g id="a_node8"><a xlink:href="binarytree_8cpp.html" target="_top" xlink:title="Definitions of the binary tree functions you&#39;ll be writing for this lab.">
<polygon fill="none" stroke="#000000" points="527.2664,-56.5 527.2664,-75.5 649.2664,-75.5 649.2664,-56.5 527.2664,-56.5"/>
<text text-anchor="middle" x="588.2664" y="-63.5" font-family="Helvetica,sans-Serif" font-size="10.00" fill="#000000">binarytree.cpp</text>
</a>
</g>
</g>
<!-- Node0&#45;&gt;Node7 -->
<g id="edge7" class="edge">
<title>Node0&#45;&gt;Node7</title>
<path fill="none" stroke="#191970" d="M261.9052,-114.0953C328.6323,-104.2619 442.7847,-87.4394 516.8615,-76.5228"/>
<polygon fill="#191970" stroke="#191970" points="517.6561,-79.9436 527.0389,-75.023 516.6355,-73.0184 517.6561,-79.9436"/>
</g>
<!-- Node7&#45;&gt;Node1 -->
<g id="edge8" class="edge">
<title>Node7&#45;&gt;Node1</title>
<path fill="none" stroke="#191970" d="M536.6939,-56.4369C480.234,-45.9675 390.3891,-29.3075 335.0559,-19.0471"/>
<polygon fill="#191970" stroke="#191970" points="335.612,-15.5906 325.1414,-17.2086 334.3357,-22.4733 335.612,-15.5906"/>
</g>
</g>
</svg>
        <g id="navigator" transform="translate(0 0)" fill="#404254">
                <rect fill="#f2f5e9" fill-opacity="0.5" stroke="#606060" stroke-width=".5" x="0" y="0" width="60" height="60"/>
                <use id="zoomplus" xlink:href="#zoomPlus" x="17" y="9" onmousedown="handleZoom(evt,'in')"/>
                <use id="zoomminus" xlink:href="#zoomMin" x="42" y="9" onmousedown="handleZoom(evt,'out')"/>
                <use id="reset" xlink:href="#resetDef" x="30" y="36" onmousedown="handleReset()"/>
                <g id="arrowUp" xlink:href="#dirArrow" transform="translate(30 24)" onmousedown="handlePan(0,-1)">
                  <use xlink:href="#rim" fill="#404040">
                        <set attributeName="fill" to="#808080" begin="arrowUp.mouseover" end="arrowUp.mouseout"/>
                  </use>
                  <path fill="none" stroke="white" stroke-width="1.5" d="M0,-3.0v7 M-2.5,-0.5L0,-3.0L2.5,-0.5"/>
                </g>
                <g id="arrowRight" xlink:href="#dirArrow" transform="rotate(90) translate(36 -43)" onmousedown="handlePan(1,0)">
                  <use xlink:href="#rim" fill="#404040">
                        <set attributeName="fill" to="#808080" begin="arrowRight.mouseover" end="arrowRight.mouseout"/>
                  </use>
                  <path fill="none" stroke="white" stroke-width="1.5" d="M0,-3.0v7 M-2.5,-0.5L0,-3.0L2.5,-0.5"/>
                </g>
                <g id="arrowDown" xlink:href="#dirArrow" transform="rotate(180) translate(-30 -48)" onmousedown="handlePan(0,1)">
                  <use xlink:href="#rim" fill="#404040">
                        <set attributeName="fill" to="#808080" begin="arrowDown.mouseover" end="arrowDown.mouseout"/>
                  </use>
                  <path fill="none" stroke="white" stroke-width="1.5" d="M0,-3.0v7 M-2.5,-0.5L0,-3.0L2.5,-0.5"/>
                </g>
                <g id="arrowLeft" xlink:href="#dirArrow" transform="rotate(270) translate(-36 17)" onmousedown="handlePan(-1,0)">
                  <use xlink:href="#rim" fill="#404040">
                        <set attributeName="fill" to="#808080" begin="arrowLeft.mouseover" end="arrowLeft.mouseout"/>
                  </use>
                  <path fill="none" stroke="white" stroke-width="1.5" d="M0,-3.0v7 M-2.5,-0.5L0,-3.0L2.5,-0.5"/>
                </g>
        </g>
        <svg viewBox="0 0 15 15" width="100%" height="30px" preserveAspectRatio="xMaxYMin meet">
         <g id="arrow_out" transform="scale(0.3 0.3)">
          <a xlink:href="binarytree_8h__incl_org.svg" target="_base">
           <rect id="button" ry="5" rx="5" y="6" x="6" height="38" width="38"
                fill="#f2f5e9" fill-opacity="0.5" stroke="#606060" stroke-width="1.0"/>
           <path id="arrow"
             d="M 11.500037,31.436501 C 11.940474,20.09759 22.043105,11.32322 32.158766,21.979434 L 37.068811,17.246167 C 37.068811,17.246167 37.088388,32 37.088388,32 L 22.160133,31.978069 C 22.160133,31.978069 26.997745,27.140456 26.997745,27.140456 C 18.528582,18.264221 13.291696,25.230495 11.500037,31.436501 z"
             style="fill:#404040;"/>
          </a>
         </g>
        </svg>
</svg>
