<?xml version="1.0" encoding="UTF-8" standalone="no"?>
<!DOCTYPE svg PUBLIC "-//W3C//DTD SVG 1.1//EN"
 "http://www.w3.org/Graphics/SVG/1.1/DTD/svg11.dtd">
<!-- Generated by graphviz version 2.40.1 (0)
 -->
<!-- Title: PreorderTraversal&lt; T &gt; Pages: 1 -->
<svg width="390pt" height="106pt"
 viewBox="0.00 0.00 390.00 106.00" xmlns="http://www.w3.org/2000/svg" xmlns:xlink="http://www.w3.org/1999/xlink">
<g id="graph0" class="graph" transform="scale(1 1) rotate(0) translate(4 102)">
<title>PreorderTraversal&lt; T &gt;</title>
<!-- Node2 -->
<g id="node1" class="node">
<title>Node2</title>
<g id="a_node1"><a xlink:title="A derived, templatized class for preorder traversal algorithms on trees.">
<polygon fill="#bfbfbf" stroke="#000000" points="85,-.5 85,-19.5 267,-19.5 267,-.5 85,-.5"/>
<text text-anchor="middle" x="176" y="-7.5" font-family="Helvetica,sans-Serif" font-size="10.00" fill="#000000">PreorderTraversal&lt; T &gt;</text>
</a>
</g>
</g>
<!-- Node3 -->
<g id="node2" class="node">
<title>Node3</title>
<g id="a_node2"><a xlink:href="classTreeTraversal.html" target="_top" xlink:title="Pure virtual class for traversal algorithms on trees.">
<polygon fill="none" stroke="#000000" points="0,-73 0,-92 152,-92 152,-73 0,-73"/>
<text text-anchor="middle" x="76" y="-80" font-family="Helvetica,sans-Serif" font-size="10.00" fill="#000000">TreeTraversal&lt; T &gt;</text>
</a>
</g>
</g>
<!-- Node3&#45;&gt;Node2 -->
<g id="edge1" class="edge">
<title>Node3&#45;&gt;Node2</title>
<path fill="none" stroke="#191970" d="M97.6273,-66.8202C117.4313,-52.4623 146.1117,-31.669 162.7272,-19.6228"/>
<polygon fill="#191970" stroke="#191970" points="95.5282,-64.019 89.4864,-72.7223 99.637,-69.6863 95.5282,-64.019"/>
</g>
<!-- Node4 -->
<g id="node3" class="node">
<title>Node4</title>
<g id="a_node3"><a doxygen="/data/doxygen/cppreference-doxygen-web.tag.xml:http://en.cppreference.com/w/" xlink:href="http://en.cppreference.com/w/cpp/container/stack.html" xlink:title=" ">
<polygon fill="none" stroke="#000000" points="170,-67.5 170,-97.5 382,-97.5 382,-67.5 170,-67.5"/>
<text text-anchor="start" x="178" y="-85.5" font-family="Helvetica,sans-Serif" font-size="10.00" fill="#000000">std::stack&lt; typename</text>
<text text-anchor="middle" x="276" y="-74.5" font-family="Helvetica,sans-Serif" font-size="10.00" fill="#000000"> BinaryTree&lt; T &gt;::Node * &gt;</text>
</a>
</g>
</g>
<!-- Node4&#45;&gt;Node2 -->
<g id="edge2" class="edge">
<title>Node4&#45;&gt;Node2</title>
<path fill="none" stroke="#9a32cd" stroke-dasharray="5,2" d="M246.9441,-61.4345C227.9353,-47.6531 203.9967,-30.2976 189.3552,-19.6825"/>
<polygon fill="#9a32cd" stroke="#9a32cd" points="245.1294,-64.4419 255.2799,-67.478 249.2382,-58.7746 245.1294,-64.4419"/>
<text text-anchor="middle" x="252" y="-41" font-family="Helvetica,sans-Serif" font-size="10.00" fill="#000000"> stack</text>
</g>
</g>
</svg>
