<?xml version="1.0" encoding="UTF-8" standalone="no"?>
<!DOCTYPE svg PUBLIC "-//W3C//DTD SVG 1.1//EN"
 "http://www.w3.org/Graphics/SVG/1.1/DTD/svg11.dtd">
<!-- Generated by graphviz version 2.40.1 (0)
 -->
<!-- Title: BinaryTree&lt; T &gt; Pages: 1 -->
<svg width="246pt" height="164pt"
 viewBox="0.00 0.00 246.00 164.00" xmlns="http://www.w3.org/2000/svg" xmlns:xlink="http://www.w3.org/1999/xlink">
<g id="graph0" class="graph" transform="scale(1 1) rotate(0) translate(4 160)">
<title>BinaryTree&lt; T &gt;</title>
<!-- Node1 -->
<g id="node1" class="node">
<title>Node1</title>
<g id="a_node1"><a xlink:title="The BinaryTree class represents a templated linked&#45;memory tree data structure.">
<polygon fill="#bfbfbf" stroke="#000000" points="22.5,-.5 22.5,-19.5 151.5,-19.5 151.5,-.5 22.5,-.5"/>
<text text-anchor="middle" x="87" y="-7.5" font-family="Helvetica,sans-Serif" font-size="10.00" fill="#000000">BinaryTree&lt; T &gt;</text>
</a>
</g>
</g>
<!-- Node2 -->
<g id="node2" class="node">
<title>Node2</title>
<g id="a_node2"><a xlink:href="structBinaryTree_1_1Node.html" target="_top" xlink:title="Represents a tree node; that is, an element in a BinaryTree.">
<polygon fill="none" stroke="#000000" points="0,-68.5 0,-87.5 174,-87.5 174,-68.5 0,-68.5"/>
<text text-anchor="middle" x="87" y="-75.5" font-family="Helvetica,sans-Serif" font-size="10.00" fill="#000000">BinaryTree&lt; T &gt;::Node</text>
</a>
</g>
</g>
<!-- Node2&#45;&gt;Node1 -->
<g id="edge1" class="edge">
<title>Node2&#45;&gt;Node1</title>
<path fill="none" stroke="#9a32cd" stroke-dasharray="5,2" d="M87,-58.1951C87,-45.5514 87,-29.7157 87,-19.7247"/>
<polygon fill="#9a32cd" stroke="#9a32cd" points="83.5001,-58.2572 87,-68.2573 90.5001,-58.2573 83.5001,-58.2572"/>
<text text-anchor="middle" x="106" y="-41" font-family="Helvetica,sans-Serif" font-size="10.00" fill="#000000"> root</text>
</g>
<!-- Node2&#45;&gt;Node2 -->
<g id="edge2" class="edge">
<title>Node2&#45;&gt;Node2</title>
<path fill="none" stroke="#9a32cd" stroke-dasharray="5,2" d="M184.2463,-82.1211C189.124,-81.0966 192,-79.7229 192,-78 192,-75.3105 184.9921,-73.4721 174.3023,-72.4845"/>
<polygon fill="#9a32cd" stroke="#9a32cd" points="183.7194,-78.6606 174.3023,-83.5155 184.6915,-85.5928 183.7194,-78.6606"/>
<text text-anchor="middle" x="215" y="-81" font-family="Helvetica,sans-Serif" font-size="10.00" fill="#000000"> right</text>
<text text-anchor="middle" x="215" y="-70" font-family="Helvetica,sans-Serif" font-size="10.00" fill="#000000">left</text>
</g>
<!-- Node3 -->
<g id="node3" class="node">
<title>Node3</title>
<g id="a_node3"><a xlink:title=" ">
<polygon fill="none" stroke="#bfbfbf" points="72.5,-136.5 72.5,-155.5 101.5,-155.5 101.5,-136.5 72.5,-136.5"/>
<text text-anchor="middle" x="87" y="-143.5" font-family="Helvetica,sans-Serif" font-size="10.00" fill="#000000">T</text>
</a>
</g>
</g>
<!-- Node3&#45;&gt;Node2 -->
<g id="edge3" class="edge">
<title>Node3&#45;&gt;Node2</title>
<path fill="none" stroke="#9a32cd" stroke-dasharray="5,2" d="M87,-126.1951C87,-113.5514 87,-97.7157 87,-87.7247"/>
<polygon fill="#9a32cd" stroke="#9a32cd" points="83.5001,-126.2572 87,-136.2573 90.5001,-126.2573 83.5001,-126.2572"/>
<text text-anchor="middle" x="106" y="-110" font-family="Helvetica,sans-Serif" font-size="10.00" fill="#000000"> elem</text>
</g>
</g>
</svg>
