<?xml version="1.0" encoding="UTF-8" standalone="no"?>
<!DOCTYPE svg PUBLIC "-//W3C//DTD SVG 1.1//EN"
 "http://www.w3.org/Graphics/SVG/1.1/DTD/svg11.dtd">
<!-- Generated by graphviz version 2.40.1 (0)
 -->
<!-- Title: TreeTraversal&lt; T &gt;::Iterator Pages: 1 -->
<svg width="484pt" height="88pt"
 viewBox="0.00 0.00 484.00 88.00" xmlns="http://www.w3.org/2000/svg" xmlns:xlink="http://www.w3.org/1999/xlink">
<g id="graph0" class="graph" transform="scale(1 1) rotate(0) translate(4 84)">
<title>TreeTraversal&lt; T &gt;::Iterator</title>
<!-- Node2 -->
<g id="node1" class="node">
<title>Node2</title>
<g id="a_node1"><a xlink:title="A forward iterator class through an TreeTravesal, derived from the std iterator class.">
<polygon fill="#bfbfbf" stroke="#000000" points="324,-19 324,-49 476,-49 476,-19 324,-19"/>
<text text-anchor="start" x="332" y="-37" font-family="Helvetica,sans-Serif" font-size="10.00" fill="#000000">TreeTraversal&lt; T &gt;</text>
<text text-anchor="middle" x="400" y="-26" font-family="Helvetica,sans-Serif" font-size="10.00" fill="#000000">::Iterator</text>
</a>
</g>
</g>
<!-- Node3 -->
<g id="node2" class="node">
<title>Node3</title>
<g id="a_node2"><a doxygen="/data/doxygen/cppreference-doxygen-web.tag.xml:http://en.cppreference.com/w/" xlink:href="http://en.cppreference.com/w/cpp/iterator/iterator.html" xlink:title=" ">
<polygon fill="none" stroke="#000000" points="0,-38.5 0,-79.5 212,-79.5 212,-38.5 0,-38.5"/>
<text text-anchor="start" x="8" y="-67.5" font-family="Helvetica,sans-Serif" font-size="10.00" fill="#000000">std::iterator&lt; std</text>
<text text-anchor="start" x="8" y="-56.5" font-family="Helvetica,sans-Serif" font-size="10.00" fill="#000000">::forward_iterator_tag,</text>
<text text-anchor="middle" x="106" y="-45.5" font-family="Helvetica,sans-Serif" font-size="10.00" fill="#000000"> BinaryTree&lt; T &gt;::Node * &gt;</text>
</a>
</g>
</g>
<!-- Node3&#45;&gt;Node2 -->
<g id="edge1" class="edge">
<title>Node3&#45;&gt;Node2</title>
<path fill="none" stroke="#8b1a1a" d="M222.1987,-49.1192C256.4185,-46.2093 292.9697,-43.1012 323.9771,-40.4645"/>
<polygon fill="#8b1a1a" stroke="#8b1a1a" points="221.8082,-45.6396 212.1407,-49.9744 222.4014,-52.6145 221.8082,-45.6396"/>
</g>
<!-- Node4 -->
<g id="node3" class="node">
<title>Node4</title>
<g id="a_node3"><a xlink:href="classTreeTraversal.html" target="_top" xlink:title="Pure virtual class for traversal algorithms on trees.">
<polygon fill="none" stroke="#000000" points="30,-.5 30,-19.5 182,-19.5 182,-.5 30,-.5"/>
<text text-anchor="middle" x="106" y="-7.5" font-family="Helvetica,sans-Serif" font-size="10.00" fill="#000000">TreeTraversal&lt; T &gt;</text>
</a>
</g>
</g>
<!-- Node4&#45;&gt;Node2 -->
<g id="edge2" class="edge">
<title>Node4&#45;&gt;Node2</title>
<path fill="none" stroke="#9a32cd" stroke-dasharray="5,2" d="M192.2483,-17.0407C233.9902,-20.4482 283.6627,-24.5031 323.9692,-27.7934"/>
<polygon fill="#9a32cd" stroke="#9a32cd" points="192.3463,-13.5371 182.0946,-16.2118 191.7767,-20.5139 192.3463,-13.5371"/>
<text text-anchor="middle" x="268" y="-29" font-family="Helvetica,sans-Serif" font-size="10.00" fill="#000000"> traversal</text>
</g>
</g>
</svg>
