<?xml version="1.0" encoding="UTF-8" standalone="no"?>
<!DOCTYPE svg PUBLIC "-//W3C//DTD SVG 1.1//EN"
 "http://www.w3.org/Graphics/SVG/1.1/DTD/svg11.dtd">
<!-- Generated by graphviz version 2.40.1 (0)
 -->
<!-- Title: AbstractSyntaxTree Pages: 1 -->
<svg width="261pt" height="221pt"
 viewBox="0.00 0.00 261.00 221.00" xmlns="http://www.w3.org/2000/svg" xmlns:xlink="http://www.w3.org/1999/xlink">
<g id="graph0" class="graph" transform="scale(1 1) rotate(0) translate(4 217)">
<title>AbstractSyntaxTree</title>
<!-- Node2 -->
<g id="node1" class="node">
<title>Node2</title>
<g id="a_node1"><a xlink:title=" ">
<polygon fill="#bfbfbf" stroke="#000000" points="26,-.5 26,-19.5 178,-19.5 178,-.5 26,-.5"/>
<text text-anchor="middle" x="102" y="-7.5" font-family="Helvetica,sans-Serif" font-size="10.00" fill="#000000">AbstractSyntaxTree</text>
</a>
</g>
</g>
<!-- Node3 -->
<g id="node2" class="node">
<title>Node3</title>
<g id="a_node2"><a xlink:href="classBinaryTree.html" target="_top" xlink:title=" ">
<polygon fill="none" stroke="#000000" points="0,-57.5 0,-76.5 204,-76.5 204,-57.5 0,-57.5"/>
<text text-anchor="middle" x="102" y="-64.5" font-family="Helvetica,sans-Serif" font-size="10.00" fill="#000000">BinaryTree&lt; std::string &gt;</text>
</a>
</g>
</g>
<!-- Node3&#45;&gt;Node2 -->
<g id="edge1" class="edge">
<title>Node3&#45;&gt;Node2</title>
<path fill="none" stroke="#191970" d="M102,-47.2342C102,-37.8491 102,-27.0651 102,-19.5265"/>
<polygon fill="#191970" stroke="#191970" points="98.5001,-47.3307 102,-57.3307 105.5001,-47.3308 98.5001,-47.3307"/>
</g>
<!-- Node4 -->
<g id="node3" class="node">
<title>Node4</title>
<g id="a_node3"><a xlink:href="structBinaryTree_1_1Node.html" target="_top" xlink:title="Represents a tree node; that is, an element in a BinaryTree.">
<polygon fill="none" stroke="#000000" points="15,-125.5 15,-144.5 189,-144.5 189,-125.5 15,-125.5"/>
<text text-anchor="middle" x="102" y="-132.5" font-family="Helvetica,sans-Serif" font-size="10.00" fill="#000000">BinaryTree&lt; T &gt;::Node</text>
</a>
</g>
</g>
<!-- Node4&#45;&gt;Node3 -->
<g id="edge2" class="edge">
<title>Node4&#45;&gt;Node3</title>
<path fill="none" stroke="#9a32cd" stroke-dasharray="5,2" d="M102,-115.1951C102,-102.5514 102,-86.7157 102,-76.7247"/>
<polygon fill="#9a32cd" stroke="#9a32cd" points="98.5001,-115.2572 102,-125.2573 105.5001,-115.2573 98.5001,-115.2572"/>
<text text-anchor="middle" x="121" y="-98" font-family="Helvetica,sans-Serif" font-size="10.00" fill="#000000"> root</text>
</g>
<!-- Node4&#45;&gt;Node4 -->
<g id="edge3" class="edge">
<title>Node4&#45;&gt;Node4</title>
<path fill="none" stroke="#9a32cd" stroke-dasharray="5,2" d="M199.2463,-139.1211C204.124,-138.0966 207,-136.7229 207,-135 207,-132.3105 199.9921,-130.4721 189.3023,-129.4845"/>
<polygon fill="#9a32cd" stroke="#9a32cd" points="198.7194,-135.6606 189.3023,-140.5155 199.6915,-142.5928 198.7194,-135.6606"/>
<text text-anchor="middle" x="230" y="-138" font-family="Helvetica,sans-Serif" font-size="10.00" fill="#000000"> right</text>
<text text-anchor="middle" x="230" y="-127" font-family="Helvetica,sans-Serif" font-size="10.00" fill="#000000">left</text>
</g>
<!-- Node5 -->
<g id="node4" class="node">
<title>Node5</title>
<g id="a_node4"><a xlink:title=" ">
<polygon fill="none" stroke="#bfbfbf" points="87.5,-193.5 87.5,-212.5 116.5,-212.5 116.5,-193.5 87.5,-193.5"/>
<text text-anchor="middle" x="102" y="-200.5" font-family="Helvetica,sans-Serif" font-size="10.00" fill="#000000">T</text>
</a>
</g>
</g>
<!-- Node5&#45;&gt;Node4 -->
<g id="edge4" class="edge">
<title>Node5&#45;&gt;Node4</title>
<path fill="none" stroke="#9a32cd" stroke-dasharray="5,2" d="M102,-183.1951C102,-170.5514 102,-154.7157 102,-144.7247"/>
<polygon fill="#9a32cd" stroke="#9a32cd" points="98.5001,-183.2572 102,-193.2573 105.5001,-183.2573 98.5001,-183.2572"/>
<text text-anchor="middle" x="121" y="-167" font-family="Helvetica,sans-Serif" font-size="10.00" fill="#000000"> elem</text>
</g>
</g>
</svg>
