<?xml version="1.0" encoding="UTF-8" standalone="no"?>
<!DOCTYPE svg PUBLIC "-//W3C//DTD SVG 1.1//EN"
 "http://www.w3.org/Graphics/SVG/1.1/DTD/svg11.dtd">
<!-- Generated by graphviz version 2.40.1 (0)
 -->
<!-- Title: TreeTraversal&lt; T &gt; Pages: 1 -->
<svg width="382pt" height="84pt"
 viewBox="0.00 0.00 382.00 84.00" xmlns="http://www.w3.org/2000/svg" xmlns:xlink="http://www.w3.org/1999/xlink">
<g id="graph0" class="graph" transform="scale(1 1) rotate(0) translate(4 80)">
<title>TreeTraversal&lt; T &gt;</title>
<!-- Node0 -->
<g id="node1" class="node">
<title>Node0</title>
<g id="a_node1"><a xlink:title="Pure virtual class for traversal algorithms on trees.">
<polygon fill="#bfbfbf" stroke="#000000" points="109,-56.5 109,-75.5 261,-75.5 261,-56.5 109,-56.5"/>
<text text-anchor="middle" x="185" y="-63.5" font-family="Helvetica,sans-Serif" font-size="10.00" fill="#000000">TreeTraversal&lt; T &gt;</text>
</a>
</g>
</g>
<!-- Node1 -->
<g id="node2" class="node">
<title>Node1</title>
<g id="a_node2"><a xlink:href="classInorderTraversal.html" target="_top" xlink:title="A derived, templatized class for inorder traversal algorithms on trees.">
<polygon fill="none" stroke="#000000" points="0,-.5 0,-19.5 174,-19.5 174,-.5 0,-.5"/>
<text text-anchor="middle" x="87" y="-7.5" font-family="Helvetica,sans-Serif" font-size="10.00" fill="#000000">InorderTraversal&lt; T &gt;</text>
</a>
</g>
</g>
<!-- Node0&#45;&gt;Node1 -->
<g id="edge1" class="edge">
<title>Node0&#45;&gt;Node1</title>
<path fill="none" stroke="#191970" d="M158.8314,-51.0465C141.3942,-41.0824 118.9889,-28.2794 103.8747,-19.6427"/>
<polygon fill="#191970" stroke="#191970" points="157.5108,-54.323 167.9297,-56.2455 160.9838,-48.2453 157.5108,-54.323"/>
</g>
<!-- Node2 -->
<g id="node3" class="node">
<title>Node2</title>
<g id="a_node3"><a xlink:href="classPreorderTraversal.html" target="_top" xlink:title="A derived, templatized class for preorder traversal algorithms on trees.">
<polygon fill="none" stroke="#000000" points="192,-.5 192,-19.5 374,-19.5 374,-.5 192,-.5"/>
<text text-anchor="middle" x="283" y="-7.5" font-family="Helvetica,sans-Serif" font-size="10.00" fill="#000000">PreorderTraversal&lt; T &gt;</text>
</a>
</g>
</g>
<!-- Node0&#45;&gt;Node2 -->
<g id="edge2" class="edge">
<title>Node0&#45;&gt;Node2</title>
<path fill="none" stroke="#191970" d="M211.1686,-51.0465C228.6058,-41.0824 251.0111,-28.2794 266.1253,-19.6427"/>
<polygon fill="#191970" stroke="#191970" points="209.0162,-48.2453 202.0703,-56.2455 212.4892,-54.323 209.0162,-48.2453"/>
</g>
</g>
</svg>
