<?xml version="1.0" encoding="UTF-8" standalone="no"?>
<!DOCTYPE svg PUBLIC "-//W3C//DTD SVG 1.1//EN"
 "http://www.w3.org/Graphics/SVG/1.1/DTD/svg11.dtd">
<!-- Generated by graphviz version 2.40.1 (0)
 -->
<!-- Title: Graphical Class Hierarchy Pages: 1 -->
<svg width="378pt" height="66pt"
 viewBox="0.00 0.00 378.00 66.00" xmlns="http://www.w3.org/2000/svg" xmlns:xlink="http://www.w3.org/1999/xlink">
<g id="graph0" class="graph" transform="scale(1 1) rotate(0) translate(4 62)">
<title>Graphical Class Hierarchy</title>
<!-- Node0 -->
<g id="node1" class="node">
<title>Node0</title>
<g id="a_node1"><a xlink:href="classTreeTraversal.html" target="_top" xlink:title="Pure virtual class for traversal algorithms on trees.">
<polygon fill="none" stroke="#000000" points="0,-19.5 0,-38.5 152,-38.5 152,-19.5 0,-19.5"/>
<text text-anchor="middle" x="76" y="-26.5" font-family="Helvetica,sans-Serif" font-size="10.00" fill="#000000">TreeTraversal&lt; T &gt;</text>
</a>
</g>
</g>
<!-- Node1 -->
<g id="node2" class="node">
<title>Node1</title>
<g id="a_node2"><a xlink:href="classInorderTraversal.html" target="_top" xlink:title="A derived, templatized class for inorder traversal algorithms on trees.">
<polygon fill="none" stroke="#000000" points="192,-38.5 192,-57.5 366,-57.5 366,-38.5 192,-38.5"/>
<text text-anchor="middle" x="279" y="-45.5" font-family="Helvetica,sans-Serif" font-size="10.00" fill="#000000">InorderTraversal&lt; T &gt;</text>
</a>
</g>
</g>
<!-- Node0&#45;&gt;Node1 -->
<g id="edge1" class="edge">
<title>Node0&#45;&gt;Node1</title>
<path fill="none" stroke="#191970" d="M162.2752,-37.075C172.057,-37.9906 182.0317,-38.9241 191.8249,-39.8408"/>
<polygon fill="#191970" stroke="#191970" points="162.4499,-33.5762 152.1673,-36.129 161.7976,-40.5457 162.4499,-33.5762"/>
</g>
<!-- Node2 -->
<g id="node3" class="node">
<title>Node2</title>
<g id="a_node3"><a xlink:href="classPreorderTraversal.html" target="_top" xlink:title="A derived, templatized class for preorder traversal algorithms on trees.">
<polygon fill="none" stroke="#000000" points="188,-.5 188,-19.5 370,-19.5 370,-.5 188,-.5"/>
<text text-anchor="middle" x="279" y="-7.5" font-family="Helvetica,sans-Serif" font-size="10.00" fill="#000000">PreorderTraversal&lt; T &gt;</text>
</a>
</g>
</g>
<!-- Node0&#45;&gt;Node2 -->
<g id="edge2" class="edge">
<title>Node0&#45;&gt;Node2</title>
<path fill="none" stroke="#191970" d="M162.3182,-20.921C170.7108,-20.1354 179.2451,-19.3367 187.6845,-18.5468"/>
<polygon fill="#191970" stroke="#191970" points="161.7976,-17.4543 152.1673,-21.871 162.4499,-24.4238 161.7976,-17.4543"/>
</g>
</g>
</svg>
