<?xml version="1.0" encoding="UTF-8" standalone="no"?>
<!DOCTYPE svg PUBLIC "-//W3C//DTD SVG 1.1//EN"
 "http://www.w3.org/Graphics/SVG/1.1/DTD/svg11.dtd">
<!-- Generated by graphviz version 2.38.0 (20140413.2041)
 -->
<!-- Title: List&lt; T &gt; Pages: 1 -->
<svg width="149pt" height="108pt"
 viewBox="0.00 0.00 149.00 108.00" xmlns="http://www.w3.org/2000/svg" xmlns:xlink="http://www.w3.org/1999/xlink">
<g id="graph0" class="graph" transform="scale(1 1) rotate(0) translate(4 104)">
<title>List&lt; T &gt;</title>
<!-- Node1 -->
<g id="node1" class="node"><title>Node1</title>
<polygon fill="#bfbfbf" stroke="black" points="22.5,-0.5 22.5,-19.5 78.5,-19.5 78.5,-0.5 22.5,-0.5"/>
<text text-anchor="middle" x="50.5" y="-7.5" font-family="Helvetica,sans-Serif" font-size="10.00">List&lt; T &gt;</text>
</g>
<!-- Node2 -->
<g id="node2" class="node"><title>Node2</title>
<g id="a_node2"><a xlink:href="classList_1_1ListNode.html" target="_top" xlink:title="The ListNode class is private to the List class via the principle of encapsulation—the end user does...">
<polygon fill="none" stroke="black" points="0,-79.5 0,-98.5 101,-98.5 101,-79.5 0,-79.5"/>
<text text-anchor="middle" x="50.5" y="-86.5" font-family="Helvetica,sans-Serif" font-size="10.00">List&lt; T &gt;::ListNode</text>
</a>
</g>
</g>
<!-- Node2&#45;&gt;Node1 -->
<g id="edge1" class="edge"><title>Node2&#45;&gt;Node1</title>
<path fill="none" stroke="#9a32cd" stroke-dasharray="5,2" d="M50.5,-69.3145C50.5,-53.5917 50.5,-31.8079 50.5,-19.8094"/>
<polygon fill="#9a32cd" stroke="#9a32cd" points="47.0001,-69.4654 50.5,-79.4655 54.0001,-69.4655 47.0001,-69.4654"/>
<text text-anchor="middle" x="64" y="-52" font-family="Helvetica,sans-Serif" font-size="10.00"> tail_</text>
<text text-anchor="middle" x="64" y="-41" font-family="Helvetica,sans-Serif" font-size="10.00">head_</text>
</g>
<!-- Node2&#45;&gt;Node2 -->
<g id="edge2" class="edge"><title>Node2&#45;&gt;Node2</title>
<path fill="none" stroke="#9a32cd" stroke-dasharray="5,2" d="M111.426,-94.6469C116.112,-93.397 119,-91.5146 119,-89 119,-84.9766 111.607,-82.5719 101.284,-81.7861"/>
<polygon fill="#9a32cd" stroke="#9a32cd" points="110.632,-91.228 101.284,-96.2139 111.701,-98.1459 110.632,-91.228"/>
<text text-anchor="middle" x="130" y="-92" font-family="Helvetica,sans-Serif" font-size="10.00"> prev</text>
<text text-anchor="middle" x="130" y="-81" font-family="Helvetica,sans-Serif" font-size="10.00">next</text>
</g>
</g>
</svg>
