<?xml version="1.0" encoding="UTF-8" standalone="no"?>
<!DOCTYPE svg PUBLIC "-//W3C//DTD SVG 1.1//EN"
 "http://www.w3.org/Graphics/SVG/1.1/DTD/svg11.dtd">
<!-- Generated by graphviz version 2.40.1 (0)
 -->
<!-- Title: Graph&lt; V, E &gt; Pages: 1 -->
<!--zoomable 170 -->
<svg id="main" version="1.1" xmlns="http://www.w3.org/2000/svg" xmlns:xlink="http://www.w3.org/1999/xlink" xml:space="preserve" onload="init(evt)">
<style type="text/css"><![CDATA[
.edge:hover path { stroke: red; }
.edge:hover polygon { stroke: red; fill: red; }
]]></style>
<script type="text/javascript"><![CDATA[
var edges = document.getElementsByTagName('g');
if (edges && edges.length) {
  for (var i=0;i<edges.length;i++) {
    if (edges[i].id.substr(0,4)=='edge') {
      edges[i].setAttribute('class','edge');
    }
  }
}
]]></script>
        <defs>
                <circle id="rim" cx="0" cy="0" r="7"/>
                <circle id="rim2" cx="0" cy="0" r="3.5"/>
                <g id="zoomPlus">
                        <use xlink:href="#rim" fill="#404040">
                                <set attributeName="fill" to="#808080" begin="zoomplus.mouseover" end="zoomplus.mouseout"/>
                        </use>
                        <path d="M-4,0h8M0,-4v8" fill="none" stroke="white" stroke-width="1.5" pointer-events="none"/>
                </g>
                <g id="zoomMin">
                        <use xlink:href="#rim" fill="#404040">
                                <set attributeName="fill" to="#808080" begin="zoomminus.mouseover" end="zoomminus.mouseout"/>
                        </use>
                        <path d="M-4,0h8" fill="none" stroke="white" stroke-width="1.5" pointer-events="none"/>
                </g>
                <g id="dirArrow">
                        <path fill="none" stroke="white" stroke-width="1.5" d="M0,-3.0v7 M-2.5,-0.5L0,-3.0L2.5,-0.5"/>
                </g>
               <g id="resetDef">
                       <use xlink:href="#rim2" fill="#404040">
                               <set attributeName="fill" to="#808080" begin="reset.mouseover" end="reset.mouseout"/>
                       </use>
               </g>
        </defs>

<script type="text/javascript">
var viewWidth = 1047;
var viewHeight = 170;
var sectionId = 'dynsection-0';
</script>
<script xlink:href="svgpan.js"/>
<svg id="graph" class="graph">
<g id="viewport">
<title>Graph&lt; V, E &gt;</title>
<!-- Node1 -->
<g id="node1" class="node">
<title>Node1</title>
<g id="a_node1"><a xlink:title=" ">
<polygon fill="#bfbfbf" stroke="#000000" points="925,-81.5 925,-100.5 1039,-100.5 1039,-81.5 925,-81.5"/>
<text text-anchor="middle" x="982" y="-88.5" font-family="Helvetica,sans-Serif" font-size="10.00" fill="#000000">Graph&lt; V, E &gt;</text>
</a>
</g>
</g>
<!-- Node2 -->
<g id="node2" class="node">
<title>Node2</title>
<g id="a_node2"><a doxygen="/data/doxygen/cppreference-doxygen-web.tag.xml:http://en.cppreference.com/w/" xlink:href="http://en.cppreference.com/w/cpp/container/list.html" xlink:title=" ">
<polygon fill="none" stroke="#000000" points="609,-131 609,-161 813,-161 813,-131 609,-131"/>
<text text-anchor="start" x="617" y="-149" font-family="Helvetica,sans-Serif" font-size="10.00" fill="#000000">std::list&lt; std::reference</text>
<text text-anchor="middle" x="711" y="-138" font-family="Helvetica,sans-Serif" font-size="10.00" fill="#000000">_wrapper &gt;</text>
</a>
</g>
</g>
<!-- Node2&#45;&gt;Node1 -->
<g id="edge1" class="edge">
<title>Node2&#45;&gt;Node1</title>
<path fill="none" stroke="#9a32cd" stroke-dasharray="5,2" d="M795.0254,-128.9469C841.0636,-119.6033 896.4139,-108.3699 934.8922,-100.5606"/>
<polygon fill="#9a32cd" stroke="#9a32cd" points="794.156,-125.5519 785.0519,-130.971 795.5483,-132.412 794.156,-125.5519"/>
<text text-anchor="middle" x="869" y="-123" font-family="Helvetica,sans-Serif" font-size="10.00" fill="#000000"> edgeList</text>
</g>
<!-- Node3 -->
<g id="node3" class="node">
<title>Node3</title>
<g id="a_node3"><a doxygen="/data/doxygen/cppreference-doxygen-web.tag.xml:http://en.cppreference.com/w/" xlink:href="http://en.cppreference.com/w/cpp/utility/functional/reference_wrapper.html" xlink:title=" ">
<polygon fill="none" stroke="#000000" points="312,-109.5 312,-128.5 494,-128.5 494,-109.5 312,-109.5"/>
<text text-anchor="middle" x="403" y="-116.5" font-family="Helvetica,sans-Serif" font-size="10.00" fill="#000000">std::reference_wrapper</text>
</a>
</g>
</g>
<!-- Node3&#45;&gt;Node2 -->
<g id="edge2" class="edge">
<title>Node3&#45;&gt;Node2</title>
<path fill="none" stroke="#9a32cd" stroke-dasharray="5,2" d="M504.4253,-127.8912C537.9189,-130.8273 575.183,-134.094 608.7388,-137.0355"/>
<polygon fill="#9a32cd" stroke="#9a32cd" points="504.4275,-124.378 494.16,-126.9913 503.8161,-131.3513 504.4275,-124.378"/>
<text text-anchor="middle" x="557" y="-137" font-family="Helvetica,sans-Serif" font-size="10.00" fill="#000000"> elements</text>
</g>
<!-- Node9 -->
<g id="node9" class="node">
<title>Node9</title>
<g id="a_node9"><a doxygen="/data/doxygen/cppreference-doxygen-web.tag.xml:http://en.cppreference.com/w/" xlink:href="http://en.cppreference.com/w/cpp/container/unordered_map.html" xlink:title=" ">
<polygon fill="none" stroke="#000000" points="627.5,-70.5 627.5,-111.5 794.5,-111.5 794.5,-70.5 627.5,-70.5"/>
<text text-anchor="start" x="635.5" y="-99.5" font-family="Helvetica,sans-Serif" font-size="10.00" fill="#000000">std::unordered_map</text>
<text text-anchor="start" x="635.5" y="-88.5" font-family="Helvetica,sans-Serif" font-size="10.00" fill="#000000">&lt; std::string, std::</text>
<text text-anchor="middle" x="711" y="-77.5" font-family="Helvetica,sans-Serif" font-size="10.00" fill="#000000">reference_wrapper &gt;</text>
</a>
</g>
</g>
<!-- Node3&#45;&gt;Node9 -->
<g id="edge9" class="edge">
<title>Node3&#45;&gt;Node9</title>
<path fill="none" stroke="#9a32cd" stroke-dasharray="5,2" d="M504.1864,-109.8012C544.1104,-106.1718 589.4226,-102.0525 627.4366,-98.5967"/>
<polygon fill="#9a32cd" stroke="#9a32cd" points="503.802,-106.3217 494.16,-110.7127 504.4359,-113.2929 503.802,-106.3217"/>
<text text-anchor="middle" x="557" y="-110" font-family="Helvetica,sans-Serif" font-size="10.00" fill="#000000"> elements</text>
</g>
<!-- Node4 -->
<g id="node4" class="node">
<title>Node4</title>
<g id="a_node4"><a doxygen="/data/doxygen/cppreference-doxygen-web.tag.xml:http://en.cppreference.com/w/" xlink:href="http://en.cppreference.com/w/cpp/container/unordered_map.html" xlink:title=" ">
<polygon fill="none" stroke="#000000" points="620,-10.5 620,-51.5 802,-51.5 802,-10.5 620,-10.5"/>
<text text-anchor="start" x="628" y="-39.5" font-family="Helvetica,sans-Serif" font-size="10.00" fill="#000000">std::unordered_map</text>
<text text-anchor="start" x="628" y="-28.5" font-family="Helvetica,sans-Serif" font-size="10.00" fill="#000000">&lt; std::string, std::</text>
<text text-anchor="middle" x="711" y="-17.5" font-family="Helvetica,sans-Serif" font-size="10.00" fill="#000000">list&lt; edgeListIter &gt; &gt;</text>
</a>
</g>
</g>
<!-- Node4&#45;&gt;Node1 -->
<g id="edge3" class="edge">
<title>Node4&#45;&gt;Node1</title>
<path fill="none" stroke="#9a32cd" stroke-dasharray="5,2" d="M812.1991,-53.4057C855.9421,-63.0905 904.7903,-73.9056 938.8229,-81.4405"/>
<polygon fill="#9a32cd" stroke="#9a32cd" points="812.8906,-49.9741 802.3704,-51.2296 811.3774,-56.8086 812.8906,-49.9741"/>
<text text-anchor="middle" x="869" y="-76" font-family="Helvetica,sans-Serif" font-size="10.00" fill="#000000"> adjList</text>
</g>
<!-- Node5 -->
<g id="node5" class="node">
<title>Node5</title>
<g id="a_node5"><a doxygen="/data/doxygen/cppreference-doxygen-web.tag.xml:http://en.cppreference.com/w/" xlink:href="http://en.cppreference.com/w/cpp/container/list.html" xlink:title=" ">
<polygon fill="none" stroke="#000000" points="301,-.5 301,-19.5 505,-19.5 505,-.5 301,-.5"/>
<text text-anchor="middle" x="403" y="-7.5" font-family="Helvetica,sans-Serif" font-size="10.00" fill="#000000">std::list&lt; edgeListIter &gt;</text>
</a>
</g>
</g>
<!-- Node5&#45;&gt;Node4 -->
<g id="edge4" class="edge">
<title>Node5&#45;&gt;Node4</title>
<path fill="none" stroke="#9a32cd" stroke-dasharray="5,2" d="M515.3222,-7.6658C540.2714,-7.9636 566.5617,-8.912 591,-11 600.3646,-11.8001 610.0995,-12.9264 619.7929,-14.2413"/>
<polygon fill="#9a32cd" stroke="#9a32cd" points="515.1241,-4.1641 505.0946,-7.5784 515.0643,-11.1638 515.1241,-4.1641"/>
<text text-anchor="middle" x="557" y="-14" font-family="Helvetica,sans-Serif" font-size="10.00" fill="#000000"> elements</text>
</g>
<!-- Node6 -->
<g id="node6" class="node">
<title>Node6</title>
<g id="a_node6"><a xlink:title="STL iterator class.">
<polygon fill="none" stroke="#bfbfbf" points="0,-.5 0,-19.5 197,-19.5 197,-.5 0,-.5"/>
<text text-anchor="middle" x="98.5" y="-7.5" font-family="Helvetica,sans-Serif" font-size="10.00" fill="#000000">std::list&lt; T &gt;::iterator</text>
</a>
</g>
</g>
<!-- Node6&#45;&gt;Node5 -->
<g id="edge5" class="edge">
<title>Node6&#45;&gt;Node5</title>
<path fill="none" stroke="#9a32cd" stroke-dasharray="5,2" d="M207.5803,-10C238.0169,-10 270.9626,-10 300.9757,-10"/>
<polygon fill="#9a32cd" stroke="#9a32cd" points="207.3625,-6.5001 197.3624,-10 207.3624,-13.5001 207.3625,-6.5001"/>
<text text-anchor="middle" x="249" y="-13" font-family="Helvetica,sans-Serif" font-size="10.00" fill="#000000"> elements</text>
</g>
<!-- Node7 -->
<g id="node7" class="node">
<title>Node7</title>
<g id="a_node7"><a doxygen="/data/doxygen/cppreference-doxygen-web.tag.xml:http://en.cppreference.com/w/" xlink:href="http://en.cppreference.com/w/cpp/string/basic_string.html" xlink:title="STL class.">
<polygon fill="none" stroke="#000000" points="353.5,-61.5 353.5,-80.5 452.5,-80.5 452.5,-61.5 353.5,-61.5"/>
<text text-anchor="middle" x="403" y="-68.5" font-family="Helvetica,sans-Serif" font-size="10.00" fill="#000000">std::string</text>
</a>
</g>
</g>
<!-- Node7&#45;&gt;Node4 -->
<g id="edge6" class="edge">
<title>Node7&#45;&gt;Node4</title>
<path fill="none" stroke="#9a32cd" stroke-dasharray="5,2" d="M462.928,-63.2171C507.5358,-57.4239 569.2143,-49.4137 619.9094,-42.8299"/>
<polygon fill="#9a32cd" stroke="#9a32cd" points="462.2938,-59.77 452.8278,-64.5289 463.1953,-66.7117 462.2938,-59.77"/>
<text text-anchor="middle" x="557" y="-58" font-family="Helvetica,sans-Serif" font-size="10.00" fill="#000000"> keys</text>
</g>
<!-- Node7&#45;&gt;Node9 -->
<g id="edge10" class="edge">
<title>Node7&#45;&gt;Node9</title>
<path fill="none" stroke="#9a32cd" stroke-dasharray="5,2" d="M462.6358,-72.6671C499.6237,-73.917 548.1088,-75.9454 591,-79 602.7997,-79.8403 615.2361,-80.8943 627.4534,-82.0266"/>
<polygon fill="#9a32cd" stroke="#9a32cd" points="462.6319,-69.1652 452.5223,-72.335 462.402,-76.1614 462.6319,-69.1652"/>
<text text-anchor="middle" x="557" y="-82" font-family="Helvetica,sans-Serif" font-size="10.00" fill="#000000"> keys</text>
</g>
<!-- Node8 -->
<g id="node8" class="node">
<title>Node8</title>
<g id="a_node8"><a doxygen="/data/doxygen/cppreference-doxygen-web.tag.xml:http://en.cppreference.com/w/" xlink:href="http://en.cppreference.com/w/cpp/string/basic_string.html" xlink:title=" ">
<polygon fill="none" stroke="#000000" points="22.5,-56 22.5,-86 174.5,-86 174.5,-56 22.5,-56"/>
<text text-anchor="start" x="30.5" y="-74" font-family="Helvetica,sans-Serif" font-size="10.00" fill="#000000">std::basic_string&lt;</text>
<text text-anchor="middle" x="98.5" y="-63" font-family="Helvetica,sans-Serif" font-size="10.00" fill="#000000"> char &gt;</text>
</a>
</g>
</g>
<!-- Node8&#45;&gt;Node7 -->
<g id="edge7" class="edge">
<title>Node8&#45;&gt;Node7</title>
<path fill="none" stroke="#191970" d="M184.8885,-71C239.2921,-71 307.5943,-71 353.1295,-71"/>
<polygon fill="#191970" stroke="#191970" points="184.5528,-67.5001 174.5527,-71 184.5527,-74.5001 184.5528,-67.5001"/>
</g>
<!-- Node9&#45;&gt;Node1 -->
<g id="edge8" class="edge">
<title>Node9&#45;&gt;Node1</title>
<path fill="none" stroke="#9a32cd" stroke-dasharray="5,2" d="M804.5708,-91C844.6001,-91 890.0452,-91 924.921,-91"/>
<polygon fill="#9a32cd" stroke="#9a32cd" points="804.5202,-87.5001 794.5202,-91 804.5202,-94.5001 804.5202,-87.5001"/>
<text text-anchor="middle" x="869" y="-94" font-family="Helvetica,sans-Serif" font-size="10.00" fill="#000000"> vertexMap</text>
</g>
</g>
</svg>
        <g id="navigator" transform="translate(0 0)" fill="#404254">
                <rect fill="#f2f5e9" fill-opacity="0.5" stroke="#606060" stroke-width=".5" x="0" y="0" width="60" height="60"/>
                <use id="zoomplus" xlink:href="#zoomPlus" x="17" y="9" onmousedown="handleZoom(evt,'in')"/>
                <use id="zoomminus" xlink:href="#zoomMin" x="42" y="9" onmousedown="handleZoom(evt,'out')"/>
                <use id="reset" xlink:href="#resetDef" x="30" y="36" onmousedown="handleReset()"/>
                <g id="arrowUp" xlink:href="#dirArrow" transform="translate(30 24)" onmousedown="handlePan(0,-1)">
                  <use xlink:href="#rim" fill="#404040">
                        <set attributeName="fill" to="#808080" begin="arrowUp.mouseover" end="arrowUp.mouseout"/>
                  </use>
                  <path fill="none" stroke="white" stroke-width="1.5" d="M0,-3.0v7 M-2.5,-0.5L0,-3.0L2.5,-0.5"/>
                </g>
                <g id="arrowRight" xlink:href="#dirArrow" transform="rotate(90) translate(36 -43)" onmousedown="handlePan(1,0)">
                  <use xlink:href="#rim" fill="#404040">
                        <set attributeName="fill" to="#808080" begin="arrowRight.mouseover" end="arrowRight.mouseout"/>
                  </use>
                  <path fill="none" stroke="white" stroke-width="1.5" d="M0,-3.0v7 M-2.5,-0.5L0,-3.0L2.5,-0.5"/>
                </g>
                <g id="arrowDown" xlink:href="#dirArrow" transform="rotate(180) translate(-30 -48)" onmousedown="handlePan(0,1)">
                  <use xlink:href="#rim" fill="#404040">
                        <set attributeName="fill" to="#808080" begin="arrowDown.mouseover" end="arrowDown.mouseout"/>
                  </use>
                  <path fill="none" stroke="white" stroke-width="1.5" d="M0,-3.0v7 M-2.5,-0.5L0,-3.0L2.5,-0.5"/>
                </g>
                <g id="arrowLeft" xlink:href="#dirArrow" transform="rotate(270) translate(-36 17)" onmousedown="handlePan(-1,0)">
                  <use xlink:href="#rim" fill="#404040">
                        <set attributeName="fill" to="#808080" begin="arrowLeft.mouseover" end="arrowLeft.mouseout"/>
                  </use>
                  <path fill="none" stroke="white" stroke-width="1.5" d="M0,-3.0v7 M-2.5,-0.5L0,-3.0L2.5,-0.5"/>
                </g>
        </g>
        <svg viewBox="0 0 15 15" width="100%" height="30px" preserveAspectRatio="xMaxYMin meet">
         <g id="arrow_out" transform="scale(0.3 0.3)">
          <a xlink:href="classGraph__coll__graph_org.svg" target="_base">
           <rect id="button" ry="5" rx="5" y="6" x="6" height="38" width="38"
                fill="#f2f5e9" fill-opacity="0.5" stroke="#606060" stroke-width="1.0"/>
           <path id="arrow"
             d="M 11.500037,31.436501 C 11.940474,20.09759 22.043105,11.32322 32.158766,21.979434 L 37.068811,17.246167 C 37.068811,17.246167 37.088388,32 37.088388,32 L 22.160133,31.978069 C 22.160133,31.978069 26.997745,27.140456 26.997745,27.140456 C 18.528582,18.264221 13.291696,25.230495 11.500037,31.436501 z"
             style="fill:#404040;"/>
          </a>
         </g>
        </svg>
</svg>
