<?xml version="1.0" encoding="UTF-8" standalone="no"?>
<!DOCTYPE svg PUBLIC "-//W3C//DTD SVG 1.1//EN"
 "http://www.w3.org/Graphics/SVG/1.1/DTD/svg11.dtd">
<!-- Generated by graphviz version 2.40.1 (0)
 -->
<!-- Title: Edge Pages: 1 -->
<svg width="237pt" height="330pt"
 viewBox="0.00 0.00 237.00 330.00" xmlns="http://www.w3.org/2000/svg" xmlns:xlink="http://www.w3.org/1999/xlink">
<g id="graph0" class="graph" transform="scale(1 1) rotate(0) translate(4 326)">
<title>Edge</title>
<!-- Node2 -->
<g id="node1" class="node">
<title>Node2</title>
<g id="a_node1"><a xlink:title=" ">
<polygon fill="#bfbfbf" stroke="#000000" points="40.5,-.5 40.5,-19.5 87.5,-19.5 87.5,-.5 40.5,-.5"/>
<text text-anchor="middle" x="64" y="-7.5" font-family="Helvetica,sans-Serif" font-size="10.00" fill="#000000">Edge</text>
</a>
</g>
</g>
<!-- Node3 -->
<g id="node2" class="node">
<title>Node3</title>
<g id="a_node2"><a doxygen="/data/doxygen/cppreference-doxygen-web.tag.xml:http://en.cppreference.com/w/" xlink:href="http://en.cppreference.com/w/cpp/container/unordered_map.html" xlink:title=" ">
<polygon fill="none" stroke="#000000" points="0,-145.5 0,-175.5 152,-175.5 152,-145.5 0,-145.5"/>
<text text-anchor="start" x="8" y="-163.5" font-family="Helvetica,sans-Serif" font-size="10.00" fill="#000000">std::unordered_map</text>
<text text-anchor="middle" x="76" y="-152.5" font-family="Helvetica,sans-Serif" font-size="10.00" fill="#000000">&lt; string, string &gt;</text>
</a>
</g>
</g>
<!-- Node3&#45;&gt;Node2 -->
<g id="edge1" class="edge">
<title>Node3&#45;&gt;Node2</title>
<path fill="none" stroke="#9a32cd" stroke-dasharray="5,2" d="M66.633,-135.7416C62.8287,-124.4146 58.8894,-110.7111 57,-98 52.7863,-69.6518 58.4636,-35.7631 61.8302,-19.5544"/>
<polygon fill="#9a32cd" stroke="#9a32cd" points="63.4037,-137.109 70.0261,-145.3792 70.0065,-134.7843 63.4037,-137.109"/>
<text text-anchor="middle" x="102.5" y="-85.5" font-family="Helvetica,sans-Serif" font-size="10.00" fill="#000000"> properties_</text>
</g>
<!-- Node6 -->
<g id="node5" class="node">
<title>Node6</title>
<g id="a_node5"><a xlink:href="classVertex.html" target="_top" xlink:title=" ">
<polygon fill="none" stroke="#000000" points="157,-78.5 157,-97.5 219,-97.5 219,-78.5 157,-78.5"/>
<text text-anchor="middle" x="188" y="-85.5" font-family="Helvetica,sans-Serif" font-size="10.00" fill="#000000">Vertex</text>
</a>
</g>
</g>
<!-- Node3&#45;&gt;Node6 -->
<g id="edge5" class="edge">
<title>Node3&#45;&gt;Node6</title>
<path fill="none" stroke="#9a32cd" stroke-dasharray="5,2" d="M75.1391,-134.7528C76.1314,-127.9609 78.3978,-121.1105 83,-116 85.5566,-113.1611 126.9249,-102.7025 156.9601,-95.4048"/>
<polygon fill="#9a32cd" stroke="#9a32cd" points="71.6216,-134.9161 74.476,-145.1192 78.6073,-135.363 71.6216,-134.9161"/>
<text text-anchor="middle" x="128.5" y="-119" font-family="Helvetica,sans-Serif" font-size="10.00" fill="#000000"> properties_</text>
</g>
<!-- Node4 -->
<g id="node3" class="node">
<title>Node4</title>
<g id="a_node3"><a doxygen="/data/doxygen/cppreference-doxygen-web.tag.xml:http://en.cppreference.com/w/" xlink:href="http://en.cppreference.com/w/cpp/string/basic_string.html" xlink:title="STL class.">
<polygon fill="none" stroke="#000000" points="82.5,-234.5 82.5,-253.5 181.5,-253.5 181.5,-234.5 82.5,-234.5"/>
<text text-anchor="middle" x="132" y="-241.5" font-family="Helvetica,sans-Serif" font-size="10.00" fill="#000000">std::string</text>
</a>
</g>
</g>
<!-- Node4&#45;&gt;Node3 -->
<g id="edge2" class="edge">
<title>Node4&#45;&gt;Node3</title>
<path fill="none" stroke="#9a32cd" stroke-dasharray="5,2" d="M119.8087,-226.0809C117.5406,-222.7338 115.1947,-219.2629 113,-216 103.8225,-202.3552 93.4422,-186.7715 86.0171,-175.598"/>
<polygon fill="#9a32cd" stroke="#9a32cd" points="116.9602,-228.1164 125.4733,-234.4235 122.7514,-224.1842 116.9602,-228.1164"/>
<text text-anchor="middle" x="143.5" y="-208" font-family="Helvetica,sans-Serif" font-size="10.00" fill="#000000"> keys</text>
<text text-anchor="middle" x="143.5" y="-197" font-family="Helvetica,sans-Serif" font-size="10.00" fill="#000000">elements</text>
</g>
<!-- Node4&#45;&gt;Node6 -->
<g id="edge6" class="edge">
<title>Node4&#45;&gt;Node6</title>
<path fill="none" stroke="#9a32cd" stroke-dasharray="5,2" d="M162.3134,-228.6289C166.8795,-225.0698 171.0427,-220.8685 174,-216 197.4435,-177.4057 192.6069,-120.0227 189.5234,-97.5315"/>
<polygon fill="#9a32cd" stroke="#9a32cd" points="160.1674,-225.8545 153.8328,-234.347 164.0808,-231.6584 160.1674,-225.8545"/>
<text text-anchor="middle" x="210" y="-158" font-family="Helvetica,sans-Serif" font-size="10.00" fill="#000000"> key_</text>
</g>
<!-- Node5 -->
<g id="node4" class="node">
<title>Node5</title>
<g id="a_node4"><a doxygen="/data/doxygen/cppreference-doxygen-web.tag.xml:http://en.cppreference.com/w/" xlink:href="http://en.cppreference.com/w/cpp/string/basic_string.html" xlink:title=" ">
<polygon fill="none" stroke="#000000" points="56,-291.5 56,-321.5 208,-321.5 208,-291.5 56,-291.5"/>
<text text-anchor="start" x="64" y="-309.5" font-family="Helvetica,sans-Serif" font-size="10.00" fill="#000000">std::basic_string&lt;</text>
<text text-anchor="middle" x="132" y="-298.5" font-family="Helvetica,sans-Serif" font-size="10.00" fill="#000000"> char &gt;</text>
</a>
</g>
</g>
<!-- Node5&#45;&gt;Node4 -->
<g id="edge3" class="edge">
<title>Node5&#45;&gt;Node4</title>
<path fill="none" stroke="#191970" d="M132,-281.3498C132,-271.6481 132,-261.1303 132,-253.7356"/>
<polygon fill="#191970" stroke="#191970" points="128.5001,-281.3705 132,-291.3705 135.5001,-281.3705 128.5001,-281.3705"/>
</g>
<!-- Node6&#45;&gt;Node2 -->
<g id="edge4" class="edge">
<title>Node6&#45;&gt;Node2</title>
<path fill="none" stroke="#9a32cd" stroke-dasharray="5,2" d="M164.2543,-73.0632C139.2415,-57.3293 100.5931,-33.0183 79.3292,-19.6426"/>
<polygon fill="#9a32cd" stroke="#9a32cd" points="162.4669,-76.0737 172.7952,-78.4357 166.1941,-70.1485 162.4669,-76.0737"/>
<text text-anchor="middle" x="170.5" y="-52" font-family="Helvetica,sans-Serif" font-size="10.00" fill="#000000"> source_</text>
<text text-anchor="middle" x="170.5" y="-41" font-family="Helvetica,sans-Serif" font-size="10.00" fill="#000000">dest_</text>
</g>
</g>
</svg>
