<?xml version="1.0" encoding="UTF-8" standalone="no"?>
<!DOCTYPE svg PUBLIC "-//W3C//DTD SVG 1.1//EN"
 "http://www.w3.org/Graphics/SVG/1.1/DTD/svg11.dtd">
<!-- Generated by graphviz version 2.40.1 (0)
 -->
<!-- Title: Vertex Pages: 1 -->
<svg width="276pt" height="252pt"
 viewBox="0.00 0.00 276.00 252.00" xmlns="http://www.w3.org/2000/svg" xmlns:xlink="http://www.w3.org/1999/xlink">
<g id="graph0" class="graph" transform="scale(1 1) rotate(0) translate(4 248)">
<title>Vertex</title>
<!-- Node1 -->
<g id="node1" class="node">
<title>Node1</title>
<g id="a_node1"><a xlink:title=" ">
<polygon fill="#bfbfbf" stroke="#000000" points="45,-.5 45,-19.5 107,-19.5 107,-.5 45,-.5"/>
<text text-anchor="middle" x="76" y="-7.5" font-family="Helvetica,sans-Serif" font-size="10.00" fill="#000000">Vertex</text>
</a>
</g>
</g>
<!-- Node2 -->
<g id="node2" class="node">
<title>Node2</title>
<g id="a_node2"><a doxygen="/data/doxygen/cppreference-doxygen-web.tag.xml:http://en.cppreference.com/w/" xlink:href="http://en.cppreference.com/w/cpp/container/unordered_map.html" xlink:title=" ">
<polygon fill="none" stroke="#000000" points="116,-67.5 116,-97.5 268,-97.5 268,-67.5 116,-67.5"/>
<text text-anchor="start" x="124" y="-85.5" font-family="Helvetica,sans-Serif" font-size="10.00" fill="#000000">std::unordered_map</text>
<text text-anchor="middle" x="192" y="-74.5" font-family="Helvetica,sans-Serif" font-size="10.00" fill="#000000">&lt; string, string &gt;</text>
</a>
</g>
</g>
<!-- Node2&#45;&gt;Node1 -->
<g id="edge1" class="edge">
<title>Node2&#45;&gt;Node1</title>
<path fill="none" stroke="#9a32cd" stroke-dasharray="5,2" d="M159.4814,-62.1759C137.2491,-48.2807 108.7822,-30.4889 91.492,-19.6825"/>
<polygon fill="#9a32cd" stroke="#9a32cd" points="157.6297,-65.1459 167.9647,-67.478 161.3397,-59.2099 157.6297,-65.1459"/>
<text text-anchor="middle" x="182.5" y="-41" font-family="Helvetica,sans-Serif" font-size="10.00" fill="#000000"> properties_</text>
</g>
<!-- Node3 -->
<g id="node3" class="node">
<title>Node3</title>
<g id="a_node3"><a doxygen="/data/doxygen/cppreference-doxygen-web.tag.xml:http://en.cppreference.com/w/" xlink:href="http://en.cppreference.com/w/cpp/string/basic_string.html" xlink:title="STL class.">
<polygon fill="none" stroke="#000000" points="26.5,-156.5 26.5,-175.5 125.5,-175.5 125.5,-156.5 26.5,-156.5"/>
<text text-anchor="middle" x="76" y="-163.5" font-family="Helvetica,sans-Serif" font-size="10.00" fill="#000000">std::string</text>
</a>
</g>
</g>
<!-- Node3&#45;&gt;Node1 -->
<g id="edge4" class="edge">
<title>Node3&#45;&gt;Node1</title>
<path fill="none" stroke="#9a32cd" stroke-dasharray="5,2" d="M73.095,-146.438C70.4881,-126.4728 67.3124,-94.5878 69,-67 70.0227,-50.2814 72.7178,-30.9581 74.4498,-19.6489"/>
<polygon fill="#9a32cd" stroke="#9a32cd" points="69.6428,-147.0244 74.4867,-156.447 76.5761,-146.0603 69.6428,-147.0244"/>
<text text-anchor="middle" x="88" y="-80" font-family="Helvetica,sans-Serif" font-size="10.00" fill="#000000"> key_</text>
</g>
<!-- Node3&#45;&gt;Node2 -->
<g id="edge2" class="edge">
<title>Node3&#45;&gt;Node2</title>
<path fill="none" stroke="#9a32cd" stroke-dasharray="5,2" d="M97.585,-150.4625C118.5743,-135.3538 150.2483,-112.554 171.0269,-97.597"/>
<polygon fill="#9a32cd" stroke="#9a32cd" points="95.3779,-147.7387 89.3067,-156.4215 99.4675,-153.4199 95.3779,-147.7387"/>
<text text-anchor="middle" x="174.5" y="-130" font-family="Helvetica,sans-Serif" font-size="10.00" fill="#000000"> keys</text>
<text text-anchor="middle" x="174.5" y="-119" font-family="Helvetica,sans-Serif" font-size="10.00" fill="#000000">elements</text>
</g>
<!-- Node4 -->
<g id="node4" class="node">
<title>Node4</title>
<g id="a_node4"><a doxygen="/data/doxygen/cppreference-doxygen-web.tag.xml:http://en.cppreference.com/w/" xlink:href="http://en.cppreference.com/w/cpp/string/basic_string.html" xlink:title=" ">
<polygon fill="none" stroke="#000000" points="0,-213.5 0,-243.5 152,-243.5 152,-213.5 0,-213.5"/>
<text text-anchor="start" x="8" y="-231.5" font-family="Helvetica,sans-Serif" font-size="10.00" fill="#000000">std::basic_string&lt;</text>
<text text-anchor="middle" x="76" y="-220.5" font-family="Helvetica,sans-Serif" font-size="10.00" fill="#000000"> char &gt;</text>
</a>
</g>
</g>
<!-- Node4&#45;&gt;Node3 -->
<g id="edge3" class="edge">
<title>Node4&#45;&gt;Node3</title>
<path fill="none" stroke="#191970" d="M76,-203.3498C76,-193.6481 76,-183.1303 76,-175.7356"/>
<polygon fill="#191970" stroke="#191970" points="72.5001,-203.3705 76,-213.3705 79.5001,-203.3705 72.5001,-203.3705"/>
</g>
</g>
</svg>
