<?xml version="1.0" encoding="UTF-8" standalone="no"?>
<!DOCTYPE svg PUBLIC "-//W3C//DTD SVG 1.1//EN"
 "http://www.w3.org/Graphics/SVG/1.1/DTD/svg11.dtd">
<!-- Generated by graphviz version 2.40.1 (0)
 -->
<!-- Title: DirectedEdge Pages: 1 -->
<svg width="237pt" height="387pt"
 viewBox="0.00 0.00 237.00 387.00" xmlns="http://www.w3.org/2000/svg" xmlns:xlink="http://www.w3.org/1999/xlink">
<g id="graph0" class="graph" transform="scale(1 1) rotate(0) translate(4 383)">
<title>DirectedEdge</title>
<!-- Node2 -->
<g id="node1" class="node">
<title>Node2</title>
<g id="a_node1"><a xlink:title=" ">
<polygon fill="#bfbfbf" stroke="#000000" points="10.5,-.5 10.5,-19.5 117.5,-19.5 117.5,-.5 10.5,-.5"/>
<text text-anchor="middle" x="64" y="-7.5" font-family="Helvetica,sans-Serif" font-size="10.00" fill="#000000">DirectedEdge</text>
</a>
</g>
</g>
<!-- Node3 -->
<g id="node2" class="node">
<title>Node3</title>
<g id="a_node2"><a xlink:href="classEdge.html" target="_top" xlink:title=" ">
<polygon fill="none" stroke="#000000" points="40.5,-57.5 40.5,-76.5 87.5,-76.5 87.5,-57.5 40.5,-57.5"/>
<text text-anchor="middle" x="64" y="-64.5" font-family="Helvetica,sans-Serif" font-size="10.00" fill="#000000">Edge</text>
</a>
</g>
</g>
<!-- Node3&#45;&gt;Node2 -->
<g id="edge1" class="edge">
<title>Node3&#45;&gt;Node2</title>
<path fill="none" stroke="#191970" d="M64,-47.2342C64,-37.8491 64,-27.0651 64,-19.5265"/>
<polygon fill="#191970" stroke="#191970" points="60.5001,-47.3307 64,-57.3307 67.5001,-47.3308 60.5001,-47.3307"/>
</g>
<!-- Node4 -->
<g id="node3" class="node">
<title>Node4</title>
<g id="a_node3"><a doxygen="/data/doxygen/cppreference-doxygen-web.tag.xml:http://en.cppreference.com/w/" xlink:href="http://en.cppreference.com/w/cpp/container/unordered_map.html" xlink:title=" ">
<polygon fill="none" stroke="#000000" points="0,-202.5 0,-232.5 152,-232.5 152,-202.5 0,-202.5"/>
<text text-anchor="start" x="8" y="-220.5" font-family="Helvetica,sans-Serif" font-size="10.00" fill="#000000">std::unordered_map</text>
<text text-anchor="middle" x="76" y="-209.5" font-family="Helvetica,sans-Serif" font-size="10.00" fill="#000000">&lt; string, string &gt;</text>
</a>
</g>
</g>
<!-- Node4&#45;&gt;Node3 -->
<g id="edge2" class="edge">
<title>Node4&#45;&gt;Node3</title>
<path fill="none" stroke="#9a32cd" stroke-dasharray="5,2" d="M66.633,-192.7416C62.8287,-181.4146 58.8894,-167.7111 57,-155 52.7863,-126.6518 58.4636,-92.7631 61.8302,-76.5544"/>
<polygon fill="#9a32cd" stroke="#9a32cd" points="63.4037,-194.109 70.0261,-202.3792 70.0065,-191.7843 63.4037,-194.109"/>
<text text-anchor="middle" x="102.5" y="-142.5" font-family="Helvetica,sans-Serif" font-size="10.00" fill="#000000"> properties_</text>
</g>
<!-- Node7 -->
<g id="node6" class="node">
<title>Node7</title>
<g id="a_node6"><a xlink:href="classVertex.html" target="_top" xlink:title=" ">
<polygon fill="none" stroke="#000000" points="157,-135.5 157,-154.5 219,-154.5 219,-135.5 157,-135.5"/>
<text text-anchor="middle" x="188" y="-142.5" font-family="Helvetica,sans-Serif" font-size="10.00" fill="#000000">Vertex</text>
</a>
</g>
</g>
<!-- Node4&#45;&gt;Node7 -->
<g id="edge6" class="edge">
<title>Node4&#45;&gt;Node7</title>
<path fill="none" stroke="#9a32cd" stroke-dasharray="5,2" d="M75.1391,-191.7528C76.1314,-184.9609 78.3978,-178.1105 83,-173 85.5566,-170.1611 126.9249,-159.7025 156.9601,-152.4048"/>
<polygon fill="#9a32cd" stroke="#9a32cd" points="71.6216,-191.9161 74.476,-202.1192 78.6073,-192.363 71.6216,-191.9161"/>
<text text-anchor="middle" x="128.5" y="-176" font-family="Helvetica,sans-Serif" font-size="10.00" fill="#000000"> properties_</text>
</g>
<!-- Node5 -->
<g id="node4" class="node">
<title>Node5</title>
<g id="a_node4"><a doxygen="/data/doxygen/cppreference-doxygen-web.tag.xml:http://en.cppreference.com/w/" xlink:href="http://en.cppreference.com/w/cpp/string/basic_string.html" xlink:title="STL class.">
<polygon fill="none" stroke="#000000" points="82.5,-291.5 82.5,-310.5 181.5,-310.5 181.5,-291.5 82.5,-291.5"/>
<text text-anchor="middle" x="132" y="-298.5" font-family="Helvetica,sans-Serif" font-size="10.00" fill="#000000">std::string</text>
</a>
</g>
</g>
<!-- Node5&#45;&gt;Node4 -->
<g id="edge3" class="edge">
<title>Node5&#45;&gt;Node4</title>
<path fill="none" stroke="#9a32cd" stroke-dasharray="5,2" d="M119.8087,-283.0809C117.5406,-279.7338 115.1947,-276.2629 113,-273 103.8225,-259.3552 93.4422,-243.7715 86.0171,-232.598"/>
<polygon fill="#9a32cd" stroke="#9a32cd" points="116.9602,-285.1164 125.4733,-291.4235 122.7514,-281.1842 116.9602,-285.1164"/>
<text text-anchor="middle" x="143.5" y="-265" font-family="Helvetica,sans-Serif" font-size="10.00" fill="#000000"> keys</text>
<text text-anchor="middle" x="143.5" y="-254" font-family="Helvetica,sans-Serif" font-size="10.00" fill="#000000">elements</text>
</g>
<!-- Node5&#45;&gt;Node7 -->
<g id="edge7" class="edge">
<title>Node5&#45;&gt;Node7</title>
<path fill="none" stroke="#9a32cd" stroke-dasharray="5,2" d="M162.3134,-285.6289C166.8795,-282.0698 171.0427,-277.8685 174,-273 197.4435,-234.4057 192.6069,-177.0227 189.5234,-154.5315"/>
<polygon fill="#9a32cd" stroke="#9a32cd" points="160.1674,-282.8545 153.8328,-291.347 164.0808,-288.6584 160.1674,-282.8545"/>
<text text-anchor="middle" x="210" y="-215" font-family="Helvetica,sans-Serif" font-size="10.00" fill="#000000"> key_</text>
</g>
<!-- Node6 -->
<g id="node5" class="node">
<title>Node6</title>
<g id="a_node5"><a doxygen="/data/doxygen/cppreference-doxygen-web.tag.xml:http://en.cppreference.com/w/" xlink:href="http://en.cppreference.com/w/cpp/string/basic_string.html" xlink:title=" ">
<polygon fill="none" stroke="#000000" points="56,-348.5 56,-378.5 208,-378.5 208,-348.5 56,-348.5"/>
<text text-anchor="start" x="64" y="-366.5" font-family="Helvetica,sans-Serif" font-size="10.00" fill="#000000">std::basic_string&lt;</text>
<text text-anchor="middle" x="132" y="-355.5" font-family="Helvetica,sans-Serif" font-size="10.00" fill="#000000"> char &gt;</text>
</a>
</g>
</g>
<!-- Node6&#45;&gt;Node5 -->
<g id="edge4" class="edge">
<title>Node6&#45;&gt;Node5</title>
<path fill="none" stroke="#191970" d="M132,-338.3498C132,-328.6481 132,-318.1303 132,-310.7356"/>
<polygon fill="#191970" stroke="#191970" points="128.5001,-338.3705 132,-348.3705 135.5001,-338.3705 128.5001,-338.3705"/>
</g>
<!-- Node7&#45;&gt;Node3 -->
<g id="edge5" class="edge">
<title>Node7&#45;&gt;Node3</title>
<path fill="none" stroke="#9a32cd" stroke-dasharray="5,2" d="M164.2543,-130.0632C139.2415,-114.3293 100.5931,-90.0183 79.3292,-76.6426"/>
<polygon fill="#9a32cd" stroke="#9a32cd" points="162.4669,-133.0737 172.7952,-135.4357 166.1941,-127.1485 162.4669,-133.0737"/>
<text text-anchor="middle" x="170.5" y="-109" font-family="Helvetica,sans-Serif" font-size="10.00" fill="#000000"> source_</text>
<text text-anchor="middle" x="170.5" y="-98" font-family="Helvetica,sans-Serif" font-size="10.00" fill="#000000">dest_</text>
</g>
</g>
</svg>
