<?xml version="1.0" encoding="UTF-8" standalone="no"?>
<!DOCTYPE svg PUBLIC "-//W3C//DTD SVG 1.1//EN"
 "http://www.w3.org/Graphics/SVG/1.1/DTD/svg11.dtd">
<!-- Generated by graphviz version 2.40.1 (0)
 -->
<!-- Title: CYOA::GraphFile Pages: 1 -->
<svg width="307pt" height="263pt"
 viewBox="0.00 0.00 306.50 263.00" xmlns="http://www.w3.org/2000/svg" xmlns:xlink="http://www.w3.org/1999/xlink">
<g id="graph0" class="graph" transform="scale(1 1) rotate(0) translate(4 259)">
<title>CYOA::GraphFile</title>
<!-- Node1 -->
<g id="node1" class="node">
<title>Node1</title>
<g id="a_node1"><a xlink:title=" ">
<polygon fill="#bfbfbf" stroke="#000000" points="11.5,-.5 11.5,-19.5 140.5,-19.5 140.5,-.5 11.5,-.5"/>
<text text-anchor="middle" x="76" y="-7.5" font-family="Helvetica,sans-Serif" font-size="10.00" fill="#000000">CYOA::GraphFile</text>
</a>
</g>
</g>
<!-- Node2 -->
<g id="node2" class="node">
<title>Node2</title>
<g id="a_node2"><a doxygen="/data/doxygen/cppreference-doxygen-web.tag.xml:http://en.cppreference.com/w/" xlink:href="http://en.cppreference.com/w/cpp/container/unordered_map.html" xlink:title=" ">
<polygon fill="none" stroke="#000000" points="131.5,-67.5 131.5,-108.5 298.5,-108.5 298.5,-67.5 131.5,-67.5"/>
<text text-anchor="start" x="139.5" y="-96.5" font-family="Helvetica,sans-Serif" font-size="10.00" fill="#000000">std::unordered_map</text>
<text text-anchor="start" x="139.5" y="-85.5" font-family="Helvetica,sans-Serif" font-size="10.00" fill="#000000">&lt; std::string, std::</text>
<text text-anchor="middle" x="215" y="-74.5" font-family="Helvetica,sans-Serif" font-size="10.00" fill="#000000">string &gt;</text>
</a>
</g>
</g>
<!-- Node2&#45;&gt;Node1 -->
<g id="edge1" class="edge">
<title>Node2&#45;&gt;Node1</title>
<path fill="none" stroke="#9a32cd" stroke-dasharray="5,2" d="M169.1463,-62.2691C143.1168,-47.6627 112.0632,-30.2369 93.1999,-19.6517"/>
<polygon fill="#9a32cd" stroke="#9a32cd" points="167.6819,-65.4608 178.1155,-67.3022 171.1075,-59.3562 167.6819,-65.4608"/>
<text text-anchor="middle" x="168" y="-41" font-family="Helvetica,sans-Serif" font-size="10.00" fill="#000000"> edges</text>
</g>
<!-- Node3 -->
<g id="node3" class="node">
<title>Node3</title>
<g id="a_node3"><a doxygen="/data/doxygen/cppreference-doxygen-web.tag.xml:http://en.cppreference.com/w/" xlink:href="http://en.cppreference.com/w/cpp/string/basic_string.html" xlink:title="STL class.">
<polygon fill="none" stroke="#000000" points="26.5,-167.5 26.5,-186.5 125.5,-186.5 125.5,-167.5 26.5,-167.5"/>
<text text-anchor="middle" x="76" y="-174.5" font-family="Helvetica,sans-Serif" font-size="10.00" fill="#000000">std::string</text>
</a>
</g>
</g>
<!-- Node3&#45;&gt;Node1 -->
<g id="edge4" class="edge">
<title>Node3&#45;&gt;Node1</title>
<path fill="none" stroke="#9a32cd" stroke-dasharray="5,2" d="M73.7942,-157.243C72.3946,-143.6887 70.7168,-125.2799 70,-109 69.1789,-90.3514 69.0216,-85.641 70,-67 70.8762,-50.3061 73.1864,-30.9751 74.6711,-19.6577"/>
<polygon fill="#9a32cd" stroke="#9a32cd" points="70.3299,-157.7642 74.8772,-167.3335 77.2899,-157.017 70.3299,-157.7642"/>
<text text-anchor="middle" x="96.5" y="-91" font-family="Helvetica,sans-Serif" font-size="10.00" fill="#000000"> key</text>
<text text-anchor="middle" x="96.5" y="-80" font-family="Helvetica,sans-Serif" font-size="10.00" fill="#000000">content</text>
</g>
<!-- Node3&#45;&gt;Node2 -->
<g id="edge2" class="edge">
<title>Node3&#45;&gt;Node2</title>
<path fill="none" stroke="#9a32cd" stroke-dasharray="5,2" d="M99.308,-162.0762C122.2392,-147.3936 157.4303,-124.8612 182.9797,-108.5022"/>
<polygon fill="#9a32cd" stroke="#9a32cd" points="97.4098,-159.1356 90.8754,-167.4754 101.1844,-165.0307 97.4098,-159.1356"/>
<text text-anchor="middle" x="183.5" y="-141" font-family="Helvetica,sans-Serif" font-size="10.00" fill="#000000"> keys</text>
<text text-anchor="middle" x="183.5" y="-130" font-family="Helvetica,sans-Serif" font-size="10.00" fill="#000000">elements</text>
</g>
<!-- Node4 -->
<g id="node4" class="node">
<title>Node4</title>
<g id="a_node4"><a doxygen="/data/doxygen/cppreference-doxygen-web.tag.xml:http://en.cppreference.com/w/" xlink:href="http://en.cppreference.com/w/cpp/string/basic_string.html" xlink:title=" ">
<polygon fill="none" stroke="#000000" points="0,-224.5 0,-254.5 152,-254.5 152,-224.5 0,-224.5"/>
<text text-anchor="start" x="8" y="-242.5" font-family="Helvetica,sans-Serif" font-size="10.00" fill="#000000">std::basic_string&lt;</text>
<text text-anchor="middle" x="76" y="-231.5" font-family="Helvetica,sans-Serif" font-size="10.00" fill="#000000"> char &gt;</text>
</a>
</g>
</g>
<!-- Node4&#45;&gt;Node3 -->
<g id="edge3" class="edge">
<title>Node4&#45;&gt;Node3</title>
<path fill="none" stroke="#191970" d="M76,-214.3498C76,-204.6481 76,-194.1303 76,-186.7356"/>
<polygon fill="#191970" stroke="#191970" points="72.5001,-214.3705 76,-224.3705 79.5001,-214.3705 72.5001,-214.3705"/>
</g>
</g>
</svg>
