<?xml version="1.0" encoding="UTF-8" standalone="no"?>
<!DOCTYPE svg PUBLIC "-//W3C//DTD SVG 1.1//EN"
 "http://www.w3.org/Graphics/SVG/1.1/DTD/svg11.dtd">
<!-- Generated by graphviz version 2.40.1 (0)
 -->
<!-- Title: NimLearner Pages: 1 -->
<!--zoomable 195 -->
<svg id="main" version="1.1" xmlns="http://www.w3.org/2000/svg" xmlns:xlink="http://www.w3.org/1999/xlink" xml:space="preserve" onload="init(evt)">
<style type="text/css"><![CDATA[
.edge:hover path { stroke: red; }
.edge:hover polygon { stroke: red; fill: red; }
]]></style>
<script type="text/javascript"><![CDATA[
var edges = document.getElementsByTagName('g');
if (edges && edges.length) {
  for (var i=0;i<edges.length;i++) {
    if (edges[i].id.substr(0,4)=='edge') {
      edges[i].setAttribute('class','edge');
    }
  }
}
]]></script>
        <defs>
                <circle id="rim" cx="0" cy="0" r="7"/>
                <circle id="rim2" cx="0" cy="0" r="3.5"/>
                <g id="zoomPlus">
                        <use xlink:href="#rim" fill="#404040">
                                <set attributeName="fill" to="#808080" begin="zoomplus.mouseover" end="zoomplus.mouseout"/>
                        </use>
                        <path d="M-4,0h8M0,-4v8" fill="none" stroke="white" stroke-width="1.5" pointer-events="none"/>
                </g>
                <g id="zoomMin">
                        <use xlink:href="#rim" fill="#404040">
                                <set attributeName="fill" to="#808080" begin="zoomminus.mouseover" end="zoomminus.mouseout"/>
                        </use>
                        <path d="M-4,0h8" fill="none" stroke="white" stroke-width="1.5" pointer-events="none"/>
                </g>
                <g id="dirArrow">
                        <path fill="none" stroke="white" stroke-width="1.5" d="M0,-3.0v7 M-2.5,-0.5L0,-3.0L2.5,-0.5"/>
                </g>
               <g id="resetDef">
                       <use xlink:href="#rim2" fill="#404040">
                               <set attributeName="fill" to="#808080" begin="reset.mouseover" end="reset.mouseout"/>
                       </use>
               </g>
        </defs>

<script type="text/javascript">
var viewWidth = 951;
var viewHeight = 195;
var sectionId = 'dynsection-0';
</script>
<script xlink:href="svgpan.js"/>
<svg id="graph" class="graph">
<g id="viewport">
<title>NimLearner</title>
<!-- Node1 -->
<g id="node1" class="node">
<title>Node1</title>
<g id="a_node1"><a xlink:title="Represents a algorithm to learn the game of Nim.">
<polygon fill="#bfbfbf" stroke="#000000" points="851,-82.5 851,-101.5 943,-101.5 943,-82.5 851,-82.5"/>
<text text-anchor="middle" x="897" y="-89.5" font-family="Helvetica,sans-Serif" font-size="10.00" fill="#000000">NimLearner</text>
</a>
</g>
</g>
<!-- Node2 -->
<g id="node2" class="node">
<title>Node2</title>
<g id="a_node2"><a xlink:href="classGraph.html" target="_top" xlink:title="Represents a graph; used by the GraphTools class.">
<polygon fill="none" stroke="#000000" points="738,-82.5 738,-101.5 792,-101.5 792,-82.5 738,-82.5"/>
<text text-anchor="middle" x="765" y="-89.5" font-family="Helvetica,sans-Serif" font-size="10.00" fill="#000000">Graph</text>
</a>
</g>
</g>
<!-- Node2&#45;&gt;Node1 -->
<g id="edge1" class="edge">
<title>Node2&#45;&gt;Node1</title>
<path fill="none" stroke="#9a32cd" stroke-dasharray="5,2" d="M802.0423,-92C817.1622,-92 834.8112,-92 850.7633,-92"/>
<polygon fill="#9a32cd" stroke="#9a32cd" points="802.0307,-88.5001 792.0307,-92 802.0307,-95.5001 802.0307,-88.5001"/>
<text text-anchor="middle" x="821.5" y="-95" font-family="Helvetica,sans-Serif" font-size="10.00" fill="#000000"> g_</text>
</g>
<!-- Node3 -->
<g id="node3" class="node">
<title>Node3</title>
<g id="a_node3"><a xlink:href="classRandom.html" target="_top" xlink:title="Provides random functionality per a given seed.">
<polygon fill="none" stroke="#000000" points="448.5,-167.5 448.5,-186.5 510.5,-186.5 510.5,-167.5 448.5,-167.5"/>
<text text-anchor="middle" x="479.5" y="-174.5" font-family="Helvetica,sans-Serif" font-size="10.00" fill="#000000">Random</text>
</a>
</g>
</g>
<!-- Node3&#45;&gt;Node2 -->
<g id="edge2" class="edge">
<title>Node3&#45;&gt;Node2</title>
<path fill="none" stroke="#9a32cd" stroke-dasharray="5,2" d="M520.6848,-175.2332C570.2147,-171.7257 654.8192,-161.2552 720,-130 734.3834,-123.1029 747.9473,-110.5008 756.3493,-101.7078"/>
<polygon fill="#9a32cd" stroke="#9a32cd" points="520.4209,-171.7428 510.6676,-175.8809 520.8727,-178.7282 520.4209,-171.7428"/>
<text text-anchor="middle" x="663.5" y="-166" font-family="Helvetica,sans-Serif" font-size="10.00" fill="#000000"> random</text>
</g>
<!-- Node4 -->
<g id="node4" class="node">
<title>Node4</title>
<g id="a_node4"><a doxygen="/data/doxygen/cppreference-doxygen-web.tag.xml:http://en.cppreference.com/w/" xlink:href="http://en.cppreference.com/w/cpp/string/basic_string.html" xlink:title="STL class.">
<polygon fill="none" stroke="#000000" points="189,-56.5 189,-75.5 288,-75.5 288,-56.5 189,-56.5"/>
<text text-anchor="middle" x="238.5" y="-63.5" font-family="Helvetica,sans-Serif" font-size="10.00" fill="#000000">std::string</text>
</a>
</g>
</g>
<!-- Node4&#45;&gt;Node2 -->
<g id="edge3" class="edge">
<title>Node4&#45;&gt;Node2</title>
<path fill="none" stroke="#9a32cd" stroke-dasharray="5,2" d="M293.7178,-77.4388C317.1383,-81.8264 344.7967,-86.4001 370,-89 524.8254,-104.9713 565.1105,-116.3371 720,-101 725.7085,-100.4347 731.7655,-99.4755 737.5235,-98.3887"/>
<polygon fill="#9a32cd" stroke="#9a32cd" points="294.0995,-73.9485 283.6204,-75.5101 292.7862,-80.8242 294.0995,-73.9485"/>
<text text-anchor="middle" x="479.5" y="-133" font-family="Helvetica,sans-Serif" font-size="10.00" fill="#000000"> InvalidLabel</text>
<text text-anchor="middle" x="479.5" y="-122" font-family="Helvetica,sans-Serif" font-size="10.00" fill="#000000">picName</text>
<text text-anchor="middle" x="479.5" y="-111" font-family="Helvetica,sans-Serif" font-size="10.00" fill="#000000">InvalidVertex</text>
</g>
<!-- Node6 -->
<g id="node6" class="node">
<title>Node6</title>
<g id="a_node6"><a doxygen="/data/doxygen/cppreference-doxygen-web.tag.xml:http://en.cppreference.com/w/" xlink:href="http://en.cppreference.com/w/cpp/container/unordered_map.html" xlink:title=" ">
<polygon fill="none" stroke="#000000" points="370,-38.5 370,-79.5 589,-79.5 589,-38.5 370,-38.5"/>
<text text-anchor="start" x="378" y="-67.5" font-family="Helvetica,sans-Serif" font-size="10.00" fill="#000000">std::unordered_map</text>
<text text-anchor="start" x="378" y="-56.5" font-family="Helvetica,sans-Serif" font-size="10.00" fill="#000000">&lt; std::string, unordered</text>
<text text-anchor="middle" x="479.5" y="-45.5" font-family="Helvetica,sans-Serif" font-size="10.00" fill="#000000">_map&lt; std::string, Edge &gt; &gt;</text>
</a>
</g>
</g>
<!-- Node4&#45;&gt;Node6 -->
<g id="edge6" class="edge">
<title>Node4&#45;&gt;Node6</title>
<path fill="none" stroke="#9a32cd" stroke-dasharray="5,2" d="M298.1654,-64.267C319.8596,-63.6369 345.1199,-62.9032 369.7738,-62.1871"/>
<polygon fill="#9a32cd" stroke="#9a32cd" points="298.0373,-60.7691 288.1431,-64.5581 298.2406,-67.7662 298.0373,-60.7691"/>
<text text-anchor="middle" x="329" y="-67" font-family="Helvetica,sans-Serif" font-size="10.00" fill="#000000"> keys</text>
</g>
<!-- Node7 -->
<g id="node7" class="node">
<title>Node7</title>
<g id="a_node7"><a xlink:href="classEdge.html" target="_top" xlink:title="Represents an edge in a graph; used by the Graph class.">
<polygon fill="none" stroke="#000000" points="456,-.5 456,-19.5 503,-19.5 503,-.5 456,-.5"/>
<text text-anchor="middle" x="479.5" y="-7.5" font-family="Helvetica,sans-Serif" font-size="10.00" fill="#000000">Edge</text>
</a>
</g>
</g>
<!-- Node4&#45;&gt;Node7 -->
<g id="edge8" class="edge">
<title>Node4&#45;&gt;Node7</title>
<path fill="none" stroke="#9a32cd" stroke-dasharray="5,2" d="M259.5869,-50.1843C272.3409,-41.4937 289.3165,-31.4079 306,-26 357.5079,-9.304 421.8106,-8.1338 455.8328,-8.9403"/>
<polygon fill="#9a32cd" stroke="#9a32cd" points="257.2542,-47.5471 251.1107,-56.1789 261.2962,-53.2623 257.2542,-47.5471"/>
<text text-anchor="middle" x="329" y="-51" font-family="Helvetica,sans-Serif" font-size="10.00" fill="#000000"> dest</text>
<text text-anchor="middle" x="329" y="-40" font-family="Helvetica,sans-Serif" font-size="10.00" fill="#000000">source</text>
<text text-anchor="middle" x="329" y="-29" font-family="Helvetica,sans-Serif" font-size="10.00" fill="#000000">label</text>
</g>
<!-- Node5 -->
<g id="node5" class="node">
<title>Node5</title>
<g id="a_node5"><a doxygen="/data/doxygen/cppreference-doxygen-web.tag.xml:http://en.cppreference.com/w/" xlink:href="http://en.cppreference.com/w/cpp/string/basic_string.html" xlink:title=" ">
<polygon fill="none" stroke="#000000" points="0,-51 0,-81 152,-81 152,-51 0,-51"/>
<text text-anchor="start" x="8" y="-69" font-family="Helvetica,sans-Serif" font-size="10.00" fill="#000000">std::basic_string&lt;</text>
<text text-anchor="middle" x="76" y="-58" font-family="Helvetica,sans-Serif" font-size="10.00" fill="#000000"> char &gt;</text>
</a>
</g>
</g>
<!-- Node5&#45;&gt;Node4 -->
<g id="edge4" class="edge">
<title>Node5&#45;&gt;Node4</title>
<path fill="none" stroke="#191970" d="M162.0344,-66C171.2577,-66 180.3985,-66 188.9792,-66"/>
<polygon fill="#191970" stroke="#191970" points="162.0164,-62.5001 152.0164,-66 162.0164,-69.5001 162.0164,-62.5001"/>
</g>
<!-- Node6&#45;&gt;Node2 -->
<g id="edge5" class="edge">
<title>Node6&#45;&gt;Node2</title>
<path fill="none" stroke="#9a32cd" stroke-dasharray="5,2" d="M599.2488,-72.8414C650.4775,-78.7627 705.7651,-85.1532 737.7786,-88.8536"/>
<polygon fill="#9a32cd" stroke="#9a32cd" points="599.401,-69.3357 589.0652,-71.6643 598.5972,-76.2894 599.401,-69.3357"/>
<text text-anchor="middle" x="663.5" y="-89" font-family="Helvetica,sans-Serif" font-size="10.00" fill="#000000"> adjacency_list</text>
</g>
<!-- Node7&#45;&gt;Node2 -->
<g id="edge7" class="edge">
<title>Node7&#45;&gt;Node2</title>
<path fill="none" stroke="#9a32cd" stroke-dasharray="5,2" d="M513.2607,-12.0556C561.1932,-16.0237 650.8294,-27.3658 720,-59 732.8632,-64.8828 745.6908,-74.789 754.3397,-82.216"/>
<polygon fill="#9a32cd" stroke="#9a32cd" points="513.3667,-8.5535 503.1277,-11.2762 512.8299,-15.5329 513.3667,-8.5535"/>
<text text-anchor="middle" x="663.5" y="-62" font-family="Helvetica,sans-Serif" font-size="10.00" fill="#000000"> InvalidEdge</text>
</g>
</g>
</svg>
        <g id="navigator" transform="translate(0 0)" fill="#404254">
                <rect fill="#f2f5e9" fill-opacity="0.5" stroke="#606060" stroke-width=".5" x="0" y="0" width="60" height="60"/>
                <use id="zoomplus" xlink:href="#zoomPlus" x="17" y="9" onmousedown="handleZoom(evt,'in')"/>
                <use id="zoomminus" xlink:href="#zoomMin" x="42" y="9" onmousedown="handleZoom(evt,'out')"/>
                <use id="reset" xlink:href="#resetDef" x="30" y="36" onmousedown="handleReset()"/>
                <g id="arrowUp" xlink:href="#dirArrow" transform="translate(30 24)" onmousedown="handlePan(0,-1)">
                  <use xlink:href="#rim" fill="#404040">
                        <set attributeName="fill" to="#808080" begin="arrowUp.mouseover" end="arrowUp.mouseout"/>
                  </use>
                  <path fill="none" stroke="white" stroke-width="1.5" d="M0,-3.0v7 M-2.5,-0.5L0,-3.0L2.5,-0.5"/>
                </g>
                <g id="arrowRight" xlink:href="#dirArrow" transform="rotate(90) translate(36 -43)" onmousedown="handlePan(1,0)">
                  <use xlink:href="#rim" fill="#404040">
                        <set attributeName="fill" to="#808080" begin="arrowRight.mouseover" end="arrowRight.mouseout"/>
                  </use>
                  <path fill="none" stroke="white" stroke-width="1.5" d="M0,-3.0v7 M-2.5,-0.5L0,-3.0L2.5,-0.5"/>
                </g>
                <g id="arrowDown" xlink:href="#dirArrow" transform="rotate(180) translate(-30 -48)" onmousedown="handlePan(0,1)">
                  <use xlink:href="#rim" fill="#404040">
                        <set attributeName="fill" to="#808080" begin="arrowDown.mouseover" end="arrowDown.mouseout"/>
                  </use>
                  <path fill="none" stroke="white" stroke-width="1.5" d="M0,-3.0v7 M-2.5,-0.5L0,-3.0L2.5,-0.5"/>
                </g>
                <g id="arrowLeft" xlink:href="#dirArrow" transform="rotate(270) translate(-36 17)" onmousedown="handlePan(-1,0)">
                  <use xlink:href="#rim" fill="#404040">
                        <set attributeName="fill" to="#808080" begin="arrowLeft.mouseover" end="arrowLeft.mouseout"/>
                  </use>
                  <path fill="none" stroke="white" stroke-width="1.5" d="M0,-3.0v7 M-2.5,-0.5L0,-3.0L2.5,-0.5"/>
                </g>
        </g>
        <svg viewBox="0 0 15 15" width="100%" height="30px" preserveAspectRatio="xMaxYMin meet">
         <g id="arrow_out" transform="scale(0.3 0.3)">
          <a xlink:href="classNimLearner__coll__graph_org.svg" target="_base">
           <rect id="button" ry="5" rx="5" y="6" x="6" height="38" width="38"
                fill="#f2f5e9" fill-opacity="0.5" stroke="#606060" stroke-width="1.0"/>
           <path id="arrow"
             d="M 11.500037,31.436501 C 11.940474,20.09759 22.043105,11.32322 32.158766,21.979434 L 37.068811,17.246167 C 37.068811,17.246167 37.088388,32 37.088388,32 L 22.160133,31.978069 C 22.160133,31.978069 26.997745,27.140456 26.997745,27.140456 C 18.528582,18.264221 13.291696,25.230495 11.500037,31.436501 z"
             style="fill:#404040;"/>
          </a>
         </g>
        </svg>
</svg>
