<?xml version="1.0" encoding="UTF-8" standalone="no"?>
<!DOCTYPE svg PUBLIC "-//W3C//DTD SVG 1.1//EN"
 "http://www.w3.org/Graphics/SVG/1.1/DTD/svg11.dtd">
<!-- Generated by graphviz version 2.40.1 (0)
 -->
<!-- Title: MosaicCanvas Pages: 1 -->
<svg width="220pt" height="162pt"
 viewBox="0.00 0.00 220.00 162.00" xmlns="http://www.w3.org/2000/svg" xmlns:xlink="http://www.w3.org/1999/xlink">
<g id="graph0" class="graph" transform="scale(1 1) rotate(0) translate(4 158)">
<title>MosaicCanvas</title>
<!-- Node1 -->
<g id="node1" class="node">
<title>Node1</title>
<g id="a_node1"><a xlink:title="This is the actual mosaic data&#45;structure which will hold the matrix of sub&#45;images to be written.">
<polygon fill="#bfbfbf" stroke="#000000" points="52.5,-.5 52.5,-19.5 159.5,-19.5 159.5,-.5 52.5,-.5"/>
<text text-anchor="middle" x="106" y="-7.5" font-family="Helvetica,sans-Serif" font-size="10.00" fill="#000000">MosaicCanvas</text>
</a>
</g>
</g>
<!-- Node2 -->
<g id="node2" class="node">
<title>Node2</title>
<g id="a_node2"><a doxygen="/data/doxygen/cppreference-doxygen-web.tag.xml:http://en.cppreference.com/w/" xlink:href="http://en.cppreference.com/w/cpp/container/vector.html" xlink:title=" ">
<polygon fill="none" stroke="#000000" points="0,-67.5 0,-86.5 212,-86.5 212,-67.5 0,-67.5"/>
<text text-anchor="middle" x="106" y="-74.5" font-family="Helvetica,sans-Serif" font-size="10.00" fill="#000000">std::vector&lt; TileImage * &gt;</text>
</a>
</g>
</g>
<!-- Node2&#45;&gt;Node1 -->
<g id="edge1" class="edge">
<title>Node2&#45;&gt;Node1</title>
<path fill="none" stroke="#9a32cd" stroke-dasharray="5,2" d="M106,-57.1079C106,-44.714 106,-29.3263 106,-19.5817"/>
<polygon fill="#9a32cd" stroke="#9a32cd" points="102.5001,-57.4005 106,-67.4005 109.5001,-57.4006 102.5001,-57.4005"/>
<text text-anchor="middle" x="140" y="-41" font-family="Helvetica,sans-Serif" font-size="10.00" fill="#000000"> myImages</text>
</g>
<!-- Node3 -->
<g id="node3" class="node">
<title>Node3</title>
<g id="a_node3"><a xlink:href="classTileImage.html" target="_top" xlink:title="Represents a Tile in the Photomosaic.">
<polygon fill="none" stroke="#000000" points="64,-134.5 64,-153.5 148,-153.5 148,-134.5 64,-134.5"/>
<text text-anchor="middle" x="106" y="-141.5" font-family="Helvetica,sans-Serif" font-size="10.00" fill="#000000">TileImage</text>
</a>
</g>
</g>
<!-- Node3&#45;&gt;Node2 -->
<g id="edge2" class="edge">
<title>Node3&#45;&gt;Node2</title>
<path fill="none" stroke="#9a32cd" stroke-dasharray="5,2" d="M106,-124.1079C106,-111.714 106,-96.3263 106,-86.5817"/>
<polygon fill="#9a32cd" stroke="#9a32cd" points="102.5001,-124.4005 106,-134.4005 109.5001,-124.4006 102.5001,-124.4005"/>
<text text-anchor="middle" x="140" y="-108" font-family="Helvetica,sans-Serif" font-size="10.00" fill="#000000"> elements</text>
</g>
</g>
</svg>
