<?xml version="1.0" encoding="UTF-8" standalone="no"?>
<!DOCTYPE svg PUBLIC "-//W3C//DTD SVG 1.1//EN"
 "http://www.w3.org/Graphics/SVG/1.1/DTD/svg11.dtd">
<!-- Generated by graphviz version 2.40.1 (0)
 -->
<!-- Title: Point&lt; Dim &gt; Pages: 1 -->
<svg width="401pt" height="163pt"
 viewBox="0.00 0.00 401.00 163.00" xmlns="http://www.w3.org/2000/svg" xmlns:xlink="http://www.w3.org/1999/xlink">
<g id="graph0" class="graph" transform="scale(1 1) rotate(0) translate(4 159)">
<title>Point&lt; Dim &gt;</title>
<!-- Node1 -->
<g id="node1" class="node">
<title>Node1</title>
<g id="a_node1"><a xlink:title="Represents a point in Dim dimensional space.">
<polygon fill="#bfbfbf" stroke="#000000" points="93,-.5 93,-19.5 200,-19.5 200,-.5 93,-.5"/>
<text text-anchor="middle" x="146.5" y="-7.5" font-family="Helvetica,sans-Serif" font-size="10.00" fill="#000000">Point&lt; Dim &gt;</text>
</a>
</g>
</g>
<!-- Node2 -->
<g id="node2" class="node">
<title>Node2</title>
<g id="a_node2"><a xlink:href="classPoint_1_1MineAction__DoNothingImpl.html" target="_top" xlink:title=" ">
<polygon fill="none" stroke="#000000" points="196,-67.5 196,-97.5 393,-97.5 393,-67.5 196,-67.5"/>
<text text-anchor="start" x="204" y="-85.5" font-family="Helvetica,sans-Serif" font-size="10.00" fill="#000000">Point&lt; Dim &gt;::MineAction</text>
<text text-anchor="middle" x="294.5" y="-74.5" font-family="Helvetica,sans-Serif" font-size="10.00" fill="#000000">_DoNothingImpl</text>
</a>
</g>
</g>
<!-- Node2&#45;&gt;Node1 -->
<g id="edge1" class="edge">
<title>Node2&#45;&gt;Node1</title>
<path fill="none" stroke="#9a32cd" stroke-dasharray="5,2" d="M254.5093,-62.91C225.9355,-48.9127 188.7161,-30.6802 166.2657,-19.6825"/>
<polygon fill="#9a32cd" stroke="#9a32cd" points="253.3142,-66.2219 263.8343,-67.478 256.3936,-59.9356 253.3142,-66.2219"/>
<text text-anchor="middle" x="303.5" y="-41" font-family="Helvetica,sans-Serif" font-size="10.00" fill="#000000"> MineAction_DoNothing</text>
</g>
<!-- Node3 -->
<g id="node3" class="node">
<title>Node3</title>
<g id="a_node3"><a xlink:href="classPoint_1_1MineAction.html" target="_top" xlink:title=" ">
<polygon fill="none" stroke="#000000" points="0,-135.5 0,-154.5 197,-154.5 197,-135.5 0,-135.5"/>
<text text-anchor="middle" x="98.5" y="-142.5" font-family="Helvetica,sans-Serif" font-size="10.00" fill="#000000">Point&lt; Dim &gt;::MineAction</text>
</a>
</g>
</g>
<!-- Node3&#45;&gt;Node1 -->
<g id="edge3" class="edge">
<title>Node3&#45;&gt;Node1</title>
<path fill="none" stroke="#9a32cd" stroke-dasharray="5,2" d="M94.0452,-125.5743C91.2458,-109.3704 89.3653,-85.953 96.5,-67 103.9202,-47.2887 121.5964,-29.9509 133.8101,-19.7194"/>
<polygon fill="#9a32cd" stroke="#9a32cd" points="90.6364,-126.3775 96.0306,-135.4964 97.5004,-125.004 90.6364,-126.3775"/>
<text text-anchor="middle" x="142" y="-80" font-family="Helvetica,sans-Serif" font-size="10.00" fill="#000000"> mineAction_</text>
</g>
<!-- Node3&#45;&gt;Node2 -->
<g id="edge2" class="edge">
<title>Node3&#45;&gt;Node2</title>
<path fill="none" stroke="#191970" d="M138.442,-132.2634C169.9029,-122.2312 213.8476,-108.2182 247.091,-97.6177"/>
<polygon fill="#191970" stroke="#191970" points="137.1595,-128.9987 128.6955,-135.3713 139.2861,-135.6678 137.1595,-128.9987"/>
</g>
</g>
</svg>
