<?xml version="1.0" encoding="UTF-8" standalone="no"?>
<!DOCTYPE svg PUBLIC "-//W3C//DTD SVG 1.1//EN"
 "http://www.w3.org/Graphics/SVG/1.1/DTD/svg11.dtd">
<!-- Generated by graphviz version 2.40.1 (0)
 -->
<!-- Title: KDTree&lt; Dim &gt; Pages: 1 -->
<svg width="394pt" height="97pt"
 viewBox="0.00 0.00 393.50 97.00" xmlns="http://www.w3.org/2000/svg" xmlns:xlink="http://www.w3.org/1999/xlink">
<g id="graph0" class="graph" transform="scale(1 1) rotate(0) translate(4 93)">
<title>KDTree&lt; Dim &gt;</title>
<!-- Node1 -->
<g id="node1" class="node">
<title>Node1</title>
<g id="a_node1"><a xlink:title="KDTree class: implemented using Points in Dim dimensional space (given by the template parameter).">
<polygon fill="#bfbfbf" stroke="#000000" points="162,-.5 162,-19.5 276,-19.5 276,-.5 162,-.5"/>
<text text-anchor="middle" x="219" y="-7.5" font-family="Helvetica,sans-Serif" font-size="10.00" fill="#000000">KDTree&lt; Dim &gt;</text>
</a>
</g>
</g>
<!-- Node2 -->
<g id="node2" class="node">
<title>Node2</title>
<g id="a_node2"><a xlink:href="structKDTree_1_1KDTreeNode.html" target="_top" xlink:title="Internal structure for a node of KDTree.">
<polygon fill="none" stroke="#000000" points="0,-68.5 0,-87.5 204,-87.5 204,-68.5 0,-68.5"/>
<text text-anchor="middle" x="102" y="-75.5" font-family="Helvetica,sans-Serif" font-size="10.00" fill="#000000">KDTree&lt; Dim &gt;::KDTreeNode</text>
</a>
</g>
</g>
<!-- Node2&#45;&gt;Node1 -->
<g id="edge1" class="edge">
<title>Node2&#45;&gt;Node1</title>
<path fill="none" stroke="#9a32cd" stroke-dasharray="5,2" d="M127.3113,-63.2892C150.1272,-50.0286 183.0086,-30.9181 202.5689,-19.5497"/>
<polygon fill="#9a32cd" stroke="#9a32cd" points="125.4022,-60.3505 118.5151,-68.4015 128.9197,-66.4026 125.4022,-60.3505"/>
<text text-anchor="middle" x="187" y="-41" font-family="Helvetica,sans-Serif" font-size="10.00" fill="#000000"> root</text>
</g>
<!-- Node2&#45;&gt;Node2 -->
<g id="edge2" class="edge">
<title>Node2&#45;&gt;Node2</title>
<path fill="none" stroke="#9a32cd" stroke-dasharray="5,2" d="M214.3393,-81.8877C219.182,-80.8912 222,-79.5953 222,-78 222,-75.5098 215.1335,-73.7491 204.4181,-72.718"/>
<polygon fill="#9a32cd" stroke="#9a32cd" points="213.8337,-78.4243 204.4181,-83.282 214.8079,-85.3561 213.8337,-78.4243"/>
<text text-anchor="middle" x="245" y="-81" font-family="Helvetica,sans-Serif" font-size="10.00" fill="#000000"> right</text>
<text text-anchor="middle" x="245" y="-70" font-family="Helvetica,sans-Serif" font-size="10.00" fill="#000000">left</text>
</g>
<!-- Node3 -->
<g id="node3" class="node">
<title>Node3</title>
<g id="a_node3"><a doxygen="/data/doxygen/cppreference-doxygen-web.tag.xml:http://en.cppreference.com/w/" xlink:href="http://en.cppreference.com/w/cpp/types/size_t.html" xlink:title=" ">
<polygon fill="none" stroke="#000000" points="286.5,-68.5 286.5,-87.5 385.5,-87.5 385.5,-68.5 286.5,-68.5"/>
<text text-anchor="middle" x="336" y="-75.5" font-family="Helvetica,sans-Serif" font-size="10.00" fill="#000000">std::size_t</text>
</a>
</g>
</g>
<!-- Node3&#45;&gt;Node1 -->
<g id="edge3" class="edge">
<title>Node3&#45;&gt;Node1</title>
<path fill="none" stroke="#9a32cd" stroke-dasharray="5,2" d="M310.6887,-63.2892C287.8728,-50.0286 254.9914,-30.9181 235.4311,-19.5497"/>
<polygon fill="#9a32cd" stroke="#9a32cd" points="309.0803,-66.4026 319.4849,-68.4015 312.5978,-60.3505 309.0803,-66.4026"/>
<text text-anchor="middle" x="303" y="-41" font-family="Helvetica,sans-Serif" font-size="10.00" fill="#000000"> size</text>
</g>
</g>
</svg>
