<?xml version="1.0" encoding="UTF-8" standalone="no"?>
<!DOCTYPE svg PUBLIC "-//W3C//DTD SVG 1.1//EN"
 "http://www.w3.org/Graphics/SVG/1.1/DTD/svg11.dtd">
<!-- Generated by graphviz version 2.40.1 (0)
 -->
<!-- Title: kdtree.h Pages: 1 -->
<!--zoomable 196 -->
<svg id="main" version="1.1" xmlns="http://www.w3.org/2000/svg" xmlns:xlink="http://www.w3.org/1999/xlink" xml:space="preserve" onload="init(evt)">
<style type="text/css"><![CDATA[
.edge:hover path { stroke: red; }
.edge:hover polygon { stroke: red; fill: red; }
]]></style>
<script type="text/javascript"><![CDATA[
var edges = document.getElementsByTagName('g');
if (edges && edges.length) {
  for (var i=0;i<edges.length;i++) {
    if (edges[i].id.substr(0,4)=='edge') {
      edges[i].setAttribute('class','edge');
    }
  }
}
]]></script>
        <defs>
                <circle id="rim" cx="0" cy="0" r="7"/>
                <circle id="rim2" cx="0" cy="0" r="3.5"/>
                <g id="zoomPlus">
                        <use xlink:href="#rim" fill="#404040">
                                <set attributeName="fill" to="#808080" begin="zoomplus.mouseover" end="zoomplus.mouseout"/>
                        </use>
                        <path d="M-4,0h8M0,-4v8" fill="none" stroke="white" stroke-width="1.5" pointer-events="none"/>
                </g>
                <g id="zoomMin">
                        <use xlink:href="#rim" fill="#404040">
                                <set attributeName="fill" to="#808080" begin="zoomminus.mouseover" end="zoomminus.mouseout"/>
                        </use>
                        <path d="M-4,0h8" fill="none" stroke="white" stroke-width="1.5" pointer-events="none"/>
                </g>
                <g id="dirArrow">
                        <path fill="none" stroke="white" stroke-width="1.5" d="M0,-3.0v7 M-2.5,-0.5L0,-3.0L2.5,-0.5"/>
                </g>
               <g id="resetDef">
                       <use xlink:href="#rim2" fill="#404040">
                               <set attributeName="fill" to="#808080" begin="reset.mouseover" end="reset.mouseout"/>
                       </use>
               </g>
        </defs>

<script type="text/javascript">
var viewWidth = 1411;
var viewHeight = 196;
var sectionId = 'dynsection-0';
</script>
<script xlink:href="svgpan.js"/>
<svg id="graph" class="graph">
<g id="viewport">
<title>kdtree.h</title>
<!-- Node0 -->
<g id="node1" class="node">
<title>Node0</title>
<g id="a_node1"><a xlink:title="KDTree implementation using Points in k&#45;dimensional space.">
<polygon fill="#bfbfbf" stroke="#000000" points="788.5,-168.5 788.5,-187.5 865.5,-187.5 865.5,-168.5 788.5,-168.5"/>
<text text-anchor="middle" x="827" y="-175.5" font-family="Helvetica,sans-Serif" font-size="10.00" fill="#000000">kdtree.h</text>
</a>
</g>
</g>
<!-- Node1 -->
<g id="node2" class="node">
<title>Node1</title>
<g id="a_node2"><a xlink:title=" ">
<polygon fill="none" stroke="#bfbfbf" points="0,-56.5 0,-75.5 62,-75.5 62,-56.5 0,-56.5"/>
<text text-anchor="middle" x="31" y="-63.5" font-family="Helvetica,sans-Serif" font-size="10.00" fill="#000000">vector</text>
</a>
</g>
</g>
<!-- Node0&#45;&gt;Node1 -->
<g id="edge1" class="edge">
<title>Node0&#45;&gt;Node1</title>
<path fill="none" stroke="#191970" d="M788.2233,-176.1515C703.4308,-171.7398 495.3227,-158.8983 323,-132 232.5994,-117.8891 128.4469,-91.9749 72.2053,-77.1637"/>
<polygon fill="#191970" stroke="#191970" points="72.8384,-73.7107 62.2755,-74.5327 71.0455,-80.4773 72.8384,-73.7107"/>
</g>
<!-- Node2 -->
<g id="node3" class="node">
<title>Node2</title>
<g id="a_node3"><a xlink:title=" ">
<polygon fill="none" stroke="#bfbfbf" points="80,-56.5 80,-75.5 224,-75.5 224,-56.5 80,-56.5"/>
<text text-anchor="middle" x="152" y="-63.5" font-family="Helvetica,sans-Serif" font-size="10.00" fill="#000000">util/coloredout.h</text>
</a>
</g>
</g>
<!-- Node0&#45;&gt;Node2 -->
<g id="edge2" class="edge">
<title>Node0&#45;&gt;Node2</title>
<path fill="none" stroke="#191970" d="M788.3135,-175.4533C714.8943,-170.2312 550.486,-156.6739 414,-132 335.2413,-117.762 245.081,-93.1844 193.7043,-78.3748"/>
<polygon fill="#191970" stroke="#191970" points="194.5401,-74.973 183.9609,-75.5491 192.5902,-81.696 194.5401,-74.973"/>
</g>
<!-- Node3 -->
<g id="node4" class="node">
<title>Node3</title>
<g id="a_node4"><a xlink:title=" ">
<polygon fill="none" stroke="#bfbfbf" points="1041,-112.5 1041,-131.5 1133,-131.5 1133,-112.5 1041,-112.5"/>
<text text-anchor="middle" x="1087" y="-119.5" font-family="Helvetica,sans-Serif" font-size="10.00" fill="#000000">sys/wait.h</text>
</a>
</g>
</g>
<!-- Node0&#45;&gt;Node3 -->
<g id="edge3" class="edge">
<title>Node0&#45;&gt;Node3</title>
<path fill="none" stroke="#191970" d="M865.6439,-169.6767C909.8465,-160.1561 982.5427,-144.4985 1032.4895,-133.7407"/>
<polygon fill="#191970" stroke="#191970" points="1033.433,-137.1179 1042.4718,-131.5907 1031.959,-130.2748 1033.433,-137.1179"/>
</g>
<!-- Node4 -->
<g id="node5" class="node">
<title>Node4</title>
<g id="a_node5"><a xlink:title=" ">
<polygon fill="none" stroke="#bfbfbf" points="1151.5,-112.5 1151.5,-131.5 1220.5,-131.5 1220.5,-112.5 1151.5,-112.5"/>
<text text-anchor="middle" x="1186" y="-119.5" font-family="Helvetica,sans-Serif" font-size="10.00" fill="#000000">errno.h</text>
</a>
</g>
</g>
<!-- Node0&#45;&gt;Node4 -->
<g id="edge4" class="edge">
<title>Node0&#45;&gt;Node4</title>
<path fill="none" stroke="#191970" d="M865.9574,-173.3105C923.815,-166.1276 1036.0546,-151.3572 1141.6023,-131.949"/>
<polygon fill="#191970" stroke="#191970" points="1142.2729,-135.3844 1151.466,-130.1178 1140.9951,-128.502 1142.2729,-135.3844"/>
</g>
<!-- Node5 -->
<g id="node6" class="node">
<title>Node5</title>
<g id="a_node6"><a xlink:title=" ">
<polygon fill="none" stroke="#bfbfbf" points="242.5,-56.5 242.5,-75.5 319.5,-75.5 319.5,-56.5 242.5,-56.5"/>
<text text-anchor="middle" x="281" y="-63.5" font-family="Helvetica,sans-Serif" font-size="10.00" fill="#000000">unistd.h</text>
</a>
</g>
</g>
<!-- Node0&#45;&gt;Node5 -->
<g id="edge5" class="edge">
<title>Node0&#45;&gt;Node5</title>
<path fill="none" stroke="#191970" d="M788.2488,-175.026C724.5706,-169.6376 594.0747,-156.4833 486,-132 424.818,-118.1398 355.7765,-94.0976 315.4579,-79.1734"/>
<polygon fill="#191970" stroke="#191970" points="316.4411,-75.8046 305.8485,-75.5873 313.9937,-82.3628 316.4411,-75.8046"/>
</g>
<!-- Node6 -->
<g id="node7" class="node">
<title>Node6</title>
<g id="a_node7"><a xlink:title=" ">
<polygon fill="none" stroke="#bfbfbf" points="1238.5,-112.5 1238.5,-131.5 1315.5,-131.5 1315.5,-112.5 1238.5,-112.5"/>
<text text-anchor="middle" x="1277" y="-119.5" font-family="Helvetica,sans-Serif" font-size="10.00" fill="#000000">stdint.h</text>
</a>
</g>
</g>
<!-- Node0&#45;&gt;Node6 -->
<g id="edge6" class="edge">
<title>Node0&#45;&gt;Node6</title>
<path fill="none" stroke="#191970" d="M865.5097,-174.8444C935.7385,-168.8216 1089.4769,-154.4008 1228.3547,-132.1512"/>
<polygon fill="#191970" stroke="#191970" points="1229.0153,-135.5899 1238.3268,-130.5357 1227.8958,-128.68 1229.0153,-135.5899"/>
</g>
<!-- Node7 -->
<g id="node8" class="node">
<title>Node7</title>
<g id="a_node8"><a xlink:title=" ">
<polygon fill="none" stroke="#bfbfbf" points="338,-56.5 338,-75.5 400,-75.5 400,-56.5 338,-56.5"/>
<text text-anchor="middle" x="369" y="-63.5" font-family="Helvetica,sans-Serif" font-size="10.00" fill="#000000">string</text>
</a>
</g>
</g>
<!-- Node0&#45;&gt;Node7 -->
<g id="edge7" class="edge">
<title>Node0&#45;&gt;Node7</title>
<path fill="none" stroke="#191970" d="M788.4421,-173.8835C734.4894,-167.6086 633.6849,-154.0033 550,-132 496.3338,-117.8895 436.2092,-94.3494 400.5356,-79.5275"/>
<polygon fill="#191970" stroke="#191970" points="401.7236,-76.2305 391.1479,-75.5932 399.0179,-82.6865 401.7236,-76.2305"/>
</g>
<!-- Node8 -->
<g id="node9" class="node">
<title>Node8</title>
<g id="a_node9"><a xlink:title=" ">
<polygon fill="none" stroke="#bfbfbf" points="809.5,-56.5 809.5,-75.5 878.5,-75.5 878.5,-56.5 809.5,-56.5"/>
<text text-anchor="middle" x="844" y="-63.5" font-family="Helvetica,sans-Serif" font-size="10.00" fill="#000000">sstream</text>
</a>
</g>
</g>
<!-- Node0&#45;&gt;Node8 -->
<g id="edge8" class="edge">
<title>Node0&#45;&gt;Node8</title>
<path fill="none" stroke="#191970" d="M828.4494,-168.4509C831.2221,-150.184 837.3282,-109.9553 841.0102,-85.6976"/>
<polygon fill="#191970" stroke="#191970" points="844.5139,-85.9369 842.5543,-75.5249 837.5931,-84.8864 844.5139,-85.9369"/>
</g>
<!-- Node9 -->
<g id="node10" class="node">
<title>Node9</title>
<g id="a_node10"><a xlink:title=" ">
<polygon fill="none" stroke="#bfbfbf" points="818.5,-.5 818.5,-19.5 895.5,-19.5 895.5,-.5 818.5,-.5"/>
<text text-anchor="middle" x="857" y="-7.5" font-family="Helvetica,sans-Serif" font-size="10.00" fill="#000000">iostream</text>
</a>
</g>
</g>
<!-- Node0&#45;&gt;Node9 -->
<g id="edge9" class="edge">
<title>Node0&#45;&gt;Node9</title>
<path fill="none" stroke="#191970" d="M835.0817,-168.3959C848.9562,-151.2069 876.7978,-113.4656 887,-76 889.3355,-67.4234 889.5329,-64.5204 887,-56 883.9674,-45.7984 877.8756,-35.7475 871.9691,-27.6555"/>
<polygon fill="#191970" stroke="#191970" points="874.6964,-25.4613 865.7861,-19.7291 869.177,-29.7667 874.6964,-25.4613"/>
</g>
<!-- Node10 -->
<g id="node11" class="node">
<title>Node10</title>
<g id="a_node11"><a xlink:title=" ">
<polygon fill="none" stroke="#bfbfbf" points="1333.5,-112.5 1333.5,-131.5 1402.5,-131.5 1402.5,-112.5 1333.5,-112.5"/>
<text text-anchor="middle" x="1368" y="-119.5" font-family="Helvetica,sans-Serif" font-size="10.00" fill="#000000">fstream</text>
</a>
</g>
</g>
<!-- Node0&#45;&gt;Node10 -->
<g id="edge10" class="edge">
<title>Node0&#45;&gt;Node10</title>
<path fill="none" stroke="#191970" d="M865.6521,-176.228C948.1158,-172.0619 1147.4932,-159.9367 1323.3963,-132.0832"/>
<polygon fill="#191970" stroke="#191970" points="1324.0276,-135.5268 1333.3467,-130.4866 1322.9185,-128.6152 1324.0276,-135.5268"/>
</g>
<!-- Node11 -->
<g id="node12" class="node">
<title>Node11</title>
<g id="a_node12"><a xlink:href="point_8h.html" target="_top" xlink:title="Definition of a Point class for k dimensional points.">
<polygon fill="none" stroke="#000000" points="683.5,-56.5 683.5,-75.5 752.5,-75.5 752.5,-56.5 683.5,-56.5"/>
<text text-anchor="middle" x="718" y="-63.5" font-family="Helvetica,sans-Serif" font-size="10.00" fill="#000000">point.h</text>
</a>
</g>
</g>
<!-- Node0&#45;&gt;Node11 -->
<g id="edge11" class="edge">
<title>Node0&#45;&gt;Node11</title>
<path fill="none" stroke="#191970" d="M817.7067,-168.4509C799.2051,-149.4401 757.5537,-106.6423 734.3656,-82.816"/>
<polygon fill="#191970" stroke="#191970" points="736.7525,-80.2502 727.2698,-75.5249 731.736,-85.1324 736.7525,-80.2502"/>
</g>
<!-- Node15 -->
<g id="node16" class="node">
<title>Node15</title>
<g id="a_node16"><a xlink:href="kdtree_8hpp.html" target="_top" xlink:title=" ">
<polygon fill="none" stroke="#000000" points="931,-112.5 931,-131.5 1023,-131.5 1023,-112.5 931,-112.5"/>
<text text-anchor="middle" x="977" y="-119.5" font-family="Helvetica,sans-Serif" font-size="10.00" fill="#000000">kdtree.hpp</text>
</a>
</g>
</g>
<!-- Node0&#45;&gt;Node15 -->
<g id="edge16" class="edge">
<title>Node0&#45;&gt;Node15</title>
<path fill="none" stroke="#191970" d="M852.7859,-168.3733C877.4047,-159.1822 914.69,-145.2624 941.9875,-135.0713"/>
<polygon fill="#191970" stroke="#191970" points="943.4063,-138.2777 951.5506,-131.5011 940.958,-131.7198 943.4063,-138.2777"/>
</g>
<!-- Node17 -->
<g id="node18" class="node">
<title>Node17</title>
<g id="a_node18"><a xlink:title=" ">
<polygon fill="none" stroke="#bfbfbf" points="935,-56.5 935,-75.5 1019,-75.5 1019,-56.5 935,-56.5"/>
<text text-anchor="middle" x="977" y="-63.5" font-family="Helvetica,sans-Serif" font-size="10.00" fill="#000000">algorithm</text>
</a>
</g>
</g>
<!-- Node0&#45;&gt;Node17 -->
<g id="edge32" class="edge">
<title>Node0&#45;&gt;Node17</title>
<path fill="none" stroke="#191970" d="M839.7889,-168.4509C865.6927,-149.1094 924.5716,-105.1465 956.12,-81.5904"/>
<polygon fill="#191970" stroke="#191970" points="958.3247,-84.3123 964.2435,-75.5249 954.1366,-78.7033 958.3247,-84.3123"/>
</g>
<!-- Node18 -->
<g id="node19" class="node">
<title>Node18</title>
<g id="a_node19"><a xlink:href="kdtree__extras_8hpp.html" target="_top" xlink:title=" ">
<polygon fill="none" stroke="#000000" points="559,-112.5 559,-131.5 703,-131.5 703,-112.5 559,-112.5"/>
<text text-anchor="middle" x="631" y="-119.5" font-family="Helvetica,sans-Serif" font-size="10.00" fill="#000000">kdtree_extras.hpp</text>
</a>
</g>
</g>
<!-- Node0&#45;&gt;Node18 -->
<g id="edge19" class="edge">
<title>Node0&#45;&gt;Node18</title>
<path fill="none" stroke="#191970" d="M788.0644,-168.3733C753.3529,-158.9807 703.0359,-144.6496 668.7054,-134.4064"/>
<polygon fill="#191970" stroke="#191970" points="669.6209,-131.0269 659.0366,-131.5011 667.6065,-137.7308 669.6209,-131.0269"/>
</g>
<!-- Node11&#45;&gt;Node9 -->
<g id="edge13" class="edge">
<title>Node11&#45;&gt;Node9</title>
<path fill="none" stroke="#191970" d="M741.895,-56.3733C764.5082,-47.2629 798.6542,-33.5062 823.8873,-23.3404"/>
<polygon fill="#191970" stroke="#191970" points="825.4493,-26.4845 833.4169,-19.5011 822.8334,-19.9917 825.4493,-26.4845"/>
</g>
<!-- Node12 -->
<g id="node13" class="node">
<title>Node12</title>
<g id="a_node13"><a xlink:title=" ">
<polygon fill="none" stroke="#bfbfbf" points="628.5,-.5 628.5,-19.5 697.5,-19.5 697.5,-.5 628.5,-.5"/>
<text text-anchor="middle" x="663" y="-7.5" font-family="Helvetica,sans-Serif" font-size="10.00" fill="#000000">cstdarg</text>
</a>
</g>
</g>
<!-- Node11&#45;&gt;Node12 -->
<g id="edge12" class="edge">
<title>Node11&#45;&gt;Node12</title>
<path fill="none" stroke="#191970" d="M708.4197,-56.2455C700.4542,-48.1352 688.9359,-36.4075 679.4921,-26.7919"/>
<polygon fill="#191970" stroke="#191970" points="681.9747,-24.3247 672.4705,-19.6427 676.9805,-29.2297 681.9747,-24.3247"/>
</g>
<!-- Node13 -->
<g id="node14" class="node">
<title>Node13</title>
<g id="a_node14"><a xlink:title=" ">
<polygon fill="none" stroke="#bfbfbf" points="526,-.5 526,-19.5 610,-19.5 610,-.5 526,-.5"/>
<text text-anchor="middle" x="568" y="-7.5" font-family="Helvetica,sans-Serif" font-size="10.00" fill="#000000">stdexcept</text>
</a>
</g>
</g>
<!-- Node11&#45;&gt;Node13 -->
<g id="edge14" class="edge">
<title>Node11&#45;&gt;Node13</title>
<path fill="none" stroke="#191970" d="M692.2141,-56.3733C667.5953,-47.1822 630.31,-33.2624 603.0125,-23.0713"/>
<polygon fill="#191970" stroke="#191970" points="604.042,-19.7198 593.4494,-19.5011 601.5937,-26.2777 604.042,-19.7198"/>
</g>
<!-- Node14 -->
<g id="node15" class="node">
<title>Node14</title>
<g id="a_node15"><a xlink:href="point_8cpp.html" target="_top" xlink:title="Implementation of Point class.">
<polygon fill="none" stroke="#000000" points="716,-.5 716,-19.5 800,-19.5 800,-.5 716,-.5"/>
<text text-anchor="middle" x="758" y="-7.5" font-family="Helvetica,sans-Serif" font-size="10.00" fill="#000000">point.cpp</text>
</a>
</g>
</g>
<!-- Node11&#45;&gt;Node14 -->
<g id="edge15" class="edge">
<title>Node11&#45;&gt;Node14</title>
<path fill="none" stroke="#191970" d="M724.9675,-56.2455C730.5311,-48.4564 738.478,-37.3308 745.1829,-27.9439"/>
<polygon fill="#191970" stroke="#191970" points="748.148,-29.8144 751.1124,-19.6427 742.4519,-25.7457 748.148,-29.8144"/>
</g>
<!-- Node16 -->
<g id="node17" class="node">
<title>Node16</title>
<g id="a_node17"><a xlink:title=" ">
<polygon fill="none" stroke="#bfbfbf" points="1037.5,-56.5 1037.5,-75.5 1106.5,-75.5 1106.5,-56.5 1037.5,-56.5"/>
<text text-anchor="middle" x="1072" y="-63.5" font-family="Helvetica,sans-Serif" font-size="10.00" fill="#000000">utility</text>
</a>
</g>
</g>
<!-- Node15&#45;&gt;Node16 -->
<g id="edge17" class="edge">
<title>Node15&#45;&gt;Node16</title>
<path fill="none" stroke="#191970" d="M993.5477,-112.2455C1008.2599,-103.5731 1029.9888,-90.7645 1046.8505,-80.825"/>
<polygon fill="#191970" stroke="#191970" points="1048.8046,-83.736 1055.6419,-75.6427 1045.2498,-77.7057 1048.8046,-83.736"/>
</g>
<!-- Node15&#45;&gt;Node17 -->
<g id="edge18" class="edge">
<title>Node15&#45;&gt;Node17</title>
<path fill="none" stroke="#191970" d="M977,-112.2455C977,-104.9382 977,-94.6944 977,-85.7046"/>
<polygon fill="#191970" stroke="#191970" points="980.5001,-85.6426 977,-75.6427 973.5001,-85.6427 980.5001,-85.6426"/>
</g>
<!-- Node18&#45;&gt;Node0 -->
<g id="edge31" class="edge">
<title>Node18&#45;&gt;Node0</title>
<path fill="none" stroke="#191970" d="M669.4712,-131.5011C704.0426,-140.8494 754.3607,-155.1765 788.8334,-165.4561"/>
<polygon fill="#191970" stroke="#191970" points="787.9643,-168.8494 798.5484,-168.3733 789.9775,-162.1452 787.9643,-168.8494"/>
</g>
<!-- Node18&#45;&gt;Node1 -->
<g id="edge23" class="edge">
<title>Node18&#45;&gt;Node1</title>
<path fill="none" stroke="#191970" d="M558.9381,-119.8341C453.8035,-115.8437 252.1817,-105.0544 72.2506,-75.9725"/>
<polygon fill="#191970" stroke="#191970" points="72.7762,-72.5121 62.3418,-74.3487 71.6441,-79.4199 72.7762,-72.5121"/>
</g>
<!-- Node18&#45;&gt;Node2 -->
<g id="edge29" class="edge">
<title>Node18&#45;&gt;Node2</title>
<path fill="none" stroke="#191970" d="M558.7178,-113.8166C481.1346,-104.9942 353.9745,-90.423 234.4786,-76.1702"/>
<polygon fill="#191970" stroke="#191970" points="234.7646,-72.6795 224.4201,-74.969 233.9345,-79.6302 234.7646,-72.6795"/>
</g>
<!-- Node18&#45;&gt;Node5 -->
<g id="edge20" class="edge">
<title>Node18&#45;&gt;Node5</title>
<path fill="none" stroke="#191970" d="M561.2517,-112.4709C502.203,-104.1524 415.0921,-91.2934 329.6116,-76.0333"/>
<polygon fill="#191970" stroke="#191970" points="330.199,-72.5828 319.7375,-74.2584 328.9605,-79.4724 330.199,-72.5828"/>
</g>
<!-- Node18&#45;&gt;Node7 -->
<g id="edge24" class="edge">
<title>Node18&#45;&gt;Node7</title>
<path fill="none" stroke="#191970" d="M581.9364,-112.4291C539.07,-103.9328 474.9255,-90.8969 410.3581,-76.2497"/>
<polygon fill="#191970" stroke="#191970" points="410.9419,-72.793 400.4139,-73.9816 409.3852,-79.6178 410.9419,-72.793"/>
</g>
<!-- Node18&#45;&gt;Node8 -->
<g id="edge21" class="edge">
<title>Node18&#45;&gt;Node8</title>
<path fill="none" stroke="#191970" d="M667.616,-112.3733C704.1623,-102.7648 760.3659,-87.9883 799.4726,-77.7067"/>
<polygon fill="#191970" stroke="#191970" points="800.4909,-81.058 809.2722,-75.1303 798.7109,-74.2881 800.4909,-81.058"/>
</g>
<!-- Node18&#45;&gt;Node9 -->
<g id="edge22" class="edge">
<title>Node18&#45;&gt;Node9</title>
<path fill="none" stroke="#191970" d="M665.6814,-112.443C692.4708,-104.423 730.0688,-91.7584 761,-76 789.0037,-61.733 818.3817,-40.4688 837.1478,-25.9585"/>
<polygon fill="#191970" stroke="#191970" points="839.5105,-28.5535 845.2178,-19.6272 835.1897,-23.0461 839.5105,-28.5535"/>
</g>
<!-- Node18&#45;&gt;Node11 -->
<g id="edge30" class="edge">
<title>Node18&#45;&gt;Node11</title>
<path fill="none" stroke="#191970" d="M646.1542,-112.2455C659.5027,-103.6534 679.1586,-91.0014 694.5383,-81.1018"/>
<polygon fill="#191970" stroke="#191970" points="696.5051,-83.9982 703.0194,-75.6427 692.7164,-78.1121 696.5051,-83.9982"/>
</g>
<!-- Node18&#45;&gt;Node13 -->
<g id="edge27" class="edge">
<title>Node18&#45;&gt;Node13</title>
<path fill="none" stroke="#191970" d="M618.8654,-112.2631C608.948,-103.6942 595.2617,-90.3714 587,-76 578.736,-61.6247 573.8437,-43.3918 571.0986,-29.7342"/>
<polygon fill="#191970" stroke="#191970" points="574.4781,-28.7498 569.2707,-19.523 567.5876,-29.9833 574.4781,-28.7498"/>
</g>
<!-- Node18&#45;&gt;Node17 -->
<g id="edge25" class="edge">
<title>Node18&#45;&gt;Node17</title>
<path fill="none" stroke="#191970" d="M690.0864,-112.4369C755.9976,-101.7692 861.6208,-84.6741 924.6618,-74.4709"/>
<polygon fill="#191970" stroke="#191970" points="925.4678,-77.8861 934.7801,-72.8333 924.3494,-70.976 925.4678,-77.8861"/>
</g>
<!-- Node19 -->
<g id="node20" class="node">
<title>Node19</title>
<g id="a_node20"><a xlink:title=" ">
<polygon fill="none" stroke="#bfbfbf" points="596.5,-56.5 596.5,-75.5 665.5,-75.5 665.5,-56.5 596.5,-56.5"/>
<text text-anchor="middle" x="631" y="-63.5" font-family="Helvetica,sans-Serif" font-size="10.00" fill="#000000">iomanip</text>
</a>
</g>
</g>
<!-- Node18&#45;&gt;Node19 -->
<g id="edge26" class="edge">
<title>Node18&#45;&gt;Node19</title>
<path fill="none" stroke="#191970" d="M631,-112.2455C631,-104.9382 631,-94.6944 631,-85.7046"/>
<polygon fill="#191970" stroke="#191970" points="634.5001,-85.6426 631,-75.6427 627.5001,-85.6427 634.5001,-85.6426"/>
</g>
<!-- Node20 -->
<g id="node21" class="node">
<title>Node20</title>
<g id="a_node21"><a xlink:title=" ">
<polygon fill="none" stroke="#bfbfbf" points="418,-56.5 418,-75.5 540,-75.5 540,-56.5 418,-56.5"/>
<text text-anchor="middle" x="479" y="-63.5" font-family="Helvetica,sans-Serif" font-size="10.00" fill="#000000">util/no_sort.h</text>
</a>
</g>
</g>
<!-- Node18&#45;&gt;Node20 -->
<g id="edge28" class="edge">
<title>Node18&#45;&gt;Node20</title>
<path fill="none" stroke="#191970" d="M604.8703,-112.3733C579.9232,-103.1822 542.1408,-89.2624 514.4794,-79.0713"/>
<polygon fill="#191970" stroke="#191970" points="515.3822,-75.674 504.7888,-75.5011 512.9622,-82.2424 515.3822,-75.674"/>
</g>
</g>
</svg>
        <g id="navigator" transform="translate(0 0)" fill="#404254">
                <rect fill="#f2f5e9" fill-opacity="0.5" stroke="#606060" stroke-width=".5" x="0" y="0" width="60" height="60"/>
                <use id="zoomplus" xlink:href="#zoomPlus" x="17" y="9" onmousedown="handleZoom(evt,'in')"/>
                <use id="zoomminus" xlink:href="#zoomMin" x="42" y="9" onmousedown="handleZoom(evt,'out')"/>
                <use id="reset" xlink:href="#resetDef" x="30" y="36" onmousedown="handleReset()"/>
                <g id="arrowUp" xlink:href="#dirArrow" transform="translate(30 24)" onmousedown="handlePan(0,-1)">
                  <use xlink:href="#rim" fill="#404040">
                        <set attributeName="fill" to="#808080" begin="arrowUp.mouseover" end="arrowUp.mouseout"/>
                  </use>
                  <path fill="none" stroke="white" stroke-width="1.5" d="M0,-3.0v7 M-2.5,-0.5L0,-3.0L2.5,-0.5"/>
                </g>
                <g id="arrowRight" xlink:href="#dirArrow" transform="rotate(90) translate(36 -43)" onmousedown="handlePan(1,0)">
                  <use xlink:href="#rim" fill="#404040">
                        <set attributeName="fill" to="#808080" begin="arrowRight.mouseover" end="arrowRight.mouseout"/>
                  </use>
                  <path fill="none" stroke="white" stroke-width="1.5" d="M0,-3.0v7 M-2.5,-0.5L0,-3.0L2.5,-0.5"/>
                </g>
                <g id="arrowDown" xlink:href="#dirArrow" transform="rotate(180) translate(-30 -48)" onmousedown="handlePan(0,1)">
                  <use xlink:href="#rim" fill="#404040">
                        <set attributeName="fill" to="#808080" begin="arrowDown.mouseover" end="arrowDown.mouseout"/>
                  </use>
                  <path fill="none" stroke="white" stroke-width="1.5" d="M0,-3.0v7 M-2.5,-0.5L0,-3.0L2.5,-0.5"/>
                </g>
                <g id="arrowLeft" xlink:href="#dirArrow" transform="rotate(270) translate(-36 17)" onmousedown="handlePan(-1,0)">
                  <use xlink:href="#rim" fill="#404040">
                        <set attributeName="fill" to="#808080" begin="arrowLeft.mouseover" end="arrowLeft.mouseout"/>
                  </use>
                  <path fill="none" stroke="white" stroke-width="1.5" d="M0,-3.0v7 M-2.5,-0.5L0,-3.0L2.5,-0.5"/>
                </g>
        </g>
        <svg viewBox="0 0 15 15" width="100%" height="30px" preserveAspectRatio="xMaxYMin meet">
         <g id="arrow_out" transform="scale(0.3 0.3)">
          <a xlink:href="kdtree_8h__incl_org.svg" target="_base">
           <rect id="button" ry="5" rx="5" y="6" x="6" height="38" width="38"
                fill="#f2f5e9" fill-opacity="0.5" stroke="#606060" stroke-width="1.0"/>
           <path id="arrow"
             d="M 11.500037,31.436501 C 11.940474,20.09759 22.043105,11.32322 32.158766,21.979434 L 37.068811,17.246167 C 37.068811,17.246167 37.088388,32 37.088388,32 L 22.160133,31.978069 C 22.160133,31.978069 26.997745,27.140456 26.997745,27.140456 C 18.528582,18.264221 13.291696,25.230495 11.500037,31.436501 z"
             style="fill:#404040;"/>
          </a>
         </g>
        </svg>
</svg>
