<?xml version="1.0" encoding="UTF-8" standalone="no"?>
<!DOCTYPE svg PUBLIC "-//W3C//DTD SVG 1.1//EN"
 "http://www.w3.org/Graphics/SVG/1.1/DTD/svg11.dtd">
<!-- Generated by graphviz version 2.40.1 (0)
 -->
<!-- Title: kdtree_extras.hpp Pages: 1 -->
<svg width="210pt" height="196pt"
 viewBox="0.00 0.00 210.00 196.00" xmlns="http://www.w3.org/2000/svg" xmlns:xlink="http://www.w3.org/1999/xlink">
<g id="graph0" class="graph" transform="scale(1 1) rotate(0) translate(4 192)">
<title>kdtree_extras.hpp</title>
<!-- Node21 -->
<g id="node1" class="node">
<title>Node21</title>
<g id="a_node1"><a xlink:title=" ">
<polygon fill="#bfbfbf" stroke="#000000" points="21.5,-168.5 21.5,-187.5 165.5,-187.5 165.5,-168.5 21.5,-168.5"/>
<text text-anchor="middle" x="93.5" y="-175.5" font-family="Helvetica,sans-Serif" font-size="10.00" fill="#000000">kdtree_extras.hpp</text>
</a>
</g>
</g>
<!-- Node22 -->
<g id="node2" class="node">
<title>Node22</title>
<g id="a_node2"><a xlink:href="kdtree_8h.html" target="_top" xlink:title="KDTree implementation using Points in k&#45;dimensional space.">
<polygon fill="none" stroke="#000000" points="55,-112.5 55,-131.5 132,-131.5 132,-112.5 55,-112.5"/>
<text text-anchor="middle" x="93.5" y="-119.5" font-family="Helvetica,sans-Serif" font-size="10.00" fill="#000000">kdtree.h</text>
</a>
</g>
</g>
<!-- Node21&#45;&gt;Node22 -->
<g id="edge1" class="edge">
<title>Node21&#45;&gt;Node22</title>
<path fill="none" stroke="#191970" d="M87.0113,-158.1575C86.419,-149.155 86.8335,-138.9199 88.2549,-131.6427"/>
<polygon fill="#191970" stroke="#191970" points="83.5561,-158.739 88.2332,-168.2455 90.5053,-157.8972 83.5561,-158.739"/>
</g>
<!-- Node22&#45;&gt;Node21 -->
<g id="edge2" class="edge">
<title>Node22&#45;&gt;Node21</title>
<path fill="none" stroke="#191970" d="M99.9795,-141.7046C100.5821,-150.6944 100.1779,-160.9382 98.7668,-168.2455"/>
<polygon fill="#191970" stroke="#191970" points="103.4368,-141.1421 98.7451,-131.6427 96.4889,-141.9945 103.4368,-141.1421"/>
</g>
<!-- Node23 -->
<g id="node3" class="node">
<title>Node23</title>
<g id="a_node3"><a xlink:href="maptiles_8h.html" target="_top" xlink:title="mapTiles() function.">
<polygon fill="none" stroke="#000000" points="47.5,-56.5 47.5,-75.5 139.5,-75.5 139.5,-56.5 47.5,-56.5"/>
<text text-anchor="middle" x="93.5" y="-63.5" font-family="Helvetica,sans-Serif" font-size="10.00" fill="#000000">maptiles.h</text>
</a>
</g>
</g>
<!-- Node22&#45;&gt;Node23 -->
<g id="edge3" class="edge">
<title>Node22&#45;&gt;Node23</title>
<path fill="none" stroke="#191970" d="M93.5,-102.1575C93.5,-93.155 93.5,-82.9199 93.5,-75.6427"/>
<polygon fill="#191970" stroke="#191970" points="90.0001,-102.2455 93.5,-112.2455 97.0001,-102.2456 90.0001,-102.2455"/>
</g>
<!-- Node24 -->
<g id="node4" class="node">
<title>Node24</title>
<g id="a_node4"><a xlink:href="main_8cpp.html" target="_top" xlink:title=" ">
<polygon fill="none" stroke="#000000" points="0,-.5 0,-19.5 77,-19.5 77,-.5 0,-.5"/>
<text text-anchor="middle" x="38.5" y="-7.5" font-family="Helvetica,sans-Serif" font-size="10.00" fill="#000000">main.cpp</text>
</a>
</g>
</g>
<!-- Node23&#45;&gt;Node24 -->
<g id="edge4" class="edge">
<title>Node23&#45;&gt;Node24</title>
<path fill="none" stroke="#191970" d="M76.8774,-49.0751C67.4145,-39.4402 55.9031,-27.7196 47.9705,-19.6427"/>
<polygon fill="#191970" stroke="#191970" points="74.4155,-51.5635 83.9197,-56.2455 79.4097,-46.6585 74.4155,-51.5635"/>
</g>
<!-- Node25 -->
<g id="node5" class="node">
<title>Node25</title>
<g id="a_node5"><a xlink:href="maptiles_8cpp.html" target="_top" xlink:title="Code for the maptiles function.">
<polygon fill="none" stroke="#000000" points="95,-.5 95,-19.5 202,-19.5 202,-.5 95,-.5"/>
<text text-anchor="middle" x="148.5" y="-7.5" font-family="Helvetica,sans-Serif" font-size="10.00" fill="#000000">maptiles.cpp</text>
</a>
</g>
</g>
<!-- Node23&#45;&gt;Node25 -->
<g id="edge5" class="edge">
<title>Node23&#45;&gt;Node25</title>
<path fill="none" stroke="#191970" d="M110.1226,-49.0751C119.5855,-39.4402 131.0969,-27.7196 139.0295,-19.6427"/>
<polygon fill="#191970" stroke="#191970" points="107.5903,-46.6585 103.0803,-56.2455 112.5845,-51.5635 107.5903,-46.6585"/>
</g>
</g>
</svg>
