<?xml version="1.0" encoding="UTF-8" standalone="no"?>
<!DOCTYPE svg PUBLIC "-//W3C//DTD SVG 1.1//EN"
 "http://www.w3.org/Graphics/SVG/1.1/DTD/svg11.dtd">
<!-- Generated by graphviz version 2.40.1 (0)
 -->
<!-- Title: kdtree_extras.hpp Pages: 1 -->
<!--zoomable 196 -->
<svg id="main" version="1.1" xmlns="http://www.w3.org/2000/svg" xmlns:xlink="http://www.w3.org/1999/xlink" xml:space="preserve" onload="init(evt)">
<style type="text/css"><![CDATA[
.edge:hover path { stroke: red; }
.edge:hover polygon { stroke: red; fill: red; }
]]></style>
<script type="text/javascript"><![CDATA[
var edges = document.getElementsByTagName('g');
if (edges && edges.length) {
  for (var i=0;i<edges.length;i++) {
    if (edges[i].id.substr(0,4)=='edge') {
      edges[i].setAttribute('class','edge');
    }
  }
}
]]></script>
        <defs>
                <circle id="rim" cx="0" cy="0" r="7"/>
                <circle id="rim2" cx="0" cy="0" r="3.5"/>
                <g id="zoomPlus">
                        <use xlink:href="#rim" fill="#404040">
                                <set attributeName="fill" to="#808080" begin="zoomplus.mouseover" end="zoomplus.mouseout"/>
                        </use>
                        <path d="M-4,0h8M0,-4v8" fill="none" stroke="white" stroke-width="1.5" pointer-events="none"/>
                </g>
                <g id="zoomMin">
                        <use xlink:href="#rim" fill="#404040">
                                <set attributeName="fill" to="#808080" begin="zoomminus.mouseover" end="zoomminus.mouseout"/>
                        </use>
                        <path d="M-4,0h8" fill="none" stroke="white" stroke-width="1.5" pointer-events="none"/>
                </g>
                <g id="dirArrow">
                        <path fill="none" stroke="white" stroke-width="1.5" d="M0,-3.0v7 M-2.5,-0.5L0,-3.0L2.5,-0.5"/>
                </g>
               <g id="resetDef">
                       <use xlink:href="#rim2" fill="#404040">
                               <set attributeName="fill" to="#808080" begin="reset.mouseover" end="reset.mouseout"/>
                       </use>
               </g>
        </defs>

<script type="text/javascript">
var viewWidth = 1556;
var viewHeight = 196;
var sectionId = 'dynsection-0';
</script>
<script xlink:href="svgpan.js"/>
<svg id="graph" class="graph">
<g id="viewport">
<title>kdtree_extras.hpp</title>
<!-- Node0 -->
<g id="node1" class="node">
<title>Node0</title>
<g id="a_node1"><a xlink:title=" ">
<polygon fill="#bfbfbf" stroke="#000000" points="450,-168.5 450,-187.5 594,-187.5 594,-168.5 450,-168.5"/>
<text text-anchor="middle" x="522" y="-175.5" font-family="Helvetica,sans-Serif" font-size="10.00" fill="#000000">kdtree_extras.hpp</text>
</a>
</g>
</g>
<!-- Node1 -->
<g id="node2" class="node">
<title>Node1</title>
<g id="a_node2"><a xlink:title=" ">
<polygon fill="none" stroke="#bfbfbf" points="228.5,-56.5 228.5,-75.5 305.5,-75.5 305.5,-56.5 228.5,-56.5"/>
<text text-anchor="middle" x="267" y="-63.5" font-family="Helvetica,sans-Serif" font-size="10.00" fill="#000000">unistd.h</text>
</a>
</g>
</g>
<!-- Node0&#45;&gt;Node1 -->
<g id="edge1" class="edge">
<title>Node0&#45;&gt;Node1</title>
<path fill="none" stroke="#191970" d="M500.2588,-168.4509C454.9991,-148.5722 350.5242,-102.6852 298.1363,-79.6756"/>
<polygon fill="#191970" stroke="#191970" points="299.2494,-76.3418 288.6861,-75.5249 296.4344,-82.7508 299.2494,-76.3418"/>
</g>
<!-- Node2 -->
<g id="node3" class="node">
<title>Node2</title>
<g id="a_node3"><a xlink:title=" ">
<polygon fill="none" stroke="#bfbfbf" points="323.5,-56.5 323.5,-75.5 392.5,-75.5 392.5,-56.5 323.5,-56.5"/>
<text text-anchor="middle" x="358" y="-63.5" font-family="Helvetica,sans-Serif" font-size="10.00" fill="#000000">sstream</text>
</a>
</g>
</g>
<!-- Node0&#45;&gt;Node2 -->
<g id="edge2" class="edge">
<title>Node0&#45;&gt;Node2</title>
<path fill="none" stroke="#191970" d="M508.0175,-168.4509C479.5749,-149.0268 414.7708,-104.7703 380.3882,-81.2895"/>
<polygon fill="#191970" stroke="#191970" points="382.1791,-78.2742 371.9472,-75.5249 378.2313,-84.0549 382.1791,-78.2742"/>
</g>
<!-- Node3 -->
<g id="node4" class="node">
<title>Node3</title>
<g id="a_node4"><a xlink:title=" ">
<polygon fill="none" stroke="#bfbfbf" points="292.5,-.5 292.5,-19.5 369.5,-19.5 369.5,-.5 292.5,-.5"/>
<text text-anchor="middle" x="331" y="-7.5" font-family="Helvetica,sans-Serif" font-size="10.00" fill="#000000">iostream</text>
</a>
</g>
</g>
<!-- Node0&#45;&gt;Node3 -->
<g id="edge3" class="edge">
<title>Node0&#45;&gt;Node3</title>
<path fill="none" stroke="#191970" d="M471.8348,-168.4976C393.6461,-152.5433 248.5839,-117.9617 219,-76 213.8781,-68.7351 214.0506,-63.3834 219,-56 227.1143,-43.8953 259.2933,-31.4089 287.0894,-22.5052"/>
<polygon fill="#191970" stroke="#191970" points="288.1866,-25.8293 296.6918,-19.5117 286.1033,-19.1465 288.1866,-25.8293"/>
</g>
<!-- Node4 -->
<g id="node5" class="node">
<title>Node4</title>
<g id="a_node5"><a xlink:title=" ">
<polygon fill="none" stroke="#bfbfbf" points="411,-56.5 411,-75.5 473,-75.5 473,-56.5 411,-56.5"/>
<text text-anchor="middle" x="442" y="-63.5" font-family="Helvetica,sans-Serif" font-size="10.00" fill="#000000">vector</text>
</a>
</g>
</g>
<!-- Node0&#45;&gt;Node4 -->
<g id="edge4" class="edge">
<title>Node0&#45;&gt;Node4</title>
<path fill="none" stroke="#191970" d="M515.1792,-168.4509C501.7772,-149.688 471.8248,-107.7548 454.6843,-83.758"/>
<polygon fill="#191970" stroke="#191970" points="457.464,-81.6279 448.8035,-75.5249 451.7678,-85.6966 457.464,-81.6279"/>
</g>
<!-- Node5 -->
<g id="node6" class="node">
<title>Node5</title>
<g id="a_node6"><a xlink:title=" ">
<polygon fill="none" stroke="#bfbfbf" points="491,-56.5 491,-75.5 553,-75.5 553,-56.5 491,-56.5"/>
<text text-anchor="middle" x="522" y="-63.5" font-family="Helvetica,sans-Serif" font-size="10.00" fill="#000000">string</text>
</a>
</g>
</g>
<!-- Node0&#45;&gt;Node5 -->
<g id="edge5" class="edge">
<title>Node0&#45;&gt;Node5</title>
<path fill="none" stroke="#191970" d="M522,-168.4509C522,-150.184 522,-109.9553 522,-85.6976"/>
<polygon fill="#191970" stroke="#191970" points="525.5001,-85.5249 522,-75.5249 518.5001,-85.5249 525.5001,-85.5249"/>
</g>
<!-- Node6 -->
<g id="node7" class="node">
<title>Node6</title>
<g id="a_node7"><a xlink:title=" ">
<polygon fill="none" stroke="#bfbfbf" points="880,-.5 880,-19.5 964,-19.5 964,-.5 880,-.5"/>
<text text-anchor="middle" x="922" y="-7.5" font-family="Helvetica,sans-Serif" font-size="10.00" fill="#000000">algorithm</text>
</a>
</g>
</g>
<!-- Node0&#45;&gt;Node6 -->
<g id="edge6" class="edge">
<title>Node0&#45;&gt;Node6</title>
<path fill="none" stroke="#191970" d="M594.3234,-173.765C776.9516,-162.3355 1245.4784,-128.1618 1291,-76 1333.6886,-27.0845 1085.6932,-14.3259 974.1898,-11.0772"/>
<polygon fill="#191970" stroke="#191970" points="974.2519,-7.5777 964.159,-10.7999 974.0584,-14.575 974.2519,-7.5777"/>
</g>
<!-- Node7 -->
<g id="node8" class="node">
<title>Node7</title>
<g id="a_node8"><a xlink:title=" ">
<polygon fill="none" stroke="#bfbfbf" points="1338.5,-112.5 1338.5,-131.5 1407.5,-131.5 1407.5,-112.5 1338.5,-112.5"/>
<text text-anchor="middle" x="1373" y="-119.5" font-family="Helvetica,sans-Serif" font-size="10.00" fill="#000000">iomanip</text>
</a>
</g>
</g>
<!-- Node0&#45;&gt;Node7 -->
<g id="edge7" class="edge">
<title>Node0&#45;&gt;Node7</title>
<path fill="none" stroke="#191970" d="M594.0935,-175.1983C763.6561,-168.3929 1183.9706,-150.2082 1324,-132 1325.4529,-131.8111 1326.9272,-131.6036 1328.4137,-131.3809"/>
<polygon fill="#191970" stroke="#191970" points="1329.021,-134.828 1338.3052,-129.7237 1327.8643,-127.9242 1329.021,-134.828"/>
</g>
<!-- Node8 -->
<g id="node9" class="node">
<title>Node8</title>
<g id="a_node9"><a xlink:title=" ">
<polygon fill="none" stroke="#bfbfbf" points="0,-.5 0,-19.5 84,-19.5 84,-.5 0,-.5"/>
<text text-anchor="middle" x="42" y="-7.5" font-family="Helvetica,sans-Serif" font-size="10.00" fill="#000000">stdexcept</text>
</a>
</g>
</g>
<!-- Node0&#45;&gt;Node8 -->
<g id="edge8" class="edge">
<title>Node0&#45;&gt;Node8</title>
<path fill="none" stroke="#191970" d="M449.7547,-173.5476C359.6712,-167.1786 211.3862,-153.7697 161,-132 110.9747,-110.3862 71.3353,-56.7241 53.0311,-28.3156"/>
<polygon fill="#191970" stroke="#191970" points="55.9305,-26.3509 47.6573,-19.7323 49.9974,-30.0655 55.9305,-26.3509"/>
</g>
<!-- Node9 -->
<g id="node10" class="node">
<title>Node9</title>
<g id="a_node10"><a xlink:title=" ">
<polygon fill="none" stroke="#bfbfbf" points="1426,-112.5 1426,-131.5 1548,-131.5 1548,-112.5 1426,-112.5"/>
<text text-anchor="middle" x="1487" y="-119.5" font-family="Helvetica,sans-Serif" font-size="10.00" fill="#000000">util/no_sort.h</text>
</a>
</g>
</g>
<!-- Node0&#45;&gt;Node9 -->
<g id="edge9" class="edge">
<title>Node0&#45;&gt;Node9</title>
<path fill="none" stroke="#191970" d="M594.0905,-176.5081C744.7431,-172.9092 1104.0944,-161.8118 1415.818,-132.0293"/>
<polygon fill="#191970" stroke="#191970" points="1416.3376,-135.4956 1425.9557,-131.0525 1415.6661,-128.5278 1416.3376,-135.4956"/>
</g>
<!-- Node10 -->
<g id="node11" class="node">
<title>Node10</title>
<g id="a_node11"><a xlink:title=" ">
<polygon fill="none" stroke="#bfbfbf" points="1138,-56.5 1138,-75.5 1282,-75.5 1282,-56.5 1138,-56.5"/>
<text text-anchor="middle" x="1210" y="-63.5" font-family="Helvetica,sans-Serif" font-size="10.00" fill="#000000">util/coloredout.h</text>
</a>
</g>
</g>
<!-- Node0&#45;&gt;Node10 -->
<g id="edge10" class="edge">
<title>Node0&#45;&gt;Node10</title>
<path fill="none" stroke="#191970" d="M580.3617,-168.4993C706.8501,-147.9081 1005.7517,-99.2497 1141.1793,-77.2034"/>
<polygon fill="#191970" stroke="#191970" points="1142.1174,-80.5968 1151.425,-75.5355 1140.9926,-73.6878 1142.1174,-80.5968"/>
</g>
<!-- Node11 -->
<g id="node12" class="node">
<title>Node11</title>
<g id="a_node12"><a xlink:href="point_8h.html" target="_top" xlink:title="Definition of a Point class for k dimensional points.">
<polygon fill="none" stroke="#000000" points="102.5,-56.5 102.5,-75.5 171.5,-75.5 171.5,-56.5 102.5,-56.5"/>
<text text-anchor="middle" x="137" y="-63.5" font-family="Helvetica,sans-Serif" font-size="10.00" fill="#000000">point.h</text>
</a>
</g>
</g>
<!-- Node0&#45;&gt;Node11 -->
<g id="edge11" class="edge">
<title>Node0&#45;&gt;Node11</title>
<path fill="none" stroke="#191970" d="M449.802,-174.6296C364.6904,-169.5423 229.3289,-157.627 186,-132 167.4598,-121.0344 153.7484,-100.056 145.6168,-84.6838"/>
<polygon fill="#191970" stroke="#191970" points="148.6657,-82.9541 141.0843,-75.5533 142.3958,-86.0666 148.6657,-82.9541"/>
</g>
<!-- Node14 -->
<g id="node15" class="node">
<title>Node14</title>
<g id="a_node15"><a xlink:href="kdtree_8h.html" target="_top" xlink:title="KDTree implementation using Points in k&#45;dimensional space.">
<polygon fill="none" stroke="#000000" points="571.5,-112.5 571.5,-131.5 648.5,-131.5 648.5,-112.5 571.5,-112.5"/>
<text text-anchor="middle" x="610" y="-119.5" font-family="Helvetica,sans-Serif" font-size="10.00" fill="#000000">kdtree.h</text>
</a>
</g>
</g>
<!-- Node0&#45;&gt;Node14 -->
<g id="edge16" class="edge">
<title>Node0&#45;&gt;Node14</title>
<path fill="none" stroke="#191970" d="M532.0616,-168.2455C544.015,-159.5731 563.8864,-146.7645 580.6672,-136.825"/>
<polygon fill="#191970" stroke="#191970" points="582.7079,-139.6876 589.6021,-131.6427 579.1957,-133.6324 582.7079,-139.6876"/>
</g>
<!-- Node11&#45;&gt;Node3 -->
<g id="edge13" class="edge">
<title>Node11&#45;&gt;Node3</title>
<path fill="none" stroke="#191970" d="M170.3498,-56.3733C203.028,-46.9404 252.9618,-32.5265 288.477,-22.2747"/>
<polygon fill="#191970" stroke="#191970" points="289.4484,-25.6373 298.0854,-19.5011 287.507,-18.9119 289.4484,-25.6373"/>
</g>
<!-- Node11&#45;&gt;Node8 -->
<g id="edge14" class="edge">
<title>Node11&#45;&gt;Node8</title>
<path fill="none" stroke="#191970" d="M120.4523,-56.2455C105.7401,-47.5731 84.0112,-34.7645 67.1495,-24.825"/>
<polygon fill="#191970" stroke="#191970" points="68.7502,-21.7057 58.3581,-19.6427 65.1954,-27.736 68.7502,-21.7057"/>
</g>
<!-- Node12 -->
<g id="node13" class="node">
<title>Node12</title>
<g id="a_node13"><a xlink:title=" ">
<polygon fill="none" stroke="#bfbfbf" points="102.5,-.5 102.5,-19.5 171.5,-19.5 171.5,-.5 102.5,-.5"/>
<text text-anchor="middle" x="137" y="-7.5" font-family="Helvetica,sans-Serif" font-size="10.00" fill="#000000">cstdarg</text>
</a>
</g>
</g>
<!-- Node11&#45;&gt;Node12 -->
<g id="edge12" class="edge">
<title>Node11&#45;&gt;Node12</title>
<path fill="none" stroke="#191970" d="M137,-56.2455C137,-48.9382 137,-38.6944 137,-29.7046"/>
<polygon fill="#191970" stroke="#191970" points="140.5001,-29.6426 137,-19.6427 133.5001,-29.6427 140.5001,-29.6426"/>
</g>
<!-- Node13 -->
<g id="node14" class="node">
<title>Node13</title>
<g id="a_node14"><a xlink:href="point_8cpp.html" target="_top" xlink:title="Implementation of Point class.">
<polygon fill="none" stroke="#000000" points="190,-.5 190,-19.5 274,-19.5 274,-.5 190,-.5"/>
<text text-anchor="middle" x="232" y="-7.5" font-family="Helvetica,sans-Serif" font-size="10.00" fill="#000000">point.cpp</text>
</a>
</g>
</g>
<!-- Node11&#45;&gt;Node13 -->
<g id="edge15" class="edge">
<title>Node11&#45;&gt;Node13</title>
<path fill="none" stroke="#191970" d="M153.5477,-56.2455C168.2599,-47.5731 189.9888,-34.7645 206.8505,-24.825"/>
<polygon fill="#191970" stroke="#191970" points="208.8046,-27.736 215.6419,-19.6427 205.2498,-21.7057 208.8046,-27.736"/>
</g>
<!-- Node14&#45;&gt;Node0 -->
<g id="edge31" class="edge">
<title>Node14&#45;&gt;Node0</title>
<path fill="none" stroke="#191970" d="M600.0924,-131.6427C588.2073,-140.2794 568.357,-153.0824 551.5497,-163.0465"/>
<polygon fill="#191970" stroke="#191970" points="549.4859,-160.1975 542.5953,-168.2455 553.0007,-166.2511 549.4859,-160.1975"/>
</g>
<!-- Node14&#45;&gt;Node1 -->
<g id="edge21" class="edge">
<title>Node14&#45;&gt;Node1</title>
<path fill="none" stroke="#191970" d="M571.096,-116.6559C516.2795,-108.9723 412.9637,-93.9294 315.6931,-76.2421"/>
<polygon fill="#191970" stroke="#191970" points="316.1619,-72.7698 305.6949,-74.4106 314.9005,-79.6553 316.1619,-72.7698"/>
</g>
<!-- Node14&#45;&gt;Node2 -->
<g id="edge24" class="edge">
<title>Node14&#45;&gt;Node2</title>
<path fill="none" stroke="#191970" d="M571.2664,-113.5046C531.5229,-104.7719 467.6272,-90.6892 402.6027,-76.1257"/>
<polygon fill="#191970" stroke="#191970" points="403.1063,-72.6518 392.5829,-73.8797 401.5752,-79.4823 403.1063,-72.6518"/>
</g>
<!-- Node14&#45;&gt;Node3 -->
<g id="edge25" class="edge">
<title>Node14&#45;&gt;Node3</title>
<path fill="none" stroke="#191970" d="M648.7306,-116.8646C698.404,-108.7665 774.6941,-90.3026 744,-56 720.0762,-29.2636 483.9749,-16.3036 379.8751,-11.8533"/>
<polygon fill="#191970" stroke="#191970" points="379.7683,-8.3459 369.6307,-11.4247 379.4756,-15.3398 379.7683,-8.3459"/>
</g>
<!-- Node14&#45;&gt;Node4 -->
<g id="edge17" class="edge">
<title>Node14&#45;&gt;Node4</title>
<path fill="none" stroke="#191970" d="M581.1198,-112.3733C553.1839,-103.0613 510.6858,-88.8953 480.0131,-78.671"/>
<polygon fill="#191970" stroke="#191970" points="481.097,-75.3431 470.5034,-75.5011 478.8834,-81.9839 481.097,-75.3431"/>
</g>
<!-- Node14&#45;&gt;Node5 -->
<g id="edge23" class="edge">
<title>Node14&#45;&gt;Node5</title>
<path fill="none" stroke="#191970" d="M594.6716,-112.2455C581.1697,-103.6534 561.2878,-91.0014 545.7314,-81.1018"/>
<polygon fill="#191970" stroke="#191970" points="547.4685,-78.0587 537.1528,-75.6427 543.7103,-83.9643 547.4685,-78.0587"/>
</g>
<!-- Node14&#45;&gt;Node6 -->
<g id="edge32" class="edge">
<title>Node14&#45;&gt;Node6</title>
<path fill="none" stroke="#191970" d="M648.7368,-120.2083C717.1081,-116.3278 855.5146,-105.0306 893,-76 907.4918,-64.7768 914.8937,-44.7944 918.5748,-29.7479"/>
<polygon fill="#191970" stroke="#191970" points="922.0214,-30.365 920.6458,-19.8599 915.1701,-28.93 922.0214,-30.365"/>
</g>
<!-- Node14&#45;&gt;Node10 -->
<g id="edge18" class="edge">
<title>Node14&#45;&gt;Node10</title>
<path fill="none" stroke="#191970" d="M648.7828,-119.0219C733.5746,-112.4118 942.0546,-95.6221 1127.3855,-76.1426"/>
<polygon fill="#191970" stroke="#191970" points="1128.0137,-79.5958 1137.5907,-75.0648 1127.2784,-72.6346 1128.0137,-79.5958"/>
</g>
<!-- Node14&#45;&gt;Node11 -->
<g id="edge27" class="edge">
<title>Node14&#45;&gt;Node11</title>
<path fill="none" stroke="#191970" d="M571.4228,-117.5165C501.2681,-109.3507 348.1129,-91.4675 219,-76 206.9952,-74.5618 194.0044,-72.9864 181.9788,-71.5201"/>
<polygon fill="#191970" stroke="#191970" points="182.059,-68.004 171.7084,-70.2658 181.2104,-74.9523 182.059,-68.004"/>
</g>
<!-- Node15 -->
<g id="node16" class="node">
<title>Node15</title>
<g id="a_node16"><a xlink:title=" ">
<polygon fill="none" stroke="#bfbfbf" points="940,-56.5 940,-75.5 1032,-75.5 1032,-56.5 940,-56.5"/>
<text text-anchor="middle" x="986" y="-63.5" font-family="Helvetica,sans-Serif" font-size="10.00" fill="#000000">sys/wait.h</text>
</a>
</g>
</g>
<!-- Node14&#45;&gt;Node15 -->
<g id="edge19" class="edge">
<title>Node14&#45;&gt;Node15</title>
<path fill="none" stroke="#191970" d="M648.9573,-116.5922C708.6489,-108.2467 826.3077,-91.5621 926,-76 927.2619,-75.803 928.5384,-75.6023 929.8254,-75.3987"/>
<polygon fill="#191970" stroke="#191970" points="930.5085,-78.834 939.8277,-73.7938 929.3994,-71.9224 930.5085,-78.834"/>
</g>
<!-- Node16 -->
<g id="node17" class="node">
<title>Node16</title>
<g id="a_node17"><a xlink:title=" ">
<polygon fill="none" stroke="#bfbfbf" points="1050.5,-56.5 1050.5,-75.5 1119.5,-75.5 1119.5,-56.5 1050.5,-56.5"/>
<text text-anchor="middle" x="1085" y="-63.5" font-family="Helvetica,sans-Serif" font-size="10.00" fill="#000000">errno.h</text>
</a>
</g>
</g>
<!-- Node14&#45;&gt;Node16 -->
<g id="edge20" class="edge">
<title>Node14&#45;&gt;Node16</title>
<path fill="none" stroke="#191970" d="M648.5477,-119.4085C722.5535,-114.1049 889.7897,-100.5336 1040.5811,-75.8849"/>
<polygon fill="#191970" stroke="#191970" points="1041.1942,-79.3311 1050.4885,-74.2453 1040.0512,-72.4251 1041.1942,-79.3311"/>
</g>
<!-- Node17 -->
<g id="node18" class="node">
<title>Node17</title>
<g id="a_node18"><a xlink:title=" ">
<polygon fill="none" stroke="#bfbfbf" points="571.5,-56.5 571.5,-75.5 648.5,-75.5 648.5,-56.5 571.5,-56.5"/>
<text text-anchor="middle" x="610" y="-63.5" font-family="Helvetica,sans-Serif" font-size="10.00" fill="#000000">stdint.h</text>
</a>
</g>
</g>
<!-- Node14&#45;&gt;Node17 -->
<g id="edge22" class="edge">
<title>Node14&#45;&gt;Node17</title>
<path fill="none" stroke="#191970" d="M610,-112.2455C610,-104.9382 610,-94.6944 610,-85.7046"/>
<polygon fill="#191970" stroke="#191970" points="613.5001,-85.6426 610,-75.6427 606.5001,-85.6427 613.5001,-85.6426"/>
</g>
<!-- Node18 -->
<g id="node19" class="node">
<title>Node18</title>
<g id="a_node19"><a xlink:title=" ">
<polygon fill="none" stroke="#bfbfbf" points="666.5,-56.5 666.5,-75.5 735.5,-75.5 735.5,-56.5 666.5,-56.5"/>
<text text-anchor="middle" x="701" y="-63.5" font-family="Helvetica,sans-Serif" font-size="10.00" fill="#000000">fstream</text>
</a>
</g>
</g>
<!-- Node14&#45;&gt;Node18 -->
<g id="edge26" class="edge">
<title>Node14&#45;&gt;Node18</title>
<path fill="none" stroke="#191970" d="M625.851,-112.2455C639.8132,-103.6534 660.3728,-91.0014 676.4596,-81.1018"/>
<polygon fill="#191970" stroke="#191970" points="678.6484,-83.8645 685.3307,-75.6427 674.9797,-77.9029 678.6484,-83.8645"/>
</g>
<!-- Node19 -->
<g id="node20" class="node">
<title>Node19</title>
<g id="a_node20"><a xlink:href="kdtree_8hpp.html" target="_top" xlink:title=" ">
<polygon fill="none" stroke="#000000" points="792,-56.5 792,-75.5 884,-75.5 884,-56.5 792,-56.5"/>
<text text-anchor="middle" x="838" y="-63.5" font-family="Helvetica,sans-Serif" font-size="10.00" fill="#000000">kdtree.hpp</text>
</a>
</g>
</g>
<!-- Node14&#45;&gt;Node19 -->
<g id="edge28" class="edge">
<title>Node14&#45;&gt;Node19</title>
<path fill="none" stroke="#191970" d="M648.6771,-112.5004C687.4917,-102.9669 747.3928,-88.2544 789.3963,-77.9378"/>
<polygon fill="#191970" stroke="#191970" points="790.2567,-81.3305 799.1332,-75.5462 788.5869,-74.5326 790.2567,-81.3305"/>
</g>
<!-- Node19&#45;&gt;Node6 -->
<g id="edge30" class="edge">
<title>Node19&#45;&gt;Node6</title>
<path fill="none" stroke="#191970" d="M852.6317,-56.2455C865.3994,-47.7337 884.1438,-35.2375 898.9299,-25.3801"/>
<polygon fill="#191970" stroke="#191970" points="901.1569,-28.1019 907.536,-19.6427 897.274,-22.2775 901.1569,-28.1019"/>
</g>
<!-- Node20 -->
<g id="node21" class="node">
<title>Node20</title>
<g id="a_node21"><a xlink:title=" ">
<polygon fill="none" stroke="#bfbfbf" points="792.5,-.5 792.5,-19.5 861.5,-19.5 861.5,-.5 792.5,-.5"/>
<text text-anchor="middle" x="827" y="-7.5" font-family="Helvetica,sans-Serif" font-size="10.00" fill="#000000">utility</text>
</a>
</g>
</g>
<!-- Node19&#45;&gt;Node20 -->
<g id="edge29" class="edge">
<title>Node19&#45;&gt;Node20</title>
<path fill="none" stroke="#191970" d="M836.0839,-56.2455C834.6486,-48.9382 832.6364,-38.6944 830.8705,-29.7046"/>
<polygon fill="#191970" stroke="#191970" points="834.256,-28.7805 828.8941,-19.6427 827.3873,-30.1298 834.256,-28.7805"/>
</g>
</g>
</svg>
        <g id="navigator" transform="translate(0 0)" fill="#404254">
                <rect fill="#f2f5e9" fill-opacity="0.5" stroke="#606060" stroke-width=".5" x="0" y="0" width="60" height="60"/>
                <use id="zoomplus" xlink:href="#zoomPlus" x="17" y="9" onmousedown="handleZoom(evt,'in')"/>
                <use id="zoomminus" xlink:href="#zoomMin" x="42" y="9" onmousedown="handleZoom(evt,'out')"/>
                <use id="reset" xlink:href="#resetDef" x="30" y="36" onmousedown="handleReset()"/>
                <g id="arrowUp" xlink:href="#dirArrow" transform="translate(30 24)" onmousedown="handlePan(0,-1)">
                  <use xlink:href="#rim" fill="#404040">
                        <set attributeName="fill" to="#808080" begin="arrowUp.mouseover" end="arrowUp.mouseout"/>
                  </use>
                  <path fill="none" stroke="white" stroke-width="1.5" d="M0,-3.0v7 M-2.5,-0.5L0,-3.0L2.5,-0.5"/>
                </g>
                <g id="arrowRight" xlink:href="#dirArrow" transform="rotate(90) translate(36 -43)" onmousedown="handlePan(1,0)">
                  <use xlink:href="#rim" fill="#404040">
                        <set attributeName="fill" to="#808080" begin="arrowRight.mouseover" end="arrowRight.mouseout"/>
                  </use>
                  <path fill="none" stroke="white" stroke-width="1.5" d="M0,-3.0v7 M-2.5,-0.5L0,-3.0L2.5,-0.5"/>
                </g>
                <g id="arrowDown" xlink:href="#dirArrow" transform="rotate(180) translate(-30 -48)" onmousedown="handlePan(0,1)">
                  <use xlink:href="#rim" fill="#404040">
                        <set attributeName="fill" to="#808080" begin="arrowDown.mouseover" end="arrowDown.mouseout"/>
                  </use>
                  <path fill="none" stroke="white" stroke-width="1.5" d="M0,-3.0v7 M-2.5,-0.5L0,-3.0L2.5,-0.5"/>
                </g>
                <g id="arrowLeft" xlink:href="#dirArrow" transform="rotate(270) translate(-36 17)" onmousedown="handlePan(-1,0)">
                  <use xlink:href="#rim" fill="#404040">
                        <set attributeName="fill" to="#808080" begin="arrowLeft.mouseover" end="arrowLeft.mouseout"/>
                  </use>
                  <path fill="none" stroke="white" stroke-width="1.5" d="M0,-3.0v7 M-2.5,-0.5L0,-3.0L2.5,-0.5"/>
                </g>
        </g>
        <svg viewBox="0 0 15 15" width="100%" height="30px" preserveAspectRatio="xMaxYMin meet">
         <g id="arrow_out" transform="scale(0.3 0.3)">
          <a xlink:href="kdtree__extras_8hpp__incl_org.svg" target="_base">
           <rect id="button" ry="5" rx="5" y="6" x="6" height="38" width="38"
                fill="#f2f5e9" fill-opacity="0.5" stroke="#606060" stroke-width="1.0"/>
           <path id="arrow"
             d="M 11.500037,31.436501 C 11.940474,20.09759 22.043105,11.32322 32.158766,21.979434 L 37.068811,17.246167 C 37.068811,17.246167 37.088388,32 37.088388,32 L 22.160133,31.978069 C 22.160133,31.978069 26.997745,27.140456 26.997745,27.140456 C 18.528582,18.264221 13.291696,25.230495 11.500037,31.436501 z"
             style="fill:#404040;"/>
          </a>
         </g>
        </svg>
</svg>
