<?xml version="1.0" encoding="UTF-8" standalone="no"?>
<!DOCTYPE svg PUBLIC "-//W3C//DTD SVG 1.1//EN"
 "http://www.w3.org/Graphics/SVG/1.1/DTD/svg11.dtd">
<!-- Generated by graphviz version 2.40.1 (0)
 -->
<!-- Title: kdtree.h Pages: 1 -->
<svg width="325pt" height="140pt"
 viewBox="0.00 0.00 324.50 140.00" xmlns="http://www.w3.org/2000/svg" xmlns:xlink="http://www.w3.org/1999/xlink">
<g id="graph0" class="graph" transform="scale(1 1) rotate(0) translate(4 136)">
<title>kdtree.h</title>
<!-- Node21 -->
<g id="node1" class="node">
<title>Node21</title>
<g id="a_node1"><a xlink:title="KDTree implementation using Points in k&#45;dimensional space.">
<polygon fill="#bfbfbf" stroke="#000000" points="33.5,-112.5 33.5,-131.5 110.5,-131.5 110.5,-112.5 33.5,-112.5"/>
<text text-anchor="middle" x="72" y="-119.5" font-family="Helvetica,sans-Serif" font-size="10.00" fill="#000000">kdtree.h</text>
</a>
</g>
</g>
<!-- Node22 -->
<g id="node2" class="node">
<title>Node22</title>
<g id="a_node2"><a xlink:href="kdtree__extras_8hpp.html" target="_top" xlink:title=" ">
<polygon fill="none" stroke="#000000" points="0,-56.5 0,-75.5 144,-75.5 144,-56.5 0,-56.5"/>
<text text-anchor="middle" x="72" y="-63.5" font-family="Helvetica,sans-Serif" font-size="10.00" fill="#000000">kdtree_extras.hpp</text>
</a>
</g>
</g>
<!-- Node21&#45;&gt;Node22 -->
<g id="edge1" class="edge">
<title>Node21&#45;&gt;Node22</title>
<path fill="none" stroke="#191970" d="M65.5113,-102.1575C64.919,-93.155 65.3335,-82.9199 66.7549,-75.6427"/>
<polygon fill="#191970" stroke="#191970" points="62.0561,-102.739 66.7332,-112.2455 69.0053,-101.8972 62.0561,-102.739"/>
</g>
<!-- Node23 -->
<g id="node3" class="node">
<title>Node23</title>
<g id="a_node3"><a xlink:href="maptiles_8h.html" target="_top" xlink:title="mapTiles() function.">
<polygon fill="none" stroke="#000000" points="162,-56.5 162,-75.5 254,-75.5 254,-56.5 162,-56.5"/>
<text text-anchor="middle" x="208" y="-63.5" font-family="Helvetica,sans-Serif" font-size="10.00" fill="#000000">maptiles.h</text>
</a>
</g>
</g>
<!-- Node21&#45;&gt;Node23 -->
<g id="edge3" class="edge">
<title>Node21&#45;&gt;Node23</title>
<path fill="none" stroke="#191970" d="M104.7399,-108.5189C129.5083,-98.3201 162.905,-84.5685 184.9258,-75.5011"/>
<polygon fill="#191970" stroke="#191970" points="103.2934,-105.3293 95.3792,-112.3733 105.9587,-111.8021 103.2934,-105.3293"/>
</g>
<!-- Node22&#45;&gt;Node21 -->
<g id="edge2" class="edge">
<title>Node22&#45;&gt;Node21</title>
<path fill="none" stroke="#191970" d="M78.4795,-85.7046C79.0821,-94.6944 78.6779,-104.9382 77.2668,-112.2455"/>
<polygon fill="#191970" stroke="#191970" points="81.9368,-85.1421 77.2451,-75.6427 74.9889,-85.9945 81.9368,-85.1421"/>
</g>
<!-- Node24 -->
<g id="node4" class="node">
<title>Node24</title>
<g id="a_node4"><a xlink:href="main_8cpp.html" target="_top" xlink:title=" ">
<polygon fill="none" stroke="#000000" points="114.5,-.5 114.5,-19.5 191.5,-19.5 191.5,-.5 114.5,-.5"/>
<text text-anchor="middle" x="153" y="-7.5" font-family="Helvetica,sans-Serif" font-size="10.00" fill="#000000">main.cpp</text>
</a>
</g>
</g>
<!-- Node23&#45;&gt;Node24 -->
<g id="edge4" class="edge">
<title>Node23&#45;&gt;Node24</title>
<path fill="none" stroke="#191970" d="M191.3774,-49.0751C181.9145,-39.4402 170.4031,-27.7196 162.4705,-19.6427"/>
<polygon fill="#191970" stroke="#191970" points="188.9155,-51.5635 198.4197,-56.2455 193.9097,-46.6585 188.9155,-51.5635"/>
</g>
<!-- Node25 -->
<g id="node5" class="node">
<title>Node25</title>
<g id="a_node5"><a xlink:href="maptiles_8cpp.html" target="_top" xlink:title="Code for the maptiles function.">
<polygon fill="none" stroke="#000000" points="209.5,-.5 209.5,-19.5 316.5,-19.5 316.5,-.5 209.5,-.5"/>
<text text-anchor="middle" x="263" y="-7.5" font-family="Helvetica,sans-Serif" font-size="10.00" fill="#000000">maptiles.cpp</text>
</a>
</g>
</g>
<!-- Node23&#45;&gt;Node25 -->
<g id="edge5" class="edge">
<title>Node23&#45;&gt;Node25</title>
<path fill="none" stroke="#191970" d="M224.6226,-49.0751C234.0855,-39.4402 245.5969,-27.7196 253.5295,-19.6427"/>
<polygon fill="#191970" stroke="#191970" points="222.0903,-46.6585 217.5803,-56.2455 227.0845,-51.5635 222.0903,-46.6585"/>
</g>
</g>
</svg>
