<?xml version="1.0" encoding="UTF-8" standalone="no"?>
<!DOCTYPE svg PUBLIC "-//W3C//DTD SVG 1.1//EN"
 "http://www.w3.org/Graphics/SVG/1.1/DTD/svg11.dtd">
<!-- Generated by graphviz version 2.40.1 (0)
 -->
<!-- Title: main.cpp Pages: 1 -->
<!--zoomable 319 -->
<svg id="main" version="1.1" xmlns="http://www.w3.org/2000/svg" xmlns:xlink="http://www.w3.org/1999/xlink" xml:space="preserve" onload="init(evt)">
<style type="text/css"><![CDATA[
.edge:hover path { stroke: red; }
.edge:hover polygon { stroke: red; fill: red; }
]]></style>
<script type="text/javascript"><![CDATA[
var edges = document.getElementsByTagName('g');
if (edges && edges.length) {
  for (var i=0;i<edges.length;i++) {
    if (edges[i].id.substr(0,4)=='edge') {
      edges[i].setAttribute('class','edge');
    }
  }
}
]]></script>
        <defs>
                <circle id="rim" cx="0" cy="0" r="7"/>
                <circle id="rim2" cx="0" cy="0" r="3.5"/>
                <g id="zoomPlus">
                        <use xlink:href="#rim" fill="#404040">
                                <set attributeName="fill" to="#808080" begin="zoomplus.mouseover" end="zoomplus.mouseout"/>
                        </use>
                        <path d="M-4,0h8M0,-4v8" fill="none" stroke="white" stroke-width="1.5" pointer-events="none"/>
                </g>
                <g id="zoomMin">
                        <use xlink:href="#rim" fill="#404040">
                                <set attributeName="fill" to="#808080" begin="zoomminus.mouseover" end="zoomminus.mouseout"/>
                        </use>
                        <path d="M-4,0h8" fill="none" stroke="white" stroke-width="1.5" pointer-events="none"/>
                </g>
                <g id="dirArrow">
                        <path fill="none" stroke="white" stroke-width="1.5" d="M0,-3.0v7 M-2.5,-0.5L0,-3.0L2.5,-0.5"/>
                </g>
               <g id="resetDef">
                       <use xlink:href="#rim2" fill="#404040">
                               <set attributeName="fill" to="#808080" begin="reset.mouseover" end="reset.mouseout"/>
                       </use>
               </g>
        </defs>

<script type="text/javascript">
var viewWidth = 2427;
var viewHeight = 319;
var sectionId = 'dynsection-0';
</script>
<script xlink:href="svgpan.js"/>
<svg id="graph" class="graph">
<g id="viewport">
<title>main.cpp</title>
<!-- Node0 -->
<g id="node1" class="node">
<title>Node0</title>
<g id="a_node1"><a xlink:title=" ">
<polygon fill="#bfbfbf" stroke="#000000" points="1348,-291.5 1348,-310.5 1425,-310.5 1425,-291.5 1348,-291.5"/>
<text text-anchor="middle" x="1386.5" y="-298.5" font-family="Helvetica,sans-Serif" font-size="10.00" fill="#000000">main.cpp</text>
</a>
</g>
</g>
<!-- Node1 -->
<g id="node2" class="node">
<title>Node1</title>
<g id="a_node2"><a xlink:title=" ">
<polygon fill="none" stroke="#bfbfbf" points="644,-.5 644,-19.5 721,-19.5 721,-.5 644,-.5"/>
<text text-anchor="middle" x="682.5" y="-7.5" font-family="Helvetica,sans-Serif" font-size="10.00" fill="#000000">iostream</text>
</a>
</g>
</g>
<!-- Node0&#45;&gt;Node1 -->
<g id="edge1" class="edge">
<title>Node0&#45;&gt;Node1</title>
<path fill="none" stroke="#191970" d="M1347.8452,-295.2879C1177.0832,-269.8774 497.503,-166.8298 468.5,-132 448.0328,-107.4209 479.6352,-71.282 499.5,-56 520.3638,-39.9495 587.1509,-25.9228 633.9809,-17.7042"/>
<polygon fill="#191970" stroke="#191970" points="634.6794,-21.1356 643.941,-15.9904 633.4923,-14.237 634.6794,-21.1356"/>
</g>
<!-- Node2 -->
<g id="node3" class="node">
<title>Node2</title>
<g id="a_node3"><a xlink:title=" ">
<polygon fill="none" stroke="#bfbfbf" points="103,-230 103,-249 142,-249 142,-230 103,-230"/>
<text text-anchor="middle" x="122.5" y="-237" font-family="Helvetica,sans-Serif" font-size="10.00" fill="#000000">set</text>
</a>
</g>
</g>
<!-- Node0&#45;&gt;Node2 -->
<g id="edge2" class="edge">
<title>Node0&#45;&gt;Node2</title>
<path fill="none" stroke="#191970" d="M1347.9147,-300.4485C1152.2779,-297.5326 274.635,-282.9795 156.5,-255 154.1565,-254.4449 151.7776,-253.7249 149.4229,-252.8994"/>
<polygon fill="#191970" stroke="#191970" points="150.6133,-249.605 140.0322,-249.0647 147.9669,-256.0855 150.6133,-249.605"/>
</g>
<!-- Node3 -->
<g id="node4" class="node">
<title>Node3</title>
<g id="a_node4"><a xlink:title=" ">
<polygon fill="none" stroke="#bfbfbf" points="359.5,-56.5 359.5,-75.5 421.5,-75.5 421.5,-56.5 359.5,-56.5"/>
<text text-anchor="middle" x="390.5" y="-63.5" font-family="Helvetica,sans-Serif" font-size="10.00" fill="#000000">vector</text>
</a>
</g>
</g>
<!-- Node0&#45;&gt;Node3 -->
<g id="edge3" class="edge">
<title>Node0&#45;&gt;Node3</title>
<path fill="none" stroke="#191970" d="M1347.9989,-300.1452C1199.3708,-296.6562 667.7849,-282.3633 597.5,-255 577.1891,-247.0926 578.7646,-234.1949 559.5,-224 509.9086,-197.756 479.8363,-225.9389 438.5,-188 408.7145,-160.6626 397.1538,-112.5274 392.8669,-85.6163"/>
<polygon fill="#191970" stroke="#191970" points="396.3034,-84.9191 391.4431,-75.5049 389.3718,-85.8953 396.3034,-84.9191"/>
</g>
<!-- Node4 -->
<g id="node5" class="node">
<title>Node4</title>
<g id="a_node5"><a xlink:title=" ">
<polygon fill="none" stroke="#bfbfbf" points="0,-56.5 0,-75.5 99,-75.5 99,-56.5 0,-56.5"/>
<text text-anchor="middle" x="49.5" y="-63.5" font-family="Helvetica,sans-Serif" font-size="10.00" fill="#000000">cs225/PNG.h</text>
</a>
</g>
</g>
<!-- Node0&#45;&gt;Node4 -->
<g id="edge4" class="edge">
<title>Node0&#45;&gt;Node4</title>
<path fill="none" stroke="#191970" d="M1347.9491,-300.5555C1139.1041,-298.0312 150.5639,-284.5534 93.5,-255 60.269,-237.7897 54.4607,-223.4603 42.5,-188 30.7988,-153.3088 38.0541,-109.9499 44.0259,-85.3733"/>
<polygon fill="#191970" stroke="#191970" points="47.4634,-86.0618 46.6066,-75.5017 40.691,-84.2912 47.4634,-86.0618"/>
</g>
<!-- Node5 -->
<g id="node6" class="node">
<title>Node5</title>
<g id="a_node6"><a xlink:title=" ">
<polygon fill="none" stroke="#bfbfbf" points="1441.5,-56.5 1441.5,-75.5 1503.5,-75.5 1503.5,-56.5 1441.5,-56.5"/>
<text text-anchor="middle" x="1472.5" y="-63.5" font-family="Helvetica,sans-Serif" font-size="10.00" fill="#000000">string</text>
</a>
</g>
</g>
<!-- Node0&#45;&gt;Node5 -->
<g id="edge5" class="edge">
<title>Node0&#45;&gt;Node5</title>
<path fill="none" stroke="#191970" d="M1394.0585,-291.259C1400.7344,-282.2671 1410.3394,-268.328 1416.5,-255 1443.7091,-196.1352 1461.3202,-120.8609 1468.6342,-85.7219"/>
<polygon fill="#191970" stroke="#191970" points="1472.09,-86.2912 1470.6463,-75.7952 1465.2295,-84.9006 1472.09,-86.2912"/>
</g>
<!-- Node6 -->
<g id="node7" class="node">
<title>Node6</title>
<g id="a_node7"><a xlink:title=" ">
<polygon fill="none" stroke="#bfbfbf" points="346.5,-224.5 346.5,-254.5 550.5,-254.5 550.5,-224.5 346.5,-224.5"/>
<text text-anchor="start" x="354.5" y="-242.5" font-family="Helvetica,sans-Serif" font-size="10.00" fill="#000000">/data/mp_mosaics/solution</text>
<text text-anchor="middle" x="448.5" y="-231.5" font-family="Helvetica,sans-Serif" font-size="10.00" fill="#000000">/cs225/LUVAPixel.h</text>
</a>
</g>
</g>
<!-- Node0&#45;&gt;Node6 -->
<g id="edge6" class="edge">
<title>Node0&#45;&gt;Node6</title>
<path fill="none" stroke="#191970" d="M1347.903,-299.8955C1230.1933,-296.3008 865.4553,-283.4853 564.5,-255 563.22,-254.8788 561.9324,-254.7542 560.6383,-254.6263"/>
<polygon fill="#191970" stroke="#191970" points="560.918,-251.1367 550.6103,-253.5867 560.1961,-258.0993 560.918,-251.1367"/>
</g>
<!-- Node7 -->
<g id="node8" class="node">
<title>Node7</title>
<g id="a_node8"><a xlink:title=" ">
<polygon fill="none" stroke="#bfbfbf" points="1354,-56.5 1354,-75.5 1423,-75.5 1423,-56.5 1354,-56.5"/>
<text text-anchor="middle" x="1388.5" y="-63.5" font-family="Helvetica,sans-Serif" font-size="10.00" fill="#000000">sstream</text>
</a>
</g>
</g>
<!-- Node0&#45;&gt;Node7 -->
<g id="edge7" class="edge">
<title>Node0&#45;&gt;Node7</title>
<path fill="none" stroke="#191970" d="M1390.3624,-291.3228C1393.8038,-282.1446 1398.5833,-267.8807 1400.5,-255 1409.8543,-192.1366 1408.5871,-175.0389 1400.5,-112 1399.3609,-103.1204 1397.0327,-93.5073 1394.7277,-85.3763"/>
<polygon fill="#191970" stroke="#191970" points="1398.0552,-84.2881 1391.8127,-75.7276 1391.3543,-86.3125 1398.0552,-84.2881"/>
</g>
<!-- Node8 -->
<g id="node9" class="node">
<title>Node8</title>
<g id="a_node9"><a xlink:title=" ">
<polygon fill="none" stroke="#bfbfbf" points="606.5,-230 606.5,-249 660.5,-249 660.5,-230 606.5,-230"/>
<text text-anchor="middle" x="633.5" y="-237" font-family="Helvetica,sans-Serif" font-size="10.00" fill="#000000">cmath</text>
</a>
</g>
</g>
<!-- Node0&#45;&gt;Node8 -->
<g id="edge8" class="edge">
<title>Node0&#45;&gt;Node8</title>
<path fill="none" stroke="#191970" d="M1347.5764,-300.0041C1218.3891,-296.4611 804.6503,-283.1461 674.5,-255 671.3017,-254.3083 668.0212,-253.4117 664.7761,-252.3985"/>
<polygon fill="#191970" stroke="#191970" points="665.8604,-249.0701 655.2656,-249.0975 663.565,-255.6831 665.8604,-249.0701"/>
</g>
<!-- Node9 -->
<g id="node10" class="node">
<title>Node9</title>
<g id="a_node10"><a xlink:href="maptiles_8h.html" target="_top" xlink:title="mapTiles() function.">
<polygon fill="none" stroke="#000000" points="236.5,-230 236.5,-249 328.5,-249 328.5,-230 236.5,-230"/>
<text text-anchor="middle" x="282.5" y="-237" font-family="Helvetica,sans-Serif" font-size="10.00" fill="#000000">maptiles.h</text>
</a>
</g>
</g>
<!-- Node0&#45;&gt;Node9 -->
<g id="edge9" class="edge">
<title>Node0&#45;&gt;Node9</title>
<path fill="none" stroke="#191970" d="M1347.8762,-300.4992C1183.0498,-298.1783 537.8471,-287.1795 337.5,-255 332.3071,-254.1659 326.9062,-253.0126 321.6062,-251.7079"/>
<polygon fill="#191970" stroke="#191970" points="322.1829,-248.2398 311.6196,-249.0568 320.3868,-255.0055 322.1829,-248.2398"/>
</g>
<!-- Node10 -->
<g id="node11" class="node">
<title>Node10</title>
<g id="a_node11"><a xlink:title=" ">
<polygon fill="none" stroke="#bfbfbf" points="52,-168.5 52,-187.5 91,-187.5 91,-168.5 52,-168.5"/>
<text text-anchor="middle" x="71.5" y="-175.5" font-family="Helvetica,sans-Serif" font-size="10.00" fill="#000000">map</text>
</a>
</g>
</g>
<!-- Node0&#45;&gt;Node10 -->
<g id="edge73" class="edge">
<title>Node0&#45;&gt;Node10</title>
<path fill="none" stroke="#191970" d="M1347.8667,-300.584C1156.8642,-298.3813 318.1742,-286.9499 206.5,-255 203.5256,-254.149 135.487,-214.9755 97.1634,-192.8413"/>
<polygon fill="#191970" stroke="#191970" points="98.5276,-189.5874 88.118,-187.6148 95.0255,-195.6483 98.5276,-189.5874"/>
</g>
<!-- Node14 -->
<g id="node15" class="node">
<title>Node14</title>
<g id="a_node15"><a xlink:title=" ">
<polygon fill="none" stroke="#bfbfbf" points="1202,-112.5 1202,-131.5 1271,-131.5 1271,-112.5 1202,-112.5"/>
<text text-anchor="middle" x="1236.5" y="-119.5" font-family="Helvetica,sans-Serif" font-size="10.00" fill="#000000">errno.h</text>
</a>
</g>
</g>
<!-- Node0&#45;&gt;Node14 -->
<g id="edge61" class="edge">
<title>Node0&#45;&gt;Node14</title>
<path fill="none" stroke="#191970" d="M1378.4353,-291.3762C1354.3234,-262.6027 1282.5247,-176.9228 1251.2893,-139.6485"/>
<polygon fill="#191970" stroke="#191970" points="1253.7101,-137.088 1244.6045,-131.6714 1248.3448,-141.5841 1253.7101,-137.088"/>
</g>
<!-- Node15 -->
<g id="node16" class="node">
<title>Node15</title>
<g id="a_node16"><a xlink:title=" ">
<polygon fill="none" stroke="#bfbfbf" points="1522,-56.5 1522,-75.5 1599,-75.5 1599,-56.5 1522,-56.5"/>
<text text-anchor="middle" x="1560.5" y="-63.5" font-family="Helvetica,sans-Serif" font-size="10.00" fill="#000000">unistd.h</text>
</a>
</g>
</g>
<!-- Node0&#45;&gt;Node15 -->
<g id="edge71" class="edge">
<title>Node0&#45;&gt;Node15</title>
<path fill="none" stroke="#191970" d="M1398.8064,-291.1604C1409.4458,-282.3223 1424.8973,-268.6683 1436.5,-255 1485.2729,-197.544 1530.6513,-119.9312 1550.2811,-84.737"/>
<polygon fill="#191970" stroke="#191970" points="1553.5484,-86.0606 1555.32,-75.6149 1547.421,-82.6759 1553.5484,-86.0606"/>
</g>
<!-- Node16 -->
<g id="node17" class="node">
<title>Node16</title>
<g id="a_node17"><a xlink:title=" ">
<polygon fill="none" stroke="#bfbfbf" points="1259,-56.5 1259,-75.5 1336,-75.5 1336,-56.5 1259,-56.5"/>
<text text-anchor="middle" x="1297.5" y="-63.5" font-family="Helvetica,sans-Serif" font-size="10.00" fill="#000000">stdint.h</text>
</a>
</g>
</g>
<!-- Node0&#45;&gt;Node16 -->
<g id="edge64" class="edge">
<title>Node0&#45;&gt;Node16</title>
<path fill="none" stroke="#191970" d="M1388.2201,-291.4684C1392.985,-262.1679 1403.7325,-171.7917 1367.5,-112 1359.1111,-98.1564 1344.783,-87.6547 1331.2666,-80.206"/>
<polygon fill="#191970" stroke="#191970" points="1332.6192,-76.9667 1322.1217,-75.5334 1329.4341,-83.2001 1332.6192,-76.9667"/>
</g>
<!-- Node17 -->
<g id="node18" class="node">
<title>Node17</title>
<g id="a_node18"><a xlink:title=" ">
<polygon fill="none" stroke="#bfbfbf" points="1289,-112.5 1289,-131.5 1358,-131.5 1358,-112.5 1289,-112.5"/>
<text text-anchor="middle" x="1323.5" y="-119.5" font-family="Helvetica,sans-Serif" font-size="10.00" fill="#000000">fstream</text>
</a>
</g>
</g>
<!-- Node0&#45;&gt;Node17 -->
<g id="edge72" class="edge">
<title>Node0&#45;&gt;Node17</title>
<path fill="none" stroke="#191970" d="M1383.1128,-291.3762C1373.1568,-263.0883 1343.8426,-179.7987 1330.3901,-141.5767"/>
<polygon fill="#191970" stroke="#191970" points="1333.5254,-139.9422 1326.9039,-131.6714 1326.9224,-142.2662 1333.5254,-139.9422"/>
</g>
<!-- Node28 -->
<g id="node29" class="node">
<title>Node28</title>
<g id="a_node29"><a xlink:href="mosaiccanvas_8h.html" target="_top" xlink:title="Implementation of the mosaic data structure.">
<polygon fill="none" stroke="#000000" points="147.5,-168.5 147.5,-187.5 269.5,-187.5 269.5,-168.5 147.5,-168.5"/>
<text text-anchor="middle" x="208.5" y="-175.5" font-family="Helvetica,sans-Serif" font-size="10.00" fill="#000000">mosaiccanvas.h</text>
</a>
</g>
</g>
<!-- Node0&#45;&gt;Node28 -->
<g id="edge58" class="edge">
<title>Node0&#45;&gt;Node28</title>
<path fill="none" stroke="#191970" d="M1347.9315,-300.7602C1151.7185,-299.3787 271.8496,-291.1783 227.5,-255 210.8796,-241.4419 207.4511,-215.8727 207.314,-197.9303"/>
<polygon fill="#191970" stroke="#191970" points="210.8193,-197.769 207.5794,-187.6818 203.8216,-197.5878 210.8193,-197.769"/>
</g>
<!-- Node32 -->
<g id="node33" class="node">
<title>Node32</title>
<g id="a_node33"><a xlink:href="sourceimage_8h.html" target="_top" xlink:title=" ">
<polygon fill="none" stroke="#000000" points="447.5,-168.5 447.5,-187.5 561.5,-187.5 561.5,-168.5 447.5,-168.5"/>
<text text-anchor="middle" x="504.5" y="-175.5" font-family="Helvetica,sans-Serif" font-size="10.00" fill="#000000">sourceimage.h</text>
</a>
</g>
</g>
<!-- Node0&#45;&gt;Node32 -->
<g id="edge59" class="edge">
<title>Node0&#45;&gt;Node32</title>
<path fill="none" stroke="#191970" d="M1347.5776,-299.5918C1212.9804,-294.5507 772.2106,-276.5521 712.5,-255 690.3396,-247.0014 690.7321,-234.2107 669.5,-224 636.9739,-208.3579 598.2034,-197.2084 566.4197,-189.8074"/>
<polygon fill="#191970" stroke="#191970" points="566.888,-186.325 556.3626,-187.5352 565.3454,-193.1529 566.888,-186.325"/>
</g>
<!-- Node33 -->
<g id="node34" class="node">
<title>Node33</title>
<g id="a_node34"><a xlink:title=" ">
<polygon fill="none" stroke="#bfbfbf" points="1529,-230 1529,-249 1628,-249 1628,-230 1529,-230"/>
<text text-anchor="middle" x="1578.5" y="-237" font-family="Helvetica,sans-Serif" font-size="10.00" fill="#000000">util/util.h</text>
</a>
</g>
</g>
<!-- Node0&#45;&gt;Node33 -->
<g id="edge60" class="edge">
<title>Node0&#45;&gt;Node33</title>
<path fill="none" stroke="#191970" d="M1416.5,-291.3906C1449.4705,-280.8298 1502.5717,-263.8208 1538.9303,-252.1747"/>
<polygon fill="#191970" stroke="#191970" points="1540.255,-255.4256 1548.7107,-249.0419 1538.1196,-248.7592 1540.255,-255.4256"/>
</g>
<!-- Node34 -->
<g id="node35" class="node">
<title>Node34</title>
<g id="a_node35"><a xlink:title=" ">
<polygon fill="none" stroke="#bfbfbf" points="1646,-230 1646,-249 1723,-249 1723,-230 1646,-230"/>
<text text-anchor="middle" x="1684.5" y="-237" font-family="Helvetica,sans-Serif" font-size="10.00" fill="#000000">limits.h</text>
</a>
</g>
</g>
<!-- Node0&#45;&gt;Node34 -->
<g id="edge62" class="edge">
<title>Node0&#45;&gt;Node34</title>
<path fill="none" stroke="#191970" d="M1425.1262,-295.6066C1474.7191,-288.2982 1563.2381,-273.9547 1637.5,-255 1640.8482,-254.1454 1644.3045,-253.1767 1647.7522,-252.151"/>
<polygon fill="#191970" stroke="#191970" points="1648.8456,-255.4763 1657.349,-249.1561 1646.7603,-248.7941 1648.8456,-255.4763"/>
</g>
<!-- Node35 -->
<g id="node36" class="node">
<title>Node35</title>
<g id="a_node36"><a xlink:title=" ">
<polygon fill="none" stroke="#bfbfbf" points="1741,-230 1741,-249 1810,-249 1810,-230 1741,-230"/>
<text text-anchor="middle" x="1775.5" y="-237" font-family="Helvetica,sans-Serif" font-size="10.00" fill="#000000">stdio.h</text>
</a>
</g>
</g>
<!-- Node0&#45;&gt;Node35 -->
<g id="edge63" class="edge">
<title>Node0&#45;&gt;Node35</title>
<path fill="none" stroke="#191970" d="M1425.139,-298.5684C1489.6049,-293.912 1622.8463,-281.7261 1732.5,-255 1735.661,-254.2296 1738.9125,-253.3083 1742.1443,-252.3044"/>
<polygon fill="#191970" stroke="#191970" points="1743.301,-255.6081 1751.6709,-249.1123 1741.077,-248.9708 1743.301,-255.6081"/>
</g>
<!-- Node36 -->
<g id="node37" class="node">
<title>Node36</title>
<g id="a_node37"><a xlink:title=" ">
<polygon fill="none" stroke="#bfbfbf" points="1828,-230 1828,-249 1905,-249 1905,-230 1828,-230"/>
<text text-anchor="middle" x="1866.5" y="-237" font-family="Helvetica,sans-Serif" font-size="10.00" fill="#000000">stdlib.h</text>
</a>
</g>
</g>
<!-- Node0&#45;&gt;Node36 -->
<g id="edge65" class="edge">
<title>Node0&#45;&gt;Node36</title>
<path fill="none" stroke="#191970" d="M1425.163,-299.6476C1501.393,-296.3779 1676.132,-285.8873 1819.5,-255 1823.3584,-254.1687 1827.3455,-253.1367 1831.2908,-252.0027"/>
<polygon fill="#191970" stroke="#191970" points="1832.3931,-255.3255 1840.9148,-249.0302 1830.3273,-248.6372 1832.3931,-255.3255"/>
</g>
<!-- Node37 -->
<g id="node38" class="node">
<title>Node37</title>
<g id="a_node38"><a xlink:title=" ">
<polygon fill="none" stroke="#bfbfbf" points="1923,-230 1923,-249 2000,-249 2000,-230 1923,-230"/>
<text text-anchor="middle" x="1961.5" y="-237" font-family="Helvetica,sans-Serif" font-size="10.00" fill="#000000">string.h</text>
</a>
</g>
</g>
<!-- Node0&#45;&gt;Node37 -->
<g id="edge66" class="edge">
<title>Node0&#45;&gt;Node37</title>
<path fill="none" stroke="#191970" d="M1425.3405,-298.787C1530.787,-292.5925 1820.7653,-274.2674 1914.5,-255 1918.3661,-254.2053 1922.3581,-253.1967 1926.3064,-252.0766"/>
<polygon fill="#191970" stroke="#191970" points="1927.4016,-255.4017 1935.9339,-249.1208 1925.347,-248.71 1927.4016,-255.4017"/>
</g>
<!-- Node38 -->
<g id="node39" class="node">
<title>Node38</title>
<g id="a_node39"><a xlink:title=" ">
<polygon fill="none" stroke="#bfbfbf" points="2018.5,-230 2018.5,-249 2110.5,-249 2110.5,-230 2018.5,-230"/>
<text text-anchor="middle" x="2064.5" y="-237" font-family="Helvetica,sans-Serif" font-size="10.00" fill="#000000">sys/stat.h</text>
</a>
</g>
</g>
<!-- Node0&#45;&gt;Node38 -->
<g id="edge67" class="edge">
<title>Node0&#45;&gt;Node38</title>
<path fill="none" stroke="#191970" d="M1425.3517,-299.1563C1543.3323,-293.3956 1896.2784,-274.9249 2009.5,-255 2014.5608,-254.1094 2019.8252,-252.9446 2025.0038,-251.6531"/>
<polygon fill="#191970" stroke="#191970" points="2026.0164,-255.0056 2034.7803,-249.0521 2024.2166,-248.2409 2026.0164,-255.0056"/>
</g>
<!-- Node39 -->
<g id="node40" class="node">
<title>Node39</title>
<g id="a_node40"><a xlink:title=" ">
<polygon fill="none" stroke="#bfbfbf" points="2128.5,-230 2128.5,-249 2220.5,-249 2220.5,-230 2128.5,-230"/>
<text text-anchor="middle" x="2174.5" y="-237" font-family="Helvetica,sans-Serif" font-size="10.00" fill="#000000">sys/time.h</text>
</a>
</g>
</g>
<!-- Node0&#45;&gt;Node39 -->
<g id="edge68" class="edge">
<title>Node0&#45;&gt;Node39</title>
<path fill="none" stroke="#191970" d="M1425.106,-299.6587C1556.2356,-294.9337 1983.9038,-278.0923 2119.5,-255 2124.6252,-254.1272 2129.9569,-252.9621 2135.1958,-251.6611"/>
<polygon fill="#191970" stroke="#191970" points="2136.313,-254.9857 2145.0773,-249.0327 2134.5136,-248.2209 2136.313,-254.9857"/>
</g>
<!-- Node40 -->
<g id="node41" class="node">
<title>Node40</title>
<g id="a_node41"><a xlink:title=" ">
<polygon fill="none" stroke="#bfbfbf" points="2239,-230 2239,-249 2338,-249 2338,-230 2239,-230"/>
<text text-anchor="middle" x="2288.5" y="-237" font-family="Helvetica,sans-Serif" font-size="10.00" fill="#000000">sys/types.h</text>
</a>
</g>
</g>
<!-- Node0&#45;&gt;Node40 -->
<g id="edge69" class="edge">
<title>Node0&#45;&gt;Node40</title>
<path fill="none" stroke="#191970" d="M1425.2837,-299.9266C1569.0384,-295.7858 2071.3075,-279.8331 2229.5,-255 2235.2642,-254.0951 2241.28,-252.8619 2247.1721,-251.4834"/>
<polygon fill="#191970" stroke="#191970" points="2248.0476,-254.8724 2256.905,-249.0589 2246.3555,-248.0799 2248.0476,-254.8724"/>
</g>
<!-- Node41 -->
<g id="node42" class="node">
<title>Node41</title>
<g id="a_node42"><a xlink:title=" ">
<polygon fill="none" stroke="#bfbfbf" points="2356.5,-230 2356.5,-249 2418.5,-249 2418.5,-230 2356.5,-230"/>
<text text-anchor="middle" x="2387.5" y="-237" font-family="Helvetica,sans-Serif" font-size="10.00" fill="#000000">time.h</text>
</a>
</g>
</g>
<!-- Node0&#45;&gt;Node41 -->
<g id="edge70" class="edge">
<title>Node0&#45;&gt;Node41</title>
<path fill="none" stroke="#191970" d="M1425.0868,-300.8024C1581.276,-299.7483 2166.8354,-293.2726 2347.5,-255 2350.7058,-254.3209 2353.9912,-253.4173 2357.2343,-252.3865"/>
<polygon fill="#191970" stroke="#191970" points="2358.4682,-255.6625 2366.7139,-249.0097 2356.1192,-249.0683 2358.4682,-255.6625"/>
</g>
<!-- Node9&#45;&gt;Node3 -->
<g id="edge11" class="edge">
<title>Node9&#45;&gt;Node3</title>
<path fill="none" stroke="#191970" d="M288.134,-229.8031C300.6415,-208.3589 331.8112,-155.3748 359.5,-112 365.4364,-102.7005 372.2679,-92.5121 378.0044,-84.0926"/>
<polygon fill="#191970" stroke="#191970" points="380.9377,-86.0038 383.7052,-75.7768 375.1641,-82.0458 380.9377,-86.0038"/>
</g>
<!-- Node9&#45;&gt;Node4 -->
<g id="edge12" class="edge">
<title>Node9&#45;&gt;Node4</title>
<path fill="none" stroke="#191970" d="M236.3045,-230.4137C206.2528,-222.8053 167.4196,-209.6221 138.5,-188 100.8896,-159.8803 72.3398,-111.3852 58.5836,-84.793"/>
<polygon fill="#191970" stroke="#191970" points="61.6636,-83.1272 54.0477,-75.7619 55.4083,-86.269 61.6636,-83.1272"/>
</g>
<!-- Node9&#45;&gt;Node10 -->
<g id="edge10" class="edge">
<title>Node9&#45;&gt;Node10</title>
<path fill="none" stroke="#191970" d="M249.5436,-229.942C213.991,-219.6239 155.7209,-202.6915 105.5,-188 104.0606,-187.5789 102.587,-187.1474 101.0989,-186.7111"/>
<polygon fill="#191970" stroke="#191970" points="101.8547,-183.2854 91.2737,-183.8263 99.8826,-190.0018 101.8547,-183.2854"/>
</g>
<!-- Node11 -->
<g id="node12" class="node">
<title>Node11</title>
<g id="a_node12"><a xlink:href="kdtree_8h.html" target="_top" xlink:title="KDTree implementation using Points in k&#45;dimensional space.">
<polygon fill="none" stroke="#000000" points="845,-168.5 845,-187.5 922,-187.5 922,-168.5 845,-168.5"/>
<text text-anchor="middle" x="883.5" y="-175.5" font-family="Helvetica,sans-Serif" font-size="10.00" fill="#000000">kdtree.h</text>
</a>
</g>
</g>
<!-- Node9&#45;&gt;Node11 -->
<g id="edge13" class="edge">
<title>Node9&#45;&gt;Node11</title>
<path fill="none" stroke="#191970" d="M312.5169,-229.9247C320.5602,-227.6666 329.3004,-225.4868 337.5,-224 518.8405,-191.1191 738.4172,-181.6605 834.4984,-179.0045"/>
<polygon fill="#191970" stroke="#191970" points="834.8705,-182.496 844.7747,-178.7336 834.6859,-175.4985 834.8705,-182.496"/>
</g>
<!-- Node9&#45;&gt;Node28 -->
<g id="edge46" class="edge">
<title>Node9&#45;&gt;Node28</title>
<path fill="none" stroke="#191970" d="M270.9375,-229.8906C259.4921,-220.3786 241.7527,-205.6357 228.103,-194.2917"/>
<polygon fill="#191970" stroke="#191970" points="230.1533,-191.4447 220.2255,-187.7449 225.6792,-196.8283 230.1533,-191.4447"/>
</g>
<!-- Node29 -->
<g id="node30" class="node">
<title>Node29</title>
<g id="a_node30"><a xlink:href="tileimage_8h.html" target="_top" xlink:title=" ">
<polygon fill="none" stroke="#000000" points="170,-112.5 170,-131.5 269,-131.5 269,-112.5 170,-112.5"/>
<text text-anchor="middle" x="219.5" y="-119.5" font-family="Helvetica,sans-Serif" font-size="10.00" fill="#000000">tileimage.h</text>
</a>
</g>
</g>
<!-- Node9&#45;&gt;Node29 -->
<g id="edge57" class="edge">
<title>Node9&#45;&gt;Node29</title>
<path fill="none" stroke="#191970" d="M284.3958,-229.5789C286.6397,-215.1206 288.8783,-187.8267 278.5,-168 271.6841,-154.9789 259.3663,-144.4814 247.7422,-136.8207"/>
<polygon fill="#191970" stroke="#191970" points="249.4464,-133.7602 239.091,-131.5206 245.7896,-139.7291 249.4464,-133.7602"/>
</g>
<!-- Node9&#45;&gt;Node32 -->
<g id="edge54" class="edge">
<title>Node9&#45;&gt;Node32</title>
<path fill="none" stroke="#191970" d="M316.2317,-229.9598C323.2584,-227.982 330.6193,-225.9172 337.5,-224 378.8492,-212.4788 426.0045,-199.5051 459.6373,-190.2801"/>
<polygon fill="#191970" stroke="#191970" points="460.9008,-193.5629 469.6195,-187.5433 459.0499,-186.8121 460.9008,-193.5629"/>
</g>
<!-- Node11&#45;&gt;Node1 -->
<g id="edge22" class="edge">
<title>Node11&#45;&gt;Node1</title>
<path fill="none" stroke="#191970" d="M844.9871,-175.1741C792.2394,-170.4548 695.1067,-158.7092 616.5,-132 598.4294,-125.8599 595.4806,-120.7125 578.5,-112 546.6684,-95.6676 525.3091,-106.4338 506.5,-76 501.8268,-68.4387 501.0671,-63.0353 506.5,-56 522.0106,-35.9144 587.407,-22.9188 633.9434,-16.027"/>
<polygon fill="#191970" stroke="#191970" points="634.4523,-19.4899 643.8555,-14.6081 633.4604,-12.5605 634.4523,-19.4899"/>
</g>
<!-- Node11&#45;&gt;Node3 -->
<g id="edge14" class="edge">
<title>Node11&#45;&gt;Node3</title>
<path fill="none" stroke="#191970" d="M844.8715,-176.5859C755.2598,-172.8483 535.7536,-160.9371 468.5,-132 442.9683,-121.0145 419.4703,-98.7518 405.0811,-83.1319"/>
<polygon fill="#191970" stroke="#191970" points="407.6911,-80.8 398.4243,-75.6641 402.4658,-85.4579 407.6911,-80.8"/>
</g>
<!-- Node11&#45;&gt;Node5 -->
<g id="edge20" class="edge">
<title>Node11&#45;&gt;Node5</title>
<path fill="none" stroke="#191970" d="M922.3967,-172.5292C968.2458,-165.538 1046.4359,-151.9085 1111.5,-132 1133.5997,-125.2379 1137.1833,-118.0073 1159.5,-112 1274.561,-81.0274 1310.3912,-97.9278 1431.1324,-76.064"/>
<polygon fill="#191970" stroke="#191970" points="1431.9423,-79.4734 1441.1319,-74.2007 1430.6599,-72.5919 1431.9423,-79.4734"/>
</g>
<!-- Node11&#45;&gt;Node7 -->
<g id="edge21" class="edge">
<title>Node11&#45;&gt;Node7</title>
<path fill="none" stroke="#191970" d="M922.2075,-170.4936C960.9561,-162.5457 1022.0502,-148.8311 1073.5,-132 1095.4656,-124.8142 1099.2703,-118.3218 1121.5,-112 1215.4565,-85.2801 1244.7353,-94.781 1343.983,-76.1748"/>
<polygon fill="#191970" stroke="#191970" points="1344.6518,-79.6104 1353.8105,-74.2843 1343.3294,-72.7364 1344.6518,-79.6104"/>
</g>
<!-- Node12 -->
<g id="node13" class="node">
<title>Node12</title>
<g id="a_node13"><a xlink:title=" ">
<polygon fill="none" stroke="#bfbfbf" points="705.5,-56.5 705.5,-75.5 849.5,-75.5 849.5,-56.5 705.5,-56.5"/>
<text text-anchor="middle" x="777.5" y="-63.5" font-family="Helvetica,sans-Serif" font-size="10.00" fill="#000000">util/coloredout.h</text>
</a>
</g>
</g>
<!-- Node11&#45;&gt;Node12 -->
<g id="edge15" class="edge">
<title>Node11&#45;&gt;Node12</title>
<path fill="none" stroke="#191970" d="M856.9892,-168.4941C839.4202,-160.9935 817.0167,-148.9507 802.5,-132 791.18,-118.782 784.7256,-99.9152 781.2222,-85.7364"/>
<polygon fill="#191970" stroke="#191970" points="784.5557,-84.5944 779.0087,-75.5677 777.7158,-86.0834 784.5557,-84.5944"/>
</g>
<!-- Node13 -->
<g id="node14" class="node">
<title>Node13</title>
<g id="a_node14"><a xlink:title=" ">
<polygon fill="none" stroke="#bfbfbf" points="477.5,-112.5 477.5,-131.5 569.5,-131.5 569.5,-112.5 477.5,-112.5"/>
<text text-anchor="middle" x="523.5" y="-119.5" font-family="Helvetica,sans-Serif" font-size="10.00" fill="#000000">sys/wait.h</text>
</a>
</g>
</g>
<!-- Node11&#45;&gt;Node13 -->
<g id="edge16" class="edge">
<title>Node11&#45;&gt;Node13</title>
<path fill="none" stroke="#191970" d="M844.6404,-172.2064C787.4228,-163.6385 677.1546,-146.9841 583.5,-132 582.2389,-131.7982 580.963,-131.5932 579.6766,-131.3857"/>
<polygon fill="#191970" stroke="#191970" points="580.1103,-127.9103 569.6779,-129.7585 578.9858,-134.8194 580.1103,-127.9103"/>
</g>
<!-- Node11&#45;&gt;Node14 -->
<g id="edge17" class="edge">
<title>Node11&#45;&gt;Node14</title>
<path fill="none" stroke="#191970" d="M922.4748,-172.7526C980.4159,-164.8047 1092.6358,-148.8459 1187.5,-132 1188.9426,-131.7438 1190.4079,-131.478 1191.8866,-131.2048"/>
<polygon fill="#191970" stroke="#191970" points="1192.5778,-134.6362 1201.7434,-129.3217 1191.2642,-127.7605 1192.5778,-134.6362"/>
</g>
<!-- Node11&#45;&gt;Node15 -->
<g id="edge18" class="edge">
<title>Node11&#45;&gt;Node15</title>
<path fill="none" stroke="#191970" d="M922.132,-174.5484C974.5738,-169.1393 1070.7806,-156.6353 1149.5,-132 1169.6151,-125.7049 1172.2073,-117.6969 1192.5,-112 1327.1975,-74.1856 1369.2938,-97.5152 1511.8003,-75.9483"/>
<polygon fill="#191970" stroke="#191970" points="1512.4445,-79.3902 1521.7848,-74.3893 1511.3645,-72.474 1512.4445,-79.3902"/>
</g>
<!-- Node11&#45;&gt;Node16 -->
<g id="edge19" class="edge">
<title>Node11&#45;&gt;Node16</title>
<path fill="none" stroke="#191970" d="M918.5386,-168.4827C949.5588,-159.8002 995.9225,-146.1932 1035.5,-132 1057.2545,-124.1985 1061.4435,-118.9018 1083.5,-112 1091.4067,-109.5259 1187.8692,-89.0718 1248.5533,-76.2852"/>
<polygon fill="#191970" stroke="#191970" points="1249.6378,-79.6337 1258.7019,-74.148 1248.1953,-72.7839 1249.6378,-79.6337"/>
</g>
<!-- Node11&#45;&gt;Node17 -->
<g id="edge23" class="edge">
<title>Node11&#45;&gt;Node17</title>
<path fill="none" stroke="#191970" d="M922.2028,-174.9002C991.5697,-169.0426 1141.8011,-154.9872 1278.7298,-131.9602"/>
<polygon fill="#191970" stroke="#191970" points="1279.7126,-135.3433 1288.9833,-130.2146 1278.5377,-128.4426 1279.7126,-135.3433"/>
</g>
<!-- Node18 -->
<g id="node19" class="node">
<title>Node18</title>
<g id="a_node19"><a xlink:href="point_8h.html" target="_top" xlink:title="Definition of a Point class for k dimensional points.">
<polygon fill="none" stroke="#000000" points="1172,-56.5 1172,-75.5 1241,-75.5 1241,-56.5 1172,-56.5"/>
<text text-anchor="middle" x="1206.5" y="-63.5" font-family="Helvetica,sans-Serif" font-size="10.00" fill="#000000">point.h</text>
</a>
</g>
</g>
<!-- Node11&#45;&gt;Node18 -->
<g id="edge24" class="edge">
<title>Node11&#45;&gt;Node18</title>
<path fill="none" stroke="#191970" d="M904.706,-168.4961C935.3873,-154.9447 994.1175,-129.7485 1045.5,-112 1084.4699,-98.5391 1129.6763,-85.8743 1162.2477,-77.2552"/>
<polygon fill="#191970" stroke="#191970" points="1163.1459,-80.6381 1171.9295,-74.7138 1161.3686,-73.8674 1163.1459,-80.6381"/>
</g>
<!-- Node22 -->
<g id="node23" class="node">
<title>Node22</title>
<g id="a_node23"><a xlink:href="kdtree_8hpp.html" target="_top" xlink:title=" ">
<polygon fill="none" stroke="#000000" points="625.5,-112.5 625.5,-131.5 717.5,-131.5 717.5,-112.5 625.5,-112.5"/>
<text text-anchor="middle" x="671.5" y="-119.5" font-family="Helvetica,sans-Serif" font-size="10.00" fill="#000000">kdtree.hpp</text>
</a>
</g>
</g>
<!-- Node11&#45;&gt;Node22 -->
<g id="edge29" class="edge">
<title>Node11&#45;&gt;Node22</title>
<path fill="none" stroke="#191970" d="M847.0559,-168.3733C811.1931,-158.9001 756.3122,-144.4032 717.4718,-134.1435"/>
<polygon fill="#191970" stroke="#191970" points="718.0308,-130.6712 707.4685,-131.5011 716.243,-137.439 718.0308,-130.6712"/>
</g>
<!-- Node24 -->
<g id="node25" class="node">
<title>Node24</title>
<g id="a_node25"><a xlink:title=" ">
<polygon fill="none" stroke="#bfbfbf" points="603.5,-56.5 603.5,-75.5 687.5,-75.5 687.5,-56.5 603.5,-56.5"/>
<text text-anchor="middle" x="645.5" y="-63.5" font-family="Helvetica,sans-Serif" font-size="10.00" fill="#000000">algorithm</text>
</a>
</g>
</g>
<!-- Node11&#45;&gt;Node24 -->
<g id="edge45" class="edge">
<title>Node11&#45;&gt;Node24</title>
<path fill="none" stroke="#191970" d="M863.2083,-168.4509C821.0537,-148.6135 723.8612,-102.8758 674.8662,-79.8194"/>
<polygon fill="#191970" stroke="#191970" points="676.2789,-76.616 665.7404,-75.5249 673.2983,-82.9498 676.2789,-76.616"/>
</g>
<!-- Node25 -->
<g id="node26" class="node">
<title>Node25</title>
<g id="a_node26"><a xlink:href="kdtree__extras_8hpp.html" target="_top" xlink:title=" ">
<polygon fill="none" stroke="#000000" points="811.5,-112.5 811.5,-131.5 955.5,-131.5 955.5,-112.5 811.5,-112.5"/>
<text text-anchor="middle" x="883.5" y="-119.5" font-family="Helvetica,sans-Serif" font-size="10.00" fill="#000000">kdtree_extras.hpp</text>
</a>
</g>
</g>
<!-- Node11&#45;&gt;Node25 -->
<g id="edge32" class="edge">
<title>Node11&#45;&gt;Node25</title>
<path fill="none" stroke="#191970" d="M878.2332,-168.2455C876.8221,-160.9382 876.4179,-150.6944 877.0205,-141.7046"/>
<polygon fill="#191970" stroke="#191970" points="880.5111,-141.9945 878.2549,-131.6427 873.5632,-141.1421 880.5111,-141.9945"/>
</g>
<!-- Node18&#45;&gt;Node1 -->
<g id="edge26" class="edge">
<title>Node18&#45;&gt;Node1</title>
<path fill="none" stroke="#191970" d="M1171.8036,-61.6312C1157.205,-59.8288 1140.0335,-57.7553 1124.5,-56 981.6908,-39.8621 812.678,-22.8533 731.214,-14.786"/>
<polygon fill="#191970" stroke="#191970" points="731.5467,-11.3019 721.2507,-13.8008 730.8577,-18.268 731.5467,-11.3019"/>
</g>
<!-- Node19 -->
<g id="node20" class="node">
<title>Node19</title>
<g id="a_node20"><a xlink:title=" ">
<polygon fill="none" stroke="#bfbfbf" points="1188,-.5 1188,-19.5 1257,-19.5 1257,-.5 1188,-.5"/>
<text text-anchor="middle" x="1222.5" y="-7.5" font-family="Helvetica,sans-Serif" font-size="10.00" fill="#000000">cstdarg</text>
</a>
</g>
</g>
<!-- Node18&#45;&gt;Node19 -->
<g id="edge25" class="edge">
<title>Node18&#45;&gt;Node19</title>
<path fill="none" stroke="#191970" d="M1209.287,-56.2455C1211.3977,-48.8579 1214.366,-38.4689 1216.9547,-29.4087"/>
<polygon fill="#191970" stroke="#191970" points="1220.363,-30.2195 1219.745,-19.6427 1213.6323,-28.2964 1220.363,-30.2195"/>
</g>
<!-- Node20 -->
<g id="node21" class="node">
<title>Node20</title>
<g id="a_node21"><a xlink:title=" ">
<polygon fill="none" stroke="#bfbfbf" points="1085.5,-.5 1085.5,-19.5 1169.5,-19.5 1169.5,-.5 1085.5,-.5"/>
<text text-anchor="middle" x="1127.5" y="-7.5" font-family="Helvetica,sans-Serif" font-size="10.00" fill="#000000">stdexcept</text>
</a>
</g>
</g>
<!-- Node18&#45;&gt;Node20 -->
<g id="edge27" class="edge">
<title>Node18&#45;&gt;Node20</title>
<path fill="none" stroke="#191970" d="M1192.7393,-56.2455C1180.8448,-47.814 1163.435,-35.4729 1149.5915,-25.6598"/>
<polygon fill="#191970" stroke="#191970" points="1151.2854,-22.5704 1141.1031,-19.6427 1147.2372,-28.2811 1151.2854,-22.5704"/>
</g>
<!-- Node21 -->
<g id="node22" class="node">
<title>Node21</title>
<g id="a_node22"><a xlink:href="point_8cpp.html" target="_top" xlink:title="Implementation of Point class.">
<polygon fill="none" stroke="#000000" points="1275.5,-.5 1275.5,-19.5 1359.5,-19.5 1359.5,-.5 1275.5,-.5"/>
<text text-anchor="middle" x="1317.5" y="-7.5" font-family="Helvetica,sans-Serif" font-size="10.00" fill="#000000">point.cpp</text>
</a>
</g>
</g>
<!-- Node18&#45;&gt;Node21 -->
<g id="edge28" class="edge">
<title>Node18&#45;&gt;Node21</title>
<path fill="none" stroke="#191970" d="M1225.5816,-56.3733C1243.2402,-47.4644 1269.7053,-34.1127 1289.7098,-24.0203"/>
<polygon fill="#191970" stroke="#191970" points="1291.3158,-27.1303 1298.6674,-19.5011 1288.1628,-20.8806 1291.3158,-27.1303"/>
</g>
<!-- Node23 -->
<g id="node24" class="node">
<title>Node23</title>
<g id="a_node24"><a xlink:title=" ">
<polygon fill="none" stroke="#bfbfbf" points="516,-56.5 516,-75.5 585,-75.5 585,-56.5 516,-56.5"/>
<text text-anchor="middle" x="550.5" y="-63.5" font-family="Helvetica,sans-Serif" font-size="10.00" fill="#000000">utility</text>
</a>
</g>
</g>
<!-- Node22&#45;&gt;Node23 -->
<g id="edge30" class="edge">
<title>Node22&#45;&gt;Node23</title>
<path fill="none" stroke="#191970" d="M650.6994,-112.3733C631.2757,-103.3838 602.0776,-89.8706 580.2036,-79.7471"/>
<polygon fill="#191970" stroke="#191970" points="581.5745,-76.5249 571.0292,-75.5011 578.6344,-82.8776 581.5745,-76.5249"/>
</g>
<!-- Node22&#45;&gt;Node24 -->
<g id="edge31" class="edge">
<title>Node22&#45;&gt;Node24</title>
<path fill="none" stroke="#191970" d="M666.9711,-112.2455C663.4666,-104.6973 658.5073,-94.0158 654.2377,-84.8197"/>
<polygon fill="#191970" stroke="#191970" points="657.3627,-83.2389 649.977,-75.6427 651.0136,-86.1867 657.3627,-83.2389"/>
</g>
<!-- Node25&#45;&gt;Node1 -->
<g id="edge35" class="edge">
<title>Node25&#45;&gt;Node1</title>
<path fill="none" stroke="#191970" d="M882.5983,-112.3808C880.724,-97.9769 875.0851,-70.9074 858.5,-56 839.8297,-39.2183 776.4747,-25.5399 731.1337,-17.5823"/>
<polygon fill="#191970" stroke="#191970" points="731.6301,-14.1164 721.1824,-15.8761 730.4471,-21.0157 731.6301,-14.1164"/>
</g>
<!-- Node25&#45;&gt;Node3 -->
<g id="edge36" class="edge">
<title>Node25&#45;&gt;Node3</title>
<path fill="none" stroke="#191970" d="M811.2856,-113.7971C706.5125,-101.8959 515.7328,-80.2252 431.8946,-70.702"/>
<polygon fill="#191970" stroke="#191970" points="432.0705,-67.1996 421.7394,-69.5485 431.2804,-74.1549 432.0705,-67.1996"/>
</g>
<!-- Node25&#45;&gt;Node5 -->
<g id="edge37" class="edge">
<title>Node25&#45;&gt;Node5</title>
<path fill="none" stroke="#191970" d="M955.8999,-119.654C1059.4045,-115.476 1255.672,-104.4964 1431.2237,-75.98"/>
<polygon fill="#191970" stroke="#191970" points="1431.8592,-79.4225 1441.1574,-74.3437 1430.7215,-72.5156 1431.8592,-79.4225"/>
</g>
<!-- Node25&#45;&gt;Node7 -->
<g id="edge34" class="edge">
<title>Node25&#45;&gt;Node7</title>
<path fill="none" stroke="#191970" d="M955.5038,-117.7241C1044.5745,-111.7879 1200.9721,-99.2555 1343.599,-76.1472"/>
<polygon fill="#191970" stroke="#191970" points="1344.5425,-79.5392 1353.8432,-74.4651 1343.4082,-72.6317 1344.5425,-79.5392"/>
</g>
<!-- Node25&#45;&gt;Node11 -->
<g id="edge44" class="edge">
<title>Node25&#45;&gt;Node11</title>
<path fill="none" stroke="#191970" d="M888.7451,-131.6427C890.1665,-138.9199 890.581,-149.155 889.9887,-158.1575"/>
<polygon fill="#191970" stroke="#191970" points="886.4947,-157.8972 888.7668,-168.2455 893.4439,-158.739 886.4947,-157.8972"/>
</g>
<!-- Node25&#45;&gt;Node12 -->
<g id="edge42" class="edge">
<title>Node25&#45;&gt;Node12</title>
<path fill="none" stroke="#191970" d="M865.0362,-112.2455C848.3926,-103.4527 823.7007,-90.4079 804.7808,-80.4125"/>
<polygon fill="#191970" stroke="#191970" points="806.2291,-77.2193 795.7522,-75.6427 802.9592,-83.4086 806.2291,-77.2193"/>
</g>
<!-- Node25&#45;&gt;Node15 -->
<g id="edge33" class="edge">
<title>Node25&#45;&gt;Node15</title>
<path fill="none" stroke="#191970" d="M955.5193,-119.8333C1070.8553,-115.6804 1304.2218,-104.4743 1511.6354,-75.9364"/>
<polygon fill="#191970" stroke="#191970" points="1512.3828,-79.3662 1521.8045,-74.5203 1511.4173,-72.4331 1512.3828,-79.3662"/>
</g>
<!-- Node25&#45;&gt;Node18 -->
<g id="edge43" class="edge">
<title>Node25&#45;&gt;Node18</title>
<path fill="none" stroke="#191970" d="M944.0099,-112.4648C999.6017,-103.5566 1084.2323,-89.6222 1157.5,-76 1158.9671,-75.7272 1160.4581,-75.446 1161.9632,-75.1587"/>
<polygon fill="#191970" stroke="#191970" points="1162.8523,-78.5513 1171.996,-73.1993 1161.5105,-71.6811 1162.8523,-78.5513"/>
</g>
<!-- Node25&#45;&gt;Node20 -->
<g id="edge40" class="edge">
<title>Node25&#45;&gt;Node20</title>
<path fill="none" stroke="#191970" d="M955.6761,-112.7917C1022.5631,-103.5357 1113.3796,-88.8385 1124.5,-76 1135.2717,-63.564 1134.9144,-44.3438 1132.5177,-29.8461"/>
<polygon fill="#191970" stroke="#191970" points="1135.9053,-28.9457 1130.4379,-19.8706 1129.0527,-30.3745 1135.9053,-28.9457"/>
</g>
<!-- Node25&#45;&gt;Node24 -->
<g id="edge38" class="edge">
<title>Node25&#45;&gt;Node24</title>
<path fill="none" stroke="#191970" d="M842.8568,-112.4369C802.2105,-102.8731 739.6087,-88.1432 695.8413,-77.845"/>
<polygon fill="#191970" stroke="#191970" points="696.5114,-74.4072 685.9756,-75.5237 694.9081,-81.2211 696.5114,-74.4072"/>
</g>
<!-- Node26 -->
<g id="node27" class="node">
<title>Node26</title>
<g id="a_node27"><a xlink:title=" ">
<polygon fill="none" stroke="#bfbfbf" points="906,-56.5 906,-75.5 975,-75.5 975,-56.5 906,-56.5"/>
<text text-anchor="middle" x="940.5" y="-63.5" font-family="Helvetica,sans-Serif" font-size="10.00" fill="#000000">iomanip</text>
</a>
</g>
</g>
<!-- Node25&#45;&gt;Node26 -->
<g id="edge39" class="edge">
<title>Node25&#45;&gt;Node26</title>
<path fill="none" stroke="#191970" d="M893.4286,-112.2455C901.6838,-104.1352 913.6209,-92.4075 923.4082,-82.7919"/>
<polygon fill="#191970" stroke="#191970" points="926.0046,-85.1476 930.6851,-75.6427 921.0989,-80.1542 926.0046,-85.1476"/>
</g>
<!-- Node27 -->
<g id="node28" class="node">
<title>Node27</title>
<g id="a_node28"><a xlink:title=" ">
<polygon fill="none" stroke="#bfbfbf" points="993.5,-56.5 993.5,-75.5 1115.5,-75.5 1115.5,-56.5 993.5,-56.5"/>
<text text-anchor="middle" x="1054.5" y="-63.5" font-family="Helvetica,sans-Serif" font-size="10.00" fill="#000000">util/no_sort.h</text>
</a>
</g>
</g>
<!-- Node25&#45;&gt;Node27 -->
<g id="edge41" class="edge">
<title>Node25&#45;&gt;Node27</title>
<path fill="none" stroke="#191970" d="M912.8959,-112.3733C941.3307,-103.0613 984.5877,-88.8953 1015.8081,-78.671"/>
<polygon fill="#191970" stroke="#191970" points="1017.0736,-81.9396 1025.4876,-75.5011 1014.895,-75.2872 1017.0736,-81.9396"/>
</g>
<!-- Node28&#45;&gt;Node3 -->
<g id="edge47" class="edge">
<title>Node28&#45;&gt;Node3</title>
<path fill="none" stroke="#191970" d="M224.0172,-168.4509C255.7158,-148.9441 328.111,-104.3932 366.1398,-80.9909"/>
<polygon fill="#191970" stroke="#191970" points="368.3398,-83.7467 375.0221,-75.5249 364.6711,-77.7851 368.3398,-83.7467"/>
</g>
<!-- Node28&#45;&gt;Node4 -->
<g id="edge48" class="edge">
<title>Node28&#45;&gt;Node4</title>
<path fill="none" stroke="#191970" d="M189.2372,-168.3588C172.4332,-159.648 147.6569,-146.0692 127.5,-132 105.6536,-116.7516 82.5943,-96.6788 67.2643,-82.6904"/>
<polygon fill="#191970" stroke="#191970" points="69.3215,-79.8261 59.5997,-75.6144 64.5731,-84.9694 69.3215,-79.8261"/>
</g>
<!-- Node28&#45;&gt;Node29 -->
<g id="edge49" class="edge">
<title>Node28&#45;&gt;Node29</title>
<path fill="none" stroke="#191970" d="M210.4161,-168.2455C211.8514,-160.9382 213.8636,-150.6944 215.6295,-141.7046"/>
<polygon fill="#191970" stroke="#191970" points="219.1127,-142.1298 217.6059,-131.6427 212.244,-140.7805 219.1127,-142.1298"/>
</g>
<!-- Node29&#45;&gt;Node4 -->
<g id="edge52" class="edge">
<title>Node29&#45;&gt;Node4</title>
<path fill="none" stroke="#191970" d="M190.276,-112.3733C162.0075,-103.0613 119.0035,-88.8953 87.9656,-78.671"/>
<polygon fill="#191970" stroke="#191970" points="88.9357,-75.3056 78.3427,-75.5011 86.7456,-81.9542 88.9357,-75.3056"/>
</g>
<!-- Node29&#45;&gt;Node16 -->
<g id="edge51" class="edge">
<title>Node29&#45;&gt;Node16</title>
<path fill="none" stroke="#191970" d="M269.2427,-120.0014C460.4954,-112.2893 1142.6774,-84.5172 1248.6427,-75.6268"/>
<polygon fill="#191970" stroke="#191970" points="1249.2123,-79.0876 1258.8171,-74.6158 1248.52,-72.1219 1249.2123,-79.0876"/>
</g>
<!-- Node30 -->
<g id="node31" class="node">
<title>Node30</title>
<g id="a_node31"><a xlink:title=" ">
<polygon fill="none" stroke="#bfbfbf" points="117.5,-56.5 117.5,-75.5 179.5,-75.5 179.5,-56.5 117.5,-56.5"/>
<text text-anchor="middle" x="148.5" y="-63.5" font-family="Helvetica,sans-Serif" font-size="10.00" fill="#000000">math.h</text>
</a>
</g>
</g>
<!-- Node29&#45;&gt;Node30 -->
<g id="edge50" class="edge">
<title>Node29&#45;&gt;Node30</title>
<path fill="none" stroke="#191970" d="M207.1327,-112.2455C196.5446,-103.8943 181.0936,-91.7076 168.7107,-81.9408"/>
<polygon fill="#191970" stroke="#191970" points="170.7447,-79.0875 160.7255,-75.6427 166.4097,-84.5837 170.7447,-79.0875"/>
</g>
<!-- Node31 -->
<g id="node32" class="node">
<title>Node31</title>
<g id="a_node32"><a xlink:title=" ">
<polygon fill="none" stroke="#bfbfbf" points="197.5,-56.5 197.5,-75.5 341.5,-75.5 341.5,-56.5 197.5,-56.5"/>
<text text-anchor="middle" x="269.5" y="-63.5" font-family="Helvetica,sans-Serif" font-size="10.00" fill="#000000">cs225/LUVAPixel.h</text>
</a>
</g>
</g>
<!-- Node29&#45;&gt;Node31 -->
<g id="edge53" class="edge">
<title>Node29&#45;&gt;Node31</title>
<path fill="none" stroke="#191970" d="M228.2093,-112.2455C235.3073,-104.2958 245.5084,-92.8706 253.995,-83.3656"/>
<polygon fill="#191970" stroke="#191970" points="256.8411,-85.4331 260.8905,-75.6427 251.6195,-80.771 256.8411,-85.4331"/>
</g>
<!-- Node32&#45;&gt;Node4 -->
<g id="edge56" class="edge">
<title>Node32&#45;&gt;Node4</title>
<path fill="none" stroke="#191970" d="M447.1588,-173.1988C363.4301,-165.7027 212.0702,-150.1784 160.5,-132 144.3254,-126.2985 142.2198,-120.8006 127.5,-112 109.9564,-101.5112 90.1137,-89.8113 74.8323,-80.836"/>
<polygon fill="#191970" stroke="#191970" points="76.3644,-77.677 65.9683,-75.6348 72.8218,-83.7144 76.3644,-77.677"/>
</g>
<!-- Node32&#45;&gt;Node16 -->
<g id="edge55" class="edge">
<title>Node32&#45;&gt;Node16</title>
<path fill="none" stroke="#191970" d="M561.6109,-175.503C649.0274,-170.9599 820.9777,-159.1741 964.5,-132 996.7113,-125.9012 1003.511,-119.1742 1035.5,-112 1126.4851,-91.5948 1152.9732,-93.6697 1248.6456,-76.0892"/>
<polygon fill="#191970" stroke="#191970" points="1249.563,-79.4786 1258.753,-74.2066 1248.2811,-72.5969 1249.563,-79.4786"/>
</g>
</g>
</svg>
        <g id="navigator" transform="translate(0 0)" fill="#404254">
                <rect fill="#f2f5e9" fill-opacity="0.5" stroke="#606060" stroke-width=".5" x="0" y="0" width="60" height="60"/>
                <use id="zoomplus" xlink:href="#zoomPlus" x="17" y="9" onmousedown="handleZoom(evt,'in')"/>
                <use id="zoomminus" xlink:href="#zoomMin" x="42" y="9" onmousedown="handleZoom(evt,'out')"/>
                <use id="reset" xlink:href="#resetDef" x="30" y="36" onmousedown="handleReset()"/>
                <g id="arrowUp" xlink:href="#dirArrow" transform="translate(30 24)" onmousedown="handlePan(0,-1)">
                  <use xlink:href="#rim" fill="#404040">
                        <set attributeName="fill" to="#808080" begin="arrowUp.mouseover" end="arrowUp.mouseout"/>
                  </use>
                  <path fill="none" stroke="white" stroke-width="1.5" d="M0,-3.0v7 M-2.5,-0.5L0,-3.0L2.5,-0.5"/>
                </g>
                <g id="arrowRight" xlink:href="#dirArrow" transform="rotate(90) translate(36 -43)" onmousedown="handlePan(1,0)">
                  <use xlink:href="#rim" fill="#404040">
                        <set attributeName="fill" to="#808080" begin="arrowRight.mouseover" end="arrowRight.mouseout"/>
                  </use>
                  <path fill="none" stroke="white" stroke-width="1.5" d="M0,-3.0v7 M-2.5,-0.5L0,-3.0L2.5,-0.5"/>
                </g>
                <g id="arrowDown" xlink:href="#dirArrow" transform="rotate(180) translate(-30 -48)" onmousedown="handlePan(0,1)">
                  <use xlink:href="#rim" fill="#404040">
                        <set attributeName="fill" to="#808080" begin="arrowDown.mouseover" end="arrowDown.mouseout"/>
                  </use>
                  <path fill="none" stroke="white" stroke-width="1.5" d="M0,-3.0v7 M-2.5,-0.5L0,-3.0L2.5,-0.5"/>
                </g>
                <g id="arrowLeft" xlink:href="#dirArrow" transform="rotate(270) translate(-36 17)" onmousedown="handlePan(-1,0)">
                  <use xlink:href="#rim" fill="#404040">
                        <set attributeName="fill" to="#808080" begin="arrowLeft.mouseover" end="arrowLeft.mouseout"/>
                  </use>
                  <path fill="none" stroke="white" stroke-width="1.5" d="M0,-3.0v7 M-2.5,-0.5L0,-3.0L2.5,-0.5"/>
                </g>
        </g>
        <svg viewBox="0 0 15 15" width="100%" height="30px" preserveAspectRatio="xMaxYMin meet">
         <g id="arrow_out" transform="scale(0.3 0.3)">
          <a xlink:href="main_8cpp__incl_org.svg" target="_base">
           <rect id="button" ry="5" rx="5" y="6" x="6" height="38" width="38"
                fill="#f2f5e9" fill-opacity="0.5" stroke="#606060" stroke-width="1.0"/>
           <path id="arrow"
             d="M 11.500037,31.436501 C 11.940474,20.09759 22.043105,11.32322 32.158766,21.979434 L 37.068811,17.246167 C 37.068811,17.246167 37.088388,32 37.088388,32 L 22.160133,31.978069 C 22.160133,31.978069 26.997745,27.140456 26.997745,27.140456 C 18.528582,18.264221 13.291696,25.230495 11.500037,31.436501 z"
             style="fill:#404040;"/>
          </a>
         </g>
        </svg>
</svg>
