<?xml version="1.0" encoding="UTF-8" standalone="no"?>
<!DOCTYPE svg PUBLIC "-//W3C//DTD SVG 1.1//EN"
 "http://www.w3.org/Graphics/SVG/1.1/DTD/svg11.dtd">
<!-- Generated by graphviz version 2.40.1 (0)
 -->
<!-- Title: maptiles.cpp Pages: 1 -->
<!--zoomable 308 -->
<svg id="main" version="1.1" xmlns="http://www.w3.org/2000/svg" xmlns:xlink="http://www.w3.org/1999/xlink" xml:space="preserve" onload="init(evt)">
<style type="text/css"><![CDATA[
.edge:hover path { stroke: red; }
.edge:hover polygon { stroke: red; fill: red; }
]]></style>
<script type="text/javascript"><![CDATA[
var edges = document.getElementsByTagName('g');
if (edges && edges.length) {
  for (var i=0;i<edges.length;i++) {
    if (edges[i].id.substr(0,4)=='edge') {
      edges[i].setAttribute('class','edge');
    }
  }
}
]]></script>
        <defs>
                <circle id="rim" cx="0" cy="0" r="7"/>
                <circle id="rim2" cx="0" cy="0" r="3.5"/>
                <g id="zoomPlus">
                        <use xlink:href="#rim" fill="#404040">
                                <set attributeName="fill" to="#808080" begin="zoomplus.mouseover" end="zoomplus.mouseout"/>
                        </use>
                        <path d="M-4,0h8M0,-4v8" fill="none" stroke="white" stroke-width="1.5" pointer-events="none"/>
                </g>
                <g id="zoomMin">
                        <use xlink:href="#rim" fill="#404040">
                                <set attributeName="fill" to="#808080" begin="zoomminus.mouseover" end="zoomminus.mouseout"/>
                        </use>
                        <path d="M-4,0h8" fill="none" stroke="white" stroke-width="1.5" pointer-events="none"/>
                </g>
                <g id="dirArrow">
                        <path fill="none" stroke="white" stroke-width="1.5" d="M0,-3.0v7 M-2.5,-0.5L0,-3.0L2.5,-0.5"/>
                </g>
               <g id="resetDef">
                       <use xlink:href="#rim2" fill="#404040">
                               <set attributeName="fill" to="#808080" begin="reset.mouseover" end="reset.mouseout"/>
                       </use>
               </g>
        </defs>

<script type="text/javascript">
var viewWidth = 1642;
var viewHeight = 308;
var sectionId = 'dynsection-0';
</script>
<script xlink:href="svgpan.js"/>
<svg id="graph" class="graph">
<g id="viewport">
<title>maptiles.cpp</title>
<!-- Node0 -->
<g id="node1" class="node">
<title>Node0</title>
<g id="a_node1"><a xlink:title="Code for the maptiles function.">
<polygon fill="#bfbfbf" stroke="#000000" points="304.5,-280.5 304.5,-299.5 411.5,-299.5 411.5,-280.5 304.5,-280.5"/>
<text text-anchor="middle" x="358" y="-287.5" font-family="Helvetica,sans-Serif" font-size="10.00" fill="#000000">maptiles.cpp</text>
</a>
</g>
</g>
<!-- Node1 -->
<g id="node2" class="node">
<title>Node1</title>
<g id="a_node2"><a xlink:title=" ">
<polygon fill="none" stroke="#bfbfbf" points="1329.5,-.5 1329.5,-19.5 1406.5,-19.5 1406.5,-.5 1329.5,-.5"/>
<text text-anchor="middle" x="1368" y="-7.5" font-family="Helvetica,sans-Serif" font-size="10.00" fill="#000000">iostream</text>
</a>
</g>
</g>
<!-- Node0&#45;&gt;Node1 -->
<g id="edge1" class="edge">
<title>Node0&#45;&gt;Node1</title>
<path fill="none" stroke="#191970" d="M411.6077,-288.1501C653.7888,-279.4472 1634,-240.3705 1634,-178 1634,-178 1634,-178 1634,-122 1634,-87.4675 1621.3382,-75.7343 1593,-56 1564.9896,-36.494 1473.7983,-22.5031 1416.4701,-15.3756"/>
<polygon fill="#191970" stroke="#191970" points="1416.8807,-11.8999 1406.5311,-14.1663 1416.0352,-18.8486 1416.8807,-11.8999"/>
</g>
<!-- Node2 -->
<g id="node3" class="node">
<title>Node2</title>
<g id="a_node3"><a xlink:title=" ">
<polygon fill="none" stroke="#bfbfbf" points="112.5,-168.5 112.5,-187.5 151.5,-187.5 151.5,-168.5 112.5,-168.5"/>
<text text-anchor="middle" x="132" y="-175.5" font-family="Helvetica,sans-Serif" font-size="10.00" fill="#000000">map</text>
</a>
</g>
</g>
<!-- Node0&#45;&gt;Node2 -->
<g id="edge2" class="edge">
<title>Node0&#45;&gt;Node2</title>
<path fill="none" stroke="#191970" d="M338.7314,-280.4509C298.869,-260.6961 207.1784,-215.2565 160.4695,-192.1088"/>
<polygon fill="#191970" stroke="#191970" points="161.7341,-188.8293 151.2199,-187.5249 158.6258,-195.1014 161.7341,-188.8293"/>
</g>
<!-- Node3 -->
<g id="node4" class="node">
<title>Node3</title>
<g id="a_node4"><a xlink:href="maptiles_8h.html" target="_top" xlink:title="mapTiles() function.">
<polygon fill="none" stroke="#000000" points="312,-224.5 312,-243.5 404,-243.5 404,-224.5 312,-224.5"/>
<text text-anchor="middle" x="358" y="-231.5" font-family="Helvetica,sans-Serif" font-size="10.00" fill="#000000">maptiles.h</text>
</a>
</g>
</g>
<!-- Node0&#45;&gt;Node3 -->
<g id="edge3" class="edge">
<title>Node0&#45;&gt;Node3</title>
<path fill="none" stroke="#191970" d="M358,-280.2455C358,-272.9382 358,-262.6944 358,-253.7046"/>
<polygon fill="#191970" stroke="#191970" points="361.5001,-253.6426 358,-243.6427 354.5001,-253.6427 361.5001,-253.6426"/>
</g>
<!-- Node3&#45;&gt;Node2 -->
<g id="edge4" class="edge">
<title>Node3&#45;&gt;Node2</title>
<path fill="none" stroke="#191970" d="M315.518,-224.4755C276.5081,-215.5748 217.1693,-201.6451 166,-188 164.5509,-187.6136 163.0695,-187.2101 161.5751,-186.7963"/>
<polygon fill="#191970" stroke="#191970" points="162.3052,-183.365 151.7287,-183.9872 160.3848,-190.0964 162.3052,-183.365"/>
</g>
<!-- Node4 -->
<g id="node5" class="node">
<title>Node4</title>
<g id="a_node5"><a xlink:title=" ">
<polygon fill="none" stroke="#bfbfbf" points="499,-56.5 499,-75.5 561,-75.5 561,-56.5 499,-56.5"/>
<text text-anchor="middle" x="530" y="-63.5" font-family="Helvetica,sans-Serif" font-size="10.00" fill="#000000">vector</text>
</a>
</g>
</g>
<!-- Node3&#45;&gt;Node4 -->
<g id="edge5" class="edge">
<title>Node3&#45;&gt;Node4</title>
<path fill="none" stroke="#191970" d="M373.3915,-224.4288C399.2179,-207.8563 451.9816,-171.7555 488,-132 501.0615,-117.5833 512.655,-98.6378 520.3344,-84.7445"/>
<polygon fill="#191970" stroke="#191970" points="523.5649,-86.1259 525.1994,-75.6579 517.3937,-82.8218 523.5649,-86.1259"/>
</g>
<!-- Node5 -->
<g id="node6" class="node">
<title>Node5</title>
<g id="a_node6"><a xlink:title=" ">
<polygon fill="none" stroke="#bfbfbf" points="242.5,-56.5 242.5,-75.5 341.5,-75.5 341.5,-56.5 242.5,-56.5"/>
<text text-anchor="middle" x="292" y="-63.5" font-family="Helvetica,sans-Serif" font-size="10.00" fill="#000000">cs225/PNG.h</text>
</a>
</g>
</g>
<!-- Node3&#45;&gt;Node5 -->
<g id="edge6" class="edge">
<title>Node3&#45;&gt;Node5</title>
<path fill="none" stroke="#191970" d="M355.7363,-224.4549C352.5523,-211.4888 346.3149,-187.6695 339,-168 327.8952,-138.1396 311.8192,-104.8443 301.6417,-84.6632"/>
<polygon fill="#191970" stroke="#191970" points="304.7005,-82.957 297.0408,-75.6372 298.464,-86.136 304.7005,-82.957"/>
</g>
<!-- Node6 -->
<g id="node7" class="node">
<title>Node6</title>
<g id="a_node7"><a xlink:href="kdtree_8h.html" target="_top" xlink:title="KDTree implementation using Points in k&#45;dimensional space.">
<polygon fill="none" stroke="#000000" points="957.5,-168.5 957.5,-187.5 1034.5,-187.5 1034.5,-168.5 957.5,-168.5"/>
<text text-anchor="middle" x="996" y="-175.5" font-family="Helvetica,sans-Serif" font-size="10.00" fill="#000000">kdtree.h</text>
</a>
</g>
</g>
<!-- Node3&#45;&gt;Node6 -->
<g id="edge7" class="edge">
<title>Node3&#45;&gt;Node6</title>
<path fill="none" stroke="#191970" d="M404.14,-229.9501C520.9536,-219.6969 827.5786,-192.7831 947.2088,-182.2826"/>
<polygon fill="#191970" stroke="#191970" points="947.5274,-185.7682 957.183,-181.4071 946.9153,-178.795 947.5274,-185.7682"/>
</g>
<!-- Node25 -->
<g id="node26" class="node">
<title>Node25</title>
<g id="a_node26"><a xlink:href="mosaiccanvas_8h.html" target="_top" xlink:title="Implementation of the mosaic data structure.">
<polygon fill="none" stroke="#000000" points="208,-168.5 208,-187.5 330,-187.5 330,-168.5 208,-168.5"/>
<text text-anchor="middle" x="269" y="-175.5" font-family="Helvetica,sans-Serif" font-size="10.00" fill="#000000">mosaiccanvas.h</text>
</a>
</g>
</g>
<!-- Node3&#45;&gt;Node25 -->
<g id="edge40" class="edge">
<title>Node3&#45;&gt;Node25</title>
<path fill="none" stroke="#191970" d="M342.4974,-224.2455C328.842,-215.6534 308.7343,-203.0014 293.0011,-193.1018"/>
<polygon fill="#191970" stroke="#191970" points="294.6529,-190.006 284.325,-187.6427 290.9249,-195.9307 294.6529,-190.006"/>
</g>
<!-- Node26 -->
<g id="node27" class="node">
<title>Node26</title>
<g id="a_node27"><a xlink:href="tileimage_8h.html" target="_top" xlink:title=" ">
<polygon fill="none" stroke="#000000" points="143.5,-112.5 143.5,-131.5 242.5,-131.5 242.5,-112.5 143.5,-112.5"/>
<text text-anchor="middle" x="193" y="-119.5" font-family="Helvetica,sans-Serif" font-size="10.00" fill="#000000">tileimage.h</text>
</a>
</g>
</g>
<!-- Node3&#45;&gt;Node26 -->
<g id="edge51" class="edge">
<title>Node3&#45;&gt;Node26</title>
<path fill="none" stroke="#191970" d="M311.8938,-226.5624C270.2674,-218.8432 213.4032,-205.4543 199,-188 188.4961,-175.271 187.8793,-156.0862 189.3676,-141.6762"/>
<polygon fill="#191970" stroke="#191970" points="192.8327,-142.1689 190.7872,-131.7734 185.9035,-141.1755 192.8327,-142.1689"/>
</g>
<!-- Node29 -->
<g id="node30" class="node">
<title>Node29</title>
<g id="a_node30"><a xlink:href="sourceimage_8h.html" target="_top" xlink:title=" ">
<polygon fill="none" stroke="#000000" points="337,-112.5 337,-131.5 451,-131.5 451,-112.5 337,-112.5"/>
<text text-anchor="middle" x="394" y="-119.5" font-family="Helvetica,sans-Serif" font-size="10.00" fill="#000000">sourceimage.h</text>
</a>
</g>
</g>
<!-- Node3&#45;&gt;Node29 -->
<g id="edge48" class="edge">
<title>Node3&#45;&gt;Node29</title>
<path fill="none" stroke="#191970" d="M361.0693,-224.4509C366.9674,-206.1013 379.9887,-165.5908 387.7741,-141.3693"/>
<polygon fill="#191970" stroke="#191970" points="391.2104,-142.1162 390.9384,-131.5249 384.5462,-139.9741 391.2104,-142.1162"/>
</g>
<!-- Node6&#45;&gt;Node1 -->
<g id="edge16" class="edge">
<title>Node6&#45;&gt;Node1</title>
<path fill="none" stroke="#191970" d="M1034.735,-176.0454C1107.0201,-171.8547 1267.0874,-160.0097 1399,-132 1480.1252,-114.7743 1527.9394,-142.8661 1577,-76 1582.2583,-68.8333 1582.569,-62.9281 1577,-56 1557.2781,-31.4653 1472.0925,-19.2562 1416.7485,-13.8052"/>
<polygon fill="#191970" stroke="#191970" points="1417.0691,-10.32 1406.7844,-12.8646 1416.4112,-17.289 1417.0691,-10.32"/>
</g>
<!-- Node6&#45;&gt;Node4 -->
<g id="edge8" class="edge">
<title>Node6&#45;&gt;Node4</title>
<path fill="none" stroke="#191970" d="M957.4808,-176.082C872.9502,-171.4403 673.8058,-158.0194 612,-132 585.6093,-120.8899 560.8053,-98.6551 545.5322,-83.0756"/>
<polygon fill="#191970" stroke="#191970" points="547.8819,-80.4674 538.4561,-75.6294 542.8076,-85.2894 547.8819,-80.4674"/>
</g>
<!-- Node7 -->
<g id="node8" class="node">
<title>Node7</title>
<g id="a_node8"><a xlink:title=" ">
<polygon fill="none" stroke="#bfbfbf" points="1424,-56.5 1424,-75.5 1568,-75.5 1568,-56.5 1424,-56.5"/>
<text text-anchor="middle" x="1496" y="-63.5" font-family="Helvetica,sans-Serif" font-size="10.00" fill="#000000">util/coloredout.h</text>
</a>
</g>
</g>
<!-- Node6&#45;&gt;Node7 -->
<g id="edge9" class="edge">
<title>Node6&#45;&gt;Node7</title>
<path fill="none" stroke="#191970" d="M1034.5837,-174.7246C1115.3283,-167.6097 1299.6271,-149.9346 1360,-132 1401.0036,-119.8193 1444.922,-96.3965 1471.4236,-80.9836"/>
<polygon fill="#191970" stroke="#191970" points="1473.5321,-83.8031 1480.3617,-75.7032 1469.9716,-77.7762 1473.5321,-83.8031"/>
</g>
<!-- Node8 -->
<g id="node9" class="node">
<title>Node8</title>
<g id="a_node9"><a xlink:title=" ">
<polygon fill="none" stroke="#bfbfbf" points="769,-112.5 769,-131.5 861,-131.5 861,-112.5 769,-112.5"/>
<text text-anchor="middle" x="815" y="-119.5" font-family="Helvetica,sans-Serif" font-size="10.00" fill="#000000">sys/wait.h</text>
</a>
</g>
</g>
<!-- Node6&#45;&gt;Node8 -->
<g id="edge10" class="edge">
<title>Node6&#45;&gt;Node8</title>
<path fill="none" stroke="#191970" d="M964.885,-168.3733C934.6571,-159.021 888.604,-144.7725 855.5261,-134.5385"/>
<polygon fill="#191970" stroke="#191970" points="856.2967,-131.1133 845.709,-131.5011 854.2277,-137.8005 856.2967,-131.1133"/>
</g>
<!-- Node9 -->
<g id="node10" class="node">
<title>Node9</title>
<g id="a_node10"><a xlink:title=" ">
<polygon fill="none" stroke="#bfbfbf" points="879.5,-112.5 879.5,-131.5 948.5,-131.5 948.5,-112.5 879.5,-112.5"/>
<text text-anchor="middle" x="914" y="-119.5" font-family="Helvetica,sans-Serif" font-size="10.00" fill="#000000">errno.h</text>
</a>
</g>
</g>
<!-- Node6&#45;&gt;Node9 -->
<g id="edge11" class="edge">
<title>Node6&#45;&gt;Node9</title>
<path fill="none" stroke="#191970" d="M981.7167,-168.2455C969.253,-159.7337 950.9549,-147.2375 936.5208,-137.3801"/>
<polygon fill="#191970" stroke="#191970" points="938.3515,-134.392 928.1196,-131.6427 934.4038,-140.1726 938.3515,-134.392"/>
</g>
<!-- Node10 -->
<g id="node11" class="node">
<title>Node10</title>
<g id="a_node11"><a xlink:title=" ">
<polygon fill="none" stroke="#bfbfbf" points="856.5,-56.5 856.5,-75.5 933.5,-75.5 933.5,-56.5 856.5,-56.5"/>
<text text-anchor="middle" x="895" y="-63.5" font-family="Helvetica,sans-Serif" font-size="10.00" fill="#000000">unistd.h</text>
</a>
</g>
</g>
<!-- Node6&#45;&gt;Node10 -->
<g id="edge12" class="edge">
<title>Node6&#45;&gt;Node10</title>
<path fill="none" stroke="#191970" d="M998.1059,-168.0548C1000.453,-154.1971 1002.5457,-128.8841 991,-112 979.9095,-95.7815 961.4742,-85.1004 943.7072,-78.1545"/>
<polygon fill="#191970" stroke="#191970" points="944.5508,-74.7393 933.9562,-74.6686 942.1943,-81.3307 944.5508,-74.7393"/>
</g>
<!-- Node11 -->
<g id="node12" class="node">
<title>Node11</title>
<g id="a_node12"><a xlink:title=" ">
<polygon fill="none" stroke="#bfbfbf" points="359.5,-56.5 359.5,-75.5 436.5,-75.5 436.5,-56.5 359.5,-56.5"/>
<text text-anchor="middle" x="398" y="-63.5" font-family="Helvetica,sans-Serif" font-size="10.00" fill="#000000">stdint.h</text>
</a>
</g>
</g>
<!-- Node6&#45;&gt;Node11 -->
<g id="edge13" class="edge">
<title>Node6&#45;&gt;Node11</title>
<path fill="none" stroke="#191970" d="M957.2429,-176.9296C882.5286,-174.1717 713.7752,-164.5616 576,-132 522.4303,-119.3394 462.9973,-95.1072 428.1519,-79.7906"/>
<polygon fill="#191970" stroke="#191970" points="429.1404,-76.3998 418.5809,-75.5351 426.2964,-82.7961 429.1404,-76.3998"/>
</g>
<!-- Node12 -->
<g id="node13" class="node">
<title>Node12</title>
<g id="a_node13"><a xlink:title=" ">
<polygon fill="none" stroke="#bfbfbf" points="1256,-56.5 1256,-75.5 1318,-75.5 1318,-56.5 1256,-56.5"/>
<text text-anchor="middle" x="1287" y="-63.5" font-family="Helvetica,sans-Serif" font-size="10.00" fill="#000000">string</text>
</a>
</g>
</g>
<!-- Node6&#45;&gt;Node12 -->
<g id="edge14" class="edge">
<title>Node6&#45;&gt;Node12</title>
<path fill="none" stroke="#191970" d="M1034.6954,-173.7676C1076.0986,-168.1891 1142.972,-156.1133 1196,-132 1223.7869,-119.3645 1251.5883,-97.5325 1269.0143,-82.458"/>
<polygon fill="#191970" stroke="#191970" points="1271.5173,-84.9168 1276.69,-75.6704 1266.8802,-79.673 1271.5173,-84.9168"/>
</g>
<!-- Node13 -->
<g id="node14" class="node">
<title>Node13</title>
<g id="a_node14"><a xlink:title=" ">
<polygon fill="none" stroke="#bfbfbf" points="1336.5,-56.5 1336.5,-75.5 1405.5,-75.5 1405.5,-56.5 1336.5,-56.5"/>
<text text-anchor="middle" x="1371" y="-63.5" font-family="Helvetica,sans-Serif" font-size="10.00" fill="#000000">sstream</text>
</a>
</g>
</g>
<!-- Node6&#45;&gt;Node13 -->
<g id="edge15" class="edge">
<title>Node6&#45;&gt;Node13</title>
<path fill="none" stroke="#191970" d="M1034.7121,-173.1071C1081.171,-166.5956 1161.0598,-153.3526 1227,-132 1238.5772,-128.2511 1302.9835,-98.1354 1341.6317,-79.9054"/>
<polygon fill="#191970" stroke="#191970" points="1343.3068,-82.985 1350.8547,-75.55 1340.3177,-76.6553 1343.3068,-82.985"/>
</g>
<!-- Node14 -->
<g id="node15" class="node">
<title>Node14</title>
<g id="a_node15"><a xlink:title=" ">
<polygon fill="none" stroke="#bfbfbf" points="1281.5,-112.5 1281.5,-131.5 1350.5,-131.5 1350.5,-112.5 1281.5,-112.5"/>
<text text-anchor="middle" x="1316" y="-119.5" font-family="Helvetica,sans-Serif" font-size="10.00" fill="#000000">fstream</text>
</a>
</g>
</g>
<!-- Node6&#45;&gt;Node14 -->
<g id="edge17" class="edge">
<title>Node6&#45;&gt;Node14</title>
<path fill="none" stroke="#191970" d="M1034.6662,-171.8507C1087.3095,-163.3842 1184.439,-147.4272 1267,-132 1268.4669,-131.7259 1269.9577,-131.4435 1271.4625,-131.1552"/>
<polygon fill="#191970" stroke="#191970" points="1272.3532,-134.5474 1281.4945,-129.1915 1271.0084,-127.6778 1272.3532,-134.5474"/>
</g>
<!-- Node15 -->
<g id="node16" class="node">
<title>Node15</title>
<g id="a_node16"><a xlink:href="point_8h.html" target="_top" xlink:title="Definition of a Point class for k dimensional points.">
<polygon fill="none" stroke="#000000" points="769.5,-56.5 769.5,-75.5 838.5,-75.5 838.5,-56.5 769.5,-56.5"/>
<text text-anchor="middle" x="804" y="-63.5" font-family="Helvetica,sans-Serif" font-size="10.00" fill="#000000">point.h</text>
</a>
</g>
</g>
<!-- Node6&#45;&gt;Node15 -->
<g id="edge18" class="edge">
<title>Node6&#45;&gt;Node15</title>
<path fill="none" stroke="#191970" d="M993.0407,-168.3866C988.1166,-153.9903 976.8717,-126.9306 958,-112 949.2128,-105.0479 890.8267,-88.7108 848.541,-77.5025"/>
<polygon fill="#191970" stroke="#191970" points="849.2771,-74.077 838.7154,-74.9132 847.4933,-80.8459 849.2771,-74.077"/>
</g>
<!-- Node19 -->
<g id="node20" class="node">
<title>Node19</title>
<g id="a_node20"><a xlink:href="kdtree_8hpp.html" target="_top" xlink:title=" ">
<polygon fill="none" stroke="#000000" points="621,-112.5 621,-131.5 713,-131.5 713,-112.5 621,-112.5"/>
<text text-anchor="middle" x="667" y="-119.5" font-family="Helvetica,sans-Serif" font-size="10.00" fill="#000000">kdtree.hpp</text>
</a>
</g>
</g>
<!-- Node6&#45;&gt;Node19 -->
<g id="edge23" class="edge">
<title>Node6&#45;&gt;Node19</title>
<path fill="none" stroke="#191970" d="M957.2921,-171.4114C899.3705,-161.5524 789.838,-142.9086 723.1329,-131.5545"/>
<polygon fill="#191970" stroke="#191970" points="723.657,-128.0935 713.2114,-129.8658 722.4823,-134.9942 723.657,-128.0935"/>
</g>
<!-- Node21 -->
<g id="node22" class="node">
<title>Node21</title>
<g id="a_node22"><a xlink:title=" ">
<polygon fill="none" stroke="#bfbfbf" points="667,-56.5 667,-75.5 751,-75.5 751,-56.5 667,-56.5"/>
<text text-anchor="middle" x="709" y="-63.5" font-family="Helvetica,sans-Serif" font-size="10.00" fill="#000000">algorithm</text>
</a>
</g>
</g>
<!-- Node6&#45;&gt;Node21 -->
<g id="edge39" class="edge">
<title>Node6&#45;&gt;Node21</title>
<path fill="none" stroke="#191970" d="M957.3041,-173.8034C899.1362,-166.942 792.5081,-152.0521 760,-132 741.5997,-120.6501 727.3155,-100.0912 718.6046,-84.9247"/>
<polygon fill="#191970" stroke="#191970" points="721.5454,-83.0058 713.6979,-75.8878 715.3937,-86.346 721.5454,-83.0058"/>
</g>
<!-- Node22 -->
<g id="node23" class="node">
<title>Node22</title>
<g id="a_node23"><a xlink:href="kdtree__extras_8hpp.html" target="_top" xlink:title=" ">
<polygon fill="none" stroke="#000000" points="1043,-112.5 1043,-131.5 1187,-131.5 1187,-112.5 1043,-112.5"/>
<text text-anchor="middle" x="1115" y="-119.5" font-family="Helvetica,sans-Serif" font-size="10.00" fill="#000000">kdtree_extras.hpp</text>
</a>
</g>
</g>
<!-- Node6&#45;&gt;Node22 -->
<g id="edge26" class="edge">
<title>Node6&#45;&gt;Node22</title>
<path fill="none" stroke="#191970" d="M1011.4614,-168.2455C1028.8362,-159.2519 1057.1886,-145.8101 1079.9164,-135.7327"/>
<polygon fill="#191970" stroke="#191970" points="1081.5058,-138.8578 1089.2642,-131.6427 1078.6997,-132.4448 1081.5058,-138.8578"/>
</g>
<!-- Node15&#45;&gt;Node1 -->
<g id="edge20" class="edge">
<title>Node15&#45;&gt;Node1</title>
<path fill="none" stroke="#191970" d="M838.5019,-57.6949C841.7021,-57.0649 844.9045,-56.4864 848,-56 1019.9876,-28.9758 1226.6586,-16.6073 1319.1211,-12.1162"/>
<polygon fill="#191970" stroke="#191970" points="1319.472,-15.6036 1329.2941,-11.6317 1319.1389,-8.6115 1319.472,-15.6036"/>
</g>
<!-- Node16 -->
<g id="node17" class="node">
<title>Node16</title>
<g id="a_node17"><a xlink:title=" ">
<polygon fill="none" stroke="#bfbfbf" points="688.5,-.5 688.5,-19.5 757.5,-19.5 757.5,-.5 688.5,-.5"/>
<text text-anchor="middle" x="723" y="-7.5" font-family="Helvetica,sans-Serif" font-size="10.00" fill="#000000">cstdarg</text>
</a>
</g>
</g>
<!-- Node15&#45;&gt;Node16 -->
<g id="edge19" class="edge">
<title>Node15&#45;&gt;Node16</title>
<path fill="none" stroke="#191970" d="M789.8909,-56.2455C777.5791,-47.7337 759.5042,-35.2375 745.2462,-25.3801"/>
<polygon fill="#191970" stroke="#191970" points="747.1634,-22.4506 736.9474,-19.6427 743.1826,-28.2085 747.1634,-22.4506"/>
</g>
<!-- Node17 -->
<g id="node18" class="node">
<title>Node17</title>
<g id="a_node18"><a xlink:title=" ">
<polygon fill="none" stroke="#bfbfbf" points="892,-.5 892,-19.5 976,-19.5 976,-.5 892,-.5"/>
<text text-anchor="middle" x="934" y="-7.5" font-family="Helvetica,sans-Serif" font-size="10.00" fill="#000000">stdexcept</text>
</a>
</g>
</g>
<!-- Node15&#45;&gt;Node17 -->
<g id="edge21" class="edge">
<title>Node15&#45;&gt;Node17</title>
<path fill="none" stroke="#191970" d="M826.3478,-56.3733C847.4033,-47.3032 879.1495,-33.6279 902.7175,-23.4755"/>
<polygon fill="#191970" stroke="#191970" points="904.1444,-26.6719 911.9438,-19.5011 901.375,-20.243 904.1444,-26.6719"/>
</g>
<!-- Node18 -->
<g id="node19" class="node">
<title>Node18</title>
<g id="a_node19"><a xlink:href="point_8cpp.html" target="_top" xlink:title="Implementation of Point class.">
<polygon fill="none" stroke="#000000" points="776,-.5 776,-19.5 860,-19.5 860,-.5 776,-.5"/>
<text text-anchor="middle" x="818" y="-7.5" font-family="Helvetica,sans-Serif" font-size="10.00" fill="#000000">point.cpp</text>
</a>
</g>
</g>
<!-- Node15&#45;&gt;Node18 -->
<g id="edge22" class="edge">
<title>Node15&#45;&gt;Node18</title>
<path fill="none" stroke="#191970" d="M806.4386,-56.2455C808.2855,-48.8579 810.8828,-38.4689 813.1478,-29.4087"/>
<polygon fill="#191970" stroke="#191970" points="816.5594,-30.193 815.5893,-19.6427 809.7684,-28.4952 816.5594,-30.193"/>
</g>
<!-- Node20 -->
<g id="node21" class="node">
<title>Node20</title>
<g id="a_node21"><a xlink:title=" ">
<polygon fill="none" stroke="#bfbfbf" points="579.5,-56.5 579.5,-75.5 648.5,-75.5 648.5,-56.5 579.5,-56.5"/>
<text text-anchor="middle" x="614" y="-63.5" font-family="Helvetica,sans-Serif" font-size="10.00" fill="#000000">utility</text>
</a>
</g>
</g>
<!-- Node19&#45;&gt;Node20 -->
<g id="edge24" class="edge">
<title>Node19&#45;&gt;Node20</title>
<path fill="none" stroke="#191970" d="M657.7681,-112.2455C650.1683,-104.2155 639.2123,-92.6394 630.1632,-83.0781"/>
<polygon fill="#191970" stroke="#191970" points="632.542,-80.4998 623.1261,-75.6427 627.4579,-85.3115 632.542,-80.4998"/>
</g>
<!-- Node19&#45;&gt;Node21 -->
<g id="edge25" class="edge">
<title>Node19&#45;&gt;Node21</title>
<path fill="none" stroke="#191970" d="M674.3158,-112.2455C680.2179,-104.3761 688.6742,-93.101 695.7594,-83.6542"/>
<polygon fill="#191970" stroke="#191970" points="698.568,-85.7427 701.768,-75.6427 692.9679,-81.5427 698.568,-85.7427"/>
</g>
<!-- Node22&#45;&gt;Node1 -->
<g id="edge29" class="edge">
<title>Node22&#45;&gt;Node1</title>
<path fill="none" stroke="#191970" d="M1118.8668,-112.1903C1125.1713,-97.5376 1139.0975,-70.1477 1160,-56 1185.555,-38.7033 1266.1761,-24.4104 1319.2143,-16.5548"/>
<polygon fill="#191970" stroke="#191970" points="1320.0369,-19.9722 1329.4297,-15.0706 1319.0303,-13.0449 1320.0369,-19.9722"/>
</g>
<!-- Node22&#45;&gt;Node4 -->
<g id="edge30" class="edge">
<title>Node22&#45;&gt;Node4</title>
<path fill="none" stroke="#191970" d="M1042.7486,-117.3513C920.175,-109.2303 675.4234,-91.9419 571.2703,-75.9362"/>
<polygon fill="#191970" stroke="#191970" points="571.7714,-72.4719 561.3429,-74.3419 570.6614,-79.3833 571.7714,-72.4719"/>
</g>
<!-- Node22&#45;&gt;Node6 -->
<g id="edge38" class="edge">
<title>Node22&#45;&gt;Node6</title>
<path fill="none" stroke="#191970" d="M1100.0274,-131.5011C1082.7106,-140.4883 1054.0633,-154.0771 1031.1286,-164.2473"/>
<polygon fill="#191970" stroke="#191970" points="1029.4573,-161.1581 1021.6989,-168.3733 1032.2633,-167.5711 1029.4573,-161.1581"/>
</g>
<!-- Node22&#45;&gt;Node7 -->
<g id="edge36" class="edge">
<title>Node22&#45;&gt;Node7</title>
<path fill="none" stroke="#191970" d="M1180.0633,-112.4369C1246.9124,-102.6113 1350.8587,-87.3331 1421.0953,-77.0096"/>
<polygon fill="#191970" stroke="#191970" points="1421.8203,-80.4407 1431.205,-75.5237 1420.8023,-73.5152 1421.8203,-80.4407"/>
</g>
<!-- Node22&#45;&gt;Node10 -->
<g id="edge27" class="edge">
<title>Node22&#45;&gt;Node10</title>
<path fill="none" stroke="#191970" d="M1077.1807,-112.3733C1039.8062,-102.8598 982.5276,-88.2797 942.1929,-78.0127"/>
<polygon fill="#191970" stroke="#191970" points="942.8802,-74.5761 932.3258,-75.5011 941.1534,-81.3598 942.8802,-74.5761"/>
</g>
<!-- Node22&#45;&gt;Node12 -->
<g id="edge31" class="edge">
<title>Node22&#45;&gt;Node12</title>
<path fill="none" stroke="#191970" d="M1144.5679,-112.3733C1173.1688,-103.0613 1216.6788,-88.8953 1248.0819,-78.671"/>
<polygon fill="#191970" stroke="#191970" points="1249.3928,-81.9251 1257.818,-75.5011 1247.2257,-75.269 1249.3928,-81.9251"/>
</g>
<!-- Node22&#45;&gt;Node13 -->
<g id="edge28" class="edge">
<title>Node22&#45;&gt;Node13</title>
<path fill="none" stroke="#191970" d="M1159.6955,-112.435C1200.5232,-103.6679 1262.8244,-90.215 1326.5909,-76.0752"/>
<polygon fill="#191970" stroke="#191970" points="1327.4165,-79.4772 1336.42,-73.8927 1325.8991,-72.6436 1327.4165,-79.4772"/>
</g>
<!-- Node22&#45;&gt;Node15 -->
<g id="edge37" class="edge">
<title>Node22&#45;&gt;Node15</title>
<path fill="none" stroke="#191970" d="M1054.3877,-112.4948C1002.3848,-104.126 925.2208,-91.2028 848.4028,-75.9971"/>
<polygon fill="#191970" stroke="#191970" points="849.0415,-72.5556 838.5502,-74.0337 847.6734,-79.4206 849.0415,-72.5556"/>
</g>
<!-- Node22&#45;&gt;Node17 -->
<g id="edge34" class="edge">
<title>Node22&#45;&gt;Node17</title>
<path fill="none" stroke="#191970" d="M1064.3534,-112.476C1037.6421,-105.6095 1005.4394,-94.2468 981,-76 964.3319,-63.5554 951.2378,-43.4659 943.1503,-28.7157"/>
<polygon fill="#191970" stroke="#191970" points="946.0864,-26.7754 938.3687,-19.5167 939.8753,-30.0039 946.0864,-26.7754"/>
</g>
<!-- Node22&#45;&gt;Node21 -->
<g id="edge32" class="edge">
<title>Node22&#45;&gt;Node21</title>
<path fill="none" stroke="#191970" d="M1042.9464,-113.9373C973.5236,-105.8729 865.3098,-92.5272 761.2985,-75.9603"/>
<polygon fill="#191970" stroke="#191970" points="761.6757,-72.4761 751.2474,-74.3471 760.5664,-79.3877 761.6757,-72.4761"/>
</g>
<!-- Node23 -->
<g id="node24" class="node">
<title>Node23</title>
<g id="a_node24"><a xlink:title=" ">
<polygon fill="none" stroke="#bfbfbf" points="1168.5,-56.5 1168.5,-75.5 1237.5,-75.5 1237.5,-56.5 1168.5,-56.5"/>
<text text-anchor="middle" x="1203" y="-63.5" font-family="Helvetica,sans-Serif" font-size="10.00" fill="#000000">iomanip</text>
</a>
</g>
</g>
<!-- Node22&#45;&gt;Node23 -->
<g id="edge33" class="edge">
<title>Node22&#45;&gt;Node23</title>
<path fill="none" stroke="#191970" d="M1130.3284,-112.2455C1143.8303,-103.6534 1163.7122,-91.0014 1179.2686,-81.1018"/>
<polygon fill="#191970" stroke="#191970" points="1181.2897,-83.9643 1187.8472,-75.6427 1177.5315,-78.0587 1181.2897,-83.9643"/>
</g>
<!-- Node24 -->
<g id="node25" class="node">
<title>Node24</title>
<g id="a_node25"><a xlink:title=" ">
<polygon fill="none" stroke="#bfbfbf" points="990,-56.5 990,-75.5 1112,-75.5 1112,-56.5 990,-56.5"/>
<text text-anchor="middle" x="1051" y="-63.5" font-family="Helvetica,sans-Serif" font-size="10.00" fill="#000000">util/no_sort.h</text>
</a>
</g>
</g>
<!-- Node22&#45;&gt;Node24 -->
<g id="edge35" class="edge">
<title>Node22&#45;&gt;Node24</title>
<path fill="none" stroke="#191970" d="M1103.8521,-112.2455C1094.4913,-104.0549 1080.9142,-92.1749 1069.8651,-82.5069"/>
<polygon fill="#191970" stroke="#191970" points="1071.8508,-79.5937 1062.0202,-75.6427 1067.2412,-84.8618 1071.8508,-79.5937"/>
</g>
<!-- Node25&#45;&gt;Node4 -->
<g id="edge41" class="edge">
<title>Node25&#45;&gt;Node4</title>
<path fill="none" stroke="#191970" d="M330.405,-171.4405C369.3594,-165.3415 419.8068,-153.758 460,-132 482.3474,-119.9026 502.8562,-98.8735 515.8187,-83.8016"/>
<polygon fill="#191970" stroke="#191970" points="518.8304,-85.6542 522.5358,-75.7284 513.4493,-81.1771 518.8304,-85.6542"/>
</g>
<!-- Node25&#45;&gt;Node5 -->
<g id="edge42" class="edge">
<title>Node25&#45;&gt;Node5</title>
<path fill="none" stroke="#191970" d="M270.961,-168.4509C274.7292,-150.1013 283.0483,-109.5908 288.0224,-85.3693"/>
<polygon fill="#191970" stroke="#191970" points="291.4608,-86.0246 290.044,-75.5249 284.6039,-84.6164 291.4608,-86.0246"/>
</g>
<!-- Node25&#45;&gt;Node26 -->
<g id="edge43" class="edge">
<title>Node25&#45;&gt;Node26</title>
<path fill="none" stroke="#191970" d="M255.7618,-168.2455C244.319,-159.814 227.5704,-147.4729 214.2525,-137.6598"/>
<polygon fill="#191970" stroke="#191970" points="216.2133,-134.757 206.0865,-131.6427 212.0609,-140.3924 216.2133,-134.757"/>
</g>
<!-- Node26&#45;&gt;Node5 -->
<g id="edge46" class="edge">
<title>Node26&#45;&gt;Node5</title>
<path fill="none" stroke="#191970" d="M210.2445,-112.2455C225.5761,-103.5731 248.2199,-90.7645 265.7916,-80.825"/>
<polygon fill="#191970" stroke="#191970" points="267.9724,-83.6126 274.9531,-75.6427 264.5259,-77.5198 267.9724,-83.6126"/>
</g>
<!-- Node26&#45;&gt;Node11 -->
<g id="edge45" class="edge">
<title>Node26&#45;&gt;Node11</title>
<path fill="none" stroke="#191970" d="M228.2408,-112.3733C262.9194,-102.9001 315.9883,-88.4032 353.5462,-78.1435"/>
<polygon fill="#191970" stroke="#191970" points="354.4949,-81.5126 363.2191,-75.5011 352.6502,-74.7601 354.4949,-81.5126"/>
</g>
<!-- Node27 -->
<g id="node28" class="node">
<title>Node27</title>
<g id="a_node28"><a xlink:title=" ">
<polygon fill="none" stroke="#bfbfbf" points="162,-56.5 162,-75.5 224,-75.5 224,-56.5 162,-56.5"/>
<text text-anchor="middle" x="193" y="-63.5" font-family="Helvetica,sans-Serif" font-size="10.00" fill="#000000">math.h</text>
</a>
</g>
</g>
<!-- Node26&#45;&gt;Node27 -->
<g id="edge44" class="edge">
<title>Node26&#45;&gt;Node27</title>
<path fill="none" stroke="#191970" d="M193,-112.2455C193,-104.9382 193,-94.6944 193,-85.7046"/>
<polygon fill="#191970" stroke="#191970" points="196.5001,-85.6426 193,-75.6427 189.5001,-85.6427 196.5001,-85.6426"/>
</g>
<!-- Node28 -->
<g id="node29" class="node">
<title>Node28</title>
<g id="a_node29"><a xlink:title=" ">
<polygon fill="none" stroke="#bfbfbf" points="0,-56.5 0,-75.5 144,-75.5 144,-56.5 0,-56.5"/>
<text text-anchor="middle" x="72" y="-63.5" font-family="Helvetica,sans-Serif" font-size="10.00" fill="#000000">cs225/LUVAPixel.h</text>
</a>
</g>
</g>
<!-- Node26&#45;&gt;Node28 -->
<g id="edge47" class="edge">
<title>Node26&#45;&gt;Node28</title>
<path fill="none" stroke="#191970" d="M172.1994,-112.3733C152.7757,-103.3838 123.5776,-89.8706 101.7036,-79.7471"/>
<polygon fill="#191970" stroke="#191970" points="103.0745,-76.5249 92.5292,-75.5011 100.1344,-82.8776 103.0745,-76.5249"/>
</g>
<!-- Node29&#45;&gt;Node5 -->
<g id="edge50" class="edge">
<title>Node29&#45;&gt;Node5</title>
<path fill="none" stroke="#191970" d="M376.233,-112.2455C360.2905,-103.4928 336.6741,-90.527 318.5011,-80.5496"/>
<polygon fill="#191970" stroke="#191970" points="320.0137,-77.3873 309.5634,-75.6427 316.6448,-83.5233 320.0137,-77.3873"/>
</g>
<!-- Node29&#45;&gt;Node11 -->
<g id="edge49" class="edge">
<title>Node29&#45;&gt;Node11</title>
<path fill="none" stroke="#191970" d="M394.6967,-112.2455C395.2187,-104.9382 395.9504,-94.6944 396.5925,-85.7046"/>
<polygon fill="#191970" stroke="#191970" points="400.0898,-85.8667 397.3112,-75.6427 393.1076,-85.3679 400.0898,-85.8667"/>
</g>
</g>
</svg>
        <g id="navigator" transform="translate(0 0)" fill="#404254">
                <rect fill="#f2f5e9" fill-opacity="0.5" stroke="#606060" stroke-width=".5" x="0" y="0" width="60" height="60"/>
                <use id="zoomplus" xlink:href="#zoomPlus" x="17" y="9" onmousedown="handleZoom(evt,'in')"/>
                <use id="zoomminus" xlink:href="#zoomMin" x="42" y="9" onmousedown="handleZoom(evt,'out')"/>
                <use id="reset" xlink:href="#resetDef" x="30" y="36" onmousedown="handleReset()"/>
                <g id="arrowUp" xlink:href="#dirArrow" transform="translate(30 24)" onmousedown="handlePan(0,-1)">
                  <use xlink:href="#rim" fill="#404040">
                        <set attributeName="fill" to="#808080" begin="arrowUp.mouseover" end="arrowUp.mouseout"/>
                  </use>
                  <path fill="none" stroke="white" stroke-width="1.5" d="M0,-3.0v7 M-2.5,-0.5L0,-3.0L2.5,-0.5"/>
                </g>
                <g id="arrowRight" xlink:href="#dirArrow" transform="rotate(90) translate(36 -43)" onmousedown="handlePan(1,0)">
                  <use xlink:href="#rim" fill="#404040">
                        <set attributeName="fill" to="#808080" begin="arrowRight.mouseover" end="arrowRight.mouseout"/>
                  </use>
                  <path fill="none" stroke="white" stroke-width="1.5" d="M0,-3.0v7 M-2.5,-0.5L0,-3.0L2.5,-0.5"/>
                </g>
                <g id="arrowDown" xlink:href="#dirArrow" transform="rotate(180) translate(-30 -48)" onmousedown="handlePan(0,1)">
                  <use xlink:href="#rim" fill="#404040">
                        <set attributeName="fill" to="#808080" begin="arrowDown.mouseover" end="arrowDown.mouseout"/>
                  </use>
                  <path fill="none" stroke="white" stroke-width="1.5" d="M0,-3.0v7 M-2.5,-0.5L0,-3.0L2.5,-0.5"/>
                </g>
                <g id="arrowLeft" xlink:href="#dirArrow" transform="rotate(270) translate(-36 17)" onmousedown="handlePan(-1,0)">
                  <use xlink:href="#rim" fill="#404040">
                        <set attributeName="fill" to="#808080" begin="arrowLeft.mouseover" end="arrowLeft.mouseout"/>
                  </use>
                  <path fill="none" stroke="white" stroke-width="1.5" d="M0,-3.0v7 M-2.5,-0.5L0,-3.0L2.5,-0.5"/>
                </g>
        </g>
        <svg viewBox="0 0 15 15" width="100%" height="30px" preserveAspectRatio="xMaxYMin meet">
         <g id="arrow_out" transform="scale(0.3 0.3)">
          <a xlink:href="maptiles_8cpp__incl_org.svg" target="_base">
           <rect id="button" ry="5" rx="5" y="6" x="6" height="38" width="38"
                fill="#f2f5e9" fill-opacity="0.5" stroke="#606060" stroke-width="1.0"/>
           <path id="arrow"
             d="M 11.500037,31.436501 C 11.940474,20.09759 22.043105,11.32322 32.158766,21.979434 L 37.068811,17.246167 C 37.068811,17.246167 37.088388,32 37.088388,32 L 22.160133,31.978069 C 22.160133,31.978069 26.997745,27.140456 26.997745,27.140456 C 18.528582,18.264221 13.291696,25.230495 11.500037,31.436501 z"
             style="fill:#404040;"/>
          </a>
         </g>
        </svg>
</svg>
