<?xml version="1.0" encoding="UTF-8" standalone="no"?>
<!DOCTYPE svg PUBLIC "-//W3C//DTD SVG 1.1//EN"
 "http://www.w3.org/Graphics/SVG/1.1/DTD/svg11.dtd">
<!-- Generated by graphviz version 2.40.1 (0)
 -->
<!-- Title: maptiles.h Pages: 1 -->
<!--zoomable 252 -->
<svg id="main" version="1.1" xmlns="http://www.w3.org/2000/svg" xmlns:xlink="http://www.w3.org/1999/xlink" xml:space="preserve" onload="init(evt)">
<style type="text/css"><![CDATA[
.edge:hover path { stroke: red; }
.edge:hover polygon { stroke: red; fill: red; }
]]></style>
<script type="text/javascript"><![CDATA[
var edges = document.getElementsByTagName('g');
if (edges && edges.length) {
  for (var i=0;i<edges.length;i++) {
    if (edges[i].id.substr(0,4)=='edge') {
      edges[i].setAttribute('class','edge');
    }
  }
}
]]></script>
        <defs>
                <circle id="rim" cx="0" cy="0" r="7"/>
                <circle id="rim2" cx="0" cy="0" r="3.5"/>
                <g id="zoomPlus">
                        <use xlink:href="#rim" fill="#404040">
                                <set attributeName="fill" to="#808080" begin="zoomplus.mouseover" end="zoomplus.mouseout"/>
                        </use>
                        <path d="M-4,0h8M0,-4v8" fill="none" stroke="white" stroke-width="1.5" pointer-events="none"/>
                </g>
                <g id="zoomMin">
                        <use xlink:href="#rim" fill="#404040">
                                <set attributeName="fill" to="#808080" begin="zoomminus.mouseover" end="zoomminus.mouseout"/>
                        </use>
                        <path d="M-4,0h8" fill="none" stroke="white" stroke-width="1.5" pointer-events="none"/>
                </g>
                <g id="dirArrow">
                        <path fill="none" stroke="white" stroke-width="1.5" d="M0,-3.0v7 M-2.5,-0.5L0,-3.0L2.5,-0.5"/>
                </g>
               <g id="resetDef">
                       <use xlink:href="#rim2" fill="#404040">
                               <set attributeName="fill" to="#808080" begin="reset.mouseover" end="reset.mouseout"/>
                       </use>
               </g>
        </defs>

<script type="text/javascript">
var viewWidth = 1698;
var viewHeight = 252;
var sectionId = 'dynsection-0';
</script>
<script xlink:href="svgpan.js"/>
<svg id="graph" class="graph">
<g id="viewport">
<title>maptiles.h</title>
<!-- Node0 -->
<g id="node1" class="node">
<title>Node0</title>
<g id="a_node1"><a xlink:title="mapTiles() function.">
<polygon fill="#bfbfbf" stroke="#000000" points="1211.6879,-224.5 1211.6879,-243.5 1303.6879,-243.5 1303.6879,-224.5 1211.6879,-224.5"/>
<text text-anchor="middle" x="1257.6879" y="-231.5" font-family="Helvetica,sans-Serif" font-size="10.00" fill="#000000">maptiles.h</text>
</a>
</g>
</g>
<!-- Node1 -->
<g id="node2" class="node">
<title>Node1</title>
<g id="a_node2"><a xlink:title=" ">
<polygon fill="none" stroke="#bfbfbf" points="609.1879,-168.5 609.1879,-187.5 648.1879,-187.5 648.1879,-168.5 609.1879,-168.5"/>
<text text-anchor="middle" x="628.6879" y="-175.5" font-family="Helvetica,sans-Serif" font-size="10.00" fill="#000000">map</text>
</a>
</g>
</g>
<!-- Node0&#45;&gt;Node1 -->
<g id="edge1" class="edge">
<title>Node0&#45;&gt;Node1</title>
<path fill="none" stroke="#191970" d="M1211.2636,-232.048C1092.7307,-226.8152 780.2194,-211.3947 658.213,-187.78"/>
<polygon fill="#191970" stroke="#191970" points="658.8822,-184.3445 648.3836,-185.769 657.4791,-191.2024 658.8822,-184.3445"/>
</g>
<!-- Node2 -->
<g id="node3" class="node">
<title>Node2</title>
<g id="a_node3"><a xlink:title=" ">
<polygon fill="none" stroke="#bfbfbf" points="1101.6879,-56.5 1101.6879,-75.5 1163.6879,-75.5 1163.6879,-56.5 1101.6879,-56.5"/>
<text text-anchor="middle" x="1132.6879" y="-63.5" font-family="Helvetica,sans-Serif" font-size="10.00" fill="#000000">vector</text>
</a>
</g>
</g>
<!-- Node0&#45;&gt;Node2 -->
<g id="edge2" class="edge">
<title>Node0&#45;&gt;Node2</title>
<path fill="none" stroke="#191970" d="M1250.6092,-224.4862C1230.4219,-197.3545 1172.3306,-119.2798 1145.9748,-83.8576"/>
<polygon fill="#191970" stroke="#191970" points="1148.7778,-81.7615 1140.0003,-75.8279 1143.1617,-85.9401 1148.7778,-81.7615"/>
</g>
<!-- Node3 -->
<g id="node4" class="node">
<title>Node3</title>
<g id="a_node4"><a xlink:title=" ">
<polygon fill="none" stroke="#bfbfbf" points="1348.1879,-56.5 1348.1879,-75.5 1447.1879,-75.5 1447.1879,-56.5 1348.1879,-56.5"/>
<text text-anchor="middle" x="1397.6879" y="-63.5" font-family="Helvetica,sans-Serif" font-size="10.00" fill="#000000">cs225/PNG.h</text>
</a>
</g>
</g>
<!-- Node0&#45;&gt;Node3 -->
<g id="edge3" class="edge">
<title>Node0&#45;&gt;Node3</title>
<path fill="none" stroke="#191970" d="M1303.7535,-226.9157C1345.6779,-219.4157 1403.0472,-206.1464 1416.6879,-188 1439.5432,-157.5953 1421.5858,-110.7253 1408.4132,-84.8237"/>
<polygon fill="#191970" stroke="#191970" points="1411.3351,-82.8663 1403.527,-75.705 1405.1651,-86.1724 1411.3351,-82.8663"/>
</g>
<!-- Node4 -->
<g id="node5" class="node">
<title>Node4</title>
<g id="a_node5"><a xlink:href="kdtree_8h.html" target="_top" xlink:title="KDTree implementation using Points in k&#45;dimensional space.">
<polygon fill="none" stroke="#000000" points="666.1879,-168.5 666.1879,-187.5 743.1879,-187.5 743.1879,-168.5 666.1879,-168.5"/>
<text text-anchor="middle" x="704.6879" y="-175.5" font-family="Helvetica,sans-Serif" font-size="10.00" fill="#000000">kdtree.h</text>
</a>
</g>
</g>
<!-- Node0&#45;&gt;Node4 -->
<g id="edge4" class="edge">
<title>Node0&#45;&gt;Node4</title>
<path fill="none" stroke="#191970" d="M1211.4906,-229.3218C1108.1135,-218.8532 858.9421,-193.6207 753.3189,-182.9247"/>
<polygon fill="#191970" stroke="#191970" points="753.5572,-179.431 743.2554,-181.9056 752.8519,-186.3954 753.5572,-179.431"/>
</g>
<!-- Node24 -->
<g id="node25" class="node">
<title>Node24</title>
<g id="a_node25"><a xlink:href="mosaiccanvas_8h.html" target="_top" xlink:title="Implementation of the mosaic data structure.">
<polygon fill="none" stroke="#000000" points="1285.6879,-168.5 1285.6879,-187.5 1407.6879,-187.5 1407.6879,-168.5 1285.6879,-168.5"/>
<text text-anchor="middle" x="1346.6879" y="-175.5" font-family="Helvetica,sans-Serif" font-size="10.00" fill="#000000">mosaiccanvas.h</text>
</a>
</g>
</g>
<!-- Node0&#45;&gt;Node24 -->
<g id="edge37" class="edge">
<title>Node0&#45;&gt;Node24</title>
<path fill="none" stroke="#191970" d="M1273.1905,-224.2455C1286.8459,-215.6534 1306.9536,-203.0014 1322.6868,-193.1018"/>
<polygon fill="#191970" stroke="#191970" points="1324.763,-195.9307 1331.3629,-187.6427 1321.035,-190.006 1324.763,-195.9307"/>
</g>
<!-- Node25 -->
<g id="node26" class="node">
<title>Node25</title>
<g id="a_node26"><a xlink:href="tileimage_8h.html" target="_top" xlink:title=" ">
<polygon fill="none" stroke="#000000" points="1464.1879,-112.5 1464.1879,-131.5 1563.1879,-131.5 1563.1879,-112.5 1464.1879,-112.5"/>
<text text-anchor="middle" x="1513.6879" y="-119.5" font-family="Helvetica,sans-Serif" font-size="10.00" fill="#000000">tileimage.h</text>
</a>
</g>
</g>
<!-- Node0&#45;&gt;Node25 -->
<g id="edge48" class="edge">
<title>Node0&#45;&gt;Node25</title>
<path fill="none" stroke="#191970" d="M1303.7927,-230.2625C1344.4419,-225.3249 1404.1237,-213.9654 1449.6879,-188 1470.7857,-175.9771 1489.4109,-154.934 1501.0509,-139.8384"/>
<polygon fill="#191970" stroke="#191970" points="1503.906,-141.8644 1507.0631,-131.7508 1498.2882,-137.6882 1503.906,-141.8644"/>
</g>
<!-- Node28 -->
<g id="node29" class="node">
<title>Node28</title>
<g id="a_node29"><a xlink:href="sourceimage_8h.html" target="_top" xlink:title=" ">
<polygon fill="none" stroke="#000000" points="1255.6879,-112.5 1255.6879,-131.5 1369.6879,-131.5 1369.6879,-112.5 1255.6879,-112.5"/>
<text text-anchor="middle" x="1312.6879" y="-119.5" font-family="Helvetica,sans-Serif" font-size="10.00" fill="#000000">sourceimage.h</text>
</a>
</g>
</g>
<!-- Node0&#45;&gt;Node28 -->
<g id="edge45" class="edge">
<title>Node0&#45;&gt;Node28</title>
<path fill="none" stroke="#191970" d="M1259.2983,-224.1678C1261.742,-210.8762 1267.1431,-186.6895 1276.6879,-168 1281.8912,-157.8114 1289.4996,-147.6696 1296.3828,-139.5119"/>
<polygon fill="#191970" stroke="#191970" points="1299.1821,-141.629 1303.1622,-131.8102 1293.9277,-137.0039 1299.1821,-141.629"/>
</g>
<!-- Node4&#45;&gt;Node2 -->
<g id="edge5" class="edge">
<title>Node4&#45;&gt;Node2</title>
<path fill="none" stroke="#191970" d="M743.4007,-175.3724C835.9885,-168.8132 1064.699,-150.885 1093.6879,-132 1110.3597,-121.1391 1120.8598,-100.4549 1126.7109,-85.1247"/>
<polygon fill="#191970" stroke="#191970" points="1130.0605,-86.1482 1130.0376,-75.5534 1123.4485,-83.85 1130.0605,-86.1482"/>
</g>
<!-- Node5 -->
<g id="node6" class="node">
<title>Node5</title>
<g id="a_node6"><a xlink:title=" ">
<polygon fill="none" stroke="#bfbfbf" points="493.6879,-56.5 493.6879,-75.5 637.6879,-75.5 637.6879,-56.5 493.6879,-56.5"/>
<text text-anchor="middle" x="565.6879" y="-63.5" font-family="Helvetica,sans-Serif" font-size="10.00" fill="#000000">util/coloredout.h</text>
</a>
</g>
</g>
<!-- Node4&#45;&gt;Node5 -->
<g id="edge6" class="edge">
<title>Node4&#45;&gt;Node5</title>
<path fill="none" stroke="#191970" d="M681.8715,-168.3632C664.1182,-160.2173 639.4326,-147.4246 620.6879,-132 603.8708,-118.1616 588.3448,-98.6378 578.1082,-84.4162"/>
<polygon fill="#191970" stroke="#191970" points="580.785,-82.1367 572.1846,-75.9493 575.0493,-86.1495 580.785,-82.1367"/>
</g>
<!-- Node6 -->
<g id="node7" class="node">
<title>Node6</title>
<g id="a_node7"><a xlink:title=" ">
<polygon fill="none" stroke="#bfbfbf" points="905.6879,-112.5 905.6879,-131.5 997.6879,-131.5 997.6879,-112.5 905.6879,-112.5"/>
<text text-anchor="middle" x="951.6879" y="-119.5" font-family="Helvetica,sans-Serif" font-size="10.00" fill="#000000">sys/wait.h</text>
</a>
</g>
</g>
<!-- Node4&#45;&gt;Node6 -->
<g id="edge7" class="edge">
<title>Node4&#45;&gt;Node6</title>
<path fill="none" stroke="#191970" d="M743.2817,-169.25C785.3749,-159.7066 852.9737,-144.3806 899.7142,-133.7835"/>
<polygon fill="#191970" stroke="#191970" points="900.6692,-137.1559 909.6478,-131.5314 899.1214,-130.3292 900.6692,-137.1559"/>
</g>
<!-- Node7 -->
<g id="node8" class="node">
<title>Node7</title>
<g id="a_node8"><a xlink:title=" ">
<polygon fill="none" stroke="#bfbfbf" points="1016.1879,-112.5 1016.1879,-131.5 1085.1879,-131.5 1085.1879,-112.5 1016.1879,-112.5"/>
<text text-anchor="middle" x="1050.6879" y="-119.5" font-family="Helvetica,sans-Serif" font-size="10.00" fill="#000000">errno.h</text>
</a>
</g>
</g>
<!-- Node4&#45;&gt;Node7 -->
<g id="edge8" class="edge">
<title>Node4&#45;&gt;Node7</title>
<path fill="none" stroke="#191970" d="M743.4548,-173.0086C799.2189,-165.629 905.4995,-150.8213 1006.1192,-131.9919"/>
<polygon fill="#191970" stroke="#191970" points="1006.9733,-135.3926 1016.1501,-130.0976 1005.6743,-128.5141 1006.9733,-135.3926"/>
</g>
<!-- Node8 -->
<g id="node9" class="node">
<title>Node8</title>
<g id="a_node9"><a xlink:title=" ">
<polygon fill="none" stroke="#bfbfbf" points="656.1879,-56.5 656.1879,-75.5 733.1879,-75.5 733.1879,-56.5 656.1879,-56.5"/>
<text text-anchor="middle" x="694.6879" y="-63.5" font-family="Helvetica,sans-Serif" font-size="10.00" fill="#000000">unistd.h</text>
</a>
</g>
</g>
<!-- Node4&#45;&gt;Node8 -->
<g id="edge9" class="edge">
<title>Node4&#45;&gt;Node8</title>
<path fill="none" stroke="#191970" d="M674.7421,-168.4983C657.6825,-161.3713 637.7555,-149.7417 627.6879,-132 615.7894,-111.0318 639.906,-92.295 662.4503,-80.1912"/>
<polygon fill="#191970" stroke="#191970" points="664.234,-83.2114 671.5808,-75.5776 661.077,-76.9638 664.234,-83.2114"/>
</g>
<!-- Node9 -->
<g id="node10" class="node">
<title>Node9</title>
<g id="a_node10"><a xlink:title=" ">
<polygon fill="none" stroke="#bfbfbf" points="1253.1879,-56.5 1253.1879,-75.5 1330.1879,-75.5 1330.1879,-56.5 1253.1879,-56.5"/>
<text text-anchor="middle" x="1291.6879" y="-63.5" font-family="Helvetica,sans-Serif" font-size="10.00" fill="#000000">stdint.h</text>
</a>
</g>
</g>
<!-- Node4&#45;&gt;Node9 -->
<g id="edge10" class="edge">
<title>Node4&#45;&gt;Node9</title>
<path fill="none" stroke="#191970" d="M743.3946,-176.9253C817.1886,-174.1682 982.6827,-164.571 1117.6879,-132 1170.1425,-119.3449 1228.2129,-95.1111 1262.2458,-79.7926"/>
<polygon fill="#191970" stroke="#191970" points="1263.9424,-82.8659 1271.593,-75.5366 1261.0416,-76.4952 1263.9424,-82.8659"/>
</g>
<!-- Node10 -->
<g id="node11" class="node">
<title>Node10</title>
<g id="a_node11"><a xlink:title=" ">
<polygon fill="none" stroke="#bfbfbf" points="751.6879,-56.5 751.6879,-75.5 813.6879,-75.5 813.6879,-56.5 751.6879,-56.5"/>
<text text-anchor="middle" x="782.6879" y="-63.5" font-family="Helvetica,sans-Serif" font-size="10.00" fill="#000000">string</text>
</a>
</g>
</g>
<!-- Node4&#45;&gt;Node10 -->
<g id="edge11" class="edge">
<title>Node4&#45;&gt;Node10</title>
<path fill="none" stroke="#191970" d="M690.1431,-168.3118C672.5738,-155.3844 646.9787,-131.8204 660.6879,-112 670.2738,-98.141 709.9755,-84.8432 741.5207,-76.1416"/>
<polygon fill="#191970" stroke="#191970" points="742.6764,-79.4553 751.4275,-73.483 740.862,-72.6945 742.6764,-79.4553"/>
</g>
<!-- Node11 -->
<g id="node12" class="node">
<title>Node11</title>
<g id="a_node12"><a xlink:title=" ">
<polygon fill="none" stroke="#bfbfbf" points="14.1879,-56.5 14.1879,-75.5 83.1879,-75.5 83.1879,-56.5 14.1879,-56.5"/>
<text text-anchor="middle" x="48.6879" y="-63.5" font-family="Helvetica,sans-Serif" font-size="10.00" fill="#000000">sstream</text>
</a>
</g>
</g>
<!-- Node4&#45;&gt;Node11 -->
<g id="edge12" class="edge">
<title>Node4&#45;&gt;Node11</title>
<path fill="none" stroke="#191970" d="M665.9771,-169.5827C662.8413,-169.0084 659.7158,-168.4717 656.6879,-168 503.9224,-144.2028 462.9284,-158.9525 310.6879,-132 231.6616,-118.0092 141.2394,-93.2392 89.9527,-78.3475"/>
<polygon fill="#191970" stroke="#191970" points="90.8124,-74.9524 80.2321,-75.507 88.849,-81.6714 90.8124,-74.9524"/>
</g>
<!-- Node12 -->
<g id="node13" class="node">
<title>Node12</title>
<g id="a_node13"><a xlink:title=" ">
<polygon fill="none" stroke="#bfbfbf" points="37.1879,-.5 37.1879,-19.5 114.1879,-19.5 114.1879,-.5 37.1879,-.5"/>
<text text-anchor="middle" x="75.6879" y="-7.5" font-family="Helvetica,sans-Serif" font-size="10.00" fill="#000000">iostream</text>
</a>
</g>
</g>
<!-- Node4&#45;&gt;Node12 -->
<g id="edge13" class="edge">
<title>Node4&#45;&gt;Node12</title>
<path fill="none" stroke="#191970" d="M665.988,-169.5106C662.8497,-168.9525 659.7207,-168.4391 656.6879,-168 511.8739,-147.0318 94.1699,-191.7745 4.6879,-76 -10.8945,-55.839 16.79,-36.4395 42.0133,-23.9529"/>
<polygon fill="#191970" stroke="#191970" points="43.549,-27.0984 51.11,-19.6767 40.571,-20.7635 43.549,-27.0984"/>
</g>
<!-- Node13 -->
<g id="node14" class="node">
<title>Node13</title>
<g id="a_node14"><a xlink:title=" ">
<polygon fill="none" stroke="#bfbfbf" points="670.1879,-112.5 670.1879,-131.5 739.1879,-131.5 739.1879,-112.5 670.1879,-112.5"/>
<text text-anchor="middle" x="704.6879" y="-119.5" font-family="Helvetica,sans-Serif" font-size="10.00" fill="#000000">fstream</text>
</a>
</g>
</g>
<!-- Node4&#45;&gt;Node13 -->
<g id="edge14" class="edge">
<title>Node4&#45;&gt;Node13</title>
<path fill="none" stroke="#191970" d="M704.6879,-168.2455C704.6879,-160.9382 704.6879,-150.6944 704.6879,-141.7046"/>
<polygon fill="#191970" stroke="#191970" points="708.188,-141.6426 704.6879,-131.6427 701.188,-141.6427 708.188,-141.6426"/>
</g>
<!-- Node14 -->
<g id="node15" class="node">
<title>Node14</title>
<g id="a_node15"><a xlink:href="point_8h.html" target="_top" xlink:title="Definition of a Point class for k dimensional points.">
<polygon fill="none" stroke="#000000" points="140.1879,-56.5 140.1879,-75.5 209.1879,-75.5 209.1879,-56.5 140.1879,-56.5"/>
<text text-anchor="middle" x="174.6879" y="-63.5" font-family="Helvetica,sans-Serif" font-size="10.00" fill="#000000">point.h</text>
</a>
</g>
</g>
<!-- Node4&#45;&gt;Node14 -->
<g id="edge15" class="edge">
<title>Node4&#45;&gt;Node14</title>
<path fill="none" stroke="#191970" d="M665.9619,-169.6762C662.8295,-169.081 659.7089,-168.5139 656.6879,-168 536.4717,-147.5507 503.7436,-158.3794 384.6879,-132 321.9534,-118.0998 251.0382,-93.9883 209.7497,-79.0749"/>
<polygon fill="#191970" stroke="#191970" points="210.7562,-75.7166 200.1622,-75.5844 208.3615,-82.2943 210.7562,-75.7166"/>
</g>
<!-- Node18 -->
<g id="node19" class="node">
<title>Node18</title>
<g id="a_node19"><a xlink:href="kdtree_8hpp.html" target="_top" xlink:title=" ">
<polygon fill="none" stroke="#000000" points="795.6879,-112.5 795.6879,-131.5 887.6879,-131.5 887.6879,-112.5 795.6879,-112.5"/>
<text text-anchor="middle" x="841.6879" y="-119.5" font-family="Helvetica,sans-Serif" font-size="10.00" fill="#000000">kdtree.hpp</text>
</a>
</g>
</g>
<!-- Node4&#45;&gt;Node18 -->
<g id="edge20" class="edge">
<title>Node4&#45;&gt;Node18</title>
<path fill="none" stroke="#191970" d="M728.239,-168.3733C750.527,-159.2629 784.1816,-145.5062 809.0516,-135.3404"/>
<polygon fill="#191970" stroke="#191970" points="810.5119,-138.5247 818.4441,-131.5011 807.8632,-132.0451 810.5119,-138.5247"/>
</g>
<!-- Node20 -->
<g id="node21" class="node">
<title>Node20</title>
<g id="a_node21"><a xlink:title=" ">
<polygon fill="none" stroke="#bfbfbf" points="831.6879,-56.5 831.6879,-75.5 915.6879,-75.5 915.6879,-56.5 831.6879,-56.5"/>
<text text-anchor="middle" x="873.6879" y="-63.5" font-family="Helvetica,sans-Serif" font-size="10.00" fill="#000000">algorithm</text>
</a>
</g>
</g>
<!-- Node4&#45;&gt;Node20 -->
<g id="edge36" class="edge">
<title>Node4&#45;&gt;Node20</title>
<path fill="none" stroke="#191970" d="M715.3187,-168.3327C730.4859,-154.8052 759.5152,-129.882 786.6879,-112 804.9921,-99.9543 826.7914,-88.4328 843.9899,-79.9336"/>
<polygon fill="#191970" stroke="#191970" points="845.5601,-83.062 853.0199,-75.5386 842.4966,-76.7679 845.5601,-83.062"/>
</g>
<!-- Node21 -->
<g id="node22" class="node">
<title>Node21</title>
<g id="a_node22"><a xlink:href="kdtree__extras_8hpp.html" target="_top" xlink:title=" ">
<polygon fill="none" stroke="#000000" points="393.6879,-112.5 393.6879,-131.5 537.6879,-131.5 537.6879,-112.5 393.6879,-112.5"/>
<text text-anchor="middle" x="465.6879" y="-119.5" font-family="Helvetica,sans-Serif" font-size="10.00" fill="#000000">kdtree_extras.hpp</text>
</a>
</g>
</g>
<!-- Node4&#45;&gt;Node21 -->
<g id="edge23" class="edge">
<title>Node4&#45;&gt;Node21</title>
<path fill="none" stroke="#191970" d="M666.0791,-170.0953C623.6736,-160.6775 555.8617,-144.8488 510.9902,-133.9376"/>
<polygon fill="#191970" stroke="#191970" points="511.7689,-130.5249 501.2239,-131.5512 510.1073,-137.3249 511.7689,-130.5249"/>
</g>
<!-- Node14&#45;&gt;Node12 -->
<g id="edge17" class="edge">
<title>Node14&#45;&gt;Node12</title>
<path fill="none" stroke="#191970" d="M157.4434,-56.2455C142.1118,-47.5731 119.468,-34.7645 101.8963,-24.825"/>
<polygon fill="#191970" stroke="#191970" points="103.162,-21.5198 92.7348,-19.6427 99.7156,-27.6126 103.162,-21.5198"/>
</g>
<!-- Node15 -->
<g id="node16" class="node">
<title>Node15</title>
<g id="a_node16"><a xlink:title=" ">
<polygon fill="none" stroke="#bfbfbf" points="235.1879,-.5 235.1879,-19.5 304.1879,-19.5 304.1879,-.5 235.1879,-.5"/>
<text text-anchor="middle" x="269.6879" y="-7.5" font-family="Helvetica,sans-Serif" font-size="10.00" fill="#000000">cstdarg</text>
</a>
</g>
</g>
<!-- Node14&#45;&gt;Node15 -->
<g id="edge16" class="edge">
<title>Node14&#45;&gt;Node15</title>
<path fill="none" stroke="#191970" d="M191.2356,-56.2455C205.9478,-47.5731 227.6767,-34.7645 244.5384,-24.825"/>
<polygon fill="#191970" stroke="#191970" points="246.4925,-27.736 253.3298,-19.6427 242.9378,-21.7057 246.4925,-27.736"/>
</g>
<!-- Node16 -->
<g id="node17" class="node">
<title>Node16</title>
<g id="a_node17"><a xlink:title=" ">
<polygon fill="none" stroke="#bfbfbf" points="328.6879,-.5 328.6879,-19.5 412.6879,-19.5 412.6879,-.5 328.6879,-.5"/>
<text text-anchor="middle" x="370.6879" y="-7.5" font-family="Helvetica,sans-Serif" font-size="10.00" fill="#000000">stdexcept</text>
</a>
</g>
</g>
<!-- Node14&#45;&gt;Node16 -->
<g id="edge18" class="edge">
<title>Node14&#45;&gt;Node16</title>
<path fill="none" stroke="#191970" d="M208.3815,-56.3733C241.3966,-46.9404 291.8452,-32.5265 327.7265,-22.2747"/>
<polygon fill="#191970" stroke="#191970" points="328.7803,-25.6137 337.434,-19.5011 326.8572,-18.8831 328.7803,-25.6137"/>
</g>
<!-- Node17 -->
<g id="node18" class="node">
<title>Node17</title>
<g id="a_node18"><a xlink:href="point_8cpp.html" target="_top" xlink:title="Implementation of Point class.">
<polygon fill="none" stroke="#000000" points="132.6879,-.5 132.6879,-19.5 216.6879,-19.5 216.6879,-.5 132.6879,-.5"/>
<text text-anchor="middle" x="174.6879" y="-7.5" font-family="Helvetica,sans-Serif" font-size="10.00" fill="#000000">point.cpp</text>
</a>
</g>
</g>
<!-- Node14&#45;&gt;Node17 -->
<g id="edge19" class="edge">
<title>Node14&#45;&gt;Node17</title>
<path fill="none" stroke="#191970" d="M174.6879,-56.2455C174.6879,-48.9382 174.6879,-38.6944 174.6879,-29.7046"/>
<polygon fill="#191970" stroke="#191970" points="178.188,-29.6426 174.6879,-19.6427 171.188,-29.6427 178.188,-29.6426"/>
</g>
<!-- Node19 -->
<g id="node20" class="node">
<title>Node19</title>
<g id="a_node20"><a xlink:title=" ">
<polygon fill="none" stroke="#bfbfbf" points="934.1879,-56.5 934.1879,-75.5 1003.1879,-75.5 1003.1879,-56.5 934.1879,-56.5"/>
<text text-anchor="middle" x="968.6879" y="-63.5" font-family="Helvetica,sans-Serif" font-size="10.00" fill="#000000">utility</text>
</a>
</g>
</g>
<!-- Node18&#45;&gt;Node19 -->
<g id="edge21" class="edge">
<title>Node18&#45;&gt;Node19</title>
<path fill="none" stroke="#191970" d="M863.52,-112.3733C883.9982,-103.3435 914.8278,-89.7494 937.8198,-79.6111"/>
<polygon fill="#191970" stroke="#191970" points="939.4029,-82.7383 947.1407,-75.5011 936.5786,-76.3333 939.4029,-82.7383"/>
</g>
<!-- Node18&#45;&gt;Node20 -->
<g id="edge22" class="edge">
<title>Node18&#45;&gt;Node20</title>
<path fill="none" stroke="#191970" d="M847.2619,-112.2455C851.621,-104.617 857.809,-93.7881 863.1012,-84.5267"/>
<polygon fill="#191970" stroke="#191970" points="866.2552,-86.0616 868.1778,-75.6427 860.1775,-82.5886 866.2552,-86.0616"/>
</g>
<!-- Node21&#45;&gt;Node2 -->
<g id="edge27" class="edge">
<title>Node21&#45;&gt;Node2</title>
<path fill="none" stroke="#191970" d="M537.7023,-115.9538C677.3723,-104.2274 981.02,-78.7337 1091.4668,-69.4608"/>
<polygon fill="#191970" stroke="#191970" points="1091.868,-72.9396 1101.5401,-68.6151 1091.2823,-65.9641 1091.868,-72.9396"/>
</g>
<!-- Node21&#45;&gt;Node4 -->
<g id="edge35" class="edge">
<title>Node21&#45;&gt;Node4</title>
<path fill="none" stroke="#191970" d="M511.5553,-131.5237C554.1099,-141.0532 616.9335,-155.7401 659.3234,-166.0473"/>
<polygon fill="#191970" stroke="#191970" points="658.5584,-169.4633 669.1034,-168.4369 660.22,-162.6633 658.5584,-169.4633"/>
</g>
<!-- Node21&#45;&gt;Node5 -->
<g id="edge33" class="edge">
<title>Node21&#45;&gt;Node5</title>
<path fill="none" stroke="#191970" d="M483.1066,-112.2455C498.7364,-103.4928 521.8898,-90.527 539.7064,-80.5496"/>
<polygon fill="#191970" stroke="#191970" points="541.4539,-83.5825 548.4688,-75.6427 538.0336,-77.475 541.4539,-83.5825"/>
</g>
<!-- Node21&#45;&gt;Node8 -->
<g id="edge24" class="edge">
<title>Node21&#45;&gt;Node8</title>
<path fill="none" stroke="#191970" d="M504.7942,-112.4369C543.9394,-102.8643 604.2486,-88.1162 646.3663,-77.8166"/>
<polygon fill="#191970" stroke="#191970" points="647.2425,-81.2056 656.1249,-75.4303 645.5797,-74.4059 647.2425,-81.2056"/>
</g>
<!-- Node21&#45;&gt;Node10 -->
<g id="edge28" class="edge">
<title>Node21&#45;&gt;Node10</title>
<path fill="none" stroke="#191970" d="M531.1854,-112.4822C584.9673,-104.347 663.3206,-91.7658 741.3891,-75.9327"/>
<polygon fill="#191970" stroke="#191970" points="742.3073,-79.3174 751.4025,-73.8834 740.9038,-72.4596 742.3073,-79.3174"/>
</g>
<!-- Node21&#45;&gt;Node11 -->
<g id="edge25" class="edge">
<title>Node21&#45;&gt;Node11</title>
<path fill="none" stroke="#191970" d="M393.527,-114.6403C319.159,-106.6668 199.9782,-92.8053 97.6879,-76 96.2422,-75.7625 94.7741,-75.5128 93.2929,-75.2536"/>
<polygon fill="#191970" stroke="#191970" points="93.8946,-71.8057 83.4255,-73.4332 92.6245,-78.6895 93.8946,-71.8057"/>
</g>
<!-- Node21&#45;&gt;Node12 -->
<g id="edge26" class="edge">
<title>Node21&#45;&gt;Node12</title>
<path fill="none" stroke="#191970" d="M393.5639,-118.1794C308.9157,-112.6509 174.5209,-100.3035 130.6879,-76 110.8114,-64.9793 95.111,-43.6954 85.6573,-28.2704"/>
<polygon fill="#191970" stroke="#191970" points="88.6491,-26.4528 80.5967,-19.5674 82.5978,-29.9716 88.6491,-26.4528"/>
</g>
<!-- Node21&#45;&gt;Node14 -->
<g id="edge34" class="edge">
<title>Node21&#45;&gt;Node14</title>
<path fill="none" stroke="#191970" d="M411.1167,-112.473C363.2385,-103.9703 291.4873,-90.8811 219.4163,-76.0878"/>
<polygon fill="#191970" stroke="#191970" points="219.7482,-72.5826 209.2471,-73.9894 218.3335,-79.4382 219.7482,-72.5826"/>
</g>
<!-- Node21&#45;&gt;Node16 -->
<g id="edge31" class="edge">
<title>Node21&#45;&gt;Node16</title>
<path fill="none" stroke="#191970" d="M444.7825,-112.3891C429.6326,-104.4969 409.618,-92.0211 396.6879,-76 385.8245,-62.5395 379.0551,-43.9824 375.1574,-29.9728"/>
<polygon fill="#191970" stroke="#191970" points="378.4568,-28.7412 372.6239,-19.8966 371.6681,-30.4482 378.4568,-28.7412"/>
</g>
<!-- Node21&#45;&gt;Node20 -->
<g id="edge29" class="edge">
<title>Node21&#45;&gt;Node20</title>
<path fill="none" stroke="#191970" d="M538.0261,-114.0865C608.0308,-106.1078 717.3608,-92.8056 821.3774,-76.132"/>
<polygon fill="#191970" stroke="#191970" points="822.112,-79.5588 831.4254,-74.508 820.995,-72.6485 822.112,-79.5588"/>
</g>
<!-- Node22 -->
<g id="node23" class="node">
<title>Node22</title>
<g id="a_node23"><a xlink:title=" ">
<polygon fill="none" stroke="#bfbfbf" points="406.1879,-56.5 406.1879,-75.5 475.1879,-75.5 475.1879,-56.5 406.1879,-56.5"/>
<text text-anchor="middle" x="440.6879" y="-63.5" font-family="Helvetica,sans-Serif" font-size="10.00" fill="#000000">iomanip</text>
</a>
</g>
</g>
<!-- Node21&#45;&gt;Node22 -->
<g id="edge30" class="edge">
<title>Node21&#45;&gt;Node22</title>
<path fill="none" stroke="#191970" d="M461.3332,-112.2455C457.9635,-104.6973 453.1949,-94.0158 449.0896,-84.8197"/>
<polygon fill="#191970" stroke="#191970" points="452.2652,-83.3473 444.9927,-75.6427 445.8733,-86.2009 452.2652,-83.3473"/>
</g>
<!-- Node23 -->
<g id="node24" class="node">
<title>Node23</title>
<g id="a_node24"><a xlink:title=" ">
<polygon fill="none" stroke="#bfbfbf" points="227.6879,-56.5 227.6879,-75.5 349.6879,-75.5 349.6879,-56.5 227.6879,-56.5"/>
<text text-anchor="middle" x="288.6879" y="-63.5" font-family="Helvetica,sans-Serif" font-size="10.00" fill="#000000">util/no_sort.h</text>
</a>
</g>
</g>
<!-- Node21&#45;&gt;Node23 -->
<g id="edge32" class="edge">
<title>Node21&#45;&gt;Node23</title>
<path fill="none" stroke="#191970" d="M435.2605,-112.3733C405.7007,-103.021 360.6653,-88.7725 328.3184,-78.5385"/>
<polygon fill="#191970" stroke="#191970" points="329.3082,-75.1807 318.7182,-75.5011 327.1967,-81.8546 329.3082,-75.1807"/>
</g>
<!-- Node24&#45;&gt;Node2 -->
<g id="edge38" class="edge">
<title>Node24&#45;&gt;Node2</title>
<path fill="none" stroke="#191970" d="M1324.1579,-168.3584C1303.6989,-159.4334 1272.819,-145.5367 1246.6879,-132 1215.098,-115.6355 1179.8038,-94.7876 1156.9727,-80.9482"/>
<polygon fill="#191970" stroke="#191970" points="1158.6489,-77.871 1148.2879,-75.6571 1155.0069,-83.849 1158.6489,-77.871"/>
</g>
<!-- Node24&#45;&gt;Node3 -->
<g id="edge39" class="edge">
<title>Node24&#45;&gt;Node3</title>
<path fill="none" stroke="#191970" d="M1354.8147,-168.3546C1361.979,-159.4271 1372.2517,-145.5288 1378.6879,-132 1385.7312,-117.1949 1390.6897,-99.2537 1393.7711,-85.8162"/>
<polygon fill="#191970" stroke="#191970" points="1397.2538,-86.2666 1395.9224,-75.7557 1390.4086,-84.8027 1397.2538,-86.2666"/>
</g>
<!-- Node24&#45;&gt;Node25 -->
<g id="edge40" class="edge">
<title>Node24&#45;&gt;Node25</title>
<path fill="none" stroke="#191970" d="M1375.3962,-168.3733C1403.0456,-159.1016 1445.0455,-145.0178 1475.5045,-134.804"/>
<polygon fill="#191970" stroke="#191970" points="1476.9858,-137.9989 1485.3542,-131.5011 1474.7603,-131.3621 1476.9858,-137.9989"/>
</g>
<!-- Node25&#45;&gt;Node3 -->
<g id="edge43" class="edge">
<title>Node25&#45;&gt;Node3</title>
<path fill="none" stroke="#191970" d="M1493.7468,-112.3733C1475.2093,-103.4241 1447.3851,-89.9917 1426.4466,-79.8835"/>
<polygon fill="#191970" stroke="#191970" points="1427.896,-76.6967 1417.3688,-75.5011 1424.8527,-83.0006 1427.896,-76.6967"/>
</g>
<!-- Node25&#45;&gt;Node9 -->
<g id="edge42" class="edge">
<title>Node25&#45;&gt;Node9</title>
<path fill="none" stroke="#191970" d="M1475.777,-112.4369C1438.0229,-102.9133 1379.9614,-88.2672 1339.1615,-77.9753"/>
<polygon fill="#191970" stroke="#191970" points="1339.9948,-74.576 1329.4425,-75.5237 1338.2826,-81.3633 1339.9948,-74.576"/>
</g>
<!-- Node26 -->
<g id="node27" class="node">
<title>Node26</title>
<g id="a_node27"><a xlink:title=" ">
<polygon fill="none" stroke="#bfbfbf" points="1627.6879,-56.5 1627.6879,-75.5 1689.6879,-75.5 1689.6879,-56.5 1627.6879,-56.5"/>
<text text-anchor="middle" x="1658.6879" y="-63.5" font-family="Helvetica,sans-Serif" font-size="10.00" fill="#000000">math.h</text>
</a>
</g>
</g>
<!-- Node25&#45;&gt;Node26 -->
<g id="edge41" class="edge">
<title>Node25&#45;&gt;Node26</title>
<path fill="none" stroke="#191970" d="M1538.6143,-112.3733C1562.3081,-103.2226 1598.139,-89.3844 1624.4947,-79.2057"/>
<polygon fill="#191970" stroke="#191970" points="1626.0193,-82.3689 1634.0868,-75.5011 1623.4973,-75.8389 1626.0193,-82.3689"/>
</g>
<!-- Node27 -->
<g id="node28" class="node">
<title>Node27</title>
<g id="a_node28"><a xlink:title=" ">
<polygon fill="none" stroke="#bfbfbf" points="1465.6879,-56.5 1465.6879,-75.5 1609.6879,-75.5 1609.6879,-56.5 1465.6879,-56.5"/>
<text text-anchor="middle" x="1537.6879" y="-63.5" font-family="Helvetica,sans-Serif" font-size="10.00" fill="#000000">cs225/LUVAPixel.h</text>
</a>
</g>
</g>
<!-- Node25&#45;&gt;Node27 -->
<g id="edge44" class="edge">
<title>Node25&#45;&gt;Node27</title>
<path fill="none" stroke="#191970" d="M1517.8684,-112.2455C1521.0689,-104.7776 1525.5839,-94.2427 1529.4963,-85.1137"/>
<polygon fill="#191970" stroke="#191970" points="1532.8331,-86.2129 1533.5553,-75.6427 1526.3991,-83.4554 1532.8331,-86.2129"/>
</g>
<!-- Node28&#45;&gt;Node3 -->
<g id="edge47" class="edge">
<title>Node28&#45;&gt;Node3</title>
<path fill="none" stroke="#191970" d="M1327.4938,-112.2455C1340.4135,-103.7337 1359.381,-91.2375 1374.3431,-81.3801"/>
<polygon fill="#191970" stroke="#191970" points="1376.6266,-84.067 1383.0517,-75.6427 1372.7755,-78.2216 1376.6266,-84.067"/>
</g>
<!-- Node28&#45;&gt;Node9 -->
<g id="edge46" class="edge">
<title>Node28&#45;&gt;Node9</title>
<path fill="none" stroke="#191970" d="M1309.03,-112.2455C1306.2295,-104.7776 1302.2789,-94.2427 1298.8556,-85.1137"/>
<polygon fill="#191970" stroke="#191970" points="1302.0924,-83.777 1295.3039,-75.6427 1295.5381,-86.2349 1302.0924,-83.777"/>
</g>
</g>
</svg>
        <g id="navigator" transform="translate(0 0)" fill="#404254">
                <rect fill="#f2f5e9" fill-opacity="0.5" stroke="#606060" stroke-width=".5" x="0" y="0" width="60" height="60"/>
                <use id="zoomplus" xlink:href="#zoomPlus" x="17" y="9" onmousedown="handleZoom(evt,'in')"/>
                <use id="zoomminus" xlink:href="#zoomMin" x="42" y="9" onmousedown="handleZoom(evt,'out')"/>
                <use id="reset" xlink:href="#resetDef" x="30" y="36" onmousedown="handleReset()"/>
                <g id="arrowUp" xlink:href="#dirArrow" transform="translate(30 24)" onmousedown="handlePan(0,-1)">
                  <use xlink:href="#rim" fill="#404040">
                        <set attributeName="fill" to="#808080" begin="arrowUp.mouseover" end="arrowUp.mouseout"/>
                  </use>
                  <path fill="none" stroke="white" stroke-width="1.5" d="M0,-3.0v7 M-2.5,-0.5L0,-3.0L2.5,-0.5"/>
                </g>
                <g id="arrowRight" xlink:href="#dirArrow" transform="rotate(90) translate(36 -43)" onmousedown="handlePan(1,0)">
                  <use xlink:href="#rim" fill="#404040">
                        <set attributeName="fill" to="#808080" begin="arrowRight.mouseover" end="arrowRight.mouseout"/>
                  </use>
                  <path fill="none" stroke="white" stroke-width="1.5" d="M0,-3.0v7 M-2.5,-0.5L0,-3.0L2.5,-0.5"/>
                </g>
                <g id="arrowDown" xlink:href="#dirArrow" transform="rotate(180) translate(-30 -48)" onmousedown="handlePan(0,1)">
                  <use xlink:href="#rim" fill="#404040">
                        <set attributeName="fill" to="#808080" begin="arrowDown.mouseover" end="arrowDown.mouseout"/>
                  </use>
                  <path fill="none" stroke="white" stroke-width="1.5" d="M0,-3.0v7 M-2.5,-0.5L0,-3.0L2.5,-0.5"/>
                </g>
                <g id="arrowLeft" xlink:href="#dirArrow" transform="rotate(270) translate(-36 17)" onmousedown="handlePan(-1,0)">
                  <use xlink:href="#rim" fill="#404040">
                        <set attributeName="fill" to="#808080" begin="arrowLeft.mouseover" end="arrowLeft.mouseout"/>
                  </use>
                  <path fill="none" stroke="white" stroke-width="1.5" d="M0,-3.0v7 M-2.5,-0.5L0,-3.0L2.5,-0.5"/>
                </g>
        </g>
        <svg viewBox="0 0 15 15" width="100%" height="30px" preserveAspectRatio="xMaxYMin meet">
         <g id="arrow_out" transform="scale(0.3 0.3)">
          <a xlink:href="maptiles_8h__incl_org.svg" target="_base">
           <rect id="button" ry="5" rx="5" y="6" x="6" height="38" width="38"
                fill="#f2f5e9" fill-opacity="0.5" stroke="#606060" stroke-width="1.0"/>
           <path id="arrow"
             d="M 11.500037,31.436501 C 11.940474,20.09759 22.043105,11.32322 32.158766,21.979434 L 37.068811,17.246167 C 37.068811,17.246167 37.088388,32 37.088388,32 L 22.160133,31.978069 C 22.160133,31.978069 26.997745,27.140456 26.997745,27.140456 C 18.528582,18.264221 13.291696,25.230495 11.500037,31.436501 z"
             style="fill:#404040;"/>
          </a>
         </g>
        </svg>
</svg>
