<?xml version="1.0" encoding="UTF-8" standalone="no"?>
<!DOCTYPE svg PUBLIC "-//W3C//DTD SVG 1.1//EN"
 "http://www.w3.org/Graphics/SVG/1.1/DTD/svg11.dtd">
<!-- Generated by graphviz version 2.40.1 (0)
 -->
<!-- Title: mosaiccanvas.h Pages: 1 -->
<svg width="322pt" height="140pt"
 viewBox="0.00 0.00 322.00 140.00" xmlns="http://www.w3.org/2000/svg" xmlns:xlink="http://www.w3.org/1999/xlink">
<g id="graph0" class="graph" transform="scale(1 1) rotate(0) translate(4 136)">
<title>mosaiccanvas.h</title>
<!-- Node7 -->
<g id="node1" class="node">
<title>Node7</title>
<g id="a_node1"><a xlink:title="Implementation of the mosaic data structure.">
<polygon fill="#bfbfbf" stroke="#000000" points="51.5,-112.5 51.5,-131.5 173.5,-131.5 173.5,-112.5 51.5,-112.5"/>
<text text-anchor="middle" x="112.5" y="-119.5" font-family="Helvetica,sans-Serif" font-size="10.00" fill="#000000">mosaiccanvas.h</text>
</a>
</g>
</g>
<!-- Node8 -->
<g id="node2" class="node">
<title>Node8</title>
<g id="a_node2"><a xlink:href="maptiles_8h.html" target="_top" xlink:title="mapTiles() function.">
<polygon fill="none" stroke="#000000" points="66.5,-56.5 66.5,-75.5 158.5,-75.5 158.5,-56.5 66.5,-56.5"/>
<text text-anchor="middle" x="112.5" y="-63.5" font-family="Helvetica,sans-Serif" font-size="10.00" fill="#000000">maptiles.h</text>
</a>
</g>
</g>
<!-- Node7&#45;&gt;Node8 -->
<g id="edge1" class="edge">
<title>Node7&#45;&gt;Node8</title>
<path fill="none" stroke="#191970" d="M112.5,-102.1575C112.5,-93.155 112.5,-82.9199 112.5,-75.6427"/>
<polygon fill="#191970" stroke="#191970" points="109.0001,-102.2455 112.5,-112.2455 116.0001,-102.2456 109.0001,-102.2455"/>
</g>
<!-- Node9 -->
<g id="node3" class="node">
<title>Node9</title>
<g id="a_node3"><a xlink:href="main_8cpp.html" target="_top" xlink:title=" ">
<polygon fill="none" stroke="#000000" points="0,-.5 0,-19.5 77,-19.5 77,-.5 0,-.5"/>
<text text-anchor="middle" x="38.5" y="-7.5" font-family="Helvetica,sans-Serif" font-size="10.00" fill="#000000">main.cpp</text>
</a>
</g>
</g>
<!-- Node7&#45;&gt;Node9 -->
<g id="edge4" class="edge">
<title>Node7&#45;&gt;Node9</title>
<path fill="none" stroke="#191970" d="M88.2125,-106.6296C77.4104,-98.6775 65.38,-88.0989 57.5,-76 45.9169,-58.2153 41.2558,-33.2541 39.4908,-19.6944"/>
<polygon fill="#191970" stroke="#191970" points="86.3066,-109.5675 96.5094,-112.4228 90.314,-103.8281 86.3066,-109.5675"/>
</g>
<!-- Node11 -->
<g id="node5" class="node">
<title>Node11</title>
<g id="a_node5"><a xlink:href="mosaiccanvas_8cpp.html" target="_top" xlink:title=" ">
<polygon fill="none" stroke="#000000" points="177,-56.5 177,-75.5 314,-75.5 314,-56.5 177,-56.5"/>
<text text-anchor="middle" x="245.5" y="-63.5" font-family="Helvetica,sans-Serif" font-size="10.00" fill="#000000">mosaiccanvas.cpp</text>
</a>
</g>
</g>
<!-- Node7&#45;&gt;Node11 -->
<g id="edge5" class="edge">
<title>Node7&#45;&gt;Node11</title>
<path fill="none" stroke="#191970" d="M144.8397,-108.3833C169.0285,-98.1985 201.495,-84.5284 222.9348,-75.5011"/>
<polygon fill="#191970" stroke="#191970" points="143.2217,-105.2669 135.3635,-112.3733 145.9381,-111.7184 143.2217,-105.2669"/>
</g>
<!-- Node8&#45;&gt;Node9 -->
<g id="edge2" class="edge">
<title>Node8&#45;&gt;Node9</title>
<path fill="none" stroke="#191970" d="M91.6343,-50.2097C78.6375,-40.3743 62.3378,-28.0394 51.2421,-19.6427"/>
<polygon fill="#191970" stroke="#191970" points="89.524,-53.002 99.6102,-56.2455 93.7482,-47.4201 89.524,-53.002"/>
</g>
<!-- Node10 -->
<g id="node4" class="node">
<title>Node10</title>
<g id="a_node4"><a xlink:href="maptiles_8cpp.html" target="_top" xlink:title="Code for the maptiles function.">
<polygon fill="none" stroke="#000000" points="95,-.5 95,-19.5 202,-19.5 202,-.5 95,-.5"/>
<text text-anchor="middle" x="148.5" y="-7.5" font-family="Helvetica,sans-Serif" font-size="10.00" fill="#000000">maptiles.cpp</text>
</a>
</g>
</g>
<!-- Node8&#45;&gt;Node10 -->
<g id="edge3" class="edge">
<title>Node8&#45;&gt;Node10</title>
<path fill="none" stroke="#191970" d="M124.3096,-47.6296C130.3144,-38.2887 137.3659,-27.3197 142.3011,-19.6427"/>
<polygon fill="#191970" stroke="#191970" points="121.2342,-45.9411 118.7707,-56.2455 127.1225,-49.7264 121.2342,-45.9411"/>
</g>
</g>
</svg>
