<?xml version="1.0" encoding="UTF-8" standalone="no"?>
<!DOCTYPE svg PUBLIC "-//W3C//DTD SVG 1.1//EN"
 "http://www.w3.org/Graphics/SVG/1.1/DTD/svg11.dtd">
<!-- Generated by graphviz version 2.40.1 (0)
 -->
<!-- Title: mosaiccanvas.h Pages: 1 -->
<svg width="476pt" height="140pt"
 viewBox="0.00 0.00 476.00 140.00" xmlns="http://www.w3.org/2000/svg" xmlns:xlink="http://www.w3.org/1999/xlink">
<g id="graph0" class="graph" transform="scale(1 1) rotate(0) translate(4 136)">
<title>mosaiccanvas.h</title>
<!-- Node0 -->
<g id="node1" class="node">
<title>Node0</title>
<g id="a_node1"><a xlink:title="Implementation of the mosaic data structure.">
<polygon fill="#bfbfbf" stroke="#000000" points="29,-112.5 29,-131.5 151,-131.5 151,-112.5 29,-112.5"/>
<text text-anchor="middle" x="90" y="-119.5" font-family="Helvetica,sans-Serif" font-size="10.00" fill="#000000">mosaiccanvas.h</text>
</a>
</g>
</g>
<!-- Node1 -->
<g id="node2" class="node">
<title>Node1</title>
<g id="a_node2"><a xlink:title=" ">
<polygon fill="none" stroke="#bfbfbf" points="0,-56.5 0,-75.5 62,-75.5 62,-56.5 0,-56.5"/>
<text text-anchor="middle" x="31" y="-63.5" font-family="Helvetica,sans-Serif" font-size="10.00" fill="#000000">vector</text>
</a>
</g>
</g>
<!-- Node0&#45;&gt;Node1 -->
<g id="edge1" class="edge">
<title>Node0&#45;&gt;Node1</title>
<path fill="none" stroke="#191970" d="M79.723,-112.2455C71.1782,-104.1352 58.8222,-92.4075 48.6915,-82.7919"/>
<polygon fill="#191970" stroke="#191970" points="50.8218,-79.9884 41.1592,-75.6427 46.0028,-85.0655 50.8218,-79.9884"/>
</g>
<!-- Node2 -->
<g id="node3" class="node">
<title>Node2</title>
<g id="a_node3"><a xlink:title=" ">
<polygon fill="none" stroke="#bfbfbf" points="30.5,-.5 30.5,-19.5 129.5,-19.5 129.5,-.5 30.5,-.5"/>
<text text-anchor="middle" x="80" y="-7.5" font-family="Helvetica,sans-Serif" font-size="10.00" fill="#000000">cs225/PNG.h</text>
</a>
</g>
</g>
<!-- Node0&#45;&gt;Node2 -->
<g id="edge2" class="edge">
<title>Node0&#45;&gt;Node2</title>
<path fill="none" stroke="#191970" d="M89.1474,-112.4509C87.5164,-94.184 83.9246,-53.9553 81.7587,-29.6976"/>
<polygon fill="#191970" stroke="#191970" points="85.226,-29.174 80.8504,-19.5249 78.2537,-29.7966 85.226,-29.174"/>
</g>
<!-- Node3 -->
<g id="node4" class="node">
<title>Node3</title>
<g id="a_node4"><a xlink:href="tileimage_8h.html" target="_top" xlink:title=" ">
<polygon fill="none" stroke="#000000" points="129.5,-56.5 129.5,-75.5 228.5,-75.5 228.5,-56.5 129.5,-56.5"/>
<text text-anchor="middle" x="179" y="-63.5" font-family="Helvetica,sans-Serif" font-size="10.00" fill="#000000">tileimage.h</text>
</a>
</g>
</g>
<!-- Node0&#45;&gt;Node3 -->
<g id="edge3" class="edge">
<title>Node0&#45;&gt;Node3</title>
<path fill="none" stroke="#191970" d="M105.5026,-112.2455C119.158,-103.6534 139.2657,-91.0014 154.9989,-81.1018"/>
<polygon fill="#191970" stroke="#191970" points="157.0751,-83.9307 163.675,-75.6427 153.3471,-78.006 157.0751,-83.9307"/>
</g>
<!-- Node3&#45;&gt;Node2 -->
<g id="edge6" class="edge">
<title>Node3&#45;&gt;Node2</title>
<path fill="none" stroke="#191970" d="M161.7555,-56.2455C146.4239,-47.5731 123.7801,-34.7645 106.2084,-24.825"/>
<polygon fill="#191970" stroke="#191970" points="107.4741,-21.5198 97.0469,-19.6427 104.0276,-27.6126 107.4741,-21.5198"/>
</g>
<!-- Node4 -->
<g id="node5" class="node">
<title>Node4</title>
<g id="a_node5"><a xlink:title=" ">
<polygon fill="none" stroke="#bfbfbf" points="148,-.5 148,-19.5 210,-19.5 210,-.5 148,-.5"/>
<text text-anchor="middle" x="179" y="-7.5" font-family="Helvetica,sans-Serif" font-size="10.00" fill="#000000">math.h</text>
</a>
</g>
</g>
<!-- Node3&#45;&gt;Node4 -->
<g id="edge4" class="edge">
<title>Node3&#45;&gt;Node4</title>
<path fill="none" stroke="#191970" d="M179,-56.2455C179,-48.9382 179,-38.6944 179,-29.7046"/>
<polygon fill="#191970" stroke="#191970" points="182.5001,-29.6426 179,-19.6427 175.5001,-29.6427 182.5001,-29.6426"/>
</g>
<!-- Node5 -->
<g id="node6" class="node">
<title>Node5</title>
<g id="a_node6"><a xlink:title=" ">
<polygon fill="none" stroke="#bfbfbf" points="228.5,-.5 228.5,-19.5 305.5,-19.5 305.5,-.5 228.5,-.5"/>
<text text-anchor="middle" x="267" y="-7.5" font-family="Helvetica,sans-Serif" font-size="10.00" fill="#000000">stdint.h</text>
</a>
</g>
</g>
<!-- Node3&#45;&gt;Node5 -->
<g id="edge5" class="edge">
<title>Node3&#45;&gt;Node5</title>
<path fill="none" stroke="#191970" d="M194.3284,-56.2455C207.8303,-47.6534 227.7122,-35.0014 243.2686,-25.1018"/>
<polygon fill="#191970" stroke="#191970" points="245.2897,-27.9643 251.8472,-19.6427 241.5315,-22.0587 245.2897,-27.9643"/>
</g>
<!-- Node6 -->
<g id="node7" class="node">
<title>Node6</title>
<g id="a_node7"><a xlink:title=" ">
<polygon fill="none" stroke="#bfbfbf" points="324,-.5 324,-19.5 468,-19.5 468,-.5 324,-.5"/>
<text text-anchor="middle" x="396" y="-7.5" font-family="Helvetica,sans-Serif" font-size="10.00" fill="#000000">cs225/LUVAPixel.h</text>
</a>
</g>
</g>
<!-- Node3&#45;&gt;Node6 -->
<g id="edge7" class="edge">
<title>Node3&#45;&gt;Node6</title>
<path fill="none" stroke="#191970" d="M216.3036,-56.3733C253.1685,-46.8598 309.666,-32.2797 349.4506,-22.0127"/>
<polygon fill="#191970" stroke="#191970" points="350.375,-25.3889 359.1831,-19.5011 348.6258,-18.611 350.375,-25.3889"/>
</g>
</g>
</svg>
