<?xml version="1.0" encoding="UTF-8" standalone="no"?>
<!DOCTYPE svg PUBLIC "-//W3C//DTD SVG 1.1//EN"
 "http://www.w3.org/Graphics/SVG/1.1/DTD/svg11.dtd">
<!-- Generated by graphviz version 2.40.1 (0)
 -->
<!-- Title: point.cpp Pages: 1 -->
<svg width="325pt" height="252pt"
 viewBox="0.00 0.00 324.50 252.00" xmlns="http://www.w3.org/2000/svg" xmlns:xlink="http://www.w3.org/1999/xlink">
<g id="graph0" class="graph" transform="scale(1 1) rotate(0) translate(4 248)">
<title>point.cpp</title>
<!-- Node1 -->
<g id="node1" class="node">
<title>Node1</title>
<g id="a_node1"><a xlink:title="Implementation of Point class.">
<polygon fill="#bfbfbf" stroke="#000000" points="30,-224.5 30,-243.5 114,-243.5 114,-224.5 30,-224.5"/>
<text text-anchor="middle" x="72" y="-231.5" font-family="Helvetica,sans-Serif" font-size="10.00" fill="#000000">point.cpp</text>
</a>
</g>
</g>
<!-- Node2 -->
<g id="node2" class="node">
<title>Node2</title>
<g id="a_node2"><a xlink:href="point_8h.html" target="_top" xlink:title="Definition of a Point class for k dimensional points.">
<polygon fill="none" stroke="#000000" points="37.5,-168.5 37.5,-187.5 106.5,-187.5 106.5,-168.5 37.5,-168.5"/>
<text text-anchor="middle" x="72" y="-175.5" font-family="Helvetica,sans-Serif" font-size="10.00" fill="#000000">point.h</text>
</a>
</g>
</g>
<!-- Node1&#45;&gt;Node2 -->
<g id="edge1" class="edge">
<title>Node1&#45;&gt;Node2</title>
<path fill="none" stroke="#191970" d="M72,-214.1575C72,-205.155 72,-194.9199 72,-187.6427"/>
<polygon fill="#191970" stroke="#191970" points="68.5001,-214.2455 72,-224.2455 75.5001,-214.2456 68.5001,-214.2455"/>
</g>
<!-- Node3 -->
<g id="node3" class="node">
<title>Node3</title>
<g id="a_node3"><a xlink:href="kdtree_8h.html" target="_top" xlink:title="KDTree implementation using Points in k&#45;dimensional space.">
<polygon fill="none" stroke="#000000" points="67.5,-112.5 67.5,-131.5 144.5,-131.5 144.5,-112.5 67.5,-112.5"/>
<text text-anchor="middle" x="106" y="-119.5" font-family="Helvetica,sans-Serif" font-size="10.00" fill="#000000">kdtree.h</text>
</a>
</g>
</g>
<!-- Node2&#45;&gt;Node3 -->
<g id="edge2" class="edge">
<title>Node2&#45;&gt;Node3</title>
<path fill="none" stroke="#191970" d="M83.1535,-159.6296C88.8247,-150.2887 95.4845,-139.3197 100.1455,-131.6427"/>
<polygon fill="#191970" stroke="#191970" points="80.1204,-157.8812 77.9223,-168.2455 86.1039,-161.5141 80.1204,-157.8812"/>
</g>
<!-- Node4 -->
<g id="node4" class="node">
<title>Node4</title>
<g id="a_node4"><a xlink:href="kdtree__extras_8hpp.html" target="_top" xlink:title=" ">
<polygon fill="none" stroke="#000000" points="0,-56.5 0,-75.5 144,-75.5 144,-56.5 0,-56.5"/>
<text text-anchor="middle" x="72" y="-63.5" font-family="Helvetica,sans-Serif" font-size="10.00" fill="#000000">kdtree_extras.hpp</text>
</a>
</g>
</g>
<!-- Node2&#45;&gt;Node4 -->
<g id="edge8" class="edge">
<title>Node2&#45;&gt;Node4</title>
<path fill="none" stroke="#191970" d="M64.7381,-158.7C62.0494,-150.581 59.3327,-140.9561 58,-132 55.0002,-111.8409 62.5459,-88.5952 67.6877,-75.7718"/>
<polygon fill="#191970" stroke="#191970" points="61.5064,-160.0598 68.1376,-168.3228 68.1067,-157.728 61.5064,-160.0598"/>
</g>
<!-- Node3&#45;&gt;Node4 -->
<g id="edge3" class="edge">
<title>Node3&#45;&gt;Node4</title>
<path fill="none" stroke="#191970" d="M88.6651,-103.9209C82.183,-94.5176 75.8039,-83.3997 72.6093,-75.6427"/>
<polygon fill="#191970" stroke="#191970" points="86.0556,-106.2792 94.8108,-112.2455 91.6872,-102.1216 86.0556,-106.2792"/>
</g>
<!-- Node5 -->
<g id="node5" class="node">
<title>Node5</title>
<g id="a_node5"><a xlink:href="maptiles_8h.html" target="_top" xlink:title="mapTiles() function.">
<polygon fill="none" stroke="#000000" points="162,-56.5 162,-75.5 254,-75.5 254,-56.5 162,-56.5"/>
<text text-anchor="middle" x="208" y="-63.5" font-family="Helvetica,sans-Serif" font-size="10.00" fill="#000000">maptiles.h</text>
</a>
</g>
</g>
<!-- Node3&#45;&gt;Node5 -->
<g id="edge5" class="edge">
<title>Node3&#45;&gt;Node5</title>
<path fill="none" stroke="#191970" d="M132.734,-107.3225C150.9532,-97.3198 174.5598,-84.3593 190.4366,-75.6427"/>
<polygon fill="#191970" stroke="#191970" points="130.8484,-104.3649 123.767,-112.2455 134.2173,-110.5009 130.8484,-104.3649"/>
</g>
<!-- Node4&#45;&gt;Node3 -->
<g id="edge4" class="edge">
<title>Node4&#45;&gt;Node3</title>
<path fill="none" stroke="#191970" d="M89.2417,-83.9439C95.7247,-93.3308 102.1195,-104.4564 105.3445,-112.2455"/>
<polygon fill="#191970" stroke="#191970" points="91.8612,-81.5997 83.0996,-75.6427 86.234,-85.7633 91.8612,-81.5997"/>
</g>
<!-- Node6 -->
<g id="node6" class="node">
<title>Node6</title>
<g id="a_node6"><a xlink:href="main_8cpp.html" target="_top" xlink:title=" ">
<polygon fill="none" stroke="#000000" points="114.5,-.5 114.5,-19.5 191.5,-19.5 191.5,-.5 114.5,-.5"/>
<text text-anchor="middle" x="153" y="-7.5" font-family="Helvetica,sans-Serif" font-size="10.00" fill="#000000">main.cpp</text>
</a>
</g>
</g>
<!-- Node5&#45;&gt;Node6 -->
<g id="edge6" class="edge">
<title>Node5&#45;&gt;Node6</title>
<path fill="none" stroke="#191970" d="M191.3774,-49.0751C181.9145,-39.4402 170.4031,-27.7196 162.4705,-19.6427"/>
<polygon fill="#191970" stroke="#191970" points="188.9155,-51.5635 198.4197,-56.2455 193.9097,-46.6585 188.9155,-51.5635"/>
</g>
<!-- Node7 -->
<g id="node7" class="node">
<title>Node7</title>
<g id="a_node7"><a xlink:href="maptiles_8cpp.html" target="_top" xlink:title="Code for the maptiles function.">
<polygon fill="none" stroke="#000000" points="209.5,-.5 209.5,-19.5 316.5,-19.5 316.5,-.5 209.5,-.5"/>
<text text-anchor="middle" x="263" y="-7.5" font-family="Helvetica,sans-Serif" font-size="10.00" fill="#000000">maptiles.cpp</text>
</a>
</g>
</g>
<!-- Node5&#45;&gt;Node7 -->
<g id="edge7" class="edge">
<title>Node5&#45;&gt;Node7</title>
<path fill="none" stroke="#191970" d="M224.6226,-49.0751C234.0855,-39.4402 245.5969,-27.7196 253.5295,-19.6427"/>
<polygon fill="#191970" stroke="#191970" points="222.0903,-46.6585 217.5803,-56.2455 227.0845,-51.5635 222.0903,-46.6585"/>
</g>
</g>
</svg>
