<?xml version="1.0" encoding="UTF-8" standalone="no"?>
<!DOCTYPE svg PUBLIC "-//W3C//DTD SVG 1.1//EN"
 "http://www.w3.org/Graphics/SVG/1.1/DTD/svg11.dtd">
<!-- Generated by graphviz version 2.40.1 (0)
 -->
<!-- Title: point.h Pages: 1 -->
<svg width="377pt" height="84pt"
 viewBox="0.00 0.00 376.50 84.00" xmlns="http://www.w3.org/2000/svg" xmlns:xlink="http://www.w3.org/1999/xlink">
<g id="graph0" class="graph" transform="scale(1 1) rotate(0) translate(4 80)">
<title>point.h</title>
<!-- Node0 -->
<g id="node1" class="node">
<title>Node0</title>
<g id="a_node1"><a xlink:title="Definition of a Point class for k dimensional points.">
<polygon fill="#bfbfbf" stroke="#000000" points="140,-56.5 140,-75.5 209,-75.5 209,-56.5 140,-56.5"/>
<text text-anchor="middle" x="174.5" y="-63.5" font-family="Helvetica,sans-Serif" font-size="10.00" fill="#000000">point.h</text>
</a>
</g>
</g>
<!-- Node1 -->
<g id="node2" class="node">
<title>Node1</title>
<g id="a_node2"><a xlink:title=" ">
<polygon fill="none" stroke="#bfbfbf" points="0,-.5 0,-19.5 69,-19.5 69,-.5 0,-.5"/>
<text text-anchor="middle" x="34.5" y="-7.5" font-family="Helvetica,sans-Serif" font-size="10.00" fill="#000000">cstdarg</text>
</a>
</g>
</g>
<!-- Node0&#45;&gt;Node1 -->
<g id="edge1" class="edge">
<title>Node0&#45;&gt;Node1</title>
<path fill="none" stroke="#191970" d="M150.4331,-56.3733C127.6572,-47.2629 93.2656,-33.5062 67.851,-23.3404"/>
<polygon fill="#191970" stroke="#191970" points="68.8375,-19.9654 58.2528,-19.5011 66.2377,-26.4648 68.8375,-19.9654"/>
</g>
<!-- Node2 -->
<g id="node3" class="node">
<title>Node2</title>
<g id="a_node3"><a xlink:title=" ">
<polygon fill="none" stroke="#bfbfbf" points="87,-.5 87,-19.5 164,-19.5 164,-.5 87,-.5"/>
<text text-anchor="middle" x="125.5" y="-7.5" font-family="Helvetica,sans-Serif" font-size="10.00" fill="#000000">iostream</text>
</a>
</g>
</g>
<!-- Node0&#45;&gt;Node2 -->
<g id="edge2" class="edge">
<title>Node0&#45;&gt;Node2</title>
<path fill="none" stroke="#191970" d="M165.9649,-56.2455C159.0088,-48.2958 149.0117,-36.8706 140.6949,-27.3656"/>
<polygon fill="#191970" stroke="#191970" points="143.1564,-24.8637 133.9373,-19.6427 137.8884,-29.4732 143.1564,-24.8637"/>
</g>
<!-- Node3 -->
<g id="node4" class="node">
<title>Node3</title>
<g id="a_node4"><a xlink:title=" ">
<polygon fill="none" stroke="#bfbfbf" points="182.5,-.5 182.5,-19.5 266.5,-19.5 266.5,-.5 182.5,-.5"/>
<text text-anchor="middle" x="224.5" y="-7.5" font-family="Helvetica,sans-Serif" font-size="10.00" fill="#000000">stdexcept</text>
</a>
</g>
</g>
<!-- Node0&#45;&gt;Node3 -->
<g id="edge3" class="edge">
<title>Node0&#45;&gt;Node3</title>
<path fill="none" stroke="#191970" d="M183.2093,-56.2455C190.3073,-48.2958 200.5084,-36.8706 208.995,-27.3656"/>
<polygon fill="#191970" stroke="#191970" points="211.8411,-29.4331 215.8905,-19.6427 206.6195,-24.771 211.8411,-29.4331"/>
</g>
<!-- Node4 -->
<g id="node5" class="node">
<title>Node4</title>
<g id="a_node5"><a xlink:href="point_8cpp.html" target="_top" xlink:title="Implementation of Point class.">
<polygon fill="none" stroke="#000000" points="284.5,-.5 284.5,-19.5 368.5,-19.5 368.5,-.5 284.5,-.5"/>
<text text-anchor="middle" x="326.5" y="-7.5" font-family="Helvetica,sans-Serif" font-size="10.00" fill="#000000">point.cpp</text>
</a>
</g>
</g>
<!-- Node0&#45;&gt;Node4 -->
<g id="edge4" class="edge">
<title>Node0&#45;&gt;Node4</title>
<path fill="none" stroke="#191970" d="M200.6297,-56.3733C225.5768,-47.1822 263.3592,-33.2624 291.0206,-23.0713"/>
<polygon fill="#191970" stroke="#191970" points="292.5378,-26.2424 300.7112,-19.5011 290.1178,-19.674 292.5378,-26.2424"/>
</g>
</g>
</svg>
