<?xml version="1.0" encoding="UTF-8" standalone="no"?>
<!DOCTYPE svg PUBLIC "-//W3C//DTD SVG 1.1//EN"
 "http://www.w3.org/Graphics/SVG/1.1/DTD/svg11.dtd">
<!-- Generated by graphviz version 2.40.1 (0)
 -->
<!-- Title: sourceimage.cpp Pages: 1 -->
<svg width="438pt" height="140pt"
 viewBox="0.00 0.00 437.50 140.00" xmlns="http://www.w3.org/2000/svg" xmlns:xlink="http://www.w3.org/1999/xlink">
<g id="graph0" class="graph" transform="scale(1 1) rotate(0) translate(4 136)">
<title>sourceimage.cpp</title>
<!-- Node0 -->
<g id="node1" class="node">
<title>Node0</title>
<g id="a_node1"><a xlink:title=" ">
<polygon fill="#bfbfbf" stroke="#000000" points="106.5,-112.5 106.5,-131.5 235.5,-131.5 235.5,-112.5 106.5,-112.5"/>
<text text-anchor="middle" x="171" y="-119.5" font-family="Helvetica,sans-Serif" font-size="10.00" fill="#000000">sourceimage.cpp</text>
</a>
</g>
</g>
<!-- Node1 -->
<g id="node2" class="node">
<title>Node1</title>
<g id="a_node2"><a xlink:title=" ">
<polygon fill="none" stroke="#bfbfbf" points="0,-56.5 0,-75.5 84,-75.5 84,-56.5 0,-56.5"/>
<text text-anchor="middle" x="42" y="-63.5" font-family="Helvetica,sans-Serif" font-size="10.00" fill="#000000">algorithm</text>
</a>
</g>
</g>
<!-- Node0&#45;&gt;Node1 -->
<g id="edge1" class="edge">
<title>Node0&#45;&gt;Node1</title>
<path fill="none" stroke="#191970" d="M148.8241,-112.3733C128.0234,-103.3435 96.7083,-89.7494 73.3542,-79.6111"/>
<polygon fill="#191970" stroke="#191970" points="74.4532,-76.2727 63.8865,-75.5011 71.6657,-82.6938 74.4532,-76.2727"/>
</g>
<!-- Node2 -->
<g id="node3" class="node">
<title>Node2</title>
<g id="a_node3"><a xlink:title=" ">
<polygon fill="none" stroke="#bfbfbf" points="102,-56.5 102,-75.5 156,-75.5 156,-56.5 102,-56.5"/>
<text text-anchor="middle" x="129" y="-63.5" font-family="Helvetica,sans-Serif" font-size="10.00" fill="#000000">cmath</text>
</a>
</g>
</g>
<!-- Node0&#45;&gt;Node2 -->
<g id="edge2" class="edge">
<title>Node0&#45;&gt;Node2</title>
<path fill="none" stroke="#191970" d="M163.6842,-112.2455C157.7821,-104.3761 149.3258,-93.101 142.2406,-83.6542"/>
<polygon fill="#191970" stroke="#191970" points="145.0321,-81.5427 136.232,-75.6427 139.432,-85.7427 145.0321,-81.5427"/>
</g>
<!-- Node3 -->
<g id="node4" class="node">
<title>Node3</title>
<g id="a_node4"><a xlink:title=" ">
<polygon fill="none" stroke="#bfbfbf" points="174.5,-56.5 174.5,-75.5 251.5,-75.5 251.5,-56.5 174.5,-56.5"/>
<text text-anchor="middle" x="213" y="-63.5" font-family="Helvetica,sans-Serif" font-size="10.00" fill="#000000">iostream</text>
</a>
</g>
</g>
<!-- Node0&#45;&gt;Node3 -->
<g id="edge3" class="edge">
<title>Node0&#45;&gt;Node3</title>
<path fill="none" stroke="#191970" d="M178.3158,-112.2455C184.2179,-104.3761 192.6742,-93.101 199.7594,-83.6542"/>
<polygon fill="#191970" stroke="#191970" points="202.568,-85.7427 205.768,-75.6427 196.9679,-81.5427 202.568,-85.7427"/>
</g>
<!-- Node4 -->
<g id="node5" class="node">
<title>Node4</title>
<g id="a_node5"><a xlink:href="sourceimage_8h.html" target="_top" xlink:title=" ">
<polygon fill="none" stroke="#000000" points="270,-56.5 270,-75.5 384,-75.5 384,-56.5 270,-56.5"/>
<text text-anchor="middle" x="327" y="-63.5" font-family="Helvetica,sans-Serif" font-size="10.00" fill="#000000">sourceimage.h</text>
</a>
</g>
</g>
<!-- Node0&#45;&gt;Node4 -->
<g id="edge4" class="edge">
<title>Node0&#45;&gt;Node4</title>
<path fill="none" stroke="#191970" d="M197.8174,-112.3733C223.5332,-103.1419 262.538,-89.1402 290.9599,-78.9375"/>
<polygon fill="#191970" stroke="#191970" points="292.3032,-82.174 300.5326,-75.5011 289.9381,-75.5857 292.3032,-82.174"/>
</g>
<!-- Node5 -->
<g id="node6" class="node">
<title>Node5</title>
<g id="a_node6"><a xlink:title=" ">
<polygon fill="none" stroke="#bfbfbf" points="235.5,-.5 235.5,-19.5 312.5,-19.5 312.5,-.5 235.5,-.5"/>
<text text-anchor="middle" x="274" y="-7.5" font-family="Helvetica,sans-Serif" font-size="10.00" fill="#000000">stdint.h</text>
</a>
</g>
</g>
<!-- Node4&#45;&gt;Node5 -->
<g id="edge5" class="edge">
<title>Node4&#45;&gt;Node5</title>
<path fill="none" stroke="#191970" d="M317.7681,-56.2455C310.1683,-48.2155 299.2123,-36.6394 290.1632,-27.0781"/>
<polygon fill="#191970" stroke="#191970" points="292.542,-24.4998 283.1261,-19.6427 287.4579,-29.3115 292.542,-24.4998"/>
</g>
<!-- Node6 -->
<g id="node7" class="node">
<title>Node6</title>
<g id="a_node7"><a xlink:title=" ">
<polygon fill="none" stroke="#bfbfbf" points="330.5,-.5 330.5,-19.5 429.5,-19.5 429.5,-.5 330.5,-.5"/>
<text text-anchor="middle" x="380" y="-7.5" font-family="Helvetica,sans-Serif" font-size="10.00" fill="#000000">cs225/PNG.h</text>
</a>
</g>
</g>
<!-- Node4&#45;&gt;Node6 -->
<g id="edge6" class="edge">
<title>Node4&#45;&gt;Node6</title>
<path fill="none" stroke="#191970" d="M336.2319,-56.2455C343.8317,-48.2155 354.7877,-36.6394 363.8368,-27.0781"/>
<polygon fill="#191970" stroke="#191970" points="366.5421,-29.3115 370.8739,-19.6427 361.458,-24.4998 366.5421,-29.3115"/>
</g>
</g>
</svg>
