<?xml version="1.0" encoding="UTF-8" standalone="no"?>
<!DOCTYPE svg PUBLIC "-//W3C//DTD SVG 1.1//EN"
 "http://www.w3.org/Graphics/SVG/1.1/DTD/svg11.dtd">
<!-- Generated by graphviz version 2.40.1 (0)
 -->
<!-- Title: tileimage.h Pages: 1 -->
<svg width="369pt" height="196pt"
 viewBox="0.00 0.00 368.50 196.00" xmlns="http://www.w3.org/2000/svg" xmlns:xlink="http://www.w3.org/1999/xlink">
<g id="graph0" class="graph" transform="scale(1 1) rotate(0) translate(4 192)">
<title>tileimage.h</title>
<!-- Node5 -->
<g id="node1" class="node">
<title>Node5</title>
<g id="a_node1"><a xlink:title=" ">
<polygon fill="#bfbfbf" stroke="#000000" points="118,-168.5 118,-187.5 217,-187.5 217,-168.5 118,-168.5"/>
<text text-anchor="middle" x="167.5" y="-175.5" font-family="Helvetica,sans-Serif" font-size="10.00" fill="#000000">tileimage.h</text>
</a>
</g>
</g>
<!-- Node6 -->
<g id="node2" class="node">
<title>Node6</title>
<g id="a_node2"><a xlink:href="mosaiccanvas_8h.html" target="_top" xlink:title="Implementation of the mosaic data structure.">
<polygon fill="none" stroke="#000000" points="106.5,-112.5 106.5,-131.5 228.5,-131.5 228.5,-112.5 106.5,-112.5"/>
<text text-anchor="middle" x="167.5" y="-119.5" font-family="Helvetica,sans-Serif" font-size="10.00" fill="#000000">mosaiccanvas.h</text>
</a>
</g>
</g>
<!-- Node5&#45;&gt;Node6 -->
<g id="edge1" class="edge">
<title>Node5&#45;&gt;Node6</title>
<path fill="none" stroke="#191970" d="M167.5,-158.1575C167.5,-149.155 167.5,-138.9199 167.5,-131.6427"/>
<polygon fill="#191970" stroke="#191970" points="164.0001,-158.2455 167.5,-168.2455 171.0001,-158.2456 164.0001,-158.2455"/>
</g>
<!-- Node7 -->
<g id="node3" class="node">
<title>Node7</title>
<g id="a_node3"><a xlink:href="maptiles_8h.html" target="_top" xlink:title="mapTiles() function.">
<polygon fill="none" stroke="#000000" points="39.5,-56.5 39.5,-75.5 131.5,-75.5 131.5,-56.5 39.5,-56.5"/>
<text text-anchor="middle" x="85.5" y="-63.5" font-family="Helvetica,sans-Serif" font-size="10.00" fill="#000000">maptiles.h</text>
</a>
</g>
</g>
<!-- Node5&#45;&gt;Node7 -->
<g id="edge7" class="edge">
<title>Node5&#45;&gt;Node7</title>
<path fill="none" stroke="#191970" d="M134.5491,-163.6273C121.0431,-156.1078 106.4987,-145.5971 97.5,-132 86.0591,-114.7128 84.7267,-89.5573 84.9769,-75.833"/>
<polygon fill="#191970" stroke="#191970" points="133.165,-166.8524 143.6525,-168.3565 136.392,-160.6406 133.165,-166.8524"/>
</g>
<!-- Node11 -->
<g id="node7" class="node">
<title>Node11</title>
<g id="a_node7"><a xlink:href="tileimage_8cpp.html" target="_top" xlink:title=" ">
<polygon fill="none" stroke="#000000" points="246.5,-112.5 246.5,-131.5 360.5,-131.5 360.5,-112.5 246.5,-112.5"/>
<text text-anchor="middle" x="303.5" y="-119.5" font-family="Helvetica,sans-Serif" font-size="10.00" fill="#000000">tileimage.cpp</text>
</a>
</g>
</g>
<!-- Node5&#45;&gt;Node11 -->
<g id="edge8" class="edge">
<title>Node5&#45;&gt;Node11</title>
<path fill="none" stroke="#191970" d="M200.2399,-164.5189C225.0083,-154.3201 258.405,-140.5685 280.4258,-131.5011"/>
<polygon fill="#191970" stroke="#191970" points="198.7934,-161.3293 190.8792,-168.3733 201.4587,-167.8021 198.7934,-161.3293"/>
</g>
<!-- Node6&#45;&gt;Node7 -->
<g id="edge2" class="edge">
<title>Node6&#45;&gt;Node7</title>
<path fill="none" stroke="#191970" d="M144.789,-106.49C130.3212,-96.6096 112.032,-84.1194 99.6196,-75.6427"/>
<polygon fill="#191970" stroke="#191970" points="142.9848,-109.4962 153.2167,-112.2455 146.9325,-103.7156 142.9848,-109.4962"/>
</g>
<!-- Node8 -->
<g id="node4" class="node">
<title>Node8</title>
<g id="a_node4"><a xlink:href="main_8cpp.html" target="_top" xlink:title=" ">
<polygon fill="none" stroke="#000000" points="125,-.5 125,-19.5 202,-19.5 202,-.5 125,-.5"/>
<text text-anchor="middle" x="163.5" y="-7.5" font-family="Helvetica,sans-Serif" font-size="10.00" fill="#000000">main.cpp</text>
</a>
</g>
</g>
<!-- Node6&#45;&gt;Node8 -->
<g id="edge5" class="edge">
<title>Node6&#45;&gt;Node8</title>
<path fill="none" stroke="#191970" d="M166.7954,-102.2702C165.9285,-77.9985 164.4919,-37.7725 163.8402,-19.5249"/>
<polygon fill="#191970" stroke="#191970" points="163.3042,-102.5823 167.159,-112.4509 170.2997,-102.3324 163.3042,-102.5823"/>
</g>
<!-- Node10 -->
<g id="node6" class="node">
<title>Node10</title>
<g id="a_node6"><a xlink:href="mosaiccanvas_8cpp.html" target="_top" xlink:title=" ">
<polygon fill="none" stroke="#000000" points="192,-56.5 192,-75.5 329,-75.5 329,-56.5 192,-56.5"/>
<text text-anchor="middle" x="260.5" y="-63.5" font-family="Helvetica,sans-Serif" font-size="10.00" fill="#000000">mosaiccanvas.cpp</text>
</a>
</g>
</g>
<!-- Node6&#45;&gt;Node10 -->
<g id="edge6" class="edge">
<title>Node6&#45;&gt;Node10</title>
<path fill="none" stroke="#191970" d="M192.3335,-107.0465C208.8811,-97.0824 230.1432,-84.2794 244.4863,-75.6427"/>
<polygon fill="#191970" stroke="#191970" points="190.4607,-104.0886 183.6994,-112.2455 194.0717,-110.0854 190.4607,-104.0886"/>
</g>
<!-- Node7&#45;&gt;Node8 -->
<g id="edge3" class="edge">
<title>Node7&#45;&gt;Node8</title>
<path fill="none" stroke="#191970" d="M107.4936,-50.2097C121.1929,-40.3743 138.3736,-28.0394 150.0691,-19.6427"/>
<polygon fill="#191970" stroke="#191970" points="105.1686,-47.5703 99.0866,-56.2455 109.2511,-53.2566 105.1686,-47.5703"/>
</g>
<!-- Node9 -->
<g id="node5" class="node">
<title>Node9</title>
<g id="a_node5"><a xlink:href="maptiles_8cpp.html" target="_top" xlink:title="Code for the maptiles function.">
<polygon fill="none" stroke="#000000" points="0,-.5 0,-19.5 107,-19.5 107,-.5 0,-.5"/>
<text text-anchor="middle" x="53.5" y="-7.5" font-family="Helvetica,sans-Serif" font-size="10.00" fill="#000000">maptiles.cpp</text>
</a>
</g>
</g>
<!-- Node7&#45;&gt;Node9 -->
<g id="edge4" class="edge">
<title>Node7&#45;&gt;Node9</title>
<path fill="none" stroke="#191970" d="M74.8355,-47.3372C69.5346,-38.0605 63.3513,-27.2398 59.0101,-19.6427"/>
<polygon fill="#191970" stroke="#191970" points="71.9257,-49.2996 79.926,-56.2455 78.0034,-45.8266 71.9257,-49.2996"/>
</g>
</g>
</svg>
