<?xml version="1.0" encoding="UTF-8" standalone="no"?>
<!DOCTYPE svg PUBLIC "-//W3C//DTD SVG 1.1//EN"
 "http://www.w3.org/Graphics/SVG/1.1/DTD/svg11.dtd">
<!-- Generated by graphviz version 2.40.1 (0)
 -->
<!-- Title: tileimage.h Pages: 1 -->
<svg width="445pt" height="84pt"
 viewBox="0.00 0.00 445.00 84.00" xmlns="http://www.w3.org/2000/svg" xmlns:xlink="http://www.w3.org/1999/xlink">
<g id="graph0" class="graph" transform="scale(1 1) rotate(0) translate(4 80)">
<title>tileimage.h</title>
<!-- Node0 -->
<g id="node1" class="node">
<title>Node0</title>
<g id="a_node1"><a xlink:title=" ">
<polygon fill="#bfbfbf" stroke="#000000" points="122.5,-56.5 122.5,-75.5 221.5,-75.5 221.5,-56.5 122.5,-56.5"/>
<text text-anchor="middle" x="172" y="-63.5" font-family="Helvetica,sans-Serif" font-size="10.00" fill="#000000">tileimage.h</text>
</a>
</g>
</g>
<!-- Node1 -->
<g id="node2" class="node">
<title>Node1</title>
<g id="a_node2"><a xlink:title=" ">
<polygon fill="none" stroke="#bfbfbf" points="0,-.5 0,-19.5 62,-19.5 62,-.5 0,-.5"/>
<text text-anchor="middle" x="31" y="-7.5" font-family="Helvetica,sans-Serif" font-size="10.00" fill="#000000">math.h</text>
</a>
</g>
</g>
<!-- Node0&#45;&gt;Node1 -->
<g id="edge1" class="edge">
<title>Node0&#45;&gt;Node1</title>
<path fill="none" stroke="#191970" d="M147.7612,-56.3733C124.7211,-47.2226 89.8786,-33.3844 64.2499,-23.2057"/>
<polygon fill="#191970" stroke="#191970" points="65.5082,-19.9395 54.9225,-19.5011 62.9244,-26.4452 65.5082,-19.9395"/>
</g>
<!-- Node2 -->
<g id="node3" class="node">
<title>Node2</title>
<g id="a_node3"><a xlink:title=" ">
<polygon fill="none" stroke="#bfbfbf" points="80.5,-.5 80.5,-19.5 157.5,-19.5 157.5,-.5 80.5,-.5"/>
<text text-anchor="middle" x="119" y="-7.5" font-family="Helvetica,sans-Serif" font-size="10.00" fill="#000000">stdint.h</text>
</a>
</g>
</g>
<!-- Node0&#45;&gt;Node2 -->
<g id="edge2" class="edge">
<title>Node0&#45;&gt;Node2</title>
<path fill="none" stroke="#191970" d="M162.7681,-56.2455C155.1683,-48.2155 144.2123,-36.6394 135.1632,-27.0781"/>
<polygon fill="#191970" stroke="#191970" points="137.542,-24.4998 128.1261,-19.6427 132.4579,-29.3115 137.542,-24.4998"/>
</g>
<!-- Node3 -->
<g id="node4" class="node">
<title>Node3</title>
<g id="a_node4"><a xlink:title=" ">
<polygon fill="none" stroke="#bfbfbf" points="175.5,-.5 175.5,-19.5 274.5,-19.5 274.5,-.5 175.5,-.5"/>
<text text-anchor="middle" x="225" y="-7.5" font-family="Helvetica,sans-Serif" font-size="10.00" fill="#000000">cs225/PNG.h</text>
</a>
</g>
</g>
<!-- Node0&#45;&gt;Node3 -->
<g id="edge3" class="edge">
<title>Node0&#45;&gt;Node3</title>
<path fill="none" stroke="#191970" d="M181.2319,-56.2455C188.8317,-48.2155 199.7877,-36.6394 208.8368,-27.0781"/>
<polygon fill="#191970" stroke="#191970" points="211.5421,-29.3115 215.8739,-19.6427 206.458,-24.4998 211.5421,-29.3115"/>
</g>
<!-- Node4 -->
<g id="node5" class="node">
<title>Node4</title>
<g id="a_node5"><a xlink:title=" ">
<polygon fill="none" stroke="#bfbfbf" points="293,-.5 293,-19.5 437,-19.5 437,-.5 293,-.5"/>
<text text-anchor="middle" x="365" y="-7.5" font-family="Helvetica,sans-Serif" font-size="10.00" fill="#000000">cs225/LUVAPixel.h</text>
</a>
</g>
</g>
<!-- Node0&#45;&gt;Node4 -->
<g id="edge4" class="edge">
<title>Node0&#45;&gt;Node4</title>
<path fill="none" stroke="#191970" d="M205.1779,-56.3733C237.5487,-46.9807 286.9398,-32.6496 322.2424,-22.4064"/>
<polygon fill="#191970" stroke="#191970" points="323.6265,-25.6492 332.2551,-19.5011 321.6758,-18.9264 323.6265,-25.6492"/>
</g>
</g>
</svg>
