<?xml version="1.0" encoding="UTF-8" standalone="no"?>
<!DOCTYPE svg PUBLIC "-//W3C//DTD SVG 1.1//EN"
 "http://www.w3.org/Graphics/SVG/1.1/DTD/svg11.dtd">
<!-- Generated by graphviz version 2.40.1 (0)
 -->
<!-- Title: Animation.h Pages: 1 -->
<svg width="380pt" height="140pt"
 viewBox="0.00 0.00 379.50 140.00" xmlns="http://www.w3.org/2000/svg" xmlns:xlink="http://www.w3.org/1999/xlink">
<g id="graph0" class="graph" transform="scale(1 1) rotate(0) translate(4 136)">
<title>Animation.h</title>
<!-- Node7 -->
<g id="node1" class="node">
<title>Node7</title>
<g id="a_node1"><a xlink:title="Defintion for a class that encapsulates creating animated images from a set of PNG object frames.">
<polygon fill="#bfbfbf" stroke="#000000" points="144.5,-112.5 144.5,-131.5 243.5,-131.5 243.5,-112.5 144.5,-112.5"/>
<text text-anchor="middle" x="194" y="-119.5" font-family="Helvetica,sans-Serif" font-size="10.00" fill="#000000">Animation.h</text>
</a>
</g>
</g>
<!-- Node8 -->
<g id="node2" class="node">
<title>Node8</title>
<g id="a_node2"><a xlink:href="Animation_8cpp.html" target="_top" xlink:title=" ">
<polygon fill="none" stroke="#000000" points="0,-56.5 0,-75.5 114,-75.5 114,-56.5 0,-56.5"/>
<text text-anchor="middle" x="57" y="-63.5" font-family="Helvetica,sans-Serif" font-size="10.00" fill="#000000">Animation.cpp</text>
</a>
</g>
</g>
<!-- Node7&#45;&gt;Node8 -->
<g id="edge1" class="edge">
<title>Node7&#45;&gt;Node8</title>
<path fill="none" stroke="#191970" d="M161.0194,-108.5189C136.0689,-98.3201 102.4266,-84.5685 80.2438,-75.5011"/>
<polygon fill="#191970" stroke="#191970" points="159.868,-111.8293 170.4489,-112.3733 162.5166,-105.3497 159.868,-111.8293"/>
</g>
<!-- Node9 -->
<g id="node3" class="node">
<title>Node9</title>
<g id="a_node3"><a xlink:href="FloodFilledImage_8cpp.html" target="_top" xlink:title=" ">
<polygon fill="none" stroke="#000000" points="75.5,-.5 75.5,-19.5 242.5,-19.5 242.5,-.5 75.5,-.5"/>
<text text-anchor="middle" x="159" y="-7.5" font-family="Helvetica,sans-Serif" font-size="10.00" fill="#000000">FloodFilledImage.cpp</text>
</a>
</g>
</g>
<!-- Node7&#45;&gt;Node9 -->
<g id="edge2" class="edge">
<title>Node7&#45;&gt;Node9</title>
<path fill="none" stroke="#191970" d="M177.9128,-104.783C171.3842,-96.6819 164.5541,-86.5028 161,-76 154.5328,-56.8887 156.0127,-32.8601 157.5692,-19.7086"/>
<polygon fill="#191970" stroke="#191970" points="175.2854,-107.0958 184.4572,-112.3994 180.5947,-102.5337 175.2854,-107.0958"/>
</g>
<!-- Node10 -->
<g id="node4" class="node">
<title>Node10</title>
<g id="a_node4"><a xlink:href="FloodFilledImage_8h.html" target="_top" xlink:title="Definition for a class to do flood fill on an image.">
<polygon fill="none" stroke="#000000" points="170,-56.5 170,-75.5 322,-75.5 322,-56.5 170,-56.5"/>
<text text-anchor="middle" x="246" y="-63.5" font-family="Helvetica,sans-Serif" font-size="10.00" fill="#000000">FloodFilledImage.h</text>
</a>
</g>
</g>
<!-- Node7&#45;&gt;Node10 -->
<g id="edge3" class="edge">
<title>Node7&#45;&gt;Node10</title>
<path fill="none" stroke="#191970" d="M209.9822,-104.7884C218.8778,-95.2085 229.6204,-83.6396 237.0461,-75.6427"/>
<polygon fill="#191970" stroke="#191970" points="207.2975,-102.536 203.0577,-112.2455 212.427,-107.2992 207.2975,-102.536"/>
</g>
<!-- Node11 -->
<g id="node5" class="node">
<title>Node11</title>
<g id="a_node5"><a xlink:href="main_8cpp.html" target="_top" xlink:title=" ">
<polygon fill="none" stroke="#000000" points="294.5,-.5 294.5,-19.5 371.5,-19.5 371.5,-.5 294.5,-.5"/>
<text text-anchor="middle" x="333" y="-7.5" font-family="Helvetica,sans-Serif" font-size="10.00" fill="#000000">main.cpp</text>
</a>
</g>
</g>
<!-- Node7&#45;&gt;Node11 -->
<g id="edge6" class="edge">
<title>Node7&#45;&gt;Node11</title>
<path fill="none" stroke="#191970" d="M250.098,-110.0044C283.3417,-101.6524 320.9032,-89.6014 331,-76 343.2992,-59.4316 339.2914,-33.5331 335.8278,-19.6162"/>
<polygon fill="#191970" stroke="#191970" points="248.8422,-106.7078 239.9547,-112.4752 250.499,-113.509 248.8422,-106.7078"/>
</g>
<!-- Node10&#45;&gt;Node9 -->
<g id="edge4" class="edge">
<title>Node10&#45;&gt;Node9</title>
<path fill="none" stroke="#191970" d="M222.3375,-50.769C206.9209,-40.8456 187.274,-28.1994 173.9806,-19.6427"/>
<polygon fill="#191970" stroke="#191970" points="220.5427,-53.7761 230.8458,-56.2455 224.3315,-47.89 220.5427,-53.7761"/>
</g>
<!-- Node10&#45;&gt;Node11 -->
<g id="edge5" class="edge">
<title>Node10&#45;&gt;Node11</title>
<path fill="none" stroke="#191970" d="M269.6625,-50.769C285.0791,-40.8456 304.726,-28.1994 318.0194,-19.6427"/>
<polygon fill="#191970" stroke="#191970" points="267.6685,-47.89 261.1542,-56.2455 271.4573,-53.7761 267.6685,-47.89"/>
</g>
</g>
</svg>
