<?xml version="1.0" encoding="UTF-8" standalone="no"?>
<!DOCTYPE svg PUBLIC "-//W3C//DTD SVG 1.1//EN"
 "http://www.w3.org/Graphics/SVG/1.1/DTD/svg11.dtd">
<!-- Generated by graphviz version 2.40.1 (0)
 -->
<!-- Title: Animation.cpp Pages: 1 -->
<svg width="496pt" height="252pt"
 viewBox="0.00 0.00 496.42 252.00" xmlns="http://www.w3.org/2000/svg" xmlns:xlink="http://www.w3.org/1999/xlink">
<g id="graph0" class="graph" transform="scale(1 1) rotate(0) translate(4 248)">
<title>Animation.cpp</title>
<!-- Node0 -->
<g id="node1" class="node">
<title>Node0</title>
<g id="a_node1"><a xlink:title=" ">
<polygon fill="#bfbfbf" stroke="#000000" points="236.5,-224.5 236.5,-243.5 350.5,-243.5 350.5,-224.5 236.5,-224.5"/>
<text text-anchor="middle" x="293.5" y="-231.5" font-family="Helvetica,sans-Serif" font-size="10.00" fill="#000000">Animation.cpp</text>
</a>
</g>
</g>
<!-- Node1 -->
<g id="node2" class="node">
<title>Node1</title>
<g id="a_node2"><a xlink:title=" ">
<polygon fill="none" stroke="#bfbfbf" points="0,-168.5 0,-187.5 77,-187.5 77,-168.5 0,-168.5"/>
<text text-anchor="middle" x="38.5" y="-175.5" font-family="Helvetica,sans-Serif" font-size="10.00" fill="#000000">stdlib.h</text>
</a>
</g>
</g>
<!-- Node0&#45;&gt;Node1 -->
<g id="edge1" class="edge">
<title>Node0&#45;&gt;Node1</title>
<path fill="none" stroke="#191970" d="M249.9537,-224.4369C204.763,-214.5126 134.2422,-199.0257 87.2239,-188.7002"/>
<polygon fill="#191970" stroke="#191970" points="87.7909,-185.2413 77.2729,-186.5148 86.2894,-192.0784 87.7909,-185.2413"/>
</g>
<!-- Node2 -->
<g id="node3" class="node">
<title>Node2</title>
<g id="a_node3"><a xlink:title=" ">
<polygon fill="none" stroke="#bfbfbf" points="95.5,-168.5 95.5,-187.5 187.5,-187.5 187.5,-168.5 95.5,-168.5"/>
<text text-anchor="middle" x="141.5" y="-175.5" font-family="Helvetica,sans-Serif" font-size="10.00" fill="#000000">sys/stat.h</text>
</a>
</g>
</g>
<!-- Node0&#45;&gt;Node2 -->
<g id="edge2" class="edge">
<title>Node0&#45;&gt;Node2</title>
<path fill="none" stroke="#191970" d="M267.3703,-224.3733C242.4232,-215.1822 204.6408,-201.2624 176.9794,-191.0713"/>
<polygon fill="#191970" stroke="#191970" points="177.8822,-187.674 167.2888,-187.5011 175.4622,-194.2424 177.8822,-187.674"/>
</g>
<!-- Node3 -->
<g id="node4" class="node">
<title>Node3</title>
<g id="a_node4"><a xlink:title=" ">
<polygon fill="none" stroke="#bfbfbf" points="216,-.5 216,-19.5 293,-19.5 293,-.5 216,-.5"/>
<text text-anchor="middle" x="254.5" y="-7.5" font-family="Helvetica,sans-Serif" font-size="10.00" fill="#000000">iostream</text>
</a>
</g>
</g>
<!-- Node0&#45;&gt;Node3 -->
<g id="edge3" class="edge">
<title>Node0&#45;&gt;Node3</title>
<path fill="none" stroke="#191970" d="M285.5509,-224.3707C271.9045,-207.1427 244.5222,-169.343 234.5,-132 225.7444,-99.3767 227.6218,-89.0701 234.5,-56 236.4414,-46.6655 240.3804,-36.9017 244.2531,-28.783"/>
<polygon fill="#191970" stroke="#191970" points="247.3903,-30.3353 248.8055,-19.8354 241.1514,-27.161 247.3903,-30.3353"/>
</g>
<!-- Node4 -->
<g id="node5" class="node">
<title>Node4</title>
<g id="a_node5"><a xlink:title=" ">
<polygon fill="none" stroke="#bfbfbf" points="402,-.5 402,-19.5 471,-19.5 471,-.5 402,-.5"/>
<text text-anchor="middle" x="436.5" y="-7.5" font-family="Helvetica,sans-Serif" font-size="10.00" fill="#000000">sstream</text>
</a>
</g>
</g>
<!-- Node0&#45;&gt;Node4 -->
<g id="edge4" class="edge">
<title>Node0&#45;&gt;Node4</title>
<path fill="none" stroke="#191970" d="M342.6105,-224.4642C383.6156,-215.7173 438.0781,-202.0259 455.5,-188 483.7864,-165.2273 493.5637,-147.4075 485.5,-112 478.3771,-80.7231 460.4066,-47.8494 448.3239,-28.1396"/>
<polygon fill="#191970" stroke="#191970" points="451.2284,-26.1837 442.9386,-19.586 445.3047,-29.9133 451.2284,-26.1837"/>
</g>
<!-- Node5 -->
<g id="node6" class="node">
<title>Node5</title>
<g id="a_node6"><a xlink:title=" ">
<polygon fill="none" stroke="#bfbfbf" points="361.5,-56.5 361.5,-75.5 423.5,-75.5 423.5,-56.5 361.5,-56.5"/>
<text text-anchor="middle" x="392.5" y="-63.5" font-family="Helvetica,sans-Serif" font-size="10.00" fill="#000000">string</text>
</a>
</g>
</g>
<!-- Node0&#45;&gt;Node5 -->
<g id="edge5" class="edge">
<title>Node0&#45;&gt;Node5</title>
<path fill="none" stroke="#191970" d="M346.2588,-224.4374C373.3659,-217.6054 405.7972,-206.2867 430.5,-188 455.0832,-169.8019 461.1658,-161.127 470.5,-132 473.2127,-123.5352 474.9088,-119.7185 470.5,-112 462.1846,-97.4424 447.262,-87.0309 432.6797,-79.8375"/>
<polygon fill="#191970" stroke="#191970" points="433.7733,-76.491 423.2191,-75.5638 430.8915,-82.8703 433.7733,-76.491"/>
</g>
<!-- Node6 -->
<g id="node7" class="node">
<title>Node6</title>
<g id="a_node7"><a xlink:href="Animation_8h.html" target="_top" xlink:title="Defintion for a class that encapsulates creating animated images from a set of PNG object frames.">
<polygon fill="none" stroke="#000000" points="322,-168.5 322,-187.5 421,-187.5 421,-168.5 322,-168.5"/>
<text text-anchor="middle" x="371.5" y="-175.5" font-family="Helvetica,sans-Serif" font-size="10.00" fill="#000000">Animation.h</text>
</a>
</g>
</g>
<!-- Node0&#45;&gt;Node6 -->
<g id="edge6" class="edge">
<title>Node0&#45;&gt;Node6</title>
<path fill="none" stroke="#191970" d="M307.0866,-224.2455C318.8305,-215.814 336.0199,-203.4729 349.6882,-193.6598"/>
<polygon fill="#191970" stroke="#191970" points="351.9871,-196.3179 358.0691,-187.6427 347.9046,-190.6316 351.9871,-196.3179"/>
</g>
<!-- Node8 -->
<g id="node9" class="node">
<title>Node8</title>
<g id="a_node9"><a xlink:href="PNG_8h.html" target="_top" xlink:title=" ">
<polygon fill="none" stroke="#000000" points="244,-112.5 244,-131.5 343,-131.5 343,-112.5 244,-112.5"/>
<text text-anchor="middle" x="293.5" y="-119.5" font-family="Helvetica,sans-Serif" font-size="10.00" fill="#000000">cs225/PNG.h</text>
</a>
</g>
</g>
<!-- Node0&#45;&gt;Node8 -->
<g id="edge14" class="edge">
<title>Node0&#45;&gt;Node8</title>
<path fill="none" stroke="#191970" d="M293.5,-224.4509C293.5,-206.184 293.5,-165.9553 293.5,-141.6976"/>
<polygon fill="#191970" stroke="#191970" points="297.0001,-141.5249 293.5,-131.5249 290.0001,-141.5249 297.0001,-141.5249"/>
</g>
<!-- Node6&#45;&gt;Node5 -->
<g id="edge7" class="edge">
<title>Node6&#45;&gt;Node5</title>
<path fill="none" stroke="#191970" d="M373.2904,-168.4509C376.731,-150.1013 384.3267,-109.5908 388.8683,-85.3693"/>
<polygon fill="#191970" stroke="#191970" points="392.3112,-85.9986 390.7141,-75.5249 385.4311,-84.7086 392.3112,-85.9986"/>
</g>
<!-- Node7 -->
<g id="node8" class="node">
<title>Node7</title>
<g id="a_node8"><a xlink:title=" ">
<polygon fill="none" stroke="#bfbfbf" points="399.5,-112.5 399.5,-131.5 461.5,-131.5 461.5,-112.5 399.5,-112.5"/>
<text text-anchor="middle" x="430.5" y="-119.5" font-family="Helvetica,sans-Serif" font-size="10.00" fill="#000000">vector</text>
</a>
</g>
</g>
<!-- Node6&#45;&gt;Node7 -->
<g id="edge8" class="edge">
<title>Node6&#45;&gt;Node7</title>
<path fill="none" stroke="#191970" d="M381.777,-168.2455C390.3218,-160.1352 402.6778,-148.4075 412.8085,-138.7919"/>
<polygon fill="#191970" stroke="#191970" points="415.4972,-141.0655 420.3408,-131.6427 410.6782,-135.9884 415.4972,-141.0655"/>
</g>
<!-- Node6&#45;&gt;Node8 -->
<g id="edge9" class="edge">
<title>Node6&#45;&gt;Node8</title>
<path fill="none" stroke="#191970" d="M357.9134,-168.2455C346.1695,-159.814 328.9801,-147.4729 315.3118,-137.6598"/>
<polygon fill="#191970" stroke="#191970" points="317.0954,-134.6316 306.9309,-131.6427 313.0129,-140.3179 317.0954,-134.6316"/>
</g>
<!-- Node8&#45;&gt;Node5 -->
<g id="edge10" class="edge">
<title>Node8&#45;&gt;Node5</title>
<path fill="none" stroke="#191970" d="M310.7445,-112.2455C326.0761,-103.5731 348.7199,-90.7645 366.2916,-80.825"/>
<polygon fill="#191970" stroke="#191970" points="368.4724,-83.6126 375.4531,-75.6427 365.0259,-77.5198 368.4724,-83.6126"/>
</g>
<!-- Node9 -->
<g id="node10" class="node">
<title>Node9</title>
<g id="a_node10"><a xlink:href="HSLAPixel_8h.html" target="_top" xlink:title=" ">
<polygon fill="none" stroke="#000000" points="244,-56.5 244,-75.5 343,-75.5 343,-56.5 244,-56.5"/>
<text text-anchor="middle" x="293.5" y="-63.5" font-family="Helvetica,sans-Serif" font-size="10.00" fill="#000000">HSLAPixel.h</text>
</a>
</g>
</g>
<!-- Node8&#45;&gt;Node9 -->
<g id="edge11" class="edge">
<title>Node8&#45;&gt;Node9</title>
<path fill="none" stroke="#191970" d="M293.5,-112.2455C293.5,-104.9382 293.5,-94.6944 293.5,-85.7046"/>
<polygon fill="#191970" stroke="#191970" points="297.0001,-85.6426 293.5,-75.6427 290.0001,-85.6427 297.0001,-85.6426"/>
</g>
<!-- Node9&#45;&gt;Node3 -->
<g id="edge12" class="edge">
<title>Node9&#45;&gt;Node3</title>
<path fill="none" stroke="#191970" d="M286.7067,-56.2455C281.2822,-48.4564 273.5339,-37.3308 266.9967,-27.9439"/>
<polygon fill="#191970" stroke="#191970" points="269.8025,-25.8485 261.2154,-19.6427 264.0583,-29.849 269.8025,-25.8485"/>
</g>
<!-- Node9&#45;&gt;Node4 -->
<g id="edge13" class="edge">
<title>Node9&#45;&gt;Node4</title>
<path fill="none" stroke="#191970" d="M318.0826,-56.3733C341.4496,-47.2226 376.7862,-33.3844 402.7784,-23.2057"/>
<polygon fill="#191970" stroke="#191970" points="404.203,-26.4066 412.2382,-19.5011 401.6505,-19.8886 404.203,-26.4066"/>
</g>
</g>
</svg>
