<?xml version="1.0" encoding="UTF-8" standalone="no"?>
<!DOCTYPE svg PUBLIC "-//W3C//DTD SVG 1.1//EN"
 "http://www.w3.org/Graphics/SVG/1.1/DTD/svg11.dtd">
<!-- Generated by graphviz version 2.40.1 (0)
 -->
<!-- Title: Animation.h Pages: 1 -->
<svg width="247pt" height="196pt"
 viewBox="0.00 0.00 246.50 196.00" xmlns="http://www.w3.org/2000/svg" xmlns:xlink="http://www.w3.org/1999/xlink">
<g id="graph0" class="graph" transform="scale(1 1) rotate(0) translate(4 192)">
<title>Animation.h</title>
<!-- Node0 -->
<g id="node1" class="node">
<title>Node0</title>
<g id="a_node1"><a xlink:title="Defintion for a class that encapsulates creating animated images from a set of PNG object frames.">
<polygon fill="#bfbfbf" stroke="#000000" points="10.5,-168.5 10.5,-187.5 109.5,-187.5 109.5,-168.5 10.5,-168.5"/>
<text text-anchor="middle" x="60" y="-175.5" font-family="Helvetica,sans-Serif" font-size="10.00" fill="#000000">Animation.h</text>
</a>
</g>
</g>
<!-- Node1 -->
<g id="node2" class="node">
<title>Node1</title>
<g id="a_node2"><a xlink:title=" ">
<polygon fill="none" stroke="#bfbfbf" points="0,-56.5 0,-75.5 62,-75.5 62,-56.5 0,-56.5"/>
<text text-anchor="middle" x="31" y="-63.5" font-family="Helvetica,sans-Serif" font-size="10.00" fill="#000000">string</text>
</a>
</g>
</g>
<!-- Node0&#45;&gt;Node1 -->
<g id="edge1" class="edge">
<title>Node0&#45;&gt;Node1</title>
<path fill="none" stroke="#191970" d="M47.5788,-168.18C37.9984,-159.7529 25.4865,-146.6707 20,-132 14.3492,-116.8898 18.0664,-98.7508 22.6507,-85.3158"/>
<polygon fill="#191970" stroke="#191970" points="26.0269,-86.2873 26.3506,-75.6974 19.4936,-83.774 26.0269,-86.2873"/>
</g>
<!-- Node2 -->
<g id="node3" class="node">
<title>Node2</title>
<g id="a_node3"><a xlink:title=" ">
<polygon fill="none" stroke="#bfbfbf" points="29,-112.5 29,-131.5 91,-131.5 91,-112.5 29,-112.5"/>
<text text-anchor="middle" x="60" y="-119.5" font-family="Helvetica,sans-Serif" font-size="10.00" fill="#000000">vector</text>
</a>
</g>
</g>
<!-- Node0&#45;&gt;Node2 -->
<g id="edge2" class="edge">
<title>Node0&#45;&gt;Node2</title>
<path fill="none" stroke="#191970" d="M60,-168.2455C60,-160.9382 60,-150.6944 60,-141.7046"/>
<polygon fill="#191970" stroke="#191970" points="63.5001,-141.6426 60,-131.6427 56.5001,-141.6427 63.5001,-141.6426"/>
</g>
<!-- Node3 -->
<g id="node4" class="node">
<title>Node3</title>
<g id="a_node4"><a xlink:href="PNG_8h.html" target="_top" xlink:title=" ">
<polygon fill="none" stroke="#000000" points="109.5,-112.5 109.5,-131.5 208.5,-131.5 208.5,-112.5 109.5,-112.5"/>
<text text-anchor="middle" x="159" y="-119.5" font-family="Helvetica,sans-Serif" font-size="10.00" fill="#000000">cs225/PNG.h</text>
</a>
</g>
</g>
<!-- Node0&#45;&gt;Node3 -->
<g id="edge3" class="edge">
<title>Node0&#45;&gt;Node3</title>
<path fill="none" stroke="#191970" d="M77.2445,-168.2455C92.5761,-159.5731 115.2199,-146.7645 132.7916,-136.825"/>
<polygon fill="#191970" stroke="#191970" points="134.9724,-139.6126 141.9531,-131.6427 131.5259,-133.5198 134.9724,-139.6126"/>
</g>
<!-- Node3&#45;&gt;Node1 -->
<g id="edge4" class="edge">
<title>Node3&#45;&gt;Node1</title>
<path fill="none" stroke="#191970" d="M136.996,-112.3733C116.3565,-103.3435 85.2842,-89.7494 62.1111,-79.6111"/>
<polygon fill="#191970" stroke="#191970" points="63.2813,-76.3028 52.7169,-75.5011 60.4755,-82.7159 63.2813,-76.3028"/>
</g>
<!-- Node4 -->
<g id="node5" class="node">
<title>Node4</title>
<g id="a_node5"><a xlink:href="HSLAPixel_8h.html" target="_top" xlink:title=" ">
<polygon fill="none" stroke="#000000" points="109.5,-56.5 109.5,-75.5 208.5,-75.5 208.5,-56.5 109.5,-56.5"/>
<text text-anchor="middle" x="159" y="-63.5" font-family="Helvetica,sans-Serif" font-size="10.00" fill="#000000">HSLAPixel.h</text>
</a>
</g>
</g>
<!-- Node3&#45;&gt;Node4 -->
<g id="edge5" class="edge">
<title>Node3&#45;&gt;Node4</title>
<path fill="none" stroke="#191970" d="M159,-112.2455C159,-104.9382 159,-94.6944 159,-85.7046"/>
<polygon fill="#191970" stroke="#191970" points="162.5001,-85.6426 159,-75.6427 155.5001,-85.6427 162.5001,-85.6426"/>
</g>
<!-- Node5 -->
<g id="node6" class="node">
<title>Node5</title>
<g id="a_node6"><a xlink:title=" ">
<polygon fill="none" stroke="#bfbfbf" points="74.5,-.5 74.5,-19.5 151.5,-19.5 151.5,-.5 74.5,-.5"/>
<text text-anchor="middle" x="113" y="-7.5" font-family="Helvetica,sans-Serif" font-size="10.00" fill="#000000">iostream</text>
</a>
</g>
</g>
<!-- Node4&#45;&gt;Node5 -->
<g id="edge6" class="edge">
<title>Node4&#45;&gt;Node5</title>
<path fill="none" stroke="#191970" d="M150.9874,-56.2455C144.5232,-48.3761 135.2615,-37.101 127.5017,-27.6542"/>
<polygon fill="#191970" stroke="#191970" points="129.9727,-25.1484 120.9208,-19.6427 124.5636,-29.5916 129.9727,-25.1484"/>
</g>
<!-- Node6 -->
<g id="node7" class="node">
<title>Node6</title>
<g id="a_node7"><a xlink:title=" ">
<polygon fill="none" stroke="#bfbfbf" points="169.5,-.5 169.5,-19.5 238.5,-19.5 238.5,-.5 169.5,-.5"/>
<text text-anchor="middle" x="204" y="-7.5" font-family="Helvetica,sans-Serif" font-size="10.00" fill="#000000">sstream</text>
</a>
</g>
</g>
<!-- Node4&#45;&gt;Node6 -->
<g id="edge7" class="edge">
<title>Node4&#45;&gt;Node6</title>
<path fill="none" stroke="#191970" d="M166.8384,-56.2455C173.162,-48.3761 182.2224,-37.101 189.8136,-27.6542"/>
<polygon fill="#191970" stroke="#191970" points="192.7158,-29.6302 196.2514,-19.6427 187.2592,-25.2454 192.7158,-29.6302"/>
</g>
</g>
</svg>
