<?xml version="1.0" encoding="UTF-8" standalone="no"?>
<!DOCTYPE svg PUBLIC "-//W3C//DTD SVG 1.1//EN"
 "http://www.w3.org/Graphics/SVG/1.1/DTD/svg11.dtd">
<!-- Generated by graphviz version 2.40.1 (0)
 -->
<!-- Title: imageTraversal/BFS.cpp Pages: 1 -->
<!--zoomable 308 -->
<svg id="main" version="1.1" xmlns="http://www.w3.org/2000/svg" xmlns:xlink="http://www.w3.org/1999/xlink" xml:space="preserve" onload="init(evt)">
<style type="text/css"><![CDATA[
.edge:hover path { stroke: red; }
.edge:hover polygon { stroke: red; fill: red; }
]]></style>
<script type="text/javascript"><![CDATA[
var edges = document.getElementsByTagName('g');
if (edges && edges.length) {
  for (var i=0;i<edges.length;i++) {
    if (edges[i].id.substr(0,4)=='edge') {
      edges[i].setAttribute('class','edge');
    }
  }
}
]]></script>
        <defs>
                <circle id="rim" cx="0" cy="0" r="7"/>
                <circle id="rim2" cx="0" cy="0" r="3.5"/>
                <g id="zoomPlus">
                        <use xlink:href="#rim" fill="#404040">
                                <set attributeName="fill" to="#808080" begin="zoomplus.mouseover" end="zoomplus.mouseout"/>
                        </use>
                        <path d="M-4,0h8M0,-4v8" fill="none" stroke="white" stroke-width="1.5" pointer-events="none"/>
                </g>
                <g id="zoomMin">
                        <use xlink:href="#rim" fill="#404040">
                                <set attributeName="fill" to="#808080" begin="zoomminus.mouseover" end="zoomminus.mouseout"/>
                        </use>
                        <path d="M-4,0h8" fill="none" stroke="white" stroke-width="1.5" pointer-events="none"/>
                </g>
                <g id="dirArrow">
                        <path fill="none" stroke="white" stroke-width="1.5" d="M0,-3.0v7 M-2.5,-0.5L0,-3.0L2.5,-0.5"/>
                </g>
               <g id="resetDef">
                       <use xlink:href="#rim2" fill="#404040">
                               <set attributeName="fill" to="#808080" begin="reset.mouseover" end="reset.mouseout"/>
                       </use>
               </g>
        </defs>

<script type="text/javascript">
var viewWidth = 595;
var viewHeight = 308;
var sectionId = 'dynsection-0';
</script>
<script xlink:href="svgpan.js"/>
<svg id="graph" class="graph">
<g id="viewport">
<title>imageTraversal/BFS.cpp</title>
<!-- Node0 -->
<g id="node1" class="node">
<title>Node0</title>
<g id="a_node1"><a xlink:title=" ">
<polygon fill="#bfbfbf" stroke="#000000" points="104.4057,-280.5 104.4057,-299.5 286.4057,-299.5 286.4057,-280.5 104.4057,-280.5"/>
<text text-anchor="middle" x="195.4057" y="-287.5" font-family="Helvetica,sans-Serif" font-size="10.00" fill="#000000">imageTraversal/BFS.cpp</text>
</a>
</g>
</g>
<!-- Node1 -->
<g id="node2" class="node">
<title>Node1</title>
<g id="a_node2"><a xlink:title=" ">
<polygon fill="none" stroke="#bfbfbf" points="338.9057,-112.5 338.9057,-131.5 415.9057,-131.5 415.9057,-112.5 338.9057,-112.5"/>
<text text-anchor="middle" x="377.4057" y="-119.5" font-family="Helvetica,sans-Serif" font-size="10.00" fill="#000000">iterator</text>
</a>
</g>
</g>
<!-- Node0&#45;&gt;Node1 -->
<g id="edge1" class="edge">
<title>Node0&#45;&gt;Node1</title>
<path fill="none" stroke="#191970" d="M243.9843,-280.4521C282.1926,-271.9985 331.2597,-258.7389 345.4057,-244 348.9987,-240.2565 364.8177,-175.158 372.7856,-141.6252"/>
<polygon fill="#191970" stroke="#191970" points="376.2616,-142.1347 375.1577,-131.5975 369.4496,-140.5232 376.2616,-142.1347"/>
</g>
<!-- Node2 -->
<g id="node3" class="node">
<title>Node2</title>
<g id="a_node3"><a xlink:title=" ">
<polygon fill="none" stroke="#bfbfbf" points="19.4057,-168.5 19.4057,-187.5 73.4057,-187.5 73.4057,-168.5 19.4057,-168.5"/>
<text text-anchor="middle" x="46.4057" y="-175.5" font-family="Helvetica,sans-Serif" font-size="10.00" fill="#000000">cmath</text>
</a>
</g>
</g>
<!-- Node0&#45;&gt;Node2 -->
<g id="edge2" class="edge">
<title>Node0&#45;&gt;Node2</title>
<path fill="none" stroke="#191970" d="M171.0725,-280.4854C152.1134,-272.407 125.6932,-259.6453 105.4057,-244 87.264,-230.0095 70.2456,-209.9347 59.1932,-195.6045"/>
<polygon fill="#191970" stroke="#191970" points="61.9312,-193.4219 53.1258,-187.53 56.3351,-197.6271 61.9312,-193.4219"/>
</g>
<!-- Node3 -->
<g id="node4" class="node">
<title>Node3</title>
<g id="a_node4"><a xlink:title=" ">
<polygon fill="none" stroke="#bfbfbf" points="108.9057,-168.5 108.9057,-187.5 155.9057,-187.5 155.9057,-168.5 108.9057,-168.5"/>
<text text-anchor="middle" x="132.4057" y="-175.5" font-family="Helvetica,sans-Serif" font-size="10.00" fill="#000000">list</text>
</a>
</g>
</g>
<!-- Node0&#45;&gt;Node3 -->
<g id="edge3" class="edge">
<title>Node0&#45;&gt;Node3</title>
<path fill="none" stroke="#191970" d="M161.9055,-280.3574C144.1445,-273.3494 123.8817,-261.8886 113.4057,-244 104.6912,-229.1193 111.8871,-209.9876 119.7978,-196.1573"/>
<polygon fill="#191970" stroke="#191970" points="122.8504,-197.8774 125.2019,-187.5468 116.9214,-194.1562 122.8504,-197.8774"/>
</g>
<!-- Node4 -->
<g id="node5" class="node">
<title>Node4</title>
<g id="a_node5"><a xlink:title=" ">
<polygon fill="none" stroke="#bfbfbf" points="183.4057,-168.5 183.4057,-187.5 237.4057,-187.5 237.4057,-168.5 183.4057,-168.5"/>
<text text-anchor="middle" x="210.4057" y="-175.5" font-family="Helvetica,sans-Serif" font-size="10.00" fill="#000000">queue</text>
</a>
</g>
</g>
<!-- Node0&#45;&gt;Node4 -->
<g id="edge4" class="edge">
<title>Node0&#45;&gt;Node4</title>
<path fill="none" stroke="#191970" d="M168.8882,-280.314C142.0719,-268.9133 106.5454,-248.4085 121.4057,-224 132.8051,-205.2762 154.5512,-193.8393 173.6937,-187.0525"/>
<polygon fill="#191970" stroke="#191970" points="174.9607,-190.3213 183.398,-183.9133 172.8062,-183.6611 174.9607,-190.3213"/>
</g>
<!-- Node5 -->
<g id="node6" class="node">
<title>Node5</title>
<g id="a_node6"><a xlink:title=" ">
<polygon fill="none" stroke="#bfbfbf" points="130.4057,-224.5 130.4057,-243.5 184.4057,-243.5 184.4057,-224.5 130.4057,-224.5"/>
<text text-anchor="middle" x="157.4057" y="-231.5" font-family="Helvetica,sans-Serif" font-size="10.00" fill="#000000">stack</text>
</a>
</g>
</g>
<!-- Node0&#45;&gt;Node5 -->
<g id="edge5" class="edge">
<title>Node0&#45;&gt;Node5</title>
<path fill="none" stroke="#191970" d="M188.7866,-280.2455C183.5011,-272.4564 175.9516,-261.3308 169.582,-251.9439"/>
<polygon fill="#191970" stroke="#191970" points="172.4602,-249.9522 163.949,-243.6427 166.6678,-253.8827 172.4602,-249.9522"/>
</g>
<!-- Node6 -->
<g id="node7" class="node">
<title>Node6</title>
<g id="a_node7"><a xlink:title=" ">
<polygon fill="none" stroke="#bfbfbf" points="202.4057,-224.5 202.4057,-243.5 264.4057,-243.5 264.4057,-224.5 202.4057,-224.5"/>
<text text-anchor="middle" x="233.4057" y="-231.5" font-family="Helvetica,sans-Serif" font-size="10.00" fill="#000000">vector</text>
</a>
</g>
</g>
<!-- Node0&#45;&gt;Node6 -->
<g id="edge6" class="edge">
<title>Node0&#45;&gt;Node6</title>
<path fill="none" stroke="#191970" d="M202.0248,-280.2455C207.3103,-272.4564 214.8598,-261.3308 221.2295,-251.9439"/>
<polygon fill="#191970" stroke="#191970" points="224.1436,-253.8827 226.8625,-243.6427 218.3512,-249.9522 224.1436,-253.8827"/>
</g>
<!-- Node7 -->
<g id="node8" class="node">
<title>Node7</title>
<g id="a_node8"><a xlink:href="PNG_8h.html" target="_top" xlink:title=" ">
<polygon fill="none" stroke="#000000" points="198.4057,-112.5 198.4057,-131.5 320.4057,-131.5 320.4057,-112.5 198.4057,-112.5"/>
<text text-anchor="middle" x="259.4057" y="-119.5" font-family="Helvetica,sans-Serif" font-size="10.00" fill="#000000">../cs225/PNG.h</text>
</a>
</g>
</g>
<!-- Node0&#45;&gt;Node7 -->
<g id="edge7" class="edge">
<title>Node0&#45;&gt;Node7</title>
<path fill="none" stroke="#191970" d="M153.1172,-280.4487C85.2756,-263.2254 -35.7992,-223.5227 10.4057,-168 32.6602,-141.2577 122.5835,-129.9994 187.9903,-125.301"/>
<polygon fill="#191970" stroke="#191970" points="188.5238,-128.7729 198.2631,-124.6019 188.0485,-121.789 188.5238,-128.7729"/>
</g>
<!-- Node12 -->
<g id="node13" class="node">
<title>Node12</title>
<g id="a_node13"><a xlink:href="Point_8h.html" target="_top" xlink:title="every 2D point of the image is represented by a Point class you need to trverse all the points of the...">
<polygon fill="none" stroke="#000000" points="495.4057,-112.5 495.4057,-131.5 587.4057,-131.5 587.4057,-112.5 495.4057,-112.5"/>
<text text-anchor="middle" x="541.4057" y="-119.5" font-family="Helvetica,sans-Serif" font-size="10.00" fill="#000000">../Point.h</text>
</a>
</g>
</g>
<!-- Node0&#45;&gt;Node12 -->
<g id="edge12" class="edge">
<title>Node0&#45;&gt;Node12</title>
<path fill="none" stroke="#191970" d="M262.5807,-280.4687C354.3461,-265.8467 511.1183,-234.5894 542.4057,-188 551.379,-174.638 550.205,-156.0713 547.3172,-142.033"/>
<polygon fill="#191970" stroke="#191970" points="550.6132,-140.7856 544.7948,-131.9314 543.8217,-142.4814 550.6132,-140.7856"/>
</g>
<!-- Node13 -->
<g id="node14" class="node">
<title>Node13</title>
<g id="a_node14"><a xlink:href="ImageTraversal_8h.html" target="_top" xlink:title=" ">
<polygon fill="none" stroke="#000000" points="375.9057,-168.5 375.9057,-187.5 512.9057,-187.5 512.9057,-168.5 375.9057,-168.5"/>
<text text-anchor="middle" x="444.4057" y="-175.5" font-family="Helvetica,sans-Serif" font-size="10.00" fill="#000000">ImageTraversal.h</text>
</a>
</g>
</g>
<!-- Node0&#45;&gt;Node13 -->
<g id="edge15" class="edge">
<title>Node0&#45;&gt;Node13</title>
<path fill="none" stroke="#191970" d="M270.9729,-280.4197C305.3773,-273.7525 345.6346,-262.5825 378.4057,-244 399.8515,-231.8394 419.1175,-210.8222 431.2202,-195.7704"/>
<polygon fill="#191970" stroke="#191970" points="434.111,-197.7542 437.4806,-187.7095 428.5825,-193.4606 434.111,-197.7542"/>
</g>
<!-- Node14 -->
<g id="node15" class="node">
<title>Node14</title>
<g id="a_node15"><a xlink:href="BFS_8h.html" target="_top" xlink:title=" ">
<polygon fill="none" stroke="#000000" points="282.4057,-224.5 282.4057,-243.5 336.4057,-243.5 336.4057,-224.5 282.4057,-224.5"/>
<text text-anchor="middle" x="309.4057" y="-231.5" font-family="Helvetica,sans-Serif" font-size="10.00" fill="#000000">BFS.h</text>
</a>
</g>
</g>
<!-- Node0&#45;&gt;Node14 -->
<g id="edge20" class="edge">
<title>Node0&#45;&gt;Node14</title>
<path fill="none" stroke="#191970" d="M215.003,-280.3733C233.1389,-271.4644 260.3192,-258.1127 280.8644,-248.0203"/>
<polygon fill="#191970" stroke="#191970" points="282.6318,-251.0517 290.0641,-243.5011 279.5454,-244.7688 282.6318,-251.0517"/>
</g>
<!-- Node8 -->
<g id="node9" class="node">
<title>Node8</title>
<g id="a_node9"><a xlink:title=" ">
<polygon fill="none" stroke="#bfbfbf" points="228.4057,-56.5 228.4057,-75.5 290.4057,-75.5 290.4057,-56.5 228.4057,-56.5"/>
<text text-anchor="middle" x="259.4057" y="-63.5" font-family="Helvetica,sans-Serif" font-size="10.00" fill="#000000">string</text>
</a>
</g>
</g>
<!-- Node7&#45;&gt;Node8 -->
<g id="edge8" class="edge">
<title>Node7&#45;&gt;Node8</title>
<path fill="none" stroke="#191970" d="M259.4057,-112.2455C259.4057,-104.9382 259.4057,-94.6944 259.4057,-85.7046"/>
<polygon fill="#191970" stroke="#191970" points="262.9058,-85.6426 259.4057,-75.6427 255.9058,-85.6427 262.9058,-85.6426"/>
</g>
<!-- Node9 -->
<g id="node10" class="node">
<title>Node9</title>
<g id="a_node10"><a xlink:href="HSLAPixel_8h.html" target="_top" xlink:title=" ">
<polygon fill="none" stroke="#000000" points="384.9057,-56.5 384.9057,-75.5 483.9057,-75.5 483.9057,-56.5 384.9057,-56.5"/>
<text text-anchor="middle" x="434.4057" y="-63.5" font-family="Helvetica,sans-Serif" font-size="10.00" fill="#000000">HSLAPixel.h</text>
</a>
</g>
</g>
<!-- Node7&#45;&gt;Node9 -->
<g id="edge9" class="edge">
<title>Node7&#45;&gt;Node9</title>
<path fill="none" stroke="#191970" d="M289.4893,-112.3733C318.5891,-103.0613 362.858,-88.8953 394.8088,-78.671"/>
<polygon fill="#191970" stroke="#191970" points="396.2572,-81.8824 404.7147,-75.5011 394.1237,-75.2155 396.2572,-81.8824"/>
</g>
<!-- Node10 -->
<g id="node11" class="node">
<title>Node10</title>
<g id="a_node11"><a xlink:title=" ">
<polygon fill="none" stroke="#bfbfbf" points="407.9057,-.5 407.9057,-19.5 484.9057,-19.5 484.9057,-.5 407.9057,-.5"/>
<text text-anchor="middle" x="446.4057" y="-7.5" font-family="Helvetica,sans-Serif" font-size="10.00" fill="#000000">iostream</text>
</a>
</g>
</g>
<!-- Node9&#45;&gt;Node10 -->
<g id="edge10" class="edge">
<title>Node9&#45;&gt;Node10</title>
<path fill="none" stroke="#191970" d="M436.496,-56.2455C438.0618,-48.9382 440.2569,-38.6944 442.1833,-29.7046"/>
<polygon fill="#191970" stroke="#191970" points="445.6664,-30.1541 444.3394,-19.6427 438.8217,-28.6873 445.6664,-30.1541"/>
</g>
<!-- Node11 -->
<g id="node12" class="node">
<title>Node11</title>
<g id="a_node12"><a xlink:title=" ">
<polygon fill="none" stroke="#bfbfbf" points="508.9057,-.5 508.9057,-19.5 577.9057,-19.5 577.9057,-.5 508.9057,-.5"/>
<text text-anchor="middle" x="543.4057" y="-7.5" font-family="Helvetica,sans-Serif" font-size="10.00" fill="#000000">sstream</text>
</a>
</g>
</g>
<!-- Node9&#45;&gt;Node11 -->
<g id="edge11" class="edge">
<title>Node9&#45;&gt;Node11</title>
<path fill="none" stroke="#191970" d="M453.3921,-56.2455C470.5849,-47.4125 496.1295,-34.2887 515.6189,-24.2758"/>
<polygon fill="#191970" stroke="#191970" points="517.3416,-27.3257 524.6369,-19.6427 514.1427,-21.0993 517.3416,-27.3257"/>
</g>
<!-- Node12&#45;&gt;Node10 -->
<g id="edge13" class="edge">
<title>Node12&#45;&gt;Node10</title>
<path fill="none" stroke="#191970" d="M535.0485,-112.2208C526.2813,-98.9892 509.7066,-74.8703 493.4057,-56 484.5158,-45.7088 473.7238,-35.036 464.7243,-26.5646"/>
<polygon fill="#191970" stroke="#191970" points="467.0844,-23.9799 457.3699,-19.7516 462.3273,-29.1151 467.0844,-23.9799"/>
</g>
<!-- Node12&#45;&gt;Node11 -->
<g id="edge14" class="edge">
<title>Node12&#45;&gt;Node11</title>
<path fill="none" stroke="#191970" d="M541.5762,-112.4509C541.9024,-94.184 542.6208,-53.9553 543.054,-29.6976"/>
<polygon fill="#191970" stroke="#191970" points="546.5564,-29.5858 543.2356,-19.5249 539.5575,-29.4608 546.5564,-29.5858"/>
</g>
<!-- Node13&#45;&gt;Node1 -->
<g id="edge16" class="edge">
<title>Node13&#45;&gt;Node1</title>
<path fill="none" stroke="#191970" d="M432.7352,-168.2455C422.8396,-159.9746 408.443,-147.9416 396.8156,-138.2232"/>
<polygon fill="#191970" stroke="#191970" points="398.8599,-135.3703 388.9425,-131.6427 394.3707,-140.7413 398.8599,-135.3703"/>
</g>
<!-- Node13&#45;&gt;Node7 -->
<g id="edge18" class="edge">
<title>Node13&#45;&gt;Node7</title>
<path fill="none" stroke="#191970" d="M412.6031,-168.3733C381.574,-158.9807 334.2303,-144.6496 300.391,-134.4064"/>
<polygon fill="#191970" stroke="#191970" points="301.3785,-131.0485 290.7934,-131.5011 299.3504,-137.7483 301.3785,-131.0485"/>
</g>
<!-- Node13&#45;&gt;Node9 -->
<g id="edge17" class="edge">
<title>Node13&#45;&gt;Node9</title>
<path fill="none" stroke="#191970" d="M443.5531,-168.4509C441.9221,-150.184 438.3303,-109.9553 436.1644,-85.6976"/>
<polygon fill="#191970" stroke="#191970" points="439.6317,-85.174 435.2561,-75.5249 432.6594,-85.7966 439.6317,-85.174"/>
</g>
<!-- Node13&#45;&gt;Node12 -->
<g id="edge19" class="edge">
<title>Node13&#45;&gt;Node12</title>
<path fill="none" stroke="#191970" d="M461.3018,-168.2455C476.3237,-159.5731 498.51,-146.7645 515.7267,-136.825"/>
<polygon fill="#191970" stroke="#191970" points="517.7928,-139.6737 524.7032,-131.6427 514.2929,-133.6114 517.7928,-139.6737"/>
</g>
<!-- Node14&#45;&gt;Node1 -->
<g id="edge21" class="edge">
<title>Node14&#45;&gt;Node1</title>
<path fill="none" stroke="#191970" d="M311.5421,-224.4863C314.8229,-211.1414 321.9518,-186.4338 333.4057,-168 340.1933,-157.0761 349.9025,-146.578 358.4743,-138.376"/>
<polygon fill="#191970" stroke="#191970" points="360.9153,-140.8863 365.9102,-131.5428 356.1787,-135.7321 360.9153,-140.8863"/>
</g>
<!-- Node14&#45;&gt;Node2 -->
<g id="edge22" class="edge">
<title>Node14&#45;&gt;Node2</title>
<path fill="none" stroke="#191970" d="M282.3325,-226.2577C279.3284,-225.4648 276.3073,-224.6961 273.4057,-224 237.8656,-215.4743 138.338,-195.8619 83.6178,-185.207"/>
<polygon fill="#191970" stroke="#191970" points="84.1095,-181.7371 73.6253,-183.2639 82.7733,-188.6084 84.1095,-181.7371"/>
</g>
<!-- Node14&#45;&gt;Node3 -->
<g id="edge23" class="edge">
<title>Node14&#45;&gt;Node3</title>
<path fill="none" stroke="#191970" d="M282.1374,-225.3727C250.8516,-215.4744 199.5414,-199.2407 165.865,-188.586"/>
<polygon fill="#191970" stroke="#191970" points="166.6115,-185.1512 156.0215,-185.4717 164.4999,-191.8252 166.6115,-185.1512"/>
</g>
<!-- Node14&#45;&gt;Node4 -->
<g id="edge24" class="edge">
<title>Node14&#45;&gt;Node4</title>
<path fill="none" stroke="#191970" d="M292.1612,-224.2455C276.8296,-215.5731 254.1858,-202.7645 236.6142,-192.825"/>
<polygon fill="#191970" stroke="#191970" points="237.8798,-189.5198 227.4526,-187.6427 234.4334,-195.6126 237.8798,-189.5198"/>
</g>
<!-- Node14&#45;&gt;Node7 -->
<g id="edge25" class="edge">
<title>Node14&#45;&gt;Node7</title>
<path fill="none" stroke="#191970" d="M305.1427,-224.4509C296.8771,-205.936 278.5392,-164.8591 267.7623,-140.7187"/>
<polygon fill="#191970" stroke="#191970" points="270.9304,-139.2295 263.6579,-131.5249 264.5385,-142.0831 270.9304,-139.2295"/>
</g>
<!-- Node14&#45;&gt;Node12 -->
<g id="edge26" class="edge">
<title>Node14&#45;&gt;Node12</title>
<path fill="none" stroke="#191970" d="M336.5122,-231.5823C387.6564,-226.4841 495.6642,-212.9922 522.4057,-188 535.04,-176.1922 539.4571,-156.5803 540.9125,-141.7966"/>
<polygon fill="#191970" stroke="#191970" points="544.4164,-141.8372 541.5351,-131.6417 537.4296,-141.4087 544.4164,-141.8372"/>
</g>
<!-- Node14&#45;&gt;Node13 -->
<g id="edge27" class="edge">
<title>Node14&#45;&gt;Node13</title>
<path fill="none" stroke="#191970" d="M332.613,-224.3733C354.5756,-215.2629 387.7389,-201.5062 412.2459,-191.3404"/>
<polygon fill="#191970" stroke="#191970" points="413.6055,-194.5657 421.5012,-187.5011 410.9233,-188.0999 413.6055,-194.5657"/>
</g>
</g>
</svg>
        <g id="navigator" transform="translate(0 0)" fill="#404254">
                <rect fill="#f2f5e9" fill-opacity="0.5" stroke="#606060" stroke-width=".5" x="0" y="0" width="60" height="60"/>
                <use id="zoomplus" xlink:href="#zoomPlus" x="17" y="9" onmousedown="handleZoom(evt,'in')"/>
                <use id="zoomminus" xlink:href="#zoomMin" x="42" y="9" onmousedown="handleZoom(evt,'out')"/>
                <use id="reset" xlink:href="#resetDef" x="30" y="36" onmousedown="handleReset()"/>
                <g id="arrowUp" xlink:href="#dirArrow" transform="translate(30 24)" onmousedown="handlePan(0,-1)">
                  <use xlink:href="#rim" fill="#404040">
                        <set attributeName="fill" to="#808080" begin="arrowUp.mouseover" end="arrowUp.mouseout"/>
                  </use>
                  <path fill="none" stroke="white" stroke-width="1.5" d="M0,-3.0v7 M-2.5,-0.5L0,-3.0L2.5,-0.5"/>
                </g>
                <g id="arrowRight" xlink:href="#dirArrow" transform="rotate(90) translate(36 -43)" onmousedown="handlePan(1,0)">
                  <use xlink:href="#rim" fill="#404040">
                        <set attributeName="fill" to="#808080" begin="arrowRight.mouseover" end="arrowRight.mouseout"/>
                  </use>
                  <path fill="none" stroke="white" stroke-width="1.5" d="M0,-3.0v7 M-2.5,-0.5L0,-3.0L2.5,-0.5"/>
                </g>
                <g id="arrowDown" xlink:href="#dirArrow" transform="rotate(180) translate(-30 -48)" onmousedown="handlePan(0,1)">
                  <use xlink:href="#rim" fill="#404040">
                        <set attributeName="fill" to="#808080" begin="arrowDown.mouseover" end="arrowDown.mouseout"/>
                  </use>
                  <path fill="none" stroke="white" stroke-width="1.5" d="M0,-3.0v7 M-2.5,-0.5L0,-3.0L2.5,-0.5"/>
                </g>
                <g id="arrowLeft" xlink:href="#dirArrow" transform="rotate(270) translate(-36 17)" onmousedown="handlePan(-1,0)">
                  <use xlink:href="#rim" fill="#404040">
                        <set attributeName="fill" to="#808080" begin="arrowLeft.mouseover" end="arrowLeft.mouseout"/>
                  </use>
                  <path fill="none" stroke="white" stroke-width="1.5" d="M0,-3.0v7 M-2.5,-0.5L0,-3.0L2.5,-0.5"/>
                </g>
        </g>
        <svg viewBox="0 0 15 15" width="100%" height="30px" preserveAspectRatio="xMaxYMin meet">
         <g id="arrow_out" transform="scale(0.3 0.3)">
          <a xlink:href="BFS_8cpp__incl_org.svg" target="_base">
           <rect id="button" ry="5" rx="5" y="6" x="6" height="38" width="38"
                fill="#f2f5e9" fill-opacity="0.5" stroke="#606060" stroke-width="1.0"/>
           <path id="arrow"
             d="M 11.500037,31.436501 C 11.940474,20.09759 22.043105,11.32322 32.158766,21.979434 L 37.068811,17.246167 C 37.068811,17.246167 37.088388,32 37.088388,32 L 22.160133,31.978069 C 22.160133,31.978069 26.997745,27.140456 26.997745,27.140456 C 18.528582,18.264221 13.291696,25.230495 11.500037,31.436501 z"
             style="fill:#404040;"/>
          </a>
         </g>
        </svg>
</svg>
