<?xml version="1.0" encoding="UTF-8" standalone="no"?>
<!DOCTYPE svg PUBLIC "-//W3C//DTD SVG 1.1//EN"
 "http://www.w3.org/Graphics/SVG/1.1/DTD/svg11.dtd">
<!-- Generated by graphviz version 2.40.1 (0)
 -->
<!-- Title: GradientColorPicker Pages: 1 -->
<svg width="335pt" height="106pt"
 viewBox="0.00 0.00 334.50 106.00" xmlns="http://www.w3.org/2000/svg" xmlns:xlink="http://www.w3.org/1999/xlink">
<g id="graph0" class="graph" transform="scale(1 1) rotate(0) translate(4 102)">
<title>GradientColorPicker</title>
<!-- Node2 -->
<g id="node1" class="node">
<title>Node2</title>
<g id="a_node1"><a xlink:title="A color picker class using gradient color picking algorithm.">
<polygon fill="#bfbfbf" stroke="#000000" points="106,-.5 106,-19.5 265,-19.5 265,-.5 106,-.5"/>
<text text-anchor="middle" x="185.5" y="-7.5" font-family="Helvetica,sans-Serif" font-size="10.00" fill="#000000">GradientColorPicker</text>
</a>
</g>
</g>
<!-- Node3 -->
<g id="node2" class="node">
<title>Node3</title>
<g id="a_node2"><a xlink:href="classColorPicker.html" target="_top" xlink:title="The base class for different color picking algorithms All color picking classes inherit from this cla...">
<polygon fill="none" stroke="#000000" points="0,-78.5 0,-97.5 99,-97.5 99,-78.5 0,-78.5"/>
<text text-anchor="middle" x="49.5" y="-85.5" font-family="Helvetica,sans-Serif" font-size="10.00" fill="#000000">ColorPicker</text>
</a>
</g>
</g>
<!-- Node3&#45;&gt;Node2 -->
<g id="edge1" class="edge">
<title>Node3&#45;&gt;Node2</title>
<path fill="none" stroke="#191970" d="M75.1836,-73.2697C102.6049,-57.5428 145.2633,-33.0769 168.6873,-19.6426"/>
<polygon fill="#191970" stroke="#191970" points="73.1095,-70.4244 66.1763,-78.4357 76.5922,-76.4966 73.1095,-70.4244"/>
</g>
<!-- Node4 -->
<g id="node3" class="node">
<title>Node4</title>
<g id="a_node3"><a xlink:href="classcs225_1_1HSLAPixel.html" target="_top" xlink:title=" ">
<polygon fill="none" stroke="#000000" points="117,-78.5 117,-97.5 254,-97.5 254,-78.5 117,-78.5"/>
<text text-anchor="middle" x="185.5" y="-85.5" font-family="Helvetica,sans-Serif" font-size="10.00" fill="#000000">cs225::HSLAPixel</text>
</a>
</g>
</g>
<!-- Node4&#45;&gt;Node2 -->
<g id="edge2" class="edge">
<title>Node4&#45;&gt;Node2</title>
<path fill="none" stroke="#9a32cd" stroke-dasharray="5,2" d="M185.5,-68.2866C185.5,-52.7395 185.5,-31.7276 185.5,-19.6426"/>
<polygon fill="#9a32cd" stroke="#9a32cd" points="182.0001,-68.4356 185.5,-78.4357 189.0001,-68.4357 182.0001,-68.4356"/>
<text text-anchor="middle" x="212" y="-52" font-family="Helvetica,sans-Serif" font-size="10.00" fill="#000000"> color1</text>
<text text-anchor="middle" x="212" y="-41" font-family="Helvetica,sans-Serif" font-size="10.00" fill="#000000">color2</text>
</g>
<!-- Node5 -->
<g id="node4" class="node">
<title>Node5</title>
<g id="a_node4"><a xlink:href="structPoint.html" target="_top" xlink:title="Simple Point class containing a public unsigned x and y for representing 2D points on an image.">
<polygon fill="none" stroke="#000000" points="272.5,-78.5 272.5,-97.5 326.5,-97.5 326.5,-78.5 272.5,-78.5"/>
<text text-anchor="middle" x="299.5" y="-85.5" font-family="Helvetica,sans-Serif" font-size="10.00" fill="#000000">Point</text>
</a>
</g>
</g>
<!-- Node5&#45;&gt;Node2 -->
<g id="edge3" class="edge">
<title>Node5&#45;&gt;Node2</title>
<path fill="none" stroke="#9a32cd" stroke-dasharray="5,2" d="M282.5787,-71.0249C271.7199,-60.6908 256.9852,-47.6638 242.5,-38 231.861,-30.9022 219.1602,-24.4877 208.4506,-19.5947"/>
<polygon fill="#9a32cd" stroke="#9a32cd" points="280.4504,-73.8375 290.0586,-78.3024 285.3318,-68.8203 280.4504,-73.8375"/>
<text text-anchor="middle" x="296" y="-46.5" font-family="Helvetica,sans-Serif" font-size="10.00" fill="#000000"> center</text>
</g>
</g>
</svg>
