<?xml version="1.0" encoding="UTF-8" standalone="no"?>
<!DOCTYPE svg PUBLIC "-//W3C//DTD SVG 1.1//EN"
 "http://www.w3.org/Graphics/SVG/1.1/DTD/svg11.dtd">
<!-- Generated by graphviz version 2.40.1 (0)
 -->
<!-- Title: ImageTraversal Pages: 1 -->
<svg width="130pt" height="84pt"
 viewBox="0.00 0.00 130.00 84.00" xmlns="http://www.w3.org/2000/svg" xmlns:xlink="http://www.w3.org/1999/xlink">
<g id="graph0" class="graph" transform="scale(1 1) rotate(0) translate(4 80)">
<title>ImageTraversal</title>
<!-- Node0 -->
<g id="node1" class="node">
<title>Node0</title>
<g id="a_node1"><a xlink:title="A base class for traversal algorithms on images.">
<polygon fill="#bfbfbf" stroke="#000000" points="0,-56.5 0,-75.5 122,-75.5 122,-56.5 0,-56.5"/>
<text text-anchor="middle" x="61" y="-63.5" font-family="Helvetica,sans-Serif" font-size="10.00" fill="#000000">ImageTraversal</text>
</a>
</g>
</g>
<!-- Node1 -->
<g id="node2" class="node">
<title>Node1</title>
<g id="a_node2"><a xlink:href="classBFS.html" target="_top" xlink:title="A breadth&#45;first ImageTraversal.">
<polygon fill="none" stroke="#000000" points="13.5,-.5 13.5,-19.5 52.5,-19.5 52.5,-.5 13.5,-.5"/>
<text text-anchor="middle" x="33" y="-7.5" font-family="Helvetica,sans-Serif" font-size="10.00" fill="#000000">BFS</text>
</a>
</g>
</g>
<!-- Node0&#45;&gt;Node1 -->
<g id="edge1" class="edge">
<title>Node0&#45;&gt;Node1</title>
<path fill="none" stroke="#191970" d="M51.5219,-47.0437C46.9165,-37.8331 41.5799,-27.1598 37.8213,-19.6427"/>
<polygon fill="#191970" stroke="#191970" points="48.5201,-48.8665 56.1228,-56.2455 54.7811,-45.736 48.5201,-48.8665"/>
</g>
<!-- Node2 -->
<g id="node3" class="node">
<title>Node2</title>
<g id="a_node3"><a xlink:href="classDFS.html" target="_top" xlink:title="A depth&#45;first ImageTraversal.">
<polygon fill="none" stroke="#000000" points="70.5,-.5 70.5,-19.5 109.5,-19.5 109.5,-.5 70.5,-.5"/>
<text text-anchor="middle" x="90" y="-7.5" font-family="Helvetica,sans-Serif" font-size="10.00" fill="#000000">DFS</text>
</a>
</g>
</g>
<!-- Node0&#45;&gt;Node2 -->
<g id="edge2" class="edge">
<title>Node0&#45;&gt;Node2</title>
<path fill="none" stroke="#191970" d="M70.6647,-47.3372C75.4687,-38.0605 81.0723,-27.2398 85.0065,-19.6427"/>
<polygon fill="#191970" stroke="#191970" points="67.542,-45.7561 66.0514,-56.2455 73.758,-48.9751 67.542,-45.7561"/>
</g>
</g>
</svg>
