<?xml version="1.0" encoding="UTF-8" standalone="no"?>
<!DOCTYPE svg PUBLIC "-//W3C//DTD SVG 1.1//EN"
 "http://www.w3.org/Graphics/SVG/1.1/DTD/svg11.dtd">
<!-- Generated by graphviz version 2.40.1 (0)
 -->
<!-- Title: ColorPicker Pages: 1 -->
<svg width="302pt" height="180pt"
 viewBox="0.00 0.00 302.00 180.00" xmlns="http://www.w3.org/2000/svg" xmlns:xlink="http://www.w3.org/1999/xlink">
<g id="graph0" class="graph" transform="scale(1 1) rotate(0) translate(4 176)">
<title>ColorPicker</title>
<!-- Node0 -->
<g id="node1" class="node">
<title>Node0</title>
<g id="a_node1"><a xlink:title="The base class for different color picking algorithms All color picking classes inherit from this cla...">
<polygon fill="#bfbfbf" stroke="#000000" points="0,-76.5 0,-95.5 99,-95.5 99,-76.5 0,-76.5"/>
<text text-anchor="middle" x="49.5" y="-83.5" font-family="Helvetica,sans-Serif" font-size="10.00" fill="#000000">ColorPicker</text>
</a>
</g>
</g>
<!-- Node1 -->
<g id="node2" class="node">
<title>Node1</title>
<g id="a_node2"><a xlink:href="classGradientColorPicker.html" target="_top" xlink:title="A color picker class using gradient color picking algorithm.">
<polygon fill="none" stroke="#000000" points="135,-152.5 135,-171.5 294,-171.5 294,-152.5 135,-152.5"/>
<text text-anchor="middle" x="214.5" y="-159.5" font-family="Helvetica,sans-Serif" font-size="10.00" fill="#000000">GradientColorPicker</text>
</a>
</g>
</g>
<!-- Node0&#45;&gt;Node1 -->
<g id="edge1" class="edge">
<title>Node0&#45;&gt;Node1</title>
<path fill="none" stroke="#191970" d="M68.7627,-101.7541C85.3754,-114.6004 110.4922,-132.3103 135,-143 143.7149,-146.8012 153.3136,-149.9142 162.7365,-152.4388"/>
<polygon fill="#191970" stroke="#191970" points="70.9155,-98.9944 60.8987,-95.5426 66.5766,-104.4875 70.9155,-98.9944"/>
</g>
<!-- Node2 -->
<g id="node3" class="node">
<title>Node2</title>
<g id="a_node3"><a xlink:href="classGridColorPicker.html" target="_top" xlink:title="A color picker class using grid color picking algorithm.">
<polygon fill="none" stroke="#000000" points="150,-114.5 150,-133.5 279,-133.5 279,-114.5 150,-114.5"/>
<text text-anchor="middle" x="214.5" y="-121.5" font-family="Helvetica,sans-Serif" font-size="10.00" fill="#000000">GridColorPicker</text>
</a>
</g>
</g>
<!-- Node0&#45;&gt;Node2 -->
<g id="edge2" class="edge">
<title>Node0&#45;&gt;Node2</title>
<path fill="none" stroke="#191970" d="M101.154,-97.8961C124.3465,-103.2374 151.3383,-109.4537 173.1629,-114.4799"/>
<polygon fill="#191970" stroke="#191970" points="101.6669,-94.4226 91.1365,-95.589 100.0959,-101.2441 101.6669,-94.4226"/>
</g>
<!-- Node3 -->
<g id="node4" class="node">
<title>Node3</title>
<g id="a_node4"><a xlink:href="classMyColorPicker.html" target="_top" xlink:title="A color picker class using your own color picking algorithm.">
<polygon fill="none" stroke="#000000" points="157.5,-76.5 157.5,-95.5 271.5,-95.5 271.5,-76.5 157.5,-76.5"/>
<text text-anchor="middle" x="214.5" y="-83.5" font-family="Helvetica,sans-Serif" font-size="10.00" fill="#000000">MyColorPicker</text>
</a>
</g>
</g>
<!-- Node0&#45;&gt;Node3 -->
<g id="edge3" class="edge">
<title>Node0&#45;&gt;Node3</title>
<path fill="none" stroke="#191970" d="M109.16,-86C124.9179,-86 141.8826,-86 157.4962,-86"/>
<polygon fill="#191970" stroke="#191970" points="109.0055,-82.5001 99.0054,-86 109.0054,-89.5001 109.0055,-82.5001"/>
</g>
<!-- Node4 -->
<g id="node5" class="node">
<title>Node4</title>
<g id="a_node5"><a xlink:href="classRainbowColorPicker.html" target="_top" xlink:title="A color picker class using rainbow color picking algorithm.">
<polygon fill="none" stroke="#000000" points="138.5,-38.5 138.5,-57.5 290.5,-57.5 290.5,-38.5 138.5,-38.5"/>
<text text-anchor="middle" x="214.5" y="-45.5" font-family="Helvetica,sans-Serif" font-size="10.00" fill="#000000">RainbowColorPicker</text>
</a>
</g>
</g>
<!-- Node0&#45;&gt;Node4 -->
<g id="edge4" class="edge">
<title>Node0&#45;&gt;Node4</title>
<path fill="none" stroke="#191970" d="M101.154,-74.1039C124.3465,-68.7626 151.3383,-62.5463 173.1629,-57.5201"/>
<polygon fill="#191970" stroke="#191970" points="100.0959,-70.7559 91.1365,-76.411 101.6669,-77.5774 100.0959,-70.7559"/>
</g>
<!-- Node5 -->
<g id="node6" class="node">
<title>Node5</title>
<g id="a_node6"><a xlink:href="classSolidColorPicker.html" target="_top" xlink:title="A color picker class using solid color picking algorithm.">
<polygon fill="none" stroke="#000000" points="146,-.5 146,-19.5 283,-19.5 283,-.5 146,-.5"/>
<text text-anchor="middle" x="214.5" y="-7.5" font-family="Helvetica,sans-Serif" font-size="10.00" fill="#000000">SolidColorPicker</text>
</a>
</g>
</g>
<!-- Node0&#45;&gt;Node5 -->
<g id="edge5" class="edge">
<title>Node0&#45;&gt;Node5</title>
<path fill="none" stroke="#191970" d="M68.7627,-70.2459C85.3754,-57.3996 110.4922,-39.6897 135,-29 143.7149,-25.1988 153.3136,-22.0858 162.7365,-19.5612"/>
<polygon fill="#191970" stroke="#191970" points="66.5766,-67.5125 60.8987,-76.4574 70.9155,-73.0056 66.5766,-67.5125"/>
</g>
</g>
</svg>
