<?xml version="1.0" encoding="UTF-8" standalone="no"?>
<!DOCTYPE svg PUBLIC "-//W3C//DTD SVG 1.1//EN"
 "http://www.w3.org/Graphics/SVG/1.1/DTD/svg11.dtd">
<!-- Generated by graphviz version 2.40.1 (0)
 -->
<!-- Title: GridColorPicker Pages: 1 -->
<svg width="289pt" height="106pt"
 viewBox="0.00 0.00 288.50 106.00" xmlns="http://www.w3.org/2000/svg" xmlns:xlink="http://www.w3.org/1999/xlink">
<g id="graph0" class="graph" transform="scale(1 1) rotate(0) translate(4 102)">
<title>GridColorPicker</title>
<!-- Node2 -->
<g id="node1" class="node">
<title>Node2</title>
<g id="a_node1"><a xlink:title="A color picker class using grid color picking algorithm.">
<polygon fill="#bfbfbf" stroke="#000000" points="53,-.5 53,-19.5 182,-19.5 182,-.5 53,-.5"/>
<text text-anchor="middle" x="117.5" y="-7.5" font-family="Helvetica,sans-Serif" font-size="10.00" fill="#000000">GridColorPicker</text>
</a>
</g>
</g>
<!-- Node3 -->
<g id="node2" class="node">
<title>Node3</title>
<g id="a_node2"><a xlink:href="classColorPicker.html" target="_top" xlink:title="The base class for different color picking algorithms All color picking classes inherit from this cla...">
<polygon fill="none" stroke="#000000" points="0,-78.5 0,-97.5 99,-97.5 99,-78.5 0,-78.5"/>
<text text-anchor="middle" x="49.5" y="-85.5" font-family="Helvetica,sans-Serif" font-size="10.00" fill="#000000">ColorPicker</text>
</a>
</g>
</g>
<!-- Node3&#45;&gt;Node2 -->
<g id="edge1" class="edge">
<title>Node3&#45;&gt;Node2</title>
<path fill="none" stroke="#191970" d="M64.7473,-70.5105C78.4431,-54.8005 98.0465,-32.3143 109.0937,-19.6426"/>
<polygon fill="#191970" stroke="#191970" points="61.7713,-68.5979 57.8381,-78.4357 67.0477,-73.1979 61.7713,-68.5979"/>
</g>
<!-- Node4 -->
<g id="node3" class="node">
<title>Node4</title>
<g id="a_node3"><a xlink:href="classcs225_1_1HSLAPixel.html" target="_top" xlink:title=" ">
<polygon fill="none" stroke="#000000" points="117,-78.5 117,-97.5 254,-97.5 254,-78.5 117,-78.5"/>
<text text-anchor="middle" x="185.5" y="-85.5" font-family="Helvetica,sans-Serif" font-size="10.00" fill="#000000">cs225::HSLAPixel</text>
</a>
</g>
</g>
<!-- Node4&#45;&gt;Node2 -->
<g id="edge2" class="edge">
<title>Node4&#45;&gt;Node2</title>
<path fill="none" stroke="#9a32cd" stroke-dasharray="5,2" d="M170.2527,-70.5105C156.5569,-54.8005 136.9535,-32.3143 125.9063,-19.6426"/>
<polygon fill="#9a32cd" stroke="#9a32cd" points="167.9523,-73.1979 177.1619,-78.4357 173.2287,-68.5979 167.9523,-73.1979"/>
<text text-anchor="middle" x="220" y="-52" font-family="Helvetica,sans-Serif" font-size="10.00" fill="#000000"> backgroundColor</text>
<text text-anchor="middle" x="220" y="-41" font-family="Helvetica,sans-Serif" font-size="10.00" fill="#000000">gridColor</text>
</g>
</g>
</svg>
