<?xml version="1.0" encoding="UTF-8" standalone="no"?>
<!DOCTYPE svg PUBLIC "-//W3C//DTD SVG 1.1//EN"
 "http://www.w3.org/Graphics/SVG/1.1/DTD/svg11.dtd">
<!-- Generated by graphviz version 2.40.1 (0)
 -->
<!-- Title: colorPicker/ColorPicker.h Pages: 1 -->
<svg width="212pt" height="140pt"
 viewBox="0.00 0.00 212.00 140.00" xmlns="http://www.w3.org/2000/svg" xmlns:xlink="http://www.w3.org/1999/xlink">
<g id="graph0" class="graph" transform="scale(1 1) rotate(0) translate(4 136)">
<title>colorPicker/ColorPicker.h</title>
<!-- Node0 -->
<g id="node1" class="node">
<title>Node0</title>
<g id="a_node1"><a xlink:title=" ">
<polygon fill="#bfbfbf" stroke="#000000" points="0,-112.5 0,-131.5 204,-131.5 204,-112.5 0,-112.5"/>
<text text-anchor="middle" x="102" y="-119.5" font-family="Helvetica,sans-Serif" font-size="10.00" fill="#000000">colorPicker/ColorPicker.h</text>
</a>
</g>
</g>
<!-- Node1 -->
<g id="node2" class="node">
<title>Node1</title>
<g id="a_node2"><a xlink:href="HSLAPixel_8h.html" target="_top" xlink:title=" ">
<polygon fill="none" stroke="#000000" points="18.5,-56.5 18.5,-75.5 185.5,-75.5 185.5,-56.5 18.5,-56.5"/>
<text text-anchor="middle" x="102" y="-63.5" font-family="Helvetica,sans-Serif" font-size="10.00" fill="#000000">../cs225/HSLAPixel.h</text>
</a>
</g>
</g>
<!-- Node0&#45;&gt;Node1 -->
<g id="edge1" class="edge">
<title>Node0&#45;&gt;Node1</title>
<path fill="none" stroke="#191970" d="M102,-112.2455C102,-104.9382 102,-94.6944 102,-85.7046"/>
<polygon fill="#191970" stroke="#191970" points="105.5001,-85.6426 102,-75.6427 98.5001,-85.6427 105.5001,-85.6426"/>
</g>
<!-- Node2 -->
<g id="node3" class="node">
<title>Node2</title>
<g id="a_node3"><a xlink:title=" ">
<polygon fill="none" stroke="#bfbfbf" points="18.5,-.5 18.5,-19.5 95.5,-19.5 95.5,-.5 18.5,-.5"/>
<text text-anchor="middle" x="57" y="-7.5" font-family="Helvetica,sans-Serif" font-size="10.00" fill="#000000">iostream</text>
</a>
</g>
</g>
<!-- Node1&#45;&gt;Node2 -->
<g id="edge2" class="edge">
<title>Node1&#45;&gt;Node2</title>
<path fill="none" stroke="#191970" d="M94.1616,-56.2455C87.838,-48.3761 78.7776,-37.101 71.1864,-27.6542"/>
<polygon fill="#191970" stroke="#191970" points="73.7408,-25.2454 64.7486,-19.6427 68.2842,-29.6302 73.7408,-25.2454"/>
</g>
<!-- Node3 -->
<g id="node4" class="node">
<title>Node3</title>
<g id="a_node4"><a xlink:title=" ">
<polygon fill="none" stroke="#bfbfbf" points="113.5,-.5 113.5,-19.5 182.5,-19.5 182.5,-.5 113.5,-.5"/>
<text text-anchor="middle" x="148" y="-7.5" font-family="Helvetica,sans-Serif" font-size="10.00" fill="#000000">sstream</text>
</a>
</g>
</g>
<!-- Node1&#45;&gt;Node3 -->
<g id="edge3" class="edge">
<title>Node1&#45;&gt;Node3</title>
<path fill="none" stroke="#191970" d="M110.0126,-56.2455C116.4768,-48.3761 125.7385,-37.101 133.4983,-27.6542"/>
<polygon fill="#191970" stroke="#191970" points="136.4364,-29.5916 140.0792,-19.6427 131.0273,-25.1484 136.4364,-29.5916"/>
</g>
</g>
</svg>
