<?xml version="1.0" encoding="UTF-8" standalone="no"?>
<!DOCTYPE svg PUBLIC "-//W3C//DTD SVG 1.1//EN"
 "http://www.w3.org/Graphics/SVG/1.1/DTD/svg11.dtd">
<!-- Generated by graphviz version 2.40.1 (0)
 -->
<!-- Title: colorPicker/ColorPicker.h Pages: 1 -->
<!--zoomable 162 -->
<svg id="main" version="1.1" xmlns="http://www.w3.org/2000/svg" xmlns:xlink="http://www.w3.org/1999/xlink" xml:space="preserve" onload="init(evt)">
<style type="text/css"><![CDATA[
.edge:hover path { stroke: red; }
.edge:hover polygon { stroke: red; fill: red; }
]]></style>
<script type="text/javascript"><![CDATA[
var edges = document.getElementsByTagName('g');
if (edges && edges.length) {
  for (var i=0;i<edges.length;i++) {
    if (edges[i].id.substr(0,4)=='edge') {
      edges[i].setAttribute('class','edge');
    }
  }
}
]]></script>
        <defs>
                <circle id="rim" cx="0" cy="0" r="7"/>
                <circle id="rim2" cx="0" cy="0" r="3.5"/>
                <g id="zoomPlus">
                        <use xlink:href="#rim" fill="#404040">
                                <set attributeName="fill" to="#808080" begin="zoomplus.mouseover" end="zoomplus.mouseout"/>
                        </use>
                        <path d="M-4,0h8M0,-4v8" fill="none" stroke="white" stroke-width="1.5" pointer-events="none"/>
                </g>
                <g id="zoomMin">
                        <use xlink:href="#rim" fill="#404040">
                                <set attributeName="fill" to="#808080" begin="zoomminus.mouseover" end="zoomminus.mouseout"/>
                        </use>
                        <path d="M-4,0h8" fill="none" stroke="white" stroke-width="1.5" pointer-events="none"/>
                </g>
                <g id="dirArrow">
                        <path fill="none" stroke="white" stroke-width="1.5" d="M0,-3.0v7 M-2.5,-0.5L0,-3.0L2.5,-0.5"/>
                </g>
               <g id="resetDef">
                       <use xlink:href="#rim2" fill="#404040">
                               <set attributeName="fill" to="#808080" begin="reset.mouseover" end="reset.mouseout"/>
                       </use>
               </g>
        </defs>

<script type="text/javascript">
var viewWidth = 1666;
var viewHeight = 162;
var sectionId = 'dynsection-1';
</script>
<script xlink:href="svgpan.js"/>
<svg id="graph" class="graph">
<g id="viewport">
<title>colorPicker/ColorPicker.h</title>
<!-- Node4 -->
<g id="node1" class="node">
<title>Node4</title>
<g id="a_node1"><a xlink:title=" ">
<polygon fill="#bfbfbf" stroke="#000000" points="778,-134.5 778,-153.5 982,-153.5 982,-134.5 778,-134.5"/>
<text text-anchor="middle" x="880" y="-141.5" font-family="Helvetica,sans-Serif" font-size="10.00" fill="#000000">colorPicker/ColorPicker.h</text>
</a>
</g>
</g>
<!-- Node5 -->
<g id="node2" class="node">
<title>Node5</title>
<g id="a_node2"><a xlink:href="GradientColorPicker_8cpp.html" target="_top" xlink:title=" ">
<polygon fill="none" stroke="#000000" points="0,-.5 0,-30.5 204,-30.5 204,-.5 0,-.5"/>
<text text-anchor="start" x="8" y="-18.5" font-family="Helvetica,sans-Serif" font-size="10.00" fill="#000000">colorPicker/GradientColor</text>
<text text-anchor="middle" x="102" y="-7.5" font-family="Helvetica,sans-Serif" font-size="10.00" fill="#000000">Picker.cpp</text>
</a>
</g>
</g>
<!-- Node4&#45;&gt;Node5 -->
<g id="edge1" class="edge">
<title>Node4&#45;&gt;Node5</title>
<path fill="none" stroke="#191970" d="M767.6248,-141.41C556.7061,-135.9964 120.5904,-121.9583 98,-98 81.0795,-80.0549 88.7016,-48.9817 95.5253,-30.522"/>
<polygon fill="#191970" stroke="#191970" points="767.7177,-144.9134 777.8036,-141.669 767.8959,-137.9156 767.7177,-144.9134"/>
</g>
<!-- Node6 -->
<g id="node3" class="node">
<title>Node6</title>
<g id="a_node3"><a xlink:href="GradientColorPicker_8h.html" target="_top" xlink:title=" ">
<polygon fill="none" stroke="#000000" points="107,-67.5 107,-97.5 311,-97.5 311,-67.5 107,-67.5"/>
<text text-anchor="start" x="115" y="-85.5" font-family="Helvetica,sans-Serif" font-size="10.00" fill="#000000">colorPicker/GradientColor</text>
<text text-anchor="middle" x="209" y="-74.5" font-family="Helvetica,sans-Serif" font-size="10.00" fill="#000000">Picker.h</text>
</a>
</g>
</g>
<!-- Node4&#45;&gt;Node6 -->
<g id="edge2" class="edge">
<title>Node4&#45;&gt;Node6</title>
<path fill="none" stroke="#191970" d="M767.8377,-136.3616C655.6223,-128.3295 478.1411,-114.5673 325,-98 320.455,-97.5083 315.8128,-96.9833 311.1257,-96.4347"/>
<polygon fill="#191970" stroke="#191970" points="767.5936,-139.853 777.8172,-137.0731 768.0915,-132.8707 767.5936,-139.853"/>
</g>
<!-- Node8 -->
<g id="node5" class="node">
<title>Node8</title>
<g id="a_node5"><a xlink:href="GridColorPicker_8cpp.html" target="_top" xlink:title=" ">
<polygon fill="none" stroke="#000000" points="229.5,-6 229.5,-25 478.5,-25 478.5,-6 229.5,-6"/>
<text text-anchor="middle" x="354" y="-13" font-family="Helvetica,sans-Serif" font-size="10.00" fill="#000000">colorPicker/GridColorPicker.cpp</text>
</a>
</g>
</g>
<!-- Node4&#45;&gt;Node8 -->
<g id="edge5" class="edge">
<title>Node4&#45;&gt;Node8</title>
<path fill="none" stroke="#191970" d="M767.7235,-141.8039C622.7892,-137.8118 385.7839,-126.9021 358,-98 339.1182,-78.3583 346.0607,-42.4278 350.8955,-25.2066"/>
<polygon fill="#191970" stroke="#191970" points="767.9052,-145.3099 777.9955,-142.0795 768.093,-138.3124 767.9052,-145.3099"/>
</g>
<!-- Node9 -->
<g id="node6" class="node">
<title>Node9</title>
<g id="a_node6"><a xlink:href="GridColorPicker_8h.html" target="_top" xlink:title=" ">
<polygon fill="none" stroke="#000000" points="367,-73 367,-92 601,-92 601,-73 367,-73"/>
<text text-anchor="middle" x="484" y="-80" font-family="Helvetica,sans-Serif" font-size="10.00" fill="#000000">colorPicker/GridColorPicker.h</text>
</a>
</g>
</g>
<!-- Node4&#45;&gt;Node9 -->
<g id="edge6" class="edge">
<title>Node4&#45;&gt;Node9</title>
<path fill="none" stroke="#191970" d="M808.2375,-132.8551C733.0629,-121.1802 616.2444,-103.038 545.2588,-92.0137"/>
<polygon fill="#191970" stroke="#191970" points="808.1408,-136.3819 818.5595,-134.4581 809.2151,-129.4648 808.1408,-136.3819"/>
</g>
<!-- Node10 -->
<g id="node7" class="node">
<title>Node10</title>
<g id="a_node7"><a xlink:href="MyColorPicker_8cpp.html" target="_top" xlink:title=" ">
<polygon fill="none" stroke="#000000" points="521,-6 521,-25 755,-25 755,-6 521,-6"/>
<text text-anchor="middle" x="638" y="-13" font-family="Helvetica,sans-Serif" font-size="10.00" fill="#000000">colorPicker/MyColorPicker.cpp</text>
</a>
</g>
</g>
<!-- Node4&#45;&gt;Node10 -->
<g id="edge9" class="edge">
<title>Node4&#45;&gt;Node10</title>
<path fill="none" stroke="#191970" d="M767.6212,-134.1801C716.9817,-127.3431 664.7874,-116.0982 648,-98 629.3578,-77.9021 632.8792,-42.1925 635.934,-25.1156"/>
<polygon fill="#191970" stroke="#191970" points="767.3502,-137.6742 777.7173,-135.4894 768.2506,-130.7323 767.3502,-137.6742"/>
</g>
<!-- Node11 -->
<g id="node8" class="node">
<title>Node11</title>
<g id="a_node8"><a xlink:href="MyColorPicker_8h.html" target="_top" xlink:title=" ">
<polygon fill="none" stroke="#000000" points="657.5,-73 657.5,-92 876.5,-92 876.5,-73 657.5,-73"/>
<text text-anchor="middle" x="767" y="-80" font-family="Helvetica,sans-Serif" font-size="10.00" fill="#000000">colorPicker/MyColorPicker.h</text>
</a>
</g>
</g>
<!-- Node4&#45;&gt;Node11 -->
<g id="edge10" class="edge">
<title>Node4&#45;&gt;Node11</title>
<path fill="none" stroke="#191970" d="M853.4881,-129.571C832.2225,-117.9972 802.9764,-102.0801 784.5323,-92.0419"/>
<polygon fill="#191970" stroke="#191970" points="851.8872,-132.6844 862.3438,-134.3906 855.2335,-126.536 851.8872,-132.6844"/>
</g>
<!-- Node12 -->
<g id="node9" class="node">
<title>Node12</title>
<g id="a_node9"><a xlink:href="RainbowColorPicker_8cpp.html" target="_top" xlink:title=" ">
<polygon fill="none" stroke="#000000" points="909.5,-.5 909.5,-30.5 1106.5,-30.5 1106.5,-.5 909.5,-.5"/>
<text text-anchor="start" x="917.5" y="-18.5" font-family="Helvetica,sans-Serif" font-size="10.00" fill="#000000">colorPicker/RainbowColor</text>
<text text-anchor="middle" x="1008" y="-7.5" font-family="Helvetica,sans-Serif" font-size="10.00" fill="#000000">Picker.cpp</text>
</a>
</g>
</g>
<!-- Node4&#45;&gt;Node12 -->
<g id="edge13" class="edge">
<title>Node4&#45;&gt;Node12</title>
<path fill="none" stroke="#191970" d="M992.0571,-133.617C1038.8452,-126.7451 1085.6708,-115.6351 1100,-98 1121.5785,-71.443 1080.5549,-45.953 1046.5608,-30.5096"/>
<polygon fill="#191970" stroke="#191970" points="991.5001,-130.1608 982.0853,-135.0199 992.4754,-137.0925 991.5001,-130.1608"/>
</g>
<!-- Node13 -->
<g id="node10" class="node">
<title>Node13</title>
<g id="a_node10"><a xlink:href="RainbowColorPicker_8h.html" target="_top" xlink:title=" ">
<polygon fill="none" stroke="#000000" points="894.5,-67.5 894.5,-97.5 1091.5,-97.5 1091.5,-67.5 894.5,-67.5"/>
<text text-anchor="start" x="902.5" y="-85.5" font-family="Helvetica,sans-Serif" font-size="10.00" fill="#000000">colorPicker/RainbowColor</text>
<text text-anchor="middle" x="993" y="-74.5" font-family="Helvetica,sans-Serif" font-size="10.00" fill="#000000">Picker.h</text>
</a>
</g>
</g>
<!-- Node4&#45;&gt;Node13 -->
<g id="edge14" class="edge">
<title>Node4&#45;&gt;Node13</title>
<path fill="none" stroke="#191970" d="M906.8421,-129.3912C924.4965,-119.7829 947.5427,-107.24 965.3571,-97.5446"/>
<polygon fill="#191970" stroke="#191970" points="904.7665,-126.536 897.6563,-134.3906 908.1128,-132.6844 904.7665,-126.536"/>
</g>
<!-- Node14 -->
<g id="node11" class="node">
<title>Node14</title>
<g id="a_node11"><a xlink:href="SolidColorPicker_8cpp.html" target="_top" xlink:title=" ">
<polygon fill="none" stroke="#000000" points="1151.5,-6 1151.5,-25 1408.5,-25 1408.5,-6 1151.5,-6"/>
<text text-anchor="middle" x="1280" y="-13" font-family="Helvetica,sans-Serif" font-size="10.00" fill="#000000">colorPicker/SolidColorPicker.cpp</text>
</a>
</g>
</g>
<!-- Node4&#45;&gt;Node14 -->
<g id="edge17" class="edge">
<title>Node4&#45;&gt;Node14</title>
<path fill="none" stroke="#191970" d="M992.4382,-141.9342C1136.8281,-138.0952 1372.1234,-127.364 1399,-98 1428.8728,-65.3625 1361.4244,-38.6074 1316.3519,-25.0727"/>
<polygon fill="#191970" stroke="#191970" points="992.1095,-138.4415 982.2033,-142.1989 992.2905,-145.4391 992.1095,-138.4415"/>
</g>
<!-- Node15 -->
<g id="node12" class="node">
<title>Node15</title>
<g id="a_node12"><a xlink:href="SolidColorPicker_8h.html" target="_top" xlink:title=" ">
<polygon fill="none" stroke="#000000" points="1148,-73 1148,-92 1390,-92 1390,-73 1148,-73"/>
<text text-anchor="middle" x="1269" y="-80" font-family="Helvetica,sans-Serif" font-size="10.00" fill="#000000">colorPicker/SolidColorPicker.h</text>
</a>
</g>
</g>
<!-- Node4&#45;&gt;Node15 -->
<g id="edge18" class="edge">
<title>Node4&#45;&gt;Node15</title>
<path fill="none" stroke="#191970" d="M950.494,-132.8551C1024.3397,-121.1802 1139.0933,-103.038 1208.824,-92.0137"/>
<polygon fill="#191970" stroke="#191970" points="949.6852,-129.4394 940.3544,-134.4581 950.7783,-136.3535 949.6852,-129.4394"/>
</g>
<!-- Node16 -->
<g id="node13" class="node">
<title>Node16</title>
<g id="a_node13"><a xlink:href="FloodFilledImage_8cpp.html" target="_top" xlink:title=" ">
<polygon fill="none" stroke="#000000" points="1490.5,-6 1490.5,-25 1657.5,-25 1657.5,-6 1490.5,-6"/>
<text text-anchor="middle" x="1574" y="-13" font-family="Helvetica,sans-Serif" font-size="10.00" fill="#000000">FloodFilledImage.cpp</text>
</a>
</g>
</g>
<!-- Node4&#45;&gt;Node16 -->
<g id="edge21" class="edge">
<title>Node4&#45;&gt;Node16</title>
<path fill="none" stroke="#191970" d="M992.2586,-140.8838C1191.0895,-134.8125 1586.3156,-120.0346 1607,-98 1626.9546,-76.7429 1599.458,-41.9059 1583.6985,-25.1269"/>
<polygon fill="#191970" stroke="#191970" points="991.9579,-137.3912 982.0685,-141.1926 992.17,-144.388 991.9579,-137.3912"/>
</g>
<!-- Node17 -->
<g id="node14" class="node">
<title>Node17</title>
<g id="a_node14"><a xlink:href="FloodFilledImage_8h.html" target="_top" xlink:title="Definition for a class to do flood fill on an image.">
<polygon fill="none" stroke="#000000" points="1446,-73 1446,-92 1598,-92 1598,-73 1446,-73"/>
<text text-anchor="middle" x="1522" y="-80" font-family="Helvetica,sans-Serif" font-size="10.00" fill="#000000">FloodFilledImage.h</text>
</a>
</g>
</g>
<!-- Node4&#45;&gt;Node17 -->
<g id="edge22" class="edge">
<title>Node4&#45;&gt;Node17</title>
<path fill="none" stroke="#191970" d="M992.2928,-137.5281C1104.043,-130.409 1280.2917,-117.3473 1432,-98 1444.7394,-96.3753 1458.4273,-94.227 1471.1881,-92.0491"/>
<polygon fill="#191970" stroke="#191970" points="991.7774,-134.0536 982.0181,-138.1774 992.219,-141.0396 991.7774,-134.0536"/>
</g>
<!-- Node6&#45;&gt;Node5 -->
<g id="edge3" class="edge">
<title>Node6&#45;&gt;Node5</title>
<path fill="none" stroke="#191970" d="M176.3827,-62.0761C160.255,-51.9774 141.1242,-39.9983 126.303,-30.7177"/>
<polygon fill="#191970" stroke="#191970" points="174.6541,-65.1232 184.9871,-67.4639 178.3691,-59.1903 174.6541,-65.1232"/>
</g>
<!-- Node7 -->
<g id="node4" class="node">
<title>Node7</title>
<g id="a_node4"><a xlink:href="main_8cpp.html" target="_top" xlink:title=" ">
<polygon fill="none" stroke="#000000" points="797.5,-6 797.5,-25 874.5,-25 874.5,-6 797.5,-6"/>
<text text-anchor="middle" x="836" y="-13" font-family="Helvetica,sans-Serif" font-size="10.00" fill="#000000">main.cpp</text>
</a>
</g>
</g>
<!-- Node6&#45;&gt;Node7 -->
<g id="edge4" class="edge">
<title>Node6&#45;&gt;Node7</title>
<path fill="none" stroke="#191970" d="M321.127,-70.6507C333.5653,-69.3913 346.0502,-68.1513 358,-67 538.3175,-49.6277 584.8882,-58.1141 764,-31 774.8724,-29.3541 786.5654,-27.0648 797.3007,-24.7502"/>
<polygon fill="#191970" stroke="#191970" points="320.7671,-67.1692 311.1727,-71.6635 321.4757,-74.1332 320.7671,-67.1692"/>
</g>
<!-- Node9&#45;&gt;Node7 -->
<g id="edge8" class="edge">
<title>Node9&#45;&gt;Node7</title>
<path fill="none" stroke="#191970" d="M548.4775,-71.21C605.2972,-61.1251 690.2678,-45.7137 764,-31 774.7837,-28.8481 786.4475,-26.3927 797.1833,-24.0807"/>
<polygon fill="#191970" stroke="#191970" points="547.792,-67.7768 538.5559,-72.9676 549.0131,-74.6695 547.792,-67.7768"/>
</g>
<!-- Node9&#45;&gt;Node8 -->
<g id="edge7" class="edge">
<title>Node9&#45;&gt;Node8</title>
<path fill="none" stroke="#191970" d="M456.3115,-68.2298C431.0739,-55.2227 394.4893,-36.3676 372.5913,-25.0817"/>
<polygon fill="#191970" stroke="#191970" points="454.8818,-71.4304 465.3742,-72.9005 458.0887,-65.2082 454.8818,-71.4304"/>
</g>
<!-- Node11&#45;&gt;Node7 -->
<g id="edge12" class="edge">
<title>Node11&#45;&gt;Node7</title>
<path fill="none" stroke="#191970" d="M784.4266,-65.5785C797.6238,-52.7639 815.2775,-35.6218 826.1323,-25.0817"/>
<polygon fill="#191970" stroke="#191970" points="781.6221,-63.4232 776.886,-72.9005 786.4985,-68.4452 781.6221,-63.4232"/>
</g>
<!-- Node11&#45;&gt;Node10 -->
<g id="edge11" class="edge">
<title>Node11&#45;&gt;Node10</title>
<path fill="none" stroke="#191970" d="M739.5245,-68.2298C714.481,-55.2227 678.1779,-36.3676 656.4483,-25.0817"/>
<polygon fill="#191970" stroke="#191970" points="738.0298,-71.3973 748.5174,-72.9005 741.2563,-65.1852 738.0298,-71.3973"/>
</g>
<!-- Node13&#45;&gt;Node7 -->
<g id="edge16" class="edge">
<title>Node13&#45;&gt;Node7</title>
<path fill="none" stroke="#191970" d="M948.5345,-63.5243C919.1631,-50.99 881.9087,-35.0916 858.5047,-25.1039"/>
<polygon fill="#191970" stroke="#191970" points="947.1948,-66.7579 957.7661,-67.4639 949.9424,-60.3197 947.1948,-66.7579"/>
</g>
<!-- Node13&#45;&gt;Node12 -->
<g id="edge15" class="edge">
<title>Node13&#45;&gt;Node12</title>
<path fill="none" stroke="#191970" d="M998.6378,-57.3179C1000.6474,-48.3414 1002.8475,-38.5143 1004.6097,-30.6432"/>
<polygon fill="#191970" stroke="#191970" points="995.1731,-56.7735 996.4037,-67.2967 1002.004,-58.3029 995.1731,-56.7735"/>
</g>
<!-- Node15&#45;&gt;Node7 -->
<g id="edge20" class="edge">
<title>Node15&#45;&gt;Node7</title>
<path fill="none" stroke="#191970" d="M1172.9019,-71.7312C1098.1823,-62.7212 992.0934,-48.534 900,-31 891.1278,-29.3108 881.6367,-27.1881 872.7536,-25.0603"/>
<polygon fill="#191970" stroke="#191970" points="1172.8871,-75.2543 1183.2323,-72.9679 1173.7193,-68.3039 1172.8871,-75.2543"/>
</g>
<!-- Node15&#45;&gt;Node14 -->
<g id="edge19" class="edge">
<title>Node15&#45;&gt;Node14</title>
<path fill="none" stroke="#191970" d="M1272.2037,-62.9863C1274.249,-50.5286 1276.8107,-34.9258 1278.4269,-25.0817"/>
<polygon fill="#191970" stroke="#191970" points="1268.7425,-62.4656 1270.576,-72.9005 1275.65,-63.5997 1268.7425,-62.4656"/>
</g>
<!-- Node17&#45;&gt;Node7 -->
<g id="edge24" class="edge">
<title>Node17&#45;&gt;Node7</title>
<path fill="none" stroke="#191970" d="M1441.3325,-71.7099C1427.2367,-70.0031 1412.7019,-68.3566 1399,-67 1177.7277,-45.092 1119.6948,-65.2866 900,-31 890.3987,-29.5016 880.1177,-27.2894 870.6667,-25.0027"/>
<polygon fill="#191970" stroke="#191970" points="1441.1482,-75.2136 1451.5006,-72.9601 1442.0025,-68.2659 1441.1482,-75.2136"/>
</g>
<!-- Node17&#45;&gt;Node16 -->
<g id="edge23" class="edge">
<title>Node17&#45;&gt;Node16</title>
<path fill="none" stroke="#191970" d="M1535.6996,-64.8486C1545.579,-52.1194 1558.5374,-35.4229 1566.5635,-25.0817"/>
<polygon fill="#191970" stroke="#191970" points="1532.8166,-62.8547 1529.4503,-72.9005 1538.3466,-67.1466 1532.8166,-62.8547"/>
</g>
</g>
</svg>
        <g id="navigator" transform="translate(0 0)" fill="#404254">
                <rect fill="#f2f5e9" fill-opacity="0.5" stroke="#606060" stroke-width=".5" x="0" y="0" width="60" height="60"/>
                <use id="zoomplus" xlink:href="#zoomPlus" x="17" y="9" onmousedown="handleZoom(evt,'in')"/>
                <use id="zoomminus" xlink:href="#zoomMin" x="42" y="9" onmousedown="handleZoom(evt,'out')"/>
                <use id="reset" xlink:href="#resetDef" x="30" y="36" onmousedown="handleReset()"/>
                <g id="arrowUp" xlink:href="#dirArrow" transform="translate(30 24)" onmousedown="handlePan(0,-1)">
                  <use xlink:href="#rim" fill="#404040">
                        <set attributeName="fill" to="#808080" begin="arrowUp.mouseover" end="arrowUp.mouseout"/>
                  </use>
                  <path fill="none" stroke="white" stroke-width="1.5" d="M0,-3.0v7 M-2.5,-0.5L0,-3.0L2.5,-0.5"/>
                </g>
                <g id="arrowRight" xlink:href="#dirArrow" transform="rotate(90) translate(36 -43)" onmousedown="handlePan(1,0)">
                  <use xlink:href="#rim" fill="#404040">
                        <set attributeName="fill" to="#808080" begin="arrowRight.mouseover" end="arrowRight.mouseout"/>
                  </use>
                  <path fill="none" stroke="white" stroke-width="1.5" d="M0,-3.0v7 M-2.5,-0.5L0,-3.0L2.5,-0.5"/>
                </g>
                <g id="arrowDown" xlink:href="#dirArrow" transform="rotate(180) translate(-30 -48)" onmousedown="handlePan(0,1)">
                  <use xlink:href="#rim" fill="#404040">
                        <set attributeName="fill" to="#808080" begin="arrowDown.mouseover" end="arrowDown.mouseout"/>
                  </use>
                  <path fill="none" stroke="white" stroke-width="1.5" d="M0,-3.0v7 M-2.5,-0.5L0,-3.0L2.5,-0.5"/>
                </g>
                <g id="arrowLeft" xlink:href="#dirArrow" transform="rotate(270) translate(-36 17)" onmousedown="handlePan(-1,0)">
                  <use xlink:href="#rim" fill="#404040">
                        <set attributeName="fill" to="#808080" begin="arrowLeft.mouseover" end="arrowLeft.mouseout"/>
                  </use>
                  <path fill="none" stroke="white" stroke-width="1.5" d="M0,-3.0v7 M-2.5,-0.5L0,-3.0L2.5,-0.5"/>
                </g>
        </g>
        <svg viewBox="0 0 15 15" width="100%" height="30px" preserveAspectRatio="xMaxYMin meet">
         <g id="arrow_out" transform="scale(0.3 0.3)">
          <a xlink:href="ColorPicker_8h__dep__incl_org.svg" target="_base">
           <rect id="button" ry="5" rx="5" y="6" x="6" height="38" width="38"
                fill="#f2f5e9" fill-opacity="0.5" stroke="#606060" stroke-width="1.0"/>
           <path id="arrow"
             d="M 11.500037,31.436501 C 11.940474,20.09759 22.043105,11.32322 32.158766,21.979434 L 37.068811,17.246167 C 37.068811,17.246167 37.088388,32 37.088388,32 L 22.160133,31.978069 C 22.160133,31.978069 26.997745,27.140456 26.997745,27.140456 C 18.528582,18.264221 13.291696,25.230495 11.500037,31.436501 z"
             style="fill:#404040;"/>
          </a>
         </g>
        </svg>
</svg>
