<?xml version="1.0" encoding="UTF-8" standalone="no"?>
<!DOCTYPE svg PUBLIC "-//W3C//DTD SVG 1.1//EN"
 "http://www.w3.org/Graphics/SVG/1.1/DTD/svg11.dtd">
<!-- Generated by graphviz version 2.40.1 (0)
 -->
<!-- Title: imageTraversal/DFS.h Pages: 1 -->
<svg width="477pt" height="252pt"
 viewBox="0.00 0.00 477.00 252.00" xmlns="http://www.w3.org/2000/svg" xmlns:xlink="http://www.w3.org/1999/xlink">
<g id="graph0" class="graph" transform="scale(1 1) rotate(0) translate(4 248)">
<title>imageTraversal/DFS.h</title>
<!-- Node0 -->
<g id="node1" class="node">
<title>Node0</title>
<g id="a_node1"><a xlink:title=" ">
<polygon fill="#bfbfbf" stroke="#000000" points="165.5,-224.5 165.5,-243.5 332.5,-243.5 332.5,-224.5 165.5,-224.5"/>
<text text-anchor="middle" x="249" y="-231.5" font-family="Helvetica,sans-Serif" font-size="10.00" fill="#000000">imageTraversal/DFS.h</text>
</a>
</g>
</g>
<!-- Node1 -->
<g id="node2" class="node">
<title>Node1</title>
<g id="a_node2"><a xlink:title=" ">
<polygon fill="none" stroke="#bfbfbf" points="16.5,-112.5 16.5,-131.5 93.5,-131.5 93.5,-112.5 16.5,-112.5"/>
<text text-anchor="middle" x="55" y="-119.5" font-family="Helvetica,sans-Serif" font-size="10.00" fill="#000000">iterator</text>
</a>
</g>
</g>
<!-- Node0&#45;&gt;Node1 -->
<g id="edge1" class="edge">
<title>Node0&#45;&gt;Node1</title>
<path fill="none" stroke="#191970" d="M187.5643,-224.4493C143.898,-216.4726 90.2345,-203.8612 74,-188 61.6306,-175.915 57.1783,-156.34 55.6426,-141.6403"/>
<polygon fill="#191970" stroke="#191970" points="59.1271,-141.2928 54.9539,-131.5545 52.1434,-141.7698 59.1271,-141.2928"/>
</g>
<!-- Node2 -->
<g id="node3" class="node">
<title>Node2</title>
<g id="a_node3"><a xlink:title=" ">
<polygon fill="none" stroke="#bfbfbf" points="277,-168.5 277,-187.5 331,-187.5 331,-168.5 277,-168.5"/>
<text text-anchor="middle" x="304" y="-175.5" font-family="Helvetica,sans-Serif" font-size="10.00" fill="#000000">cmath</text>
</a>
</g>
</g>
<!-- Node0&#45;&gt;Node2 -->
<g id="edge2" class="edge">
<title>Node0&#45;&gt;Node2</title>
<path fill="none" stroke="#191970" d="M258.5803,-224.2455C266.5458,-216.1352 278.0641,-204.4075 287.5079,-194.7919"/>
<polygon fill="#191970" stroke="#191970" points="290.0195,-197.2297 294.5295,-187.6427 285.0253,-192.3247 290.0195,-197.2297"/>
</g>
<!-- Node3 -->
<g id="node4" class="node">
<title>Node3</title>
<g id="a_node4"><a xlink:title=" ">
<polygon fill="none" stroke="#bfbfbf" points="349.5,-168.5 349.5,-187.5 396.5,-187.5 396.5,-168.5 349.5,-168.5"/>
<text text-anchor="middle" x="373" y="-175.5" font-family="Helvetica,sans-Serif" font-size="10.00" fill="#000000">list</text>
</a>
</g>
</g>
<!-- Node0&#45;&gt;Node3 -->
<g id="edge3" class="edge">
<title>Node0&#45;&gt;Node3</title>
<path fill="none" stroke="#191970" d="M270.3164,-224.3733C290.2216,-215.3838 320.1436,-201.8706 342.56,-191.7471"/>
<polygon fill="#191970" stroke="#191970" points="344.2887,-194.8068 351.9618,-187.5011 341.4075,-188.4272 344.2887,-194.8068"/>
</g>
<!-- Node4 -->
<g id="node5" class="node">
<title>Node4</title>
<g id="a_node5"><a xlink:title=" ">
<polygon fill="none" stroke="#bfbfbf" points="415,-168.5 415,-187.5 469,-187.5 469,-168.5 415,-168.5"/>
<text text-anchor="middle" x="442" y="-175.5" font-family="Helvetica,sans-Serif" font-size="10.00" fill="#000000">stack</text>
</a>
</g>
</g>
<!-- Node0&#45;&gt;Node4 -->
<g id="edge4" class="edge">
<title>Node0&#45;&gt;Node4</title>
<path fill="none" stroke="#191970" d="M282.1779,-224.3733C316.3144,-214.4684 369.3785,-199.0715 404.8884,-188.7681"/>
<polygon fill="#191970" stroke="#191970" points="406.2274,-192.024 414.8559,-185.876 404.2767,-185.3013 406.2274,-192.024"/>
</g>
<!-- Node5 -->
<g id="node6" class="node">
<title>Node5</title>
<g id="a_node6"><a xlink:href="PNG_8h.html" target="_top" xlink:title=" ">
<polygon fill="none" stroke="#000000" points="188,-112.5 188,-131.5 310,-131.5 310,-112.5 188,-112.5"/>
<text text-anchor="middle" x="249" y="-119.5" font-family="Helvetica,sans-Serif" font-size="10.00" fill="#000000">../cs225/PNG.h</text>
</a>
</g>
</g>
<!-- Node0&#45;&gt;Node5 -->
<g id="edge5" class="edge">
<title>Node0&#45;&gt;Node5</title>
<path fill="none" stroke="#191970" d="M249,-224.4509C249,-206.184 249,-165.9553 249,-141.6976"/>
<polygon fill="#191970" stroke="#191970" points="252.5001,-141.5249 249,-131.5249 245.5001,-141.5249 252.5001,-141.5249"/>
</g>
<!-- Node10 -->
<g id="node11" class="node">
<title>Node10</title>
<g id="a_node11"><a xlink:href="Point_8h.html" target="_top" xlink:title="every 2D point of the image is represented by a Point class you need to trverse all the points of the...">
<polygon fill="none" stroke="#000000" points="0,-56.5 0,-75.5 92,-75.5 92,-56.5 0,-56.5"/>
<text text-anchor="middle" x="46" y="-63.5" font-family="Helvetica,sans-Serif" font-size="10.00" fill="#000000">../Point.h</text>
</a>
</g>
</g>
<!-- Node0&#45;&gt;Node10 -->
<g id="edge10" class="edge">
<title>Node0&#45;&gt;Node10</title>
<path fill="none" stroke="#191970" d="M165.0506,-224.5055C130.4614,-217.9178 91.0652,-206.7865 59,-188 29.6949,-170.8306 19.4146,-163.6142 7,-132 .0053,-114.1879 13.1701,-95.5645 26.0558,-82.66"/>
<polygon fill="#191970" stroke="#191970" points="28.5206,-85.1473 33.456,-75.7722 23.7514,-80.0233 28.5206,-85.1473"/>
</g>
<!-- Node11 -->
<g id="node12" class="node">
<title>Node11</title>
<g id="a_node12"><a xlink:href="ImageTraversal_8h.html" target="_top" xlink:title=" ">
<polygon fill="none" stroke="#000000" points="83.5,-168.5 83.5,-187.5 220.5,-187.5 220.5,-168.5 83.5,-168.5"/>
<text text-anchor="middle" x="152" y="-175.5" font-family="Helvetica,sans-Serif" font-size="10.00" fill="#000000">ImageTraversal.h</text>
</a>
</g>
</g>
<!-- Node0&#45;&gt;Node11 -->
<g id="edge13" class="edge">
<title>Node0&#45;&gt;Node11</title>
<path fill="none" stroke="#191970" d="M232.1039,-224.2455C217.082,-215.5731 194.8957,-202.7645 177.679,-192.825"/>
<polygon fill="#191970" stroke="#191970" points="179.1128,-189.6114 168.7025,-187.6427 175.6129,-195.6737 179.1128,-189.6114"/>
</g>
<!-- Node6 -->
<g id="node7" class="node">
<title>Node6</title>
<g id="a_node7"><a xlink:title=" ">
<polygon fill="none" stroke="#bfbfbf" points="228,-56.5 228,-75.5 290,-75.5 290,-56.5 228,-56.5"/>
<text text-anchor="middle" x="259" y="-63.5" font-family="Helvetica,sans-Serif" font-size="10.00" fill="#000000">string</text>
</a>
</g>
</g>
<!-- Node5&#45;&gt;Node6 -->
<g id="edge6" class="edge">
<title>Node5&#45;&gt;Node6</title>
<path fill="none" stroke="#191970" d="M250.7419,-112.2455C252.0467,-104.9382 253.876,-94.6944 255.4813,-85.7046"/>
<polygon fill="#191970" stroke="#191970" points="258.9656,-86.1022 257.2781,-75.6427 252.0746,-84.8717 258.9656,-86.1022"/>
</g>
<!-- Node7 -->
<g id="node8" class="node">
<title>Node7</title>
<g id="a_node8"><a xlink:href="HSLAPixel_8h.html" target="_top" xlink:title=" ">
<polygon fill="none" stroke="#000000" points="110.5,-56.5 110.5,-75.5 209.5,-75.5 209.5,-56.5 110.5,-56.5"/>
<text text-anchor="middle" x="160" y="-63.5" font-family="Helvetica,sans-Serif" font-size="10.00" fill="#000000">HSLAPixel.h</text>
</a>
</g>
</g>
<!-- Node5&#45;&gt;Node7 -->
<g id="edge7" class="edge">
<title>Node5&#45;&gt;Node7</title>
<path fill="none" stroke="#191970" d="M233.4974,-112.2455C219.842,-103.6534 199.7343,-91.0014 184.0011,-81.1018"/>
<polygon fill="#191970" stroke="#191970" points="185.6529,-78.006 175.325,-75.6427 181.9249,-83.9307 185.6529,-78.006"/>
</g>
<!-- Node8 -->
<g id="node9" class="node">
<title>Node8</title>
<g id="a_node9"><a xlink:title=" ">
<polygon fill="none" stroke="#bfbfbf" points="115.5,-.5 115.5,-19.5 192.5,-19.5 192.5,-.5 115.5,-.5"/>
<text text-anchor="middle" x="154" y="-7.5" font-family="Helvetica,sans-Serif" font-size="10.00" fill="#000000">iostream</text>
</a>
</g>
</g>
<!-- Node7&#45;&gt;Node8 -->
<g id="edge8" class="edge">
<title>Node7&#45;&gt;Node8</title>
<path fill="none" stroke="#191970" d="M158.9549,-56.2455C158.172,-48.9382 157.0744,-38.6944 156.1112,-29.7046"/>
<polygon fill="#191970" stroke="#191970" points="159.5786,-29.2129 155.0331,-19.6427 152.6185,-29.9587 159.5786,-29.2129"/>
</g>
<!-- Node9 -->
<g id="node10" class="node">
<title>Node9</title>
<g id="a_node10"><a xlink:title=" ">
<polygon fill="none" stroke="#bfbfbf" points="22.5,-.5 22.5,-19.5 91.5,-19.5 91.5,-.5 22.5,-.5"/>
<text text-anchor="middle" x="57" y="-7.5" font-family="Helvetica,sans-Serif" font-size="10.00" fill="#000000">sstream</text>
</a>
</g>
</g>
<!-- Node7&#45;&gt;Node9 -->
<g id="edge9" class="edge">
<title>Node7&#45;&gt;Node9</title>
<path fill="none" stroke="#191970" d="M142.0588,-56.2455C125.96,-47.4928 102.1121,-34.527 83.7609,-24.5496"/>
<polygon fill="#191970" stroke="#191970" points="85.1929,-21.3444 74.7356,-19.6427 81.8493,-27.4942 85.1929,-21.3444"/>
</g>
<!-- Node10&#45;&gt;Node8 -->
<g id="edge11" class="edge">
<title>Node10&#45;&gt;Node8</title>
<path fill="none" stroke="#191970" d="M64.8122,-56.2455C81.8473,-47.4125 107.1575,-34.2887 126.4681,-24.2758"/>
<polygon fill="#191970" stroke="#191970" points="128.137,-27.353 135.4034,-19.6427 124.9147,-21.1388 128.137,-27.353"/>
</g>
<!-- Node10&#45;&gt;Node9 -->
<g id="edge12" class="edge">
<title>Node10&#45;&gt;Node9</title>
<path fill="none" stroke="#191970" d="M47.9161,-56.2455C49.3514,-48.9382 51.3636,-38.6944 53.1295,-29.7046"/>
<polygon fill="#191970" stroke="#191970" points="56.6127,-30.1298 55.1059,-19.6427 49.744,-28.7805 56.6127,-30.1298"/>
</g>
<!-- Node11&#45;&gt;Node1 -->
<g id="edge14" class="edge">
<title>Node11&#45;&gt;Node1</title>
<path fill="none" stroke="#191970" d="M135.1039,-168.2455C120.082,-159.5731 97.8957,-146.7645 80.679,-136.825"/>
<polygon fill="#191970" stroke="#191970" points="82.1128,-133.6114 71.7025,-131.6427 78.6129,-139.6737 82.1128,-133.6114"/>
</g>
<!-- Node11&#45;&gt;Node5 -->
<g id="edge16" class="edge">
<title>Node11&#45;&gt;Node5</title>
<path fill="none" stroke="#191970" d="M168.8961,-168.2455C183.918,-159.5731 206.1043,-146.7645 223.321,-136.825"/>
<polygon fill="#191970" stroke="#191970" points="225.3871,-139.6737 232.2975,-131.6427 221.8872,-133.6114 225.3871,-139.6737"/>
</g>
<!-- Node11&#45;&gt;Node7 -->
<g id="edge15" class="edge">
<title>Node11&#45;&gt;Node7</title>
<path fill="none" stroke="#191970" d="M152.6821,-168.4509C153.9869,-150.184 156.8603,-109.9553 158.593,-85.6976"/>
<polygon fill="#191970" stroke="#191970" points="162.0982,-85.7489 159.3197,-75.5249 155.116,-85.2501 162.0982,-85.7489"/>
</g>
<!-- Node11&#45;&gt;Node10 -->
<g id="edge17" class="edge">
<title>Node11&#45;&gt;Node10</title>
<path fill="none" stroke="#191970" d="M145.8423,-168.4896C136.9796,-155.1487 119.7339,-130.4457 102,-112 91.5416,-101.1218 78.5909,-90.3397 67.7789,-81.9514"/>
<polygon fill="#191970" stroke="#191970" points="69.7354,-79.0423 59.6549,-75.7813 65.5015,-84.6168 69.7354,-79.0423"/>
</g>
</g>
</svg>
