<?xml version="1.0" encoding="UTF-8" standalone="no"?>
<!DOCTYPE svg PUBLIC "-//W3C//DTD SVG 1.1//EN"
 "http://www.w3.org/Graphics/SVG/1.1/DTD/svg11.dtd">
<!-- Generated by graphviz version 2.40.1 (0)
 -->
<!-- Title: imageTraversal/DFS.cpp Pages: 1 -->
<!--zoomable 308 -->
<svg id="main" version="1.1" xmlns="http://www.w3.org/2000/svg" xmlns:xlink="http://www.w3.org/1999/xlink" xml:space="preserve" onload="init(evt)">
<style type="text/css"><![CDATA[
.edge:hover path { stroke: red; }
.edge:hover polygon { stroke: red; fill: red; }
]]></style>
<script type="text/javascript"><![CDATA[
var edges = document.getElementsByTagName('g');
if (edges && edges.length) {
  for (var i=0;i<edges.length;i++) {
    if (edges[i].id.substr(0,4)=='edge') {
      edges[i].setAttribute('class','edge');
    }
  }
}
]]></script>
        <defs>
                <circle id="rim" cx="0" cy="0" r="7"/>
                <circle id="rim2" cx="0" cy="0" r="3.5"/>
                <g id="zoomPlus">
                        <use xlink:href="#rim" fill="#404040">
                                <set attributeName="fill" to="#808080" begin="zoomplus.mouseover" end="zoomplus.mouseout"/>
                        </use>
                        <path d="M-4,0h8M0,-4v8" fill="none" stroke="white" stroke-width="1.5" pointer-events="none"/>
                </g>
                <g id="zoomMin">
                        <use xlink:href="#rim" fill="#404040">
                                <set attributeName="fill" to="#808080" begin="zoomminus.mouseover" end="zoomminus.mouseout"/>
                        </use>
                        <path d="M-4,0h8" fill="none" stroke="white" stroke-width="1.5" pointer-events="none"/>
                </g>
                <g id="dirArrow">
                        <path fill="none" stroke="white" stroke-width="1.5" d="M0,-3.0v7 M-2.5,-0.5L0,-3.0L2.5,-0.5"/>
                </g>
               <g id="resetDef">
                       <use xlink:href="#rim2" fill="#404040">
                               <set attributeName="fill" to="#808080" begin="reset.mouseover" end="reset.mouseout"/>
                       </use>
               </g>
        </defs>

<script type="text/javascript">
var viewWidth = 596;
var viewHeight = 308;
var sectionId = 'dynsection-0';
</script>
<script xlink:href="svgpan.js"/>
<svg id="graph" class="graph">
<g id="viewport">
<title>imageTraversal/DFS.cpp</title>
<!-- Node0 -->
<g id="node1" class="node">
<title>Node0</title>
<g id="a_node1"><a xlink:title=" ">
<polygon fill="#bfbfbf" stroke="#000000" points="112.6386,-280.5 112.6386,-299.5 294.6386,-299.5 294.6386,-280.5 112.6386,-280.5"/>
<text text-anchor="middle" x="203.6386" y="-287.5" font-family="Helvetica,sans-Serif" font-size="10.00" fill="#000000">imageTraversal/DFS.cpp</text>
</a>
</g>
</g>
<!-- Node1 -->
<g id="node2" class="node">
<title>Node1</title>
<g id="a_node2"><a xlink:title=" ">
<polygon fill="none" stroke="#bfbfbf" points="339.1386,-112.5 339.1386,-131.5 416.1386,-131.5 416.1386,-112.5 339.1386,-112.5"/>
<text text-anchor="middle" x="377.6386" y="-119.5" font-family="Helvetica,sans-Serif" font-size="10.00" fill="#000000">iterator</text>
</a>
</g>
</g>
<!-- Node0&#45;&gt;Node1 -->
<g id="edge1" class="edge">
<title>Node0&#45;&gt;Node1</title>
<path fill="none" stroke="#191970" d="M248.2071,-280.4809C284.5886,-271.8484 332.1131,-258.3158 345.6386,-244 349.202,-240.2283 365.0352,-175.1434 373.0124,-141.6195"/>
<polygon fill="#191970" stroke="#191970" points="376.4878,-142.1322 375.3875,-131.5946 369.6764,-140.5184 376.4878,-142.1322"/>
</g>
<!-- Node2 -->
<g id="node3" class="node">
<title>Node2</title>
<g id="a_node3"><a xlink:title=" ">
<polygon fill="none" stroke="#bfbfbf" points="19.6386,-168.5 19.6386,-187.5 73.6386,-187.5 73.6386,-168.5 19.6386,-168.5"/>
<text text-anchor="middle" x="46.6386" y="-175.5" font-family="Helvetica,sans-Serif" font-size="10.00" fill="#000000">cmath</text>
</a>
</g>
</g>
<!-- Node0&#45;&gt;Node2 -->
<g id="edge2" class="edge">
<title>Node0&#45;&gt;Node2</title>
<path fill="none" stroke="#191970" d="M148.3111,-280.4572C123.5801,-273.7897 95.5777,-262.6088 75.6386,-244 62.5142,-231.7513 54.9928,-212.5086 50.916,-197.9547"/>
<polygon fill="#191970" stroke="#191970" points="54.2353,-196.7982 48.434,-187.9328 47.4406,-198.4809 54.2353,-196.7982"/>
</g>
<!-- Node3 -->
<g id="node4" class="node">
<title>Node3</title>
<g id="a_node4"><a xlink:title=" ">
<polygon fill="none" stroke="#bfbfbf" points="109.1386,-168.5 109.1386,-187.5 156.1386,-187.5 156.1386,-168.5 109.1386,-168.5"/>
<text text-anchor="middle" x="132.6386" y="-175.5" font-family="Helvetica,sans-Serif" font-size="10.00" fill="#000000">list</text>
</a>
</g>
</g>
<!-- Node0&#45;&gt;Node3 -->
<g id="edge3" class="edge">
<title>Node0&#45;&gt;Node3</title>
<path fill="none" stroke="#191970" d="M165.6897,-280.4828C134.2837,-271.7482 93.3094,-258.0642 83.6386,-244 71.5476,-226.4163 90.2993,-206.8562 107.988,-193.6278"/>
<polygon fill="#191970" stroke="#191970" points="110.2804,-196.2945 116.4464,-187.6788 106.2534,-190.5688 110.2804,-196.2945"/>
</g>
<!-- Node4 -->
<g id="node5" class="node">
<title>Node4</title>
<g id="a_node5"><a xlink:title=" ">
<polygon fill="none" stroke="#bfbfbf" points="92.6386,-224.5 92.6386,-243.5 146.6386,-243.5 146.6386,-224.5 92.6386,-224.5"/>
<text text-anchor="middle" x="119.6386" y="-231.5" font-family="Helvetica,sans-Serif" font-size="10.00" fill="#000000">queue</text>
</a>
</g>
</g>
<!-- Node0&#45;&gt;Node4 -->
<g id="edge4" class="edge">
<title>Node0&#45;&gt;Node4</title>
<path fill="none" stroke="#191970" d="M189.0069,-280.2455C176.2391,-271.7337 157.4948,-259.2375 142.7087,-249.3801"/>
<polygon fill="#191970" stroke="#191970" points="144.3645,-246.2775 134.1026,-243.6427 140.4816,-252.1019 144.3645,-246.2775"/>
</g>
<!-- Node5 -->
<g id="node6" class="node">
<title>Node5</title>
<g id="a_node6"><a xlink:title=" ">
<polygon fill="none" stroke="#bfbfbf" points="183.6386,-168.5 183.6386,-187.5 237.6386,-187.5 237.6386,-168.5 183.6386,-168.5"/>
<text text-anchor="middle" x="210.6386" y="-175.5" font-family="Helvetica,sans-Serif" font-size="10.00" fill="#000000">stack</text>
</a>
</g>
</g>
<!-- Node0&#45;&gt;Node5 -->
<g id="edge5" class="edge">
<title>Node0&#45;&gt;Node5</title>
<path fill="none" stroke="#191970" d="M200.125,-280.1331C195.9837,-267.2068 190.088,-243.85 193.6386,-224 195.2829,-214.8071 198.6391,-205.047 201.9383,-196.8935"/>
<polygon fill="#191970" stroke="#191970" points="205.205,-198.1569 205.9537,-187.5885 198.7779,-195.3833 205.205,-198.1569"/>
</g>
<!-- Node6 -->
<g id="node7" class="node">
<title>Node6</title>
<g id="a_node7"><a xlink:title=" ">
<polygon fill="none" stroke="#bfbfbf" points="202.6386,-224.5 202.6386,-243.5 264.6386,-243.5 264.6386,-224.5 202.6386,-224.5"/>
<text text-anchor="middle" x="233.6386" y="-231.5" font-family="Helvetica,sans-Serif" font-size="10.00" fill="#000000">vector</text>
</a>
</g>
</g>
<!-- Node0&#45;&gt;Node6 -->
<g id="edge6" class="edge">
<title>Node0&#45;&gt;Node6</title>
<path fill="none" stroke="#191970" d="M208.8642,-280.2455C212.9509,-272.617 218.7521,-261.7881 223.7135,-252.5267"/>
<polygon fill="#191970" stroke="#191970" points="226.8358,-254.1103 228.4728,-243.6427 220.6654,-250.8047 226.8358,-254.1103"/>
</g>
<!-- Node7 -->
<g id="node8" class="node">
<title>Node7</title>
<g id="a_node8"><a xlink:href="PNG_8h.html" target="_top" xlink:title=" ">
<polygon fill="none" stroke="#000000" points="198.6386,-112.5 198.6386,-131.5 320.6386,-131.5 320.6386,-112.5 198.6386,-112.5"/>
<text text-anchor="middle" x="259.6386" y="-119.5" font-family="Helvetica,sans-Serif" font-size="10.00" fill="#000000">../cs225/PNG.h</text>
</a>
</g>
</g>
<!-- Node0&#45;&gt;Node7 -->
<g id="edge7" class="edge">
<title>Node0&#45;&gt;Node7</title>
<path fill="none" stroke="#191970" d="M158.2315,-280.4715C87.3938,-263.6043 -36.6508,-224.8257 10.6386,-168 32.893,-141.2577 122.8164,-129.9994 188.2232,-125.301"/>
<polygon fill="#191970" stroke="#191970" points="188.7567,-128.7729 198.4959,-124.6019 188.2813,-121.789 188.7567,-128.7729"/>
</g>
<!-- Node12 -->
<g id="node13" class="node">
<title>Node12</title>
<g id="a_node13"><a xlink:href="Point_8h.html" target="_top" xlink:title="every 2D point of the image is represented by a Point class you need to trverse all the points of the...">
<polygon fill="none" stroke="#000000" points="495.6386,-112.5 495.6386,-131.5 587.6386,-131.5 587.6386,-112.5 495.6386,-112.5"/>
<text text-anchor="middle" x="541.6386" y="-119.5" font-family="Helvetica,sans-Serif" font-size="10.00" fill="#000000">../Point.h</text>
</a>
</g>
</g>
<!-- Node0&#45;&gt;Node12 -->
<g id="edge12" class="edge">
<title>Node0&#45;&gt;Node12</title>
<path fill="none" stroke="#191970" d="M267.7507,-280.4482C357.1624,-265.6043 511.8431,-233.8567 542.6386,-188 551.6119,-174.638 550.4379,-156.0713 547.55,-142.033"/>
<polygon fill="#191970" stroke="#191970" points="550.8461,-140.7856 545.0277,-131.9314 544.0546,-142.4814 550.8461,-140.7856"/>
</g>
<!-- Node13 -->
<g id="node14" class="node">
<title>Node13</title>
<g id="a_node14"><a xlink:href="ImageTraversal_8h.html" target="_top" xlink:title=" ">
<polygon fill="none" stroke="#000000" points="376.1386,-168.5 376.1386,-187.5 513.1386,-187.5 513.1386,-168.5 376.1386,-168.5"/>
<text text-anchor="middle" x="444.6386" y="-175.5" font-family="Helvetica,sans-Serif" font-size="10.00" fill="#000000">ImageTraversal.h</text>
</a>
</g>
</g>
<!-- Node0&#45;&gt;Node13 -->
<g id="edge15" class="edge">
<title>Node0&#45;&gt;Node13</title>
<path fill="none" stroke="#191970" d="M272.9227,-280.4864C306.4632,-273.7681 346.356,-262.5361 378.6386,-244 400.0185,-231.724 419.2969,-210.7286 431.4205,-195.7134"/>
<polygon fill="#191970" stroke="#191970" points="434.3006,-197.7117 437.6936,-187.6749 428.7821,-193.4052 434.3006,-197.7117"/>
</g>
<!-- Node14 -->
<g id="node15" class="node">
<title>Node14</title>
<g id="a_node15"><a xlink:href="DFS_8h.html" target="_top" xlink:title=" ">
<polygon fill="none" stroke="#000000" points="282.6386,-224.5 282.6386,-243.5 336.6386,-243.5 336.6386,-224.5 282.6386,-224.5"/>
<text text-anchor="middle" x="309.6386" y="-231.5" font-family="Helvetica,sans-Serif" font-size="10.00" fill="#000000">DFS.h</text>
</a>
</g>
</g>
<!-- Node0&#45;&gt;Node14 -->
<g id="edge20" class="edge">
<title>Node0&#45;&gt;Node14</title>
<path fill="none" stroke="#191970" d="M222.1023,-280.2455C238.746,-271.4527 263.4379,-258.4079 282.3577,-248.4125"/>
<polygon fill="#191970" stroke="#191970" points="284.1793,-251.4086 291.3863,-243.6427 280.9095,-245.2193 284.1793,-251.4086"/>
</g>
<!-- Node8 -->
<g id="node9" class="node">
<title>Node8</title>
<g id="a_node9"><a xlink:title=" ">
<polygon fill="none" stroke="#bfbfbf" points="228.6386,-56.5 228.6386,-75.5 290.6386,-75.5 290.6386,-56.5 228.6386,-56.5"/>
<text text-anchor="middle" x="259.6386" y="-63.5" font-family="Helvetica,sans-Serif" font-size="10.00" fill="#000000">string</text>
</a>
</g>
</g>
<!-- Node7&#45;&gt;Node8 -->
<g id="edge8" class="edge">
<title>Node7&#45;&gt;Node8</title>
<path fill="none" stroke="#191970" d="M259.6386,-112.2455C259.6386,-104.9382 259.6386,-94.6944 259.6386,-85.7046"/>
<polygon fill="#191970" stroke="#191970" points="263.1387,-85.6426 259.6386,-75.6427 256.1387,-85.6427 263.1387,-85.6426"/>
</g>
<!-- Node9 -->
<g id="node10" class="node">
<title>Node9</title>
<g id="a_node10"><a xlink:href="HSLAPixel_8h.html" target="_top" xlink:title=" ">
<polygon fill="none" stroke="#000000" points="385.1386,-56.5 385.1386,-75.5 484.1386,-75.5 484.1386,-56.5 385.1386,-56.5"/>
<text text-anchor="middle" x="434.6386" y="-63.5" font-family="Helvetica,sans-Serif" font-size="10.00" fill="#000000">HSLAPixel.h</text>
</a>
</g>
</g>
<!-- Node7&#45;&gt;Node9 -->
<g id="edge9" class="edge">
<title>Node7&#45;&gt;Node9</title>
<path fill="none" stroke="#191970" d="M289.7221,-112.3733C318.822,-103.0613 363.0909,-88.8953 395.0416,-78.671"/>
<polygon fill="#191970" stroke="#191970" points="396.49,-81.8824 404.9475,-75.5011 394.3566,-75.2155 396.49,-81.8824"/>
</g>
<!-- Node10 -->
<g id="node11" class="node">
<title>Node10</title>
<g id="a_node11"><a xlink:title=" ">
<polygon fill="none" stroke="#bfbfbf" points="408.1386,-.5 408.1386,-19.5 485.1386,-19.5 485.1386,-.5 408.1386,-.5"/>
<text text-anchor="middle" x="446.6386" y="-7.5" font-family="Helvetica,sans-Serif" font-size="10.00" fill="#000000">iostream</text>
</a>
</g>
</g>
<!-- Node9&#45;&gt;Node10 -->
<g id="edge10" class="edge">
<title>Node9&#45;&gt;Node10</title>
<path fill="none" stroke="#191970" d="M436.7288,-56.2455C438.2946,-48.9382 440.4898,-38.6944 442.4161,-29.7046"/>
<polygon fill="#191970" stroke="#191970" points="445.8992,-30.1541 444.5723,-19.6427 439.0546,-28.6873 445.8992,-30.1541"/>
</g>
<!-- Node11 -->
<g id="node12" class="node">
<title>Node11</title>
<g id="a_node12"><a xlink:title=" ">
<polygon fill="none" stroke="#bfbfbf" points="509.1386,-.5 509.1386,-19.5 578.1386,-19.5 578.1386,-.5 509.1386,-.5"/>
<text text-anchor="middle" x="543.6386" y="-7.5" font-family="Helvetica,sans-Serif" font-size="10.00" fill="#000000">sstream</text>
</a>
</g>
</g>
<!-- Node9&#45;&gt;Node11 -->
<g id="edge11" class="edge">
<title>Node9&#45;&gt;Node11</title>
<path fill="none" stroke="#191970" d="M453.6249,-56.2455C470.8178,-47.4125 496.3623,-34.2887 515.8518,-24.2758"/>
<polygon fill="#191970" stroke="#191970" points="517.5744,-27.3257 524.8698,-19.6427 514.3755,-21.0993 517.5744,-27.3257"/>
</g>
<!-- Node12&#45;&gt;Node10 -->
<g id="edge13" class="edge">
<title>Node12&#45;&gt;Node10</title>
<path fill="none" stroke="#191970" d="M535.2814,-112.2208C526.5141,-98.9892 509.9394,-74.8703 493.6386,-56 484.7486,-45.7088 473.9567,-35.036 464.9572,-26.5646"/>
<polygon fill="#191970" stroke="#191970" points="467.3173,-23.9799 457.6027,-19.7516 462.5601,-29.1151 467.3173,-23.9799"/>
</g>
<!-- Node12&#45;&gt;Node11 -->
<g id="edge14" class="edge">
<title>Node12&#45;&gt;Node11</title>
<path fill="none" stroke="#191970" d="M541.8091,-112.4509C542.1353,-94.184 542.8536,-53.9553 543.2868,-29.6976"/>
<polygon fill="#191970" stroke="#191970" points="546.7893,-29.5858 543.4685,-19.5249 539.7904,-29.4608 546.7893,-29.5858"/>
</g>
<!-- Node13&#45;&gt;Node1 -->
<g id="edge16" class="edge">
<title>Node13&#45;&gt;Node1</title>
<path fill="none" stroke="#191970" d="M432.968,-168.2455C423.0725,-159.9746 408.6759,-147.9416 397.0485,-138.2232"/>
<polygon fill="#191970" stroke="#191970" points="399.0928,-135.3703 389.1753,-131.6427 394.6036,-140.7413 399.0928,-135.3703"/>
</g>
<!-- Node13&#45;&gt;Node7 -->
<g id="edge18" class="edge">
<title>Node13&#45;&gt;Node7</title>
<path fill="none" stroke="#191970" d="M412.8359,-168.3733C381.8069,-158.9807 334.4631,-144.6496 300.6238,-134.4064"/>
<polygon fill="#191970" stroke="#191970" points="301.6114,-131.0485 291.0262,-131.5011 299.5833,-137.7483 301.6114,-131.0485"/>
</g>
<!-- Node13&#45;&gt;Node9 -->
<g id="edge17" class="edge">
<title>Node13&#45;&gt;Node9</title>
<path fill="none" stroke="#191970" d="M443.786,-168.4509C442.155,-150.184 438.5631,-109.9553 436.3973,-85.6976"/>
<polygon fill="#191970" stroke="#191970" points="439.8645,-85.174 435.489,-75.5249 432.8923,-85.7966 439.8645,-85.174"/>
</g>
<!-- Node13&#45;&gt;Node12 -->
<g id="edge19" class="edge">
<title>Node13&#45;&gt;Node12</title>
<path fill="none" stroke="#191970" d="M461.5347,-168.2455C476.5565,-159.5731 498.7429,-146.7645 515.9596,-136.825"/>
<polygon fill="#191970" stroke="#191970" points="518.0256,-139.6737 524.9361,-131.6427 514.5257,-133.6114 518.0256,-139.6737"/>
</g>
<!-- Node14&#45;&gt;Node1 -->
<g id="edge21" class="edge">
<title>Node14&#45;&gt;Node1</title>
<path fill="none" stroke="#191970" d="M311.775,-224.4863C315.0558,-211.1414 322.1846,-186.4338 333.6386,-168 340.4262,-157.0761 350.1353,-146.578 358.7071,-138.376"/>
<polygon fill="#191970" stroke="#191970" points="361.1481,-140.8863 366.143,-131.5428 356.4116,-135.7321 361.1481,-140.8863"/>
</g>
<!-- Node14&#45;&gt;Node2 -->
<g id="edge22" class="edge">
<title>Node14&#45;&gt;Node2</title>
<path fill="none" stroke="#191970" d="M282.5653,-226.2577C279.5612,-225.4648 276.5401,-224.6961 273.6386,-224 238.0985,-215.4743 138.5709,-195.8619 83.8506,-185.207"/>
<polygon fill="#191970" stroke="#191970" points="84.3424,-181.7371 73.8581,-183.2639 83.0061,-188.6084 84.3424,-181.7371"/>
</g>
<!-- Node14&#45;&gt;Node3 -->
<g id="edge23" class="edge">
<title>Node14&#45;&gt;Node3</title>
<path fill="none" stroke="#191970" d="M282.3702,-225.3727C251.0844,-215.4744 199.7742,-199.2407 166.0978,-188.586"/>
<polygon fill="#191970" stroke="#191970" points="166.8443,-185.1512 156.2543,-185.4717 164.7327,-191.8252 166.8443,-185.1512"/>
</g>
<!-- Node14&#45;&gt;Node5 -->
<g id="edge24" class="edge">
<title>Node14&#45;&gt;Node5</title>
<path fill="none" stroke="#191970" d="M292.3941,-224.2455C277.0625,-215.5731 254.4187,-202.7645 236.847,-192.825"/>
<polygon fill="#191970" stroke="#191970" points="238.1127,-189.5198 227.6854,-187.6427 234.6662,-195.6126 238.1127,-189.5198"/>
</g>
<!-- Node14&#45;&gt;Node7 -->
<g id="edge25" class="edge">
<title>Node14&#45;&gt;Node7</title>
<path fill="none" stroke="#191970" d="M305.3756,-224.4509C297.11,-205.936 278.7721,-164.8591 267.9951,-140.7187"/>
<polygon fill="#191970" stroke="#191970" points="271.1633,-139.2295 263.8907,-131.5249 264.7713,-142.0831 271.1633,-139.2295"/>
</g>
<!-- Node14&#45;&gt;Node12 -->
<g id="edge26" class="edge">
<title>Node14&#45;&gt;Node12</title>
<path fill="none" stroke="#191970" d="M336.745,-231.5823C387.8893,-226.4841 495.897,-212.9922 522.6386,-188 535.2729,-176.1922 539.6899,-156.5803 541.1453,-141.7966"/>
<polygon fill="#191970" stroke="#191970" points="544.6493,-141.8372 541.768,-131.6417 537.6624,-141.4087 544.6493,-141.8372"/>
</g>
<!-- Node14&#45;&gt;Node13 -->
<g id="edge27" class="edge">
<title>Node14&#45;&gt;Node13</title>
<path fill="none" stroke="#191970" d="M332.8459,-224.3733C354.8084,-215.2629 387.9717,-201.5062 412.4787,-191.3404"/>
<polygon fill="#191970" stroke="#191970" points="413.8383,-194.5657 421.7341,-187.5011 411.1561,-188.0999 413.8383,-194.5657"/>
</g>
</g>
</svg>
        <g id="navigator" transform="translate(0 0)" fill="#404254">
                <rect fill="#f2f5e9" fill-opacity="0.5" stroke="#606060" stroke-width=".5" x="0" y="0" width="60" height="60"/>
                <use id="zoomplus" xlink:href="#zoomPlus" x="17" y="9" onmousedown="handleZoom(evt,'in')"/>
                <use id="zoomminus" xlink:href="#zoomMin" x="42" y="9" onmousedown="handleZoom(evt,'out')"/>
                <use id="reset" xlink:href="#resetDef" x="30" y="36" onmousedown="handleReset()"/>
                <g id="arrowUp" xlink:href="#dirArrow" transform="translate(30 24)" onmousedown="handlePan(0,-1)">
                  <use xlink:href="#rim" fill="#404040">
                        <set attributeName="fill" to="#808080" begin="arrowUp.mouseover" end="arrowUp.mouseout"/>
                  </use>
                  <path fill="none" stroke="white" stroke-width="1.5" d="M0,-3.0v7 M-2.5,-0.5L0,-3.0L2.5,-0.5"/>
                </g>
                <g id="arrowRight" xlink:href="#dirArrow" transform="rotate(90) translate(36 -43)" onmousedown="handlePan(1,0)">
                  <use xlink:href="#rim" fill="#404040">
                        <set attributeName="fill" to="#808080" begin="arrowRight.mouseover" end="arrowRight.mouseout"/>
                  </use>
                  <path fill="none" stroke="white" stroke-width="1.5" d="M0,-3.0v7 M-2.5,-0.5L0,-3.0L2.5,-0.5"/>
                </g>
                <g id="arrowDown" xlink:href="#dirArrow" transform="rotate(180) translate(-30 -48)" onmousedown="handlePan(0,1)">
                  <use xlink:href="#rim" fill="#404040">
                        <set attributeName="fill" to="#808080" begin="arrowDown.mouseover" end="arrowDown.mouseout"/>
                  </use>
                  <path fill="none" stroke="white" stroke-width="1.5" d="M0,-3.0v7 M-2.5,-0.5L0,-3.0L2.5,-0.5"/>
                </g>
                <g id="arrowLeft" xlink:href="#dirArrow" transform="rotate(270) translate(-36 17)" onmousedown="handlePan(-1,0)">
                  <use xlink:href="#rim" fill="#404040">
                        <set attributeName="fill" to="#808080" begin="arrowLeft.mouseover" end="arrowLeft.mouseout"/>
                  </use>
                  <path fill="none" stroke="white" stroke-width="1.5" d="M0,-3.0v7 M-2.5,-0.5L0,-3.0L2.5,-0.5"/>
                </g>
        </g>
        <svg viewBox="0 0 15 15" width="100%" height="30px" preserveAspectRatio="xMaxYMin meet">
         <g id="arrow_out" transform="scale(0.3 0.3)">
          <a xlink:href="DFS_8cpp__incl_org.svg" target="_base">
           <rect id="button" ry="5" rx="5" y="6" x="6" height="38" width="38"
                fill="#f2f5e9" fill-opacity="0.5" stroke="#606060" stroke-width="1.0"/>
           <path id="arrow"
             d="M 11.500037,31.436501 C 11.940474,20.09759 22.043105,11.32322 32.158766,21.979434 L 37.068811,17.246167 C 37.068811,17.246167 37.088388,32 37.088388,32 L 22.160133,31.978069 C 22.160133,31.978069 26.997745,27.140456 26.997745,27.140456 C 18.528582,18.264221 13.291696,25.230495 11.500037,31.436501 z"
             style="fill:#404040;"/>
          </a>
         </g>
        </svg>
</svg>
