<?xml version="1.0" encoding="UTF-8" standalone="no"?>
<!DOCTYPE svg PUBLIC "-//W3C//DTD SVG 1.1//EN"
 "http://www.w3.org/Graphics/SVG/1.1/DTD/svg11.dtd">
<!-- Generated by graphviz version 2.40.1 (0)
 -->
<!-- Title: FloodFilledImage.cpp Pages: 1 -->
<!--zoomable 308 -->
<svg id="main" version="1.1" xmlns="http://www.w3.org/2000/svg" xmlns:xlink="http://www.w3.org/1999/xlink" xml:space="preserve" onload="init(evt)">
<style type="text/css"><![CDATA[
.edge:hover path { stroke: red; }
.edge:hover polygon { stroke: red; fill: red; }
]]></style>
<script type="text/javascript"><![CDATA[
var edges = document.getElementsByTagName('g');
if (edges && edges.length) {
  for (var i=0;i<edges.length;i++) {
    if (edges[i].id.substr(0,4)=='edge') {
      edges[i].setAttribute('class','edge');
    }
  }
}
]]></script>
        <defs>
                <circle id="rim" cx="0" cy="0" r="7"/>
                <circle id="rim2" cx="0" cy="0" r="3.5"/>
                <g id="zoomPlus">
                        <use xlink:href="#rim" fill="#404040">
                                <set attributeName="fill" to="#808080" begin="zoomplus.mouseover" end="zoomplus.mouseout"/>
                        </use>
                        <path d="M-4,0h8M0,-4v8" fill="none" stroke="white" stroke-width="1.5" pointer-events="none"/>
                </g>
                <g id="zoomMin">
                        <use xlink:href="#rim" fill="#404040">
                                <set attributeName="fill" to="#808080" begin="zoomminus.mouseover" end="zoomminus.mouseout"/>
                        </use>
                        <path d="M-4,0h8" fill="none" stroke="white" stroke-width="1.5" pointer-events="none"/>
                </g>
                <g id="dirArrow">
                        <path fill="none" stroke="white" stroke-width="1.5" d="M0,-3.0v7 M-2.5,-0.5L0,-3.0L2.5,-0.5"/>
                </g>
               <g id="resetDef">
                       <use xlink:href="#rim2" fill="#404040">
                               <set attributeName="fill" to="#808080" begin="reset.mouseover" end="reset.mouseout"/>
                       </use>
               </g>
        </defs>

<script type="text/javascript">
var viewWidth = 882;
var viewHeight = 308;
var sectionId = 'dynsection-0';
</script>
<script xlink:href="svgpan.js"/>
<svg id="graph" class="graph">
<g id="viewport">
<title>FloodFilledImage.cpp</title>
<!-- Node0 -->
<g id="node1" class="node">
<title>Node0</title>
<g id="a_node1"><a xlink:title=" ">
<polygon fill="#bfbfbf" stroke="#000000" points="319.5,-280.5 319.5,-299.5 486.5,-299.5 486.5,-280.5 319.5,-280.5"/>
<text text-anchor="middle" x="403" y="-287.5" font-family="Helvetica,sans-Serif" font-size="10.00" fill="#000000">FloodFilledImage.cpp</text>
</a>
</g>
</g>
<!-- Node1 -->
<g id="node2" class="node">
<title>Node1</title>
<g id="a_node2"><a xlink:href="PNG_8h.html" target="_top" xlink:title=" ">
<polygon fill="none" stroke="#000000" points="146.5,-112.5 146.5,-131.5 245.5,-131.5 245.5,-112.5 146.5,-112.5"/>
<text text-anchor="middle" x="196" y="-119.5" font-family="Helvetica,sans-Serif" font-size="10.00" fill="#000000">cs225/PNG.h</text>
</a>
</g>
</g>
<!-- Node0&#45;&gt;Node1 -->
<g id="edge1" class="edge">
<title>Node0&#45;&gt;Node1</title>
<path fill="none" stroke="#191970" d="M351.7383,-280.3909C302.5831,-268.1745 230.9784,-241.8255 197,-188 188.4082,-174.3896 188.9431,-155.847 191.1762,-141.8811"/>
<polygon fill="#191970" stroke="#191970" points="194.6545,-142.3367 193.1894,-131.8437 187.7912,-140.9601 194.6545,-142.3367"/>
</g>
<!-- Node4 -->
<g id="node5" class="node">
<title>Node4</title>
<g id="a_node5"><a xlink:title=" ">
<polygon fill="none" stroke="#bfbfbf" points="486.5,-.5 486.5,-19.5 563.5,-19.5 563.5,-.5 486.5,-.5"/>
<text text-anchor="middle" x="525" y="-7.5" font-family="Helvetica,sans-Serif" font-size="10.00" fill="#000000">iostream</text>
</a>
</g>
</g>
<!-- Node0&#45;&gt;Node4 -->
<g id="edge7" class="edge">
<title>Node0&#45;&gt;Node4</title>
<path fill="none" stroke="#191970" d="M319.4981,-283.7155C201.457,-272.4949 0,-243.7184 0,-178 0,-178 0,-178 0,-122 0,-73.1111 42.494,-73.8698 88,-56 157.6959,-28.6311 377.4589,-16.1878 476.1627,-11.8728"/>
<polygon fill="#191970" stroke="#191970" points="476.3336,-15.3688 486.175,-11.4449 476.0347,-8.3751 476.3336,-15.3688"/>
</g>
<!-- Node6 -->
<g id="node7" class="node">
<title>Node6</title>
<g id="a_node7"><a xlink:title=" ">
<polygon fill="none" stroke="#bfbfbf" points="566.5,-168.5 566.5,-187.5 613.5,-187.5 613.5,-168.5 566.5,-168.5"/>
<text text-anchor="middle" x="590" y="-175.5" font-family="Helvetica,sans-Serif" font-size="10.00" fill="#000000">list</text>
</a>
</g>
</g>
<!-- Node0&#45;&gt;Node6 -->
<g id="edge6" class="edge">
<title>Node0&#45;&gt;Node6</title>
<path fill="none" stroke="#191970" d="M477.5092,-280.4434C504.9137,-273.8643 534.6737,-262.7559 557,-244 571.3655,-231.9319 580.0946,-212.0713 584.9349,-197.2838"/>
<polygon fill="#191970" stroke="#191970" points="588.32,-198.1786 587.797,-187.5967 581.6069,-196.1951 588.32,-198.1786"/>
</g>
<!-- Node7 -->
<g id="node8" class="node">
<title>Node7</title>
<g id="a_node8"><a xlink:href="ColorPicker_8h.html" target="_top" xlink:title=" ">
<polygon fill="none" stroke="#000000" points="670,-168.5 670,-187.5 874,-187.5 874,-168.5 670,-168.5"/>
<text text-anchor="middle" x="772" y="-175.5" font-family="Helvetica,sans-Serif" font-size="10.00" fill="#000000">colorPicker/ColorPicker.h</text>
</a>
</g>
</g>
<!-- Node0&#45;&gt;Node7 -->
<g id="edge8" class="edge">
<title>Node0&#45;&gt;Node7</title>
<path fill="none" stroke="#191970" d="M486.6046,-281.983C536.816,-275.4196 601.3485,-263.8609 656,-244 691.0261,-231.2712 727.8292,-208.4843 750.3503,-193.3024"/>
<polygon fill="#191970" stroke="#191970" points="752.5352,-196.0481 758.8037,-187.5066 748.5769,-190.2747 752.5352,-196.0481"/>
</g>
<!-- Node8 -->
<g id="node9" class="node">
<title>Node8</title>
<g id="a_node9"><a xlink:href="ImageTraversal_8h.html" target="_top" xlink:title=" ">
<polygon fill="none" stroke="#000000" points="222.5,-168.5 222.5,-187.5 471.5,-187.5 471.5,-168.5 222.5,-168.5"/>
<text text-anchor="middle" x="347" y="-175.5" font-family="Helvetica,sans-Serif" font-size="10.00" fill="#000000">imageTraversal/ImageTraversal.h</text>
</a>
</g>
</g>
<!-- Node0&#45;&gt;Node8 -->
<g id="edge10" class="edge">
<title>Node0&#45;&gt;Node8</title>
<path fill="none" stroke="#191970" d="M398.2255,-280.4509C388.968,-261.936 368.4295,-220.8591 356.3593,-196.7187"/>
<polygon fill="#191970" stroke="#191970" points="359.3651,-194.9039 351.7624,-187.5249 353.1041,-198.0344 359.3651,-194.9039"/>
</g>
<!-- Node10 -->
<g id="node11" class="node">
<title>Node10</title>
<g id="a_node11"><a xlink:href="Point_8h.html" target="_top" xlink:title="every 2D point of the image is represented by a Point class you need to trverse all the points of the...">
<polygon fill="none" stroke="#000000" points="528,-112.5 528,-131.5 620,-131.5 620,-112.5 528,-112.5"/>
<text text-anchor="middle" x="574" y="-119.5" font-family="Helvetica,sans-Serif" font-size="10.00" fill="#000000">../Point.h</text>
</a>
</g>
</g>
<!-- Node0&#45;&gt;Node10 -->
<g id="edge17" class="edge">
<title>Node0&#45;&gt;Node10</title>
<path fill="none" stroke="#191970" d="M483.402,-280.4699C515.1444,-273.8878 550.7101,-262.7703 579,-244 611.3386,-222.5434 637.2323,-203.6953 622,-168 616.8844,-156.0122 606.9425,-145.6498 597.4273,-137.8114"/>
<polygon fill="#191970" stroke="#191970" points="599.3754,-134.8949 589.3074,-131.5954 595.1203,-140.4532 599.3754,-134.8949"/>
</g>
<!-- Node11 -->
<g id="node12" class="node">
<title>Node11</title>
<g id="a_node12"><a xlink:href="Animation_8h.html" target="_top" xlink:title="Defintion for a class that encapsulates creating animated images from a set of PNG object frames.">
<polygon fill="none" stroke="#000000" points="28.5,-168.5 28.5,-187.5 127.5,-187.5 127.5,-168.5 28.5,-168.5"/>
<text text-anchor="middle" x="78" y="-175.5" font-family="Helvetica,sans-Serif" font-size="10.00" fill="#000000">Animation.h</text>
</a>
</g>
</g>
<!-- Node0&#45;&gt;Node11 -->
<g id="edge18" class="edge">
<title>Node0&#45;&gt;Node11</title>
<path fill="none" stroke="#191970" d="M319.2233,-280.9049C254.8925,-272.8778 172.1306,-259.9792 142,-244 120.5471,-232.6229 101.9889,-211.4579 90.4616,-196.1573"/>
<polygon fill="#191970" stroke="#191970" points="93.2164,-193.9938 84.5183,-187.9444 87.5455,-198.0976 93.2164,-193.9938"/>
</g>
<!-- Node13 -->
<g id="node14" class="node">
<title>Node13</title>
<g id="a_node14"><a xlink:href="FloodFilledImage_8h.html" target="_top" xlink:title="Definition for a class to do flood fill on an image.">
<polygon fill="none" stroke="#000000" points="396,-224.5 396,-243.5 548,-243.5 548,-224.5 396,-224.5"/>
<text text-anchor="middle" x="472" y="-231.5" font-family="Helvetica,sans-Serif" font-size="10.00" fill="#000000">FloodFilledImage.h</text>
</a>
</g>
</g>
<!-- Node0&#45;&gt;Node13 -->
<g id="edge22" class="edge">
<title>Node0&#45;&gt;Node13</title>
<path fill="none" stroke="#191970" d="M415.0189,-280.2455C425.2098,-271.9746 440.0362,-259.9416 452.0107,-250.2232"/>
<polygon fill="#191970" stroke="#191970" points="454.5598,-252.662 460.1188,-243.6427 450.1486,-247.2268 454.5598,-252.662"/>
</g>
<!-- Node2 -->
<g id="node3" class="node">
<title>Node2</title>
<g id="a_node3"><a xlink:title=" ">
<polygon fill="none" stroke="#bfbfbf" points="97,-56.5 97,-75.5 159,-75.5 159,-56.5 97,-56.5"/>
<text text-anchor="middle" x="128" y="-63.5" font-family="Helvetica,sans-Serif" font-size="10.00" fill="#000000">string</text>
</a>
</g>
</g>
<!-- Node1&#45;&gt;Node2 -->
<g id="edge2" class="edge">
<title>Node1&#45;&gt;Node2</title>
<path fill="none" stroke="#191970" d="M184.1553,-112.2455C174.112,-103.9746 159.5005,-91.9416 147.6996,-82.2232"/>
<polygon fill="#191970" stroke="#191970" points="149.6533,-79.298 139.709,-75.6427 145.2033,-84.7015 149.6533,-79.298"/>
</g>
<!-- Node3 -->
<g id="node4" class="node">
<title>Node3</title>
<g id="a_node4"><a xlink:href="HSLAPixel_8h.html" target="_top" xlink:title=" ">
<polygon fill="none" stroke="#000000" points="566.5,-56.5 566.5,-75.5 665.5,-75.5 665.5,-56.5 566.5,-56.5"/>
<text text-anchor="middle" x="616" y="-63.5" font-family="Helvetica,sans-Serif" font-size="10.00" fill="#000000">HSLAPixel.h</text>
</a>
</g>
</g>
<!-- Node1&#45;&gt;Node3 -->
<g id="edge3" class="edge">
<title>Node1&#45;&gt;Node3</title>
<path fill="none" stroke="#191970" d="M245.8288,-115.3562C323.4251,-105.01 472.8549,-85.086 556.1665,-73.9778"/>
<polygon fill="#191970" stroke="#191970" points="556.7863,-77.4262 566.236,-72.6352 555.8611,-70.4876 556.7863,-77.4262"/>
</g>
<!-- Node3&#45;&gt;Node4 -->
<g id="edge4" class="edge">
<title>Node3&#45;&gt;Node4</title>
<path fill="none" stroke="#191970" d="M600.149,-56.2455C586.1868,-47.6534 565.6272,-35.0014 549.5404,-25.1018"/>
<polygon fill="#191970" stroke="#191970" points="551.0203,-21.9029 540.6693,-19.6427 547.3516,-27.8645 551.0203,-21.9029"/>
</g>
<!-- Node5 -->
<g id="node6" class="node">
<title>Node5</title>
<g id="a_node6"><a xlink:title=" ">
<polygon fill="none" stroke="#bfbfbf" points="593.5,-.5 593.5,-19.5 662.5,-19.5 662.5,-.5 593.5,-.5"/>
<text text-anchor="middle" x="628" y="-7.5" font-family="Helvetica,sans-Serif" font-size="10.00" fill="#000000">sstream</text>
</a>
</g>
</g>
<!-- Node3&#45;&gt;Node5 -->
<g id="edge5" class="edge">
<title>Node3&#45;&gt;Node5</title>
<path fill="none" stroke="#191970" d="M618.0902,-56.2455C619.6561,-48.9382 621.8512,-38.6944 623.7776,-29.7046"/>
<polygon fill="#191970" stroke="#191970" points="627.2607,-30.1541 625.9337,-19.6427 620.416,-28.6873 627.2607,-30.1541"/>
</g>
<!-- Node7&#45;&gt;Node3 -->
<g id="edge9" class="edge">
<title>Node7&#45;&gt;Node3</title>
<path fill="none" stroke="#191970" d="M758.6995,-168.4509C731.7596,-149.1094 670.5255,-105.1465 637.7152,-81.5904"/>
<polygon fill="#191970" stroke="#191970" points="639.4313,-78.5139 629.2668,-75.5249 635.3488,-84.2001 639.4313,-78.5139"/>
</g>
<!-- Node8&#45;&gt;Node1 -->
<g id="edge13" class="edge">
<title>Node8&#45;&gt;Node1</title>
<path fill="none" stroke="#191970" d="M321.0422,-168.3733C296.2593,-159.1822 258.7254,-145.2624 231.246,-135.0713"/>
<polygon fill="#191970" stroke="#191970" points="232.2121,-131.6968 221.6191,-131.5011 229.7781,-138.26 232.2121,-131.6968"/>
</g>
<!-- Node8&#45;&gt;Node3 -->
<g id="edge12" class="edge">
<title>Node8&#45;&gt;Node3</title>
<path fill="none" stroke="#191970" d="M369.9348,-168.4509C417.8779,-148.4895 528.8077,-102.3031 583.8407,-79.3897"/>
<polygon fill="#191970" stroke="#191970" points="585.2368,-82.5998 593.1233,-75.5249 582.5461,-76.1375 585.2368,-82.5998"/>
</g>
<!-- Node9 -->
<g id="node10" class="node">
<title>Node9</title>
<g id="a_node10"><a xlink:title=" ">
<polygon fill="none" stroke="#bfbfbf" points="308.5,-112.5 308.5,-131.5 385.5,-131.5 385.5,-112.5 308.5,-112.5"/>
<text text-anchor="middle" x="347" y="-119.5" font-family="Helvetica,sans-Serif" font-size="10.00" fill="#000000">iterator</text>
</a>
</g>
</g>
<!-- Node8&#45;&gt;Node9 -->
<g id="edge11" class="edge">
<title>Node8&#45;&gt;Node9</title>
<path fill="none" stroke="#191970" d="M347,-168.2455C347,-160.9382 347,-150.6944 347,-141.7046"/>
<polygon fill="#191970" stroke="#191970" points="350.5001,-141.6426 347,-131.6427 343.5001,-141.6427 350.5001,-141.6426"/>
</g>
<!-- Node8&#45;&gt;Node10 -->
<g id="edge14" class="edge">
<title>Node8&#45;&gt;Node10</title>
<path fill="none" stroke="#191970" d="M385.7648,-168.4369C424.3692,-158.9133 483.7384,-144.2672 525.4572,-133.9753"/>
<polygon fill="#191970" stroke="#191970" points="526.5245,-137.317 535.3951,-131.5237 524.8479,-130.5208 526.5245,-137.317"/>
</g>
<!-- Node10&#45;&gt;Node4 -->
<g id="edge15" class="edge">
<title>Node10&#45;&gt;Node4</title>
<path fill="none" stroke="#191970" d="M569.8223,-112.4509C561.722,-93.936 543.7508,-52.8591 533.1894,-28.7187"/>
<polygon fill="#191970" stroke="#191970" points="536.3819,-27.2836 529.1671,-19.5249 529.9688,-30.0894 536.3819,-27.2836"/>
</g>
<!-- Node10&#45;&gt;Node5 -->
<g id="edge16" class="edge">
<title>Node10&#45;&gt;Node5</title>
<path fill="none" stroke="#191970" d="M620.2057,-112.81C640.6576,-106.1959 662.8025,-94.9583 675,-76 686.381,-58.3107 668.4311,-38.7684 651.5321,-25.573"/>
<polygon fill="#191970" stroke="#191970" points="653.5856,-22.7387 643.4537,-19.641 649.4425,-28.3809 653.5856,-22.7387"/>
</g>
<!-- Node11&#45;&gt;Node1 -->
<g id="edge21" class="edge">
<title>Node11&#45;&gt;Node1</title>
<path fill="none" stroke="#191970" d="M98.2849,-168.3733C117.1421,-159.4241 145.446,-145.9917 166.7455,-135.8835"/>
<polygon fill="#191970" stroke="#191970" points="168.4461,-138.9506 175.9798,-131.5011 165.4449,-132.6266 168.4461,-138.9506"/>
</g>
<!-- Node11&#45;&gt;Node2 -->
<g id="edge19" class="edge">
<title>Node11&#45;&gt;Node2</title>
<path fill="none" stroke="#191970" d="M70.1681,-168.1395C60.6083,-154.8159 46.892,-130.5929 57,-112 64.6377,-97.9511 78.6209,-87.5317 92.1708,-80.1958"/>
<polygon fill="#191970" stroke="#191970" points="94.0059,-83.1921 101.399,-75.603 90.887,-76.9253 94.0059,-83.1921"/>
</g>
<!-- Node12 -->
<g id="node13" class="node">
<title>Node12</title>
<g id="a_node13"><a xlink:title=" ">
<polygon fill="none" stroke="#bfbfbf" points="66,-112.5 66,-131.5 128,-131.5 128,-112.5 66,-112.5"/>
<text text-anchor="middle" x="97" y="-119.5" font-family="Helvetica,sans-Serif" font-size="10.00" fill="#000000">vector</text>
</a>
</g>
</g>
<!-- Node11&#45;&gt;Node12 -->
<g id="edge20" class="edge">
<title>Node11&#45;&gt;Node12</title>
<path fill="none" stroke="#191970" d="M81.3095,-168.2455C83.8433,-160.7776 87.4177,-150.2427 90.515,-141.1137"/>
<polygon fill="#191970" stroke="#191970" points="93.8298,-142.237 93.7284,-131.6427 87.2009,-139.9879 93.8298,-142.237"/>
</g>
<!-- Node13&#45;&gt;Node1 -->
<g id="edge23" class="edge">
<title>Node13&#45;&gt;Node1</title>
<path fill="none" stroke="#191970" d="M395.9555,-229.482C329.3016,-223.9571 239.0892,-212.1703 213,-188 200.4115,-176.3374 196.6303,-156.7062 195.7175,-141.8785"/>
<polygon fill="#191970" stroke="#191970" points="199.2121,-141.6032 195.4803,-131.6874 192.214,-141.7662 199.2121,-141.6032"/>
</g>
<!-- Node13&#45;&gt;Node4 -->
<g id="edge25" class="edge">
<title>Node13&#45;&gt;Node4</title>
<path fill="none" stroke="#191970" d="M474.2773,-224.375C482.3129,-190.4133 509.4437,-75.7472 520.3769,-29.5392"/>
<polygon fill="#191970" stroke="#191970" points="523.8345,-30.1264 522.7311,-19.5891 517.0226,-28.5146 523.8345,-30.1264"/>
</g>
<!-- Node13&#45;&gt;Node6 -->
<g id="edge24" class="edge">
<title>Node13&#45;&gt;Node6</title>
<path fill="none" stroke="#191970" d="M492.2849,-224.3733C511.1421,-215.4241 539.446,-201.9917 560.7455,-191.8835"/>
<polygon fill="#191970" stroke="#191970" points="562.4461,-194.9506 569.9798,-187.5011 559.4449,-188.6266 562.4461,-194.9506"/>
</g>
<!-- Node13&#45;&gt;Node7 -->
<g id="edge26" class="edge">
<title>Node13&#45;&gt;Node7</title>
<path fill="none" stroke="#191970" d="M523.231,-224.4369C575.2208,-214.7321 655.7073,-199.708 710.9681,-189.3926"/>
<polygon fill="#191970" stroke="#191970" points="711.7924,-192.7993 720.9803,-187.5237 710.5079,-185.9182 711.7924,-192.7993"/>
</g>
<!-- Node13&#45;&gt;Node8 -->
<g id="edge27" class="edge">
<title>Node13&#45;&gt;Node8</title>
<path fill="none" stroke="#191970" d="M450.5117,-224.3733C430.356,-215.3435 400.012,-201.7494 377.382,-191.6111"/>
<polygon fill="#191970" stroke="#191970" points="378.7649,-188.3955 368.2079,-187.5011 375.9029,-194.7838 378.7649,-188.3955"/>
</g>
<!-- Node13&#45;&gt;Node10 -->
<g id="edge28" class="edge">
<title>Node13&#45;&gt;Node10</title>
<path fill="none" stroke="#191970" d="M480.6934,-224.4907C489.1911,-215.1926 502.4928,-200.6305 514,-188 529.0276,-171.5055 546.1472,-152.6694 558.2428,-139.3534"/>
<polygon fill="#191970" stroke="#191970" points="560.9289,-141.6018 565.0612,-131.846 555.747,-136.8955 560.9289,-141.6018"/>
</g>
<!-- Node13&#45;&gt;Node11 -->
<g id="edge29" class="edge">
<title>Node13&#45;&gt;Node11</title>
<path fill="none" stroke="#191970" d="M404.7167,-224.4369C329.7211,-213.7776 209.5761,-196.7012 137.7697,-186.4952"/>
<polygon fill="#191970" stroke="#191970" points="137.9303,-182.9829 127.5372,-185.0408 136.9452,-189.9133 137.9303,-182.9829"/>
</g>
</g>
</svg>
        <g id="navigator" transform="translate(0 0)" fill="#404254">
                <rect fill="#f2f5e9" fill-opacity="0.5" stroke="#606060" stroke-width=".5" x="0" y="0" width="60" height="60"/>
                <use id="zoomplus" xlink:href="#zoomPlus" x="17" y="9" onmousedown="handleZoom(evt,'in')"/>
                <use id="zoomminus" xlink:href="#zoomMin" x="42" y="9" onmousedown="handleZoom(evt,'out')"/>
                <use id="reset" xlink:href="#resetDef" x="30" y="36" onmousedown="handleReset()"/>
                <g id="arrowUp" xlink:href="#dirArrow" transform="translate(30 24)" onmousedown="handlePan(0,-1)">
                  <use xlink:href="#rim" fill="#404040">
                        <set attributeName="fill" to="#808080" begin="arrowUp.mouseover" end="arrowUp.mouseout"/>
                  </use>
                  <path fill="none" stroke="white" stroke-width="1.5" d="M0,-3.0v7 M-2.5,-0.5L0,-3.0L2.5,-0.5"/>
                </g>
                <g id="arrowRight" xlink:href="#dirArrow" transform="rotate(90) translate(36 -43)" onmousedown="handlePan(1,0)">
                  <use xlink:href="#rim" fill="#404040">
                        <set attributeName="fill" to="#808080" begin="arrowRight.mouseover" end="arrowRight.mouseout"/>
                  </use>
                  <path fill="none" stroke="white" stroke-width="1.5" d="M0,-3.0v7 M-2.5,-0.5L0,-3.0L2.5,-0.5"/>
                </g>
                <g id="arrowDown" xlink:href="#dirArrow" transform="rotate(180) translate(-30 -48)" onmousedown="handlePan(0,1)">
                  <use xlink:href="#rim" fill="#404040">
                        <set attributeName="fill" to="#808080" begin="arrowDown.mouseover" end="arrowDown.mouseout"/>
                  </use>
                  <path fill="none" stroke="white" stroke-width="1.5" d="M0,-3.0v7 M-2.5,-0.5L0,-3.0L2.5,-0.5"/>
                </g>
                <g id="arrowLeft" xlink:href="#dirArrow" transform="rotate(270) translate(-36 17)" onmousedown="handlePan(-1,0)">
                  <use xlink:href="#rim" fill="#404040">
                        <set attributeName="fill" to="#808080" begin="arrowLeft.mouseover" end="arrowLeft.mouseout"/>
                  </use>
                  <path fill="none" stroke="white" stroke-width="1.5" d="M0,-3.0v7 M-2.5,-0.5L0,-3.0L2.5,-0.5"/>
                </g>
        </g>
        <svg viewBox="0 0 15 15" width="100%" height="30px" preserveAspectRatio="xMaxYMin meet">
         <g id="arrow_out" transform="scale(0.3 0.3)">
          <a xlink:href="FloodFilledImage_8cpp__incl_org.svg" target="_base">
           <rect id="button" ry="5" rx="5" y="6" x="6" height="38" width="38"
                fill="#f2f5e9" fill-opacity="0.5" stroke="#606060" stroke-width="1.0"/>
           <path id="arrow"
             d="M 11.500037,31.436501 C 11.940474,20.09759 22.043105,11.32322 32.158766,21.979434 L 37.068811,17.246167 C 37.068811,17.246167 37.088388,32 37.088388,32 L 22.160133,31.978069 C 22.160133,31.978069 26.997745,27.140456 26.997745,27.140456 C 18.528582,18.264221 13.291696,25.230495 11.500037,31.436501 z"
             style="fill:#404040;"/>
          </a>
         </g>
        </svg>
</svg>
