<?xml version="1.0" encoding="UTF-8" standalone="no"?>
<!DOCTYPE svg PUBLIC "-//W3C//DTD SVG 1.1//EN"
 "http://www.w3.org/Graphics/SVG/1.1/DTD/svg11.dtd">
<!-- Generated by graphviz version 2.40.1 (0)
 -->
<!-- Title: FloodFilledImage.h Pages: 1 -->
<!--zoomable 252 -->
<svg id="main" version="1.1" xmlns="http://www.w3.org/2000/svg" xmlns:xlink="http://www.w3.org/1999/xlink" xml:space="preserve" onload="init(evt)">
<style type="text/css"><![CDATA[
.edge:hover path { stroke: red; }
.edge:hover polygon { stroke: red; fill: red; }
]]></style>
<script type="text/javascript"><![CDATA[
var edges = document.getElementsByTagName('g');
if (edges && edges.length) {
  for (var i=0;i<edges.length;i++) {
    if (edges[i].id.substr(0,4)=='edge') {
      edges[i].setAttribute('class','edge');
    }
  }
}
]]></script>
        <defs>
                <circle id="rim" cx="0" cy="0" r="7"/>
                <circle id="rim2" cx="0" cy="0" r="3.5"/>
                <g id="zoomPlus">
                        <use xlink:href="#rim" fill="#404040">
                                <set attributeName="fill" to="#808080" begin="zoomplus.mouseover" end="zoomplus.mouseout"/>
                        </use>
                        <path d="M-4,0h8M0,-4v8" fill="none" stroke="white" stroke-width="1.5" pointer-events="none"/>
                </g>
                <g id="zoomMin">
                        <use xlink:href="#rim" fill="#404040">
                                <set attributeName="fill" to="#808080" begin="zoomminus.mouseover" end="zoomminus.mouseout"/>
                        </use>
                        <path d="M-4,0h8" fill="none" stroke="white" stroke-width="1.5" pointer-events="none"/>
                </g>
                <g id="dirArrow">
                        <path fill="none" stroke="white" stroke-width="1.5" d="M0,-3.0v7 M-2.5,-0.5L0,-3.0L2.5,-0.5"/>
                </g>
               <g id="resetDef">
                       <use xlink:href="#rim2" fill="#404040">
                               <set attributeName="fill" to="#808080" begin="reset.mouseover" end="reset.mouseout"/>
                       </use>
               </g>
        </defs>

<script type="text/javascript">
var viewWidth = 722;
var viewHeight = 252;
var sectionId = 'dynsection-0';
</script>
<script xlink:href="svgpan.js"/>
<svg id="graph" class="graph">
<g id="viewport">
<title>FloodFilledImage.h</title>
<!-- Node0 -->
<g id="node1" class="node">
<title>Node0</title>
<g id="a_node1"><a xlink:title="Definition for a class to do flood fill on an image.">
<polygon fill="#bfbfbf" stroke="#000000" points="239.9054,-224.5 239.9054,-243.5 391.9054,-243.5 391.9054,-224.5 239.9054,-224.5"/>
<text text-anchor="middle" x="315.9054" y="-231.5" font-family="Helvetica,sans-Serif" font-size="10.00" fill="#000000">FloodFilledImage.h</text>
</a>
</g>
</g>
<!-- Node1 -->
<g id="node2" class="node">
<title>Node1</title>
<g id="a_node2"><a xlink:href="PNG_8h.html" target="_top" xlink:title=" ">
<polygon fill="none" stroke="#000000" points="117.4054,-112.5 117.4054,-131.5 216.4054,-131.5 216.4054,-112.5 117.4054,-112.5"/>
<text text-anchor="middle" x="166.9054" y="-119.5" font-family="Helvetica,sans-Serif" font-size="10.00" fill="#000000">cs225/PNG.h</text>
</a>
</g>
</g>
<!-- Node0&#45;&gt;Node1 -->
<g id="edge1" class="edge">
<title>Node0&#45;&gt;Node1</title>
<path fill="none" stroke="#191970" d="M275.0811,-224.4552C240.8241,-215.6494 195.5194,-201.8751 182.9054,-188 171.6409,-175.6092 167.9507,-156.6518 166.8976,-142.2282"/>
<polygon fill="#191970" stroke="#191970" points="170.3814,-141.7126 166.524,-131.8449 163.3859,-141.9643 170.3814,-141.7126"/>
</g>
<!-- Node4 -->
<g id="node5" class="node">
<title>Node4</title>
<g id="a_node5"><a xlink:title=" ">
<polygon fill="none" stroke="#bfbfbf" points="211.4054,-.5 211.4054,-19.5 288.4054,-19.5 288.4054,-.5 211.4054,-.5"/>
<text text-anchor="middle" x="249.9054" y="-7.5" font-family="Helvetica,sans-Serif" font-size="10.00" fill="#000000">iostream</text>
</a>
</g>
</g>
<!-- Node0&#45;&gt;Node4 -->
<g id="edge7" class="edge">
<title>Node0&#45;&gt;Node4</title>
<path fill="none" stroke="#191970" d="M239.6889,-227.2746C156.7852,-219.1716 34.0939,-204.5638 19.9054,-188 -19.4349,-142.0737 4.666,-92.467 52.9054,-56 75.9056,-38.6128 150.4378,-24.6067 200.9397,-16.7968"/>
<polygon fill="#191970" stroke="#191970" points="201.6473,-20.2297 211.0106,-15.2718 200.5992,-13.3086 201.6473,-20.2297"/>
</g>
<!-- Node6 -->
<g id="node7" class="node">
<title>Node6</title>
<g id="a_node7"><a xlink:title=" ">
<polygon fill="none" stroke="#bfbfbf" points="667.4054,-168.5 667.4054,-187.5 714.4054,-187.5 714.4054,-168.5 667.4054,-168.5"/>
<text text-anchor="middle" x="690.9054" y="-175.5" font-family="Helvetica,sans-Serif" font-size="10.00" fill="#000000">list</text>
</a>
</g>
</g>
<!-- Node0&#45;&gt;Node6 -->
<g id="edge6" class="edge">
<title>Node0&#45;&gt;Node6</title>
<path fill="none" stroke="#191970" d="M391.9652,-226.2927C460.5565,-218.7089 564.0086,-205.6958 652.9054,-188 654.369,-187.7087 655.8599,-187.3941 657.3628,-187.0624"/>
<polygon fill="#191970" stroke="#191970" points="658.3797,-190.418 667.2922,-184.6894 656.7525,-183.6097 658.3797,-190.418"/>
</g>
<!-- Node7 -->
<g id="node8" class="node">
<title>Node7</title>
<g id="a_node8"><a xlink:href="ColorPicker_8h.html" target="_top" xlink:title=" ">
<polygon fill="none" stroke="#000000" points="406.9054,-112.5 406.9054,-131.5 610.9054,-131.5 610.9054,-112.5 406.9054,-112.5"/>
<text text-anchor="middle" x="508.9054" y="-119.5" font-family="Helvetica,sans-Serif" font-size="10.00" fill="#000000">colorPicker/ColorPicker.h</text>
</a>
</g>
</g>
<!-- Node0&#45;&gt;Node7 -->
<g id="edge8" class="edge">
<title>Node0&#45;&gt;Node7</title>
<path fill="none" stroke="#191970" d="M361.6614,-224.4725C388.8635,-217.3586 423.1625,-205.7517 449.9054,-188 468.9928,-175.33 485.8556,-155.0379 496.613,-140.2957"/>
<polygon fill="#191970" stroke="#191970" points="499.5926,-142.1433 502.4873,-131.9516 493.8687,-138.1137 499.5926,-142.1433"/>
</g>
<!-- Node8 -->
<g id="node9" class="node">
<title>Node8</title>
<g id="a_node9"><a xlink:href="ImageTraversal_8h.html" target="_top" xlink:title=" ">
<polygon fill="none" stroke="#000000" points="191.4054,-168.5 191.4054,-187.5 440.4054,-187.5 440.4054,-168.5 191.4054,-168.5"/>
<text text-anchor="middle" x="315.9054" y="-175.5" font-family="Helvetica,sans-Serif" font-size="10.00" fill="#000000">imageTraversal/ImageTraversal.h</text>
</a>
</g>
</g>
<!-- Node0&#45;&gt;Node8 -->
<g id="edge10" class="edge">
<title>Node0&#45;&gt;Node8</title>
<path fill="none" stroke="#191970" d="M315.9054,-224.2455C315.9054,-216.9382 315.9054,-206.6944 315.9054,-197.7046"/>
<polygon fill="#191970" stroke="#191970" points="319.4055,-197.6426 315.9054,-187.6427 312.4055,-197.6427 319.4055,-197.6426"/>
</g>
<!-- Node10 -->
<g id="node11" class="node">
<title>Node10</title>
<g id="a_node11"><a xlink:href="Point_8h.html" target="_top" xlink:title="every 2D point of the image is represented by a Point class you need to trverse all the points of the...">
<polygon fill="none" stroke="#000000" points="327.9054,-56.5 327.9054,-75.5 419.9054,-75.5 419.9054,-56.5 327.9054,-56.5"/>
<text text-anchor="middle" x="373.9054" y="-63.5" font-family="Helvetica,sans-Serif" font-size="10.00" fill="#000000">../Point.h</text>
</a>
</g>
</g>
<!-- Node0&#45;&gt;Node10 -->
<g id="edge17" class="edge">
<title>Node0&#45;&gt;Node10</title>
<path fill="none" stroke="#191970" d="M367.004,-224.4859C445.7798,-208.6381 590.8608,-174.3526 619.9054,-132 624.9327,-124.6693 625.5839,-118.8387 619.9054,-112 596.2594,-83.5225 495.1169,-72.5753 430.1105,-68.4382"/>
<polygon fill="#191970" stroke="#191970" points="430.197,-64.9372 420.0051,-67.8311 429.7771,-71.9246 430.197,-64.9372"/>
</g>
<!-- Node11 -->
<g id="node12" class="node">
<title>Node11</title>
<g id="a_node12"><a xlink:href="Animation_8h.html" target="_top" xlink:title="Defintion for a class that encapsulates creating animated images from a set of PNG object frames.">
<polygon fill="none" stroke="#000000" points="29.4054,-168.5 29.4054,-187.5 128.4054,-187.5 128.4054,-168.5 29.4054,-168.5"/>
<text text-anchor="middle" x="78.9054" y="-175.5" font-family="Helvetica,sans-Serif" font-size="10.00" fill="#000000">Animation.h</text>
</a>
</g>
</g>
<!-- Node0&#45;&gt;Node11 -->
<g id="edge18" class="edge">
<title>Node0&#45;&gt;Node11</title>
<path fill="none" stroke="#191970" d="M275.433,-224.4369C234.9575,-214.8731 172.6187,-200.1432 129.0352,-189.845"/>
<polygon fill="#191970" stroke="#191970" points="129.7479,-186.4171 119.211,-187.5237 128.1381,-193.2295 129.7479,-186.4171"/>
</g>
<!-- Node2 -->
<g id="node3" class="node">
<title>Node2</title>
<g id="a_node3"><a xlink:title=" ">
<polygon fill="none" stroke="#bfbfbf" points="61.9054,-56.5 61.9054,-75.5 123.9054,-75.5 123.9054,-56.5 61.9054,-56.5"/>
<text text-anchor="middle" x="92.9054" y="-63.5" font-family="Helvetica,sans-Serif" font-size="10.00" fill="#000000">string</text>
</a>
</g>
</g>
<!-- Node1&#45;&gt;Node2 -->
<g id="edge2" class="edge">
<title>Node1&#45;&gt;Node2</title>
<path fill="none" stroke="#191970" d="M154.0156,-112.2455C142.9801,-103.8943 126.8762,-91.7076 113.9701,-81.9408"/>
<polygon fill="#191970" stroke="#191970" points="115.7337,-78.8862 105.6475,-75.6427 111.5096,-84.4681 115.7337,-78.8862"/>
</g>
<!-- Node3 -->
<g id="node4" class="node">
<title>Node3</title>
<g id="a_node4"><a xlink:href="HSLAPixel_8h.html" target="_top" xlink:title=" ">
<polygon fill="none" stroke="#000000" points="200.4054,-56.5 200.4054,-75.5 299.4054,-75.5 299.4054,-56.5 200.4054,-56.5"/>
<text text-anchor="middle" x="249.9054" y="-63.5" font-family="Helvetica,sans-Serif" font-size="10.00" fill="#000000">HSLAPixel.h</text>
</a>
</g>
</g>
<!-- Node1&#45;&gt;Node3 -->
<g id="edge3" class="edge">
<title>Node1&#45;&gt;Node3</title>
<path fill="none" stroke="#191970" d="M181.3629,-112.2455C193.9787,-103.7337 212.4999,-91.2375 227.11,-81.3801"/>
<polygon fill="#191970" stroke="#191970" points="229.2815,-84.1371 235.6136,-75.6427 225.3664,-78.3343 229.2815,-84.1371"/>
</g>
<!-- Node3&#45;&gt;Node4 -->
<g id="edge4" class="edge">
<title>Node3&#45;&gt;Node4</title>
<path fill="none" stroke="#191970" d="M249.9054,-56.2455C249.9054,-48.9382 249.9054,-38.6944 249.9054,-29.7046"/>
<polygon fill="#191970" stroke="#191970" points="253.4055,-29.6426 249.9054,-19.6427 246.4055,-29.6427 253.4055,-29.6426"/>
</g>
<!-- Node5 -->
<g id="node6" class="node">
<title>Node5</title>
<g id="a_node6"><a xlink:title=" ">
<polygon fill="none" stroke="#bfbfbf" points="322.4054,-.5 322.4054,-19.5 391.4054,-19.5 391.4054,-.5 322.4054,-.5"/>
<text text-anchor="middle" x="356.9054" y="-7.5" font-family="Helvetica,sans-Serif" font-size="10.00" fill="#000000">sstream</text>
</a>
</g>
</g>
<!-- Node3&#45;&gt;Node5 -->
<g id="edge5" class="edge">
<title>Node3&#45;&gt;Node5</title>
<path fill="none" stroke="#191970" d="M268.5434,-56.2455C285.3441,-47.4527 310.2689,-34.4079 329.3672,-24.4125"/>
<polygon fill="#191970" stroke="#191970" points="331.2441,-27.3807 338.481,-19.6427 327.9981,-21.1787 331.2441,-27.3807"/>
</g>
<!-- Node7&#45;&gt;Node3 -->
<g id="edge9" class="edge">
<title>Node7&#45;&gt;Node3</title>
<path fill="none" stroke="#191970" d="M464.676,-112.4369C420.1639,-102.8127 351.4564,-87.957 303.7886,-77.6504"/>
<polygon fill="#191970" stroke="#191970" points="304.4662,-74.2161 293.9524,-75.5237 302.9869,-81.058 304.4662,-74.2161"/>
</g>
<!-- Node8&#45;&gt;Node1 -->
<g id="edge13" class="edge">
<title>Node8&#45;&gt;Node1</title>
<path fill="none" stroke="#191970" d="M290.2914,-168.3733C265.8368,-159.1822 228.8,-145.2624 201.6846,-135.0713"/>
<polygon fill="#191970" stroke="#191970" points="202.7773,-131.7431 192.1852,-131.5011 200.3146,-138.2956 202.7773,-131.7431"/>
</g>
<!-- Node8&#45;&gt;Node3 -->
<g id="edge12" class="edge">
<title>Node8&#45;&gt;Node3</title>
<path fill="none" stroke="#191970" d="M301.0982,-168.4756C289.4807,-160.22 273.8295,-147.2243 264.9054,-132 256.6421,-117.9028 252.93,-99.6458 251.263,-85.9082"/>
<polygon fill="#191970" stroke="#191970" points="254.7162,-85.2474 250.2887,-75.6221 247.7474,-85.9076 254.7162,-85.2474"/>
</g>
<!-- Node9 -->
<g id="node10" class="node">
<title>Node9</title>
<g id="a_node10"><a xlink:title=" ">
<polygon fill="none" stroke="#bfbfbf" points="273.4054,-112.5 273.4054,-131.5 350.4054,-131.5 350.4054,-112.5 273.4054,-112.5"/>
<text text-anchor="middle" x="311.9054" y="-119.5" font-family="Helvetica,sans-Serif" font-size="10.00" fill="#000000">iterator</text>
</a>
</g>
</g>
<!-- Node8&#45;&gt;Node9 -->
<g id="edge11" class="edge">
<title>Node8&#45;&gt;Node9</title>
<path fill="none" stroke="#191970" d="M315.2087,-168.2455C314.6867,-160.9382 313.955,-150.6944 313.3129,-141.7046"/>
<polygon fill="#191970" stroke="#191970" points="316.7979,-141.3679 312.5942,-131.6427 309.8157,-141.8667 316.7979,-141.3679"/>
</g>
<!-- Node8&#45;&gt;Node10 -->
<g id="edge14" class="edge">
<title>Node8&#45;&gt;Node10</title>
<path fill="none" stroke="#191970" d="M328.3061,-168.4098C338.3859,-159.9304 352.161,-146.6567 359.9054,-132 367.5153,-117.5981 370.9887,-99.3675 372.5741,-85.7175"/>
<polygon fill="#191970" stroke="#191970" points="376.082,-85.7917 373.5112,-75.5135 369.1113,-85.1515 376.082,-85.7917"/>
</g>
<!-- Node10&#45;&gt;Node4 -->
<g id="edge15" class="edge">
<title>Node10&#45;&gt;Node4</title>
<path fill="none" stroke="#191970" d="M352.5891,-56.3733C332.6838,-47.3838 302.7619,-33.8706 280.3454,-23.7471"/>
<polygon fill="#191970" stroke="#191970" points="281.4979,-20.4272 270.9436,-19.5011 278.6168,-26.8068 281.4979,-20.4272"/>
</g>
<!-- Node10&#45;&gt;Node5 -->
<g id="edge16" class="edge">
<title>Node10&#45;&gt;Node5</title>
<path fill="none" stroke="#191970" d="M370.9443,-56.2455C368.7016,-48.8579 365.5478,-38.4689 362.7974,-29.4087"/>
<polygon fill="#191970" stroke="#191970" points="366.0866,-28.1948 359.8327,-19.6427 359.3885,-30.2282 366.0866,-28.1948"/>
</g>
<!-- Node11&#45;&gt;Node1 -->
<g id="edge21" class="edge">
<title>Node11&#45;&gt;Node1</title>
<path fill="none" stroke="#191970" d="M94.2339,-168.2455C107.7358,-159.6534 127.6176,-147.0014 143.174,-137.1018"/>
<polygon fill="#191970" stroke="#191970" points="145.1951,-139.9643 151.7527,-131.6427 141.4369,-134.0587 145.1951,-139.9643"/>
</g>
<!-- Node11&#45;&gt;Node2 -->
<g id="edge19" class="edge">
<title>Node11&#45;&gt;Node2</title>
<path fill="none" stroke="#191970" d="M62.3392,-168.4905C43.4166,-156.3105 16.4601,-134.1213 27.9054,-112 34.9601,-98.365 48.125,-87.9036 60.7718,-80.4282"/>
<polygon fill="#191970" stroke="#191970" points="62.6892,-83.3692 69.7942,-75.5099 59.3388,-77.2231 62.6892,-83.3692"/>
</g>
<!-- Node12 -->
<g id="node13" class="node">
<title>Node12</title>
<g id="a_node13"><a xlink:title=" ">
<polygon fill="none" stroke="#bfbfbf" points="36.9054,-112.5 36.9054,-131.5 98.9054,-131.5 98.9054,-112.5 36.9054,-112.5"/>
<text text-anchor="middle" x="67.9054" y="-119.5" font-family="Helvetica,sans-Serif" font-size="10.00" fill="#000000">vector</text>
</a>
</g>
</g>
<!-- Node11&#45;&gt;Node12 -->
<g id="edge20" class="edge">
<title>Node11&#45;&gt;Node12</title>
<path fill="none" stroke="#191970" d="M76.9894,-168.2455C75.554,-160.9382 73.5418,-150.6944 71.776,-141.7046"/>
<polygon fill="#191970" stroke="#191970" points="75.1614,-140.7805 69.7995,-131.6427 68.2927,-142.1298 75.1614,-140.7805"/>
</g>
</g>
</svg>
        <g id="navigator" transform="translate(0 0)" fill="#404254">
                <rect fill="#f2f5e9" fill-opacity="0.5" stroke="#606060" stroke-width=".5" x="0" y="0" width="60" height="60"/>
                <use id="zoomplus" xlink:href="#zoomPlus" x="17" y="9" onmousedown="handleZoom(evt,'in')"/>
                <use id="zoomminus" xlink:href="#zoomMin" x="42" y="9" onmousedown="handleZoom(evt,'out')"/>
                <use id="reset" xlink:href="#resetDef" x="30" y="36" onmousedown="handleReset()"/>
                <g id="arrowUp" xlink:href="#dirArrow" transform="translate(30 24)" onmousedown="handlePan(0,-1)">
                  <use xlink:href="#rim" fill="#404040">
                        <set attributeName="fill" to="#808080" begin="arrowUp.mouseover" end="arrowUp.mouseout"/>
                  </use>
                  <path fill="none" stroke="white" stroke-width="1.5" d="M0,-3.0v7 M-2.5,-0.5L0,-3.0L2.5,-0.5"/>
                </g>
                <g id="arrowRight" xlink:href="#dirArrow" transform="rotate(90) translate(36 -43)" onmousedown="handlePan(1,0)">
                  <use xlink:href="#rim" fill="#404040">
                        <set attributeName="fill" to="#808080" begin="arrowRight.mouseover" end="arrowRight.mouseout"/>
                  </use>
                  <path fill="none" stroke="white" stroke-width="1.5" d="M0,-3.0v7 M-2.5,-0.5L0,-3.0L2.5,-0.5"/>
                </g>
                <g id="arrowDown" xlink:href="#dirArrow" transform="rotate(180) translate(-30 -48)" onmousedown="handlePan(0,1)">
                  <use xlink:href="#rim" fill="#404040">
                        <set attributeName="fill" to="#808080" begin="arrowDown.mouseover" end="arrowDown.mouseout"/>
                  </use>
                  <path fill="none" stroke="white" stroke-width="1.5" d="M0,-3.0v7 M-2.5,-0.5L0,-3.0L2.5,-0.5"/>
                </g>
                <g id="arrowLeft" xlink:href="#dirArrow" transform="rotate(270) translate(-36 17)" onmousedown="handlePan(-1,0)">
                  <use xlink:href="#rim" fill="#404040">
                        <set attributeName="fill" to="#808080" begin="arrowLeft.mouseover" end="arrowLeft.mouseout"/>
                  </use>
                  <path fill="none" stroke="white" stroke-width="1.5" d="M0,-3.0v7 M-2.5,-0.5L0,-3.0L2.5,-0.5"/>
                </g>
        </g>
        <svg viewBox="0 0 15 15" width="100%" height="30px" preserveAspectRatio="xMaxYMin meet">
         <g id="arrow_out" transform="scale(0.3 0.3)">
          <a xlink:href="FloodFilledImage_8h__incl_org.svg" target="_base">
           <rect id="button" ry="5" rx="5" y="6" x="6" height="38" width="38"
                fill="#f2f5e9" fill-opacity="0.5" stroke="#606060" stroke-width="1.0"/>
           <path id="arrow"
             d="M 11.500037,31.436501 C 11.940474,20.09759 22.043105,11.32322 32.158766,21.979434 L 37.068811,17.246167 C 37.068811,17.246167 37.088388,32 37.088388,32 L 22.160133,31.978069 C 22.160133,31.978069 26.997745,27.140456 26.997745,27.140456 C 18.528582,18.264221 13.291696,25.230495 11.500037,31.436501 z"
             style="fill:#404040;"/>
          </a>
         </g>
        </svg>
</svg>
