<?xml version="1.0" encoding="UTF-8" standalone="no"?>
<!DOCTYPE svg PUBLIC "-//W3C//DTD SVG 1.1//EN"
 "http://www.w3.org/Graphics/SVG/1.1/DTD/svg11.dtd">
<!-- Generated by graphviz version 2.40.1 (0)
 -->
<!-- Title: FloodFilledImage.h Pages: 1 -->
<svg width="270pt" height="84pt"
 viewBox="0.00 0.00 270.00 84.00" xmlns="http://www.w3.org/2000/svg" xmlns:xlink="http://www.w3.org/1999/xlink">
<g id="graph0" class="graph" transform="scale(1 1) rotate(0) translate(4 80)">
<title>FloodFilledImage.h</title>
<!-- Node13 -->
<g id="node1" class="node">
<title>Node13</title>
<g id="a_node1"><a xlink:title="Definition for a class to do flood fill on an image.">
<polygon fill="#bfbfbf" stroke="#000000" points="77.5,-56.5 77.5,-75.5 229.5,-75.5 229.5,-56.5 77.5,-56.5"/>
<text text-anchor="middle" x="153.5" y="-63.5" font-family="Helvetica,sans-Serif" font-size="10.00" fill="#000000">FloodFilledImage.h</text>
</a>
</g>
</g>
<!-- Node14 -->
<g id="node2" class="node">
<title>Node14</title>
<g id="a_node2"><a xlink:href="FloodFilledImage_8cpp.html" target="_top" xlink:title=" ">
<polygon fill="none" stroke="#000000" points="0,-.5 0,-19.5 167,-19.5 167,-.5 0,-.5"/>
<text text-anchor="middle" x="83.5" y="-7.5" font-family="Helvetica,sans-Serif" font-size="10.00" fill="#000000">FloodFilledImage.cpp</text>
</a>
</g>
</g>
<!-- Node13&#45;&gt;Node14 -->
<g id="edge1" class="edge">
<title>Node13&#45;&gt;Node14</title>
<path fill="none" stroke="#191970" d="M133.41,-49.928C121.1747,-40.1397 105.9493,-27.9595 95.5533,-19.6427"/>
<polygon fill="#191970" stroke="#191970" points="131.3118,-52.7316 141.3069,-56.2455 135.6847,-47.2655 131.3118,-52.7316"/>
</g>
<!-- Node15 -->
<g id="node3" class="node">
<title>Node15</title>
<g id="a_node3"><a xlink:href="main_8cpp.html" target="_top" xlink:title=" ">
<polygon fill="none" stroke="#000000" points="185,-.5 185,-19.5 262,-19.5 262,-.5 185,-.5"/>
<text text-anchor="middle" x="223.5" y="-7.5" font-family="Helvetica,sans-Serif" font-size="10.00" fill="#000000">main.cpp</text>
</a>
</g>
</g>
<!-- Node13&#45;&gt;Node15 -->
<g id="edge2" class="edge">
<title>Node13&#45;&gt;Node15</title>
<path fill="none" stroke="#191970" d="M173.59,-49.928C185.8253,-40.1397 201.0507,-27.9595 211.4467,-19.6427"/>
<polygon fill="#191970" stroke="#191970" points="171.3153,-47.2655 165.6931,-56.2455 175.6882,-52.7316 171.3153,-47.2655"/>
</g>
</g>
</svg>
