<?xml version="1.0" encoding="UTF-8" standalone="no"?>
<!DOCTYPE svg PUBLIC "-//W3C//DTD SVG 1.1//EN"
 "http://www.w3.org/Graphics/SVG/1.1/DTD/svg11.dtd">
<!-- Generated by graphviz version 2.40.1 (0)
 -->
<!-- Title: colorPicker/GradientColorPicker.cpp Pages: 1 -->
<svg width="369pt" height="263pt"
 viewBox="0.00 0.00 369.00 263.00" xmlns="http://www.w3.org/2000/svg" xmlns:xlink="http://www.w3.org/1999/xlink">
<g id="graph0" class="graph" transform="scale(1 1) rotate(0) translate(4 259)">
<title>colorPicker/GradientColorPicker.cpp</title>
<!-- Node0 -->
<g id="node1" class="node">
<title>Node0</title>
<g id="a_node1"><a xlink:title=" ">
<polygon fill="#bfbfbf" stroke="#000000" points="18,-224.5 18,-254.5 222,-254.5 222,-224.5 18,-224.5"/>
<text text-anchor="start" x="26" y="-242.5" font-family="Helvetica,sans-Serif" font-size="10.00" fill="#000000">colorPicker/GradientColor</text>
<text text-anchor="middle" x="120" y="-231.5" font-family="Helvetica,sans-Serif" font-size="10.00" fill="#000000">Picker.cpp</text>
</a>
</g>
</g>
<!-- Node1 -->
<g id="node2" class="node">
<title>Node1</title>
<g id="a_node2"><a xlink:title=" ">
<polygon fill="none" stroke="#bfbfbf" points="0,-168.5 0,-187.5 54,-187.5 54,-168.5 0,-168.5"/>
<text text-anchor="middle" x="27" y="-175.5" font-family="Helvetica,sans-Serif" font-size="10.00" fill="#000000">cmath</text>
</a>
</g>
</g>
<!-- Node0&#45;&gt;Node1 -->
<g id="edge1" class="edge">
<title>Node0&#45;&gt;Node1</title>
<path fill="none" stroke="#191970" d="M97.0112,-224.2977C82.8034,-214.9022 64.6215,-202.8787 50.3475,-193.4395"/>
<polygon fill="#191970" stroke="#191970" points="51.8845,-190.2598 41.6128,-187.6633 48.0233,-196.0986 51.8845,-190.2598"/>
</g>
<!-- Node2 -->
<g id="node3" class="node">
<title>Node2</title>
<g id="a_node3"><a xlink:href="HSLAPixel_8h.html" target="_top" xlink:title=" ">
<polygon fill="none" stroke="#000000" points="83.5,-56.5 83.5,-75.5 250.5,-75.5 250.5,-56.5 83.5,-56.5"/>
<text text-anchor="middle" x="167" y="-63.5" font-family="Helvetica,sans-Serif" font-size="10.00" fill="#000000">../cs225/HSLAPixel.h</text>
</a>
</g>
</g>
<!-- Node0&#45;&gt;Node2 -->
<g id="edge2" class="edge">
<title>Node0&#45;&gt;Node2</title>
<path fill="none" stroke="#191970" d="M112.1948,-224.3919C100.4965,-199.4873 81.7389,-148.9022 101,-112 108.1245,-98.3502 121.3523,-87.926 134.1056,-80.4806"/>
<polygon fill="#191970" stroke="#191970" points="136.0647,-83.4012 143.2141,-75.5822 132.7492,-77.2362 136.0647,-83.4012"/>
</g>
<!-- Node5 -->
<g id="node6" class="node">
<title>Node5</title>
<g id="a_node6"><a xlink:href="Point_8h.html" target="_top" xlink:title="every 2D point of the image is represented by a Point class you need to trverse all the points of the...">
<polygon fill="none" stroke="#000000" points="269,-56.5 269,-75.5 361,-75.5 361,-56.5 269,-56.5"/>
<text text-anchor="middle" x="315" y="-63.5" font-family="Helvetica,sans-Serif" font-size="10.00" fill="#000000">../Point.h</text>
</a>
</g>
</g>
<!-- Node0&#45;&gt;Node5 -->
<g id="edge5" class="edge">
<title>Node0&#45;&gt;Node5</title>
<path fill="none" stroke="#191970" d="M222.1023,-226.659C268.8036,-218.4801 316.8814,-205.9791 331,-188 354.411,-158.1877 337.6803,-111.0889 325.2082,-84.9911"/>
<polygon fill="#191970" stroke="#191970" points="328.1994,-83.1497 320.5704,-75.7979 321.9497,-86.3026 328.1994,-83.1497"/>
</g>
<!-- Node6 -->
<g id="node7" class="node">
<title>Node6</title>
<g id="a_node7"><a xlink:href="ColorPicker_8h.html" target="_top" xlink:title=" ">
<polygon fill="none" stroke="#000000" points="110,-112.5 110,-131.5 224,-131.5 224,-112.5 110,-112.5"/>
<text text-anchor="middle" x="167" y="-119.5" font-family="Helvetica,sans-Serif" font-size="10.00" fill="#000000">ColorPicker.h</text>
</a>
</g>
</g>
<!-- Node0&#45;&gt;Node6 -->
<g id="edge8" class="edge">
<title>Node0&#45;&gt;Node6</title>
<path fill="none" stroke="#191970" d="M122.7202,-224.2943C125.6654,-209.5267 131.0364,-186.6657 139,-168 143.1051,-158.3782 148.9706,-148.3797 154.2735,-140.172"/>
<polygon fill="#191970" stroke="#191970" points="157.2371,-142.0368 159.8978,-131.7815 151.4225,-138.1392 157.2371,-142.0368"/>
</g>
<!-- Node7 -->
<g id="node8" class="node">
<title>Node7</title>
<g id="a_node8"><a xlink:href="GradientColorPicker_8h.html" target="_top" xlink:title=" ">
<polygon fill="none" stroke="#000000" points="148,-168.5 148,-187.5 322,-187.5 322,-168.5 148,-168.5"/>
<text text-anchor="middle" x="235" y="-175.5" font-family="Helvetica,sans-Serif" font-size="10.00" fill="#000000">GradientColorPicker.h</text>
</a>
</g>
</g>
<!-- Node0&#45;&gt;Node7 -->
<g id="edge10" class="edge">
<title>Node0&#45;&gt;Node7</title>
<path fill="none" stroke="#191970" d="M148.1322,-224.4554C166.4786,-214.644 190.2777,-201.9167 208.3251,-192.2653"/>
<polygon fill="#191970" stroke="#191970" points="210.0114,-195.3326 217.1791,-187.5303 206.7103,-189.1598 210.0114,-195.3326"/>
</g>
<!-- Node3 -->
<g id="node4" class="node">
<title>Node3</title>
<g id="a_node4"><a xlink:title=" ">
<polygon fill="none" stroke="#bfbfbf" points="261.5,-.5 261.5,-19.5 338.5,-19.5 338.5,-.5 261.5,-.5"/>
<text text-anchor="middle" x="300" y="-7.5" font-family="Helvetica,sans-Serif" font-size="10.00" fill="#000000">iostream</text>
</a>
</g>
</g>
<!-- Node2&#45;&gt;Node3 -->
<g id="edge3" class="edge">
<title>Node2&#45;&gt;Node3</title>
<path fill="none" stroke="#191970" d="M189.8635,-56.3733C211.405,-47.3032 243.8838,-33.6279 267.9956,-23.4755"/>
<polygon fill="#191970" stroke="#191970" points="269.5767,-26.6075 277.4348,-19.5011 266.8603,-20.156 269.5767,-26.6075"/>
</g>
<!-- Node4 -->
<g id="node5" class="node">
<title>Node4</title>
<g id="a_node5"><a xlink:title=" ">
<polygon fill="none" stroke="#bfbfbf" points="160.5,-.5 160.5,-19.5 229.5,-19.5 229.5,-.5 160.5,-.5"/>
<text text-anchor="middle" x="195" y="-7.5" font-family="Helvetica,sans-Serif" font-size="10.00" fill="#000000">sstream</text>
</a>
</g>
</g>
<!-- Node2&#45;&gt;Node4 -->
<g id="edge4" class="edge">
<title>Node2&#45;&gt;Node4</title>
<path fill="none" stroke="#191970" d="M171.8772,-56.2455C175.6513,-48.6973 180.9921,-38.0158 185.5901,-28.8197"/>
<polygon fill="#191970" stroke="#191970" points="188.837,-30.1522 190.1787,-19.6427 182.576,-27.0217 188.837,-30.1522"/>
</g>
<!-- Node5&#45;&gt;Node3 -->
<g id="edge6" class="edge">
<title>Node5&#45;&gt;Node3</title>
<path fill="none" stroke="#191970" d="M312.3872,-56.2455C310.4084,-48.8579 307.6256,-38.4689 305.1988,-29.4087"/>
<polygon fill="#191970" stroke="#191970" points="308.5511,-28.3966 302.5829,-19.6427 301.7895,-30.2078 308.5511,-28.3966"/>
</g>
<!-- Node5&#45;&gt;Node4 -->
<g id="edge7" class="edge">
<title>Node5&#45;&gt;Node4</title>
<path fill="none" stroke="#191970" d="M294.3713,-56.3733C275.1081,-47.3838 246.1514,-33.8706 224.4581,-23.7471"/>
<polygon fill="#191970" stroke="#191970" points="225.9015,-20.5584 215.3595,-19.5011 222.9413,-26.9017 225.9015,-20.5584"/>
</g>
<!-- Node6&#45;&gt;Node2 -->
<g id="edge9" class="edge">
<title>Node6&#45;&gt;Node2</title>
<path fill="none" stroke="#191970" d="M167,-112.2455C167,-104.9382 167,-94.6944 167,-85.7046"/>
<polygon fill="#191970" stroke="#191970" points="170.5001,-85.6426 167,-75.6427 163.5001,-85.6427 170.5001,-85.6426"/>
</g>
<!-- Node7&#45;&gt;Node2 -->
<g id="edge12" class="edge">
<title>Node7&#45;&gt;Node2</title>
<path fill="none" stroke="#191970" d="M237.2617,-168.35C239.8868,-154.8431 242.7147,-129.9443 233,-112 225.616,-98.3608 212.2193,-87.8989 199.4157,-80.4242"/>
<polygon fill="#191970" stroke="#191970" points="200.7553,-77.1702 190.2919,-75.5066 197.4341,-83.3322 200.7553,-77.1702"/>
</g>
<!-- Node7&#45;&gt;Node5 -->
<g id="edge13" class="edge">
<title>Node7&#45;&gt;Node5</title>
<path fill="none" stroke="#191970" d="M241.8208,-168.4509C255.2228,-149.688 285.1752,-107.7548 302.3157,-83.758"/>
<polygon fill="#191970" stroke="#191970" points="305.2322,-85.6966 308.1965,-75.5249 299.536,-81.6279 305.2322,-85.6966"/>
</g>
<!-- Node7&#45;&gt;Node6 -->
<g id="edge11" class="edge">
<title>Node7&#45;&gt;Node6</title>
<path fill="none" stroke="#191970" d="M223.1553,-168.2455C213.112,-159.9746 198.5005,-147.9416 186.6996,-138.2232"/>
<polygon fill="#191970" stroke="#191970" points="188.6533,-135.298 178.709,-131.6427 184.2033,-140.7015 188.6533,-135.298"/>
</g>
</g>
</svg>
