<?xml version="1.0" encoding="UTF-8" standalone="no"?>
<!DOCTYPE svg PUBLIC "-//W3C//DTD SVG 1.1//EN"
 "http://www.w3.org/Graphics/SVG/1.1/DTD/svg11.dtd">
<!-- Generated by graphviz version 2.40.1 (0)
 -->
<!-- Title: colorPicker/GridColorPicker.cpp Pages: 1 -->
<svg width="304pt" height="252pt"
 viewBox="0.00 0.00 303.50 252.00" xmlns="http://www.w3.org/2000/svg" xmlns:xlink="http://www.w3.org/1999/xlink">
<g id="graph0" class="graph" transform="scale(1 1) rotate(0) translate(4 248)">
<title>colorPicker/GridColorPicker.cpp</title>
<!-- Node0 -->
<g id="node1" class="node">
<title>Node0</title>
<g id="a_node1"><a xlink:title=" ">
<polygon fill="#bfbfbf" stroke="#000000" points="0,-224.5 0,-243.5 249,-243.5 249,-224.5 0,-224.5"/>
<text text-anchor="middle" x="124.5" y="-231.5" font-family="Helvetica,sans-Serif" font-size="10.00" fill="#000000">colorPicker/GridColorPicker.cpp</text>
</a>
</g>
</g>
<!-- Node1 -->
<g id="node2" class="node">
<title>Node1</title>
<g id="a_node2"><a xlink:href="HSLAPixel_8h.html" target="_top" xlink:title=" ">
<polygon fill="none" stroke="#000000" points="18,-56.5 18,-75.5 185,-75.5 185,-56.5 18,-56.5"/>
<text text-anchor="middle" x="101.5" y="-63.5" font-family="Helvetica,sans-Serif" font-size="10.00" fill="#000000">../cs225/HSLAPixel.h</text>
</a>
</g>
</g>
<!-- Node0&#45;&gt;Node1 -->
<g id="edge1" class="edge">
<title>Node0&#45;&gt;Node1</title>
<path fill="none" stroke="#191970" d="M111.6183,-224.4726C90.8752,-208.2291 50.8467,-172.9307 35.5,-132 32.3793,-123.6769 31.387,-119.8801 35.5,-112 42.6245,-98.3502 55.8523,-87.926 68.6056,-80.4806"/>
<polygon fill="#191970" stroke="#191970" points="70.5647,-83.4012 77.7141,-75.5822 67.2492,-77.2362 70.5647,-83.4012"/>
</g>
<!-- Node4 -->
<g id="node5" class="node">
<title>Node4</title>
<g id="a_node5"><a xlink:href="Point_8h.html" target="_top" xlink:title="every 2D point of the image is represented by a Point class you need to trverse all the points of the...">
<polygon fill="none" stroke="#000000" points="203.5,-56.5 203.5,-75.5 295.5,-75.5 295.5,-56.5 203.5,-56.5"/>
<text text-anchor="middle" x="249.5" y="-63.5" font-family="Helvetica,sans-Serif" font-size="10.00" fill="#000000">../Point.h</text>
</a>
</g>
</g>
<!-- Node0&#45;&gt;Node4 -->
<g id="edge4" class="edge">
<title>Node0&#45;&gt;Node4</title>
<path fill="none" stroke="#191970" d="M167.903,-224.4577C201.868,-216.0075 245.0467,-202.7497 255.5,-188 277.1619,-157.4349 266.0697,-110.957 257.1137,-85.0838"/>
<polygon fill="#191970" stroke="#191970" points="260.3786,-83.8216 253.6247,-75.6585 253.8139,-86.2516 260.3786,-83.8216"/>
</g>
<!-- Node5 -->
<g id="node6" class="node">
<title>Node5</title>
<g id="a_node6"><a xlink:href="ColorPicker_8h.html" target="_top" xlink:title=" ">
<polygon fill="none" stroke="#000000" points="44.5,-112.5 44.5,-131.5 158.5,-131.5 158.5,-112.5 44.5,-112.5"/>
<text text-anchor="middle" x="101.5" y="-119.5" font-family="Helvetica,sans-Serif" font-size="10.00" fill="#000000">ColorPicker.h</text>
</a>
</g>
</g>
<!-- Node0&#45;&gt;Node5 -->
<g id="edge7" class="edge">
<title>Node0&#45;&gt;Node5</title>
<path fill="none" stroke="#191970" d="M115.4259,-224.3243C107.9037,-215.5913 97.7769,-201.9994 93.5,-188 88.863,-172.822 91.5151,-154.9084 94.9638,-141.5764"/>
<polygon fill="#191970" stroke="#191970" points="98.4297,-142.1977 97.9057,-131.6159 91.7164,-140.2149 98.4297,-142.1977"/>
</g>
<!-- Node6 -->
<g id="node7" class="node">
<title>Node6</title>
<g id="a_node7"><a xlink:href="GridColorPicker_8h.html" target="_top" xlink:title=" ">
<polygon fill="none" stroke="#000000" points="102.5,-168.5 102.5,-187.5 246.5,-187.5 246.5,-168.5 102.5,-168.5"/>
<text text-anchor="middle" x="174.5" y="-175.5" font-family="Helvetica,sans-Serif" font-size="10.00" fill="#000000">GridColorPicker.h</text>
</a>
</g>
</g>
<!-- Node0&#45;&gt;Node6 -->
<g id="edge9" class="edge">
<title>Node0&#45;&gt;Node6</title>
<path fill="none" stroke="#191970" d="M133.2093,-224.2455C140.3073,-216.2958 150.5084,-204.8706 158.995,-195.3656"/>
<polygon fill="#191970" stroke="#191970" points="161.8411,-197.4331 165.8905,-187.6427 156.6195,-192.771 161.8411,-197.4331"/>
</g>
<!-- Node2 -->
<g id="node3" class="node">
<title>Node2</title>
<g id="a_node3"><a xlink:title=" ">
<polygon fill="none" stroke="#bfbfbf" points="91,-.5 91,-19.5 168,-19.5 168,-.5 91,-.5"/>
<text text-anchor="middle" x="129.5" y="-7.5" font-family="Helvetica,sans-Serif" font-size="10.00" fill="#000000">iostream</text>
</a>
</g>
</g>
<!-- Node1&#45;&gt;Node2 -->
<g id="edge2" class="edge">
<title>Node1&#45;&gt;Node2</title>
<path fill="none" stroke="#191970" d="M106.3772,-56.2455C110.1513,-48.6973 115.4921,-38.0158 120.0901,-28.8197"/>
<polygon fill="#191970" stroke="#191970" points="123.337,-30.1522 124.6787,-19.6427 117.076,-27.0217 123.337,-30.1522"/>
</g>
<!-- Node3 -->
<g id="node4" class="node">
<title>Node3</title>
<g id="a_node4"><a xlink:title=" ">
<polygon fill="none" stroke="#bfbfbf" points="200,-.5 200,-19.5 269,-19.5 269,-.5 200,-.5"/>
<text text-anchor="middle" x="234.5" y="-7.5" font-family="Helvetica,sans-Serif" font-size="10.00" fill="#000000">sstream</text>
</a>
</g>
</g>
<!-- Node1&#45;&gt;Node3 -->
<g id="edge3" class="edge">
<title>Node1&#45;&gt;Node3</title>
<path fill="none" stroke="#191970" d="M124.3635,-56.3733C145.905,-47.3032 178.3838,-33.6279 202.4956,-23.4755"/>
<polygon fill="#191970" stroke="#191970" points="204.0767,-26.6075 211.9348,-19.5011 201.3603,-20.156 204.0767,-26.6075"/>
</g>
<!-- Node4&#45;&gt;Node2 -->
<g id="edge5" class="edge">
<title>Node4&#45;&gt;Node2</title>
<path fill="none" stroke="#191970" d="M228.8713,-56.3733C209.6081,-47.3838 180.6514,-33.8706 158.9581,-23.7471"/>
<polygon fill="#191970" stroke="#191970" points="160.4015,-20.5584 149.8595,-19.5011 157.4413,-26.9017 160.4015,-20.5584"/>
</g>
<!-- Node4&#45;&gt;Node3 -->
<g id="edge6" class="edge">
<title>Node4&#45;&gt;Node3</title>
<path fill="none" stroke="#191970" d="M246.8872,-56.2455C244.9084,-48.8579 242.1256,-38.4689 239.6988,-29.4087"/>
<polygon fill="#191970" stroke="#191970" points="243.0511,-28.3966 237.0829,-19.6427 236.2895,-30.2078 243.0511,-28.3966"/>
</g>
<!-- Node5&#45;&gt;Node1 -->
<g id="edge8" class="edge">
<title>Node5&#45;&gt;Node1</title>
<path fill="none" stroke="#191970" d="M101.5,-112.2455C101.5,-104.9382 101.5,-94.6944 101.5,-85.7046"/>
<polygon fill="#191970" stroke="#191970" points="105.0001,-85.6426 101.5,-75.6427 98.0001,-85.6427 105.0001,-85.6426"/>
</g>
<!-- Node6&#45;&gt;Node1 -->
<g id="edge11" class="edge">
<title>Node6&#45;&gt;Node1</title>
<path fill="none" stroke="#191970" d="M175.8533,-168.2697C177.2444,-154.6674 177.9373,-129.6559 167.5,-112 159.5502,-98.552 145.9479,-88.074 133.1501,-80.5379"/>
<polygon fill="#191970" stroke="#191970" points="134.5189,-77.2974 124.0658,-75.5701 131.1603,-83.439 134.5189,-77.2974"/>
</g>
<!-- Node6&#45;&gt;Node4 -->
<g id="edge12" class="edge">
<title>Node6&#45;&gt;Node4</title>
<path fill="none" stroke="#191970" d="M180.8945,-168.4509C193.4036,-149.7707 221.2921,-108.1238 237.3954,-84.0761"/>
<polygon fill="#191970" stroke="#191970" points="240.4658,-85.7814 243.1217,-75.5249 234.6494,-81.8865 240.4658,-85.7814"/>
</g>
<!-- Node6&#45;&gt;Node5 -->
<g id="edge10" class="edge">
<title>Node6&#45;&gt;Node5</title>
<path fill="none" stroke="#191970" d="M161.7844,-168.2455C150.898,-159.8943 135.0117,-147.7076 122.28,-137.9408"/>
<polygon fill="#191970" stroke="#191970" points="124.1346,-134.9523 114.0699,-131.6427 119.8739,-140.5063 124.1346,-134.9523"/>
</g>
</g>
</svg>
