<?xml version="1.0" encoding="UTF-8" standalone="no"?>
<!DOCTYPE svg PUBLIC "-//W3C//DTD SVG 1.1//EN"
 "http://www.w3.org/Graphics/SVG/1.1/DTD/svg11.dtd">
<!-- Generated by graphviz version 2.40.1 (0)
 -->
<!-- Title: colorPicker/GridColorPicker.h Pages: 1 -->
<svg width="352pt" height="84pt"
 viewBox="0.00 0.00 352.00 84.00" xmlns="http://www.w3.org/2000/svg" xmlns:xlink="http://www.w3.org/1999/xlink">
<g id="graph0" class="graph" transform="scale(1 1) rotate(0) translate(4 80)">
<title>colorPicker/GridColorPicker.h</title>
<!-- Node6 -->
<g id="node1" class="node">
<title>Node6</title>
<g id="a_node1"><a xlink:title=" ">
<polygon fill="#bfbfbf" stroke="#000000" points="97.5,-56.5 97.5,-75.5 331.5,-75.5 331.5,-56.5 97.5,-56.5"/>
<text text-anchor="middle" x="214.5" y="-63.5" font-family="Helvetica,sans-Serif" font-size="10.00" fill="#000000">colorPicker/GridColorPicker.h</text>
</a>
</g>
</g>
<!-- Node7 -->
<g id="node2" class="node">
<title>Node7</title>
<g id="a_node2"><a xlink:href="GridColorPicker_8cpp.html" target="_top" xlink:title=" ">
<polygon fill="none" stroke="#000000" points="0,-.5 0,-19.5 249,-19.5 249,-.5 0,-.5"/>
<text text-anchor="middle" x="124.5" y="-7.5" font-family="Helvetica,sans-Serif" font-size="10.00" fill="#000000">colorPicker/GridColorPicker.cpp</text>
</a>
</g>
</g>
<!-- Node6&#45;&gt;Node7 -->
<g id="edge1" class="edge">
<title>Node6&#45;&gt;Node7</title>
<path fill="none" stroke="#191970" d="M190.0216,-50.769C174.0734,-40.8456 153.749,-28.1994 139.9972,-19.6427"/>
<polygon fill="#191970" stroke="#191970" points="188.4835,-53.9342 198.8232,-56.2455 192.1817,-47.9908 188.4835,-53.9342"/>
</g>
<!-- Node8 -->
<g id="node3" class="node">
<title>Node8</title>
<g id="a_node3"><a xlink:href="main_8cpp.html" target="_top" xlink:title=" ">
<polygon fill="none" stroke="#000000" points="267,-.5 267,-19.5 344,-19.5 344,-.5 267,-.5"/>
<text text-anchor="middle" x="305.5" y="-7.5" font-family="Helvetica,sans-Serif" font-size="10.00" fill="#000000">main.cpp</text>
</a>
</g>
</g>
<!-- Node6&#45;&gt;Node8 -->
<g id="edge2" class="edge">
<title>Node6&#45;&gt;Node8</title>
<path fill="none" stroke="#191970" d="M239.2504,-50.769C255.3758,-40.8456 275.926,-28.1994 289.8307,-19.6427"/>
<polygon fill="#191970" stroke="#191970" points="237.0332,-48.0237 230.351,-56.2455 240.7019,-53.9853 237.0332,-48.0237"/>
</g>
</g>
</svg>
