<?xml version="1.0" encoding="UTF-8" standalone="no"?>
<!DOCTYPE svg PUBLIC "-//W3C//DTD SVG 1.1//EN"
 "http://www.w3.org/Graphics/SVG/1.1/DTD/svg11.dtd">
<!-- Generated by graphviz version 2.40.1 (0)
 -->
<!-- Title: cs225/HSLAPixel.cpp Pages: 1 -->
<svg width="247pt" height="140pt"
 viewBox="0.00 0.00 246.50 140.00" xmlns="http://www.w3.org/2000/svg" xmlns:xlink="http://www.w3.org/1999/xlink">
<g id="graph0" class="graph" transform="scale(1 1) rotate(0) translate(4 136)">
<title>cs225/HSLAPixel.cpp</title>
<!-- Node0 -->
<g id="node1" class="node">
<title>Node0</title>
<g id="a_node1"><a xlink:title="Implementation of the HSLAPixel class for use in with the PNG library.">
<polygon fill="#bfbfbf" stroke="#000000" points="37,-112.5 37,-131.5 196,-131.5 196,-112.5 37,-112.5"/>
<text text-anchor="middle" x="116.5" y="-119.5" font-family="Helvetica,sans-Serif" font-size="10.00" fill="#000000">cs225/HSLAPixel.cpp</text>
</a>
</g>
</g>
<!-- Node1 -->
<g id="node2" class="node">
<title>Node1</title>
<g id="a_node2"><a xlink:href="HSLAPixel_8h.html" target="_top" xlink:title=" ">
<polygon fill="none" stroke="#000000" points="67,-56.5 67,-75.5 166,-75.5 166,-56.5 67,-56.5"/>
<text text-anchor="middle" x="116.5" y="-63.5" font-family="Helvetica,sans-Serif" font-size="10.00" fill="#000000">HSLAPixel.h</text>
</a>
</g>
</g>
<!-- Node0&#45;&gt;Node1 -->
<g id="edge1" class="edge">
<title>Node0&#45;&gt;Node1</title>
<path fill="none" stroke="#191970" d="M116.5,-112.2455C116.5,-104.9382 116.5,-94.6944 116.5,-85.7046"/>
<polygon fill="#191970" stroke="#191970" points="120.0001,-85.6426 116.5,-75.6427 113.0001,-85.6427 120.0001,-85.6426"/>
</g>
<!-- Node2 -->
<g id="node3" class="node">
<title>Node2</title>
<g id="a_node3"><a xlink:title=" ">
<polygon fill="none" stroke="#bfbfbf" points="0,-.5 0,-19.5 77,-19.5 77,-.5 0,-.5"/>
<text text-anchor="middle" x="38.5" y="-7.5" font-family="Helvetica,sans-Serif" font-size="10.00" fill="#000000">iostream</text>
</a>
</g>
</g>
<!-- Node0&#45;&gt;Node2 -->
<g id="edge5" class="edge">
<title>Node0&#45;&gt;Node2</title>
<path fill="none" stroke="#191970" d="M98.7913,-112.3551C85.5747,-104.2879 68.0474,-91.6026 57.5,-76 48.1208,-62.1256 43.3141,-43.6087 40.8858,-29.7198"/>
<polygon fill="#191970" stroke="#191970" points="44.3364,-29.1284 39.4063,-19.7505 37.4123,-30.156 44.3364,-29.1284"/>
</g>
<!-- Node4 -->
<g id="node5" class="node">
<title>Node4</title>
<g id="a_node5"><a xlink:title=" ">
<polygon fill="none" stroke="#bfbfbf" points="184.5,-56.5 184.5,-75.5 238.5,-75.5 238.5,-56.5 184.5,-56.5"/>
<text text-anchor="middle" x="211.5" y="-63.5" font-family="Helvetica,sans-Serif" font-size="10.00" fill="#000000">cmath</text>
</a>
</g>
</g>
<!-- Node0&#45;&gt;Node4 -->
<g id="edge4" class="edge">
<title>Node0&#45;&gt;Node4</title>
<path fill="none" stroke="#191970" d="M133.0477,-112.2455C147.7599,-103.5731 169.4888,-90.7645 186.3505,-80.825"/>
<polygon fill="#191970" stroke="#191970" points="188.3046,-83.736 195.1419,-75.6427 184.7498,-77.7057 188.3046,-83.736"/>
</g>
<!-- Node1&#45;&gt;Node2 -->
<g id="edge2" class="edge">
<title>Node1&#45;&gt;Node2</title>
<path fill="none" stroke="#191970" d="M102.9134,-56.2455C91.1695,-47.814 73.9801,-35.4729 60.3118,-25.6598"/>
<polygon fill="#191970" stroke="#191970" points="62.0954,-22.6316 51.9309,-19.6427 58.0129,-28.3179 62.0954,-22.6316"/>
</g>
<!-- Node3 -->
<g id="node4" class="node">
<title>Node3</title>
<g id="a_node4"><a xlink:title=" ">
<polygon fill="none" stroke="#bfbfbf" points="95,-.5 95,-19.5 164,-19.5 164,-.5 95,-.5"/>
<text text-anchor="middle" x="129.5" y="-7.5" font-family="Helvetica,sans-Serif" font-size="10.00" fill="#000000">sstream</text>
</a>
</g>
</g>
<!-- Node1&#45;&gt;Node3 -->
<g id="edge3" class="edge">
<title>Node1&#45;&gt;Node3</title>
<path fill="none" stroke="#191970" d="M118.7644,-56.2455C120.4794,-48.8579 122.8912,-38.4689 124.9944,-29.4087"/>
<polygon fill="#191970" stroke="#191970" points="128.4095,-30.1751 127.2615,-19.6427 121.5908,-28.5922 128.4095,-30.1751"/>
</g>
</g>
</svg>
