<?xml version="1.0" encoding="UTF-8" standalone="no"?>
<!DOCTYPE svg PUBLIC "-//W3C//DTD SVG 1.1//EN"
 "http://www.w3.org/Graphics/SVG/1.1/DTD/svg11.dtd">
<!-- Generated by graphviz version 2.40.1 (0)
 -->
<!-- Title: cs225/HSLAPixel.h Pages: 1 -->
<!--zoomable 274 -->
<svg id="main" version="1.1" xmlns="http://www.w3.org/2000/svg" xmlns:xlink="http://www.w3.org/1999/xlink" xml:space="preserve" onload="init(evt)">
<style type="text/css"><![CDATA[
.edge:hover path { stroke: red; }
.edge:hover polygon { stroke: red; fill: red; }
]]></style>
<script type="text/javascript"><![CDATA[
var edges = document.getElementsByTagName('g');
if (edges && edges.length) {
  for (var i=0;i<edges.length;i++) {
    if (edges[i].id.substr(0,4)=='edge') {
      edges[i].setAttribute('class','edge');
    }
  }
}
]]></script>
        <defs>
                <circle id="rim" cx="0" cy="0" r="7"/>
                <circle id="rim2" cx="0" cy="0" r="3.5"/>
                <g id="zoomPlus">
                        <use xlink:href="#rim" fill="#404040">
                                <set attributeName="fill" to="#808080" begin="zoomplus.mouseover" end="zoomplus.mouseout"/>
                        </use>
                        <path d="M-4,0h8M0,-4v8" fill="none" stroke="white" stroke-width="1.5" pointer-events="none"/>
                </g>
                <g id="zoomMin">
                        <use xlink:href="#rim" fill="#404040">
                                <set attributeName="fill" to="#808080" begin="zoomminus.mouseover" end="zoomminus.mouseout"/>
                        </use>
                        <path d="M-4,0h8" fill="none" stroke="white" stroke-width="1.5" pointer-events="none"/>
                </g>
                <g id="dirArrow">
                        <path fill="none" stroke="white" stroke-width="1.5" d="M0,-3.0v7 M-2.5,-0.5L0,-3.0L2.5,-0.5"/>
                </g>
               <g id="resetDef">
                       <use xlink:href="#rim2" fill="#404040">
                               <set attributeName="fill" to="#808080" begin="reset.mouseover" end="reset.mouseout"/>
                       </use>
               </g>
        </defs>

<script type="text/javascript">
var viewWidth = 3014;
var viewHeight = 274;
var sectionId = 'dynsection-1';
</script>
<script xlink:href="svgpan.js"/>
<svg id="graph" class="graph">
<g id="viewport">
<title>cs225/HSLAPixel.h</title>
<!-- Node3 -->
<g id="node1" class="node">
<title>Node3</title>
<g id="a_node1"><a xlink:title=" ">
<polygon fill="#bfbfbf" stroke="#000000" points="1816,-246.5 1816,-265.5 1960,-265.5 1960,-246.5 1816,-246.5"/>
<text text-anchor="middle" x="1888" y="-253.5" font-family="Helvetica,sans-Serif" font-size="10.00" fill="#000000">cs225/HSLAPixel.h</text>
</a>
</g>
</g>
<!-- Node4 -->
<g id="node2" class="node">
<title>Node4</title>
<g id="a_node2"><a xlink:href="PNG_8h.html" target="_top" xlink:title=" ">
<polygon fill="none" stroke="#000000" points="761.5,-190.5 761.5,-209.5 860.5,-209.5 860.5,-190.5 761.5,-190.5"/>
<text text-anchor="middle" x="811" y="-197.5" font-family="Helvetica,sans-Serif" font-size="10.00" fill="#000000">cs225/PNG.h</text>
</a>
</g>
</g>
<!-- Node3&#45;&gt;Node4 -->
<g id="edge1" class="edge">
<title>Node3&#45;&gt;Node4</title>
<path fill="none" stroke="#191970" d="M1805.5034,-251.7105C1592.9438,-240.6582 1031.3013,-211.4548 860.7887,-202.5888"/>
<polygon fill="#191970" stroke="#191970" points="1805.4944,-255.2147 1815.6627,-252.2387 1805.8579,-248.2241 1805.4944,-255.2147"/>
</g>
<!-- Node11 -->
<g id="node9" class="node">
<title>Node11</title>
<g id="a_node9"><a xlink:href="ImageTraversal_8h.html" target="_top" xlink:title=" ">
<polygon fill="none" stroke="#000000" points="320.5,-129 320.5,-148 569.5,-148 569.5,-129 320.5,-129"/>
<text text-anchor="middle" x="445" y="-136" font-family="Helvetica,sans-Serif" font-size="10.00" fill="#000000">imageTraversal/ImageTraversal.h</text>
</a>
</g>
</g>
<!-- Node3&#45;&gt;Node11 -->
<g id="edge65" class="edge">
<title>Node3&#45;&gt;Node11</title>
<path fill="none" stroke="#191970" d="M1805.6647,-254.6685C1580.2841,-250.7037 956.5436,-237.5024 753,-210 650.7284,-196.1813 532.5618,-164.0984 477.0017,-148.0293"/>
<polygon fill="#191970" stroke="#191970" points="1805.7118,-258.1697 1815.7713,-254.8448 1805.8339,-251.1708 1805.7118,-258.1697"/>
</g>
<!-- Node16 -->
<g id="node14" class="node">
<title>Node16</title>
<g id="a_node14"><a xlink:href="ImageTraversal_8cpp.html" target="_top" xlink:title=" ">
<polygon fill="none" stroke="#000000" points="0,-62 0,-81 264,-81 264,-62 0,-62"/>
<text text-anchor="middle" x="132" y="-69" font-family="Helvetica,sans-Serif" font-size="10.00" fill="#000000">imageTraversal/ImageTraversal.cpp</text>
</a>
</g>
</g>
<!-- Node3&#45;&gt;Node16 -->
<g id="edge66" class="edge">
<title>Node3&#45;&gt;Node16</title>
<path fill="none" stroke="#191970" d="M1805.6633,-255.5129C1606.3037,-253.7755 1081.9529,-245.8689 646,-210 450.4096,-193.9074 382.3653,-244.0628 208,-154 174.7796,-136.841 148.6398,-99.0143 137.6462,-81.1733"/>
<polygon fill="#191970" stroke="#191970" points="1805.736,-259.0135 1815.7652,-255.598 1805.7951,-252.0138 1805.736,-259.0135"/>
</g>
<!-- Node17 -->
<g id="node15" class="node">
<title>Node17</title>
<g id="a_node15"><a xlink:href="ColorPicker_8h.html" target="_top" xlink:title=" ">
<polygon fill="none" stroke="#000000" points="1786,-190.5 1786,-209.5 1990,-209.5 1990,-190.5 1786,-190.5"/>
<text text-anchor="middle" x="1888" y="-197.5" font-family="Helvetica,sans-Serif" font-size="10.00" fill="#000000">colorPicker/ColorPicker.h</text>
</a>
</g>
</g>
<!-- Node3&#45;&gt;Node17 -->
<g id="edge31" class="edge">
<title>Node3&#45;&gt;Node17</title>
<path fill="none" stroke="#191970" d="M1888,-236.1575C1888,-227.155 1888,-216.9199 1888,-209.6427"/>
<polygon fill="#191970" stroke="#191970" points="1884.5001,-236.2455 1888,-246.2455 1891.5001,-236.2456 1884.5001,-236.2455"/>
</g>
<!-- Node18 -->
<g id="node16" class="node">
<title>Node18</title>
<g id="a_node16"><a xlink:href="GradientColorPicker_8cpp.html" target="_top" xlink:title=" ">
<polygon fill="none" stroke="#000000" points="1332,-56.5 1332,-86.5 1536,-86.5 1536,-56.5 1332,-56.5"/>
<text text-anchor="start" x="1340" y="-74.5" font-family="Helvetica,sans-Serif" font-size="10.00" fill="#000000">colorPicker/GradientColor</text>
<text text-anchor="middle" x="1434" y="-63.5" font-family="Helvetica,sans-Serif" font-size="10.00" fill="#000000">Picker.cpp</text>
</a>
</g>
</g>
<!-- Node3&#45;&gt;Node18 -->
<g id="edge54" class="edge">
<title>Node3&#45;&gt;Node18</title>
<path fill="none" stroke="#191970" d="M1818.9484,-244.7311C1718.9032,-227.3658 1539.8231,-192.0648 1487,-154 1463.2443,-136.8814 1447.4853,-105.5241 1439.7011,-86.789"/>
<polygon fill="#191970" stroke="#191970" points="1818.5192,-248.2086 1828.9681,-246.4561 1819.7069,-241.3101 1818.5192,-248.2086"/>
</g>
<!-- Node19 -->
<g id="node17" class="node">
<title>Node19</title>
<g id="a_node17"><a xlink:href="GradientColorPicker_8h.html" target="_top" xlink:title=" ">
<polygon fill="none" stroke="#000000" points="1241,-123.5 1241,-153.5 1445,-153.5 1445,-123.5 1241,-123.5"/>
<text text-anchor="start" x="1249" y="-141.5" font-family="Helvetica,sans-Serif" font-size="10.00" fill="#000000">colorPicker/GradientColor</text>
<text text-anchor="middle" x="1343" y="-130.5" font-family="Helvetica,sans-Serif" font-size="10.00" fill="#000000">Picker.h</text>
</a>
</g>
</g>
<!-- Node3&#45;&gt;Node19 -->
<g id="edge55" class="edge">
<title>Node3&#45;&gt;Node19</title>
<path fill="none" stroke="#191970" d="M1805.5837,-251.5085C1699.4142,-244.9739 1521.1367,-231.2554 1459,-210 1421.6191,-197.2129 1383.6445,-170.682 1361.7583,-153.7802"/>
<polygon fill="#191970" stroke="#191970" points="1805.4329,-255.0057 1815.6267,-252.1184 1805.8573,-248.0185 1805.4329,-255.0057"/>
</g>
<!-- Node20 -->
<g id="node18" class="node">
<title>Node20</title>
<g id="a_node18"><a xlink:href="GridColorPicker_8cpp.html" target="_top" xlink:title=" ">
<polygon fill="none" stroke="#000000" points="1592.5,-62 1592.5,-81 1841.5,-81 1841.5,-62 1592.5,-62"/>
<text text-anchor="middle" x="1717" y="-69" font-family="Helvetica,sans-Serif" font-size="10.00" fill="#000000">colorPicker/GridColorPicker.cpp</text>
</a>
</g>
</g>
<!-- Node3&#45;&gt;Node20 -->
<g id="edge56" class="edge">
<title>Node3&#45;&gt;Node20</title>
<path fill="none" stroke="#191970" d="M1822.3201,-243.0047C1804.6656,-236.1881 1787.5593,-225.8061 1777,-210 1755.4853,-177.7949 1798.8597,-157.8683 1782,-123 1772.7243,-103.8166 1752.4488,-89.6013 1736.9922,-81.0213"/>
<polygon fill="#191970" stroke="#191970" points="1821.5516,-246.4436 1832.1464,-246.4367 1823.8598,-239.835 1821.5516,-246.4436"/>
</g>
<!-- Node21 -->
<g id="node19" class="node">
<title>Node21</title>
<g id="a_node19"><a xlink:href="GridColorPicker_8h.html" target="_top" xlink:title=" ">
<polygon fill="none" stroke="#000000" points="1539,-129 1539,-148 1773,-148 1773,-129 1539,-129"/>
<text text-anchor="middle" x="1656" y="-136" font-family="Helvetica,sans-Serif" font-size="10.00" fill="#000000">colorPicker/GridColorPicker.h</text>
</a>
</g>
</g>
<!-- Node3&#45;&gt;Node21 -->
<g id="edge57" class="edge">
<title>Node3&#45;&gt;Node21</title>
<path fill="none" stroke="#191970" d="M1833.7956,-243.8239C1805.9483,-236.3135 1772.0645,-225.1774 1744,-210 1712.1403,-192.77 1680.618,-163.3711 1665.4068,-148.1972"/>
<polygon fill="#191970" stroke="#191970" points="1833.2,-247.2857 1843.76,-246.4275 1834.9697,-240.5131 1833.2,-247.2857"/>
</g>
<!-- Node22 -->
<g id="node20" class="node">
<title>Node22</title>
<g id="a_node20"><a xlink:href="MyColorPicker_8cpp.html" target="_top" xlink:title=" ">
<polygon fill="none" stroke="#000000" points="1898,-62 1898,-81 2132,-81 2132,-62 1898,-62"/>
<text text-anchor="middle" x="2015" y="-69" font-family="Helvetica,sans-Serif" font-size="10.00" fill="#000000">colorPicker/MyColorPicker.cpp</text>
</a>
</g>
</g>
<!-- Node3&#45;&gt;Node22 -->
<g id="edge58" class="edge">
<title>Node3&#45;&gt;Node22</title>
<path fill="none" stroke="#191970" d="M1953.6799,-243.0047C1971.3344,-236.1881 1988.4407,-225.8061 1999,-210 2014.2432,-187.1827 1981.4426,-180.1096 1973,-154 1968.761,-140.8905 1968.3784,-135.9795 1973,-123 1979.0373,-106.0446 1993.3128,-90.6297 2003.5444,-81.174"/>
<polygon fill="#191970" stroke="#191970" points="1952.1402,-239.835 1943.8536,-246.4367 1954.4484,-246.4436 1952.1402,-239.835"/>
</g>
<!-- Node23 -->
<g id="node21" class="node">
<title>Node23</title>
<g id="a_node21"><a xlink:href="MyColorPicker_8h.html" target="_top" xlink:title=" ">
<polygon fill="none" stroke="#000000" points="1981.5,-129 1981.5,-148 2200.5,-148 2200.5,-129 1981.5,-129"/>
<text text-anchor="middle" x="2091" y="-136" font-family="Helvetica,sans-Serif" font-size="10.00" fill="#000000">colorPicker/MyColorPicker.h</text>
</a>
</g>
</g>
<!-- Node3&#45;&gt;Node23 -->
<g id="edge59" class="edge">
<title>Node3&#45;&gt;Node23</title>
<path fill="none" stroke="#191970" d="M1951.7933,-243.9618C1978.1696,-236.942 2008.1031,-226.1755 2032,-210 2056.5227,-193.4009 2076.2735,-163.726 2085.4436,-148.3469"/>
<polygon fill="#191970" stroke="#191970" points="1950.7135,-240.6246 1941.8785,-246.4722 1952.4317,-247.4105 1950.7135,-240.6246"/>
</g>
<!-- Node24 -->
<g id="node22" class="node">
<title>Node24</title>
<g id="a_node22"><a xlink:href="RainbowColorPicker_8cpp.html" target="_top" xlink:title=" ">
<polygon fill="none" stroke="#000000" points="2188.5,-56.5 2188.5,-86.5 2385.5,-86.5 2385.5,-56.5 2188.5,-56.5"/>
<text text-anchor="start" x="2196.5" y="-74.5" font-family="Helvetica,sans-Serif" font-size="10.00" fill="#000000">colorPicker/RainbowColor</text>
<text text-anchor="middle" x="2287" y="-63.5" font-family="Helvetica,sans-Serif" font-size="10.00" fill="#000000">Picker.cpp</text>
</a>
</g>
</g>
<!-- Node3&#45;&gt;Node24 -->
<g id="edge60" class="edge">
<title>Node3&#45;&gt;Node24</title>
<path fill="none" stroke="#191970" d="M1949.2543,-244.4871C2038.3526,-226.7452 2197.9928,-190.8926 2243,-154 2264.5929,-136.3002 2277.0326,-105.1427 2282.8714,-86.6012"/>
<polygon fill="#191970" stroke="#191970" points="1948.4105,-241.0861 1939.2778,-246.4568 1949.7664,-247.9535 1948.4105,-241.0861"/>
</g>
<!-- Node25 -->
<g id="node23" class="node">
<title>Node25</title>
<g id="a_node23"><a xlink:href="RainbowColorPicker_8h.html" target="_top" xlink:title=" ">
<polygon fill="none" stroke="#000000" points="2295.5,-123.5 2295.5,-153.5 2492.5,-153.5 2492.5,-123.5 2295.5,-123.5"/>
<text text-anchor="start" x="2303.5" y="-141.5" font-family="Helvetica,sans-Serif" font-size="10.00" fill="#000000">colorPicker/RainbowColor</text>
<text text-anchor="middle" x="2394" y="-130.5" font-family="Helvetica,sans-Serif" font-size="10.00" fill="#000000">Picker.h</text>
</a>
</g>
</g>
<!-- Node3&#45;&gt;Node25 -->
<g id="edge61" class="edge">
<title>Node3&#45;&gt;Node25</title>
<path fill="none" stroke="#191970" d="M1970.5668,-250.6619C2068.5328,-243.5749 2225.5725,-229.6275 2281,-210 2317.546,-197.0586 2354.4983,-170.5747 2375.7746,-153.7243"/>
<polygon fill="#191970" stroke="#191970" points="1970.1202,-247.1848 1960.395,-251.3885 1970.619,-254.167 1970.1202,-247.1848"/>
</g>
<!-- Node26 -->
<g id="node24" class="node">
<title>Node26</title>
<g id="a_node24"><a xlink:href="SolidColorPicker_8cpp.html" target="_top" xlink:title=" ">
<polygon fill="none" stroke="#000000" points="2541.5,-62 2541.5,-81 2798.5,-81 2798.5,-62 2541.5,-62"/>
<text text-anchor="middle" x="2670" y="-69" font-family="Helvetica,sans-Serif" font-size="10.00" fill="#000000">colorPicker/SolidColorPicker.cpp</text>
</a>
</g>
</g>
<!-- Node3&#45;&gt;Node26 -->
<g id="edge62" class="edge">
<title>Node3&#45;&gt;Node26</title>
<path fill="none" stroke="#191970" d="M1970.2877,-253.0071C2184.3466,-244.3719 2745.7771,-215.9717 2800,-154 2830.3631,-119.2978 2760.7814,-93.9036 2712.16,-81.0297"/>
<polygon fill="#191970" stroke="#191970" points="1969.9064,-249.5194 1960.054,-253.4155 1970.1856,-256.5138 1969.9064,-249.5194"/>
</g>
<!-- Node27 -->
<g id="node25" class="node">
<title>Node27</title>
<g id="a_node25"><a xlink:href="SolidColorPicker_8h.html" target="_top" xlink:title=" ">
<polygon fill="none" stroke="#000000" points="2549,-129 2549,-148 2791,-148 2791,-129 2549,-129"/>
<text text-anchor="middle" x="2670" y="-136" font-family="Helvetica,sans-Serif" font-size="10.00" fill="#000000">colorPicker/SolidColorPicker.h</text>
</a>
</g>
</g>
<!-- Node3&#45;&gt;Node27 -->
<g id="edge63" class="edge">
<title>Node3&#45;&gt;Node27</title>
<path fill="none" stroke="#191970" d="M1970.2056,-249.3498C2056.212,-241.8719 2195.0128,-228.3344 2314,-210 2428.796,-192.3114 2562.7588,-163.0472 2628.8336,-148.0328"/>
<polygon fill="#191970" stroke="#191970" points="1969.9044,-245.8627 1960.2424,-250.2095 1970.5062,-252.8368 1969.9044,-245.8627"/>
</g>
<!-- Node28 -->
<g id="node26" class="node">
<title>Node28</title>
<g id="a_node26"><a xlink:href="HSLAPixel_8cpp.html" target="_top" xlink:title="Implementation of the HSLAPixel class for use in with the PNG library.">
<polygon fill="none" stroke="#000000" points="2846.5,-190.5 2846.5,-209.5 3005.5,-209.5 3005.5,-190.5 2846.5,-190.5"/>
<text text-anchor="middle" x="2926" y="-197.5" font-family="Helvetica,sans-Serif" font-size="10.00" fill="#000000">cs225/HSLAPixel.cpp</text>
</a>
</g>
</g>
<!-- Node3&#45;&gt;Node28 -->
<g id="edge64" class="edge">
<title>Node3&#45;&gt;Node28</title>
<path fill="none" stroke="#191970" d="M1970.1341,-253.6186C2134.2682,-248.5025 2514.4044,-234.8616 2833,-210 2837.3712,-209.6589 2841.8549,-209.2785 2846.3786,-208.8709"/>
<polygon fill="#191970" stroke="#191970" points="1969.9981,-250.121 1960.1112,-253.9288 1970.2147,-257.1177 1969.9981,-250.121"/>
</g>
<!-- Node5 -->
<g id="node3" class="node">
<title>Node5</title>
<g id="a_node3"><a xlink:href="Animation_8h.html" target="_top" xlink:title="Defintion for a class that encapsulates creating animated images from a set of PNG object frames.">
<polygon fill="none" stroke="#000000" points="877.5,-129 877.5,-148 976.5,-148 976.5,-129 877.5,-129"/>
<text text-anchor="middle" x="927" y="-136" font-family="Helvetica,sans-Serif" font-size="10.00" fill="#000000">Animation.h</text>
</a>
</g>
</g>
<!-- Node4&#45;&gt;Node5 -->
<g id="edge2" class="edge">
<title>Node4&#45;&gt;Node5</title>
<path fill="none" stroke="#191970" d="M838.2157,-185.571C860.0459,-173.9972 890.0685,-158.0801 909.0023,-148.0419"/>
<polygon fill="#191970" stroke="#191970" points="836.3206,-182.6142 829.125,-190.3906 839.5996,-188.7987 836.3206,-182.6142"/>
</g>
<!-- Node6 -->
<g id="node4" class="node">
<title>Node6</title>
<g id="a_node4"><a xlink:href="Animation_8cpp.html" target="_top" xlink:title=" ">
<polygon fill="none" stroke="#000000" points="878,-62 878,-81 992,-81 992,-62 878,-62"/>
<text text-anchor="middle" x="935" y="-69" font-family="Helvetica,sans-Serif" font-size="10.00" fill="#000000">Animation.cpp</text>
</a>
</g>
</g>
<!-- Node4&#45;&gt;Node6 -->
<g id="edge9" class="edge">
<title>Node4&#45;&gt;Node6</title>
<path fill="none" stroke="#191970" d="M822.7201,-181.7628C833.6547,-165.4518 850.9532,-141.357 869,-123 885.0988,-106.6246 906.4664,-90.8452 920.4667,-81.1638"/>
<polygon fill="#191970" stroke="#191970" points="819.633,-180.0871 817.0599,-190.3648 825.4806,-183.935 819.633,-180.0871"/>
</g>
<!-- Node7 -->
<g id="node5" class="node">
<title>Node7</title>
<g id="a_node5"><a xlink:href="FloodFilledImage_8cpp.html" target="_top" xlink:title=" ">
<polygon fill="none" stroke="#000000" points="936.5,-.5 936.5,-19.5 1103.5,-19.5 1103.5,-.5 936.5,-.5"/>
<text text-anchor="middle" x="1020" y="-7.5" font-family="Helvetica,sans-Serif" font-size="10.00" fill="#000000">FloodFilledImage.cpp</text>
</a>
</g>
</g>
<!-- Node4&#45;&gt;Node7 -->
<g id="edge11" class="edge">
<title>Node4&#45;&gt;Node7</title>
<path fill="none" stroke="#191970" d="M813.3292,-180.2018C818.0629,-149.0765 831.7347,-88.8663 869,-56 884.7746,-42.0876 935.9212,-28.3207 974.3496,-19.5269"/>
<polygon fill="#191970" stroke="#191970" points="809.8425,-179.868 811.9625,-190.2486 816.7786,-180.8117 809.8425,-179.868"/>
</g>
<!-- Node8 -->
<g id="node6" class="node">
<title>Node8</title>
<g id="a_node6"><a xlink:href="FloodFilledImage_8h.html" target="_top" xlink:title="Definition for a class to do flood fill on an image.">
<polygon fill="none" stroke="#000000" points="1086,-62 1086,-81 1238,-81 1238,-62 1086,-62"/>
<text text-anchor="middle" x="1162" y="-69" font-family="Helvetica,sans-Serif" font-size="10.00" fill="#000000">FloodFilledImage.h</text>
</a>
</g>
</g>
<!-- Node4&#45;&gt;Node8 -->
<g id="edge24" class="edge">
<title>Node4&#45;&gt;Node8</title>
<path fill="none" stroke="#191970" d="M870.729,-197.3523C948.5413,-192.8511 1079.2369,-181.3693 1118,-154 1143.46,-136.0236 1155.48,-98.6056 1159.8987,-81.0201"/>
<polygon fill="#191970" stroke="#191970" points="870.371,-193.8667 860.581,-197.9172 870.7601,-200.8559 870.371,-193.8667"/>
</g>
<!-- Node9 -->
<g id="node7" class="node">
<title>Node9</title>
<g id="a_node7"><a xlink:href="main_8cpp.html" target="_top" xlink:title=" ">
<polygon fill="none" stroke="#000000" points="1246.5,-.5 1246.5,-19.5 1323.5,-19.5 1323.5,-.5 1246.5,-.5"/>
<text text-anchor="middle" x="1285" y="-7.5" font-family="Helvetica,sans-Serif" font-size="10.00" fill="#000000">main.cpp</text>
</a>
</g>
</g>
<!-- Node4&#45;&gt;Node9 -->
<g id="edge30" class="edge">
<title>Node4&#45;&gt;Node9</title>
<path fill="none" stroke="#191970" d="M870.8375,-194.8935C952.7592,-187.3633 1095.2316,-172.1893 1144,-154 1195.1675,-134.9159 1210.7343,-127.8304 1247,-87 1265.2153,-66.492 1276.877,-35.6859 1281.9958,-19.9797"/>
<polygon fill="#191970" stroke="#191970" points="870.3127,-191.4266 860.6705,-195.8173 870.9463,-198.3979 870.3127,-191.4266"/>
</g>
<!-- Node10 -->
<g id="node8" class="node">
<title>Node10</title>
<g id="a_node8"><a xlink:href="PNG_8cpp.html" target="_top" xlink:title="Implementation of a simple PNG class using HSLAPixels and the lodepng PNG library.">
<polygon fill="none" stroke="#000000" points="995,-129 995,-148 1109,-148 1109,-129 995,-129"/>
<text text-anchor="middle" x="1052" y="-136" font-family="Helvetica,sans-Serif" font-size="10.00" fill="#000000">cs225/PNG.cpp</text>
</a>
</g>
</g>
<!-- Node4&#45;&gt;Node10 -->
<g id="edge10" class="edge">
<title>Node4&#45;&gt;Node10</title>
<path fill="none" stroke="#191970" d="M858.36,-187.9144C904.0971,-176.2428 972.4468,-158.8009 1014.5205,-148.0643"/>
<polygon fill="#191970" stroke="#191970" points="857.2159,-184.5941 848.3918,-190.4581 858.9468,-191.3767 857.2159,-184.5941"/>
</g>
<!-- Node4&#45;&gt;Node11 -->
<g id="edge12" class="edge">
<title>Node4&#45;&gt;Node11</title>
<path fill="none" stroke="#191970" d="M751.3951,-189.9844C682.3093,-178.3757 569.2972,-159.386 501.5421,-148.0009"/>
<polygon fill="#191970" stroke="#191970" points="750.8169,-193.4363 761.2587,-191.6418 751.977,-186.533 750.8169,-193.4363"/>
</g>
<!-- Node12 -->
<g id="node10" class="node">
<title>Node12</title>
<g id="a_node10"><a xlink:href="BFS_8cpp.html" target="_top" xlink:title=" ">
<polygon fill="none" stroke="#000000" points="537,-.5 537,-19.5 719,-19.5 719,-.5 537,-.5"/>
<text text-anchor="middle" x="628" y="-7.5" font-family="Helvetica,sans-Serif" font-size="10.00" fill="#000000">imageTraversal/BFS.cpp</text>
</a>
</g>
</g>
<!-- Node4&#45;&gt;Node12 -->
<g id="edge25" class="edge">
<title>Node4&#45;&gt;Node12</title>
<path fill="none" stroke="#191970" d="M777.8852,-186.059C740.3246,-168.5145 680.0218,-134.7846 647,-87 632.5967,-66.1576 629.0827,-35.4978 628.2454,-19.9004"/>
<polygon fill="#191970" stroke="#191970" points="776.8222,-189.4205 787.3741,-190.3732 779.7194,-183.0481 776.8222,-189.4205"/>
</g>
<!-- Node13 -->
<g id="node11" class="node">
<title>Node13</title>
<g id="a_node11"><a xlink:href="BFS_8h.html" target="_top" xlink:title=" ">
<polygon fill="none" stroke="#000000" points="655.5,-62 655.5,-81 822.5,-81 822.5,-62 655.5,-62"/>
<text text-anchor="middle" x="739" y="-69" font-family="Helvetica,sans-Serif" font-size="10.00" fill="#000000">imageTraversal/BFS.h</text>
</a>
</g>
</g>
<!-- Node4&#45;&gt;Node13 -->
<g id="edge26" class="edge">
<title>Node4&#45;&gt;Node13</title>
<path fill="none" stroke="#191970" d="M800.5106,-181.2794C784.9791,-153.56 756.4168,-102.5841 744.4745,-81.2705"/>
<polygon fill="#191970" stroke="#191970" points="797.6468,-183.3286 805.5883,-190.3416 803.7535,-179.9068 797.6468,-183.3286"/>
</g>
<!-- Node14 -->
<g id="node12" class="node">
<title>Node14</title>
<g id="a_node12"><a xlink:href="DFS_8cpp.html" target="_top" xlink:title=" ">
<polygon fill="none" stroke="#000000" points="239,-.5 239,-19.5 421,-19.5 421,-.5 239,-.5"/>
<text text-anchor="middle" x="330" y="-7.5" font-family="Helvetica,sans-Serif" font-size="10.00" fill="#000000">imageTraversal/DFS.cpp</text>
</a>
</g>
</g>
<!-- Node4&#45;&gt;Node14 -->
<g id="edge27" class="edge">
<title>Node4&#45;&gt;Node14</title>
<path fill="none" stroke="#191970" d="M750.9205,-198.914C624.4879,-196.0054 340.1426,-185.9467 311,-154 275.8214,-115.4364 309.9558,-45.0867 324.3118,-19.5688"/>
<polygon fill="#191970" stroke="#191970" points="751.1245,-202.4193 761.1999,-199.1427 751.2802,-195.4211 751.1245,-202.4193"/>
</g>
<!-- Node15 -->
<g id="node13" class="node">
<title>Node15</title>
<g id="a_node13"><a xlink:href="DFS_8h.html" target="_top" xlink:title=" ">
<polygon fill="none" stroke="#000000" points="433.5,-62 433.5,-81 600.5,-81 600.5,-62 433.5,-62"/>
<text text-anchor="middle" x="517" y="-69" font-family="Helvetica,sans-Serif" font-size="10.00" fill="#000000">imageTraversal/DFS.h</text>
</a>
</g>
</g>
<!-- Node4&#45;&gt;Node15 -->
<g id="edge28" class="edge">
<title>Node4&#45;&gt;Node15</title>
<path fill="none" stroke="#191970" d="M751.2837,-192.1637C712.9357,-185.5394 662.8473,-173.8504 622,-154 601.4616,-144.019 550.3543,-100.5447 527.888,-81.0359"/>
<polygon fill="#191970" stroke="#191970" points="750.8299,-195.6362 761.268,-193.8205 751.9759,-188.7306 750.8299,-195.6362"/>
</g>
<!-- Node4&#45;&gt;Node16 -->
<g id="edge29" class="edge">
<title>Node4&#45;&gt;Node16</title>
<path fill="none" stroke="#191970" d="M751.2844,-198.0422C631.2915,-193.5865 364.9662,-180.9222 278,-154 224.3231,-137.3832 168.5982,-98.9305 144.4219,-81.0109"/>
<polygon fill="#191970" stroke="#191970" points="751.2743,-201.5441 761.3952,-198.411 751.5295,-194.5487 751.2743,-201.5441"/>
</g>
<!-- Node5&#45;&gt;Node6 -->
<g id="edge3" class="edge">
<title>Node5&#45;&gt;Node6</title>
<path fill="none" stroke="#191970" d="M929.3752,-118.6079C930.855,-106.214 932.6924,-90.8263 933.8559,-81.0817"/>
<polygon fill="#191970" stroke="#191970" points="925.8566,-118.5561 928.1462,-128.9005 932.8072,-119.3861 925.8566,-118.5561"/>
</g>
<!-- Node5&#45;&gt;Node7 -->
<g id="edge4" class="edge">
<title>Node5&#45;&gt;Node7</title>
<path fill="none" stroke="#191970" d="M957.497,-123.9944C972.7074,-115.2833 990.1307,-102.8074 1001,-87 1015.3545,-66.1239 1018.8898,-35.4789 1019.743,-19.8924"/>
<polygon fill="#191970" stroke="#191970" points="955.516,-121.087 948.3907,-128.9279 958.8505,-127.2417 955.516,-121.087"/>
</g>
<!-- Node5&#45;&gt;Node8 -->
<g id="edge5" class="edge">
<title>Node5&#45;&gt;Node8</title>
<path fill="none" stroke="#191970" d="M970.5699,-126.0779C1016.2024,-113.0678 1086.8896,-92.9145 1128.3927,-81.0817"/>
<polygon fill="#191970" stroke="#191970" points="969.3269,-122.7928 960.6698,-128.9005 971.2462,-129.5245 969.3269,-122.7928"/>
</g>
<!-- Node5&#45;&gt;Node9 -->
<g id="edge8" class="edge">
<title>Node5&#45;&gt;Node9</title>
<path fill="none" stroke="#191970" d="M953.5798,-123.9779C972.414,-113.6778 998.2713,-99.5171 1021,-87 1045.919,-73.2767 1050.3919,-66.0645 1077,-56 1134.0764,-34.4109 1203.9853,-21.5422 1246.474,-15.1212"/>
<polygon fill="#191970" stroke="#191970" points="951.7793,-120.9733 944.684,-128.8414 955.1373,-127.1153 951.7793,-120.9733"/>
</g>
<!-- Node8&#45;&gt;Node7 -->
<g id="edge6" class="edge">
<title>Node8&#45;&gt;Node7</title>
<path fill="none" stroke="#191970" d="M1130.4663,-57.8428C1103.6159,-46.2139 1065.7289,-29.8051 1042.0317,-19.5419"/>
<polygon fill="#191970" stroke="#191970" points="1129.2451,-61.128 1139.8125,-61.8906 1132.0272,-54.7046 1129.2451,-61.128"/>
</g>
<!-- Node8&#45;&gt;Node9 -->
<g id="edge7" class="edge">
<title>Node8&#45;&gt;Node9</title>
<path fill="none" stroke="#191970" d="M1190.2374,-57.3813C1213.4336,-45.7832 1245.6598,-29.6701 1265.9162,-19.5419"/>
<polygon fill="#191970" stroke="#191970" points="1188.5978,-54.2879 1181.2188,-61.8906 1191.7283,-60.5489 1188.5978,-54.2879"/>
</g>
<!-- Node11&#45;&gt;Node7 -->
<g id="edge13" class="edge">
<title>Node11&#45;&gt;Node7</title>
<path fill="none" stroke="#191970" d="M432.4426,-120.57C421.1808,-102.0932 408.7274,-73.5792 425,-56 442.1114,-37.5147 776.6815,-20.5652 936.4445,-13.4883"/>
<polygon fill="#191970" stroke="#191970" points="429.5205,-122.4966 437.9044,-128.9744 435.3899,-118.6822 429.5205,-122.4966"/>
</g>
<!-- Node11&#45;&gt;Node8 -->
<g id="edge14" class="edge">
<title>Node11&#45;&gt;Node8</title>
<path fill="none" stroke="#191970" d="M559.0199,-128.0602C671.418,-117.7403 848.0609,-101.445 1001,-87 1028.6766,-84.386 1059.0249,-81.4757 1085.8394,-78.8892"/>
<polygon fill="#191970" stroke="#191970" points="558.6592,-124.5785 549.021,-128.9781 559.2991,-131.5492 558.6592,-124.5785"/>
</g>
<!-- Node11&#45;&gt;Node12 -->
<g id="edge15" class="edge">
<title>Node11&#45;&gt;Node12</title>
<path fill="none" stroke="#191970" d="M422.5863,-122.606C401.0574,-105.4143 374.2248,-77.5743 392,-56 410.4479,-33.6092 478.4389,-21.9719 536.7335,-16.0116"/>
<polygon fill="#191970" stroke="#191970" points="420.6908,-125.5623 430.7627,-128.8498 424.9392,-119.9989 420.6908,-125.5623"/>
</g>
<!-- Node11&#45;&gt;Node13 -->
<g id="edge16" class="edge">
<title>Node11&#45;&gt;Node13</title>
<path fill="none" stroke="#191970" d="M496.6863,-126.7211C553.6107,-113.7486 644.0568,-93.1367 696.8574,-81.1039"/>
<polygon fill="#191970" stroke="#191970" points="495.7831,-123.3372 486.8108,-128.9717 497.3385,-130.1622 495.7831,-123.3372"/>
</g>
<!-- Node11&#45;&gt;Node14 -->
<g id="edge19" class="edge">
<title>Node11&#45;&gt;Node14</title>
<path fill="none" stroke="#191970" d="M407.2437,-124.8845C388.851,-116.5179 367.7852,-104.0828 354,-87 337.6443,-66.7318 332.386,-35.2681 330.7333,-19.5767"/>
<polygon fill="#191970" stroke="#191970" points="405.9962,-128.1579 416.5655,-128.8919 408.7608,-121.7269 405.9962,-128.1579"/>
</g>
<!-- Node11&#45;&gt;Node15 -->
<g id="edge20" class="edge">
<title>Node11&#45;&gt;Node15</title>
<path fill="none" stroke="#191970" d="M462.7958,-121.94C476.607,-109.0879 495.2697,-91.7212 506.7033,-81.0817"/>
<polygon fill="#191970" stroke="#191970" points="460.2522,-119.5259 455.3158,-128.9005 465.0209,-124.6504 460.2522,-119.5259"/>
</g>
<!-- Node11&#45;&gt;Node16 -->
<g id="edge23" class="edge">
<title>Node11&#45;&gt;Node16</title>
<path fill="none" stroke="#191970" d="M390.3344,-126.7984C329.6623,-113.8111 232.9005,-93.0985 176.6124,-81.0496"/>
<polygon fill="#191970" stroke="#191970" points="389.976,-130.3009 400.4871,-128.9717 391.4413,-123.456 389.976,-130.3009"/>
</g>
<!-- Node13&#45;&gt;Node9 -->
<g id="edge18" class="edge">
<title>Node13&#45;&gt;Node9</title>
<path fill="none" stroke="#191970" d="M827.9803,-60.7885C841.7137,-59.1649 855.7356,-57.5241 869,-56 1007.7804,-40.0539 1172.7289,-22.1157 1246.2749,-14.1704"/>
<polygon fill="#191970" stroke="#191970" points="827.5648,-57.3132 818.0462,-61.9659 828.3887,-64.2645 827.5648,-57.3132"/>
</g>
<!-- Node13&#45;&gt;Node12 -->
<g id="edge17" class="edge">
<title>Node13&#45;&gt;Node12</title>
<path fill="none" stroke="#191970" d="M712.6759,-56.915C691.8107,-45.3546 663.2584,-29.535 645.222,-19.5419"/>
<polygon fill="#191970" stroke="#191970" points="711.2128,-60.1057 721.6563,-61.8906 714.6053,-53.9827 711.2128,-60.1057"/>
</g>
<!-- Node15&#45;&gt;Node9 -->
<g id="edge22" class="edge">
<title>Node15&#45;&gt;Node9</title>
<path fill="none" stroke="#191970" d="M602.1203,-60.7733C617.0639,-59.0553 632.4769,-57.3886 647,-56 873.8983,-34.3056 1147.078,-17.829 1246.4724,-12.1489"/>
<polygon fill="#191970" stroke="#191970" points="601.3941,-57.3342 591.8665,-61.9682 602.2044,-64.2871 601.3941,-57.3342"/>
</g>
<!-- Node15&#45;&gt;Node14 -->
<g id="edge21" class="edge">
<title>Node15&#45;&gt;Node14</title>
<path fill="none" stroke="#191970" d="M478.234,-58.7507C442.7528,-47.0818 391.0417,-30.0752 359.0136,-19.5419"/>
<polygon fill="#191970" stroke="#191970" points="477.1883,-62.0912 487.7813,-61.8906 479.3753,-55.4416 477.1883,-62.0912"/>
</g>
<!-- Node17&#45;&gt;Node7 -->
<g id="edge52" class="edge">
<title>Node17&#45;&gt;Node7</title>
<path fill="none" stroke="#191970" d="M1889.553,-180.035C1890.8043,-148.1733 1887.9607,-86.3374 1851,-56 1843.832,-50.1165 1313.3344,-24.0675 1103.7988,-13.995"/>
<polygon fill="#191970" stroke="#191970" points="1886.0425,-180.119 1888.9624,-190.3035 1893.031,-180.521 1886.0425,-180.119"/>
</g>
<!-- Node17&#45;&gt;Node8 -->
<g id="edge53" class="edge">
<title>Node17&#45;&gt;Node8</title>
<path fill="none" stroke="#191970" d="M1775.9235,-196.8649C1601.2574,-191.2732 1279.1506,-177.8676 1232,-154 1199.655,-137.627 1176.2939,-99.0505 1166.7548,-81.0552"/>
<polygon fill="#191970" stroke="#191970" points="1775.82,-200.3633 1785.9259,-197.1817 1776.0417,-193.3668 1775.82,-200.3633"/>
</g>
<!-- Node17&#45;&gt;Node18 -->
<g id="edge32" class="edge">
<title>Node17&#45;&gt;Node18</title>
<path fill="none" stroke="#191970" d="M1775.8735,-192.6302C1687.6786,-185.5368 1572.7888,-173.0494 1530,-154 1511.8313,-145.9114 1471.3645,-108.0194 1449.213,-86.5113"/>
<polygon fill="#191970" stroke="#191970" points="1775.7012,-196.1274 1785.9459,-193.4263 1776.2528,-189.1491 1775.7012,-196.1274"/>
</g>
<!-- Node17&#45;&gt;Node19 -->
<g id="edge33" class="edge">
<title>Node17&#45;&gt;Node19</title>
<path fill="none" stroke="#191970" d="M1793.617,-189.3494C1696.3152,-178.3695 1545.0933,-161.305 1445.0641,-150.0173"/>
<polygon fill="#191970" stroke="#191970" points="1793.4107,-192.8483 1803.7401,-190.4918 1794.1957,-185.8924 1793.4107,-192.8483"/>
</g>
<!-- Node17&#45;&gt;Node20 -->
<g id="edge36" class="edge">
<title>Node17&#45;&gt;Node20</title>
<path fill="none" stroke="#191970" d="M1873.9554,-182.0915C1860.2025,-165.3618 1838.0131,-140.4205 1815,-123 1791.4001,-105.1354 1760.7298,-90.1274 1740.036,-81.004"/>
<polygon fill="#191970" stroke="#191970" points="1871.3367,-184.4199 1880.3379,-190.0082 1876.7863,-180.0264 1871.3367,-184.4199"/>
</g>
<!-- Node17&#45;&gt;Node21 -->
<g id="edge37" class="edge">
<title>Node17&#45;&gt;Node21</title>
<path fill="none" stroke="#191970" d="M1842.1309,-187.8407C1798.1032,-176.1696 1732.4973,-158.7784 1692.0799,-148.0643"/>
<polygon fill="#191970" stroke="#191970" points="1841.4416,-191.2788 1852.0046,-190.4581 1843.2353,-184.5125 1841.4416,-191.2788"/>
</g>
<!-- Node17&#45;&gt;Node22 -->
<g id="edge40" class="edge">
<title>Node17&#45;&gt;Node22</title>
<path fill="none" stroke="#191970" d="M1897.8568,-180.9013C1907.0193,-164.3396 1921.8151,-140.3672 1939,-123 1956.3764,-105.4393 1980.5721,-90.264 1996.9593,-81.0231"/>
<polygon fill="#191970" stroke="#191970" points="1894.5493,-179.6632 1892.9089,-190.1303 1900.7186,-182.9708 1894.5493,-179.6632"/>
</g>
<!-- Node17&#45;&gt;Node23 -->
<g id="edge41" class="edge">
<title>Node17&#45;&gt;Node23</title>
<path fill="none" stroke="#191970" d="M1929.5901,-187.4001C1968.1197,-175.7273 2024.5869,-158.6202 2059.504,-148.0419"/>
<polygon fill="#191970" stroke="#191970" points="1928.2744,-184.1415 1919.7188,-190.3906 1930.304,-190.8408 1928.2744,-184.1415"/>
</g>
<!-- Node17&#45;&gt;Node24 -->
<g id="edge44" class="edge">
<title>Node17&#45;&gt;Node24</title>
<path fill="none" stroke="#191970" d="M2000.5637,-191.8812C2078.4665,-184.7726 2174.3036,-172.624 2210,-154 2240.224,-138.2312 2264.9343,-105.7851 2277.6634,-86.6173"/>
<polygon fill="#191970" stroke="#191970" points="1999.835,-188.4322 1990.1862,-192.8083 2000.458,-195.4045 1999.835,-188.4322"/>
</g>
<!-- Node17&#45;&gt;Node25 -->
<g id="edge45" class="edge">
<title>Node17&#45;&gt;Node25</title>
<path fill="none" stroke="#191970" d="M1976.3071,-189.267C2065.3646,-178.4428 2202.57,-161.7667 2295.1975,-150.5086"/>
<polygon fill="#191970" stroke="#191970" points="1975.7349,-185.8107 1966.2303,-190.4918 1976.5795,-192.7596 1975.7349,-185.8107"/>
</g>
<!-- Node17&#45;&gt;Node26 -->
<g id="edge48" class="edge">
<title>Node17&#45;&gt;Node26</title>
<path fill="none" stroke="#191970" d="M2000.4245,-195.2313C2164.9529,-187.6995 2456.7775,-172.0382 2502,-154 2522.2448,-145.9248 2521.2025,-134.0325 2540,-123 2571.6139,-104.4454 2611.1623,-89.8618 2638.286,-81.0201"/>
<polygon fill="#191970" stroke="#191970" points="2000.0917,-191.7427 1990.2611,-195.6936 2000.4098,-198.7355 2000.0917,-191.7427"/>
</g>
<!-- Node17&#45;&gt;Node27 -->
<g id="edge49" class="edge">
<title>Node17&#45;&gt;Node27</title>
<path fill="none" stroke="#191970" d="M2000.38,-193.4918C2129.5263,-185.6687 2347.7726,-171.3957 2535,-154 2553.5573,-152.2758 2573.5174,-150.1397 2592.2472,-148.0101"/>
<polygon fill="#191970" stroke="#191970" points="1999.857,-190.0169 1990.086,-194.1131 2000.2788,-197.0041 1999.857,-190.0169"/>
</g>
<!-- Node19&#45;&gt;Node9 -->
<g id="edge35" class="edge">
<title>Node19&#45;&gt;Node9</title>
<path fill="none" stroke="#191970" d="M1331.9145,-113.9399C1319.0224,-85.3771 1298.3647,-39.6098 1289.3944,-19.7358"/>
<polygon fill="#191970" stroke="#191970" points="1328.8148,-115.5801 1336.1189,-123.2548 1335.195,-112.7003 1328.8148,-115.5801"/>
</g>
<!-- Node19&#45;&gt;Node18 -->
<g id="edge34" class="edge">
<title>Node19&#45;&gt;Node18</title>
<path fill="none" stroke="#191970" d="M1371.7303,-117.3469C1385.2708,-107.3776 1401.115,-95.7121 1413.4324,-86.6432"/>
<polygon fill="#191970" stroke="#191970" points="1369.627,-114.5492 1363.6493,-123.2967 1373.7773,-120.1861 1369.627,-114.5492"/>
</g>
<!-- Node21&#45;&gt;Node9 -->
<g id="edge39" class="edge">
<title>Node21&#45;&gt;Node9</title>
<path fill="none" stroke="#191970" d="M1633.7813,-123.0441C1619.4415,-112.9622 1600.4601,-99.4161 1584,-87 1566.323,-73.666 1565.1872,-65.0965 1545,-56 1506.0804,-38.4625 1386.1704,-22.0951 1323.7181,-14.4779"/>
<polygon fill="#191970" stroke="#191970" points="1631.8473,-125.9626 1642.046,-128.8328 1635.8632,-120.2291 1631.8473,-125.9626"/>
</g>
<!-- Node21&#45;&gt;Node20 -->
<g id="edge38" class="edge">
<title>Node21&#45;&gt;Node20</title>
<path fill="none" stroke="#191970" d="M1671.7374,-121.2147C1683.3671,-108.441 1698.7707,-91.5224 1708.2764,-81.0817"/>
<polygon fill="#191970" stroke="#191970" points="1668.884,-119.1498 1664.7398,-128.9005 1674.0601,-123.8624 1668.884,-119.1498"/>
</g>
<!-- Node23&#45;&gt;Node9 -->
<g id="edge43" class="edge">
<title>Node23&#45;&gt;Node9</title>
<path fill="none" stroke="#191970" d="M2112.2972,-122.5518C2133.4331,-104.8667 2160.1205,-76.1756 2141,-56 2112.5275,-25.9563 1486.9212,-13.3884 1323.6758,-10.6136"/>
<polygon fill="#191970" stroke="#191970" points="2109.9075,-119.9816 2104.2938,-128.9671 2114.2856,-125.4436 2109.9075,-119.9816"/>
</g>
<!-- Node23&#45;&gt;Node22 -->
<g id="edge42" class="edge">
<title>Node23&#45;&gt;Node22</title>
<path fill="none" stroke="#191970" d="M2072.2156,-121.94C2057.637,-109.0879 2037.9375,-91.7212 2025.8687,-81.0817"/>
<polygon fill="#191970" stroke="#191970" points="2070.2952,-124.913 2080.1111,-128.9005 2074.9243,-119.6621 2070.2952,-124.913"/>
</g>
<!-- Node25&#45;&gt;Node9 -->
<g id="edge47" class="edge">
<title>Node25&#45;&gt;Node9</title>
<path fill="none" stroke="#191970" d="M2402.5633,-113.664C2407.1652,-95.2797 2409.3249,-70.9309 2395,-56 2357.1529,-16.552 1515.5128,-10.8967 1323.679,-10.1194"/>
<polygon fill="#191970" stroke="#191970" points="2399.1567,-112.8465 2399.7616,-123.4241 2405.885,-114.778 2399.1567,-112.8465"/>
</g>
<!-- Node25&#45;&gt;Node24 -->
<g id="edge46" class="edge">
<title>Node25&#45;&gt;Node24</title>
<path fill="none" stroke="#191970" d="M2361.3827,-118.0761C2345.255,-107.9774 2326.1242,-95.9983 2311.303,-86.7177"/>
<polygon fill="#191970" stroke="#191970" points="2359.6541,-121.1232 2369.9871,-123.4639 2363.3691,-115.1903 2359.6541,-121.1232"/>
</g>
<!-- Node27&#45;&gt;Node9 -->
<g id="edge51" class="edge">
<title>Node27&#45;&gt;Node9</title>
<path fill="none" stroke="#191970" d="M2633.7651,-125.4776C2573.9834,-104.2216 2457.0234,-63.6619 2414,-56 2197.8141,-17.5001 1496.3162,-11.158 1323.6611,-10.1725"/>
<polygon fill="#191970" stroke="#191970" points="2632.9463,-128.9014 2643.541,-128.9627 2635.297,-122.3078 2632.9463,-128.9014"/>
</g>
<!-- Node27&#45;&gt;Node26 -->
<g id="edge50" class="edge">
<title>Node27&#45;&gt;Node26</title>
<path fill="none" stroke="#191970" d="M2670,-118.6079C2670,-106.214 2670,-90.8263 2670,-81.0817"/>
<polygon fill="#191970" stroke="#191970" points="2666.5001,-118.9005 2670,-128.9005 2673.5001,-118.9006 2666.5001,-118.9005"/>
</g>
</g>
</svg>
        <g id="navigator" transform="translate(0 0)" fill="#404254">
                <rect fill="#f2f5e9" fill-opacity="0.5" stroke="#606060" stroke-width=".5" x="0" y="0" width="60" height="60"/>
                <use id="zoomplus" xlink:href="#zoomPlus" x="17" y="9" onmousedown="handleZoom(evt,'in')"/>
                <use id="zoomminus" xlink:href="#zoomMin" x="42" y="9" onmousedown="handleZoom(evt,'out')"/>
                <use id="reset" xlink:href="#resetDef" x="30" y="36" onmousedown="handleReset()"/>
                <g id="arrowUp" xlink:href="#dirArrow" transform="translate(30 24)" onmousedown="handlePan(0,-1)">
                  <use xlink:href="#rim" fill="#404040">
                        <set attributeName="fill" to="#808080" begin="arrowUp.mouseover" end="arrowUp.mouseout"/>
                  </use>
                  <path fill="none" stroke="white" stroke-width="1.5" d="M0,-3.0v7 M-2.5,-0.5L0,-3.0L2.5,-0.5"/>
                </g>
                <g id="arrowRight" xlink:href="#dirArrow" transform="rotate(90) translate(36 -43)" onmousedown="handlePan(1,0)">
                  <use xlink:href="#rim" fill="#404040">
                        <set attributeName="fill" to="#808080" begin="arrowRight.mouseover" end="arrowRight.mouseout"/>
                  </use>
                  <path fill="none" stroke="white" stroke-width="1.5" d="M0,-3.0v7 M-2.5,-0.5L0,-3.0L2.5,-0.5"/>
                </g>
                <g id="arrowDown" xlink:href="#dirArrow" transform="rotate(180) translate(-30 -48)" onmousedown="handlePan(0,1)">
                  <use xlink:href="#rim" fill="#404040">
                        <set attributeName="fill" to="#808080" begin="arrowDown.mouseover" end="arrowDown.mouseout"/>
                  </use>
                  <path fill="none" stroke="white" stroke-width="1.5" d="M0,-3.0v7 M-2.5,-0.5L0,-3.0L2.5,-0.5"/>
                </g>
                <g id="arrowLeft" xlink:href="#dirArrow" transform="rotate(270) translate(-36 17)" onmousedown="handlePan(-1,0)">
                  <use xlink:href="#rim" fill="#404040">
                        <set attributeName="fill" to="#808080" begin="arrowLeft.mouseover" end="arrowLeft.mouseout"/>
                  </use>
                  <path fill="none" stroke="white" stroke-width="1.5" d="M0,-3.0v7 M-2.5,-0.5L0,-3.0L2.5,-0.5"/>
                </g>
        </g>
        <svg viewBox="0 0 15 15" width="100%" height="30px" preserveAspectRatio="xMaxYMin meet">
         <g id="arrow_out" transform="scale(0.3 0.3)">
          <a xlink:href="HSLAPixel_8h__dep__incl_org.svg" target="_base">
           <rect id="button" ry="5" rx="5" y="6" x="6" height="38" width="38"
                fill="#f2f5e9" fill-opacity="0.5" stroke="#606060" stroke-width="1.0"/>
           <path id="arrow"
             d="M 11.500037,31.436501 C 11.940474,20.09759 22.043105,11.32322 32.158766,21.979434 L 37.068811,17.246167 C 37.068811,17.246167 37.088388,32 37.088388,32 L 22.160133,31.978069 C 22.160133,31.978069 26.997745,27.140456 26.997745,27.140456 C 18.528582,18.264221 13.291696,25.230495 11.500037,31.436501 z"
             style="fill:#404040;"/>
          </a>
         </g>
        </svg>
</svg>
