<?xml version="1.0" encoding="UTF-8" standalone="no"?>
<!DOCTYPE svg PUBLIC "-//W3C//DTD SVG 1.1//EN"
 "http://www.w3.org/Graphics/SVG/1.1/DTD/svg11.dtd">
<!-- Generated by graphviz version 2.40.1 (0)
 -->
<!-- Title: imageTraversal/ImageTraversal.cpp Pages: 1 -->
<svg width="492pt" height="252pt"
 viewBox="0.00 0.00 492.00 252.00" xmlns="http://www.w3.org/2000/svg" xmlns:xlink="http://www.w3.org/1999/xlink">
<g id="graph0" class="graph" transform="scale(1 1) rotate(0) translate(4 248)">
<title>imageTraversal/ImageTraversal.cpp</title>
<!-- Node0 -->
<g id="node1" class="node">
<title>Node0</title>
<g id="a_node1"><a xlink:title=" ">
<polygon fill="#bfbfbf" stroke="#000000" points="26,-224.5 26,-243.5 290,-243.5 290,-224.5 26,-224.5"/>
<text text-anchor="middle" x="158" y="-231.5" font-family="Helvetica,sans-Serif" font-size="10.00" fill="#000000">imageTraversal/ImageTraversal.cpp</text>
</a>
</g>
</g>
<!-- Node1 -->
<g id="node2" class="node">
<title>Node1</title>
<g id="a_node2"><a xlink:title=" ">
<polygon fill="none" stroke="#bfbfbf" points="0,-168.5 0,-187.5 54,-187.5 54,-168.5 0,-168.5"/>
<text text-anchor="middle" x="27" y="-175.5" font-family="Helvetica,sans-Serif" font-size="10.00" fill="#000000">cmath</text>
</a>
</g>
</g>
<!-- Node0&#45;&gt;Node1 -->
<g id="edge1" class="edge">
<title>Node0&#45;&gt;Node1</title>
<path fill="none" stroke="#191970" d="M135.4803,-224.3733C114.2628,-215.3032 82.2724,-201.6279 58.5231,-191.4755"/>
<polygon fill="#191970" stroke="#191970" points="59.7967,-188.2136 49.2258,-187.5011 57.0452,-194.6502 59.7967,-188.2136"/>
</g>
<!-- Node2 -->
<g id="node3" class="node">
<title>Node2</title>
<g id="a_node3"><a xlink:title=" ">
<polygon fill="none" stroke="#bfbfbf" points="148.5,-112.5 148.5,-131.5 225.5,-131.5 225.5,-112.5 148.5,-112.5"/>
<text text-anchor="middle" x="187" y="-119.5" font-family="Helvetica,sans-Serif" font-size="10.00" fill="#000000">iterator</text>
</a>
</g>
</g>
<!-- Node0&#45;&gt;Node2 -->
<g id="edge2" class="edge">
<title>Node0&#45;&gt;Node2</title>
<path fill="none" stroke="#191970" d="M160.4725,-224.4509C165.2238,-206.1013 175.7131,-165.5908 181.9847,-141.3693"/>
<polygon fill="#191970" stroke="#191970" points="185.4153,-142.083 184.5337,-131.5249 178.6388,-140.3283 185.4153,-142.083"/>
</g>
<!-- Node3 -->
<g id="node4" class="node">
<title>Node3</title>
<g id="a_node4"><a xlink:title=" ">
<polygon fill="none" stroke="#bfbfbf" points="172.5,-.5 172.5,-19.5 249.5,-19.5 249.5,-.5 172.5,-.5"/>
<text text-anchor="middle" x="211" y="-7.5" font-family="Helvetica,sans-Serif" font-size="10.00" fill="#000000">iostream</text>
</a>
</g>
</g>
<!-- Node0&#45;&gt;Node3 -->
<g id="edge3" class="edge">
<title>Node0&#45;&gt;Node3</title>
<path fill="none" stroke="#191970" d="M150.1022,-224.4615C143.2508,-215.606 133.7139,-201.7532 129,-188 109.9125,-132.3103 86.9423,-106.011 118,-56 128.0227,-39.8609 145.5721,-29.2122 162.7453,-22.2694"/>
<polygon fill="#191970" stroke="#191970" points="164.0267,-25.5273 172.1971,-18.7822 161.6037,-18.96 164.0267,-25.5273"/>
</g>
<!-- Node4 -->
<g id="node5" class="node">
<title>Node4</title>
<g id="a_node5"><a xlink:href="HSLAPixel_8h.html" target="_top" xlink:title=" ">
<polygon fill="none" stroke="#000000" points="127.5,-56.5 127.5,-75.5 294.5,-75.5 294.5,-56.5 127.5,-56.5"/>
<text text-anchor="middle" x="211" y="-63.5" font-family="Helvetica,sans-Serif" font-size="10.00" fill="#000000">../cs225/HSLAPixel.h</text>
</a>
</g>
</g>
<!-- Node0&#45;&gt;Node4 -->
<g id="edge4" class="edge">
<title>Node0&#45;&gt;Node4</title>
<path fill="none" stroke="#191970" d="M152.7135,-224.4381C141.5857,-202.9129 118.4035,-149.6001 139,-112 146.7587,-97.836 160.9409,-87.3995 174.6795,-80.0818"/>
<polygon fill="#191970" stroke="#191970" points="176.5898,-83.0438 184.0356,-75.5066 173.5146,-76.7555 176.5898,-83.0438"/>
</g>
<!-- Node6 -->
<g id="node7" class="node">
<title>Node6</title>
<g id="a_node7"><a xlink:href="PNG_8h.html" target="_top" xlink:title=" ">
<polygon fill="none" stroke="#000000" points="282,-112.5 282,-131.5 404,-131.5 404,-112.5 282,-112.5"/>
<text text-anchor="middle" x="343" y="-119.5" font-family="Helvetica,sans-Serif" font-size="10.00" fill="#000000">../cs225/PNG.h</text>
</a>
</g>
</g>
<!-- Node0&#45;&gt;Node6 -->
<g id="edge7" class="edge">
<title>Node0&#45;&gt;Node6</title>
<path fill="none" stroke="#191970" d="M223.2541,-224.4644C266.6123,-216.7543 318.1969,-204.4728 333,-188 344.111,-175.6358 345.9103,-156.407 345.3445,-141.8877"/>
<polygon fill="#191970" stroke="#191970" points="348.8322,-141.5923 344.5659,-131.8944 341.8534,-142.1361 348.8322,-141.5923"/>
</g>
<!-- Node8 -->
<g id="node9" class="node">
<title>Node8</title>
<g id="a_node9"><a xlink:href="Point_8h.html" target="_top" xlink:title="every 2D point of the image is represented by a Point class you need to trverse all the points of the...">
<polygon fill="none" stroke="#000000" points="392,-56.5 392,-75.5 484,-75.5 484,-56.5 392,-56.5"/>
<text text-anchor="middle" x="438" y="-63.5" font-family="Helvetica,sans-Serif" font-size="10.00" fill="#000000">../Point.h</text>
</a>
</g>
</g>
<!-- Node0&#45;&gt;Node8 -->
<g id="edge10" class="edge">
<title>Node0&#45;&gt;Node8</title>
<path fill="none" stroke="#191970" d="M223.8134,-224.4625C262.0533,-217.4301 310.5229,-205.91 351,-188 391.358,-170.1427 410.9332,-170.2192 433,-132 440.9902,-118.1611 441.775,-99.8819 440.8249,-86.07"/>
<polygon fill="#191970" stroke="#191970" points="444.2628,-85.2945 439.7387,-75.7142 437.301,-86.0248 444.2628,-85.2945"/>
</g>
<!-- Node9 -->
<g id="node10" class="node">
<title>Node9</title>
<g id="a_node10"><a xlink:href="ImageTraversal_8h.html" target="_top" xlink:title=" ">
<polygon fill="none" stroke="#000000" points="186.5,-168.5 186.5,-187.5 323.5,-187.5 323.5,-168.5 186.5,-168.5"/>
<text text-anchor="middle" x="255" y="-175.5" font-family="Helvetica,sans-Serif" font-size="10.00" fill="#000000">ImageTraversal.h</text>
</a>
</g>
</g>
<!-- Node0&#45;&gt;Node9 -->
<g id="edge13" class="edge">
<title>Node0&#45;&gt;Node9</title>
<path fill="none" stroke="#191970" d="M174.8961,-224.2455C189.918,-215.5731 212.1043,-202.7645 229.321,-192.825"/>
<polygon fill="#191970" stroke="#191970" points="231.3871,-195.6737 238.2975,-187.6427 227.8872,-189.6114 231.3871,-195.6737"/>
</g>
<!-- Node4&#45;&gt;Node3 -->
<g id="edge5" class="edge">
<title>Node4&#45;&gt;Node3</title>
<path fill="none" stroke="#191970" d="M211,-56.2455C211,-48.9382 211,-38.6944 211,-29.7046"/>
<polygon fill="#191970" stroke="#191970" points="214.5001,-29.6426 211,-19.6427 207.5001,-29.6427 214.5001,-29.6426"/>
</g>
<!-- Node5 -->
<g id="node6" class="node">
<title>Node5</title>
<g id="a_node6"><a xlink:title=" ">
<polygon fill="none" stroke="#bfbfbf" points="335.5,-.5 335.5,-19.5 404.5,-19.5 404.5,-.5 335.5,-.5"/>
<text text-anchor="middle" x="370" y="-7.5" font-family="Helvetica,sans-Serif" font-size="10.00" fill="#000000">sstream</text>
</a>
</g>
</g>
<!-- Node4&#45;&gt;Node5 -->
<g id="edge6" class="edge">
<title>Node4&#45;&gt;Node5</title>
<path fill="none" stroke="#191970" d="M238.3331,-56.3733C264.5434,-47.1419 304.2984,-33.1402 333.2668,-22.9375"/>
<polygon fill="#191970" stroke="#191970" points="334.7542,-26.1244 343.0236,-19.5011 332.4288,-19.5219 334.7542,-26.1244"/>
</g>
<!-- Node6&#45;&gt;Node4 -->
<g id="edge9" class="edge">
<title>Node6&#45;&gt;Node4</title>
<path fill="none" stroke="#191970" d="M320.3084,-112.3733C298.9289,-103.3032 266.6943,-89.6279 242.7638,-79.4755"/>
<polygon fill="#191970" stroke="#191970" points="243.9683,-76.1846 233.3955,-75.5011 241.2344,-82.6287 243.9683,-76.1846"/>
</g>
<!-- Node7 -->
<g id="node8" class="node">
<title>Node7</title>
<g id="a_node8"><a xlink:title=" ">
<polygon fill="none" stroke="#bfbfbf" points="312,-56.5 312,-75.5 374,-75.5 374,-56.5 312,-56.5"/>
<text text-anchor="middle" x="343" y="-63.5" font-family="Helvetica,sans-Serif" font-size="10.00" fill="#000000">string</text>
</a>
</g>
</g>
<!-- Node6&#45;&gt;Node7 -->
<g id="edge8" class="edge">
<title>Node6&#45;&gt;Node7</title>
<path fill="none" stroke="#191970" d="M343,-112.2455C343,-104.9382 343,-94.6944 343,-85.7046"/>
<polygon fill="#191970" stroke="#191970" points="346.5001,-85.6426 343,-75.6427 339.5001,-85.6427 346.5001,-85.6426"/>
</g>
<!-- Node8&#45;&gt;Node3 -->
<g id="edge11" class="edge">
<title>Node8&#45;&gt;Node3</title>
<path fill="none" stroke="#191970" d="M399.2352,-56.4369C360.6308,-46.9133 301.2616,-32.2672 259.5428,-21.9753"/>
<polygon fill="#191970" stroke="#191970" points="260.1521,-18.5208 249.6049,-19.5237 258.4755,-25.317 260.1521,-18.5208"/>
</g>
<!-- Node8&#45;&gt;Node5 -->
<g id="edge12" class="edge">
<title>Node8&#45;&gt;Node5</title>
<path fill="none" stroke="#191970" d="M426.1553,-56.2455C416.112,-47.9746 401.5005,-35.9416 389.6996,-26.2232"/>
<polygon fill="#191970" stroke="#191970" points="391.6533,-23.298 381.709,-19.6427 387.2033,-28.7015 391.6533,-23.298"/>
</g>
<!-- Node9&#45;&gt;Node2 -->
<g id="edge14" class="edge">
<title>Node9&#45;&gt;Node2</title>
<path fill="none" stroke="#191970" d="M243.1553,-168.2455C233.112,-159.9746 218.5005,-147.9416 206.6996,-138.2232"/>
<polygon fill="#191970" stroke="#191970" points="208.6533,-135.298 198.709,-131.6427 204.2033,-140.7015 208.6533,-135.298"/>
</g>
<!-- Node9&#45;&gt;Node4 -->
<g id="edge15" class="edge">
<title>Node9&#45;&gt;Node4</title>
<path fill="none" stroke="#191970" d="M252.4628,-168.4366C248.9037,-155.4497 241.9646,-131.607 234,-112 230.2732,-102.8255 225.4587,-92.9667 221.1985,-84.7385"/>
<polygon fill="#191970" stroke="#191970" points="224.1645,-82.8608 216.3871,-75.6662 217.9803,-86.1405 224.1645,-82.8608"/>
</g>
<!-- Node9&#45;&gt;Node6 -->
<g id="edge16" class="edge">
<title>Node9&#45;&gt;Node6</title>
<path fill="none" stroke="#191970" d="M270.3284,-168.2455C283.8303,-159.6534 303.7122,-147.0014 319.2686,-137.1018"/>
<polygon fill="#191970" stroke="#191970" points="321.2897,-139.9643 327.8472,-131.6427 317.5315,-134.0587 321.2897,-139.9643"/>
</g>
<!-- Node9&#45;&gt;Node8 -->
<g id="edge17" class="edge">
<title>Node9&#45;&gt;Node8</title>
<path fill="none" stroke="#191970" d="M305.3401,-168.4363C345.3795,-159.9247 397.2114,-146.5913 413,-132 426.0507,-119.939 432.338,-100.3608 435.3367,-85.6539"/>
<polygon fill="#191970" stroke="#191970" points="438.8268,-86.0062 437.0462,-75.5621 431.9251,-84.837 438.8268,-86.0062"/>
</g>
</g>
</svg>
