<?xml version="1.0" encoding="UTF-8" standalone="no"?>
<!DOCTYPE svg PUBLIC "-//W3C//DTD SVG 1.1//EN"
 "http://www.w3.org/Graphics/SVG/1.1/DTD/svg11.dtd">
<!-- Generated by graphviz version 2.40.1 (0)
 -->
<!-- Title: imageTraversal/ImageTraversal.h Pages: 1 -->
<svg width="408pt" height="196pt"
 viewBox="0.00 0.00 408.00 196.00" xmlns="http://www.w3.org/2000/svg" xmlns:xlink="http://www.w3.org/1999/xlink">
<g id="graph0" class="graph" transform="scale(1 1) rotate(0) translate(4 192)">
<title>imageTraversal/ImageTraversal.h</title>
<!-- Node0 -->
<g id="node1" class="node">
<title>Node0</title>
<g id="a_node1"><a xlink:title=" ">
<polygon fill="#bfbfbf" stroke="#000000" points="25,-168.5 25,-187.5 274,-187.5 274,-168.5 25,-168.5"/>
<text text-anchor="middle" x="149.5" y="-175.5" font-family="Helvetica,sans-Serif" font-size="10.00" fill="#000000">imageTraversal/ImageTraversal.h</text>
</a>
</g>
</g>
<!-- Node1 -->
<g id="node2" class="node">
<title>Node1</title>
<g id="a_node2"><a xlink:title=" ">
<polygon fill="none" stroke="#bfbfbf" points="0,-112.5 0,-131.5 77,-131.5 77,-112.5 0,-112.5"/>
<text text-anchor="middle" x="38.5" y="-119.5" font-family="Helvetica,sans-Serif" font-size="10.00" fill="#000000">iterator</text>
</a>
</g>
</g>
<!-- Node0&#45;&gt;Node1 -->
<g id="edge1" class="edge">
<title>Node0&#45;&gt;Node1</title>
<path fill="none" stroke="#191970" d="M130.4184,-168.3733C112.7598,-159.4644 86.2947,-146.1127 66.2902,-136.0203"/>
<polygon fill="#191970" stroke="#191970" points="67.8372,-132.8806 57.3326,-131.5011 64.6842,-139.1303 67.8372,-132.8806"/>
</g>
<!-- Node2 -->
<g id="node3" class="node">
<title>Node2</title>
<g id="a_node3"><a xlink:href="HSLAPixel_8h.html" target="_top" xlink:title=" ">
<polygon fill="none" stroke="#000000" points="233,-56.5 233,-75.5 400,-75.5 400,-56.5 233,-56.5"/>
<text text-anchor="middle" x="316.5" y="-63.5" font-family="Helvetica,sans-Serif" font-size="10.00" fill="#000000">../cs225/HSLAPixel.h</text>
</a>
</g>
</g>
<!-- Node0&#45;&gt;Node2 -->
<g id="edge2" class="edge">
<title>Node0&#45;&gt;Node2</title>
<path fill="none" stroke="#191970" d="M186.9708,-168.4535C210.7687,-161.1365 241.3364,-149.3183 264.5,-132 281.7508,-119.1023 296.401,-99.1262 305.7115,-84.5279"/>
<polygon fill="#191970" stroke="#191970" points="308.7944,-86.1955 311.0325,-75.8397 302.825,-82.5395 308.7944,-86.1955"/>
</g>
<!-- Node5 -->
<g id="node6" class="node">
<title>Node5</title>
<g id="a_node6"><a xlink:href="PNG_8h.html" target="_top" xlink:title=" ">
<polygon fill="none" stroke="#000000" points="133.5,-112.5 133.5,-131.5 255.5,-131.5 255.5,-112.5 133.5,-112.5"/>
<text text-anchor="middle" x="194.5" y="-119.5" font-family="Helvetica,sans-Serif" font-size="10.00" fill="#000000">../cs225/PNG.h</text>
</a>
</g>
</g>
<!-- Node0&#45;&gt;Node5 -->
<g id="edge5" class="edge">
<title>Node0&#45;&gt;Node5</title>
<path fill="none" stroke="#191970" d="M157.3384,-168.2455C163.662,-160.3761 172.7224,-149.101 180.3136,-139.6542"/>
<polygon fill="#191970" stroke="#191970" points="183.2158,-141.6302 186.7514,-131.6427 177.7592,-137.2454 183.2158,-141.6302"/>
</g>
<!-- Node7 -->
<g id="node8" class="node">
<title>Node7</title>
<g id="a_node8"><a xlink:href="Point_8h.html" target="_top" xlink:title="every 2D point of the image is represented by a Point class you need to trverse all the points of the...">
<polygon fill="none" stroke="#000000" points="42.5,-56.5 42.5,-75.5 134.5,-75.5 134.5,-56.5 42.5,-56.5"/>
<text text-anchor="middle" x="88.5" y="-63.5" font-family="Helvetica,sans-Serif" font-size="10.00" fill="#000000">../Point.h</text>
</a>
</g>
</g>
<!-- Node0&#45;&gt;Node7 -->
<g id="edge8" class="edge">
<title>Node0&#45;&gt;Node7</title>
<path fill="none" stroke="#191970" d="M144.2992,-168.4509C134.1701,-149.8533 111.6429,-108.4919 98.5195,-84.3964"/>
<polygon fill="#191970" stroke="#191970" points="101.5444,-82.6328 93.6877,-75.5249 95.3971,-85.9809 101.5444,-82.6328"/>
</g>
<!-- Node3 -->
<g id="node4" class="node">
<title>Node3</title>
<g id="a_node4"><a xlink:title=" ">
<polygon fill="none" stroke="#bfbfbf" points="118,-.5 118,-19.5 195,-19.5 195,-.5 118,-.5"/>
<text text-anchor="middle" x="156.5" y="-7.5" font-family="Helvetica,sans-Serif" font-size="10.00" fill="#000000">iostream</text>
</a>
</g>
</g>
<!-- Node2&#45;&gt;Node3 -->
<g id="edge3" class="edge">
<title>Node2&#45;&gt;Node3</title>
<path fill="none" stroke="#191970" d="M288.995,-56.3733C262.6198,-47.1419 222.6149,-33.1402 193.4642,-22.9375"/>
<polygon fill="#191970" stroke="#191970" points="194.2409,-19.5012 183.6461,-19.5011 191.9284,-26.1082 194.2409,-19.5012"/>
</g>
<!-- Node4 -->
<g id="node5" class="node">
<title>Node4</title>
<g id="a_node5"><a xlink:title=" ">
<polygon fill="none" stroke="#bfbfbf" points="247,-.5 247,-19.5 316,-19.5 316,-.5 247,-.5"/>
<text text-anchor="middle" x="281.5" y="-7.5" font-family="Helvetica,sans-Serif" font-size="10.00" fill="#000000">sstream</text>
</a>
</g>
</g>
<!-- Node2&#45;&gt;Node4 -->
<g id="edge4" class="edge">
<title>Node2&#45;&gt;Node4</title>
<path fill="none" stroke="#191970" d="M310.4035,-56.2455C305.5855,-48.5367 298.7249,-37.5598 292.8968,-28.2348"/>
<polygon fill="#191970" stroke="#191970" points="295.7947,-26.2677 287.5267,-19.6427 289.8587,-29.9777 295.7947,-26.2677"/>
</g>
<!-- Node5&#45;&gt;Node2 -->
<g id="edge7" class="edge">
<title>Node5&#45;&gt;Node2</title>
<path fill="none" stroke="#191970" d="M215.4725,-112.3733C235.0567,-103.3838 264.4961,-89.8706 286.551,-79.7471"/>
<polygon fill="#191970" stroke="#191970" points="288.1729,-82.8538 295.8011,-75.5011 285.2527,-76.4919 288.1729,-82.8538"/>
</g>
<!-- Node6 -->
<g id="node7" class="node">
<title>Node6</title>
<g id="a_node7"><a xlink:title=" ">
<polygon fill="none" stroke="#bfbfbf" points="152.5,-56.5 152.5,-75.5 214.5,-75.5 214.5,-56.5 152.5,-56.5"/>
<text text-anchor="middle" x="183.5" y="-63.5" font-family="Helvetica,sans-Serif" font-size="10.00" fill="#000000">string</text>
</a>
</g>
</g>
<!-- Node5&#45;&gt;Node6 -->
<g id="edge6" class="edge">
<title>Node5&#45;&gt;Node6</title>
<path fill="none" stroke="#191970" d="M192.5839,-112.2455C191.1486,-104.9382 189.1364,-94.6944 187.3705,-85.7046"/>
<polygon fill="#191970" stroke="#191970" points="190.756,-84.7805 185.3941,-75.6427 183.8873,-86.1298 190.756,-84.7805"/>
</g>
<!-- Node7&#45;&gt;Node3 -->
<g id="edge9" class="edge">
<title>Node7&#45;&gt;Node3</title>
<path fill="none" stroke="#191970" d="M100.3447,-56.2455C110.388,-47.9746 124.9995,-35.9416 136.8004,-26.2232"/>
<polygon fill="#191970" stroke="#191970" points="139.2967,-28.7015 144.791,-19.6427 134.8467,-23.298 139.2967,-28.7015"/>
</g>
<!-- Node7&#45;&gt;Node4 -->
<g id="edge10" class="edge">
<title>Node7&#45;&gt;Node4</title>
<path fill="none" stroke="#191970" d="M121.6779,-56.3733C154.0487,-46.9807 203.4398,-32.6496 238.7424,-22.4064"/>
<polygon fill="#191970" stroke="#191970" points="240.1265,-25.6492 248.7551,-19.5011 238.1758,-18.9264 240.1265,-25.6492"/>
</g>
</g>
</svg>
