<?xml version="1.0" encoding="UTF-8" standalone="no"?>
<!DOCTYPE svg PUBLIC "-//W3C//DTD SVG 1.1//EN"
 "http://www.w3.org/Graphics/SVG/1.1/DTD/svg11.dtd">
<!-- Generated by graphviz version 2.40.1 (0)
 -->
<!-- Title: imageTraversal/ImageTraversal.h Pages: 1 -->
<!--zoomable 140 -->
<svg id="main" version="1.1" xmlns="http://www.w3.org/2000/svg" xmlns:xlink="http://www.w3.org/1999/xlink" xml:space="preserve" onload="init(evt)">
<style type="text/css"><![CDATA[
.edge:hover path { stroke: red; }
.edge:hover polygon { stroke: red; fill: red; }
]]></style>
<script type="text/javascript"><![CDATA[
var edges = document.getElementsByTagName('g');
if (edges && edges.length) {
  for (var i=0;i<edges.length;i++) {
    if (edges[i].id.substr(0,4)=='edge') {
      edges[i].setAttribute('class','edge');
    }
  }
}
]]></script>
        <defs>
                <circle id="rim" cx="0" cy="0" r="7"/>
                <circle id="rim2" cx="0" cy="0" r="3.5"/>
                <g id="zoomPlus">
                        <use xlink:href="#rim" fill="#404040">
                                <set attributeName="fill" to="#808080" begin="zoomplus.mouseover" end="zoomplus.mouseout"/>
                        </use>
                        <path d="M-4,0h8M0,-4v8" fill="none" stroke="white" stroke-width="1.5" pointer-events="none"/>
                </g>
                <g id="zoomMin">
                        <use xlink:href="#rim" fill="#404040">
                                <set attributeName="fill" to="#808080" begin="zoomminus.mouseover" end="zoomminus.mouseout"/>
                        </use>
                        <path d="M-4,0h8" fill="none" stroke="white" stroke-width="1.5" pointer-events="none"/>
                </g>
                <g id="dirArrow">
                        <path fill="none" stroke="white" stroke-width="1.5" d="M0,-3.0v7 M-2.5,-0.5L0,-3.0L2.5,-0.5"/>
                </g>
               <g id="resetDef">
                       <use xlink:href="#rim2" fill="#404040">
                               <set attributeName="fill" to="#808080" begin="reset.mouseover" end="reset.mouseout"/>
                       </use>
               </g>
        </defs>

<script type="text/javascript">
var viewWidth = 947;
var viewHeight = 140;
var sectionId = 'dynsection-1';
</script>
<script xlink:href="svgpan.js"/>
<svg id="graph" class="graph">
<g id="viewport">
<title>imageTraversal/ImageTraversal.h</title>
<!-- Node8 -->
<g id="node1" class="node">
<title>Node8</title>
<g id="a_node1"><a xlink:title=" ">
<polygon fill="#bfbfbf" stroke="#000000" points="300,-112.5 300,-131.5 549,-131.5 549,-112.5 300,-112.5"/>
<text text-anchor="middle" x="424.5" y="-119.5" font-family="Helvetica,sans-Serif" font-size="10.00" fill="#000000">imageTraversal/ImageTraversal.h</text>
</a>
</g>
</g>
<!-- Node9 -->
<g id="node2" class="node">
<title>Node9</title>
<g id="a_node2"><a xlink:href="FloodFilledImage_8cpp.html" target="_top" xlink:title=" ">
<polygon fill="none" stroke="#000000" points="0,-.5 0,-19.5 167,-19.5 167,-.5 0,-.5"/>
<text text-anchor="middle" x="83.5" y="-7.5" font-family="Helvetica,sans-Serif" font-size="10.00" fill="#000000">FloodFilledImage.cpp</text>
</a>
</g>
</g>
<!-- Node8&#45;&gt;Node9 -->
<g id="edge1" class="edge">
<title>Node8&#45;&gt;Node9</title>
<path fill="none" stroke="#191970" d="M289.6173,-114.0333C189.1002,-106.6789 66.5415,-94.1354 50.5,-76 35.3919,-58.9198 57.2477,-33.6834 71.9686,-19.8907"/>
<polygon fill="#191970" stroke="#191970" points="289.6649,-117.5457 299.8904,-114.7727 290.1674,-110.5637 289.6649,-117.5457"/>
</g>
<!-- Node10 -->
<g id="node3" class="node">
<title>Node10</title>
<g id="a_node3"><a xlink:href="FloodFilledImage_8h.html" target="_top" xlink:title="Definition for a class to do flood fill on an image.">
<polygon fill="none" stroke="#000000" points="59.5,-56.5 59.5,-75.5 211.5,-75.5 211.5,-56.5 59.5,-56.5"/>
<text text-anchor="middle" x="135.5" y="-63.5" font-family="Helvetica,sans-Serif" font-size="10.00" fill="#000000">FloodFilledImage.h</text>
</a>
</g>
</g>
<!-- Node8&#45;&gt;Node10 -->
<g id="edge2" class="edge">
<title>Node8&#45;&gt;Node10</title>
<path fill="none" stroke="#191970" d="M365.1572,-110.501C311.8673,-100.175 234.5542,-85.1939 184.6489,-75.5237"/>
<polygon fill="#191970" stroke="#191970" points="364.6643,-113.9706 375.1475,-112.4369 365.996,-107.0984 364.6643,-113.9706"/>
</g>
<!-- Node12 -->
<g id="node5" class="node">
<title>Node12</title>
<g id="a_node5"><a xlink:href="BFS_8cpp.html" target="_top" xlink:title=" ">
<polygon fill="none" stroke="#000000" points="333.5,-.5 333.5,-19.5 515.5,-19.5 515.5,-.5 333.5,-.5"/>
<text text-anchor="middle" x="424.5" y="-7.5" font-family="Helvetica,sans-Serif" font-size="10.00" fill="#000000">imageTraversal/BFS.cpp</text>
</a>
</g>
</g>
<!-- Node8&#45;&gt;Node12 -->
<g id="edge5" class="edge">
<title>Node8&#45;&gt;Node12</title>
<path fill="none" stroke="#191970" d="M424.5,-102.2702C424.5,-77.9985 424.5,-37.7725 424.5,-19.5249"/>
<polygon fill="#191970" stroke="#191970" points="421.0001,-102.4509 424.5,-112.4509 428.0001,-102.451 421.0001,-102.4509"/>
</g>
<!-- Node13 -->
<g id="node6" class="node">
<title>Node13</title>
<g id="a_node6"><a xlink:href="BFS_8h.html" target="_top" xlink:title=" ">
<polygon fill="none" stroke="#000000" points="230,-56.5 230,-75.5 397,-75.5 397,-56.5 230,-56.5"/>
<text text-anchor="middle" x="313.5" y="-63.5" font-family="Helvetica,sans-Serif" font-size="10.00" fill="#000000">imageTraversal/BFS.h</text>
</a>
</g>
</g>
<!-- Node8&#45;&gt;Node13 -->
<g id="edge6" class="edge">
<title>Node8&#45;&gt;Node13</title>
<path fill="none" stroke="#191970" d="M396.4266,-107.8368C376.3615,-97.7139 349.9078,-84.3679 332.3326,-75.5011"/>
<polygon fill="#191970" stroke="#191970" points="394.9138,-110.9938 405.4184,-112.3733 398.0668,-104.7441 394.9138,-110.9938"/>
</g>
<!-- Node14 -->
<g id="node7" class="node">
<title>Node14</title>
<g id="a_node7"><a xlink:href="DFS_8cpp.html" target="_top" xlink:title=" ">
<polygon fill="none" stroke="#000000" points="544.5,-.5 544.5,-19.5 726.5,-19.5 726.5,-.5 544.5,-.5"/>
<text text-anchor="middle" x="635.5" y="-7.5" font-family="Helvetica,sans-Serif" font-size="10.00" fill="#000000">imageTraversal/DFS.cpp</text>
</a>
</g>
</g>
<!-- Node8&#45;&gt;Node14 -->
<g id="edge9" class="edge">
<title>Node8&#45;&gt;Node14</title>
<path fill="none" stroke="#191970" d="M520.1692,-110.9659C565.3619,-103.7135 612.6396,-92.4626 627.5,-76 641.4212,-60.5779 639.7208,-34.2137 637.4842,-19.9192"/>
<polygon fill="#191970" stroke="#191970" points="519.6154,-107.5098 510.2684,-112.4982 520.6861,-114.4275 519.6154,-107.5098"/>
</g>
<!-- Node15 -->
<g id="node8" class="node">
<title>Node15</title>
<g id="a_node8"><a xlink:href="DFS_8h.html" target="_top" xlink:title=" ">
<polygon fill="none" stroke="#000000" points="452,-56.5 452,-75.5 619,-75.5 619,-56.5 452,-56.5"/>
<text text-anchor="middle" x="535.5" y="-63.5" font-family="Helvetica,sans-Serif" font-size="10.00" fill="#000000">imageTraversal/DFS.h</text>
</a>
</g>
</g>
<!-- Node8&#45;&gt;Node15 -->
<g id="edge10" class="edge">
<title>Node8&#45;&gt;Node15</title>
<path fill="none" stroke="#191970" d="M452.5734,-107.8368C472.6385,-97.7139 499.0922,-84.3679 516.6674,-75.5011"/>
<polygon fill="#191970" stroke="#191970" points="450.9332,-104.7441 443.5816,-112.3733 454.0862,-110.9938 450.9332,-104.7441"/>
</g>
<!-- Node16 -->
<g id="node9" class="node">
<title>Node16</title>
<g id="a_node9"><a xlink:href="ImageTraversal_8cpp.html" target="_top" xlink:title=" ">
<polygon fill="none" stroke="#000000" points="674.5,-56.5 674.5,-75.5 938.5,-75.5 938.5,-56.5 674.5,-56.5"/>
<text text-anchor="middle" x="806.5" y="-63.5" font-family="Helvetica,sans-Serif" font-size="10.00" fill="#000000">imageTraversal/ImageTraversal.cpp</text>
</a>
</g>
</g>
<!-- Node8&#45;&gt;Node16 -->
<g id="edge13" class="edge">
<title>Node8&#45;&gt;Node16</title>
<path fill="none" stroke="#191970" d="M499.8844,-110.9489C570.3957,-100.6122 674.6102,-85.3346 741.535,-75.5237"/>
<polygon fill="#191970" stroke="#191970" points="499.1207,-107.5233 489.7341,-112.4369 500.136,-114.4493 499.1207,-107.5233"/>
</g>
<!-- Node10&#45;&gt;Node9 -->
<g id="edge3" class="edge">
<title>Node10&#45;&gt;Node9</title>
<path fill="none" stroke="#191970" d="M119.5178,-48.7884C110.6222,-39.2085 99.8796,-27.6396 92.4539,-19.6427"/>
<polygon fill="#191970" stroke="#191970" points="117.073,-51.2992 126.4423,-56.2455 122.2025,-46.536 117.073,-51.2992"/>
</g>
<!-- Node11 -->
<g id="node4" class="node">
<title>Node11</title>
<g id="a_node4"><a xlink:href="main_8cpp.html" target="_top" xlink:title=" ">
<polygon fill="none" stroke="#000000" points="238,-.5 238,-19.5 315,-19.5 315,-.5 238,-.5"/>
<text text-anchor="middle" x="276.5" y="-7.5" font-family="Helvetica,sans-Serif" font-size="10.00" fill="#000000">main.cpp</text>
</a>
</g>
</g>
<!-- Node10&#45;&gt;Node11 -->
<g id="edge4" class="edge">
<title>Node10&#45;&gt;Node11</title>
<path fill="none" stroke="#191970" d="M169.1032,-52.6541C194.8159,-42.4419 229.6461,-28.6086 252.5775,-19.5011"/>
<polygon fill="#191970" stroke="#191970" points="167.7407,-49.4292 159.7388,-56.3733 170.3245,-55.9349 167.7407,-49.4292"/>
</g>
<!-- Node13&#45;&gt;Node11 -->
<g id="edge8" class="edge">
<title>Node13&#45;&gt;Node11</title>
<path fill="none" stroke="#191970" d="M301.3624,-47.6296C295.1907,-38.2887 287.9434,-27.3197 282.8711,-19.6427"/>
<polygon fill="#191970" stroke="#191970" points="298.6223,-49.8316 307.0551,-56.2455 304.4627,-45.9728 298.6223,-49.8316"/>
</g>
<!-- Node13&#45;&gt;Node12 -->
<g id="edge7" class="edge">
<title>Node13&#45;&gt;Node12</title>
<path fill="none" stroke="#191970" d="M341.5734,-51.8368C361.6385,-41.7139 388.0922,-28.3679 405.6674,-19.5011"/>
<polygon fill="#191970" stroke="#191970" points="339.9332,-48.7441 332.5816,-56.3733 343.0862,-54.9938 339.9332,-48.7441"/>
</g>
<!-- Node15&#45;&gt;Node11 -->
<g id="edge12" class="edge">
<title>Node15&#45;&gt;Node11</title>
<path fill="none" stroke="#191970" d="M481.3314,-54.2879C431.5948,-43.534 359.1309,-27.8661 315.0536,-18.3359"/>
<polygon fill="#191970" stroke="#191970" points="480.7568,-57.7444 491.2706,-56.4369 482.2361,-50.9025 480.7568,-57.7444"/>
</g>
<!-- Node15&#45;&gt;Node14 -->
<g id="edge11" class="edge">
<title>Node15&#45;&gt;Node14</title>
<path fill="none" stroke="#191970" d="M561.7098,-51.3225C579.5717,-41.3198 602.7155,-28.3593 618.2809,-19.6427"/>
<polygon fill="#191970" stroke="#191970" points="559.9336,-48.3057 552.9187,-56.2455 563.3539,-54.4132 559.9336,-48.3057"/>
</g>
</g>
</svg>
        <g id="navigator" transform="translate(0 0)" fill="#404254">
                <rect fill="#f2f5e9" fill-opacity="0.5" stroke="#606060" stroke-width=".5" x="0" y="0" width="60" height="60"/>
                <use id="zoomplus" xlink:href="#zoomPlus" x="17" y="9" onmousedown="handleZoom(evt,'in')"/>
                <use id="zoomminus" xlink:href="#zoomMin" x="42" y="9" onmousedown="handleZoom(evt,'out')"/>
                <use id="reset" xlink:href="#resetDef" x="30" y="36" onmousedown="handleReset()"/>
                <g id="arrowUp" xlink:href="#dirArrow" transform="translate(30 24)" onmousedown="handlePan(0,-1)">
                  <use xlink:href="#rim" fill="#404040">
                        <set attributeName="fill" to="#808080" begin="arrowUp.mouseover" end="arrowUp.mouseout"/>
                  </use>
                  <path fill="none" stroke="white" stroke-width="1.5" d="M0,-3.0v7 M-2.5,-0.5L0,-3.0L2.5,-0.5"/>
                </g>
                <g id="arrowRight" xlink:href="#dirArrow" transform="rotate(90) translate(36 -43)" onmousedown="handlePan(1,0)">
                  <use xlink:href="#rim" fill="#404040">
                        <set attributeName="fill" to="#808080" begin="arrowRight.mouseover" end="arrowRight.mouseout"/>
                  </use>
                  <path fill="none" stroke="white" stroke-width="1.5" d="M0,-3.0v7 M-2.5,-0.5L0,-3.0L2.5,-0.5"/>
                </g>
                <g id="arrowDown" xlink:href="#dirArrow" transform="rotate(180) translate(-30 -48)" onmousedown="handlePan(0,1)">
                  <use xlink:href="#rim" fill="#404040">
                        <set attributeName="fill" to="#808080" begin="arrowDown.mouseover" end="arrowDown.mouseout"/>
                  </use>
                  <path fill="none" stroke="white" stroke-width="1.5" d="M0,-3.0v7 M-2.5,-0.5L0,-3.0L2.5,-0.5"/>
                </g>
                <g id="arrowLeft" xlink:href="#dirArrow" transform="rotate(270) translate(-36 17)" onmousedown="handlePan(-1,0)">
                  <use xlink:href="#rim" fill="#404040">
                        <set attributeName="fill" to="#808080" begin="arrowLeft.mouseover" end="arrowLeft.mouseout"/>
                  </use>
                  <path fill="none" stroke="white" stroke-width="1.5" d="M0,-3.0v7 M-2.5,-0.5L0,-3.0L2.5,-0.5"/>
                </g>
        </g>
        <svg viewBox="0 0 15 15" width="100%" height="30px" preserveAspectRatio="xMaxYMin meet">
         <g id="arrow_out" transform="scale(0.3 0.3)">
          <a xlink:href="ImageTraversal_8h__dep__incl_org.svg" target="_base">
           <rect id="button" ry="5" rx="5" y="6" x="6" height="38" width="38"
                fill="#f2f5e9" fill-opacity="0.5" stroke="#606060" stroke-width="1.0"/>
           <path id="arrow"
             d="M 11.500037,31.436501 C 11.940474,20.09759 22.043105,11.32322 32.158766,21.979434 L 37.068811,17.246167 C 37.068811,17.246167 37.088388,32 37.088388,32 L 22.160133,31.978069 C 22.160133,31.978069 26.997745,27.140456 26.997745,27.140456 C 18.528582,18.264221 13.291696,25.230495 11.500037,31.436501 z"
             style="fill:#404040;"/>
          </a>
         </g>
        </svg>
</svg>
