<?xml version="1.0" encoding="UTF-8" standalone="no"?>
<!DOCTYPE svg PUBLIC "-//W3C//DTD SVG 1.1//EN"
 "http://www.w3.org/Graphics/SVG/1.1/DTD/svg11.dtd">
<!-- Generated by graphviz version 2.40.1 (0)
 -->
<!-- Title: Graphical Class Hierarchy Pages: 1 -->
<svg width="205pt" height="66pt"
 viewBox="0.00 0.00 205.00 66.00" xmlns="http://www.w3.org/2000/svg" xmlns:xlink="http://www.w3.org/1999/xlink">
<g id="graph0" class="graph" transform="scale(1 1) rotate(0) translate(4 62)">
<title>Graphical Class Hierarchy</title>
<!-- Node0 -->
<g id="node1" class="node">
<title>Node0</title>
<g id="a_node1"><a xlink:href="classImageTraversal.html" target="_top" xlink:title="A base class for traversal algorithms on images.">
<polygon fill="none" stroke="#000000" points="0,-19.5 0,-38.5 122,-38.5 122,-19.5 0,-19.5"/>
<text text-anchor="middle" x="61" y="-26.5" font-family="Helvetica,sans-Serif" font-size="10.00" fill="#000000">ImageTraversal</text>
</a>
</g>
</g>
<!-- Node1 -->
<g id="node2" class="node">
<title>Node1</title>
<g id="a_node2"><a xlink:href="classBFS.html" target="_top" xlink:title="A breadth&#45;first ImageTraversal.">
<polygon fill="none" stroke="#000000" points="158,-38.5 158,-57.5 197,-57.5 197,-38.5 158,-38.5"/>
<text text-anchor="middle" x="177.5" y="-45.5" font-family="Helvetica,sans-Serif" font-size="10.00" fill="#000000">BFS</text>
</a>
</g>
</g>
<!-- Node0&#45;&gt;Node1 -->
<g id="edge1" class="edge">
<title>Node0&#45;&gt;Node1</title>
<path fill="none" stroke="#191970" d="M129.5876,-40.186C139.9168,-41.8706 149.798,-43.4821 157.8753,-44.7994"/>
<polygon fill="#191970" stroke="#191970" points="130.0243,-36.711 119.5913,-38.5557 128.8975,-43.6197 130.0243,-36.711"/>
</g>
<!-- Node2 -->
<g id="node3" class="node">
<title>Node2</title>
<g id="a_node3"><a xlink:href="classDFS.html" target="_top" xlink:title="A depth&#45;first ImageTraversal.">
<polygon fill="none" stroke="#000000" points="158,-.5 158,-19.5 197,-19.5 197,-.5 158,-.5"/>
<text text-anchor="middle" x="177.5" y="-7.5" font-family="Helvetica,sans-Serif" font-size="10.00" fill="#000000">DFS</text>
</a>
</g>
</g>
<!-- Node0&#45;&gt;Node2 -->
<g id="edge2" class="edge">
<title>Node0&#45;&gt;Node2</title>
<path fill="none" stroke="#191970" d="M129.5876,-17.814C139.9168,-16.1294 149.798,-14.5179 157.8753,-13.2006"/>
<polygon fill="#191970" stroke="#191970" points="128.8975,-14.3803 119.5913,-19.4443 130.0243,-21.289 128.8975,-14.3803"/>
</g>
</g>
</svg>
