<?xml version="1.0" encoding="UTF-8" standalone="no"?>
<!DOCTYPE svg PUBLIC "-//W3C//DTD SVG 1.1//EN"
 "http://www.w3.org/Graphics/SVG/1.1/DTD/svg11.dtd">
<!-- Generated by graphviz version 2.40.1 (0)
 -->
<!-- Title: main.cpp Pages: 1 -->
<!--zoomable 319 -->
<svg id="main" version="1.1" xmlns="http://www.w3.org/2000/svg" xmlns:xlink="http://www.w3.org/1999/xlink" xml:space="preserve" onload="init(evt)">
<style type="text/css"><![CDATA[
.edge:hover path { stroke: red; }
.edge:hover polygon { stroke: red; fill: red; }
]]></style>
<script type="text/javascript"><![CDATA[
var edges = document.getElementsByTagName('g');
if (edges && edges.length) {
  for (var i=0;i<edges.length;i++) {
    if (edges[i].id.substr(0,4)=='edge') {
      edges[i].setAttribute('class','edge');
    }
  }
}
]]></script>
        <defs>
                <circle id="rim" cx="0" cy="0" r="7"/>
                <circle id="rim2" cx="0" cy="0" r="3.5"/>
                <g id="zoomPlus">
                        <use xlink:href="#rim" fill="#404040">
                                <set attributeName="fill" to="#808080" begin="zoomplus.mouseover" end="zoomplus.mouseout"/>
                        </use>
                        <path d="M-4,0h8M0,-4v8" fill="none" stroke="white" stroke-width="1.5" pointer-events="none"/>
                </g>
                <g id="zoomMin">
                        <use xlink:href="#rim" fill="#404040">
                                <set attributeName="fill" to="#808080" begin="zoomminus.mouseover" end="zoomminus.mouseout"/>
                        </use>
                        <path d="M-4,0h8" fill="none" stroke="white" stroke-width="1.5" pointer-events="none"/>
                </g>
                <g id="dirArrow">
                        <path fill="none" stroke="white" stroke-width="1.5" d="M0,-3.0v7 M-2.5,-0.5L0,-3.0L2.5,-0.5"/>
                </g>
               <g id="resetDef">
                       <use xlink:href="#rim2" fill="#404040">
                               <set attributeName="fill" to="#808080" begin="reset.mouseover" end="reset.mouseout"/>
                       </use>
               </g>
        </defs>

<script type="text/javascript">
var viewWidth = 2240;
var viewHeight = 319;
var sectionId = 'dynsection-0';
</script>
<script xlink:href="svgpan.js"/>
<svg id="graph" class="graph">
<g id="viewport">
<title>main.cpp</title>
<!-- Node0 -->
<g id="node1" class="node">
<title>Node0</title>
<g id="a_node1"><a xlink:title=" ">
<polygon fill="#bfbfbf" stroke="#000000" points="921.7689,-291.5 921.7689,-310.5 998.7689,-310.5 998.7689,-291.5 921.7689,-291.5"/>
<text text-anchor="middle" x="960.2689" y="-298.5" font-family="Helvetica,sans-Serif" font-size="10.00" fill="#000000">main.cpp</text>
</a>
</g>
</g>
<!-- Node1 -->
<g id="node2" class="node">
<title>Node1</title>
<g id="a_node2"><a xlink:href="PNG_8h.html" target="_top" xlink:title=" ">
<polygon fill="none" stroke="#000000" points="164.7689,-112.5 164.7689,-131.5 263.7689,-131.5 263.7689,-112.5 164.7689,-112.5"/>
<text text-anchor="middle" x="214.2689" y="-119.5" font-family="Helvetica,sans-Serif" font-size="10.00" fill="#000000">cs225/PNG.h</text>
</a>
</g>
</g>
<!-- Node0&#45;&gt;Node1 -->
<g id="edge1" class="edge">
<title>Node0&#45;&gt;Node1</title>
<path fill="none" stroke="#191970" d="M921.723,-299.2615C807.1725,-293.9013 470.0952,-276.6749 362.2689,-255 284.6934,-239.406 239.5925,-263.1503 193.2689,-199 180.7918,-181.7213 190.8889,-157.409 200.9378,-140.7526"/>
<polygon fill="#191970" stroke="#191970" points="204.1521,-142.2307 206.6779,-131.9413 198.2868,-138.4098 204.1521,-142.2307"/>
</g>
<!-- Node6 -->
<g id="node7" class="node">
<title>Node6</title>
<g id="a_node7"><a xlink:href="FloodFilledImage_8h.html" target="_top" xlink:title="Definition for a class to do flood fill on an image.">
<polygon fill="none" stroke="#000000" points="371.2689,-235.5 371.2689,-254.5 523.2689,-254.5 523.2689,-235.5 371.2689,-235.5"/>
<text text-anchor="middle" x="447.2689" y="-242.5" font-family="Helvetica,sans-Serif" font-size="10.00" fill="#000000">FloodFilledImage.h</text>
</a>
</g>
</g>
<!-- Node0&#45;&gt;Node6 -->
<g id="edge6" class="edge">
<title>Node0&#45;&gt;Node6</title>
<path fill="none" stroke="#191970" d="M921.7105,-296.7909C839.717,-287.8403 646.3313,-266.73 533.3937,-254.4015"/>
<polygon fill="#191970" stroke="#191970" points="533.7139,-250.9158 523.3931,-253.3099 532.9542,-257.8744 533.7139,-250.9158"/>
</g>
<!-- Node12 -->
<g id="node13" class="node">
<title>Node12</title>
<g id="a_node13"><a xlink:href="Animation_8h.html" target="_top" xlink:title="Defintion for a class that encapsulates creating animated images from a set of PNG object frames.">
<polygon fill="none" stroke="#000000" points="14.7689,-174 14.7689,-193 113.7689,-193 113.7689,-174 14.7689,-174"/>
<text text-anchor="middle" x="64.2689" y="-181" font-family="Helvetica,sans-Serif" font-size="10.00" fill="#000000">Animation.h</text>
</a>
</g>
</g>
<!-- Node0&#45;&gt;Node12 -->
<g id="edge24" class="edge">
<title>Node0&#45;&gt;Node12</title>
<path fill="none" stroke="#191970" d="M921.6443,-300.5938C767.3774,-298.7375 200.2693,-289.5994 128.2689,-255 104.45,-243.5539 85.5767,-218.8408 74.6651,-201.6965"/>
<polygon fill="#191970" stroke="#191970" points="77.6196,-199.8185 69.4414,-193.0829 71.6342,-203.4483 77.6196,-199.8185"/>
</g>
<!-- Node14 -->
<g id="node15" class="node">
<title>Node14</title>
<g id="a_node15"><a xlink:href="DFS_8h.html" target="_top" xlink:title=" ">
<polygon fill="none" stroke="#000000" points="599.7689,-235.5 599.7689,-254.5 766.7689,-254.5 766.7689,-235.5 599.7689,-235.5"/>
<text text-anchor="middle" x="683.2689" y="-242.5" font-family="Helvetica,sans-Serif" font-size="10.00" fill="#000000">imageTraversal/DFS.h</text>
</a>
</g>
</g>
<!-- Node0&#45;&gt;Node14 -->
<g id="edge25" class="edge">
<title>Node0&#45;&gt;Node14</title>
<path fill="none" stroke="#191970" d="M921.7532,-293.2134C874.7314,-283.7072 794.7862,-267.545 740.5447,-256.5792"/>
<polygon fill="#191970" stroke="#191970" points="741.2247,-253.146 730.7294,-254.5949 739.8376,-260.0072 741.2247,-253.146"/>
</g>
<!-- Node17 -->
<g id="node18" class="node">
<title>Node17</title>
<g id="a_node18"><a xlink:href="BFS_8h.html" target="_top" xlink:title=" ">
<polygon fill="none" stroke="#000000" points="821.7689,-235.5 821.7689,-254.5 988.7689,-254.5 988.7689,-235.5 821.7689,-235.5"/>
<text text-anchor="middle" x="905.2689" y="-242.5" font-family="Helvetica,sans-Serif" font-size="10.00" fill="#000000">imageTraversal/BFS.h</text>
</a>
</g>
</g>
<!-- Node0&#45;&gt;Node17 -->
<g id="edge33" class="edge">
<title>Node0&#45;&gt;Node17</title>
<path fill="none" stroke="#191970" d="M950.6886,-291.2455C942.7231,-283.1352 931.2049,-271.4075 921.761,-261.7919"/>
<polygon fill="#191970" stroke="#191970" points="924.2436,-259.3247 914.7394,-254.6427 919.2494,-264.2297 924.2436,-259.3247"/>
</g>
<!-- Node19 -->
<g id="node20" class="node">
<title>Node19</title>
<g id="a_node20"><a xlink:href="RainbowColorPicker_8h.html" target="_top" xlink:title=" ">
<polygon fill="none" stroke="#000000" points="2034.7689,-168.5 2034.7689,-198.5 2231.7689,-198.5 2231.7689,-168.5 2034.7689,-168.5"/>
<text text-anchor="start" x="2042.7689" y="-186.5" font-family="Helvetica,sans-Serif" font-size="10.00" fill="#000000">colorPicker/RainbowColor</text>
<text text-anchor="middle" x="2133.2689" y="-175.5" font-family="Helvetica,sans-Serif" font-size="10.00" fill="#000000">Picker.h</text>
</a>
</g>
</g>
<!-- Node0&#45;&gt;Node19 -->
<g id="edge41" class="edge">
<title>Node0&#45;&gt;Node19</title>
<path fill="none" stroke="#191970" d="M999.0269,-297.9715C1136.9613,-287.0494 1617.0339,-247.8027 2024.4889,-199.0608"/>
<polygon fill="#191970" stroke="#191970" points="2025.1932,-202.5015 2034.7049,-197.8349 2024.3591,-195.5514 2025.1932,-202.5015"/>
</g>
<!-- Node20 -->
<g id="node21" class="node">
<title>Node20</title>
<g id="a_node21"><a xlink:href="GradientColorPicker_8h.html" target="_top" xlink:title=" ">
<polygon fill="none" stroke="#000000" points="1812.2689,-168.5 1812.2689,-198.5 2016.2689,-198.5 2016.2689,-168.5 1812.2689,-168.5"/>
<text text-anchor="start" x="1820.2689" y="-186.5" font-family="Helvetica,sans-Serif" font-size="10.00" fill="#000000">colorPicker/GradientColor</text>
<text text-anchor="middle" x="1914.2689" y="-175.5" font-family="Helvetica,sans-Serif" font-size="10.00" fill="#000000">Picker.h</text>
</a>
</g>
</g>
<!-- Node0&#45;&gt;Node20 -->
<g id="edge44" class="edge">
<title>Node0&#45;&gt;Node20</title>
<path fill="none" stroke="#191970" d="M998.9522,-296.5752C1117.3288,-282.9803 1485.3336,-240.3139 1801.7726,-199.1832"/>
<polygon fill="#191970" stroke="#191970" points="1802.5979,-202.6054 1812.0624,-197.8439 1801.6943,-195.6639 1802.5979,-202.6054"/>
</g>
<!-- Node21 -->
<g id="node22" class="node">
<title>Node21</title>
<g id="a_node22"><a xlink:href="GridColorPicker_8h.html" target="_top" xlink:title=" ">
<polygon fill="none" stroke="#000000" points="1062.2689,-174 1062.2689,-193 1296.2689,-193 1296.2689,-174 1062.2689,-174"/>
<text text-anchor="middle" x="1179.2689" y="-181" font-family="Helvetica,sans-Serif" font-size="10.00" fill="#000000">colorPicker/GridColorPicker.h</text>
</a>
</g>
</g>
<!-- Node0&#45;&gt;Node21 -->
<g id="edge48" class="edge">
<title>Node0&#45;&gt;Node21</title>
<path fill="none" stroke="#191970" d="M978.1906,-291.3845C1016.6254,-270.7631 1107.1537,-222.192 1152.4602,-197.8837"/>
<polygon fill="#191970" stroke="#191970" points="1154.2497,-200.8956 1161.4067,-193.0836 1150.9402,-194.7273 1154.2497,-200.8956"/>
</g>
<!-- Node22 -->
<g id="node23" class="node">
<title>Node22</title>
<g id="a_node23"><a xlink:href="SolidColorPicker_8h.html" target="_top" xlink:title=" ">
<polygon fill="none" stroke="#000000" points="1314.2689,-174 1314.2689,-193 1556.2689,-193 1556.2689,-174 1314.2689,-174"/>
<text text-anchor="middle" x="1435.2689" y="-181" font-family="Helvetica,sans-Serif" font-size="10.00" fill="#000000">colorPicker/SolidColorPicker.h</text>
</a>
</g>
</g>
<!-- Node0&#45;&gt;Node22 -->
<g id="edge52" class="edge">
<title>Node0&#45;&gt;Node22</title>
<path fill="none" stroke="#191970" d="M998.7378,-291.484C1084.7224,-270.2141 1292.3375,-218.8567 1386.898,-195.4654"/>
<polygon fill="#191970" stroke="#191970" points="1387.906,-198.8217 1396.773,-193.0227 1386.2251,-192.0265 1387.906,-198.8217"/>
</g>
<!-- Node23 -->
<g id="node24" class="node">
<title>Node23</title>
<g id="a_node24"><a xlink:href="MyColorPicker_8h.html" target="_top" xlink:title=" ">
<polygon fill="none" stroke="#000000" points="1574.7689,-174 1574.7689,-193 1793.7689,-193 1793.7689,-174 1574.7689,-174"/>
<text text-anchor="middle" x="1684.2689" y="-181" font-family="Helvetica,sans-Serif" font-size="10.00" fill="#000000">colorPicker/MyColorPicker.h</text>
</a>
</g>
</g>
<!-- Node0&#45;&gt;Node23 -->
<g id="edge56" class="edge">
<title>Node0&#45;&gt;Node23</title>
<path fill="none" stroke="#191970" d="M998.9383,-294.7242C1115.8085,-275.757 1466.462,-218.8485 1615.7581,-194.6188"/>
<polygon fill="#191970" stroke="#191970" points="1616.4149,-198.0581 1625.725,-193.0013 1615.2935,-191.1485 1616.4149,-198.0581"/>
</g>
<!-- Node2 -->
<g id="node3" class="node">
<title>Node2</title>
<g id="a_node3"><a xlink:title=" ">
<polygon fill="none" stroke="#bfbfbf" points="143.2689,-56.5 143.2689,-75.5 205.2689,-75.5 205.2689,-56.5 143.2689,-56.5"/>
<text text-anchor="middle" x="174.2689" y="-63.5" font-family="Helvetica,sans-Serif" font-size="10.00" fill="#000000">string</text>
</a>
</g>
</g>
<!-- Node1&#45;&gt;Node2 -->
<g id="edge2" class="edge">
<title>Node1&#45;&gt;Node2</title>
<path fill="none" stroke="#191970" d="M207.3014,-112.2455C201.7378,-104.4564 193.7909,-93.3308 187.086,-83.9439"/>
<polygon fill="#191970" stroke="#191970" points="189.817,-81.7457 181.1565,-75.6427 184.1209,-85.8144 189.817,-81.7457"/>
</g>
<!-- Node3 -->
<g id="node4" class="node">
<title>Node3</title>
<g id="a_node4"><a xlink:href="HSLAPixel_8h.html" target="_top" xlink:title=" ">
<polygon fill="none" stroke="#000000" points="1248.7689,-56.5 1248.7689,-75.5 1347.7689,-75.5 1347.7689,-56.5 1248.7689,-56.5"/>
<text text-anchor="middle" x="1298.2689" y="-63.5" font-family="Helvetica,sans-Serif" font-size="10.00" fill="#000000">HSLAPixel.h</text>
</a>
</g>
</g>
<!-- Node1&#45;&gt;Node3 -->
<g id="edge3" class="edge">
<title>Node1&#45;&gt;Node3</title>
<path fill="none" stroke="#191970" d="M264.0201,-119.4298C441.8139,-110.2449 1045.4131,-79.0627 1238.4074,-69.0925"/>
<polygon fill="#191970" stroke="#191970" points="1238.8317,-72.5753 1248.6378,-68.564 1238.4705,-65.5846 1238.8317,-72.5753"/>
</g>
<!-- Node4 -->
<g id="node5" class="node">
<title>Node4</title>
<g id="a_node5"><a xlink:title=" ">
<polygon fill="none" stroke="#bfbfbf" points="1140.7689,-.5 1140.7689,-19.5 1217.7689,-19.5 1217.7689,-.5 1140.7689,-.5"/>
<text text-anchor="middle" x="1179.2689" y="-7.5" font-family="Helvetica,sans-Serif" font-size="10.00" fill="#000000">iostream</text>
</a>
</g>
</g>
<!-- Node3&#45;&gt;Node4 -->
<g id="edge4" class="edge">
<title>Node3&#45;&gt;Node4</title>
<path fill="none" stroke="#191970" d="M1277.8121,-56.3733C1258.7951,-47.4241 1230.2514,-33.9917 1208.7713,-23.8835"/>
<polygon fill="#191970" stroke="#191970" points="1209.9973,-20.5923 1199.4588,-19.5011 1207.0167,-26.926 1209.9973,-20.5923"/>
</g>
<!-- Node5 -->
<g id="node6" class="node">
<title>Node5</title>
<g id="a_node6"><a xlink:title=" ">
<polygon fill="none" stroke="#bfbfbf" points="1247.7689,-.5 1247.7689,-19.5 1316.7689,-19.5 1316.7689,-.5 1247.7689,-.5"/>
<text text-anchor="middle" x="1282.2689" y="-7.5" font-family="Helvetica,sans-Serif" font-size="10.00" fill="#000000">sstream</text>
</a>
</g>
</g>
<!-- Node3&#45;&gt;Node5 -->
<g id="edge5" class="edge">
<title>Node3&#45;&gt;Node5</title>
<path fill="none" stroke="#191970" d="M1295.4819,-56.2455C1293.3712,-48.8579 1290.4029,-38.4689 1287.8142,-29.4087"/>
<polygon fill="#191970" stroke="#191970" points="1291.1366,-28.2964 1285.024,-19.6427 1284.4059,-30.2195 1291.1366,-28.2964"/>
</g>
<!-- Node6&#45;&gt;Node1 -->
<g id="edge7" class="edge">
<title>Node6&#45;&gt;Node1</title>
<path fill="none" stroke="#191970" d="M371.0886,-240.9364C307.9291,-235.7846 225.2239,-224.294 204.2689,-199 190.951,-182.9245 197.4049,-158.1213 204.5833,-141.0321"/>
<polygon fill="#191970" stroke="#191970" points="207.9544,-142.0809 208.9762,-131.5354 201.6012,-139.142 207.9544,-142.0809"/>
</g>
<!-- Node6&#45;&gt;Node4 -->
<g id="edge9" class="edge">
<title>Node6&#45;&gt;Node4</title>
<path fill="none" stroke="#191970" d="M371.1029,-242.5212C251.1352,-237.8234 29.2553,-225.6123 5.2689,-199 -12.242,-179.5722 20.6254,-116.2091 24.2689,-112 60.1737,-70.522 81.2172,-69.9677 134.2689,-56 231.1597,-30.4901 937.6021,-14.7773 1130.6399,-10.9281"/>
<polygon fill="#191970" stroke="#191970" points="1130.8377,-14.4249 1140.7665,-10.7277 1130.6992,-7.4263 1130.8377,-14.4249"/>
</g>
<!-- Node7 -->
<g id="node8" class="node">
<title>Node7</title>
<g id="a_node8"><a xlink:title=" ">
<polygon fill="none" stroke="#bfbfbf" points="590.7689,-174 590.7689,-193 637.7689,-193 637.7689,-174 590.7689,-174"/>
<text text-anchor="middle" x="614.2689" y="-181" font-family="Helvetica,sans-Serif" font-size="10.00" fill="#000000">list</text>
</a>
</g>
</g>
<!-- Node6&#45;&gt;Node7 -->
<g id="edge8" class="edge">
<title>Node6&#45;&gt;Node7</title>
<path fill="none" stroke="#191970" d="M475.0809,-235.4859C501.296,-226.423 541.619,-212.2371 576.2689,-199 578.1159,-198.2944 580.009,-197.5597 581.9164,-196.8104"/>
<polygon fill="#191970" stroke="#191970" points="583.4394,-199.9709 591.427,-193.0103 580.8421,-193.4706 583.4394,-199.9709"/>
</g>
<!-- Node8 -->
<g id="node9" class="node">
<title>Node8</title>
<g id="a_node9"><a xlink:href="ColorPicker_8h.html" target="_top" xlink:title=" ">
<polygon fill="none" stroke="#000000" points="1333.2689,-112.5 1333.2689,-131.5 1537.2689,-131.5 1537.2689,-112.5 1333.2689,-112.5"/>
<text text-anchor="middle" x="1435.2689" y="-119.5" font-family="Helvetica,sans-Serif" font-size="10.00" fill="#000000">colorPicker/ColorPicker.h</text>
</a>
</g>
</g>
<!-- Node6&#45;&gt;Node8 -->
<g id="edge10" class="edge">
<title>Node6&#45;&gt;Node8</title>
<path fill="none" stroke="#191970" d="M470.6746,-235.3964C490.3827,-226.9087 518.9988,-213.6304 542.2689,-199 561.0139,-187.2146 560.5674,-175.8562 581.2689,-168 589.834,-164.7496 1093.1684,-139.1509 1322.9964,-127.6096"/>
<polygon fill="#191970" stroke="#191970" points="1323.2506,-131.1014 1333.0626,-127.1043 1322.8996,-124.1102 1323.2506,-131.1014"/>
</g>
<!-- Node9 -->
<g id="node10" class="node">
<title>Node9</title>
<g id="a_node10"><a xlink:href="ImageTraversal_8h.html" target="_top" xlink:title=" ">
<polygon fill="none" stroke="#000000" points="246.7689,-174 246.7689,-193 495.7689,-193 495.7689,-174 246.7689,-174"/>
<text text-anchor="middle" x="371.2689" y="-181" font-family="Helvetica,sans-Serif" font-size="10.00" fill="#000000">imageTraversal/ImageTraversal.h</text>
</a>
</g>
</g>
<!-- Node6&#45;&gt;Node9 -->
<g id="edge12" class="edge">
<title>Node6&#45;&gt;Node9</title>
<path fill="none" stroke="#191970" d="M435.3939,-235.3906C423.6392,-225.8786 405.4203,-211.1357 391.4017,-199.7917"/>
<polygon fill="#191970" stroke="#191970" points="393.2867,-196.8146 383.3113,-193.2449 388.8833,-202.2562 393.2867,-196.8146"/>
</g>
<!-- Node11 -->
<g id="node12" class="node">
<title>Node11</title>
<g id="a_node12"><a xlink:href="Point_8h.html" target="_top" xlink:title="every 2D point of the image is represented by a Point class you need to trverse all the points of the...">
<polygon fill="none" stroke="#000000" points="1133.2689,-112.5 1133.2689,-131.5 1225.2689,-131.5 1225.2689,-112.5 1133.2689,-112.5"/>
<text text-anchor="middle" x="1179.2689" y="-119.5" font-family="Helvetica,sans-Serif" font-size="10.00" fill="#000000">../Point.h</text>
</a>
</g>
</g>
<!-- Node6&#45;&gt;Node11 -->
<g id="edge19" class="edge">
<title>Node6&#45;&gt;Node11</title>
<path fill="none" stroke="#191970" d="M459.272,-235.2284C483.778,-215.3707 538.1137,-171.8465 548.2689,-168 601.2453,-147.934 978.6118,-130.3361 1123.1427,-124.2593"/>
<polygon fill="#191970" stroke="#191970" points="1123.2937,-127.7562 1133.1389,-123.8418 1123.0015,-120.7622 1123.2937,-127.7562"/>
</g>
<!-- Node6&#45;&gt;Node12 -->
<g id="edge20" class="edge">
<title>Node6&#45;&gt;Node12</title>
<path fill="none" stroke="#191970" d="M387.8454,-235.4581C316.0509,-223.9298 195.967,-204.6473 124.0242,-193.0952"/>
<polygon fill="#191970" stroke="#191970" points="124.1989,-189.5785 113.7704,-191.4487 123.089,-196.4899 124.1989,-189.5785"/>
</g>
<!-- Node8&#45;&gt;Node3 -->
<g id="edge11" class="edge">
<title>Node8&#45;&gt;Node3</title>
<path fill="none" stroke="#191970" d="M1411.7178,-112.3733C1389.4298,-103.2629 1355.7752,-89.5062 1330.9052,-79.3404"/>
<polygon fill="#191970" stroke="#191970" points="1332.0936,-76.0451 1321.5127,-75.5011 1329.445,-82.5247 1332.0936,-76.0451"/>
</g>
<!-- Node9&#45;&gt;Node1 -->
<g id="edge15" class="edge">
<title>Node9&#45;&gt;Node1</title>
<path fill="none" stroke="#191970" d="M346.7377,-173.8906C320.2382,-163.5103 277.8358,-146.9004 248.1619,-135.2766"/>
<polygon fill="#191970" stroke="#191970" points="249.2156,-131.9304 238.6279,-131.5419 246.6624,-138.4482 249.2156,-131.9304"/>
</g>
<!-- Node9&#45;&gt;Node3 -->
<g id="edge14" class="edge">
<title>Node9&#45;&gt;Node3</title>
<path fill="none" stroke="#191970" d="M410.8958,-173.9801C476.5004,-158.5773 611.9903,-128.279 728.2689,-112 913.3408,-86.0899 1134.4167,-73.4129 1238.4936,-68.5168"/>
<polygon fill="#191970" stroke="#191970" points="1238.6687,-72.0126 1248.4959,-68.0534 1238.3446,-65.0201 1238.6687,-72.0126"/>
</g>
<!-- Node10 -->
<g id="node11" class="node">
<title>Node10</title>
<g id="a_node11"><a xlink:title=" ">
<polygon fill="none" stroke="#bfbfbf" points="737.7689,-112.5 737.7689,-131.5 814.7689,-131.5 814.7689,-112.5 737.7689,-112.5"/>
<text text-anchor="middle" x="776.2689" y="-119.5" font-family="Helvetica,sans-Serif" font-size="10.00" fill="#000000">iterator</text>
</a>
</g>
</g>
<!-- Node9&#45;&gt;Node10 -->
<g id="edge13" class="edge">
<title>Node9&#45;&gt;Node10</title>
<path fill="none" stroke="#191970" d="M434.1058,-173.9581C515.1665,-161.6489 654.4423,-140.4996 727.8076,-129.3589"/>
<polygon fill="#191970" stroke="#191970" points="728.3482,-132.8171 737.7094,-127.8553 727.2973,-125.8964 728.3482,-132.8171"/>
</g>
<!-- Node9&#45;&gt;Node11 -->
<g id="edge16" class="edge">
<title>Node9&#45;&gt;Node11</title>
<path fill="none" stroke="#191970" d="M451.3286,-173.9857C470.6133,-171.8562 491.1639,-169.7213 510.2689,-168 737.0641,-147.5671 1007.837,-131.5042 1122.9887,-125.0616"/>
<polygon fill="#191970" stroke="#191970" points="1123.1944,-128.5557 1132.9842,-124.5048 1122.805,-121.5665 1123.1944,-128.5557"/>
</g>
<!-- Node11&#45;&gt;Node4 -->
<g id="edge17" class="edge">
<title>Node11&#45;&gt;Node4</title>
<path fill="none" stroke="#191970" d="M1179.2689,-112.4509C1179.2689,-94.184 1179.2689,-53.9553 1179.2689,-29.6976"/>
<polygon fill="#191970" stroke="#191970" points="1182.769,-29.5249 1179.2689,-19.5249 1175.769,-29.5249 1182.769,-29.5249"/>
</g>
<!-- Node11&#45;&gt;Node5 -->
<g id="edge18" class="edge">
<title>Node11&#45;&gt;Node5</title>
<path fill="none" stroke="#191970" d="M1188.1719,-112.1211C1199.8507,-99.1819 1221.0059,-75.8112 1239.2689,-56 1248.0285,-46.4979 1257.8677,-35.9622 1265.9214,-27.3738"/>
<polygon fill="#191970" stroke="#191970" points="1268.7081,-29.5192 1273.0024,-19.8336 1263.6054,-24.7273 1268.7081,-29.5192"/>
</g>
<!-- Node12&#45;&gt;Node1 -->
<g id="edge23" class="edge">
<title>Node12&#45;&gt;Node1</title>
<path fill="none" stroke="#191970" d="M87.7064,-173.8906C112.9142,-163.5554 153.1842,-147.0447 181.5166,-135.4284"/>
<polygon fill="#191970" stroke="#191970" points="183.0712,-138.5739 190.996,-131.5419 180.4157,-132.0971 183.0712,-138.5739"/>
</g>
<!-- Node12&#45;&gt;Node2 -->
<g id="edge21" class="edge">
<title>Node12&#45;&gt;Node2</title>
<path fill="none" stroke="#191970" d="M73.2707,-173.8845C91.8833,-154.0028 134.8181,-108.1406 158.269,-83.0908"/>
<polygon fill="#191970" stroke="#191970" points="160.8636,-85.4406 165.1428,-75.7484 155.7534,-80.6566 160.8636,-85.4406"/>
</g>
<!-- Node13 -->
<g id="node14" class="node">
<title>Node13</title>
<g id="a_node14"><a xlink:title=" ">
<polygon fill="none" stroke="#bfbfbf" points="33.2689,-112.5 33.2689,-131.5 95.2689,-131.5 95.2689,-112.5 33.2689,-112.5"/>
<text text-anchor="middle" x="64.2689" y="-119.5" font-family="Helvetica,sans-Serif" font-size="10.00" fill="#000000">vector</text>
</a>
</g>
</g>
<!-- Node12&#45;&gt;Node13 -->
<g id="edge22" class="edge">
<title>Node12&#45;&gt;Node13</title>
<path fill="none" stroke="#191970" d="M64.2689,-173.8906C64.2689,-165.3657 64.2689,-152.6392 64.2689,-141.9235"/>
<polygon fill="#191970" stroke="#191970" points="67.769,-141.7448 64.2689,-131.7449 60.769,-141.7449 67.769,-141.7448"/>
</g>
<!-- Node14&#45;&gt;Node1 -->
<g id="edge30" class="edge">
<title>Node14&#45;&gt;Node1</title>
<path fill="none" stroke="#191970" d="M599.5257,-238.7616C474.2117,-229.0849 251.0206,-210.388 237.2689,-199 220.5299,-185.1381 215.646,-159.6348 214.3876,-141.7906"/>
<polygon fill="#191970" stroke="#191970" points="217.8777,-141.4646 213.9973,-131.606 210.8829,-141.7327 217.8777,-141.4646"/>
</g>
<!-- Node14&#45;&gt;Node7 -->
<g id="edge28" class="edge">
<title>Node14&#45;&gt;Node7</title>
<path fill="none" stroke="#191970" d="M672.4877,-235.3906C661.9163,-225.9683 645.5864,-211.4134 632.9086,-200.1137"/>
<polygon fill="#191970" stroke="#191970" points="634.9961,-197.2858 625.2022,-193.2449 630.3385,-202.5114 634.9961,-197.2858"/>
</g>
<!-- Node14&#45;&gt;Node9 -->
<g id="edge32" class="edge">
<title>Node14&#45;&gt;Node9</title>
<path fill="none" stroke="#191970" d="M634.8612,-235.4581C579.4442,-224.5345 488.7086,-206.6492 429.4829,-194.9749"/>
<polygon fill="#191970" stroke="#191970" points="430.0215,-191.5138 419.5334,-193.0137 428.6677,-198.3816 430.0215,-191.5138"/>
</g>
<!-- Node14&#45;&gt;Node10 -->
<g id="edge26" class="edge">
<title>Node14&#45;&gt;Node10</title>
<path fill="none" stroke="#191970" d="M708.1213,-235.4548C724.4544,-227.9367 744.9994,-215.8891 757.2689,-199 769.3676,-182.3461 773.8151,-158.8835 775.4217,-142.2442"/>
<polygon fill="#191970" stroke="#191970" points="778.9331,-142.2021 776.1391,-131.9823 771.9501,-141.7138 778.9331,-142.2021"/>
</g>
<!-- Node14&#45;&gt;Node11 -->
<g id="edge31" class="edge">
<title>Node14&#45;&gt;Node11</title>
<path fill="none" stroke="#191970" d="M679.9823,-235.4742C675.0673,-219.2811 668.0962,-186.3614 685.2689,-168 714.6757,-136.5576 999.4339,-126.1705 1122.7756,-123.1286"/>
<polygon fill="#191970" stroke="#191970" points="1123.2251,-126.6189 1133.1386,-122.881 1123.0578,-119.6209 1123.2251,-126.6189"/>
</g>
<!-- Node15 -->
<g id="node16" class="node">
<title>Node15</title>
<g id="a_node16"><a xlink:title=" ">
<polygon fill="none" stroke="#bfbfbf" points="804.2689,-174 804.2689,-193 858.2689,-193 858.2689,-174 804.2689,-174"/>
<text text-anchor="middle" x="831.2689" y="-181" font-family="Helvetica,sans-Serif" font-size="10.00" fill="#000000">cmath</text>
</a>
</g>
</g>
<!-- Node14&#45;&gt;Node15 -->
<g id="edge27" class="edge">
<title>Node14&#45;&gt;Node15</title>
<path fill="none" stroke="#191970" d="M706.3939,-235.3906C731.2656,-225.0554 770.9987,-208.5447 798.9533,-196.9284"/>
<polygon fill="#191970" stroke="#191970" points="800.4149,-200.1113 808.3063,-193.0419 797.7288,-193.6472 800.4149,-200.1113"/>
</g>
<!-- Node16 -->
<g id="node17" class="node">
<title>Node16</title>
<g id="a_node17"><a xlink:title=" ">
<polygon fill="none" stroke="#bfbfbf" points="694.2689,-174 694.2689,-193 748.2689,-193 748.2689,-174 694.2689,-174"/>
<text text-anchor="middle" x="721.2689" y="-181" font-family="Helvetica,sans-Serif" font-size="10.00" fill="#000000">stack</text>
</a>
</g>
</g>
<!-- Node14&#45;&gt;Node16 -->
<g id="edge29" class="edge">
<title>Node14&#45;&gt;Node16</title>
<path fill="none" stroke="#191970" d="M689.2064,-235.3906C694.6956,-226.5068 703.0042,-213.0601 709.7879,-202.0811"/>
<polygon fill="#191970" stroke="#191970" points="712.9687,-203.5917 715.2477,-193.2449 707.0138,-199.9122 712.9687,-203.5917"/>
</g>
<!-- Node17&#45;&gt;Node1 -->
<g id="edge38" class="edge">
<title>Node17&#45;&gt;Node1</title>
<path fill="none" stroke="#191970" d="M903.6828,-235.4336C900.3255,-218.5565 890.7832,-183.7899 867.2689,-168 818.7033,-135.3881 425.8603,-125.4786 273.9417,-122.8488"/>
<polygon fill="#191970" stroke="#191970" points="273.9161,-119.348 263.8585,-122.6789 273.798,-126.347 273.9161,-119.348"/>
</g>
<!-- Node17&#45;&gt;Node7 -->
<g id="edge36" class="edge">
<title>Node17&#45;&gt;Node7</title>
<path fill="none" stroke="#191970" d="M858.8907,-235.4265C814.3502,-226.2031 745.1783,-211.8024 685.2689,-199 673.0542,-196.3898 659.6686,-193.4803 647.8445,-190.8935"/>
<polygon fill="#191970" stroke="#191970" points="648.4418,-187.4414 637.9243,-188.7189 646.9429,-194.279 648.4418,-187.4414"/>
</g>
<!-- Node17&#45;&gt;Node9 -->
<g id="edge40" class="edge">
<title>Node17&#45;&gt;Node9</title>
<path fill="none" stroke="#191970" d="M822.7097,-235.4918C725.7699,-224.3274 565.3967,-205.8574 464.1857,-194.2011"/>
<polygon fill="#191970" stroke="#191970" points="464.3071,-190.692 453.9723,-193.0248 463.5061,-197.6461 464.3071,-190.692"/>
</g>
<!-- Node17&#45;&gt;Node10 -->
<g id="edge34" class="edge">
<title>Node17&#45;&gt;Node10</title>
<path fill="none" stroke="#191970" d="M907.6905,-235.3592C911.0483,-219.5758 915.1533,-187.9827 900.2689,-168 890.7698,-155.2471 855.2501,-142.8282 824.6476,-134.1152"/>
<polygon fill="#191970" stroke="#191970" points="825.4953,-130.7182 814.9238,-131.4208 823.626,-137.4641 825.4953,-130.7182"/>
</g>
<!-- Node17&#45;&gt;Node11 -->
<g id="edge39" class="edge">
<title>Node17&#45;&gt;Node11</title>
<path fill="none" stroke="#191970" d="M911.7951,-235.4998C923.6281,-219.0425 950.2885,-185.3334 981.2689,-168 1025.1341,-143.4576 1081.4786,-131.9854 1122.8382,-126.6366"/>
<polygon fill="#191970" stroke="#191970" points="1123.507,-130.0813 1133.0137,-125.4044 1122.6655,-123.132 1123.507,-130.0813"/>
</g>
<!-- Node17&#45;&gt;Node15 -->
<g id="edge35" class="edge">
<title>Node17&#45;&gt;Node15</title>
<path fill="none" stroke="#191970" d="M893.7064,-235.3906C882.2611,-225.8786 864.5216,-211.1357 850.8719,-199.7917"/>
<polygon fill="#191970" stroke="#191970" points="852.9222,-196.9447 842.9944,-193.2449 848.4481,-202.3283 852.9222,-196.9447"/>
</g>
<!-- Node18 -->
<g id="node19" class="node">
<title>Node18</title>
<g id="a_node19"><a xlink:title=" ">
<polygon fill="none" stroke="#bfbfbf" points="990.2689,-174 990.2689,-193 1044.2689,-193 1044.2689,-174 990.2689,-174"/>
<text text-anchor="middle" x="1017.2689" y="-181" font-family="Helvetica,sans-Serif" font-size="10.00" fill="#000000">queue</text>
</a>
</g>
</g>
<!-- Node17&#45;&gt;Node18 -->
<g id="edge37" class="edge">
<title>Node17&#45;&gt;Node18</title>
<path fill="none" stroke="#191970" d="M922.7689,-235.3906C941.0154,-225.3713 969.8313,-209.5483 990.8495,-198.0071"/>
<polygon fill="#191970" stroke="#191970" points="992.8109,-200.923 999.8918,-193.0419 989.4417,-194.7872 992.8109,-200.923"/>
</g>
<!-- Node19&#45;&gt;Node3 -->
<g id="edge43" class="edge">
<title>Node19&#45;&gt;Node3</title>
<path fill="none" stroke="#191970" d="M2034.5131,-168.6752C1935.7827,-153.945 1779.5913,-130.8878 1644.2689,-112 1543.9407,-97.9966 1427.1032,-82.6667 1358.0986,-73.714"/>
<polygon fill="#191970" stroke="#191970" points="1358.2255,-70.2013 1347.8585,-72.3867 1357.3256,-77.1432 1358.2255,-70.2013"/>
</g>
<!-- Node19&#45;&gt;Node8 -->
<g id="edge42" class="edge">
<title>Node19&#45;&gt;Node8</title>
<path fill="none" stroke="#191970" d="M2034.7139,-169.0872C2031.5301,-168.7074 2028.3754,-168.3437 2025.2689,-168 1859.4367,-149.6548 1666.5825,-136.0739 1547.7183,-128.5949"/>
<polygon fill="#191970" stroke="#191970" points="1547.7153,-125.0879 1537.5162,-127.9565 1547.2781,-132.0743 1547.7153,-125.0879"/>
</g>
<!-- Node20&#45;&gt;Node3 -->
<g id="edge46" class="edge">
<title>Node20&#45;&gt;Node3</title>
<path fill="none" stroke="#191970" d="M1849.9795,-168.4957C1783.6254,-153.2627 1677.0135,-129.4926 1584.2689,-112 1506.4128,-97.3155 1416.07,-83.2838 1358.0938,-74.6627"/>
<polygon fill="#191970" stroke="#191970" points="1358.4156,-71.1722 1348.0107,-73.1693 1357.39,-78.0967 1358.4156,-71.1722"/>
</g>
<!-- Node20&#45;&gt;Node8 -->
<g id="edge45" class="edge">
<title>Node20&#45;&gt;Node8</title>
<path fill="none" stroke="#191970" d="M1812.0604,-169.1713C1809.0978,-168.774 1806.1624,-168.3828 1803.2689,-168 1708.1675,-155.4169 1599.1135,-141.8992 1524.561,-132.797"/>
<polygon fill="#191970" stroke="#191970" points="1524.6256,-129.279 1514.2753,-131.5425 1523.778,-136.2275 1524.6256,-129.279"/>
</g>
<!-- Node20&#45;&gt;Node11 -->
<g id="edge47" class="edge">
<title>Node20&#45;&gt;Node11</title>
<path fill="none" stroke="#191970" d="M1812.0838,-168.9757C1809.1144,-168.6355 1806.1711,-168.3093 1803.2689,-168 1747.7475,-162.0834 1378.9048,-135.9987 1235.8382,-125.9582"/>
<polygon fill="#191970" stroke="#191970" points="1235.7505,-122.4435 1225.5301,-125.2351 1235.2606,-129.4263 1235.7505,-122.4435"/>
</g>
<!-- Node21&#45;&gt;Node3 -->
<g id="edge50" class="edge">
<title>Node21&#45;&gt;Node3</title>
<path fill="none" stroke="#191970" d="M1189.9559,-173.7763C1201.144,-163.5311 1219.1539,-146.8532 1234.2689,-132 1250.8614,-115.6949 1269.3056,-96.5625 1282.1148,-83.1073"/>
<polygon fill="#191970" stroke="#191970" points="1284.9513,-85.2028 1289.2951,-75.5393 1279.8732,-80.3848 1284.9513,-85.2028"/>
</g>
<!-- Node21&#45;&gt;Node8 -->
<g id="edge49" class="edge">
<title>Node21&#45;&gt;Node8</title>
<path fill="none" stroke="#191970" d="M1218.988,-173.9581C1263.8292,-163.1857 1336.8532,-145.6428 1385.4714,-133.9631"/>
<polygon fill="#191970" stroke="#191970" points="1386.5508,-137.3034 1395.4566,-131.5643 1384.9157,-130.4971 1386.5508,-137.3034"/>
</g>
<!-- Node21&#45;&gt;Node11 -->
<g id="edge51" class="edge">
<title>Node21&#45;&gt;Node11</title>
<path fill="none" stroke="#191970" d="M1179.2689,-173.8906C1179.2689,-165.3657 1179.2689,-152.6392 1179.2689,-141.9235"/>
<polygon fill="#191970" stroke="#191970" points="1182.769,-141.7448 1179.2689,-131.7449 1175.769,-141.7449 1182.769,-141.7448"/>
</g>
<!-- Node22&#45;&gt;Node3 -->
<g id="edge54" class="edge">
<title>Node22&#45;&gt;Node3</title>
<path fill="none" stroke="#191970" d="M1397.7647,-173.9339C1373.9531,-166.1479 1344.0127,-152.9473 1324.2689,-132 1312.1527,-119.1452 1305.4515,-99.9756 1301.9011,-85.6032"/>
<polygon fill="#191970" stroke="#191970" points="1305.3005,-84.764 1299.7627,-75.7317 1298.4592,-86.246 1305.3005,-84.764"/>
</g>
<!-- Node22&#45;&gt;Node8 -->
<g id="edge53" class="edge">
<title>Node22&#45;&gt;Node8</title>
<path fill="none" stroke="#191970" d="M1435.2689,-173.8906C1435.2689,-165.3657 1435.2689,-152.6392 1435.2689,-141.9235"/>
<polygon fill="#191970" stroke="#191970" points="1438.769,-141.7448 1435.2689,-131.7449 1431.769,-141.7449 1438.769,-141.7448"/>
</g>
<!-- Node22&#45;&gt;Node11 -->
<g id="edge55" class="edge">
<title>Node22&#45;&gt;Node11</title>
<path fill="none" stroke="#191970" d="M1395.5498,-173.9581C1350.7086,-163.1857 1277.6846,-145.6428 1229.0664,-133.9631"/>
<polygon fill="#191970" stroke="#191970" points="1229.6221,-130.4971 1219.0812,-131.5643 1227.987,-137.3034 1229.6221,-130.4971"/>
</g>
<!-- Node23&#45;&gt;Node3 -->
<g id="edge58" class="edge">
<title>Node23&#45;&gt;Node3</title>
<path fill="none" stroke="#191970" d="M1669.2071,-173.7919C1644.5258,-158.3309 1593.4826,-128.2097 1546.2689,-112 1483.8854,-90.5821 1409.0584,-78.4432 1358.0267,-72.0788"/>
<polygon fill="#191970" stroke="#191970" points="1358.1782,-68.5717 1347.8301,-70.8445 1357.3369,-75.521 1358.1782,-68.5717"/>
</g>
<!-- Node23&#45;&gt;Node8 -->
<g id="edge57" class="edge">
<title>Node23&#45;&gt;Node8</title>
<path fill="none" stroke="#191970" d="M1645.6359,-173.9581C1602.0208,-163.1857 1530.9936,-145.6428 1483.7048,-133.9631"/>
<polygon fill="#191970" stroke="#191970" points="1484.5401,-130.5643 1473.9926,-131.5643 1482.8616,-137.3601 1484.5401,-130.5643"/>
</g>
<!-- Node23&#45;&gt;Node11 -->
<g id="edge59" class="edge">
<title>Node23&#45;&gt;Node11</title>
<path fill="none" stroke="#191970" d="M1612.2319,-173.9886C1596.7437,-171.9795 1580.4644,-169.895 1565.2689,-168 1448.0605,-153.3832 1310.6993,-137.2521 1235.5236,-128.5091"/>
<polygon fill="#191970" stroke="#191970" points="1235.6745,-125.0032 1225.3373,-127.3254 1234.8664,-131.9564 1235.6745,-125.0032"/>
</g>
</g>
</svg>
        <g id="navigator" transform="translate(0 0)" fill="#404254">
                <rect fill="#f2f5e9" fill-opacity="0.5" stroke="#606060" stroke-width=".5" x="0" y="0" width="60" height="60"/>
                <use id="zoomplus" xlink:href="#zoomPlus" x="17" y="9" onmousedown="handleZoom(evt,'in')"/>
                <use id="zoomminus" xlink:href="#zoomMin" x="42" y="9" onmousedown="handleZoom(evt,'out')"/>
                <use id="reset" xlink:href="#resetDef" x="30" y="36" onmousedown="handleReset()"/>
                <g id="arrowUp" xlink:href="#dirArrow" transform="translate(30 24)" onmousedown="handlePan(0,-1)">
                  <use xlink:href="#rim" fill="#404040">
                        <set attributeName="fill" to="#808080" begin="arrowUp.mouseover" end="arrowUp.mouseout"/>
                  </use>
                  <path fill="none" stroke="white" stroke-width="1.5" d="M0,-3.0v7 M-2.5,-0.5L0,-3.0L2.5,-0.5"/>
                </g>
                <g id="arrowRight" xlink:href="#dirArrow" transform="rotate(90) translate(36 -43)" onmousedown="handlePan(1,0)">
                  <use xlink:href="#rim" fill="#404040">
                        <set attributeName="fill" to="#808080" begin="arrowRight.mouseover" end="arrowRight.mouseout"/>
                  </use>
                  <path fill="none" stroke="white" stroke-width="1.5" d="M0,-3.0v7 M-2.5,-0.5L0,-3.0L2.5,-0.5"/>
                </g>
                <g id="arrowDown" xlink:href="#dirArrow" transform="rotate(180) translate(-30 -48)" onmousedown="handlePan(0,1)">
                  <use xlink:href="#rim" fill="#404040">
                        <set attributeName="fill" to="#808080" begin="arrowDown.mouseover" end="arrowDown.mouseout"/>
                  </use>
                  <path fill="none" stroke="white" stroke-width="1.5" d="M0,-3.0v7 M-2.5,-0.5L0,-3.0L2.5,-0.5"/>
                </g>
                <g id="arrowLeft" xlink:href="#dirArrow" transform="rotate(270) translate(-36 17)" onmousedown="handlePan(-1,0)">
                  <use xlink:href="#rim" fill="#404040">
                        <set attributeName="fill" to="#808080" begin="arrowLeft.mouseover" end="arrowLeft.mouseout"/>
                  </use>
                  <path fill="none" stroke="white" stroke-width="1.5" d="M0,-3.0v7 M-2.5,-0.5L0,-3.0L2.5,-0.5"/>
                </g>
        </g>
        <svg viewBox="0 0 15 15" width="100%" height="30px" preserveAspectRatio="xMaxYMin meet">
         <g id="arrow_out" transform="scale(0.3 0.3)">
          <a xlink:href="main_8cpp__incl_org.svg" target="_base">
           <rect id="button" ry="5" rx="5" y="6" x="6" height="38" width="38"
                fill="#f2f5e9" fill-opacity="0.5" stroke="#606060" stroke-width="1.0"/>
           <path id="arrow"
             d="M 11.500037,31.436501 C 11.940474,20.09759 22.043105,11.32322 32.158766,21.979434 L 37.068811,17.246167 C 37.068811,17.246167 37.088388,32 37.088388,32 L 22.160133,31.978069 C 22.160133,31.978069 26.997745,27.140456 26.997745,27.140456 C 18.528582,18.264221 13.291696,25.230495 11.500037,31.436501 z"
             style="fill:#404040;"/>
          </a>
         </g>
        </svg>
</svg>
