<?xml version="1.0" encoding="UTF-8" standalone="no"?>
<!DOCTYPE svg PUBLIC "-//W3C//DTD SVG 1.1//EN"
 "http://www.w3.org/Graphics/SVG/1.1/DTD/svg11.dtd">
<!-- Generated by graphviz version 2.40.1 (0)
 -->
<!-- Title: colorPicker/MyColorPicker.h Pages: 1 -->
<svg width="286pt" height="196pt"
 viewBox="0.00 0.00 286.00 196.00" xmlns="http://www.w3.org/2000/svg" xmlns:xlink="http://www.w3.org/1999/xlink">
<g id="graph0" class="graph" transform="scale(1 1) rotate(0) translate(4 192)">
<title>colorPicker/MyColorPicker.h</title>
<!-- Node0 -->
<g id="node1" class="node">
<title>Node0</title>
<g id="a_node1"><a xlink:title=" ">
<polygon fill="#bfbfbf" stroke="#000000" points="59,-168.5 59,-187.5 278,-187.5 278,-168.5 59,-168.5"/>
<text text-anchor="middle" x="168.5" y="-175.5" font-family="Helvetica,sans-Serif" font-size="10.00" fill="#000000">colorPicker/MyColorPicker.h</text>
</a>
</g>
</g>
<!-- Node1 -->
<g id="node2" class="node">
<title>Node1</title>
<g id="a_node2"><a xlink:href="ColorPicker_8h.html" target="_top" xlink:title=" ">
<polygon fill="none" stroke="#000000" points="26.5,-112.5 26.5,-131.5 140.5,-131.5 140.5,-112.5 26.5,-112.5"/>
<text text-anchor="middle" x="83.5" y="-119.5" font-family="Helvetica,sans-Serif" font-size="10.00" fill="#000000">ColorPicker.h</text>
</a>
</g>
</g>
<!-- Node0&#45;&gt;Node1 -->
<g id="edge1" class="edge">
<title>Node0&#45;&gt;Node1</title>
<path fill="none" stroke="#191970" d="M153.6941,-168.2455C140.7744,-159.7337 121.8069,-147.2375 106.8448,-137.3801"/>
<polygon fill="#191970" stroke="#191970" points="108.4124,-134.2216 98.1362,-131.6427 104.5613,-140.067 108.4124,-134.2216"/>
</g>
<!-- Node2 -->
<g id="node3" class="node">
<title>Node2</title>
<g id="a_node3"><a xlink:href="HSLAPixel_8h.html" target="_top" xlink:title=" ">
<polygon fill="none" stroke="#000000" points="0,-56.5 0,-75.5 167,-75.5 167,-56.5 0,-56.5"/>
<text text-anchor="middle" x="83.5" y="-63.5" font-family="Helvetica,sans-Serif" font-size="10.00" fill="#000000">../cs225/HSLAPixel.h</text>
</a>
</g>
</g>
<!-- Node0&#45;&gt;Node2 -->
<g id="edge5" class="edge">
<title>Node0&#45;&gt;Node2</title>
<path fill="none" stroke="#191970" d="M167.7236,-168.1592C166.2132,-154.4255 161.8528,-129.259 149.5,-112 140.2115,-99.0223 126.0658,-88.4653 113.2494,-80.7535"/>
<polygon fill="#191970" stroke="#191970" points="114.6661,-77.5334 104.2405,-75.6471 111.2142,-83.6232 114.6661,-77.5334"/>
</g>
<!-- Node5 -->
<g id="node6" class="node">
<title>Node5</title>
<g id="a_node6"><a xlink:href="Point_8h.html" target="_top" xlink:title="every 2D point of the image is represented by a Point class you need to trverse all the points of the...">
<polygon fill="none" stroke="#000000" points="185.5,-56.5 185.5,-75.5 277.5,-75.5 277.5,-56.5 185.5,-56.5"/>
<text text-anchor="middle" x="231.5" y="-63.5" font-family="Helvetica,sans-Serif" font-size="10.00" fill="#000000">../Point.h</text>
</a>
</g>
</g>
<!-- Node0&#45;&gt;Node5 -->
<g id="edge6" class="edge">
<title>Node0&#45;&gt;Node5</title>
<path fill="none" stroke="#191970" d="M173.8713,-168.4509C184.3325,-149.8533 207.5983,-108.4919 221.152,-84.3964"/>
<polygon fill="#191970" stroke="#191970" points="224.2901,-85.9566 226.1423,-75.5249 218.1891,-82.5247 224.2901,-85.9566"/>
</g>
<!-- Node1&#45;&gt;Node2 -->
<g id="edge2" class="edge">
<title>Node1&#45;&gt;Node2</title>
<path fill="none" stroke="#191970" d="M83.5,-112.2455C83.5,-104.9382 83.5,-94.6944 83.5,-85.7046"/>
<polygon fill="#191970" stroke="#191970" points="87.0001,-85.6426 83.5,-75.6427 80.0001,-85.6427 87.0001,-85.6426"/>
</g>
<!-- Node3 -->
<g id="node4" class="node">
<title>Node3</title>
<g id="a_node4"><a xlink:title=" ">
<polygon fill="none" stroke="#bfbfbf" points="73,-.5 73,-19.5 150,-19.5 150,-.5 73,-.5"/>
<text text-anchor="middle" x="111.5" y="-7.5" font-family="Helvetica,sans-Serif" font-size="10.00" fill="#000000">iostream</text>
</a>
</g>
</g>
<!-- Node2&#45;&gt;Node3 -->
<g id="edge3" class="edge">
<title>Node2&#45;&gt;Node3</title>
<path fill="none" stroke="#191970" d="M88.3772,-56.2455C92.1513,-48.6973 97.4921,-38.0158 102.0901,-28.8197"/>
<polygon fill="#191970" stroke="#191970" points="105.337,-30.1522 106.6787,-19.6427 99.076,-27.0217 105.337,-30.1522"/>
</g>
<!-- Node4 -->
<g id="node5" class="node">
<title>Node4</title>
<g id="a_node5"><a xlink:title=" ">
<polygon fill="none" stroke="#bfbfbf" points="182,-.5 182,-19.5 251,-19.5 251,-.5 182,-.5"/>
<text text-anchor="middle" x="216.5" y="-7.5" font-family="Helvetica,sans-Serif" font-size="10.00" fill="#000000">sstream</text>
</a>
</g>
</g>
<!-- Node2&#45;&gt;Node4 -->
<g id="edge4" class="edge">
<title>Node2&#45;&gt;Node4</title>
<path fill="none" stroke="#191970" d="M106.3635,-56.3733C127.905,-47.3032 160.3838,-33.6279 184.4956,-23.4755"/>
<polygon fill="#191970" stroke="#191970" points="186.0767,-26.6075 193.9348,-19.5011 183.3603,-20.156 186.0767,-26.6075"/>
</g>
<!-- Node5&#45;&gt;Node3 -->
<g id="edge7" class="edge">
<title>Node5&#45;&gt;Node3</title>
<path fill="none" stroke="#191970" d="M210.8713,-56.3733C191.6081,-47.3838 162.6514,-33.8706 140.9581,-23.7471"/>
<polygon fill="#191970" stroke="#191970" points="142.4015,-20.5584 131.8595,-19.5011 139.4413,-26.9017 142.4015,-20.5584"/>
</g>
<!-- Node5&#45;&gt;Node4 -->
<g id="edge8" class="edge">
<title>Node5&#45;&gt;Node4</title>
<path fill="none" stroke="#191970" d="M228.8872,-56.2455C226.9084,-48.8579 224.1256,-38.4689 221.6988,-29.4087"/>
<polygon fill="#191970" stroke="#191970" points="225.0511,-28.3966 219.0829,-19.6427 218.2895,-30.2078 225.0511,-28.3966"/>
</g>
</g>
</svg>
