<?xml version="1.0" encoding="UTF-8" standalone="no"?>
<!DOCTYPE svg PUBLIC "-//W3C//DTD SVG 1.1//EN"
 "http://www.w3.org/Graphics/SVG/1.1/DTD/svg11.dtd">
<!-- Generated by graphviz version 2.40.1 (0)
 -->
<!-- Title: colorPicker/MyColorPicker.cpp Pages: 1 -->
<svg width="289pt" height="252pt"
 viewBox="0.00 0.00 289.00 252.00" xmlns="http://www.w3.org/2000/svg" xmlns:xlink="http://www.w3.org/1999/xlink">
<g id="graph0" class="graph" transform="scale(1 1) rotate(0) translate(4 248)">
<title>colorPicker/MyColorPicker.cpp</title>
<!-- Node0 -->
<g id="node1" class="node">
<title>Node0</title>
<g id="a_node1"><a xlink:title=" ">
<polygon fill="#bfbfbf" stroke="#000000" points="0,-224.5 0,-243.5 234,-243.5 234,-224.5 0,-224.5"/>
<text text-anchor="middle" x="117" y="-231.5" font-family="Helvetica,sans-Serif" font-size="10.00" fill="#000000">colorPicker/MyColorPicker.cpp</text>
</a>
</g>
</g>
<!-- Node1 -->
<g id="node2" class="node">
<title>Node1</title>
<g id="a_node2"><a xlink:href="HSLAPixel_8h.html" target="_top" xlink:title=" ">
<polygon fill="none" stroke="#000000" points="3.5,-56.5 3.5,-75.5 170.5,-75.5 170.5,-56.5 3.5,-56.5"/>
<text text-anchor="middle" x="87" y="-63.5" font-family="Helvetica,sans-Serif" font-size="10.00" fill="#000000">../cs225/HSLAPixel.h</text>
</a>
</g>
</g>
<!-- Node0&#45;&gt;Node1 -->
<g id="edge1" class="edge">
<title>Node0&#45;&gt;Node1</title>
<path fill="none" stroke="#191970" d="M102.7702,-224.4648C80.3336,-208.4645 37.5847,-173.8197 21,-132 17.7231,-123.7372 16.887,-119.8801 21,-112 28.1245,-98.3502 41.3523,-87.926 54.1056,-80.4806"/>
<polygon fill="#191970" stroke="#191970" points="56.0647,-83.4012 63.2141,-75.5822 52.7492,-77.2362 56.0647,-83.4012"/>
</g>
<!-- Node4 -->
<g id="node5" class="node">
<title>Node4</title>
<g id="a_node5"><a xlink:href="Point_8h.html" target="_top" xlink:title="every 2D point of the image is represented by a Point class you need to trverse all the points of the...">
<polygon fill="none" stroke="#000000" points="189,-56.5 189,-75.5 281,-75.5 281,-56.5 189,-56.5"/>
<text text-anchor="middle" x="235" y="-63.5" font-family="Helvetica,sans-Serif" font-size="10.00" fill="#000000">../Point.h</text>
</a>
</g>
</g>
<!-- Node0&#45;&gt;Node4 -->
<g id="edge4" class="edge">
<title>Node0&#45;&gt;Node4</title>
<path fill="none" stroke="#191970" d="M155.5713,-224.4404C187.195,-215.7303 228.2711,-202.1067 238,-188 259.1553,-157.325 249.8268,-111.216 241.9149,-85.3578"/>
<polygon fill="#191970" stroke="#191970" points="245.1594,-84.0206 238.7039,-75.6196 238.5115,-86.2127 245.1594,-84.0206"/>
</g>
<!-- Node5 -->
<g id="node6" class="node">
<title>Node5</title>
<g id="a_node6"><a xlink:href="ColorPicker_8h.html" target="_top" xlink:title=" ">
<polygon fill="none" stroke="#000000" points="30,-112.5 30,-131.5 144,-131.5 144,-112.5 30,-112.5"/>
<text text-anchor="middle" x="87" y="-119.5" font-family="Helvetica,sans-Serif" font-size="10.00" fill="#000000">ColorPicker.h</text>
</a>
</g>
</g>
<!-- Node0&#45;&gt;Node5 -->
<g id="edge7" class="edge">
<title>Node0&#45;&gt;Node5</title>
<path fill="none" stroke="#191970" d="M109.8142,-224.3635C103.6009,-215.4419 95.0057,-201.5474 91,-188 86.5692,-173.0151 85.7195,-155.305 85.8952,-142.0049"/>
<polygon fill="#191970" stroke="#191970" points="89.406,-141.7451 86.2494,-131.6315 82.4101,-141.5062 89.406,-141.7451"/>
</g>
<!-- Node6 -->
<g id="node7" class="node">
<title>Node6</title>
<g id="a_node7"><a xlink:href="MyColorPicker_8h.html" target="_top" xlink:title=" ">
<polygon fill="none" stroke="#000000" points="99.5,-168.5 99.5,-187.5 228.5,-187.5 228.5,-168.5 99.5,-168.5"/>
<text text-anchor="middle" x="164" y="-175.5" font-family="Helvetica,sans-Serif" font-size="10.00" fill="#000000">MyColorPicker.h</text>
</a>
</g>
</g>
<!-- Node0&#45;&gt;Node6 -->
<g id="edge9" class="edge">
<title>Node0&#45;&gt;Node6</title>
<path fill="none" stroke="#191970" d="M125.1868,-224.2455C131.8589,-216.2958 141.4479,-204.8706 149.4253,-195.3656"/>
<polygon fill="#191970" stroke="#191970" points="152.1592,-197.5525 155.907,-187.6427 146.7974,-193.0524 152.1592,-197.5525"/>
</g>
<!-- Node2 -->
<g id="node3" class="node">
<title>Node2</title>
<g id="a_node3"><a xlink:title=" ">
<polygon fill="none" stroke="#bfbfbf" points="76.5,-.5 76.5,-19.5 153.5,-19.5 153.5,-.5 76.5,-.5"/>
<text text-anchor="middle" x="115" y="-7.5" font-family="Helvetica,sans-Serif" font-size="10.00" fill="#000000">iostream</text>
</a>
</g>
</g>
<!-- Node1&#45;&gt;Node2 -->
<g id="edge2" class="edge">
<title>Node1&#45;&gt;Node2</title>
<path fill="none" stroke="#191970" d="M91.8772,-56.2455C95.6513,-48.6973 100.9921,-38.0158 105.5901,-28.8197"/>
<polygon fill="#191970" stroke="#191970" points="108.837,-30.1522 110.1787,-19.6427 102.576,-27.0217 108.837,-30.1522"/>
</g>
<!-- Node3 -->
<g id="node4" class="node">
<title>Node3</title>
<g id="a_node4"><a xlink:title=" ">
<polygon fill="none" stroke="#bfbfbf" points="185.5,-.5 185.5,-19.5 254.5,-19.5 254.5,-.5 185.5,-.5"/>
<text text-anchor="middle" x="220" y="-7.5" font-family="Helvetica,sans-Serif" font-size="10.00" fill="#000000">sstream</text>
</a>
</g>
</g>
<!-- Node1&#45;&gt;Node3 -->
<g id="edge3" class="edge">
<title>Node1&#45;&gt;Node3</title>
<path fill="none" stroke="#191970" d="M109.8635,-56.3733C131.405,-47.3032 163.8838,-33.6279 187.9956,-23.4755"/>
<polygon fill="#191970" stroke="#191970" points="189.5767,-26.6075 197.4348,-19.5011 186.8603,-20.156 189.5767,-26.6075"/>
</g>
<!-- Node4&#45;&gt;Node2 -->
<g id="edge5" class="edge">
<title>Node4&#45;&gt;Node2</title>
<path fill="none" stroke="#191970" d="M214.3713,-56.3733C195.1081,-47.3838 166.1514,-33.8706 144.4581,-23.7471"/>
<polygon fill="#191970" stroke="#191970" points="145.9015,-20.5584 135.3595,-19.5011 142.9413,-26.9017 145.9015,-20.5584"/>
</g>
<!-- Node4&#45;&gt;Node3 -->
<g id="edge6" class="edge">
<title>Node4&#45;&gt;Node3</title>
<path fill="none" stroke="#191970" d="M232.3872,-56.2455C230.4084,-48.8579 227.6256,-38.4689 225.1988,-29.4087"/>
<polygon fill="#191970" stroke="#191970" points="228.5511,-28.3966 222.5829,-19.6427 221.7895,-30.2078 228.5511,-28.3966"/>
</g>
<!-- Node5&#45;&gt;Node1 -->
<g id="edge8" class="edge">
<title>Node5&#45;&gt;Node1</title>
<path fill="none" stroke="#191970" d="M87,-112.2455C87,-104.9382 87,-94.6944 87,-85.7046"/>
<polygon fill="#191970" stroke="#191970" points="90.5001,-85.6426 87,-75.6427 83.5001,-85.6427 90.5001,-85.6426"/>
</g>
<!-- Node6&#45;&gt;Node1 -->
<g id="edge11" class="edge">
<title>Node6&#45;&gt;Node1</title>
<path fill="none" stroke="#191970" d="M164.6353,-168.2204C165.0498,-154.5595 164.0469,-129.4789 153,-112 144.5938,-98.6993 130.8048,-88.1967 117.9985,-80.6053"/>
<polygon fill="#191970" stroke="#191970" points="119.3829,-77.3714 108.9382,-75.5938 115.9947,-83.4968 119.3829,-77.3714"/>
</g>
<!-- Node6&#45;&gt;Node4 -->
<g id="edge12" class="edge">
<title>Node6&#45;&gt;Node4</title>
<path fill="none" stroke="#191970" d="M170.0534,-168.4509C181.8954,-149.7707 208.2965,-108.1238 223.541,-84.0761"/>
<polygon fill="#191970" stroke="#191970" points="226.5638,-85.8448 228.9619,-75.5249 220.6517,-82.0969 226.5638,-85.8448"/>
</g>
<!-- Node6&#45;&gt;Node5 -->
<g id="edge10" class="edge">
<title>Node6&#45;&gt;Node5</title>
<path fill="none" stroke="#191970" d="M150.5876,-168.2455C138.9943,-159.814 122.0252,-147.4729 108.5322,-137.6598"/>
<polygon fill="#191970" stroke="#191970" points="110.4047,-134.6938 100.2587,-131.6427 106.2874,-140.355 110.4047,-134.6938"/>
</g>
</g>
</svg>
