<?xml version="1.0" encoding="UTF-8" standalone="no"?>
<!DOCTYPE svg PUBLIC "-//W3C//DTD SVG 1.1//EN"
 "http://www.w3.org/Graphics/SVG/1.1/DTD/svg11.dtd">
<!-- Generated by graphviz version 2.40.1 (0)
 -->
<!-- Title: cs225/PNG.h Pages: 1 -->
<svg width="218pt" height="140pt"
 viewBox="0.00 0.00 217.50 140.00" xmlns="http://www.w3.org/2000/svg" xmlns:xlink="http://www.w3.org/1999/xlink">
<g id="graph0" class="graph" transform="scale(1 1) rotate(0) translate(4 136)">
<title>cs225/PNG.h</title>
<!-- Node0 -->
<g id="node1" class="node">
<title>Node0</title>
<g id="a_node1"><a xlink:title=" ">
<polygon fill="#bfbfbf" stroke="#000000" points="30.5,-112.5 30.5,-131.5 129.5,-131.5 129.5,-112.5 30.5,-112.5"/>
<text text-anchor="middle" x="80" y="-119.5" font-family="Helvetica,sans-Serif" font-size="10.00" fill="#000000">cs225/PNG.h</text>
</a>
</g>
</g>
<!-- Node1 -->
<g id="node2" class="node">
<title>Node1</title>
<g id="a_node2"><a xlink:title=" ">
<polygon fill="none" stroke="#bfbfbf" points="0,-56.5 0,-75.5 62,-75.5 62,-56.5 0,-56.5"/>
<text text-anchor="middle" x="31" y="-63.5" font-family="Helvetica,sans-Serif" font-size="10.00" fill="#000000">string</text>
</a>
</g>
</g>
<!-- Node0&#45;&gt;Node1 -->
<g id="edge1" class="edge">
<title>Node0&#45;&gt;Node1</title>
<path fill="none" stroke="#191970" d="M71.4649,-112.2455C64.5088,-104.2958 54.5117,-92.8706 46.1949,-83.3656"/>
<polygon fill="#191970" stroke="#191970" points="48.6564,-80.8637 39.4373,-75.6427 43.3884,-85.4732 48.6564,-80.8637"/>
</g>
<!-- Node2 -->
<g id="node3" class="node">
<title>Node2</title>
<g id="a_node3"><a xlink:href="HSLAPixel_8h.html" target="_top" xlink:title=" ">
<polygon fill="none" stroke="#000000" points="80.5,-56.5 80.5,-75.5 179.5,-75.5 179.5,-56.5 80.5,-56.5"/>
<text text-anchor="middle" x="130" y="-63.5" font-family="Helvetica,sans-Serif" font-size="10.00" fill="#000000">HSLAPixel.h</text>
</a>
</g>
</g>
<!-- Node0&#45;&gt;Node2 -->
<g id="edge2" class="edge">
<title>Node0&#45;&gt;Node2</title>
<path fill="none" stroke="#191970" d="M88.7093,-112.2455C95.8073,-104.2958 106.0084,-92.8706 114.495,-83.3656"/>
<polygon fill="#191970" stroke="#191970" points="117.3411,-85.4331 121.3905,-75.6427 112.1195,-80.771 117.3411,-85.4331"/>
</g>
<!-- Node3 -->
<g id="node4" class="node">
<title>Node3</title>
<g id="a_node4"><a xlink:title=" ">
<polygon fill="none" stroke="#bfbfbf" points="45.5,-.5 45.5,-19.5 122.5,-19.5 122.5,-.5 45.5,-.5"/>
<text text-anchor="middle" x="84" y="-7.5" font-family="Helvetica,sans-Serif" font-size="10.00" fill="#000000">iostream</text>
</a>
</g>
</g>
<!-- Node2&#45;&gt;Node3 -->
<g id="edge3" class="edge">
<title>Node2&#45;&gt;Node3</title>
<path fill="none" stroke="#191970" d="M121.9874,-56.2455C115.5232,-48.3761 106.2615,-37.101 98.5017,-27.6542"/>
<polygon fill="#191970" stroke="#191970" points="100.9727,-25.1484 91.9208,-19.6427 95.5636,-29.5916 100.9727,-25.1484"/>
</g>
<!-- Node4 -->
<g id="node5" class="node">
<title>Node4</title>
<g id="a_node5"><a xlink:title=" ">
<polygon fill="none" stroke="#bfbfbf" points="140.5,-.5 140.5,-19.5 209.5,-19.5 209.5,-.5 140.5,-.5"/>
<text text-anchor="middle" x="175" y="-7.5" font-family="Helvetica,sans-Serif" font-size="10.00" fill="#000000">sstream</text>
</a>
</g>
</g>
<!-- Node2&#45;&gt;Node4 -->
<g id="edge4" class="edge">
<title>Node2&#45;&gt;Node4</title>
<path fill="none" stroke="#191970" d="M137.8384,-56.2455C144.162,-48.3761 153.2224,-37.101 160.8136,-27.6542"/>
<polygon fill="#191970" stroke="#191970" points="163.7158,-29.6302 167.2514,-19.6427 158.2592,-25.2454 163.7158,-29.6302"/>
</g>
</g>
</svg>
