<?xml version="1.0" encoding="UTF-8" standalone="no"?>
<!DOCTYPE svg PUBLIC "-//W3C//DTD SVG 1.1//EN"
 "http://www.w3.org/Graphics/SVG/1.1/DTD/svg11.dtd">
<!-- Generated by graphviz version 2.40.1 (0)
 -->
<!-- Title: cs225/PNG.cpp Pages: 1 -->
<!--zoomable 196 -->
<svg id="main" version="1.1" xmlns="http://www.w3.org/2000/svg" xmlns:xlink="http://www.w3.org/1999/xlink" xml:space="preserve" onload="init(evt)">
<style type="text/css"><![CDATA[
.edge:hover path { stroke: red; }
.edge:hover polygon { stroke: red; fill: red; }
]]></style>
<script type="text/javascript"><![CDATA[
var edges = document.getElementsByTagName('g');
if (edges && edges.length) {
  for (var i=0;i<edges.length;i++) {
    if (edges[i].id.substr(0,4)=='edge') {
      edges[i].setAttribute('class','edge');
    }
  }
}
]]></script>
        <defs>
                <circle id="rim" cx="0" cy="0" r="7"/>
                <circle id="rim2" cx="0" cy="0" r="3.5"/>
                <g id="zoomPlus">
                        <use xlink:href="#rim" fill="#404040">
                                <set attributeName="fill" to="#808080" begin="zoomplus.mouseover" end="zoomplus.mouseout"/>
                        </use>
                        <path d="M-4,0h8M0,-4v8" fill="none" stroke="white" stroke-width="1.5" pointer-events="none"/>
                </g>
                <g id="zoomMin">
                        <use xlink:href="#rim" fill="#404040">
                                <set attributeName="fill" to="#808080" begin="zoomminus.mouseover" end="zoomminus.mouseout"/>
                        </use>
                        <path d="M-4,0h8" fill="none" stroke="white" stroke-width="1.5" pointer-events="none"/>
                </g>
                <g id="dirArrow">
                        <path fill="none" stroke="white" stroke-width="1.5" d="M0,-3.0v7 M-2.5,-0.5L0,-3.0L2.5,-0.5"/>
                </g>
               <g id="resetDef">
                       <use xlink:href="#rim2" fill="#404040">
                               <set attributeName="fill" to="#808080" begin="reset.mouseover" end="reset.mouseout"/>
                       </use>
               </g>
        </defs>

<script type="text/javascript">
var viewWidth = 734;
var viewHeight = 196;
var sectionId = 'dynsection-0';
</script>
<script xlink:href="svgpan.js"/>
<svg id="graph" class="graph">
<g id="viewport">
<title>cs225/PNG.cpp</title>
<!-- Node0 -->
<g id="node1" class="node">
<title>Node0</title>
<g id="a_node1"><a xlink:title="Implementation of a simple PNG class using HSLAPixels and the lodepng PNG library.">
<polygon fill="#bfbfbf" stroke="#000000" points="181.0783,-168.5 181.0783,-187.5 295.0783,-187.5 295.0783,-168.5 181.0783,-168.5"/>
<text text-anchor="middle" x="238.0783" y="-175.5" font-family="Helvetica,sans-Serif" font-size="10.00" fill="#000000">cs225/PNG.cpp</text>
</a>
</g>
</g>
<!-- Node1 -->
<g id="node2" class="node">
<title>Node1</title>
<g id="a_node2"><a xlink:title=" ">
<polygon fill="none" stroke="#bfbfbf" points="133.5783,-.5 133.5783,-19.5 210.5783,-19.5 210.5783,-.5 133.5783,-.5"/>
<text text-anchor="middle" x="172.0783" y="-7.5" font-family="Helvetica,sans-Serif" font-size="10.00" fill="#000000">iostream</text>
</a>
</g>
</g>
<!-- Node0&#45;&gt;Node1 -->
<g id="edge1" class="edge">
<title>Node0&#45;&gt;Node1</title>
<path fill="none" stroke="#191970" d="M180.9504,-174.536C120.6014,-169.5438 31.2734,-157.8983 10.0783,-132 -30.2664,-82.7027 67.3341,-42.1488 128.0465,-22.6032"/>
<polygon fill="#191970" stroke="#191970" points="129.3209,-25.8716 137.813,-19.5363 127.2237,-19.1931 129.3209,-25.8716"/>
</g>
<!-- Node2 -->
<g id="node3" class="node">
<title>Node2</title>
<g id="a_node3"><a xlink:title=" ">
<polygon fill="none" stroke="#bfbfbf" points="108.0783,-56.5 108.0783,-75.5 170.0783,-75.5 170.0783,-56.5 108.0783,-56.5"/>
<text text-anchor="middle" x="139.0783" y="-63.5" font-family="Helvetica,sans-Serif" font-size="10.00" fill="#000000">string</text>
</a>
</g>
</g>
<!-- Node0&#45;&gt;Node2 -->
<g id="edge2" class="edge">
<title>Node0&#45;&gt;Node2</title>
<path fill="none" stroke="#191970" d="M181.0697,-174.0058C123.1306,-168.6194 39.126,-156.696 19.0783,-132 -6.2239,-100.8311 54.0531,-82.0664 98.0269,-72.9024"/>
<polygon fill="#191970" stroke="#191970" points="98.8291,-76.3115 107.9579,-70.9343 97.4683,-69.4451 98.8291,-76.3115"/>
</g>
<!-- Node3 -->
<g id="node4" class="node">
<title>Node3</title>
<g id="a_node4"><a xlink:title=" ">
<polygon fill="none" stroke="#bfbfbf" points="28.0783,-112.5 28.0783,-131.5 90.0783,-131.5 90.0783,-112.5 28.0783,-112.5"/>
<text text-anchor="middle" x="59.0783" y="-119.5" font-family="Helvetica,sans-Serif" font-size="10.00" fill="#000000">vector</text>
</a>
</g>
</g>
<!-- Node0&#45;&gt;Node3 -->
<g id="edge3" class="edge">
<title>Node0&#45;&gt;Node3</title>
<path fill="none" stroke="#191970" d="M207.3071,-168.3733C177.4133,-159.021 131.8691,-144.7725 99.1566,-134.5385"/>
<polygon fill="#191970" stroke="#191970" points="100.0369,-131.1466 89.448,-131.5011 97.9468,-137.8273 100.0369,-131.1466"/>
</g>
<!-- Node4 -->
<g id="node5" class="node">
<title>Node4</title>
<g id="a_node5"><a xlink:title=" ">
<polygon fill="none" stroke="#bfbfbf" points="108.5783,-112.5 108.5783,-131.5 177.5783,-131.5 177.5783,-112.5 108.5783,-112.5"/>
<text text-anchor="middle" x="143.0783" y="-119.5" font-family="Helvetica,sans-Serif" font-size="10.00" fill="#000000">cassert</text>
</a>
</g>
</g>
<!-- Node0&#45;&gt;Node4 -->
<g id="edge4" class="edge">
<title>Node0&#45;&gt;Node4</title>
<path fill="none" stroke="#191970" d="M221.5306,-168.2455C206.8184,-159.5731 185.0895,-146.7645 168.2278,-136.825"/>
<polygon fill="#191970" stroke="#191970" points="169.8285,-133.7057 159.4364,-131.6427 166.2737,-139.736 169.8285,-133.7057"/>
</g>
<!-- Node5 -->
<g id="node6" class="node">
<title>Node5</title>
<g id="a_node6"><a xlink:title=" ">
<polygon fill="none" stroke="#bfbfbf" points="196.0783,-112.5 196.0783,-131.5 280.0783,-131.5 280.0783,-112.5 196.0783,-112.5"/>
<text text-anchor="middle" x="238.0783" y="-119.5" font-family="Helvetica,sans-Serif" font-size="10.00" fill="#000000">algorithm</text>
</a>
</g>
</g>
<!-- Node0&#45;&gt;Node5 -->
<g id="edge5" class="edge">
<title>Node0&#45;&gt;Node5</title>
<path fill="none" stroke="#191970" d="M238.0783,-168.2455C238.0783,-160.9382 238.0783,-150.6944 238.0783,-141.7046"/>
<polygon fill="#191970" stroke="#191970" points="241.5784,-141.6426 238.0783,-131.6427 234.5784,-141.6427 241.5784,-141.6426"/>
</g>
<!-- Node6 -->
<g id="node7" class="node">
<title>Node6</title>
<g id="a_node7"><a xlink:title=" ">
<polygon fill="none" stroke="#bfbfbf" points="298.0783,-112.5 298.0783,-131.5 390.0783,-131.5 390.0783,-112.5 298.0783,-112.5"/>
<text text-anchor="middle" x="344.0783" y="-119.5" font-family="Helvetica,sans-Serif" font-size="10.00" fill="#000000">functional</text>
</a>
</g>
</g>
<!-- Node0&#45;&gt;Node6 -->
<g id="edge6" class="edge">
<title>Node0&#45;&gt;Node6</title>
<path fill="none" stroke="#191970" d="M256.5421,-168.2455C273.1858,-159.4527 297.8776,-146.4079 316.7975,-136.4125"/>
<polygon fill="#191970" stroke="#191970" points="318.6191,-139.4086 325.8261,-131.6427 315.3492,-133.2193 318.6191,-139.4086"/>
</g>
<!-- Node7 -->
<g id="node8" class="node">
<title>Node7</title>
<g id="a_node8"><a xlink:title=" ">
<polygon fill="none" stroke="#bfbfbf" points="408.0783,-112.5 408.0783,-131.5 552.0783,-131.5 552.0783,-112.5 408.0783,-112.5"/>
<text text-anchor="middle" x="480.0783" y="-119.5" font-family="Helvetica,sans-Serif" font-size="10.00" fill="#000000">lodepng/lodepng.h</text>
</a>
</g>
</g>
<!-- Node0&#45;&gt;Node7 -->
<g id="edge7" class="edge">
<title>Node0&#45;&gt;Node7</title>
<path fill="none" stroke="#191970" d="M279.4046,-168.4369C320.8211,-158.8529 384.656,-144.0812 429.1718,-133.78"/>
<polygon fill="#191970" stroke="#191970" points="429.969,-137.1881 438.9224,-131.5237 428.3908,-130.3683 429.969,-137.1881"/>
</g>
<!-- Node8 -->
<g id="node9" class="node">
<title>Node8</title>
<g id="a_node9"><a xlink:href="PNG_8h.html" target="_top" xlink:title=" ">
<polygon fill="none" stroke="#000000" points="570.0783,-112.5 570.0783,-131.5 624.0783,-131.5 624.0783,-112.5 570.0783,-112.5"/>
<text text-anchor="middle" x="597.0783" y="-119.5" font-family="Helvetica,sans-Serif" font-size="10.00" fill="#000000">PNG.h</text>
</a>
</g>
</g>
<!-- Node0&#45;&gt;Node8 -->
<g id="edge8" class="edge">
<title>Node0&#45;&gt;Node8</title>
<path fill="none" stroke="#191970" d="M295.355,-172.112C358.1372,-165.1508 461.9465,-152.1529 560.2439,-131.9558"/>
<polygon fill="#191970" stroke="#191970" points="560.9678,-135.3802 570.0437,-129.9141 559.54,-128.5273 560.9678,-135.3802"/>
</g>
<!-- Node11 -->
<g id="node12" class="node">
<title>Node11</title>
<g id="a_node12"><a xlink:href="RGB__HSL_8h.html" target="_top" xlink:title=" ">
<polygon fill="none" stroke="#000000" points="642.0783,-112.5 642.0783,-131.5 726.0783,-131.5 726.0783,-112.5 642.0783,-112.5"/>
<text text-anchor="middle" x="684.0783" y="-119.5" font-family="Helvetica,sans-Serif" font-size="10.00" fill="#000000">RGB_HSL.h</text>
</a>
</g>
</g>
<!-- Node0&#45;&gt;Node11 -->
<g id="edge13" class="edge">
<title>Node0&#45;&gt;Node11</title>
<path fill="none" stroke="#191970" d="M295.1753,-172.756C370.1184,-165.5609 505.9597,-151.4483 631.6356,-132.129"/>
<polygon fill="#191970" stroke="#191970" points="632.4773,-135.5403 641.8222,-130.548 631.4037,-128.6231 632.4773,-135.5403"/>
</g>
<!-- Node8&#45;&gt;Node2 -->
<g id="edge9" class="edge">
<title>Node8&#45;&gt;Node2</title>
<path fill="none" stroke="#191970" d="M570.0631,-113.9888C567.0482,-113.2463 564.0086,-112.5628 561.0783,-112 423.0037,-85.4797 256.3614,-72.94 180.4105,-68.2719"/>
<polygon fill="#191970" stroke="#191970" points="180.4998,-64.771 170.3078,-67.6648 180.0798,-71.7584 180.4998,-64.771"/>
</g>
<!-- Node9 -->
<g id="node10" class="node">
<title>Node9</title>
<g id="a_node10"><a xlink:href="HSLAPixel_8h.html" target="_top" xlink:title=" ">
<polygon fill="none" stroke="#000000" points="422.5783,-56.5 422.5783,-75.5 521.5783,-75.5 521.5783,-56.5 422.5783,-56.5"/>
<text text-anchor="middle" x="472.0783" y="-63.5" font-family="Helvetica,sans-Serif" font-size="10.00" fill="#000000">HSLAPixel.h</text>
</a>
</g>
</g>
<!-- Node8&#45;&gt;Node9 -->
<g id="edge10" class="edge">
<title>Node8&#45;&gt;Node9</title>
<path fill="none" stroke="#191970" d="M575.59,-112.3733C555.4343,-103.3435 525.0903,-89.7494 502.4603,-79.6111"/>
<polygon fill="#191970" stroke="#191970" points="503.8432,-76.3955 493.2862,-75.5011 500.9812,-82.7838 503.8432,-76.3955"/>
</g>
<!-- Node9&#45;&gt;Node1 -->
<g id="edge11" class="edge">
<title>Node9&#45;&gt;Node1</title>
<path fill="none" stroke="#191970" d="M422.5394,-56.7527C366.6077,-46.3122 276.187,-29.4336 220.6547,-19.0676"/>
<polygon fill="#191970" stroke="#191970" points="221.1803,-15.6053 210.7078,-17.2108 219.8958,-22.4865 221.1803,-15.6053"/>
</g>
<!-- Node10 -->
<g id="node11" class="node">
<title>Node10</title>
<g id="a_node11"><a xlink:title=" ">
<polygon fill="none" stroke="#bfbfbf" points="437.5783,-.5 437.5783,-19.5 506.5783,-19.5 506.5783,-.5 437.5783,-.5"/>
<text text-anchor="middle" x="472.0783" y="-7.5" font-family="Helvetica,sans-Serif" font-size="10.00" fill="#000000">sstream</text>
</a>
</g>
</g>
<!-- Node9&#45;&gt;Node10 -->
<g id="edge12" class="edge">
<title>Node9&#45;&gt;Node10</title>
<path fill="none" stroke="#191970" d="M472.0783,-56.2455C472.0783,-48.9382 472.0783,-38.6944 472.0783,-29.7046"/>
<polygon fill="#191970" stroke="#191970" points="475.5784,-29.6426 472.0783,-19.6427 468.5784,-29.6427 475.5784,-29.6426"/>
</g>
<!-- Node12 -->
<g id="node13" class="node">
<title>Node12</title>
<g id="a_node13"><a xlink:title=" ">
<polygon fill="none" stroke="#bfbfbf" points="657.0783,-56.5 657.0783,-75.5 711.0783,-75.5 711.0783,-56.5 657.0783,-56.5"/>
<text text-anchor="middle" x="684.0783" y="-63.5" font-family="Helvetica,sans-Serif" font-size="10.00" fill="#000000">cmath</text>
</a>
</g>
</g>
<!-- Node11&#45;&gt;Node12 -->
<g id="edge14" class="edge">
<title>Node11&#45;&gt;Node12</title>
<path fill="none" stroke="#191970" d="M684.0783,-112.2455C684.0783,-104.9382 684.0783,-94.6944 684.0783,-85.7046"/>
<polygon fill="#191970" stroke="#191970" points="687.5784,-85.6426 684.0783,-75.6427 680.5784,-85.6427 687.5784,-85.6426"/>
</g>
</g>
</svg>
        <g id="navigator" transform="translate(0 0)" fill="#404254">
                <rect fill="#f2f5e9" fill-opacity="0.5" stroke="#606060" stroke-width=".5" x="0" y="0" width="60" height="60"/>
                <use id="zoomplus" xlink:href="#zoomPlus" x="17" y="9" onmousedown="handleZoom(evt,'in')"/>
                <use id="zoomminus" xlink:href="#zoomMin" x="42" y="9" onmousedown="handleZoom(evt,'out')"/>
                <use id="reset" xlink:href="#resetDef" x="30" y="36" onmousedown="handleReset()"/>
                <g id="arrowUp" xlink:href="#dirArrow" transform="translate(30 24)" onmousedown="handlePan(0,-1)">
                  <use xlink:href="#rim" fill="#404040">
                        <set attributeName="fill" to="#808080" begin="arrowUp.mouseover" end="arrowUp.mouseout"/>
                  </use>
                  <path fill="none" stroke="white" stroke-width="1.5" d="M0,-3.0v7 M-2.5,-0.5L0,-3.0L2.5,-0.5"/>
                </g>
                <g id="arrowRight" xlink:href="#dirArrow" transform="rotate(90) translate(36 -43)" onmousedown="handlePan(1,0)">
                  <use xlink:href="#rim" fill="#404040">
                        <set attributeName="fill" to="#808080" begin="arrowRight.mouseover" end="arrowRight.mouseout"/>
                  </use>
                  <path fill="none" stroke="white" stroke-width="1.5" d="M0,-3.0v7 M-2.5,-0.5L0,-3.0L2.5,-0.5"/>
                </g>
                <g id="arrowDown" xlink:href="#dirArrow" transform="rotate(180) translate(-30 -48)" onmousedown="handlePan(0,1)">
                  <use xlink:href="#rim" fill="#404040">
                        <set attributeName="fill" to="#808080" begin="arrowDown.mouseover" end="arrowDown.mouseout"/>
                  </use>
                  <path fill="none" stroke="white" stroke-width="1.5" d="M0,-3.0v7 M-2.5,-0.5L0,-3.0L2.5,-0.5"/>
                </g>
                <g id="arrowLeft" xlink:href="#dirArrow" transform="rotate(270) translate(-36 17)" onmousedown="handlePan(-1,0)">
                  <use xlink:href="#rim" fill="#404040">
                        <set attributeName="fill" to="#808080" begin="arrowLeft.mouseover" end="arrowLeft.mouseout"/>
                  </use>
                  <path fill="none" stroke="white" stroke-width="1.5" d="M0,-3.0v7 M-2.5,-0.5L0,-3.0L2.5,-0.5"/>
                </g>
        </g>
        <svg viewBox="0 0 15 15" width="100%" height="30px" preserveAspectRatio="xMaxYMin meet">
         <g id="arrow_out" transform="scale(0.3 0.3)">
          <a xlink:href="PNG_8cpp__incl_org.svg" target="_base">
           <rect id="button" ry="5" rx="5" y="6" x="6" height="38" width="38"
                fill="#f2f5e9" fill-opacity="0.5" stroke="#606060" stroke-width="1.0"/>
           <path id="arrow"
             d="M 11.500037,31.436501 C 11.940474,20.09759 22.043105,11.32322 32.158766,21.979434 L 37.068811,17.246167 C 37.068811,17.246167 37.088388,32 37.088388,32 L 22.160133,31.978069 C 22.160133,31.978069 26.997745,27.140456 26.997745,27.140456 C 18.528582,18.264221 13.291696,25.230495 11.500037,31.436501 z"
             style="fill:#404040;"/>
          </a>
         </g>
        </svg>
</svg>
