<?xml version="1.0" encoding="UTF-8" standalone="no"?>
<!DOCTYPE svg PUBLIC "-//W3C//DTD SVG 1.1//EN"
 "http://www.w3.org/Graphics/SVG/1.1/DTD/svg11.dtd">
<!-- Generated by graphviz version 2.40.1 (0)
 -->
<!-- Title: cs225/PNG.h Pages: 1 -->
<!--zoomable 196 -->
<svg id="main" version="1.1" xmlns="http://www.w3.org/2000/svg" xmlns:xlink="http://www.w3.org/1999/xlink" xml:space="preserve" onload="init(evt)">
<style type="text/css"><![CDATA[
.edge:hover path { stroke: red; }
.edge:hover polygon { stroke: red; fill: red; }
]]></style>
<script type="text/javascript"><![CDATA[
var edges = document.getElementsByTagName('g');
if (edges && edges.length) {
  for (var i=0;i<edges.length;i++) {
    if (edges[i].id.substr(0,4)=='edge') {
      edges[i].setAttribute('class','edge');
    }
  }
}
]]></script>
        <defs>
                <circle id="rim" cx="0" cy="0" r="7"/>
                <circle id="rim2" cx="0" cy="0" r="3.5"/>
                <g id="zoomPlus">
                        <use xlink:href="#rim" fill="#404040">
                                <set attributeName="fill" to="#808080" begin="zoomplus.mouseover" end="zoomplus.mouseout"/>
                        </use>
                        <path d="M-4,0h8M0,-4v8" fill="none" stroke="white" stroke-width="1.5" pointer-events="none"/>
                </g>
                <g id="zoomMin">
                        <use xlink:href="#rim" fill="#404040">
                                <set attributeName="fill" to="#808080" begin="zoomminus.mouseover" end="zoomminus.mouseout"/>
                        </use>
                        <path d="M-4,0h8" fill="none" stroke="white" stroke-width="1.5" pointer-events="none"/>
                </g>
                <g id="dirArrow">
                        <path fill="none" stroke="white" stroke-width="1.5" d="M0,-3.0v7 M-2.5,-0.5L0,-3.0L2.5,-0.5"/>
                </g>
               <g id="resetDef">
                       <use xlink:href="#rim2" fill="#404040">
                               <set attributeName="fill" to="#808080" begin="reset.mouseover" end="reset.mouseout"/>
                       </use>
               </g>
        </defs>

<script type="text/javascript">
var viewWidth = 1392;
var viewHeight = 196;
var sectionId = 'dynsection-1';
</script>
<script xlink:href="svgpan.js"/>
<svg id="graph" class="graph">
<g id="viewport">
<title>cs225/PNG.h</title>
<!-- Node5 -->
<g id="node1" class="node">
<title>Node5</title>
<g id="a_node1"><a xlink:title=" ">
<polygon fill="#bfbfbf" stroke="#000000" points="532.3993,-168.5 532.3993,-187.5 631.3993,-187.5 631.3993,-168.5 532.3993,-168.5"/>
<text text-anchor="middle" x="581.8993" y="-175.5" font-family="Helvetica,sans-Serif" font-size="10.00" fill="#000000">cs225/PNG.h</text>
</a>
</g>
</g>
<!-- Node6 -->
<g id="node2" class="node">
<title>Node6</title>
<g id="a_node2"><a xlink:href="Animation_8h.html" target="_top" xlink:title="Defintion for a class that encapsulates creating animated images from a set of PNG object frames.">
<polygon fill="none" stroke="#000000" points="143.3993,-112.5 143.3993,-131.5 242.3993,-131.5 242.3993,-112.5 143.3993,-112.5"/>
<text text-anchor="middle" x="192.8993" y="-119.5" font-family="Helvetica,sans-Serif" font-size="10.00" fill="#000000">Animation.h</text>
</a>
</g>
</g>
<!-- Node5&#45;&gt;Node6 -->
<g id="edge1" class="edge">
<title>Node5&#45;&gt;Node6</title>
<path fill="none" stroke="#191970" d="M522.2598,-169.4144C445.6396,-158.3842 314.0292,-139.4377 242.5728,-129.1509"/>
<polygon fill="#191970" stroke="#191970" points="521.8404,-172.89 532.2371,-170.8507 522.8379,-165.9614 521.8404,-172.89"/>
</g>
<!-- Node7 -->
<g id="node3" class="node">
<title>Node7</title>
<g id="a_node3"><a xlink:href="Animation_8cpp.html" target="_top" xlink:title=" ">
<polygon fill="none" stroke="#000000" points="12.8993,-56.5 12.8993,-75.5 126.8993,-75.5 126.8993,-56.5 12.8993,-56.5"/>
<text text-anchor="middle" x="69.8993" y="-63.5" font-family="Helvetica,sans-Serif" font-size="10.00" fill="#000000">Animation.cpp</text>
</a>
</g>
</g>
<!-- Node5&#45;&gt;Node7 -->
<g id="edge8" class="edge">
<title>Node5&#45;&gt;Node7</title>
<path fill="none" stroke="#191970" d="M521.9322,-176.8851C416.062,-174.0925 200.876,-164.4816 133.8993,-132 107.4748,-119.1849 85.973,-90.6958 75.9685,-75.6844"/>
<polygon fill="#191970" stroke="#191970" points="522.0505,-180.3891 532.1354,-177.142 522.2267,-173.3913 522.0505,-180.3891"/>
</g>
<!-- Node8 -->
<g id="node4" class="node">
<title>Node8</title>
<g id="a_node4"><a xlink:href="FloodFilledImage_8cpp.html" target="_top" xlink:title=" ">
<polygon fill="none" stroke="#000000" points="124.3993,-.5 124.3993,-19.5 291.3993,-19.5 291.3993,-.5 124.3993,-.5"/>
<text text-anchor="middle" x="207.8993" y="-7.5" font-family="Helvetica,sans-Serif" font-size="10.00" fill="#000000">FloodFilledImage.cpp</text>
</a>
</g>
</g>
<!-- Node5&#45;&gt;Node8 -->
<g id="edge10" class="edge">
<title>Node5&#45;&gt;Node8</title>
<path fill="none" stroke="#191970" d="M522.0458,-175.3186C411.6799,-169.8668 180.4011,-155.9344 103.8993,-132 55.2842,-116.7902 29.6574,-119.9464 3.8993,-76 -.5955,-68.3313 -1.6519,-62.9424 3.8993,-56 19.1756,-36.8955 74.8907,-25.1581 124.2409,-18.3253"/>
<polygon fill="#191970" stroke="#191970" points="522.1812,-178.8292 532.3396,-175.8198 522.5217,-171.8375 522.1812,-178.8292"/>
</g>
<!-- Node9 -->
<g id="node5" class="node">
<title>Node9</title>
<g id="a_node5"><a xlink:href="FloodFilledImage_8h.html" target="_top" xlink:title="Definition for a class to do flood fill on an image.">
<polygon fill="none" stroke="#000000" points="220.8993,-56.5 220.8993,-75.5 372.8993,-75.5 372.8993,-56.5 220.8993,-56.5"/>
<text text-anchor="middle" x="296.8993" y="-63.5" font-family="Helvetica,sans-Serif" font-size="10.00" fill="#000000">FloodFilledImage.h</text>
</a>
</g>
</g>
<!-- Node5&#45;&gt;Node9 -->
<g id="edge23" class="edge">
<title>Node5&#45;&gt;Node9</title>
<path fill="none" stroke="#191970" d="M521.9731,-170.2369C482.3184,-163.5846 429.9016,-151.8366 386.8993,-132 354.8776,-117.2286 322.8978,-90.1018 307.0852,-75.6533"/>
<polygon fill="#191970" stroke="#191970" points="521.5939,-173.7209 532.024,-171.8602 522.71,-166.8105 521.5939,-173.7209"/>
</g>
<!-- Node10 -->
<g id="node6" class="node">
<title>Node10</title>
<g id="a_node6"><a xlink:href="main_8cpp.html" target="_top" xlink:title=" ">
<polygon fill="none" stroke="#000000" points="362.3993,-.5 362.3993,-19.5 439.3993,-19.5 439.3993,-.5 362.3993,-.5"/>
<text text-anchor="middle" x="400.8993" y="-7.5" font-family="Helvetica,sans-Serif" font-size="10.00" fill="#000000">main.cpp</text>
</a>
</g>
</g>
<!-- Node5&#45;&gt;Node10 -->
<g id="edge29" class="edge">
<title>Node5&#45;&gt;Node10</title>
<path fill="none" stroke="#191970" d="M559.496,-162.5655C547.2511,-153.902 531.9623,-142.7088 518.8993,-132 490.4376,-108.6677 483.5254,-102.4154 457.8993,-76 439.3453,-56.8745 419.3617,-32.8513 408.6838,-19.7044"/>
<polygon fill="#191970" stroke="#191970" points="557.6008,-165.5113 567.7988,-168.3838 561.618,-159.7787 557.6008,-165.5113"/>
</g>
<!-- Node11 -->
<g id="node7" class="node">
<title>Node11</title>
<g id="a_node7"><a xlink:href="PNG_8cpp.html" target="_top" xlink:title="Implementation of a simple PNG class using HSLAPixels and the lodepng PNG library.">
<polygon fill="none" stroke="#000000" points="1269.8993,-112.5 1269.8993,-131.5 1383.8993,-131.5 1383.8993,-112.5 1269.8993,-112.5"/>
<text text-anchor="middle" x="1326.8993" y="-119.5" font-family="Helvetica,sans-Serif" font-size="10.00" fill="#000000">cs225/PNG.cpp</text>
</a>
</g>
</g>
<!-- Node5&#45;&gt;Node11 -->
<g id="edge9" class="edge">
<title>Node5&#45;&gt;Node11</title>
<path fill="none" stroke="#191970" d="M641.7146,-175.3617C759.5028,-169.8471 1029.7135,-155.6163 1255.8993,-132 1260.3564,-131.5346 1264.964,-131.0024 1269.5916,-130.4313"/>
<polygon fill="#191970" stroke="#191970" points="641.2985,-171.8771 631.4716,-175.8372 641.6232,-178.8696 641.2985,-171.8771"/>
</g>
<!-- Node12 -->
<g id="node8" class="node">
<title>Node12</title>
<g id="a_node8"><a xlink:href="ImageTraversal_8h.html" target="_top" xlink:title=" ">
<polygon fill="none" stroke="#000000" points="534.3993,-112.5 534.3993,-131.5 783.3993,-131.5 783.3993,-112.5 534.3993,-112.5"/>
<text text-anchor="middle" x="658.8993" y="-119.5" font-family="Helvetica,sans-Serif" font-size="10.00" fill="#000000">imageTraversal/ImageTraversal.h</text>
</a>
</g>
</g>
<!-- Node5&#45;&gt;Node12 -->
<g id="edge11" class="edge">
<title>Node5&#45;&gt;Node12</title>
<path fill="none" stroke="#191970" d="M603.6109,-162.2097C617.1346,-152.3743 634.0951,-140.0394 645.6406,-131.6427"/>
<polygon fill="#191970" stroke="#191970" points="601.3405,-159.5332 595.3117,-168.2455 605.4577,-165.1944 601.3405,-159.5332"/>
</g>
<!-- Node13 -->
<g id="node9" class="node">
<title>Node13</title>
<g id="a_node9"><a xlink:href="BFS_8cpp.html" target="_top" xlink:title=" ">
<polygon fill="none" stroke="#000000" points="543.8993,-.5 543.8993,-19.5 725.8993,-19.5 725.8993,-.5 543.8993,-.5"/>
<text text-anchor="middle" x="634.8993" y="-7.5" font-family="Helvetica,sans-Serif" font-size="10.00" fill="#000000">imageTraversal/BFS.cpp</text>
</a>
</g>
</g>
<!-- Node5&#45;&gt;Node13 -->
<g id="edge24" class="edge">
<title>Node5&#45;&gt;Node13</title>
<path fill="none" stroke="#191970" d="M641.8964,-172.2332C787.4591,-157.6385 1150.0055,-117.4423 1184.8993,-76 1249.8044,1.0856 835.2651,-29.032 734.8993,-20 731.9451,-19.7342 728.9423,-19.4595 725.9104,-19.1784"/>
<polygon fill="#191970" stroke="#191970" points="641.402,-168.765 631.7984,-173.2394 642.0962,-175.7305 641.402,-168.765"/>
</g>
<!-- Node14 -->
<g id="node10" class="node">
<title>Node14</title>
<g id="a_node10"><a xlink:href="BFS_8h.html" target="_top" xlink:title=" ">
<polygon fill="none" stroke="#000000" points="466.3993,-56.5 466.3993,-75.5 633.3993,-75.5 633.3993,-56.5 466.3993,-56.5"/>
<text text-anchor="middle" x="549.8993" y="-63.5" font-family="Helvetica,sans-Serif" font-size="10.00" fill="#000000">imageTraversal/BFS.h</text>
</a>
</g>
</g>
<!-- Node5&#45;&gt;Node14 -->
<g id="edge25" class="edge">
<title>Node5&#45;&gt;Node14</title>
<path fill="none" stroke="#191970" d="M554.4067,-162.8126C543.4025,-155.1458 531.9239,-144.7453 525.8993,-132 516.7289,-112.5996 531.5116,-88.6794 541.6463,-75.6239"/>
<polygon fill="#191970" stroke="#191970" points="552.7165,-165.8873 563.0169,-168.3676 556.5115,-160.0052 552.7165,-165.8873"/>
</g>
<!-- Node15 -->
<g id="node11" class="node">
<title>Node15</title>
<g id="a_node11"><a xlink:href="DFS_8cpp.html" target="_top" xlink:title=" ">
<polygon fill="none" stroke="#000000" points="743.8993,-.5 743.8993,-19.5 925.8993,-19.5 925.8993,-.5 743.8993,-.5"/>
<text text-anchor="middle" x="834.8993" y="-7.5" font-family="Helvetica,sans-Serif" font-size="10.00" fill="#000000">imageTraversal/DFS.cpp</text>
</a>
</g>
</g>
<!-- Node5&#45;&gt;Node15 -->
<g id="edge26" class="edge">
<title>Node5&#45;&gt;Node15</title>
<path fill="none" stroke="#191970" d="M641.4947,-176.4819C729.7202,-173.2361 899.8531,-163.1426 1040.8993,-132 1114.878,-115.6657 1158.0014,-137.7465 1201.8993,-76 1207.0498,-68.7554 1207.7809,-62.6648 1201.8993,-56 1183.8947,-35.5978 1028.8434,-22.0467 926.1183,-15.2184"/>
<polygon fill="#191970" stroke="#191970" points="641.2783,-172.9872 631.4073,-176.8361 641.524,-179.9829 641.2783,-172.9872"/>
</g>
<!-- Node16 -->
<g id="node12" class="node">
<title>Node16</title>
<g id="a_node12"><a xlink:href="DFS_8h.html" target="_top" xlink:title=" ">
<polygon fill="none" stroke="#000000" points="726.3993,-56.5 726.3993,-75.5 893.3993,-75.5 893.3993,-56.5 726.3993,-56.5"/>
<text text-anchor="middle" x="809.8993" y="-63.5" font-family="Helvetica,sans-Serif" font-size="10.00" fill="#000000">imageTraversal/DFS.h</text>
</a>
</g>
</g>
<!-- Node5&#45;&gt;Node16 -->
<g id="edge27" class="edge">
<title>Node5&#45;&gt;Node16</title>
<path fill="none" stroke="#191970" d="M641.4483,-171.9914C696.0435,-165.2795 771.546,-152.5683 792.8993,-132 808.4092,-117.0603 810.4583,-90.0045 810.347,-75.6111"/>
<polygon fill="#191970" stroke="#191970" points="641.0307,-168.5163 631.5153,-173.1754 641.8593,-175.4671 641.0307,-168.5163"/>
</g>
<!-- Node17 -->
<g id="node13" class="node">
<title>Node17</title>
<g id="a_node13"><a xlink:href="ImageTraversal_8cpp.html" target="_top" xlink:title=" ">
<polygon fill="none" stroke="#000000" points="911.8993,-56.5 911.8993,-75.5 1175.8993,-75.5 1175.8993,-56.5 911.8993,-56.5"/>
<text text-anchor="middle" x="1043.8993" y="-63.5" font-family="Helvetica,sans-Serif" font-size="10.00" fill="#000000">imageTraversal/ImageTraversal.cpp</text>
</a>
</g>
</g>
<!-- Node5&#45;&gt;Node17 -->
<g id="edge28" class="edge">
<title>Node5&#45;&gt;Node17</title>
<path fill="none" stroke="#191970" d="M641.4309,-167.4427C688.0358,-158.8533 754.3748,-145.9114 811.8993,-132 884.757,-114.3806 969.1542,-89.1329 1013.3329,-75.539"/>
<polygon fill="#191970" stroke="#191970" points="640.7075,-164.0169 631.502,-169.2619 641.9691,-170.9023 640.7075,-164.0169"/>
</g>
<!-- Node6&#45;&gt;Node7 -->
<g id="edge2" class="edge">
<title>Node6&#45;&gt;Node7</title>
<path fill="none" stroke="#191970" d="M162.3928,-108.1109C140.0881,-97.9559 110.4194,-84.4482 90.7679,-75.5011"/>
<polygon fill="#191970" stroke="#191970" points="161.2034,-111.415 171.7549,-112.3733 164.104,-105.0442 161.2034,-111.415"/>
</g>
<!-- Node6&#45;&gt;Node8 -->
<g id="edge3" class="edge">
<title>Node6&#45;&gt;Node8</title>
<path fill="none" stroke="#191970" d="M183.954,-103.0092C178.888,-89.7228 174.3844,-71.6277 178.8993,-56 182.8822,-42.214 192.359,-28.5821 199.4016,-19.7814"/>
<polygon fill="#191970" stroke="#191970" points="180.8499,-104.6544 187.9759,-112.4947 187.2945,-101.9218 180.8499,-104.6544"/>
</g>
<!-- Node6&#45;&gt;Node9 -->
<g id="edge4" class="edge">
<title>Node6&#45;&gt;Node9</title>
<path fill="none" stroke="#191970" d="M219.9022,-107.46C238.5129,-97.4388 262.7292,-84.3993 278.9915,-75.6427"/>
<polygon fill="#191970" stroke="#191970" points="218.1601,-104.4228 211.0147,-112.2455 221.4788,-110.5861 218.1601,-104.4228"/>
</g>
<!-- Node6&#45;&gt;Node10 -->
<g id="edge7" class="edge">
<title>Node6&#45;&gt;Node10</title>
<path fill="none" stroke="#191970" d="M193.4799,-102.2956C194.9822,-87.5615 199.4199,-67.9714 211.8993,-56 233.1623,-35.6027 313.2537,-21.6395 362.0943,-14.8162"/>
<polygon fill="#191970" stroke="#191970" points="189.9786,-102.2027 192.8186,-112.4097 196.9636,-102.6594 189.9786,-102.2027"/>
</g>
<!-- Node9&#45;&gt;Node8 -->
<g id="edge5" class="edge">
<title>Node9&#45;&gt;Node8</title>
<path fill="none" stroke="#191970" d="M272.6929,-50.769C256.9219,-40.8456 236.8233,-28.1994 223.2243,-19.6427"/>
<polygon fill="#191970" stroke="#191970" points="271.0688,-53.8823 281.3967,-56.2455 274.7967,-47.9575 271.0688,-53.8823"/>
</g>
<!-- Node9&#45;&gt;Node10 -->
<g id="edge6" class="edge">
<title>Node9&#45;&gt;Node10</title>
<path fill="none" stroke="#191970" d="M323.9022,-51.46C342.5129,-41.4388 366.7292,-28.3993 382.9915,-19.6427"/>
<polygon fill="#191970" stroke="#191970" points="322.1601,-48.4228 315.0147,-56.2455 325.4788,-54.5861 322.1601,-48.4228"/>
</g>
<!-- Node12&#45;&gt;Node8 -->
<g id="edge12" class="edge">
<title>Node12&#45;&gt;Node8</title>
<path fill="none" stroke="#191970" d="M605.3367,-110.2484C564.7767,-101.2269 507.7265,-88.2752 457.8993,-76 452.6144,-74.698 311.7695,-37.4669 243.8577,-19.5094"/>
<polygon fill="#191970" stroke="#191970" points="604.758,-113.7051 615.2788,-112.4545 606.2745,-106.8713 604.758,-113.7051"/>
</g>
<!-- Node12&#45;&gt;Node9 -->
<g id="edge13" class="edge">
<title>Node12&#45;&gt;Node9</title>
<path fill="none" stroke="#191970" d="M587.0506,-110.8853C520.2376,-100.5496 421.7539,-85.3145 358.463,-75.5237"/>
<polygon fill="#191970" stroke="#191970" points="586.6631,-114.3669 597.0806,-112.4369 587.7333,-107.4492 586.6631,-114.3669"/>
</g>
<!-- Node12&#45;&gt;Node13 -->
<g id="edge14" class="edge">
<title>Node12&#45;&gt;Node13</title>
<path fill="none" stroke="#191970" d="M654.7419,-102.5987C649.5485,-78.363 640.8683,-37.8551 636.9404,-19.5249"/>
<polygon fill="#191970" stroke="#191970" points="651.3354,-103.4063 656.8531,-112.4509 658.18,-101.9395 651.3354,-103.4063"/>
</g>
<!-- Node12&#45;&gt;Node14 -->
<g id="edge15" class="edge">
<title>Node12&#45;&gt;Node14</title>
<path fill="none" stroke="#191970" d="M630.8651,-107.5971C611.3247,-97.558 585.7901,-84.4393 568.6681,-75.6427"/>
<polygon fill="#191970" stroke="#191970" points="629.4187,-110.7889 639.913,-112.2455 632.6176,-104.5625 629.4187,-110.7889"/>
</g>
<!-- Node12&#45;&gt;Node15 -->
<g id="edge18" class="edge">
<title>Node12&#45;&gt;Node15</title>
<path fill="none" stroke="#191970" d="M671.3398,-103.9221C682.1854,-89.3097 699.0947,-69.0861 717.8993,-56 742.4429,-38.9201 774.2251,-26.947 798.4692,-19.5064"/>
<polygon fill="#191970" stroke="#191970" points="668.3987,-102.0173 665.4078,-112.1812 674.0842,-106.1009 668.3987,-102.0173"/>
</g>
<!-- Node12&#45;&gt;Node16 -->
<g id="edge19" class="edge">
<title>Node12&#45;&gt;Node16</title>
<path fill="none" stroke="#191970" d="M694.5224,-108.7888C722.0932,-98.5639 759.6142,-84.6488 784.2802,-75.5011"/>
<polygon fill="#191970" stroke="#191970" points="693.0161,-105.6144 684.8571,-112.3733 695.4502,-112.1776 693.0161,-105.6144"/>
</g>
<!-- Node12&#45;&gt;Node17 -->
<g id="edge22" class="edge">
<title>Node12&#45;&gt;Node17</title>
<path fill="none" stroke="#191970" d="M734.8757,-110.9489C805.9408,-100.6122 910.9737,-85.3346 978.4241,-75.5237"/>
<polygon fill="#191970" stroke="#191970" points="734.0378,-107.5339 724.6457,-112.4369 735.0454,-114.461 734.0378,-107.5339"/>
</g>
<!-- Node14&#45;&gt;Node10 -->
<g id="edge17" class="edge">
<title>Node14&#45;&gt;Node10</title>
<path fill="none" stroke="#191970" d="M514.7481,-52.7888C487.5425,-42.5639 450.5184,-28.6488 426.1791,-19.5011"/>
<polygon fill="#191970" stroke="#191970" points="513.6932,-56.1313 524.2853,-56.3733 516.156,-49.5788 513.6932,-56.1313"/>
</g>
<!-- Node14&#45;&gt;Node13 -->
<g id="edge16" class="edge">
<title>Node14&#45;&gt;Node13</title>
<path fill="none" stroke="#191970" d="M573.4412,-50.49C588.4383,-40.6096 607.3966,-28.1194 620.2631,-19.6427"/>
<polygon fill="#191970" stroke="#191970" points="571.1302,-47.8212 564.7052,-56.2455 574.9814,-53.6666 571.1302,-47.8212"/>
</g>
<!-- Node16&#45;&gt;Node10 -->
<g id="edge21" class="edge">
<title>Node16&#45;&gt;Node10</title>
<path fill="none" stroke="#191970" d="M729.9029,-55.0469C642.434,-43.0708 505.9047,-24.3773 439.616,-15.3011"/>
<polygon fill="#191970" stroke="#191970" points="729.672,-58.5479 740.0544,-56.4369 730.6217,-51.6126 729.672,-58.5479"/>
</g>
<!-- Node16&#45;&gt;Node15 -->
<g id="edge20" class="edge">
<title>Node16&#45;&gt;Node15</title>
<path fill="none" stroke="#191970" d="M818.3619,-47.0437C822.4738,-37.8331 827.2387,-27.1598 830.5946,-19.6427"/>
<polygon fill="#191970" stroke="#191970" points="815.1346,-45.6874 814.254,-56.2455 821.5265,-48.541 815.1346,-45.6874"/>
</g>
</g>
</svg>
        <g id="navigator" transform="translate(0 0)" fill="#404254">
                <rect fill="#f2f5e9" fill-opacity="0.5" stroke="#606060" stroke-width=".5" x="0" y="0" width="60" height="60"/>
                <use id="zoomplus" xlink:href="#zoomPlus" x="17" y="9" onmousedown="handleZoom(evt,'in')"/>
                <use id="zoomminus" xlink:href="#zoomMin" x="42" y="9" onmousedown="handleZoom(evt,'out')"/>
                <use id="reset" xlink:href="#resetDef" x="30" y="36" onmousedown="handleReset()"/>
                <g id="arrowUp" xlink:href="#dirArrow" transform="translate(30 24)" onmousedown="handlePan(0,-1)">
                  <use xlink:href="#rim" fill="#404040">
                        <set attributeName="fill" to="#808080" begin="arrowUp.mouseover" end="arrowUp.mouseout"/>
                  </use>
                  <path fill="none" stroke="white" stroke-width="1.5" d="M0,-3.0v7 M-2.5,-0.5L0,-3.0L2.5,-0.5"/>
                </g>
                <g id="arrowRight" xlink:href="#dirArrow" transform="rotate(90) translate(36 -43)" onmousedown="handlePan(1,0)">
                  <use xlink:href="#rim" fill="#404040">
                        <set attributeName="fill" to="#808080" begin="arrowRight.mouseover" end="arrowRight.mouseout"/>
                  </use>
                  <path fill="none" stroke="white" stroke-width="1.5" d="M0,-3.0v7 M-2.5,-0.5L0,-3.0L2.5,-0.5"/>
                </g>
                <g id="arrowDown" xlink:href="#dirArrow" transform="rotate(180) translate(-30 -48)" onmousedown="handlePan(0,1)">
                  <use xlink:href="#rim" fill="#404040">
                        <set attributeName="fill" to="#808080" begin="arrowDown.mouseover" end="arrowDown.mouseout"/>
                  </use>
                  <path fill="none" stroke="white" stroke-width="1.5" d="M0,-3.0v7 M-2.5,-0.5L0,-3.0L2.5,-0.5"/>
                </g>
                <g id="arrowLeft" xlink:href="#dirArrow" transform="rotate(270) translate(-36 17)" onmousedown="handlePan(-1,0)">
                  <use xlink:href="#rim" fill="#404040">
                        <set attributeName="fill" to="#808080" begin="arrowLeft.mouseover" end="arrowLeft.mouseout"/>
                  </use>
                  <path fill="none" stroke="white" stroke-width="1.5" d="M0,-3.0v7 M-2.5,-0.5L0,-3.0L2.5,-0.5"/>
                </g>
        </g>
        <svg viewBox="0 0 15 15" width="100%" height="30px" preserveAspectRatio="xMaxYMin meet">
         <g id="arrow_out" transform="scale(0.3 0.3)">
          <a xlink:href="PNG_8h__dep__incl_org.svg" target="_base">
           <rect id="button" ry="5" rx="5" y="6" x="6" height="38" width="38"
                fill="#f2f5e9" fill-opacity="0.5" stroke="#606060" stroke-width="1.0"/>
           <path id="arrow"
             d="M 11.500037,31.436501 C 11.940474,20.09759 22.043105,11.32322 32.158766,21.979434 L 37.068811,17.246167 C 37.068811,17.246167 37.088388,32 37.088388,32 L 22.160133,31.978069 C 22.160133,31.978069 26.997745,27.140456 26.997745,27.140456 C 18.528582,18.264221 13.291696,25.230495 11.500037,31.436501 z"
             style="fill:#404040;"/>
          </a>
         </g>
        </svg>
</svg>
