<?xml version="1.0" encoding="UTF-8" standalone="no"?>
<!DOCTYPE svg PUBLIC "-//W3C//DTD SVG 1.1//EN"
 "http://www.w3.org/Graphics/SVG/1.1/DTD/svg11.dtd">
<!-- Generated by graphviz version 2.40.1 (0)
 -->
<!-- Title: Point.h Pages: 1 -->
<!--zoomable 218 -->
<svg id="main" version="1.1" xmlns="http://www.w3.org/2000/svg" xmlns:xlink="http://www.w3.org/1999/xlink" xml:space="preserve" onload="init(evt)">
<style type="text/css"><![CDATA[
.edge:hover path { stroke: red; }
.edge:hover polygon { stroke: red; fill: red; }
]]></style>
<script type="text/javascript"><![CDATA[
var edges = document.getElementsByTagName('g');
if (edges && edges.length) {
  for (var i=0;i<edges.length;i++) {
    if (edges[i].id.substr(0,4)=='edge') {
      edges[i].setAttribute('class','edge');
    }
  }
}
]]></script>
        <defs>
                <circle id="rim" cx="0" cy="0" r="7"/>
                <circle id="rim2" cx="0" cy="0" r="3.5"/>
                <g id="zoomPlus">
                        <use xlink:href="#rim" fill="#404040">
                                <set attributeName="fill" to="#808080" begin="zoomplus.mouseover" end="zoomplus.mouseout"/>
                        </use>
                        <path d="M-4,0h8M0,-4v8" fill="none" stroke="white" stroke-width="1.5" pointer-events="none"/>
                </g>
                <g id="zoomMin">
                        <use xlink:href="#rim" fill="#404040">
                                <set attributeName="fill" to="#808080" begin="zoomminus.mouseover" end="zoomminus.mouseout"/>
                        </use>
                        <path d="M-4,0h8" fill="none" stroke="white" stroke-width="1.5" pointer-events="none"/>
                </g>
                <g id="dirArrow">
                        <path fill="none" stroke="white" stroke-width="1.5" d="M0,-3.0v7 M-2.5,-0.5L0,-3.0L2.5,-0.5"/>
                </g>
               <g id="resetDef">
                       <use xlink:href="#rim2" fill="#404040">
                               <set attributeName="fill" to="#808080" begin="reset.mouseover" end="reset.mouseout"/>
                       </use>
               </g>
        </defs>

<script type="text/javascript">
var viewWidth = 2320;
var viewHeight = 218;
var sectionId = 'dynsection-1';
</script>
<script xlink:href="svgpan.js"/>
<svg id="graph" class="graph">
<g id="viewport">
<title>Point.h</title>
<!-- Node3 -->
<g id="node1" class="node">
<title>Node3</title>
<g id="a_node1"><a xlink:title="every 2D point of the image is represented by a Point class you need to trverse all the points of the...">
<polygon fill="#bfbfbf" stroke="#000000" points="1187.5,-190.5 1187.5,-209.5 1256.5,-209.5 1256.5,-190.5 1187.5,-190.5"/>
<text text-anchor="middle" x="1222" y="-197.5" font-family="Helvetica,sans-Serif" font-size="10.00" fill="#000000">Point.h</text>
</a>
</g>
</g>
<!-- Node4 -->
<g id="node2" class="node">
<title>Node4</title>
<g id="a_node2"><a xlink:href="GradientColorPicker_8cpp.html" target="_top" xlink:title=" ">
<polygon fill="none" stroke="#000000" points="0,-56.5 0,-86.5 204,-86.5 204,-56.5 0,-56.5"/>
<text text-anchor="start" x="8" y="-74.5" font-family="Helvetica,sans-Serif" font-size="10.00" fill="#000000">colorPicker/GradientColor</text>
<text text-anchor="middle" x="102" y="-63.5" font-family="Helvetica,sans-Serif" font-size="10.00" fill="#000000">Picker.cpp</text>
</a>
</g>
</g>
<!-- Node3&#45;&gt;Node4 -->
<g id="edge1" class="edge">
<title>Node3&#45;&gt;Node4</title>
<path fill="none" stroke="#191970" d="M1177.0656,-199.6833C974.8857,-198.062 157.5933,-189.3363 117,-154 98.0041,-137.4641 97.8322,-105.6014 99.7174,-86.6786"/>
<polygon fill="#191970" stroke="#191970" points="1177.2923,-203.185 1187.3194,-199.7636 1177.3472,-196.1853 1177.2923,-203.185"/>
</g>
<!-- Node5 -->
<g id="node3" class="node">
<title>Node5</title>
<g id="a_node3"><a xlink:href="GradientColorPicker_8h.html" target="_top" xlink:title=" ">
<polygon fill="none" stroke="#000000" points="126,-123.5 126,-153.5 330,-153.5 330,-123.5 126,-123.5"/>
<text text-anchor="start" x="134" y="-141.5" font-family="Helvetica,sans-Serif" font-size="10.00" fill="#000000">colorPicker/GradientColor</text>
<text text-anchor="middle" x="228" y="-130.5" font-family="Helvetica,sans-Serif" font-size="10.00" fill="#000000">Picker.h</text>
</a>
</g>
</g>
<!-- Node3&#45;&gt;Node5 -->
<g id="edge2" class="edge">
<title>Node3&#45;&gt;Node5</title>
<path fill="none" stroke="#191970" d="M1177.0712,-199.035C1047.0518,-195.9465 659.298,-184.6479 339,-154 336.0946,-153.722 333.1486,-153.4234 330.1767,-153.1074"/>
<polygon fill="#191970" stroke="#191970" points="1177.3394,-202.5421 1187.4183,-199.2763 1177.5027,-195.544 1177.3394,-202.5421"/>
</g>
<!-- Node7 -->
<g id="node5" class="node">
<title>Node7</title>
<g id="a_node5"><a xlink:href="GridColorPicker_8cpp.html" target="_top" xlink:title=" ">
<polygon fill="none" stroke="#000000" points="558.5,-62 558.5,-81 807.5,-81 807.5,-62 558.5,-62"/>
<text text-anchor="middle" x="683" y="-69" font-family="Helvetica,sans-Serif" font-size="10.00" fill="#000000">colorPicker/GridColorPicker.cpp</text>
</a>
</g>
</g>
<!-- Node3&#45;&gt;Node7 -->
<g id="edge5" class="edge">
<title>Node3&#45;&gt;Node7</title>
<path fill="none" stroke="#191970" d="M1177.1444,-198.0197C1045.8974,-192.0105 670.726,-173.2169 653,-154 633.47,-132.8274 659.129,-97.9501 673.8977,-81.1442"/>
<polygon fill="#191970" stroke="#191970" points="1177.1101,-201.5216 1187.2588,-198.4795 1177.4281,-194.5288 1177.1101,-201.5216"/>
</g>
<!-- Node8 -->
<g id="node6" class="node">
<title>Node8</title>
<g id="a_node6"><a xlink:href="GridColorPicker_8h.html" target="_top" xlink:title=" ">
<polygon fill="none" stroke="#000000" points="662,-129 662,-148 896,-148 896,-129 662,-129"/>
<text text-anchor="middle" x="779" y="-136" font-family="Helvetica,sans-Serif" font-size="10.00" fill="#000000">colorPicker/GridColorPicker.h</text>
</a>
</g>
</g>
<!-- Node3&#45;&gt;Node8 -->
<g id="edge6" class="edge">
<title>Node3&#45;&gt;Node8</title>
<path fill="none" stroke="#191970" d="M1177.2993,-193.7944C1099.7026,-183.0219 939.5977,-160.7952 847.763,-148.0461"/>
<polygon fill="#191970" stroke="#191970" points="1176.8522,-197.2658 1187.2385,-195.1742 1177.8148,-190.3323 1176.8522,-197.2658"/>
</g>
<!-- Node9 -->
<g id="node7" class="node">
<title>Node9</title>
<g id="a_node7"><a xlink:href="MyColorPicker_8cpp.html" target="_top" xlink:title=" ">
<polygon fill="none" stroke="#000000" points="306,-62 306,-81 540,-81 540,-62 306,-62"/>
<text text-anchor="middle" x="423" y="-69" font-family="Helvetica,sans-Serif" font-size="10.00" fill="#000000">colorPicker/MyColorPicker.cpp</text>
</a>
</g>
</g>
<!-- Node3&#45;&gt;Node9 -->
<g id="edge9" class="edge">
<title>Node3&#45;&gt;Node9</title>
<path fill="none" stroke="#191970" d="M1177.0839,-198.519C1059.168,-194.2995 742.9383,-180.7576 642,-154 610.6741,-145.6959 606.0732,-135.0779 576,-123 534.7777,-106.4443 485.9499,-90.6475 454.7363,-81.0162"/>
<polygon fill="#191970" stroke="#191970" points="1177.09,-202.0213 1187.2071,-198.8757 1177.3365,-195.0256 1177.09,-202.0213"/>
</g>
<!-- Node10 -->
<g id="node8" class="node">
<title>Node10</title>
<g id="a_node8"><a xlink:href="MyColorPicker_8h.html" target="_top" xlink:title=" ">
<polygon fill="none" stroke="#000000" points="348.5,-129 348.5,-148 567.5,-148 567.5,-129 348.5,-129"/>
<text text-anchor="middle" x="458" y="-136" font-family="Helvetica,sans-Serif" font-size="10.00" fill="#000000">colorPicker/MyColorPicker.h</text>
</a>
</g>
</g>
<!-- Node3&#45;&gt;Node10 -->
<g id="edge10" class="edge">
<title>Node3&#45;&gt;Node10</title>
<path fill="none" stroke="#191970" d="M1177.0733,-197.586C1072.5395,-191.7911 804.9379,-175.9301 582,-154 564.8351,-152.3115 546.3727,-150.1769 529.0741,-148.0361"/>
<polygon fill="#191970" stroke="#191970" points="1177.0805,-201.0916 1187.258,-198.1473 1177.4658,-194.1022 1177.0805,-201.0916"/>
</g>
<!-- Node11 -->
<g id="node9" class="node">
<title>Node11</title>
<g id="a_node9"><a xlink:href="SolidColorPicker_8cpp.html" target="_top" xlink:title=" ">
<polygon fill="none" stroke="#000000" points="902.5,-62 902.5,-81 1159.5,-81 1159.5,-62 902.5,-62"/>
<text text-anchor="middle" x="1031" y="-69" font-family="Helvetica,sans-Serif" font-size="10.00" fill="#000000">colorPicker/SolidColorPicker.cpp</text>
</a>
</g>
</g>
<!-- Node3&#45;&gt;Node11 -->
<g id="edge13" class="edge">
<title>Node3&#45;&gt;Node11</title>
<path fill="none" stroke="#191970" d="M1212.2166,-181.2278C1202.3687,-163.9677 1185.6941,-138.7396 1165,-123 1137.724,-102.2543 1101.0912,-88.937 1073.0216,-81.0532"/>
<polygon fill="#191970" stroke="#191970" points="1209.332,-183.2473 1217.2048,-190.3375 1215.4719,-179.8853 1209.332,-183.2473"/>
</g>
<!-- Node12 -->
<g id="node10" class="node">
<title>Node12</title>
<g id="a_node10"><a xlink:href="SolidColorPicker_8h.html" target="_top" xlink:title=" ">
<polygon fill="none" stroke="#000000" points="914,-129 914,-148 1156,-148 1156,-129 914,-129"/>
<text text-anchor="middle" x="1035" y="-136" font-family="Helvetica,sans-Serif" font-size="10.00" fill="#000000">colorPicker/SolidColorPicker.h</text>
</a>
</g>
</g>
<!-- Node3&#45;&gt;Node12 -->
<g id="edge14" class="edge">
<title>Node3&#45;&gt;Node12</title>
<path fill="none" stroke="#191970" d="M1183.234,-187.2507C1147.7528,-175.5818 1096.0417,-158.5752 1064.0136,-148.0419"/>
<polygon fill="#191970" stroke="#191970" points="1182.1883,-190.5912 1192.7813,-190.3906 1184.3753,-183.9416 1182.1883,-190.5912"/>
</g>
<!-- Node13 -->
<g id="node11" class="node">
<title>Node13</title>
<g id="a_node11"><a xlink:href="ImageTraversal_8h.html" target="_top" xlink:title=" ">
<polygon fill="none" stroke="#000000" points="1578.5,-129 1578.5,-148 1827.5,-148 1827.5,-129 1578.5,-129"/>
<text text-anchor="middle" x="1703" y="-136" font-family="Helvetica,sans-Serif" font-size="10.00" fill="#000000">imageTraversal/ImageTraversal.h</text>
</a>
</g>
</g>
<!-- Node3&#45;&gt;Node13 -->
<g id="edge17" class="edge">
<title>Node3&#45;&gt;Node13</title>
<path fill="none" stroke="#191970" d="M1266.6695,-194.2886C1349.3771,-183.7137 1527.1383,-160.9854 1628.3921,-148.0393"/>
<polygon fill="#191970" stroke="#191970" points="1266.0677,-190.837 1256.5923,-195.5771 1266.9555,-197.7805 1266.0677,-190.837"/>
</g>
<!-- Node14 -->
<g id="node12" class="node">
<title>Node14</title>
<g id="a_node12"><a xlink:href="FloodFilledImage_8cpp.html" target="_top" xlink:title=" ">
<polygon fill="none" stroke="#000000" points="1208.5,-.5 1208.5,-19.5 1375.5,-19.5 1375.5,-.5 1208.5,-.5"/>
<text text-anchor="middle" x="1292" y="-7.5" font-family="Helvetica,sans-Serif" font-size="10.00" fill="#000000">FloodFilledImage.cpp</text>
</a>
</g>
</g>
<!-- Node3&#45;&gt;Node14 -->
<g id="edge31" class="edge">
<title>Node3&#45;&gt;Node14</title>
<path fill="none" stroke="#191970" d="M1213.2093,-180.988C1201.155,-151.8589 1183.5089,-95.4233 1207,-56 1217.7363,-37.9821 1238.2535,-26.5925 1256.4402,-19.6541"/>
<polygon fill="#191970" stroke="#191970" points="1210.1079,-182.6324 1217.3108,-190.4022 1216.5253,-179.8365 1210.1079,-182.6324"/>
</g>
<!-- Node15 -->
<g id="node13" class="node">
<title>Node15</title>
<g id="a_node13"><a xlink:href="FloodFilledImage_8h.html" target="_top" xlink:title="Definition for a class to do flood fill on an image.">
<polygon fill="none" stroke="#000000" points="1216,-62 1216,-81 1368,-81 1368,-62 1216,-62"/>
<text text-anchor="middle" x="1292" y="-69" font-family="Helvetica,sans-Serif" font-size="10.00" fill="#000000">FloodFilledImage.h</text>
</a>
</g>
</g>
<!-- Node3&#45;&gt;Node15 -->
<g id="edge32" class="edge">
<title>Node3&#45;&gt;Node15</title>
<path fill="none" stroke="#191970" d="M1232.198,-181.2794C1247.2981,-153.56 1275.067,-102.5841 1286.6776,-81.2705"/>
<polygon fill="#191970" stroke="#191970" points="1228.9716,-179.8857 1227.2614,-190.3416 1235.1187,-183.2344 1228.9716,-179.8857"/>
</g>
<!-- Node16 -->
<g id="node14" class="node">
<title>Node16</title>
<g id="a_node14"><a xlink:href="BFS_8cpp.html" target="_top" xlink:title=" ">
<polygon fill="none" stroke="#000000" points="1632,-.5 1632,-19.5 1814,-19.5 1814,-.5 1632,-.5"/>
<text text-anchor="middle" x="1723" y="-7.5" font-family="Helvetica,sans-Serif" font-size="10.00" fill="#000000">imageTraversal/BFS.cpp</text>
</a>
</g>
</g>
<!-- Node3&#45;&gt;Node16 -->
<g id="edge33" class="edge">
<title>Node3&#45;&gt;Node16</title>
<path fill="none" stroke="#191970" d="M1266.9778,-197.9983C1396.3537,-192.0653 1767.863,-173.7513 1888,-154 2003.6278,-134.9901 2071.4395,-179.7915 2143,-87 2151.4139,-76.0898 2152.1967,-66.259 2143,-56 2140.2669,-52.9512 1936.8664,-31.7614 1814.1621,-19.2309"/>
<polygon fill="#191970" stroke="#191970" points="1266.4818,-194.5172 1256.6517,-198.4691 1266.8007,-201.5099 1266.4818,-194.5172"/>
</g>
<!-- Node17 -->
<g id="node15" class="node">
<title>Node17</title>
<g id="a_node15"><a xlink:href="BFS_8h.html" target="_top" xlink:title=" ">
<polygon fill="none" stroke="#000000" points="1386.5,-62 1386.5,-81 1553.5,-81 1553.5,-62 1386.5,-62"/>
<text text-anchor="middle" x="1470" y="-69" font-family="Helvetica,sans-Serif" font-size="10.00" fill="#000000">imageTraversal/BFS.h</text>
</a>
</g>
</g>
<!-- Node3&#45;&gt;Node17 -->
<g id="edge34" class="edge">
<title>Node3&#45;&gt;Node17</title>
<path fill="none" stroke="#191970" d="M1249.7768,-185.6076C1300.8347,-159.1522 1408.3196,-103.4594 1451.4817,-81.0952"/>
<polygon fill="#191970" stroke="#191970" points="1247.909,-182.6334 1240.6403,-190.3416 1251.1294,-188.8486 1247.909,-182.6334"/>
</g>
<!-- Node18 -->
<g id="node16" class="node">
<title>Node18</title>
<g id="a_node16"><a xlink:href="DFS_8cpp.html" target="_top" xlink:title=" ">
<polygon fill="none" stroke="#000000" points="1832,-.5 1832,-19.5 2014,-19.5 2014,-.5 1832,-.5"/>
<text text-anchor="middle" x="1923" y="-7.5" font-family="Helvetica,sans-Serif" font-size="10.00" fill="#000000">imageTraversal/DFS.cpp</text>
</a>
</g>
</g>
<!-- Node3&#45;&gt;Node18 -->
<g id="edge35" class="edge">
<title>Node3&#45;&gt;Node18</title>
<path fill="none" stroke="#191970" d="M1266.9408,-199.5183C1412.2638,-197.6259 1868.3116,-188.9795 2011,-154 2081.5211,-136.712 2120.5668,-147.9682 2160,-87 2167.4826,-75.4311 2168.7652,-66.6301 2160,-56 2141.4013,-33.4443 2072.6975,-21.8115 2014.0181,-15.8951"/>
<polygon fill="#191970" stroke="#191970" points="1266.5794,-196.0224 1256.6242,-199.6479 1266.6675,-203.0219 1266.5794,-196.0224"/>
</g>
<!-- Node19 -->
<g id="node17" class="node">
<title>Node19</title>
<g id="a_node17"><a xlink:href="DFS_8h.html" target="_top" xlink:title=" ">
<polygon fill="none" stroke="#000000" points="1571.5,-62 1571.5,-81 1738.5,-81 1738.5,-62 1571.5,-62"/>
<text text-anchor="middle" x="1655" y="-69" font-family="Helvetica,sans-Serif" font-size="10.00" fill="#000000">imageTraversal/DFS.h</text>
</a>
</g>
</g>
<!-- Node3&#45;&gt;Node19 -->
<g id="edge36" class="edge">
<title>Node3&#45;&gt;Node19</title>
<path fill="none" stroke="#191970" d="M1263.9048,-187.5641C1350.1294,-161.9755 1545.7723,-103.9152 1622.8907,-81.029"/>
<polygon fill="#191970" stroke="#191970" points="1262.7826,-184.2461 1254.1916,-190.4466 1264.7742,-190.9569 1262.7826,-184.2461"/>
</g>
<!-- Node20 -->
<g id="node18" class="node">
<title>Node20</title>
<g id="a_node18"><a xlink:href="ImageTraversal_8cpp.html" target="_top" xlink:title=" ">
<polygon fill="none" stroke="#000000" points="1870,-62 1870,-81 2134,-81 2134,-62 1870,-62"/>
<text text-anchor="middle" x="2002" y="-69" font-family="Helvetica,sans-Serif" font-size="10.00" fill="#000000">imageTraversal/ImageTraversal.cpp</text>
</a>
</g>
</g>
<!-- Node3&#45;&gt;Node20 -->
<g id="edge37" class="edge">
<title>Node3&#45;&gt;Node20</title>
<path fill="none" stroke="#191970" d="M1266.6803,-198.8986C1389.3635,-195.5194 1729.4377,-183.6706 1837,-154 1896.5867,-137.5632 1960.1096,-99.0191 1987.7661,-81.0436"/>
<polygon fill="#191970" stroke="#191970" points="1266.4204,-195.4043 1256.5184,-199.1727 1266.6092,-202.4017 1266.4204,-195.4043"/>
</g>
<!-- Node21 -->
<g id="node19" class="node">
<title>Node21</title>
<g id="a_node19"><a xlink:href="Point_8cpp.html" target="_top" xlink:title=" ">
<polygon fill="none" stroke="#000000" points="2228,-129 2228,-148 2312,-148 2312,-129 2228,-129"/>
<text text-anchor="middle" x="2270" y="-136" font-family="Helvetica,sans-Serif" font-size="10.00" fill="#000000">Point.cpp</text>
</a>
</g>
</g>
<!-- Node3&#45;&gt;Node21 -->
<g id="edge38" class="edge">
<title>Node3&#45;&gt;Node21</title>
<path fill="none" stroke="#191970" d="M1266.9368,-199.2507C1435.1818,-196.2382 2027.7349,-183.712 2214,-154 2222.6668,-152.6175 2231.9105,-150.3845 2240.3381,-148.0388"/>
<polygon fill="#191970" stroke="#191970" points="1266.6423,-195.7553 1256.7057,-199.4315 1266.766,-202.7542 1266.6423,-195.7553"/>
</g>
<!-- Node5&#45;&gt;Node4 -->
<g id="edge3" class="edge">
<title>Node5&#45;&gt;Node4</title>
<path fill="none" stroke="#191970" d="M190.6422,-118.6352C171.4355,-108.422 148.3947,-96.1702 130.6184,-86.7177"/>
<polygon fill="#191970" stroke="#191970" points="189.2505,-121.8591 199.7231,-123.4639 192.537,-115.6786 189.2505,-121.8591"/>
</g>
<!-- Node6 -->
<g id="node4" class="node">
<title>Node6</title>
<g id="a_node4"><a xlink:href="main_8cpp.html" target="_top" xlink:title=" ">
<polygon fill="none" stroke="#000000" points="835.5,-.5 835.5,-19.5 912.5,-19.5 912.5,-.5 835.5,-.5"/>
<text text-anchor="middle" x="874" y="-7.5" font-family="Helvetica,sans-Serif" font-size="10.00" fill="#000000">main.cpp</text>
</a>
</g>
</g>
<!-- Node5&#45;&gt;Node6 -->
<g id="edge4" class="edge">
<title>Node5&#45;&gt;Node6</title>
<path fill="none" stroke="#191970" d="M237.7928,-114.0318C246.9266,-94.7094 262.5384,-68.9224 285,-56 332.5642,-28.6357 712.1952,-14.8767 835.4814,-11.0986"/>
<polygon fill="#191970" stroke="#191970" points="234.5903,-112.6198 233.7164,-123.1786 240.9841,-115.4694 234.5903,-112.6198"/>
</g>
<!-- Node8&#45;&gt;Node6 -->
<g id="edge8" class="edge">
<title>Node8&#45;&gt;Node6</title>
<path fill="none" stroke="#191970" d="M792.3048,-120.5035C812.6703,-92.9566 850.8813,-41.2711 866.7767,-19.7705"/>
<polygon fill="#191970" stroke="#191970" points="789.2709,-118.7198 786.1404,-128.8416 794.8997,-122.8812 789.2709,-118.7198"/>
</g>
<!-- Node8&#45;&gt;Node7 -->
<g id="edge7" class="edge">
<title>Node8&#45;&gt;Node7</title>
<path fill="none" stroke="#191970" d="M756.8056,-123.0102C738.2602,-110.067 712.4011,-92.0195 696.7289,-81.0817"/>
<polygon fill="#191970" stroke="#191970" points="755.0421,-126.0475 765.2455,-128.9005 759.0483,-120.3072 755.0421,-126.0475"/>
</g>
<!-- Node10&#45;&gt;Node6 -->
<g id="edge12" class="edge">
<title>Node10&#45;&gt;Node6</title>
<path fill="none" stroke="#191970" d="M387.7282,-126.9291C330.3912,-114.6119 263.8657,-91.881 297,-56 315.3011,-36.1819 708.9316,-17.2432 835.3101,-11.6544"/>
<polygon fill="#191970" stroke="#191970" points="387.0644,-130.3658 397.5659,-128.9628 388.4816,-123.5107 387.0644,-130.3658"/>
</g>
<!-- Node10&#45;&gt;Node9 -->
<g id="edge11" class="edge">
<title>Node10&#45;&gt;Node9</title>
<path fill="none" stroke="#191970" d="M448.1986,-119.7374C441.6291,-107.1614 433.2517,-91.1246 428.0053,-81.0817"/>
<polygon fill="#191970" stroke="#191970" points="445.2529,-121.6576 452.9854,-128.9005 451.4573,-118.4165 445.2529,-121.6576"/>
</g>
<!-- Node12&#45;&gt;Node6 -->
<g id="edge16" class="edge">
<title>Node12&#45;&gt;Node6</title>
<path fill="none" stroke="#191970" d="M960.7556,-126.2032C936.1397,-118.6716 910.5697,-106.5384 893,-87 875.7835,-67.8544 873.5811,-35.5933 873.6446,-19.5934"/>
<polygon fill="#191970" stroke="#191970" points="959.9113,-129.6018 970.487,-128.9659 961.823,-122.8679 959.9113,-129.6018"/>
</g>
<!-- Node12&#45;&gt;Node11 -->
<g id="edge15" class="edge">
<title>Node12&#45;&gt;Node11</title>
<path fill="none" stroke="#191970" d="M1033.8124,-118.6079C1033.0725,-106.214 1032.1538,-90.8263 1031.572,-81.0817"/>
<polygon fill="#191970" stroke="#191970" points="1030.3371,-119.1269 1034.4269,-128.9005 1037.3246,-118.7097 1030.3371,-119.1269"/>
</g>
<!-- Node13&#45;&gt;Node14 -->
<g id="edge18" class="edge">
<title>Node13&#45;&gt;Node14</title>
<path fill="none" stroke="#191970" d="M1722.4545,-122.245C1741.4241,-104.4787 1764.9868,-75.897 1747,-56 1722.6247,-29.0362 1500.2988,-17.1103 1375.696,-12.5055"/>
<polygon fill="#191970" stroke="#191970" points="1720.1126,-119.6439 1714.996,-128.9214 1724.7813,-124.8596 1720.1126,-119.6439"/>
</g>
<!-- Node13&#45;&gt;Node15 -->
<g id="edge19" class="edge">
<title>Node13&#45;&gt;Node15</title>
<path fill="none" stroke="#191970" d="M1629.9134,-127.4606C1563.7902,-117.3526 1463.7726,-101.7635 1377,-87 1366.057,-85.1382 1354.3381,-83.0576 1343.2062,-81.0403"/>
<polygon fill="#191970" stroke="#191970" points="1629.4087,-130.924 1639.8223,-128.9731 1630.465,-124.0042 1629.4087,-130.924"/>
</g>
<!-- Node13&#45;&gt;Node16 -->
<g id="edge22" class="edge">
<title>Node13&#45;&gt;Node16</title>
<path fill="none" stroke="#191970" d="M1737.925,-124.4793C1753.7961,-116.1339 1771.0046,-103.8383 1780,-87 1786.4921,-74.8476 1785.9419,-68.4307 1780,-56 1772.2125,-39.7083 1755.5266,-27.337 1742.21,-19.5495"/>
<polygon fill="#191970" stroke="#191970" points="1736.251,-121.4018 1728.8071,-128.941 1739.3277,-127.6894 1736.251,-121.4018"/>
</g>
<!-- Node13&#45;&gt;Node17 -->
<g id="edge23" class="edge">
<title>Node13&#45;&gt;Node17</title>
<path fill="none" stroke="#191970" d="M1659.8009,-126.0779C1614.5568,-113.0678 1544.4712,-92.9145 1503.3213,-81.0817"/>
<polygon fill="#191970" stroke="#191970" points="1659.039,-129.5006 1669.6168,-128.9005 1660.9735,-122.7732 1659.039,-129.5006"/>
</g>
<!-- Node13&#45;&gt;Node18 -->
<g id="edge26" class="edge">
<title>Node13&#45;&gt;Node18</title>
<path fill="none" stroke="#191970" d="M1729.7802,-124.0327C1748.4473,-113.86 1773.872,-99.8283 1796,-87 1836.5989,-63.4635 1883.6611,-34.4747 1907.4766,-19.6822"/>
<polygon fill="#191970" stroke="#191970" points="1728.0609,-120.9836 1720.9459,-128.8339 1731.4035,-127.134 1728.0609,-120.9836"/>
</g>
<!-- Node13&#45;&gt;Node19 -->
<g id="edge27" class="edge">
<title>Node13&#45;&gt;Node19</title>
<path fill="none" stroke="#191970" d="M1690.0904,-120.4803C1681.0052,-107.7989 1669.2019,-91.3235 1661.8645,-81.0817"/>
<polygon fill="#191970" stroke="#191970" points="1687.4537,-122.8097 1696.1228,-128.9005 1693.1441,-118.733 1687.4537,-122.8097"/>
</g>
<!-- Node13&#45;&gt;Node20 -->
<g id="edge30" class="edge">
<title>Node13&#45;&gt;Node20</title>
<path fill="none" stroke="#191970" d="M1755.5653,-126.7211C1813.4578,-113.7486 1905.4421,-93.1367 1959.1407,-81.1039"/>
<polygon fill="#191970" stroke="#191970" points="1754.5146,-123.3697 1745.5219,-128.9717 1756.0452,-130.2003 1754.5146,-123.3697"/>
</g>
<!-- Node15&#45;&gt;Node6 -->
<g id="edge21" class="edge">
<title>Node15&#45;&gt;Node6</title>
<path fill="none" stroke="#191970" d="M1217.0756,-60.4764C1127.7284,-47.3309 981.8086,-25.8618 912.6685,-15.6893"/>
<polygon fill="#191970" stroke="#191970" points="1216.7431,-63.9651 1227.1461,-61.9581 1217.7621,-57.0397 1216.7431,-63.9651"/>
</g>
<!-- Node15&#45;&gt;Node14 -->
<g id="edge20" class="edge">
<title>Node15&#45;&gt;Node14</title>
<path fill="none" stroke="#191970" d="M1292,-51.7462C1292,-41.0519 1292,-28.314 1292,-19.7449"/>
<polygon fill="#191970" stroke="#191970" points="1288.5001,-51.8906 1292,-61.8906 1295.5001,-51.8907 1288.5001,-51.8906"/>
</g>
<!-- Node17&#45;&gt;Node6 -->
<g id="edge25" class="edge">
<title>Node17&#45;&gt;Node6</title>
<path fill="none" stroke="#191970" d="M1407.0605,-60.3628C1397.0239,-58.7737 1386.7406,-57.2554 1377,-56 1204.3616,-33.7504 997.0286,-18.3485 912.6002,-12.5521"/>
<polygon fill="#191970" stroke="#191970" points="1406.555,-63.8265 1416.9856,-61.9684 1407.6729,-56.9163 1406.555,-63.8265"/>
</g>
<!-- Node17&#45;&gt;Node16 -->
<g id="edge24" class="edge">
<title>Node17&#45;&gt;Node16</title>
<path fill="none" stroke="#191970" d="M1519.1142,-59.5612C1567.1292,-47.8895 1639.3,-30.346 1683.6543,-19.5643"/>
<polygon fill="#191970" stroke="#191970" points="1518.144,-56.195 1509.2537,-61.9581 1519.7974,-62.9969 1518.144,-56.195"/>
</g>
<!-- Node19&#45;&gt;Node6 -->
<g id="edge29" class="edge">
<title>Node19&#45;&gt;Node6</title>
<path fill="none" stroke="#191970" d="M1593.5393,-60.3805C1583.0418,-58.7327 1572.2264,-57.1911 1562,-56 1315.5648,-27.2959 1017.2248,-14.9192 912.5358,-11.2463"/>
<polygon fill="#191970" stroke="#191970" points="1593.047,-63.8462 1603.477,-61.9849 1594.1627,-56.9357 1593.047,-63.8462"/>
</g>
<!-- Node19&#45;&gt;Node18 -->
<g id="edge28" class="edge">
<title>Node19&#45;&gt;Node18</title>
<path fill="none" stroke="#191970" d="M1706.389,-59.7074C1757.2476,-48.0365 1834.141,-30.3912 1881.3215,-19.5643"/>
<polygon fill="#191970" stroke="#191970" points="1705.5448,-56.3101 1696.581,-61.9581 1707.1105,-63.1327 1705.5448,-56.3101"/>
</g>
</g>
</svg>
        <g id="navigator" transform="translate(0 0)" fill="#404254">
                <rect fill="#f2f5e9" fill-opacity="0.5" stroke="#606060" stroke-width=".5" x="0" y="0" width="60" height="60"/>
                <use id="zoomplus" xlink:href="#zoomPlus" x="17" y="9" onmousedown="handleZoom(evt,'in')"/>
                <use id="zoomminus" xlink:href="#zoomMin" x="42" y="9" onmousedown="handleZoom(evt,'out')"/>
                <use id="reset" xlink:href="#resetDef" x="30" y="36" onmousedown="handleReset()"/>
                <g id="arrowUp" xlink:href="#dirArrow" transform="translate(30 24)" onmousedown="handlePan(0,-1)">
                  <use xlink:href="#rim" fill="#404040">
                        <set attributeName="fill" to="#808080" begin="arrowUp.mouseover" end="arrowUp.mouseout"/>
                  </use>
                  <path fill="none" stroke="white" stroke-width="1.5" d="M0,-3.0v7 M-2.5,-0.5L0,-3.0L2.5,-0.5"/>
                </g>
                <g id="arrowRight" xlink:href="#dirArrow" transform="rotate(90) translate(36 -43)" onmousedown="handlePan(1,0)">
                  <use xlink:href="#rim" fill="#404040">
                        <set attributeName="fill" to="#808080" begin="arrowRight.mouseover" end="arrowRight.mouseout"/>
                  </use>
                  <path fill="none" stroke="white" stroke-width="1.5" d="M0,-3.0v7 M-2.5,-0.5L0,-3.0L2.5,-0.5"/>
                </g>
                <g id="arrowDown" xlink:href="#dirArrow" transform="rotate(180) translate(-30 -48)" onmousedown="handlePan(0,1)">
                  <use xlink:href="#rim" fill="#404040">
                        <set attributeName="fill" to="#808080" begin="arrowDown.mouseover" end="arrowDown.mouseout"/>
                  </use>
                  <path fill="none" stroke="white" stroke-width="1.5" d="M0,-3.0v7 M-2.5,-0.5L0,-3.0L2.5,-0.5"/>
                </g>
                <g id="arrowLeft" xlink:href="#dirArrow" transform="rotate(270) translate(-36 17)" onmousedown="handlePan(-1,0)">
                  <use xlink:href="#rim" fill="#404040">
                        <set attributeName="fill" to="#808080" begin="arrowLeft.mouseover" end="arrowLeft.mouseout"/>
                  </use>
                  <path fill="none" stroke="white" stroke-width="1.5" d="M0,-3.0v7 M-2.5,-0.5L0,-3.0L2.5,-0.5"/>
                </g>
        </g>
        <svg viewBox="0 0 15 15" width="100%" height="30px" preserveAspectRatio="xMaxYMin meet">
         <g id="arrow_out" transform="scale(0.3 0.3)">
          <a xlink:href="Point_8h__dep__incl_org.svg" target="_base">
           <rect id="button" ry="5" rx="5" y="6" x="6" height="38" width="38"
                fill="#f2f5e9" fill-opacity="0.5" stroke="#606060" stroke-width="1.0"/>
           <path id="arrow"
             d="M 11.500037,31.436501 C 11.940474,20.09759 22.043105,11.32322 32.158766,21.979434 L 37.068811,17.246167 C 37.068811,17.246167 37.088388,32 37.088388,32 L 22.160133,31.978069 C 22.160133,31.978069 26.997745,27.140456 26.997745,27.140456 C 18.528582,18.264221 13.291696,25.230495 11.500037,31.436501 z"
             style="fill:#404040;"/>
          </a>
         </g>
        </svg>
</svg>
