<?xml version="1.0" encoding="UTF-8" standalone="no"?>
<!DOCTYPE svg PUBLIC "-//W3C//DTD SVG 1.1//EN"
 "http://www.w3.org/Graphics/SVG/1.1/DTD/svg11.dtd">
<!-- Generated by graphviz version 2.40.1 (0)
 -->
<!-- Title: colorPicker/RainbowColorPicker.cpp Pages: 1 -->
<svg width="301pt" height="263pt"
 viewBox="0.00 0.00 301.00 263.00" xmlns="http://www.w3.org/2000/svg" xmlns:xlink="http://www.w3.org/1999/xlink">
<g id="graph0" class="graph" transform="scale(1 1) rotate(0) translate(4 259)">
<title>colorPicker/RainbowColorPicker.cpp</title>
<!-- Node0 -->
<g id="node1" class="node">
<title>Node0</title>
<g id="a_node1"><a xlink:title=" ">
<polygon fill="#bfbfbf" stroke="#000000" points="0,-224.5 0,-254.5 197,-254.5 197,-224.5 0,-224.5"/>
<text text-anchor="start" x="8" y="-242.5" font-family="Helvetica,sans-Serif" font-size="10.00" fill="#000000">colorPicker/RainbowColor</text>
<text text-anchor="middle" x="98.5" y="-231.5" font-family="Helvetica,sans-Serif" font-size="10.00" fill="#000000">Picker.cpp</text>
</a>
</g>
</g>
<!-- Node1 -->
<g id="node2" class="node">
<title>Node1</title>
<g id="a_node2"><a xlink:href="HSLAPixel_8h.html" target="_top" xlink:title=" ">
<polygon fill="none" stroke="#000000" points="52,-56.5 52,-75.5 219,-75.5 219,-56.5 52,-56.5"/>
<text text-anchor="middle" x="135.5" y="-63.5" font-family="Helvetica,sans-Serif" font-size="10.00" fill="#000000">../cs225/HSLAPixel.h</text>
</a>
</g>
</g>
<!-- Node0&#45;&gt;Node1 -->
<g id="edge1" class="edge">
<title>Node0&#45;&gt;Node1</title>
<path fill="none" stroke="#191970" d="M88.5611,-224.1094C73.8659,-199.2357 50.0677,-149.2302 69.5,-112 76.6245,-98.3502 89.8523,-87.926 102.6056,-80.4806"/>
<polygon fill="#191970" stroke="#191970" points="104.5647,-83.4012 111.7141,-75.5822 101.2492,-77.2362 104.5647,-83.4012"/>
</g>
<!-- Node4 -->
<g id="node5" class="node">
<title>Node4</title>
<g id="a_node5"><a xlink:href="ColorPicker_8h.html" target="_top" xlink:title=" ">
<polygon fill="none" stroke="#000000" points="78.5,-112.5 78.5,-131.5 192.5,-131.5 192.5,-112.5 78.5,-112.5"/>
<text text-anchor="middle" x="135.5" y="-119.5" font-family="Helvetica,sans-Serif" font-size="10.00" fill="#000000">ColorPicker.h</text>
</a>
</g>
</g>
<!-- Node0&#45;&gt;Node4 -->
<g id="edge4" class="edge">
<title>Node0&#45;&gt;Node4</title>
<path fill="none" stroke="#191970" d="M102.0121,-224.2897C105.5016,-209.7146 111.2265,-187.1644 117.5,-168 120.4265,-159.0603 124.1496,-149.3364 127.4496,-141.1416"/>
<polygon fill="#191970" stroke="#191970" points="130.744,-142.333 131.3113,-131.7534 124.2703,-139.6701 130.744,-142.333"/>
</g>
<!-- Node5 -->
<g id="node6" class="node">
<title>Node5</title>
<g id="a_node6"><a xlink:href="RainbowColorPicker_8h.html" target="_top" xlink:title=" ">
<polygon fill="none" stroke="#000000" points="126,-168.5 126,-187.5 293,-187.5 293,-168.5 126,-168.5"/>
<text text-anchor="middle" x="209.5" y="-175.5" font-family="Helvetica,sans-Serif" font-size="10.00" fill="#000000">RainbowColorPicker.h</text>
</a>
</g>
</g>
<!-- Node0&#45;&gt;Node5 -->
<g id="edge6" class="edge">
<title>Node0&#45;&gt;Node5</title>
<path fill="none" stroke="#191970" d="M125.6537,-224.4554C143.1995,-214.734 165.9122,-202.15 183.2721,-192.5317"/>
<polygon fill="#191970" stroke="#191970" points="185.248,-195.4383 192.2989,-187.5303 181.8555,-189.3153 185.248,-195.4383"/>
</g>
<!-- Node2 -->
<g id="node3" class="node">
<title>Node2</title>
<g id="a_node3"><a xlink:title=" ">
<polygon fill="none" stroke="#bfbfbf" points="52,-.5 52,-19.5 129,-19.5 129,-.5 52,-.5"/>
<text text-anchor="middle" x="90.5" y="-7.5" font-family="Helvetica,sans-Serif" font-size="10.00" fill="#000000">iostream</text>
</a>
</g>
</g>
<!-- Node1&#45;&gt;Node2 -->
<g id="edge2" class="edge">
<title>Node1&#45;&gt;Node2</title>
<path fill="none" stroke="#191970" d="M127.6616,-56.2455C121.338,-48.3761 112.2776,-37.101 104.6864,-27.6542"/>
<polygon fill="#191970" stroke="#191970" points="107.2408,-25.2454 98.2486,-19.6427 101.7842,-29.6302 107.2408,-25.2454"/>
</g>
<!-- Node3 -->
<g id="node4" class="node">
<title>Node3</title>
<g id="a_node4"><a xlink:title=" ">
<polygon fill="none" stroke="#bfbfbf" points="147,-.5 147,-19.5 216,-19.5 216,-.5 147,-.5"/>
<text text-anchor="middle" x="181.5" y="-7.5" font-family="Helvetica,sans-Serif" font-size="10.00" fill="#000000">sstream</text>
</a>
</g>
</g>
<!-- Node1&#45;&gt;Node3 -->
<g id="edge3" class="edge">
<title>Node1&#45;&gt;Node3</title>
<path fill="none" stroke="#191970" d="M143.5126,-56.2455C149.9768,-48.3761 159.2385,-37.101 166.9983,-27.6542"/>
<polygon fill="#191970" stroke="#191970" points="169.9364,-29.5916 173.5792,-19.6427 164.5273,-25.1484 169.9364,-29.5916"/>
</g>
<!-- Node4&#45;&gt;Node1 -->
<g id="edge5" class="edge">
<title>Node4&#45;&gt;Node1</title>
<path fill="none" stroke="#191970" d="M135.5,-112.2455C135.5,-104.9382 135.5,-94.6944 135.5,-85.7046"/>
<polygon fill="#191970" stroke="#191970" points="139.0001,-85.6426 135.5,-75.6427 132.0001,-85.6427 139.0001,-85.6426"/>
</g>
<!-- Node5&#45;&gt;Node1 -->
<g id="edge8" class="edge">
<title>Node5&#45;&gt;Node1</title>
<path fill="none" stroke="#191970" d="M210.6731,-168.2562C211.8192,-154.6378 212.087,-129.6073 201.5,-112 193.4498,-98.6118 179.8349,-88.1414 167.0546,-80.5949"/>
<polygon fill="#191970" stroke="#191970" points="168.4379,-77.3615 157.9877,-75.6167 165.0689,-83.4975 168.4379,-77.3615"/>
</g>
<!-- Node5&#45;&gt;Node4 -->
<g id="edge7" class="edge">
<title>Node5&#45;&gt;Node4</title>
<path fill="none" stroke="#191970" d="M196.6102,-168.2455C185.5746,-159.8943 169.4708,-147.7076 156.5647,-137.9408"/>
<polygon fill="#191970" stroke="#191970" points="158.3283,-134.8862 148.2421,-131.6427 154.1041,-140.4681 158.3283,-134.8862"/>
</g>
</g>
</svg>
