<?xml version="1.0" encoding="UTF-8" standalone="no"?>
<!DOCTYPE svg PUBLIC "-//W3C//DTD SVG 1.1//EN"
 "http://www.w3.org/Graphics/SVG/1.1/DTD/svg11.dtd">
<!-- Generated by graphviz version 2.40.1 (0)
 -->
<!-- Title: colorPicker/RainbowColorPicker.h Pages: 1 -->
<svg width="206pt" height="207pt"
 viewBox="0.00 0.00 205.50 207.00" xmlns="http://www.w3.org/2000/svg" xmlns:xlink="http://www.w3.org/1999/xlink">
<g id="graph0" class="graph" transform="scale(1 1) rotate(0) translate(4 203)">
<title>colorPicker/RainbowColorPicker.h</title>
<!-- Node0 -->
<g id="node1" class="node">
<title>Node0</title>
<g id="a_node1"><a xlink:title=" ">
<polygon fill="#bfbfbf" stroke="#000000" points=".5,-168.5 .5,-198.5 197.5,-198.5 197.5,-168.5 .5,-168.5"/>
<text text-anchor="start" x="8.5" y="-186.5" font-family="Helvetica,sans-Serif" font-size="10.00" fill="#000000">colorPicker/RainbowColor</text>
<text text-anchor="middle" x="99" y="-175.5" font-family="Helvetica,sans-Serif" font-size="10.00" fill="#000000">Picker.h</text>
</a>
</g>
</g>
<!-- Node1 -->
<g id="node2" class="node">
<title>Node1</title>
<g id="a_node2"><a xlink:href="ColorPicker_8h.html" target="_top" xlink:title=" ">
<polygon fill="none" stroke="#000000" points="0,-112.5 0,-131.5 114,-131.5 114,-112.5 0,-112.5"/>
<text text-anchor="middle" x="57" y="-119.5" font-family="Helvetica,sans-Serif" font-size="10.00" fill="#000000">ColorPicker.h</text>
</a>
</g>
</g>
<!-- Node0&#45;&gt;Node1 -->
<g id="edge1" class="edge">
<title>Node0&#45;&gt;Node1</title>
<path fill="none" stroke="#191970" d="M88.618,-168.2977C82.8487,-159.8498 75.6284,-149.2773 69.5447,-140.369"/>
<polygon fill="#191970" stroke="#191970" points="72.2547,-138.1311 63.7247,-131.8469 66.4741,-142.0788 72.2547,-138.1311"/>
</g>
<!-- Node2 -->
<g id="node3" class="node">
<title>Node2</title>
<g id="a_node3"><a xlink:href="HSLAPixel_8h.html" target="_top" xlink:title=" ">
<polygon fill="none" stroke="#000000" points="15.5,-56.5 15.5,-75.5 182.5,-75.5 182.5,-56.5 15.5,-56.5"/>
<text text-anchor="middle" x="99" y="-63.5" font-family="Helvetica,sans-Serif" font-size="10.00" fill="#000000">../cs225/HSLAPixel.h</text>
</a>
</g>
</g>
<!-- Node0&#45;&gt;Node2 -->
<g id="edge5" class="edge">
<title>Node0&#45;&gt;Node2</title>
<path fill="none" stroke="#191970" d="M109.352,-168.3748C117.8881,-154.0497 127.8642,-131.8388 123,-112 120.6257,-102.3164 115.8179,-92.4071 111.1247,-84.2776"/>
<polygon fill="#191970" stroke="#191970" points="114.0472,-82.3486 105.8208,-75.672 108.0881,-86.0214 114.0472,-82.3486"/>
</g>
<!-- Node1&#45;&gt;Node2 -->
<g id="edge2" class="edge">
<title>Node1&#45;&gt;Node2</title>
<path fill="none" stroke="#191970" d="M64.3158,-112.2455C70.2179,-104.3761 78.6742,-93.101 85.7594,-83.6542"/>
<polygon fill="#191970" stroke="#191970" points="88.568,-85.7427 91.768,-75.6427 82.9679,-81.5427 88.568,-85.7427"/>
</g>
<!-- Node3 -->
<g id="node4" class="node">
<title>Node3</title>
<g id="a_node4"><a xlink:title=" ">
<polygon fill="none" stroke="#bfbfbf" points="15.5,-.5 15.5,-19.5 92.5,-19.5 92.5,-.5 15.5,-.5"/>
<text text-anchor="middle" x="54" y="-7.5" font-family="Helvetica,sans-Serif" font-size="10.00" fill="#000000">iostream</text>
</a>
</g>
</g>
<!-- Node2&#45;&gt;Node3 -->
<g id="edge3" class="edge">
<title>Node2&#45;&gt;Node3</title>
<path fill="none" stroke="#191970" d="M91.1616,-56.2455C84.838,-48.3761 75.7776,-37.101 68.1864,-27.6542"/>
<polygon fill="#191970" stroke="#191970" points="70.7408,-25.2454 61.7486,-19.6427 65.2842,-29.6302 70.7408,-25.2454"/>
</g>
<!-- Node4 -->
<g id="node5" class="node">
<title>Node4</title>
<g id="a_node5"><a xlink:title=" ">
<polygon fill="none" stroke="#bfbfbf" points="110.5,-.5 110.5,-19.5 179.5,-19.5 179.5,-.5 110.5,-.5"/>
<text text-anchor="middle" x="145" y="-7.5" font-family="Helvetica,sans-Serif" font-size="10.00" fill="#000000">sstream</text>
</a>
</g>
</g>
<!-- Node2&#45;&gt;Node4 -->
<g id="edge4" class="edge">
<title>Node2&#45;&gt;Node4</title>
<path fill="none" stroke="#191970" d="M107.0126,-56.2455C113.4768,-48.3761 122.7385,-37.101 130.4983,-27.6542"/>
<polygon fill="#191970" stroke="#191970" points="133.4364,-29.5916 137.0792,-19.6427 128.0273,-25.1484 133.4364,-29.5916"/>
</g>
</g>
</svg>
