<?xml version="1.0" encoding="UTF-8" standalone="no"?>
<!DOCTYPE svg PUBLIC "-//W3C//DTD SVG 1.1//EN"
 "http://www.w3.org/Graphics/SVG/1.1/DTD/svg11.dtd">
<!-- Generated by graphviz version 2.40.1 (0)
 -->
<!-- Title: colorPicker/SolidColorPicker.cpp Pages: 1 -->
<svg width="312pt" height="252pt"
 viewBox="0.00 0.00 311.50 252.00" xmlns="http://www.w3.org/2000/svg" xmlns:xlink="http://www.w3.org/1999/xlink">
<g id="graph0" class="graph" transform="scale(1 1) rotate(0) translate(4 248)">
<title>colorPicker/SolidColorPicker.cpp</title>
<!-- Node0 -->
<g id="node1" class="node">
<title>Node0</title>
<g id="a_node1"><a xlink:title=" ">
<polygon fill="#bfbfbf" stroke="#000000" points="0,-224.5 0,-243.5 257,-243.5 257,-224.5 0,-224.5"/>
<text text-anchor="middle" x="128.5" y="-231.5" font-family="Helvetica,sans-Serif" font-size="10.00" fill="#000000">colorPicker/SolidColorPicker.cpp</text>
</a>
</g>
</g>
<!-- Node1 -->
<g id="node2" class="node">
<title>Node1</title>
<g id="a_node2"><a xlink:href="HSLAPixel_8h.html" target="_top" xlink:title=" ">
<polygon fill="none" stroke="#000000" points="26,-56.5 26,-75.5 193,-75.5 193,-56.5 26,-56.5"/>
<text text-anchor="middle" x="109.5" y="-63.5" font-family="Helvetica,sans-Serif" font-size="10.00" fill="#000000">../cs225/HSLAPixel.h</text>
</a>
</g>
</g>
<!-- Node0&#45;&gt;Node1 -->
<g id="edge1" class="edge">
<title>Node0&#45;&gt;Node1</title>
<path fill="none" stroke="#191970" d="M116.1029,-224.3631C96.1562,-207.9622 57.7359,-172.4426 43.5,-132 40.5486,-123.6154 39.387,-119.8801 43.5,-112 50.6245,-98.3502 63.8523,-87.926 76.6056,-80.4806"/>
<polygon fill="#191970" stroke="#191970" points="78.5647,-83.4012 85.7141,-75.5822 75.2492,-77.2362 78.5647,-83.4012"/>
</g>
<!-- Node4 -->
<g id="node5" class="node">
<title>Node4</title>
<g id="a_node5"><a xlink:href="Point_8h.html" target="_top" xlink:title="every 2D point of the image is represented by a Point class you need to trverse all the points of the...">
<polygon fill="none" stroke="#000000" points="211.5,-56.5 211.5,-75.5 303.5,-75.5 303.5,-56.5 211.5,-56.5"/>
<text text-anchor="middle" x="257.5" y="-63.5" font-family="Helvetica,sans-Serif" font-size="10.00" fill="#000000">../Point.h</text>
</a>
</g>
</g>
<!-- Node0&#45;&gt;Node4 -->
<g id="edge4" class="edge">
<title>Node0&#45;&gt;Node4</title>
<path fill="none" stroke="#191970" d="M174.9312,-224.4791C210.2666,-216.1809 254.6239,-203.1246 265.5,-188 287.3921,-157.5561 275.26,-111.0321 265.6372,-85.1188"/>
<polygon fill="#191970" stroke="#191970" points="268.8345,-83.6863 261.8983,-75.6776 262.3263,-86.2638 268.8345,-83.6863"/>
</g>
<!-- Node5 -->
<g id="node6" class="node">
<title>Node5</title>
<g id="a_node6"><a xlink:href="ColorPicker_8h.html" target="_top" xlink:title=" ">
<polygon fill="none" stroke="#000000" points="52.5,-112.5 52.5,-131.5 166.5,-131.5 166.5,-112.5 52.5,-112.5"/>
<text text-anchor="middle" x="109.5" y="-119.5" font-family="Helvetica,sans-Serif" font-size="10.00" fill="#000000">ColorPicker.h</text>
</a>
</g>
</g>
<!-- Node0&#45;&gt;Node5 -->
<g id="edge7" class="edge">
<title>Node0&#45;&gt;Node5</title>
<path fill="none" stroke="#191970" d="M118.8508,-224.4346C110.85,-215.7723 100.0738,-202.2221 95.5,-188 90.5198,-172.5143 95.0629,-154.4072 100.2625,-141.08"/>
<polygon fill="#191970" stroke="#191970" points="103.625,-142.1241 104.4039,-131.558 97.2059,-139.3323 103.625,-142.1241"/>
</g>
<!-- Node6 -->
<g id="node7" class="node">
<title>Node6</title>
<g id="a_node7"><a xlink:href="SolidColorPicker_8h.html" target="_top" xlink:title=" ">
<polygon fill="none" stroke="#000000" points="104.5,-168.5 104.5,-187.5 256.5,-187.5 256.5,-168.5 104.5,-168.5"/>
<text text-anchor="middle" x="180.5" y="-175.5" font-family="Helvetica,sans-Serif" font-size="10.00" fill="#000000">SolidColorPicker.h</text>
</a>
</g>
</g>
<!-- Node0&#45;&gt;Node6 -->
<g id="edge9" class="edge">
<title>Node0&#45;&gt;Node6</title>
<path fill="none" stroke="#191970" d="M137.5577,-224.2455C145.0142,-216.2155 155.7634,-204.6394 164.6417,-195.0781"/>
<polygon fill="#191970" stroke="#191970" points="167.3063,-197.3522 171.5461,-187.6427 162.1768,-192.589 167.3063,-197.3522"/>
</g>
<!-- Node2 -->
<g id="node3" class="node">
<title>Node2</title>
<g id="a_node3"><a xlink:title=" ">
<polygon fill="none" stroke="#bfbfbf" points="99,-.5 99,-19.5 176,-19.5 176,-.5 99,-.5"/>
<text text-anchor="middle" x="137.5" y="-7.5" font-family="Helvetica,sans-Serif" font-size="10.00" fill="#000000">iostream</text>
</a>
</g>
</g>
<!-- Node1&#45;&gt;Node2 -->
<g id="edge2" class="edge">
<title>Node1&#45;&gt;Node2</title>
<path fill="none" stroke="#191970" d="M114.3772,-56.2455C118.1513,-48.6973 123.4921,-38.0158 128.0901,-28.8197"/>
<polygon fill="#191970" stroke="#191970" points="131.337,-30.1522 132.6787,-19.6427 125.076,-27.0217 131.337,-30.1522"/>
</g>
<!-- Node3 -->
<g id="node4" class="node">
<title>Node3</title>
<g id="a_node4"><a xlink:title=" ">
<polygon fill="none" stroke="#bfbfbf" points="208,-.5 208,-19.5 277,-19.5 277,-.5 208,-.5"/>
<text text-anchor="middle" x="242.5" y="-7.5" font-family="Helvetica,sans-Serif" font-size="10.00" fill="#000000">sstream</text>
</a>
</g>
</g>
<!-- Node1&#45;&gt;Node3 -->
<g id="edge3" class="edge">
<title>Node1&#45;&gt;Node3</title>
<path fill="none" stroke="#191970" d="M132.3635,-56.3733C153.905,-47.3032 186.3838,-33.6279 210.4956,-23.4755"/>
<polygon fill="#191970" stroke="#191970" points="212.0767,-26.6075 219.9348,-19.5011 209.3603,-20.156 212.0767,-26.6075"/>
</g>
<!-- Node4&#45;&gt;Node2 -->
<g id="edge5" class="edge">
<title>Node4&#45;&gt;Node2</title>
<path fill="none" stroke="#191970" d="M236.8713,-56.3733C217.6081,-47.3838 188.6514,-33.8706 166.9581,-23.7471"/>
<polygon fill="#191970" stroke="#191970" points="168.4015,-20.5584 157.8595,-19.5011 165.4413,-26.9017 168.4015,-20.5584"/>
</g>
<!-- Node4&#45;&gt;Node3 -->
<g id="edge6" class="edge">
<title>Node4&#45;&gt;Node3</title>
<path fill="none" stroke="#191970" d="M254.8872,-56.2455C252.9084,-48.8579 250.1256,-38.4689 247.6988,-29.4087"/>
<polygon fill="#191970" stroke="#191970" points="251.0511,-28.3966 245.0829,-19.6427 244.2895,-30.2078 251.0511,-28.3966"/>
</g>
<!-- Node5&#45;&gt;Node1 -->
<g id="edge8" class="edge">
<title>Node5&#45;&gt;Node1</title>
<path fill="none" stroke="#191970" d="M109.5,-112.2455C109.5,-104.9382 109.5,-94.6944 109.5,-85.7046"/>
<polygon fill="#191970" stroke="#191970" points="113.0001,-85.6426 109.5,-75.6427 106.0001,-85.6427 113.0001,-85.6426"/>
</g>
<!-- Node6&#45;&gt;Node1 -->
<g id="edge11" class="edge">
<title>Node6&#45;&gt;Node1</title>
<path fill="none" stroke="#191970" d="M182.2152,-168.2993C184.0982,-154.7322 185.6431,-129.7622 175.5,-112 167.8089,-98.5316 154.3715,-88.0923 141.6202,-80.5884"/>
<polygon fill="#191970" stroke="#191970" points="143.0038,-77.3564 132.5486,-75.6419 139.6527,-83.5021 143.0038,-77.3564"/>
</g>
<!-- Node6&#45;&gt;Node4 -->
<g id="edge12" class="edge">
<title>Node6&#45;&gt;Node4</title>
<path fill="none" stroke="#191970" d="M187.065,-168.4509C199.9077,-149.7707 228.5399,-108.1238 245.0726,-84.0761"/>
<polygon fill="#191970" stroke="#191970" points="248.1705,-85.7482 250.9516,-75.5249 242.4022,-81.7825 248.1705,-85.7482"/>
</g>
<!-- Node6&#45;&gt;Node5 -->
<g id="edge10" class="edge">
<title>Node6&#45;&gt;Node5</title>
<path fill="none" stroke="#191970" d="M168.1327,-168.2455C157.5446,-159.8943 142.0936,-147.7076 129.7107,-137.9408"/>
<polygon fill="#191970" stroke="#191970" points="131.7447,-135.0875 121.7255,-131.6427 127.4097,-140.5837 131.7447,-135.0875"/>
</g>
</g>
</svg>
