<?xml version="1.0" encoding="UTF-8" standalone="no"?>
<!DOCTYPE svg PUBLIC "-//W3C//DTD SVG 1.1//EN"
 "http://www.w3.org/Graphics/SVG/1.1/DTD/svg11.dtd">
<!-- Generated by graphviz version 2.40.1 (0)
 -->
<!-- Title: colorPicker/SolidColorPicker.h Pages: 1 -->
<svg width="360pt" height="84pt"
 viewBox="0.00 0.00 360.00 84.00" xmlns="http://www.w3.org/2000/svg" xmlns:xlink="http://www.w3.org/1999/xlink">
<g id="graph0" class="graph" transform="scale(1 1) rotate(0) translate(4 80)">
<title>colorPicker/SolidColorPicker.h</title>
<!-- Node6 -->
<g id="node1" class="node">
<title>Node6</title>
<g id="a_node1"><a xlink:title=" ">
<polygon fill="#bfbfbf" stroke="#000000" points="99.5,-56.5 99.5,-75.5 341.5,-75.5 341.5,-56.5 99.5,-56.5"/>
<text text-anchor="middle" x="220.5" y="-63.5" font-family="Helvetica,sans-Serif" font-size="10.00" fill="#000000">colorPicker/SolidColorPicker.h</text>
</a>
</g>
</g>
<!-- Node7 -->
<g id="node2" class="node">
<title>Node7</title>
<g id="a_node2"><a xlink:href="SolidColorPicker_8cpp.html" target="_top" xlink:title=" ">
<polygon fill="none" stroke="#000000" points="0,-.5 0,-19.5 257,-19.5 257,-.5 0,-.5"/>
<text text-anchor="middle" x="128.5" y="-7.5" font-family="Helvetica,sans-Serif" font-size="10.00" fill="#000000">colorPicker/SolidColorPicker.cpp</text>
</a>
</g>
</g>
<!-- Node6&#45;&gt;Node7 -->
<g id="edge1" class="edge">
<title>Node6&#45;&gt;Node7</title>
<path fill="none" stroke="#191970" d="M195.4776,-50.769C179.175,-40.8456 158.399,-28.1994 144.3415,-19.6427"/>
<polygon fill="#191970" stroke="#191970" points="194.113,-54.0357 204.4748,-56.2455 197.7527,-48.0563 194.113,-54.0357"/>
</g>
<!-- Node8 -->
<g id="node3" class="node">
<title>Node8</title>
<g id="a_node3"><a xlink:href="main_8cpp.html" target="_top" xlink:title=" ">
<polygon fill="none" stroke="#000000" points="275,-.5 275,-19.5 352,-19.5 352,-.5 275,-.5"/>
<text text-anchor="middle" x="313.5" y="-7.5" font-family="Helvetica,sans-Serif" font-size="10.00" fill="#000000">main.cpp</text>
</a>
</g>
</g>
<!-- Node6&#45;&gt;Node8 -->
<g id="edge2" class="edge">
<title>Node6&#45;&gt;Node8</title>
<path fill="none" stroke="#191970" d="M245.3335,-51.0465C261.8811,-41.0824 283.1432,-28.2794 297.4863,-19.6427"/>
<polygon fill="#191970" stroke="#191970" points="243.4607,-48.0886 236.6994,-56.2455 247.0717,-54.0854 243.4607,-48.0886"/>
</g>
</g>
</svg>
